<?xml version="1.0" standalone="no"?>
<!DOCTYPE svg PUBLIC "-//W3C//DTD SVG 1.1//EN" "http://www.w3.org/Graphics/SVG/1.1/DTD/svg11.dtd" >
<svg xmlns="http://www.w3.org/2000/svg">
<metadata></metadata>
<defs>
<font id="pt_serifitalic" horiz-adv-x="1073" >
<font-face units-per-em="2048" ascent="1638" descent="-410" />
<missing-glyph horiz-adv-x="497" />
<glyph unicode="&#xfb01;" horiz-adv-x="1081" d="M-106 -389q25 12 59.5 44t68 85t63.5 130t46 179l133 873h-149v53q41 23 87 40t87 27l14 72q27 127 74 210t108.5 131t137 66.5t159.5 18.5q86 0 162 -26.5t121 -59.5q-4 -45 -36 -101.5t-81 -78.5l-164 184q-49 0 -94 -12t-85 -48t-71.5 -100.5t-54.5 -171.5l-20 -102 h123q43 0 94 2t101 5t96.5 8t78.5 10l37 -25l-172 -909h152v-54q-43 -33 -100.5 -53t-112.5 -20q-59 0 -85 26.5t-26 61.5q0 41 6 80t17 86l131 680h-361l-131 -834q-23 -145 -76 -241.5t-113.5 -156t-117.5 -88t-88 -36.5z" />
<glyph unicode="&#xfb02;" horiz-adv-x="1118" d="M-106 -389q25 12 59.5 44t68 85t63.5 130t46 179l133 873h-149v53q41 23 87 40t87 27l14 72q43 199 151.5 312.5t297.5 113.5q37 0 79.5 -7t77.5 -22q41 10 81 18.5t73 10.5l41 -22l-262 -1403h149v-54q-41 -33 -99 -53t-114 -20q-59 0 -86.5 26.5t-27.5 61.5q0 41 6 80 t16 86q39 195 69.5 347t53 269t39 201t26.5 143q23 137 29 182q-31 35 -69.5 55.5t-85.5 20.5q-41 0 -79 -12t-73 -48t-64.5 -101.5t-52.5 -172.5l-20 -102h223q10 -51 -20 -102h-224q-29 -184 -57.5 -366.5t-56.5 -369.5q-31 -178 -82.5 -291.5t-109.5 -182t-116.5 -100.5 t-103.5 -46z" />
<glyph horiz-adv-x="2048" />
<glyph horiz-adv-x="2048" />
<glyph unicode="&#xd;" horiz-adv-x="497" />
<glyph unicode=" "  horiz-adv-x="497" />
<glyph unicode="&#x09;" horiz-adv-x="497" />
<glyph unicode="&#xa0;" horiz-adv-x="497" />
<glyph unicode="!" horiz-adv-x="669" d="M139 117q0 61 39 98t101 37q63 0 102 -37t39 -98q0 -59 -39 -96t-102 -37q-61 0 -100.5 37t-39.5 96zM299 446l8 361l123 606q49 23 102 23t95 -23l-135 -606l-140 -361h-53z" />
<glyph unicode="&#x22;" horiz-adv-x="698" d="M182 1372q16 27 41 44.5t60 17.5q63 0 73 -62l-131 -340h-41zM428 1372q16 27 41 44.5t60 17.5q63 0 73 -62l-131 -340h-41z" />
<glyph unicode="#" d="M63 477l52 94h155l140 308h-158l49 94h150l155 342h107l-154 -342h291l156 342h106l-156 -342h164l-55 -94h-150l-139 -308h158l-57 -94h-142l-162 -358h-106l162 358h-293l-160 -358h-108l161 358h-166zM379 571h291l139 308h-291z" />
<glyph unicode="$" d="M35 90q16 68 39.5 129.5t48.5 102.5h53l82 -199q39 -39 150 -41l124 575q-53 35 -104 71t-91 82t-65.5 104.5t-25.5 138.5q0 74 28.5 144.5t85 125.5t141.5 91t197 42l23 100h106l-22 -100q100 -4 172 -22.5t123 -42.5q-18 -68 -51 -114t-64 -77h-53l-74 139 q-16 2 -34.5 4.5t-39.5 6.5l-110 -527q49 -33 99 -68.5t90 -84.5t64.5 -115t24.5 -154q0 -80 -31.5 -151.5t-91 -127.5t-145.5 -94t-192 -48l-25 -123h-107l25 118q-53 2 -107.5 14.5t-101.5 30t-85 36t-56 34.5zM436 1112q0 -84 41 -136t103 -93l100 467 q-111 -8 -177.5 -70t-66.5 -168zM512 88q49 8 93 28.5t79 52.5t55.5 75t20.5 98q0 86 -40 145.5t-99 106.5z" />
<glyph unicode="%" horiz-adv-x="1601" d="M86 51l1360 1403l71 -63l-1362 -1405zM129 1024q0 94 37 174t98 137.5t141 90t166 32.5q141 0 217 -73.5t76 -190.5q0 -106 -40 -187t-102.5 -135.5t-141 -82t-156.5 -27.5q-61 0 -115.5 19.5t-94.5 54t-62.5 83t-22.5 105.5zM299 1022q0 -37 7 -69.5t24.5 -58.5t44 -41 t63.5 -15q45 0 91 22.5t83 69.5t59.5 118.5t22.5 170.5q0 31 -7 59.5t-23.5 52t-43 36.5t-67.5 13q-45 0 -90 -27.5t-82 -74.5t-59.5 -113.5t-22.5 -142.5zM725 240q0 94 37 174t98 137.5t141 90t166 32.5q141 0 217 -73.5t76 -190.5q0 -106 -40 -187t-102.5 -135.5 t-141 -82t-156.5 -27.5q-61 0 -115.5 19.5t-94.5 54t-62.5 83t-22.5 105.5zM895 238q0 -37 7 -69.5t24.5 -58.5t44 -41t63.5 -15q45 0 91 22.5t83 69.5t59.5 118.5t22.5 170.5q0 31 -7 59.5t-23.5 52t-43 36.5t-67.5 13q-45 0 -90 -27.5t-82 -74.5t-59.5 -113.5 t-22.5 -142.5z" />
<glyph unicode="&#x26;" horiz-adv-x="1785" d="M137 309q0 104 51.5 193.5t122 162t143 124t117.5 77.5q-45 66 -61 133.5t-16 139.5q0 66 30.5 124t81.5 101t119 68.5t141 25.5q260 0 260 -207q0 -70 -33.5 -131t-86 -113.5t-114 -96.5t-114.5 -79q61 -104 148.5 -214.5t185.5 -221.5q20 23 57 76t74 125t68.5 157 t44.5 169q-66 12 -111 49l10 53h416l-12 -53q-66 -35 -146 -49q-45 -121 -94 -219.5t-95 -173t-85 -127t-61 -76.5q66 -63 128 -117.5t144 -108.5l104 -49l-12 -51h-291q-39 29 -95 71t-118 117q-37 -39 -88 -76.5t-115.5 -68.5t-140.5 -49.5t-157 -18.5q-100 0 -175 27 t-125.5 73t-75 106.5t-24.5 127.5zM356 348q2 -117 76 -191.5t203 -74.5q92 0 180 42t168 128q-51 55 -107.5 130t-108.5 152.5t-94 149.5t-63 119q-109 -86 -180.5 -195.5t-73.5 -259.5zM649 1155q0 -70 29 -141.5t70 -130.5q43 31 82.5 67.5t72.5 78.5t52.5 89t19.5 101 q0 72 -28.5 112.5t-98.5 38.5q-45 2 -82 -16.5t-62.5 -48t-40 -68.5t-14.5 -82z" />
<glyph unicode="'" horiz-adv-x="452" d="M182 1372q16 27 41 44.5t60 17.5q63 0 73 -62l-131 -340h-41z" />
<glyph unicode="(" horiz-adv-x="702" d="M125 240q0 229 68.5 415.5t174 334t234.5 259t252 189.5l35 -37q-100 -86 -204.5 -203t-190.5 -259t-140.5 -312t-52.5 -363q-2 -184 43 -345t166 -308l-59 -41q-176 152 -251 316.5t-75 353.5z" />
<glyph unicode=")" horiz-adv-x="702" d="M-164 -389q90 74 193.5 188.5t190.5 263t145.5 328.5t58.5 385q0 88 -9 164t-33 149.5t-65 149.5t-104 162l53 37q176 -160 253 -325t77 -357q0 -213 -63.5 -396.5t-166 -333t-230.5 -265t-259 -191.5z" />
<glyph unicode="*" horiz-adv-x="952" d="M295 1007.5q-6 22.5 0 39.5l256 88q31 -18 31 -50l-207 -176q-16 2 -32.5 17.5t-29 37t-18.5 44zM295 1297.5q4 21.5 16.5 43t29.5 38t36 20.5l205 -178q0 -39 -29 -54l-256 95q-6 14 -2 35.5zM567 1509q8 14 29.5 20.5t46.5 6.5t47.5 -6t32.5 -21l-45 -266 q-31 -20 -64 0zM569 795l47 266q33 16 66 0l43 -264q-10 -14 -30.5 -19.5t-45.5 -5.5t-47 5t-33 18zM713 1217l205 182q16 -2 32.5 -17.5t28.5 -37t17 -44t-1 -40.5l-254 -97q-29 20 -28 54zM715 1081q0 33 26 52l252 -86q8 -14 3 -37t-17 -44.5t-28.5 -38t-35.5 -18.5z" />
<glyph unicode="+" d="M76 649v109h405v430h109v-430h407v-109h-407v-440h-109v440h-405z" />
<glyph unicode="," horiz-adv-x="579" d="M-74 -305q43 14 84 44t75 66.5t55.5 80.5t27.5 87q-20 23 -56 45.5t-65 32.5q-2 39 14.5 76t41 65.5t52 46t50.5 19.5q70 -10 104.5 -49t34.5 -117t-34 -151.5t-88 -135t-124.5 -106.5t-144.5 -66z" />
<glyph unicode="-" horiz-adv-x="870" d="M145 512l29 129h578l-27 -129h-580z" />
<glyph unicode="." horiz-adv-x="555" d="M59 117q0 61 39 98t101 37q63 0 102 -37t39 -98q0 -59 -39 -96t-102 -37q-61 0 -100.5 37t-39.5 96z" />
<glyph unicode="/" horiz-adv-x="704" d="M-76 -227l746 1685l86 -37l-748 -1687z" />
<glyph unicode="0" d="M39 416q0 121 18.5 245.5t54 240.5t90 217.5t127 177t164 118.5t199.5 43q121 0 196 -44t117 -110.5t56 -142.5t14 -139q0 -182 -41 -367.5t-122 -337t-203.5 -247t-286.5 -95.5q-121 0 -196.5 44t-116.5 111t-55.5 143.5t-14.5 142.5zM236 408q0 -59 9 -121t31.5 -112 t61.5 -83t98 -33q111 0 194 88.5t138 228.5t83 311t28 337q0 61 -9.5 122.5t-32 112t-61.5 82t-98 33.5q-113 -2 -196 -93t-138 -232.5t-81.5 -311t-26.5 -329.5z" />
<glyph unicode="1" d="M176 0l12 59q55 25 111.5 41.5t114.5 28.5l213 1006l39 120q-59 -23 -127 -32t-133 -6v49q100 31 210.5 75.5t210.5 116.5h52l-281 -1329q100 -23 188 -70l-12 -59h-598z" />
<glyph unicode="2" d="M-12 0l14 66q61 49 147.5 122.5t181.5 162.5t189 191.5t169 208t122 212t47 204.5q0 82 -50 133.5t-149 51.5q-86 0 -155 -25l-131 -293h-51q-10 59 -17.5 139t-5.5 152q86 59 180 96t211 37q102 0 171 -22.5t111 -62.5t60.5 -92t18.5 -112q0 -119 -71 -244.5 t-178.5 -247.5t-234.5 -233.5t-237 -199.5l-103 -80v-8l115 12h352l150 229h51q-2 -49 -8 -103t-15.5 -107.5t-19.5 -101.5t-18 -85h-846z" />
<glyph unicode="3" d="M12 80l94 184h41q10 -14 26.5 -36.5t35 -47t36 -49.5t29.5 -43q20 -4 55.5 -10t88.5 -6q84 0 149.5 33.5t109.5 89t66.5 126t20.5 144.5q2 125 -66.5 177t-193.5 52h-123l2 51l434 465l92 72v8l-110 -12h-332l-125 -209h-51q2 88 9 189.5t24 175.5h790l-2 -64l-422 -457 l-121 -90v-4l72 15q166 -14 243 -98.5t77 -233.5q0 -104 -34 -200.5t-105.5 -168.5t-184.5 -115t-272 -43q-47 0 -99.5 7.5t-100.5 21.5t-88 32.5t-65 43.5z" />
<glyph unicode="4" d="M-35 395l10 47l973 1016h56l-203 -956h262l-25 -107h-260l-61 -286q35 -8 71.5 -20.5t71.5 -29.5l-10 -59h-531l11 59q53 16 102 28.5t98 21.5l60 286h-625zM129 487l150 15h335l111 526l59 148h-6l-108 -148l-445 -473z" />
<glyph unicode="5" d="M31 80l96 184h41q10 -14 23.5 -36.5t27.5 -47t28.5 -49.5t26.5 -43q20 -4 45 -10t62 -6q98 0 170 33.5t118 91t68.5 131t22.5 151.5q0 135 -89 192.5t-249 53.5l-146 -2l232 711h489l111 112h51q-6 -31 -17.5 -68.5t-24.5 -75.5t-28.5 -73t-27.5 -57h-506l-131 -395h100 q197 0 304.5 -88.5t107.5 -258.5q0 -123 -41 -225t-115.5 -176t-180 -114t-237.5 -40q-49 0 -97 7.5t-93 21.5t-81 33.5t-60 42.5z" />
<glyph unicode="6" d="M80 375q0 166 67.5 337t194.5 321.5t308 266t409 170.5l8 -61q-270 -98 -453.5 -271t-275.5 -433q49 59 140 103t202 44q178 0 261 -86t83 -225q0 -96 -34 -196.5t-103.5 -182.5t-176 -134.5t-251.5 -52.5q-72 0 -140.5 19.5t-122 67t-85 123t-31.5 190.5zM276 391 q0 -63 9.5 -121.5t34 -102.5t66.5 -70.5t106 -26.5q88 0 151.5 46t104 114.5t60 147t19.5 144.5q0 109 -50 166t-173 57q-92 0 -170 -47t-125 -108q-6 -16 -12 -44t-10 -56.5t-7.5 -56t-3.5 -42.5z" />
<glyph unicode="7" d="M150 0q127 293 294.5 591t395.5 597l82 98l-109 -10h-424l-125 -209h-51q4 88 12 190.5t23 176.5h848v-60q-145 -176 -254 -341t-195 -330.5t-155.5 -339t-137.5 -363.5h-204z" />
<glyph unicode="8" d="M25 279q0 152 107.5 266t311.5 174q-100 72 -150 149.5t-50 178.5q0 86 31.5 161.5t91 131t145.5 87t195 31.5q174 0 258 -75.5t84 -202.5q0 -61 -26 -121t-73 -113t-114.5 -96t-149.5 -72q57 -39 102.5 -76.5t77 -82t49 -97.5t17.5 -123q0 -78 -33 -154.5t-98.5 -136 t-164.5 -96.5t-230 -37q-180 0 -280.5 83.5t-100.5 220.5zM201 289q0 -98 61.5 -158.5t165.5 -60.5q88 0 150.5 27.5t101.5 70.5t57.5 96.5t18.5 104.5q0 53 -20.5 96t-55.5 81t-84 72.5t-107 69.5q-90 -47 -146 -100t-88 -106.5t-43 -103.5t-11 -89zM420 1081 q0 -41 19.5 -79.5t50 -74.5t70.5 -67t83 -55q123 92 177 184t52 178q2 82 -43 138.5t-153 56.5q-61 0 -109.5 -22.5t-81 -61.5t-49 -90.5t-16.5 -106.5z" />
<glyph unicode="9" d="M80 35q272 98 454.5 271t274.5 433q-49 -59 -139 -103t-201 -44q-180 0 -262 86t-82 227q0 96 34 196.5t103.5 182.5t175 134t250.5 52q72 0 140.5 -19t122 -66.5t86 -124t32.5 -189.5q0 -166 -67.5 -337t-195.5 -321.5t-309.5 -266t-408.5 -171.5zM322 924 q0 -109 49 -167.5t172 -58.5q92 0 170 48.5t125 109.5q6 16 12 44t11 56.5t8 55t3 43.5q0 63 -10 121.5t-34.5 102.5t-66.5 69.5t-106 25.5q-88 0 -151.5 -46t-103.5 -113.5t-59 -146t-19 -144.5z" />
<glyph unicode=":" horiz-adv-x="661" d="M155 117q0 61 39 98t101 37q63 0 102 -37t39 -98q0 -59 -39 -96t-102 -37q-61 0 -100.5 37t-39.5 96zM258 905q0 61 39 98t101 37q63 0 102 -37t39 -98q0 -59 -39 -96t-102 -37q-61 0 -100.5 37t-39.5 96z" />
<glyph unicode=";" horiz-adv-x="638" d="M-6 -305q43 14 84 44t75 66.5t55.5 80.5t27.5 87q-20 23 -56 45.5t-65 32.5q-2 39 14.5 76t41 65.5t52 46t50.5 19.5q70 -10 104.5 -49t34.5 -117t-34 -151.5t-88 -135t-124.5 -106.5t-144.5 -66zM247 905q0 61 39 98t101 37q63 0 102 -37t39 -98q0 -59 -39 -96t-102 -37 q-61 0 -100.5 37t-39.5 96z" />
<glyph unicode="&#x3c;" d="M90 664v63l789 481l51 -90l-512 -309l-176 -82l174 -63l542 -320l-81 -133z" />
<glyph unicode="=" d="M27 485v109h921v-109h-921zM27 813v109h921v-109h-921z" />
<glyph unicode="&#x3e;" d="M115 1075l82 133l786 -452v-64l-788 -481l-50 90l512 309l174 82l-172 64z" />
<glyph unicode="?" horiz-adv-x="1011" d="M242 117q0 61 38.5 98t100.5 37q63 0 102 -37t39 -98q0 -59 -39 -96t-102 -37q-61 0 -100 37t-39 96zM324 1289q0 42 4 83q88 47 177 66.5t193 19.5q164 0 252 -72.5t88 -201.5q0 -102 -43 -177t-108.5 -135.5t-143 -112.5t-147.5 -108.5t-121 -124t-61 -157.5h-41 q-8 106 23.5 186t82.5 144.5t114.5 118.5t118 108.5t91.5 113t39 134.5q-2 92 -54.5 135t-136.5 43q-66 0 -109.5 -10.5t-64.5 -26.5l-80 -252h-51q-4 29 -9 65.5t-9 77.5t-4 83z" />
<glyph unicode="@" horiz-adv-x="2062" d="M164 483q0 223 73.5 403.5t201.5 307.5t300 195.5t369 68.5q184 0 343 -54t275.5 -155.5t181 -248t64.5 -332.5q0 -133 -45 -252t-124 -209t-181 -143.5t-215 -53.5q-61 0 -104 19.5t-66 63.5t-24 113.5t22 168.5h-8q-23 -66 -63 -130.5t-91 -116.5t-109.5 -85 t-117.5 -33q-123 0 -189.5 85t-66.5 227q0 131 44 255.5t118.5 223t173 158t207.5 59.5q74 0 116.5 -12t91.5 -35q76 35 154 33l-104 -586q-12 -68 -17.5 -123t-0.5 -95t22.5 -61.5t52.5 -21.5q68 0 139.5 38t132 109.5t98 174t37.5 229.5q0 156 -58 282.5t-161.5 215.5 t-242 137.5t-295.5 48.5q-188 0 -339 -66.5t-257.5 -182.5t-163.5 -272.5t-57 -334.5q0 -182 59 -322.5t166.5 -238t256 -147.5t327.5 -50q59 0 134.5 14.5t137.5 42.5l33 -90q-72 -41 -158 -57.5t-190 -16.5q-176 0 -336 53.5t-282 160t-193.5 266t-71.5 372.5zM774 346 q0 -98 31 -153.5t117 -55.5q39 0 84 38t89 99.5t86 138t74 154.5l52 305q-33 20 -67 30.5t-87 8.5q-78 2 -147.5 -52t-120.5 -138t-81 -183.5t-30 -191.5z" />
<glyph unicode="A" horiz-adv-x="1380" d="M-100 0l12 59q80 33 160 50l809 1349h53l231 -1349q37 -8 75 -19.5t69 -30.5l-11 -59h-520l10 59q92 35 181 50l-62 374h-481l-219 -374q88 -12 164 -50l-11 -59h-460zM485 590h406l-66 434l-4 176h-4l-82 -180z" />
<glyph unicode="B" horiz-adv-x="1239" d="M-41 0l10 59q92 39 181 50l256 1214q-41 8 -80 21.5t-78 29.5l14 60h217q76 0 152 6t190 6q82 0 156 -14.5t129 -45t88 -81t33 -123.5q0 -72 -21.5 -136.5t-66.5 -119t-114 -95t-161 -65.5v-8q47 -4 96.5 -20.5t89.5 -48.5t64.5 -80t24.5 -113q0 -109 -41 -201 t-122 -160.5t-204 -107.5t-287 -39q-72 0 -158.5 6t-170.5 6h-197zM334 111q28 -7 66 -13q28 -4 82 -5q20 0 42 1h13q77 0 147 22q76 24 133 72t91 116.5t34 156.5q0 68 -23.5 110.5t-67.5 65t-105.5 31t-137.5 8.5h-155zM475 782h103q35 0 83 3t82 8q162 57 224.5 154 t62.5 212q0 80 -57.5 130t-192.5 50q-66 0 -111.5 -3t-76.5 -7z" />
<glyph unicode="C" horiz-adv-x="1300" d="M135 528q0 209 59.5 380t169 293t266 189.5t353.5 67.5q135 0 229.5 -18.5t157.5 -50.5q-6 -33 -17.5 -77t-26.5 -93.5t-31.5 -96.5t-30.5 -86h-54l-43 295q-27 10 -81 15.5t-105 5.5q-135 0 -250 -52.5t-198.5 -155t-131 -256t-47.5 -356.5q0 -127 44 -214t110 -140 q67 -54 145 -76q72 -21 137 -20h11h20q57 0 98 10q48 12 70 27l152 254h51q0 -57 -11.5 -144.5t-33.5 -169.5q-41 -23 -88 -39t-98.5 -26t-100.5 -14.5t-92 -4.5q-174 0 -295 49.5t-195.5 129t-108.5 178t-34 196.5z" />
<glyph unicode="D" horiz-adv-x="1437" d="M-41 0l10 59q84 35 181 50l256 1214q-45 10 -85 23.5t-73 27.5l14 60h207q35 0 83 2t98 5t97.5 6t77.5 3q164 0 279 -39t185.5 -105.5t102 -157.5t31.5 -196q0 -104 -17 -217.5t-58 -221t-110 -204t-172 -169t-244.5 -115.5t-325.5 -43q-31 0 -73 3t-89 6l-94 6t-86 3 h-195zM330 94q20 -2 50 -3l60 -2q28 -1 52 -2h15q13 0 21 1h10q187 0 313 76q130 78 209 204t111.5 282.5t32.5 314.5q0 80 -18.5 149.5t-65.5 119.5t-128 79.5t-208 29.5q-53 0 -108 -2t-84 -6z" />
<glyph unicode="E" horiz-adv-x="1171" d="M-41 0l10 59q84 35 181 50l256 1214q-41 10 -80 22.5t-78 28.5l14 60h969q-16 -82 -39 -166t-53 -166h-54l-34 225h-449l-113 -543h332l113 152h51q-16 -102 -37.5 -205.5t-50.5 -208.5h-51l-47 156h-334l-119 -572h469l154 246h51q-4 -80 -16.5 -171t-34.5 -181h-1010z " />
<glyph unicode="F" horiz-adv-x="1095" d="M-41 0l10 59q37 16 78 28.5t82 21.5l256 1214q-41 12 -76 24.5t-61 26.5l14 60h961q-18 -80 -41 -164t-54 -168h-53l-35 225h-458l-123 -584h358l111 152h51q-10 -92 -33.5 -206t-52.5 -208h-51l-45 158h-361l-110 -530q86 -12 163 -50l-10 -59h-520z" />
<glyph unicode="G" horiz-adv-x="1390" d="M135 530q0 207 58.5 378t169 293t269.5 189.5t359 67.5q135 0 231.5 -17.5t159.5 -51.5q-6 -31 -17 -76t-26.5 -94.5t-32 -97.5t-30.5 -85h-53l-43 295q-37 10 -92.5 15.5t-106.5 5.5q-158 0 -275.5 -64.5t-195.5 -175.5t-117 -259t-39 -318q0 -145 41 -234.5 t101.5 -138.5t129.5 -66q61 -14 113 -14h13h11q76 0 141 24q69 27 95 48l91 413q-53 4 -98.5 18.5t-88.5 30.5l15 60h501l-12 -60q-23 -14 -55.5 -26t-83.5 -23l-99 -469q-45 -27 -102 -49t-117.5 -38.5t-121 -26t-111.5 -9.5q-272 0 -427 144.5t-155 410.5z" />
<glyph unicode="H" horiz-adv-x="1472" d="M-41 0l10 59q45 20 90 31.5t91 18.5l256 1214q-92 18 -158 51l14 60h518l-12 -60q-35 -18 -80 -30.5t-86 -20.5l-113 -535h644l114 535q-41 10 -76.5 21.5t-68.5 29.5l14 60h518l-12 -60q-41 -20 -87 -31.5t-91 -19.5l-258 -1214q92 -16 155 -50l-10 -59h-518l10 59 q39 16 81 28.5t85 21.5l121 573h-645l-119 -573q37 -8 74 -20.5t67 -29.5l-10 -59h-518z" />
<glyph unicode="I" horiz-adv-x="702" d="M-2 0l10 59q90 37 176 50l256 1214q-41 8 -77.5 21.5t-75.5 29.5l14 60h524l-12 -60q-41 -16 -88 -29.5t-88 -21.5l-256 -1214q41 -8 81 -20.5t70 -29.5l-10 -59h-524z" />
<glyph unicode="J" horiz-adv-x="677" d="M-66 -297q41 33 75 66.5t62.5 84t53.5 122t47 178.5l246 1169q-88 20 -152 51l13 60h522l-10 -60q-41 -18 -88.5 -30.5t-88.5 -20.5l-241 -1147q-31 -141 -83 -233.5t-112.5 -148.5t-121 -83.5t-107.5 -38.5z" />
<glyph unicode="K" horiz-adv-x="1304" d="M-41 0l10 59q92 37 181 50l256 1214q-45 8 -85 20.5t-73 30.5l14 60h518l-12 -60q-70 -33 -166 -51l-119 -567l123 28l492 539q-41 10 -74 21.5t-63 29.5l14 60h465l-15 -60q-37 -18 -82 -30.5t-83 -20.5l-531 -553q37 -68 85 -149.5t102.5 -170t112.5 -178.5t116 -172 l88 -49l-10 -51h-248l-60 49q-92 141 -178 305t-162 332h-108l-121 -577q84 -16 141 -50l-10 -59h-518z" />
<glyph unicode="L" horiz-adv-x="1101" d="M-41 0l10 59q55 23 98.5 33t82.5 17l256 1214q-96 18 -158 51l14 60h561l-14 -60q-51 -18 -103.5 -31.5t-103.5 -19.5l-256 -1217h469l191 330h53q-4 -43 -10.5 -99t-15.5 -116.5t-20.5 -118t-23.5 -102.5h-1030z" />
<glyph unicode="M" horiz-adv-x="1755" d="M-41 0l10 59q82 35 178 52l256 1212q-41 8 -81.5 21.5t-75.5 29.5l12 60h426l145 -936l25 -211h2l107 215l577 932h377l-14 -60q-80 -35 -166 -51l-258 -1217q41 -8 77.5 -19t65.5 -28l-10 -59h-508l10 59q45 16 88 27.5t90 22.5l193 921l61 240h-16l-111 -219 l-647 -1051h-53l-178 1051l-23 239h-18l-54 -260l-194 -921q37 -8 73.5 -20.5t71.5 -29.5l-12 -59h-426z" />
<glyph unicode="N" horiz-adv-x="1480" d="M-41 0l10 59q88 53 185 72l249 1174q-39 16 -74.5 34.5t-64.5 36.5l10 58h340l441 -973l61 -176h8l33 176l176 831q-82 35 -141 82l12 60h436l-12 -60q-41 -29 -90 -49t-94 -33l-281 -1317h-110l-514 1129l-43 160h-7l-20 -160l-205 -973q37 -10 74 -28.5t68 -43.5 l-13 -59h-434z" />
<glyph unicode="O" horiz-adv-x="1495" d="M135 569q0 186 56.5 348t163 282t256 189.5t337.5 69.5q150 0 252.5 -49t164.5 -129t90 -183.5t28 -213.5q0 -164 -46 -327t-142.5 -292t-243 -209t-346.5 -80q-147 0 -255 48.5t-177.5 129t-103.5 188t-34 228.5zM354 567q0 -113 30 -203t82 -154q52 -62 122 -96 q67 -32 146 -32h9h8q145 0 241 72q100 74 160 192.5t86 261t26 277.5q0 104 -23.5 190t-71 147.5t-116 95.5t-158.5 34q-141 0 -243.5 -74t-169 -188.5t-97.5 -254t-31 -268.5z" />
<glyph unicode="P" horiz-adv-x="1198" d="M-41 0l10 59q47 20 91 30.5t90 19.5l256 1214q-45 8 -84 21.5t-74 29.5l14 60h184q82 0 179.5 8t185.5 8q98 0 181 -19.5t141.5 -61.5t91 -104.5t32.5 -148.5q0 -121 -44 -223t-126.5 -178t-199.5 -119t-260 -43h-34t-51.5 1t-55 3t-46.5 4l-94 -452q53 -6 99.5 -19.5 t84.5 -30.5l-10 -59h-561zM465 670q10 -2 29.5 -4t41 -3t41 -2.5t31.5 -1.5q213 0 321.5 122t108.5 333q0 51 -11 93t-43 73t-86 47t-140 16q-49 0 -87 -3t-67 -7z" />
<glyph unicode="Q" horiz-adv-x="1536" d="M135 569q0 186 56.5 348t163 282t256 189.5t337.5 69.5q150 0 252.5 -49t164.5 -129t90 -183.5t28 -213.5q0 -164 -46 -327t-142.5 -292t-243 -209t-346.5 -80q-147 0 -255 48.5t-177.5 129t-103.5 188t-34 228.5zM338 -135l72 41q48 6 94 6t91 -6q89 -12 174 -37 t171 -52.5t176 -44.5q81 -16 168 -16h20q99 2 212 37l4 -29q-98 -74 -194 -126q-93 -50 -191 -50h-7q-84 0 -169 31t-180 74t-203.5 90t-237.5 82zM354 567q0 -113 30 -203t82 -153.5t122 -96.5q67 -32 146 -32h9h8q145 0 241 72q100 75 160 193t86 260.5t26 277.5 q0 104 -23.5 190t-71 147.5t-116 95.5t-158.5 34q-141 0 -243.5 -74t-169 -188.5t-97.5 -254t-31 -268.5z" />
<glyph unicode="R" horiz-adv-x="1284" d="M-41 0l10 59q49 20 93 30.5t88 19.5l256 1214q-49 12 -89.5 24.5t-68.5 26.5l14 60h180q82 0 181.5 8t189.5 8q203 0 302 -87t99 -247q0 -80 -27.5 -153.5t-77.5 -133t-123 -103.5t-165 -67q59 -139 130 -276t147 -272l96 -60l-10 -51h-234l-69 57q-43 72 -77 141.5 t-61.5 139.5t-49 143.5t-40.5 153.5h-196l-111 -526q90 -16 162 -50l-10 -59h-539zM475 723h146h12q101 0 171 33q74 35 120.5 93t68 132t21.5 152v7q0 106 -63 154q-65 50 -206 49q-47 0 -80.5 -3t-62.5 -7z" />
<glyph unicode="S" horiz-adv-x="1079" d="M45 72q8 37 23.5 87t34 101t37 99.5t34.5 82.5h53l21 -301q23 -17 76 -39q48 -20 102 -20h10h19q59 0 113 10q64 12 114.5 43t81.5 81t31 126q0 84 -40 141.5t-99.5 101.5t-128 84t-128 89t-99.5 115.5t-40 164.5q0 94 34 171t100.5 132.5t162.5 86t219 30.5 q125 0 223.5 -19.5t153.5 -47.5q-8 -35 -23.5 -81t-32 -95.5t-35 -95.5t-32.5 -81h-53l-25 281q-35 16 -89 24.5t-118 8.5q-61 0 -115.5 -14.5t-94 -44t-62 -74.5t-22.5 -107q0 -82 39.5 -136t99 -97t128 -83t128 -91.5t99.5 -124t40 -179.5q0 -96 -38 -173.5t-108.5 -134 t-174 -87.5t-234.5 -31q-66 0 -126 8.5t-110.5 22.5t-89 31.5t-59.5 34.5z" />
<glyph unicode="T" horiz-adv-x="1249" d="M180 1034q2 41 9.5 93.5t15.5 106.5t17 106.5t20 93.5h1188q-8 -41 -20.5 -92.5t-27 -105.5t-30 -106.5t-29.5 -95.5h-53l-43 293h-314l-258 -1218q49 -10 93.5 -20.5t82.5 -29.5l-10 -59h-575l10 59q49 18 97 29.5t106 20.5l258 1218h-314l-170 -293h-53z" />
<glyph unicode="U" horiz-adv-x="1363" d="M188 292q-5 35 -5 72q0 64 16 134l176 825q-41 8 -84 21.5t-74 29.5l12 60h521l-13 -60q-80 -35 -166 -51l-174 -813q-16 -75 -16 -134q-1 -28 3 -52q10 -76 49.5 -125t103 -72t147.5 -23q166 0 265.5 92.5t140.5 290.5l174 818q-90 31 -148 69l12 60h439l-15 -60 q-35 -23 -82 -41t-92 -28l-174 -822q-57 -268 -201.5 -384.5t-371.5 -116.5q-135 0 -228.5 38.5t-147 107.5t-67.5 164z" />
<glyph unicode="V" horiz-adv-x="1380" d="M195 1374l12 60h538l-12 -60q-37 -16 -84 -28.5t-94 -22.5l150 -936l10 -164h4l76 168l503 932q-47 10 -88 22.5t-77 28.5l14 60h455l-13 -60q-35 -16 -72.5 -28.5t-84.5 -22.5l-742 -1323l-112 -25l-238 1348q-47 10 -83 23.5t-62 27.5z" />
<glyph unicode="W" horiz-adv-x="1894" d="M195 1374l12 60h528l-12 -60q-41 -16 -85 -28.5t-93 -22.5l26 -829l-6 -267h4l125 271l477 936h72l86 -936l10 -267h4l109 271l365 821q-41 8 -85 20.5t-79 30.5l12 60h451l-13 -60q-39 -20 -78.5 -30.5t-78.5 -20.5l-623 -1323l-131 -25l-94 1115l-555 -1090l-127 -25 l-76 1348q-80 18 -145 51z" />
<glyph unicode="X" horiz-adv-x="1353" d="M-82 0l12 59q41 20 82 30.5t82 19.5l537 612l-254 602q-41 10 -78 21.5t-74 29.5l13 60h544l-12 -60q-63 -29 -168 -51l182 -463l383 463q-39 10 -77.5 20.5t-79.5 30.5l12 60h471l-14 -60q-37 -16 -79 -28.5t-85 -22.5l-488 -555l281 -659q94 -16 154 -50l-11 -59h-544 l10 59q78 37 166 50l-207 514l-430 -517q41 -6 81 -15t74 -32l-12 -59h-471z" />
<glyph unicode="Y" horiz-adv-x="1300" d="M188 1374l15 60h540l-12 -60q-33 -12 -74 -26.5t-94 -24.5l207 -602l434 602q-43 10 -81 22.5t-70 28.5l12 60h457l-15 -60q-41 -20 -82 -31.5t-82 -19.5l-538 -713l-107 -501q76 -10 144 -50l-11 -59h-520l11 59q82 37 180 50l106 499l-264 715q-45 8 -83 21.5t-73 29.5 z" />
<glyph unicode="Z" horiz-adv-x="1234" d="M10 0v104l1077 1223h-595l-187 -287h-53q2 43 9 94.5t15.5 104.5t17.5 103.5t19 91.5h1018v-107l-1077 -1221h643l186 287h54q-4 -43 -10.5 -94t-14.5 -103.5t-17.5 -103.5t-19.5 -92h-1065z" />
<glyph unicode="[" horiz-adv-x="628" d="M-14 -471l403 1905h387l-18 -88h-213l-369 -1729h213l-16 -88h-387z" />
<glyph unicode="\" horiz-adv-x="782" d="M-96 1413l86 45l848 -1677l-84 -47z" />
<glyph unicode="]" horiz-adv-x="628" d="M-117 -471l19 88h211l368 1729h-213l17 88h387l-404 -1905h-385z" />
<glyph unicode="^" horiz-adv-x="1062" d="M215 889l381 567h68l348 -567h-183l-180 309l-47 137l-67 -139l-203 -307h-117z" />
<glyph unicode="_" horiz-adv-x="839" d="M-92 -293h840v-108h-840v108z" />
<glyph unicode="`" horiz-adv-x="661" d="M281 1485v41q12 10 39.5 19t60.5 15.5t62.5 9.5t45.5 1l177 -357l-45 -34z" />
<glyph unicode="a" horiz-adv-x="1095" d="M88 285q0 143 41 279t119 242.5t189.5 171t252.5 64.5q51 0 82 -9t74 -27q82 43 172 43l-184 -936h149v-52q-41 -33 -98.5 -53t-112.5 -20q-59 0 -84.5 25.5t-25.5 54.5q0 37 14 120.5t43 212.5h-8q-27 -74 -67 -149.5t-92 -137t-115.5 -100.5t-135.5 -39 q-213 0 -213 310zM272 319q0 -104 26 -160.5t89 -56.5q55 0 110.5 52.5t104.5 126t88 153.5t62 133l65 351q-29 20 -55.5 28t-73.5 8q-94 0 -171 -58t-131 -150.5t-84 -205t-30 -221.5z" />
<glyph unicode="b" horiz-adv-x="1077" d="M74 61l262 1336l-143 18v47q33 12 71.5 24.5t78.5 24t79 18.5t72 11l43 -22l-181 -854h11q37 74 81 143.5t94 122.5t105 86t117 33q109 0 172 -76t63 -236q0 -158 -44 -296t-123.5 -241.5t-192.5 -164t-250 -60.5q-100 0 -187 26t-128 60zM260 106q31 -20 77 -31.5 t91 -11.5q80 0 150.5 55.5t124 145.5t83.5 204q29 107 29 216v14v11q-1 90 -31 150q-32 63 -106 63q-53 0 -104.5 -47.5t-95.5 -114t-80 -139t-60 -121.5z" />
<glyph unicode="c" horiz-adv-x="876" d="M82 334q0 147 47 277t128 227.5t190.5 154t234.5 56.5q78 0 127 -12.5t74 -35.5q1 -6 1 -13q0 -18 -4 -37q-6 -27 -17 -54t-28.5 -49.5t-35.5 -30.5l-140 144q-70 -2 -138 -43t-123 -117q-54 -75 -88 -183q-31 -99 -31 -221v-22v-9q0 -134 56 -198q58 -66 159 -66 q43 0 80.5 12.5t70.5 31t59.5 39t47.5 36.5l30 -39q-23 -39 -57.5 -75.5t-81.5 -66.5t-105.5 -47.5t-127.5 -17.5q-152 0 -240 96.5t-88 262.5z" />
<glyph unicode="d" horiz-adv-x="1095" d="M92 287q0 145 41 281.5t119 241.5t188.5 168.5t251.5 63.5q53 0 80 -7t68 -25l78 387l-144 18v51q31 12 68 23t76.5 21t80.5 18t76 12l43 -16l-280 -1411h149v-52q-41 -33 -98.5 -53t-112.5 -20q-59 0 -84.5 25.5t-25.5 54.5q0 37 14 120.5t43 212.5h-8 q-27 -74 -68 -149.5t-93 -137t-114.5 -100.5t-134.5 -39q-213 0 -213 312zM276 319q0 -104 26 -160.5t89 -56.5q55 0 110.5 52.5t104.5 126t88 153.5t62 133l65 351q-31 20 -56.5 27t-72.5 9q-98 -2 -176 -60t-131 -149.5t-81 -204t-28 -221.5z" />
<glyph unicode="e" horiz-adv-x="929" d="M82 342q0 145 41 274t114.5 225.5t179 152t234.5 55.5q98 0 169 -50.5t71 -148.5q0 -145 -144.5 -229t-465.5 -109q-8 -35 -11.5 -67.5t-3.5 -63.5q0 -123 62.5 -201t183.5 -78q39 0 77 12.5t71.5 31t61.5 39t48 36.5l33 -39q-18 -39 -53 -75.5t-82 -66.5t-106.5 -47.5 t-127.5 -17.5q-170 0 -261 97.5t-91 269.5zM295 600q199 6 309.5 68.5t110.5 173.5q0 43 -25.5 80t-101.5 39q-88 -2 -164 -83t-129 -278z" />
<glyph unicode="f" horiz-adv-x="608" d="M-106 -389q25 12 59.5 44t68 85t63.5 130t46 179l133 873h-149v53q41 23 87 40t87 27l14 72q27 127 73 210t107.5 131t135 66.5t157.5 18.5q35 0 83 -8t81 -25q-4 -45 -21.5 -93t-58.5 -83l-155 127q-37 -10 -68 -22.5t-58.5 -46t-52 -95t-47.5 -168.5l-20 -102h227 q2 -13 2 -26q0 -38 -22 -76h-228l-131 -834q-23 -145 -76 -241.5t-113.5 -156t-117.5 -88t-88 -36.5z" />
<glyph unicode="g" horiz-adv-x="1001" d="M-113 -195q0 57 26 106.5t69 93.5t98 81t115 70q-31 16 -50.5 43.5t-19.5 62.5q0 31 20.5 64.5t48 64.5t55 53.5t42.5 32.5q-25 6 -50.5 22.5t-48 43t-37 61.5t-14.5 78q0 80 34 147.5t93.5 115.5t137 76t167.5 28q98 0 161 -25t97 -53q18 16 49 32.5t66 31t72 26.5 t69 22q6 -10 11 -31q3 -16 3 -36v-8q-1 -25 -8.5 -50.5t-21.5 -46.5l-211 15q6 -18 12.5 -42t6.5 -53q0 -82 -34 -151.5t-93.5 -119.5t-138 -78.5t-167.5 -28.5q-35 0 -56 1t-48 7q-18 -20 -50 -48t-32 -61q0 -35 45 -53t113.5 -33.5t148.5 -33t148.5 -47t113.5 -77 t45 -124.5q0 -96 -54 -173t-143 -131.5t-203 -84t-230 -29.5q-94 0 -162 19.5t-111 53t-63.5 76.5t-20.5 90zM72 -150q-2 -92 70.5 -144t195.5 -52q63 0 125.5 18.5t113 52t82 84t31.5 113.5q0 61 -50 95t-122 54.5t-148.5 34t-131.5 31.5q-96 -70 -132 -145 q-34 -72 -34 -135v-7zM307 686q0 -78 50.5 -114.5t107.5 -36.5q61 0 105 21.5t74 58t44 83.5t14 99q0 76 -35.5 123t-109.5 47q-59 0 -105 -22.5t-79 -60.5t-49.5 -89.5t-16.5 -108.5z" />
<glyph unicode="h" horiz-adv-x="1112" d="M70 0l280 1397l-139 18v47q31 12 68.5 25.5t78.5 25t80 18.5t74 9l43 -18l-184 -860h10q39 82 88 152.5t103.5 122.5t113.5 82t121 30q94 0 136 -54.5t42 -134.5q0 -55 -10 -118.5t-25 -123.5l-116 -503h151v-54q-41 -33 -98.5 -53t-114.5 -20q-59 0 -81.5 24.5 t-22.5 53.5q0 37 10 83t20 93l74 342q14 63 25.5 118.5t11.5 106.5q0 47 -20.5 80t-55.5 33q-63 0 -122.5 -45.5t-110.5 -108.5t-90 -132t-60 -114l-108 -522h-172z" />
<glyph unicode="i" horiz-adv-x="567" d="M111 76q0 41 6 80t16 86l143 661l-131 21v51q31 12 70 25.5t80 23.5t78 17.5t65 7.5l37 -25l-192 -909h151v-54q-43 -33 -100.5 -53t-112.5 -20q-59 0 -84.5 26.5t-25.5 61.5zM309 1378q0 53 33 84t86 31q57 0 90 -30.5t33 -84.5q0 -51 -33 -79.5t-90 -28.5 q-53 0 -86 28.5t-33 79.5z" />
<glyph unicode="j" horiz-adv-x="563" d="M-150 -389q25 12 58 42t65.5 82t64.5 130t54 184l180 856l-122 19v51q63 29 141 51.5t141 22.5l41 -25l-199 -936q-31 -145 -85 -241.5t-113.5 -156t-113.5 -88t-87 -36.5zM299 1378q0 53 33 84t86 31q57 0 90 -30.5t33 -84.5q0 -51 -33 -79.5t-90 -28.5q-53 0 -86 28.5 t-33 79.5z" />
<glyph unicode="k" horiz-adv-x="985" d="M70 0l278 1397l-143 18v51q59 27 144 48.5t157 25.5l43 -22l-193 -957h60q43 27 89 66t88 80t74.5 78.5t51.5 64.5q2 14 3 38.5t0 50.5t-2 49.5t-3 35.5q76 27 147 27q74 0 123 -27q-27 -68 -82 -135.5t-118.5 -125.5t-125 -106.5t-98.5 -74.5q14 -39 46 -101.5t70 -130 t80 -131t77 -104.5h129v-54q-41 -33 -89.5 -53t-101.5 -20q-49 0 -88 22.5t-74 81.5q-66 111 -110.5 210t-85.5 185l-74 21l-96 -508h-176z" />
<glyph unicode="l" horiz-adv-x="567" d="M94 76q0 41 6 80t17 86l239 1155l-145 18v51q29 12 66.5 25t79.5 24t83 18t74 7l41 -22l-283 -1403h150v-54q-41 -33 -99.5 -53t-113.5 -20q-59 0 -87 26.5t-28 61.5z" />
<glyph unicode="m" horiz-adv-x="1638" d="M88 0l191 905l-125 19v51q68 35 146.5 54.5t135.5 19.5l43 -25l-90 -362h8q25 57 69 124.5t101.5 126t123 97.5t130.5 39q25 0 49.5 -8.5t43 -30t30.5 -58.5t12 -94q0 -45 -9 -96t-21 -100q31 70 78 138t102 123.5t117.5 90.5t128.5 35q78 0 117.5 -49.5t39.5 -135.5 q0 -66 -12 -124t-27 -126l-133 -499h152v-54q-41 -33 -100.5 -53t-112.5 -20q-59 0 -82 26.5t-23 63.5q0 59 29 164l96 372q12 49 23.5 102.5t13.5 88.5q-2 53 -17.5 85t-62.5 32q-49 0 -100 -39t-97 -98.5t-84 -129t-63 -131.5l-125 -524h-163l129 575q14 63 24 122t10 122 q0 47 -16 75t-57 28t-90.5 -39t-96.5 -98.5t-87 -129t-64 -133.5l-109 -522h-176z" />
<glyph unicode="n" horiz-adv-x="1130" d="M88 0l180 905l-125 19l4 51q29 14 65 27.5t74 23.5t73.5 16.5t66.5 6.5l41 -25l-78 -362h10q39 82 89.5 152.5t106.5 122.5t117.5 82t125.5 30q86 0 126 -54.5t40 -136.5q0 -45 -10.5 -112.5t-24.5 -127.5l-117 -503h152v-54q-41 -33 -99.5 -53t-113.5 -20 q-59 0 -82 24.5t-23 53.5q0 39 10.5 85t20.5 93l74 340q14 63 25 117.5t11 107.5q0 47 -21.5 80t-68.5 33q-55 0 -112.5 -45.5t-106.5 -108.5t-89 -132t-60 -114l-109 -522h-172z" />
<glyph unicode="o" horiz-adv-x="1042" d="M84 381q0 109 34 226.5t103.5 216t174 162t243.5 63.5q160 0 241 -98.5t81 -291.5q0 -135 -39 -259t-109 -218t-168 -150.5t-217 -56.5q-158 0 -251 101.5t-93 304.5zM268 336q0 -121 53.5 -197t143.5 -76q72 0 128 54.5t96 143.5t61.5 201.5t21.5 227.5q0 121 -42 195 t-132 76q-100 -2 -163.5 -66t-100.5 -158t-51.5 -202.5t-14.5 -198.5z" />
<glyph unicode="p" horiz-adv-x="1110" d="M2 -391l88 407l191 889l-125 19v51q68 29 142.5 51.5t139.5 22.5l41 -25l-84 -360h8q37 82 81 151.5t95.5 121.5t111 82t126.5 30q45 0 86 -17.5t72 -53.5t48 -89t17 -123q0 -158 -47 -301t-128 -252t-189.5 -173.5t-233.5 -64.5q-35 0 -59.5 2.5t-42.5 7.5t-35.5 13 t-38.5 18l-67 -315q72 -12 143 -51v-60h-322zM287 111q29 -25 60.5 -36.5t101.5 -11.5q82 0 154.5 60.5t126.5 155t86 210t32 228.5q0 98 -34 151.5t-93 53.5t-112.5 -46.5t-99.5 -112t-83 -138t-59 -127.5z" />
<glyph unicode="q" horiz-adv-x="1054" d="M82 287q0 145 39 281.5t115.5 241.5t190.5 168.5t265 63.5q45 0 91 -6t87 -15t75 -20.5t54 -21.5l-274 -1278q68 -12 143 -51v-60h-321l-19 17l183 792h-9q-27 -72 -66.5 -147.5t-91.5 -137t-114.5 -100.5t-134.5 -39q-213 0 -213 312zM266 319v-14q0 -94 25 -147 q27 -56 90 -56q55 0 109.5 52.5t103.5 126t88 152.5t61 132l68 361q-23 16 -53.5 22t-77.5 6q-104 0 -182 -58t-130.5 -150.5t-77.5 -205.5q-24 -104 -24 -205v-16z" />
<glyph unicode="r" horiz-adv-x="788" d="M88 0l191 905l-125 19v51q70 33 145.5 50t136.5 24l41 -25l-57 -272h8q59 135 145 216t185 81q27 0 53.5 -5.5t50.5 -19.5q0 -18 -6 -48t-17.5 -60.5t-24.5 -58.5t-28 -42l-161 84q-53 -20 -120 -103t-118 -225l-123 -571h-176z" />
<glyph unicode="s" horiz-adv-x="856" d="M14 37q10 53 24.5 103t59.5 93l185 -170q43 0 85 10.5t75.5 33t55 55.5t23.5 80q-2 49 -27.5 84.5t-65.5 68.5t-85 66t-85 72.5t-65.5 92t-25.5 126.5t28.5 129t79 92t121 56.5t154.5 19.5q53 0 119.5 -9.5t126.5 -44.5q0 -23 -8.5 -52.5t-21.5 -57t-29.5 -51 t-35.5 -31.5l-151 158q-43 -2 -80 -10.5t-64.5 -27t-43 -48t-15.5 -74.5q0 -53 26.5 -91t66.5 -72t86 -65.5t86 -71.5t67 -92.5t27 -123.5q0 -74 -34 -131.5t-92.5 -97.5t-135 -60.5t-162.5 -20.5t-157 17.5t-112 44.5z" />
<glyph unicode="t" horiz-adv-x="690" d="M109 922l2 53q41 23 87 41t91 28l33 156q29 23 66.5 40t78.5 34l43 -25l-49 -225h254q2 -12 2 -25t-2 -27q-4 -26 -21 -50h-254l-129 -594q-8 -39 -12 -69t-4 -54q0 -53 30.5 -78t67.5 -25q51 0 109.5 19.5t107.5 44.5l23 -37q-18 -27 -55 -53.5t-83 -49t-96.5 -37 t-95.5 -14.5q-90 0 -141 41t-51 127q0 29 5 64t13 72l135 643h-155z" />
<glyph unicode="u" horiz-adv-x="1110" d="M109 168q0 45 14 133t34.5 192.5t44 214t42.5 197.5l-125 19v51q33 12 70.5 24.5t75.5 22.5t73 17.5t63 9.5l45 -25q-33 -154 -66.5 -292t-62.5 -292q-10 -49 -21 -109.5t-11 -131.5q0 -43 23.5 -70t53.5 -27q45 0 90.5 27t85.5 70t75.5 95t64.5 103.5t48 95.5t30 70 l90 461h170l-168 -911h151v-52q-41 -33 -99 -53t-114 -20q-59 0 -84.5 24.5t-25.5 53.5q0 37 10 123.5t45 211.5h-8q-27 -57 -67 -130.5t-95 -139t-125.5 -111t-156.5 -45.5q-72 0 -121 50.5t-49 142.5z" />
<glyph unicode="v" horiz-adv-x="915" d="M31 922v51q12 8 36.5 21.5t54.5 25.5t61.5 20.5t60.5 8.5q45 0 64.5 -22.5t25.5 -55.5l94 -666l10 -129h4l68 133q74 123 131 239t98 232q0 23 -5 58.5t-10 72.5t-11 69t-11 44q59 25 122 26h4q60 0 106 -26q-31 -127 -84 -259t-122 -263t-149.5 -258t-168.5 -244 l-97 -25l-151 930z" />
<glyph unicode="w" horiz-adv-x="1406" d="M31 922v51q12 8 36.5 21.5t54.5 25.5t61.5 20.5t60.5 8.5q45 0 68.5 -21.5t27.5 -56.5l55 -647l-8 -148h4l62 150l331 673l70 25q25 -174 41 -287.5t23 -167.5q16 -123 32 -245l2 -148h4l54 133q76 123 129 238t92 231q0 23 -5 59.5t-10.5 73.5t-11.5 69t-10 44 q29 12 61.5 18.5t63.5 6.5q61 0 108 -25q-31 -127 -82 -259t-116.5 -263t-143 -258t-165.5 -244l-97 -25l-86 582v168h-6l-82 -168q-68 -141 -137.5 -279.5t-138.5 -277.5l-113 -25l-98 930z" />
<glyph unicode="x" horiz-adv-x="929" d="M-49 14q18 61 75.5 137t127 148t135 130t98.5 87l-139 377l-131 16v52q12 8 35.5 21t53.5 25.5t60.5 20.5t59.5 8q45 0 65.5 -23.5t32.5 -54.5l100 -356q47 47 103.5 106.5t85.5 112.5q2 14 2 41t-2 56.5t-4 55t-4 38.5q35 12 68.5 19t68.5 7q66 0 114 -26 q-12 -41 -40.5 -88t-67.5 -94.5t-83 -93.5t-85 -86t-77 -71.5t-56 -50.5l147 -399l133 -16v-52q-12 -8 -35.5 -20t-51 -24.5t-59.5 -20.5t-58 -8q-43 0 -65.5 22.5t-33.5 55.5l-112 370q-23 -25 -52.5 -53.5t-58.5 -59t-53.5 -61.5t-38.5 -57q-4 -14 -5 -41t-2 -56.5t-1 -55 t2 -38.5q-35 -14 -71 -20t-69 -6q-68 0 -112 26z" />
<glyph unicode="y" horiz-adv-x="931" d="M-31 -395v11q0 19 5 40q6 29 19 57.5t34.5 53t48.5 38.5l166 -86q14 10 36.5 30t47 53.5t49 81.5t47.5 116l-242 905l-131 17v51q10 8 33.5 20.5t54.5 24.5t63.5 21.5t61.5 9.5q43 0 62.5 -21.5t29.5 -56.5l170 -717l6 -123h5l47 121q27 57 54.5 125.5t54 138.5t49 137.5 t38.5 124.5q0 23 -5 59.5t-11 73.5t-12.5 69t-10.5 44q29 12 62 18.5t63 6.5q61 0 109 -25q-63 -254 -173 -508t-243 -516q-111 -215 -221.5 -321.5t-249.5 -106.5q-31 0 -58.5 8t-58.5 25z" />
<glyph unicode="z" horiz-adv-x="892" d="M-49 55l287 314l450 497q-36 -2 -74 -2q-60 0 -126 6q-108 10 -222 27l-94 -147l-51 12l29 209q12 80 110 80q74 0 214 -21.5t335 -32.5l47 52q27 -4 50.5 -20.5t27.5 -45.5l-705 -776q121 -23 236 -60.5t213 -91.5l119 135l49 -28l-72 -209q-10 -31 -36.5 -51.5 t-65.5 -20.5t-96.5 25.5t-130 58.5t-156.5 65.5t-176 47.5l-84 -90q-27 4 -51.5 20.5t-26.5 46.5z" />
<glyph unicode="{" horiz-adv-x="718" d="M111 453l12 61q39 0 72.5 16.5t61.5 46t47.5 68.5t29.5 84l104 488q20 98 82 157.5t160 59.5h184l-16 -88h-100q-55 0 -87 -28t-47 -93l-100 -475q-14 -68 -46 -115t-71 -77t-82 -45t-79 -19l-5 -13q31 -4 62 -17t56.5 -38t42 -60.5t16.5 -84.5q0 -31 -7 -64l-102 -481 q-6 -25 -6 -47q0 -76 88 -72h98l-18 -88h-185q-76 0 -117.5 37t-41.5 110q0 35 8 68l102 485q10 47 11 80q0 68 -33 106t-94 38z" />
<glyph unicode="|" horiz-adv-x="485" d="M250 -266v1700h106v-1700h-106z" />
<glyph unicode="}" horiz-adv-x="718" d="M-106 -471l18 88h98q55 0 87 26.5t46 92.5l103 481q14 68 42.5 115t64.5 76.5t76 45t77 19.5l2 12q-29 2 -57.5 15.5t-51 36t-36 57.5t-13.5 82q0 39 8 74l101 475q6 25 6 45q2 78 -88 76h-96l16 88h186q76 0 117 -38t41 -110q0 -35 -8 -67l-103 -482q-10 -47 -10 -80 q0 -143 127 -143l-12 -61q-39 0 -73 -17.5t-61.5 -46.5t-47 -67.5t-29.5 -83.5l-105 -492q-20 -98 -81.5 -157.5t-159.5 -59.5h-184z" />
<glyph unicode="~" d="M135 659q74 111 141.5 153t129.5 42q51 0 100 -21.5t96 -48t95 -48t100 -21.5q37 0 76.5 15t80.5 54l27 -43q-59 -86 -117.5 -121.5t-113.5 -35.5q-53 0 -103.5 21.5t-99.5 48t-98.5 48t-98.5 21.5q-45 0 -91 -24.5t-93 -88.5z" />
<glyph unicode="&#xa1;" horiz-adv-x="669" d="M76 -381l133 606l141 361h53l-10 -361l-121 -606q-25 -12 -51 -17t-51 -5q-29 0 -52.5 5t-41.5 17zM291 913q0 61 39 98.5t100 37.5q63 0 102 -37t39 -99q0 -59 -38.5 -96t-102.5 -37q-61 0 -100 37t-39 96z" />
<glyph unicode="&#xa2;" d="M96 350q0 129 44 244t120 206t178.5 151.5t218.5 82.5l70 318h107l-66 -305q6 0 12 1t13 -1q37 0 79.5 -3.5t80.5 -9.5t68 -14t42 -19q2 -23 -3 -50t-16.5 -54t-28 -49.5t-34.5 -30.5l-139 141q-51 0 -97 -6l-180 -846q104 4 174 41t111 74l31 -39q-23 -37 -55.5 -70.5 t-75.5 -61t-96.5 -47t-114.5 -23.5l-68 -328h-106l69 328q-174 16 -256 114.5t-82 255.5zM293 367q-2 -111 44 -173.5t124 -80.5l176 811q-80 -31 -144.5 -84.5t-109.5 -125t-68.5 -159.5t-21.5 -188z" />
<glyph unicode="&#xa3;" d="M-53 0l12 63q53 20 94 43t74 48.5t60.5 56.5t56.5 70q39 51 61.5 112.5t22.5 108.5q0 57 -7.5 99t-17.5 73h-219l22 106h175q-16 66 -23.5 130.5t-7.5 109.5q0 100 27.5 181t90 138.5t161 88t239.5 30.5q125 0 226.5 -20.5t156.5 -48.5q-8 -33 -23.5 -79t-33 -94.5 t-36 -95.5t-32.5 -82h-51l-23 281q-39 16 -91 24.5t-118 8.5q-96 0 -163.5 -31t-102.5 -98q-20 -41 -28.5 -93.5t-6.5 -95.5q2 -68 9.5 -123t19.5 -131h320l-23 -106h-283q2 -23 4.5 -40.5t3.5 -34.5t0 -36.5t-6 -50.5q-4 -68 -49 -148.5t-131 -142.5l-80 -57v-8l113 12h410 l149 229h51q-4 -45 -11 -98t-15.5 -107.5t-17.5 -104.5t-17 -87h-942z" />
<glyph unicode="&#xa4;" d="M63 348l170 168l72 23q-29 35 -41 77.5t-12 92.5q0 47 12 91t41 79l-72 22l-167 170l110 111l168 -170l25 -70q35 27 77.5 41t90.5 14q102 -4 170 -55l24 70l168 168l111 -111l-170 -168l-68 -22q25 -35 37 -79t12 -91q0 -98 -49 -172l68 -21l168 -170l-111 -110 l-168 167l-22 70q-72 -49 -170 -49q-47 0 -90.5 13.5t-81.5 35.5l-21 -67l-170 -168zM362 709q0 -74 50.5 -121t124.5 -47t124 47t50 121t-50.5 122t-123.5 48q-74 2 -124.5 -47.5t-50.5 -122.5z" />
<glyph unicode="&#xa5;" d="M78 1374l12 60h539l-13 -60q-33 -12 -73.5 -24.5t-93.5 -26.5l186 -604l424 604q-43 10 -83 22.5t-73 28.5l12 60h453l-12 -60q-88 -39 -166 -51l-465 -637h295l-21 -106h-333l-29 -129h334l-21 -107h-334l-49 -235q78 -10 142 -50l-11 -59h-520l10 59q82 37 183 50 l49 235h-334l20 107h334l29 129h-334l23 106h291l-216 637q-45 10 -82.5 22.5t-72.5 28.5z" />
<glyph unicode="&#xa6;" horiz-adv-x="485" d="M246 -266v655h106v-655h-106zM246 778v656h106v-656h-106z" />
<glyph unicode="&#xa7;" horiz-adv-x="1079" d="M186 623q0 102 77 175.5t192 121.5q-43 20 -80 44.5t-64.5 58.5t-44 78t-16.5 101q0 55 24.5 102.5t68.5 81t105.5 53t137.5 19.5q111 0 190.5 -11t145.5 -36q-4 -33 -9.5 -56.5t-11.5 -46t-13 -47t-18 -57.5h-51l-114 148q-25 10 -46.5 13t-54.5 5q-88 -2 -130 -49 t-40 -100q-2 -61 42 -101.5t109.5 -71t142.5 -58t142.5 -66.5t109.5 -94.5t44 -139.5q0 -59 -24.5 -107t-63.5 -87t-86 -69t-90 -50q41 -18 76.5 -40t63.5 -50.5t44.5 -64.5t16.5 -83q0 -143 -109 -225t-291 -82q-172 0 -332 59q2 37 6.5 63t10.5 49.5t15 47t20 55.5h51 l131 -161q23 -18 44 -21.5t48 -3.5q100 0 161.5 50t59.5 120q2 61 -42 98t-109.5 65t-142 53.5t-142.5 63.5t-110 97t-44 156zM371 668q-2 -53 23.5 -92t67.5 -68t95 -51.5t109 -42.5q35 20 66.5 49t56 58.5t39 60t12.5 59.5q2 49 -23.5 85t-66.5 61.5t-94.5 47t-108.5 44.5 q-68 -33 -123 -89.5t-53 -121.5z" />
<glyph unicode="&#xa8;" horiz-adv-x="999" d="M367 1356q0 49 30.5 78.5t81.5 29.5q49 0 80 -29.5t31 -78.5q0 -47 -31 -76t-80 -29q-51 0 -81.5 29t-30.5 76zM780 1356q0 49 31 78.5t80 29.5q51 0 82 -29.5t31 -78.5q0 -47 -31 -76t-82 -29q-49 0 -80 29t-31 76z" />
<glyph unicode="&#xa9;" horiz-adv-x="1652" d="M104 594q0 170 60.5 304t161 226.5t230.5 141.5t271 49t271.5 -49t229.5 -141.5t159.5 -226.5t60.5 -304t-60.5 -304t-159.5 -226.5t-229 -141.5t-272 -49q-147 0 -279 49t-230.5 141.5t-156 226.5t-57.5 304zM211 594q0 -141 48 -257t132 -197t196.5 -126t239.5 -45 t240 45t196 126t131 197t48 257t-51.5 257t-136.5 196.5t-196.5 126t-230.5 45.5q-135 0 -248.5 -45.5t-194.5 -127t-127 -196.5t-46 -256zM424 596q0 106 38 186t98.5 133.5t137 81t154.5 27.5q80 0 143.5 -11.5t104.5 -31.5q2 -18 2 -48t-2 -62.5t-6 -63.5t-11 -51h-51 l-61 170q-14 10 -45 11t-60 3q-117 -2 -181 -93t-64 -251q0 -68 14 -130.5t46 -110.5t83 -75.5t123 -27.5q41 0 66.5 8t33.5 16l57 146h52q8 -31 12 -93.5t-2 -111.5q-18 -14 -46 -23.5t-58.5 -15.5t-63.5 -8t-59 -2q-100 0 -183.5 27.5t-143.5 82t-94 134.5t-34 184z" />
<glyph unicode="&#xaa;" horiz-adv-x="880" d="M80 1012q0 100 35 183t94 141.5t137 90t164 31.5q41 0 85 -9t79 -30l123 31l34 -16l-116 -551l104 -19v-37q-33 -23 -84 -38t-112 -15q-41 0 -54.5 22.5t-9.5 51.5l29 151h-8q-14 -29 -41 -67.5t-66 -73.5t-88 -59.5t-106 -24.5q-94 0 -146.5 62.5t-52.5 175.5zM252 1024 q0 -63 24.5 -105t73.5 -42q37 0 75 23.5t72.5 57t63.5 73.5t45 75l47 235q-29 12 -60.5 24.5t-66.5 12.5q-51 0 -100 -22.5t-88 -67.5t-62.5 -111.5t-23.5 -152.5z" />
<glyph unicode="&#xab;" horiz-adv-x="944" d="M94 530l527 424l43 -41l-371 -387l223 -370l-61 -43zM492 530l434 420l43 -39l-303 -383l155 -370l-59 -41z" />
<glyph unicode="&#xac;" horiz-adv-x="1024" d="M76 664v129h870v-387h-127v258h-743z" />
<glyph unicode="&#xad;" horiz-adv-x="870" d="M145 512l29 129h578l-27 -129h-580z" />
<glyph unicode="&#xae;" horiz-adv-x="1427" d="M260 924q0 131 44 232t119 171t174 105.5t210 35.5q115 0 214 -35.5t173 -105.5t117 -171t43 -232q0 -133 -44 -234.5t-119 -171t-174 -105.5t-210 -36q-115 0 -214 36t-173 105.5t-117 171t-43 234.5zM356 924q0 -106 36 -191.5t97.5 -146t143.5 -92t174 -29.5 q96 -2 179 29.5t143.5 91t94 144.5t33.5 194q0 106 -35.5 191t-97 144.5t-143.5 92t-174 30.5q-98 2 -180 -30.5t-142.5 -92t-94.5 -144.5t-34 -191zM559 633v49q35 12 72 18v478q-23 2 -39.5 7t-32.5 15v45h78q37 0 88 4t84 4q45 0 87 -9t75 -30.5t51 -54.5t18 -78 q0 -63 -44 -100t-101 -55q37 -59 70.5 -115.5t93.5 -110.5l47 -24v-43h-102l-58 22q-51 61 -81.5 127t-53.5 125h-74v-207q27 -2 44.5 -7t31.5 -11v-49h-254zM737 967h66q123 0 119 114q-2 53 -36 80t-87 27q-23 0 -36 -1t-26 -5v-215z" />
<glyph unicode="&#xaf;" horiz-adv-x="950" d="M422 1305l20 106h521l-23 -106h-518z" />
<glyph unicode="&#xb0;" horiz-adv-x="847" d="M260 1169q0 63 22.5 116.5t62.5 91.5t93.5 59.5t112.5 21.5t112.5 -18.5t92.5 -54t61.5 -90t22.5 -126.5q0 -68 -22.5 -121t-61.5 -90.5t-92.5 -57t-112.5 -19.5t-112.5 19.5t-93.5 57t-62.5 90.5t-22.5 121zM375 1169q0 -84 52 -136t124 -52q78 0 126 49t48 139 q0 86 -48 137.5t-126 51.5q-80 0 -128 -51.5t-48 -137.5z" />
<glyph unicode="&#xb1;" d="M76 362v109h921v-109h-921zM76 895v109h405v430h109v-430h407v-109h-407v-315h-109v315h-405z" />
<glyph unicode="&#xb2;" horiz-adv-x="862" d="M156 790l16 68q125 70 235.5 144.5t192.5 150t129 151.5t47 146q0 53 -32.5 84.5t-114.5 31.5q-39 0 -71.5 -7t-67.5 -23l-88 -228h-45q-6 20 -14.5 55t-14.5 74t-9 74t-3 55q41 23 78.5 41.5t77.5 30.5t85 19.5t105 7.5q82 0 137 -15.5t88 -43t47.5 -64.5t14.5 -78 q0 -76 -44.5 -149.5t-121 -143.5t-180 -133t-224.5 -121v-12l64 12h280l121 139h45q-2 -29 -6 -64.5t-9 -73.5t-11.5 -71.5t-12.5 -56.5h-694z" />
<glyph unicode="&#xb3;" horiz-adv-x="862" d="M172 866l111 188h37q8 -10 16 -30.5t16.5 -44t16.5 -48t14 -45.5q16 -6 49 -13t80 -7q61 0 104.5 20.5t69 50t38 64.5t12.5 64q0 57 -37 87.5t-150 30.5h-69l12 54l217 223l115 86l2 4l-129 -10h-183l-114 -187h-45q-4 27 -5.5 67t1 83t4.5 82t6 61h626l-14 -73 l-227 -218l-101 -81l-2 -3l66 9q86 -6 142.5 -53.5t56.5 -139.5q0 -66 -25 -123t-77 -100t-134 -67.5t-199 -24.5q-39 0 -83 7t-85 20.5t-75.5 31t-57.5 35.5z" />
<glyph unicode="&#xb4;" horiz-adv-x="1048" d="M461 1214l260 357q16 2 43 -1t55.5 -9.5t53 -15.5t36.5 -19v-39l-403 -309z" />
<glyph unicode="&#xb6;" horiz-adv-x="1046" d="M182 1024q0 86 25.5 161t76 130t128 87t182.5 32h389v-62q-35 -16 -72 -28.5t-84 -20.5v-1130q0 -137 -18 -224.5t-53 -139.5t-83 -76.5t-106 -37.5q-41 -66 -96 -99.5t-109 -49.5l-22 41q45 18 83 50t65.5 83t43 127t15.5 182v586q-66 0 -130.5 20.5t-116.5 66.5 t-85 121t-33 181zM590 -238q86 35 114.5 141.5t28.5 289.5v1140h-90v-1284q0 -82 -12 -158t-41 -129z" />
<glyph unicode="&#xb7;" horiz-adv-x="471" d="M122 629q0 61 39 98t101 37q63 0 102 -37t39 -98q0 -59 -39 -96t-102 -37q-61 0 -100.5 37t-39.5 96z" />
<glyph unicode="&#xb8;" horiz-adv-x="911" d="M188 -453q39 6 78 17.5t70 28t49 40t16 52.5q0 18 -5 34.5t-18 29.5t-38 22.5t-66 13.5l115 217h94l-82 -141q86 -4 123 -40t41 -95q2 -63 -35.5 -109.5t-95 -76t-124 -43t-122.5 -11.5v61z" />
<glyph unicode="&#xb9;" horiz-adv-x="862" d="M232 791l10 43q119 49 223 69l107 506l30 92q-51 -14 -115.5 -19t-121.5 -3l12 59q90 18 176 52t170 75h64l-162 -762q51 -12 100 -28.5t90 -40.5l-10 -43h-573z" />
<glyph unicode="&#xba;" horiz-adv-x="892" d="M80 1024q0 94 37 174t98 137.5t141 90t166 32.5q141 0 217 -73.5t76 -190.5q0 -106 -40 -187t-102.5 -135.5t-141 -82t-156.5 -27.5q-61 0 -115.5 19.5t-94.5 54t-62.5 83t-22.5 105.5zM250 1022q0 -37 7 -69.5t24.5 -58.5t44 -41t63.5 -15q45 0 91 22.5t83 69.5 t59.5 118.5t22.5 170.5q0 31 -7 59.5t-23.5 52t-43 36.5t-67.5 13q-45 0 -90 -27.5t-82 -74.5t-59.5 -113.5t-22.5 -142.5z" />
<glyph unicode="&#xbb;" horiz-adv-x="944" d="M57 156l301 383l-153 370l57 41l273 -413l-437 -420zM362 154l371 387l-223 370l61 43l359 -417l-524 -424z" />
<glyph unicode="&#xbc;" horiz-adv-x="1902" d="M142 578l10 43q119 49 223 69l107 506l30 92q-51 -14 -115.5 -19t-121.5 -3l12 59q90 18 176 52t170 75h64l-162 -762q51 -12 100 -28.5t90 -40.5l-10 -43h-573zM316 51l1360 1403l71 -63l-1362 -1405zM992 240l8 49l706 586h72l-115 -539h193l-19 -96h-192l-31 -148 q29 -6 54.5 -16t54.5 -33l-11 -43h-430l11 43q37 18 76.5 29.5t82.5 19.5l31 148h-491zM1157 322l132 14h215l55 266l43 88h-6l-86 -88l-271 -233z" />
<glyph unicode="&#xbd;" horiz-adv-x="2035" d="M142 578l10 43q119 49 223 69l107 506l30 92q-51 -14 -115.5 -19t-121.5 -3l12 59q90 18 176 52t170 75h64l-162 -762q51 -12 100 -28.5t90 -40.5l-10 -43h-573zM316 51l1360 1403l71 -63l-1362 -1405zM1180 0l16 68q125 70 235.5 144.5t192.5 150t129 151.5t47 146 q0 53 -32.5 84.5t-114.5 31.5q-39 0 -71.5 -7t-67.5 -23l-88 -228h-45q-6 20 -14.5 55t-14.5 74t-9 74t-3 55q41 23 78.5 41.5t77.5 30.5t85 19.5t105 7.5q82 0 137 -15.5t88 -43t47.5 -64.5t14.5 -78q0 -76 -44.5 -149.5t-121 -143.5t-180 -133t-224.5 -121v-12l64 12h280 l121 139h45q-2 -29 -6 -64.5t-9 -73.5t-11.5 -71.5t-12.5 -56.5h-694z" />
<glyph unicode="&#xbe;" horiz-adv-x="2009" d="M151 653l111 188h37q8 -10 16 -30.5t16.5 -44t16.5 -48t14 -45.5q16 -6 49 -13t80 -7q61 0 104.5 20.5t69 50t38 64.5t12.5 64q0 57 -37 87.5t-150 30.5h-69l12 54l217 223l115 86l2 4l-129 -10h-183l-114 -187h-45q-4 27 -5.5 67t1 83t4.5 82t6 61h626l-14 -73 l-227 -218l-101 -81l-2 -3l66 9q86 -6 142.5 -53.5t56.5 -139.5q0 -66 -25 -123t-77 -100t-134 -67.5t-199 -24.5q-39 0 -83 7t-85 20.5t-75.5 31t-57.5 35.5zM418 51l1360 1403l71 -63l-1362 -1405zM1110 240l8 49l706 586h72l-115 -539h193l-19 -96h-192l-31 -148 q29 -6 54.5 -16t54.5 -33l-11 -43h-430l11 43q37 18 76.5 29.5t82.5 19.5l31 148h-491zM1275 322l132 14h215l55 266l43 88h-6l-86 -88l-271 -233z" />
<glyph unicode="&#xbf;" horiz-adv-x="968" d="M-29 -154q0 102 43 178t108.5 136.5t143.5 113t147.5 108.5t121 122.5t63.5 157.5h39q8 -106 -22.5 -186.5t-83 -145t-115 -117.5t-117.5 -107.5t-92 -114t-39 -132.5q2 -92 55 -136.5t137 -41.5q66 -2 109 9t63 27l80 252h52q6 -43 14 -103.5t8 -123.5q0 -23 -1 -42 t-3 -40q-88 -47 -176 -66.5t-195 -19.5q-164 0 -252 71.5t-88 200.5zM496 913q0 61 38.5 98.5t100.5 37.5q63 0 102 -37t39 -99q0 -59 -39 -96t-102 -37q-61 0 -100 37t-39 96z" />
<glyph unicode="&#xc0;" horiz-adv-x="1380" d="M-100 0l12 59q80 33 160 50l809 1349h53l231 -1349q37 -8 75 -19.5t69 -30.5l-11 -59h-520l10 59q92 35 181 50l-62 374h-481l-219 -374q88 -12 164 -50l-11 -59h-460zM485 590h406l-66 434l-4 176h-4l-82 -180zM496 1722v41q12 14 38.5 27.5t57.5 23t59.5 13.5t45.5 2 l296 -254l-34 -39z" />
<glyph unicode="&#xc1;" horiz-adv-x="1380" d="M-100 0l12 59q80 33 160 50l809 1349h53l231 -1349q37 -8 75 -19.5t69 -30.5l-11 -59h-520l10 59q92 35 181 50l-62 374h-481l-219 -374q88 -12 164 -50l-11 -59h-460zM485 590h406l-66 434l-4 176h-4l-82 -180zM863 1575l299 254q18 2 46.5 -2t58.5 -13.5t55.5 -22.5 t37.5 -28v-41l-463 -186z" />
<glyph unicode="&#xc2;" horiz-adv-x="1380" d="M-100 0l12 59q80 33 160 50l809 1349h53l231 -1349q37 -8 75 -19.5t69 -30.5l-11 -59h-520l10 59q92 35 181 50l-62 374h-481l-219 -374q88 -12 164 -50l-11 -59h-460zM485 590h406l-66 434l-4 176h-4l-82 -180zM610 1579l343 229q10 8 28 9q16 0 25 -9l174 -223l-31 -43 l-205 115l-305 -117z" />
<glyph unicode="&#xc3;" horiz-adv-x="1380" d="M-100 0l12 59q80 33 160 50l809 1349h53l231 -1349q37 -8 75 -19.5t69 -30.5l-11 -59h-520l10 59q92 35 181 50l-62 374h-481l-219 -374q88 -12 164 -50l-11 -59h-460zM485 590h406l-66 434l-4 176h-4l-82 -180zM634 1645q78 70 138.5 95t109.5 25q37 0 71 -10 t64.5 -22.5t61.5 -22.5t63 -10q27 0 55.5 9t61.5 32l27 -60q-66 -66 -121 -90t-107 -24q-39 0 -72.5 11t-66.5 23.5t-63.5 23.5t-63.5 11q-29 0 -57.5 -11t-61.5 -40z" />
<glyph unicode="&#xc4;" horiz-adv-x="1380" d="M-100 0l12 59q80 33 160 50l809 1349h53l231 -1349q37 -8 75 -19.5t69 -30.5l-11 -59h-520l10 59q92 35 181 50l-62 374h-481l-219 -374q88 -12 164 -50l-11 -59h-460zM485 590h406l-66 434l-4 176h-4l-82 -180zM580 1616q0 49 33.5 73.5t82.5 24.5q51 0 84 -24.5 t33 -73.5q0 -47 -33 -71.5t-84 -24.5q-49 0 -82.5 24.5t-33.5 71.5zM1036 1616q0 49 33 73.5t84 24.5q49 0 82 -24.5t35 -73.5q-2 -47 -35 -71.5t-82 -24.5q-51 0 -84 24.5t-33 71.5z" />
<glyph unicode="&#xc5;" horiz-adv-x="1380" d="M-100 0l12 59q80 33 160 50l805 1343q-78 4 -123 39.5t-45 101.5q0 41 22.5 77t59 62.5t86 42t104.5 15.5q35 0 68.5 -6t59.5 -23.5t42 -46t16 -72.5q0 -39 -19.5 -71.5t-52 -58t-74.5 -41t-87 -19.5l231 -1343q37 -8 75 -19.5t69 -30.5l-11 -59h-520l10 59q92 35 181 50 l-62 374h-481l-219 -374q88 -12 164 -50l-11 -59h-460zM485 590h406l-66 434l-4 176h-4l-82 -180zM823 1599q0 -35 27 -49t65 -14q59 0 98.5 27.5t39.5 68.5t-27 57.5t-65 16.5q-59 0 -98.5 -30t-39.5 -77z" />
<glyph unicode="&#xc6;" horiz-adv-x="1869" d="M-100 0l12 59q80 33 160 50l981 1226q-59 12 -111 39l14 60h975q-31 -158 -94 -332h-53l-35 225h-449l-112 -543h332l112 152h51q-14 -102 -34.5 -208.5t-53.5 -205.5h-49l-49 156h-332l-123 -574h471l154 248h51q-4 -84 -16 -173t-35 -179h-1010l11 59q84 35 180 50 l88 415h-395l-322 -415q43 -6 82 -18.5t80 -31.5l-10 -59h-471zM623 629h335l134 622h-5l-120 -190z" />
<glyph unicode="&#xc7;" horiz-adv-x="1300" d="M135 528q0 209 59.5 380t169 293t266 189.5t353.5 67.5q135 0 229.5 -18.5t157.5 -50.5q-6 -33 -17.5 -77t-26.5 -93.5t-31.5 -96.5t-30.5 -86h-54l-43 295q-27 10 -81 15.5t-105 5.5q-135 0 -250 -52.5t-198.5 -155t-131 -256t-47.5 -356.5q0 -127 44 -214t110.5 -140 t144.5 -75.5t148 -20.5q70 -2 118 10t70 27l152 254h51q0 -57 -11.5 -144.5t-33.5 -169.5q-78 -45 -176.5 -63.5t-184.5 -20.5l-75 -129q113 -2 150.5 -44t37.5 -105q0 -66 -42 -114t-103.5 -78.5t-133 -46t-131.5 -15.5v68q39 6 81 17t75 29.5t53.5 45t20.5 63.5 q0 20 -6 37.5t-21.5 29t-42 18.5t-71.5 11l108 218q-152 12 -256 64t-169.5 129t-95.5 170t-30 185z" />
<glyph unicode="&#xc8;" horiz-adv-x="1171" d="M-41 0l10 59q84 35 181 50l256 1214q-41 10 -80 22.5t-78 28.5l14 60h969q-16 -82 -39 -166t-53 -166h-54l-34 225h-449l-113 -543h332l113 152h51q-16 -102 -37.5 -205.5t-50.5 -208.5h-51l-47 156h-334l-119 -572h469l154 246h51q-4 -80 -16.5 -171t-34.5 -181h-1010z M440 1722v41q12 14 38.5 27.5t57.5 23t59.5 13.5t45.5 2l296 -254l-34 -39z" />
<glyph unicode="&#xc9;" horiz-adv-x="1171" d="M-41 0l10 59q84 35 181 50l256 1214q-41 10 -80 22.5t-78 28.5l14 60h969q-16 -82 -39 -166t-53 -166h-54l-34 225h-449l-113 -543h332l113 152h51q-16 -102 -37.5 -205.5t-50.5 -208.5h-51l-47 156h-334l-119 -572h469l154 246h51q-4 -80 -16.5 -171t-34.5 -181h-1010z M652 1575l299 254q18 2 46.5 -2t58.5 -13.5t55.5 -22.5t37.5 -28v-41l-463 -186z" />
<glyph unicode="&#xca;" horiz-adv-x="1171" d="M-41 0l10 59q84 35 181 50l256 1214q-41 10 -80 22.5t-78 28.5l14 60h969q-16 -82 -39 -166t-53 -166h-54l-34 225h-449l-113 -543h332l113 152h51q-16 -102 -37.5 -205.5t-50.5 -208.5h-51l-47 156h-334l-119 -572h469l154 246h51q-4 -80 -16.5 -171t-34.5 -181h-1010z M538 1579l343 229q10 8 28 9q16 0 25 -9l174 -223l-31 -43l-205 115l-305 -117z" />
<glyph unicode="&#xcb;" horiz-adv-x="1171" d="M-41 0l10 59q84 35 181 50l256 1214q-41 10 -80 22.5t-78 28.5l14 60h969q-16 -82 -39 -166t-53 -166h-54l-34 225h-449l-113 -543h332l113 152h51q-16 -102 -37.5 -205.5t-50.5 -208.5h-51l-47 156h-334l-119 -572h469l154 246h51q-4 -80 -16.5 -171t-34.5 -181h-1010z M469 1616q0 49 33.5 73.5t82.5 24.5q51 0 84 -24.5t33 -73.5q0 -47 -33 -71.5t-84 -24.5q-49 0 -82.5 24.5t-33.5 71.5zM925 1616q0 49 33 73.5t84 24.5q49 0 82 -24.5t35 -73.5q-2 -47 -35 -71.5t-82 -24.5q-51 0 -84 24.5t-33 71.5z" />
<glyph unicode="&#xcc;" horiz-adv-x="702" d="M-2 0l10 59q90 37 176 50l256 1214q-41 8 -77.5 21.5t-75.5 29.5l14 60h524l-12 -60q-41 -16 -88 -29.5t-88 -21.5l-256 -1214q41 -8 81 -20.5t70 -29.5l-10 -59h-524zM238 1722v41q12 14 38.5 27.5t57.5 23t59.5 13.5t45.5 2l296 -254l-34 -39z" />
<glyph unicode="&#xcd;" horiz-adv-x="702" d="M-2 0l10 59q90 37 176 50l256 1214q-41 8 -77.5 21.5t-75.5 29.5l14 60h524l-12 -60q-41 -16 -88 -29.5t-88 -21.5l-256 -1214q41 -8 81 -20.5t70 -29.5l-10 -59h-524zM398 1575l299 254q18 2 46.5 -2t58.5 -13.5t55.5 -22.5t37.5 -28v-41l-463 -186z" />
<glyph unicode="&#xce;" horiz-adv-x="702" d="M-2 0l10 59q90 37 176 50l256 1214q-41 8 -77.5 21.5t-75.5 29.5l14 60h524l-12 -60q-41 -16 -88 -29.5t-88 -21.5l-256 -1214q41 -8 81 -20.5t70 -29.5l-10 -59h-524zM282 1579l343 229q10 8 28 9q16 0 25 -9l174 -223l-31 -43l-205 115l-305 -117z" />
<glyph unicode="&#xcf;" horiz-adv-x="702" d="M-2 0l10 59q90 37 176 50l256 1214q-41 8 -77.5 21.5t-75.5 29.5l14 60h524l-12 -60q-41 -16 -88 -29.5t-88 -21.5l-256 -1214q41 -8 81 -20.5t70 -29.5l-10 -59h-524zM232 1616q0 49 33.5 73.5t82.5 24.5q51 0 84 -24.5t33 -73.5q0 -47 -33 -71.5t-84 -24.5 q-49 0 -82.5 24.5t-33.5 71.5zM688 1616q0 49 33 73.5t84 24.5q49 0 82 -24.5t35 -73.5q-2 -47 -35 -71.5t-82 -24.5q-51 0 -84 24.5t-33 71.5z" />
<glyph unicode="&#xd0;" horiz-adv-x="1437" d="M-41 0l10 59q84 35 181 50l120 569h-184l23 106h182l115 539q-45 10 -85 23.5t-73 27.5l14 60h207q35 0 83 2t98 5t97.5 6t77.5 3q164 0 279 -39t185.5 -105.5t102 -157.5t31.5 -196q0 -104 -17 -217.5t-58 -221t-110 -204t-172 -169t-244.5 -115.5t-325.5 -43 q-31 0 -73 3t-89 6l-94 6t-86 3h-195zM330 94q20 -2 50 -3t59.5 -2t53 -2t35.5 1q193 -2 323 76t209 204t111.5 282.5t32.5 314.5q0 80 -18.5 149.5t-65.5 119.5t-128 79.5t-208 29.5q-53 0 -108 -2t-84 -6l-117 -551h342l-22 -106h-342z" />
<glyph unicode="&#xd1;" horiz-adv-x="1480" d="M-41 0l10 59q88 53 185 72l249 1174q-39 16 -74.5 34.5t-64.5 36.5l10 58h340l441 -973l61 -176h8l33 176l176 831q-82 35 -141 82l12 60h436l-12 -60q-41 -29 -90 -49t-94 -33l-281 -1317h-110l-514 1129l-43 160h-7l-20 -160l-205 -973q37 -10 74 -28.5t68 -43.5 l-13 -59h-434zM641 1645q78 70 138.5 95t109.5 25q37 0 71 -10t64.5 -22.5t61.5 -22.5t63 -10q27 0 55.5 9t61.5 32l27 -60q-66 -66 -121 -90t-107 -24q-39 0 -72.5 11t-66.5 23.5t-63.5 23.5t-63.5 11q-29 0 -57.5 -11t-61.5 -40z" />
<glyph unicode="&#xd2;" horiz-adv-x="1495" d="M135 569q0 186 56.5 348t163 282t256 189.5t337.5 69.5q150 0 252.5 -49t164.5 -129t90 -183.5t28 -213.5q0 -164 -46 -327t-142.5 -292t-243 -209t-346.5 -80q-147 0 -255 48.5t-177.5 129t-103.5 188t-34 228.5zM354 567q0 -113 30 -203t82 -153.5t122.5 -97 t154.5 -31.5q150 -2 249.5 72.5t159.5 192.5t86 260.5t26 277.5q0 104 -23.5 190t-71 147.5t-116 95.5t-158.5 34q-141 0 -243.5 -74t-169 -188.5t-97.5 -254t-31 -268.5zM600 1722v41q12 14 38.5 27.5t57.5 23t59.5 13.5t45.5 2l296 -254l-34 -39z" />
<glyph unicode="&#xd3;" horiz-adv-x="1495" d="M135 569q0 186 56.5 348t163 282t256 189.5t337.5 69.5q150 0 252.5 -49t164.5 -129t90 -183.5t28 -213.5q0 -164 -46 -327t-142.5 -292t-243 -209t-346.5 -80q-147 0 -255 48.5t-177.5 129t-103.5 188t-34 228.5zM354 567q0 -113 30 -203t82 -153.5t122.5 -97 t154.5 -31.5q150 -2 249.5 72.5t159.5 192.5t86 260.5t26 277.5q0 104 -23.5 190t-71 147.5t-116 95.5t-158.5 34q-141 0 -243.5 -74t-169 -188.5t-97.5 -254t-31 -268.5zM803 1575l299 254q18 2 46.5 -2t58.5 -13.5t55.5 -22.5t37.5 -28v-41l-463 -186z" />
<glyph unicode="&#xd4;" horiz-adv-x="1495" d="M135 569q0 186 56.5 348t163 282t256 189.5t337.5 69.5q150 0 252.5 -49t164.5 -129t90 -183.5t28 -213.5q0 -164 -46 -327t-142.5 -292t-243 -209t-346.5 -80q-147 0 -255 48.5t-177.5 129t-103.5 188t-34 228.5zM354 567q0 -113 30 -203t82 -153.5t122.5 -97 t154.5 -31.5q150 -2 249.5 72.5t159.5 192.5t86 260.5t26 277.5q0 104 -23.5 190t-71 147.5t-116 95.5t-158.5 34q-141 0 -243.5 -74t-169 -188.5t-97.5 -254t-31 -268.5zM667 1579l343 229q10 8 28 9q16 0 25 -9l174 -223l-31 -43l-205 115l-305 -117z" />
<glyph unicode="&#xd5;" horiz-adv-x="1495" d="M135 569q0 186 56.5 348t163 282t256 189.5t337.5 69.5q150 0 252.5 -49t164.5 -129t90 -183.5t28 -213.5q0 -164 -46 -327t-142.5 -292t-243 -209t-346.5 -80q-147 0 -255 48.5t-177.5 129t-103.5 188t-34 228.5zM354 567q0 -113 30 -203t82 -153.5t122.5 -97 t154.5 -31.5q150 -2 249.5 72.5t159.5 192.5t86 260.5t26 277.5q0 104 -23.5 190t-71 147.5t-116 95.5t-158.5 34q-141 0 -243.5 -74t-169 -188.5t-97.5 -254t-31 -268.5zM645 1645q78 70 138.5 95t109.5 25q37 0 71 -10t64.5 -22.5t61.5 -22.5t63 -10q27 0 55.5 9t61.5 32 l27 -60q-66 -66 -121 -90t-107 -24q-39 0 -72.5 11t-66.5 23.5t-63.5 23.5t-63.5 11q-29 0 -57.5 -11t-61.5 -40z" />
<glyph unicode="&#xd6;" horiz-adv-x="1495" d="M135 569q0 186 56.5 348t163 282t256 189.5t337.5 69.5q150 0 252.5 -49t164.5 -129t90 -183.5t28 -213.5q0 -164 -46 -327t-142.5 -292t-243 -209t-346.5 -80q-147 0 -255 48.5t-177.5 129t-103.5 188t-34 228.5zM354 567q0 -113 30 -203t82 -153.5t122.5 -97 t154.5 -31.5q150 -2 249.5 72.5t159.5 192.5t86 260.5t26 277.5q0 104 -23.5 190t-71 147.5t-116 95.5t-158.5 34q-141 0 -243.5 -74t-169 -188.5t-97.5 -254t-31 -268.5zM613 1616q0 49 33.5 73.5t82.5 24.5q51 0 84 -24.5t33 -73.5q0 -47 -33 -71.5t-84 -24.5 q-49 0 -82.5 24.5t-33.5 71.5zM1069 1616q0 49 33 73.5t84 24.5q49 0 82 -24.5t35 -73.5q-2 -47 -35 -71.5t-82 -24.5q-51 0 -84 24.5t-33 71.5z" />
<glyph unicode="&#xd7;" d="M170 418l287 287l-283 284l76 76l285 -283l286 287l76 -76l-287 -286l293 -293l-78 -78l-293 293l-286 -287z" />
<glyph unicode="&#xd8;" horiz-adv-x="1495" d="M135 569q0 186 56.5 348t163 282t256 189.5t337.5 69.5q106 0 187.5 -24.5t140.5 -67.5l80 94l82 -65l-84 -101q70 -80 99.5 -188.5t29.5 -222.5q0 -164 -46 -327t-142.5 -292t-243 -209t-346.5 -80q-117 0 -207 30t-158 83l-96 -115l-80 68l100 119q-66 82 -97.5 187 t-31.5 222zM354 580q0 -72 12.5 -136.5t34.5 -117.5l760 903q-47 59 -113.5 91t-152.5 32q-141 0 -242.5 -73t-167 -184.5t-97.5 -248.5t-34 -266zM457 225q106 -145 286 -143q98 -2 175 31.5t134.5 92t97.5 136.5t64.5 166t36 181t13.5 183q-2 143 -50 256z" />
<glyph unicode="&#xd9;" horiz-adv-x="1363" d="M188.5 292q-14.5 95 10.5 206l176 825q-41 8 -84 21.5t-74 29.5l12 60h521l-13 -60q-80 -35 -166 -51l-174 -813q-23 -109 -12.5 -185.5t49.5 -125.5t102.5 -72t147.5 -23q166 0 265.5 92.5t140.5 290.5l174 818q-90 31 -148 69l12 60h439l-15 -60q-35 -23 -82 -41 t-92 -28l-174 -822q-57 -268 -201.5 -384.5t-371.5 -116.5q-135 0 -228.5 38.5t-146.5 107.5t-67.5 164zM535 1722v41q12 14 38.5 27.5t57.5 23t59.5 13.5t45.5 2l296 -254l-34 -39z" />
<glyph unicode="&#xda;" horiz-adv-x="1363" d="M188.5 292q-14.5 95 10.5 206l176 825q-41 8 -84 21.5t-74 29.5l12 60h521l-13 -60q-80 -35 -166 -51l-174 -813q-23 -109 -12.5 -185.5t49.5 -125.5t102.5 -72t147.5 -23q166 0 265.5 92.5t140.5 290.5l174 818q-90 31 -148 69l12 60h439l-15 -60q-35 -23 -82 -41 t-92 -28l-174 -822q-57 -268 -201.5 -384.5t-371.5 -116.5q-135 0 -228.5 38.5t-146.5 107.5t-67.5 164zM867 1575l299 254q18 2 46.5 -2t58.5 -13.5t55.5 -22.5t37.5 -28v-41l-463 -186z" />
<glyph unicode="&#xdb;" horiz-adv-x="1363" d="M188.5 292q-14.5 95 10.5 206l176 825q-41 8 -84 21.5t-74 29.5l12 60h521l-13 -60q-80 -35 -166 -51l-174 -813q-23 -109 -12.5 -185.5t49.5 -125.5t102.5 -72t147.5 -23q166 0 265.5 92.5t140.5 290.5l174 818q-90 31 -148 69l12 60h439l-15 -60q-35 -23 -82 -41 t-92 -28l-174 -822q-57 -268 -201.5 -384.5t-371.5 -116.5q-135 0 -228.5 38.5t-146.5 107.5t-67.5 164zM638 1579l343 229q10 8 28 9q16 0 25 -9l174 -223l-31 -43l-205 115l-305 -117z" />
<glyph unicode="&#xdc;" horiz-adv-x="1363" d="M188.5 292q-14.5 95 10.5 206l176 825q-41 8 -84 21.5t-74 29.5l12 60h521l-13 -60q-80 -35 -166 -51l-174 -813q-23 -109 -12.5 -185.5t49.5 -125.5t102.5 -72t147.5 -23q166 0 265.5 92.5t140.5 290.5l174 818q-90 31 -148 69l12 60h439l-15 -60q-35 -23 -82 -41 t-92 -28l-174 -822q-57 -268 -201.5 -384.5t-371.5 -116.5q-135 0 -228.5 38.5t-146.5 107.5t-67.5 164zM619 1616q0 49 33.5 73.5t82.5 24.5q51 0 84 -24.5t33 -73.5q0 -47 -33 -71.5t-84 -24.5q-49 0 -82.5 24.5t-33.5 71.5zM1075 1616q0 49 33 73.5t84 24.5 q49 0 82 -24.5t35 -73.5q-2 -47 -35 -71.5t-82 -24.5q-51 0 -84 24.5t-33 71.5z" />
<glyph unicode="&#xdd;" horiz-adv-x="1300" d="M188 1374l15 60h540l-12 -60q-33 -12 -74 -26.5t-94 -24.5l207 -602l434 602q-43 10 -81 22.5t-70 28.5l12 60h457l-15 -60q-41 -20 -82 -31.5t-82 -19.5l-538 -713l-107 -501q76 -10 144 -50l-11 -59h-520l11 59q82 37 180 50l106 499l-264 715q-45 8 -83 21.5t-73 29.5 zM779 1575l299 254q18 2 46.5 -2t58.5 -13.5t55.5 -22.5t37.5 -28v-41l-463 -186z" />
<glyph unicode="&#xde;" horiz-adv-x="1196" d="M-41 0l10 57q47 23 91 33t90 19l256 1216q-41 8 -80 20.5t-78 30.5l14 58h529l-13 -58q-41 -18 -88 -30.5t-88 -20.5l-20 -100q47 4 94 6t90 2q215 0 333 -84t118 -260q0 -92 -39 -186.5t-119 -171t-205 -125t-297 -48.5h-31.5t-46 1t-47 3.5t-33.5 4.5l-53 -258 q53 -8 99.5 -20.5t84.5 -31.5l-10 -57h-561zM422 475q10 -4 29.5 -5t41 -3t41 -2h31.5q100 0 181 28.5t136.5 82t85 128t29.5 164.5q0 135 -66.5 196.5t-228.5 61.5q-51 0 -82.5 -2t-60.5 -10z" />
<glyph unicode="&#xdf;" horiz-adv-x="1251" d="M-106 -389q25 12 59.5 44t68 85t63.5 130t46 179l133 873h-149v53q41 23 87 40t87 27l14 72q25 127 86.5 210t138 131t157.5 66.5t149 18.5q92 0 156.5 -22.5t104.5 -60.5t57 -89t17 -106q0 -20 -2 -42t-6 -44q-80 -10 -152.5 -36t-128 -66t-89 -97t-33.5 -133 q0 -49 26.5 -89t66.5 -76t86 -71t86 -79t66.5 -98t26.5 -126q0 -74 -33.5 -134t-92 -104t-135.5 -68t-163 -24t-155.5 16.5t-110.5 43.5q10 55 24.5 104t59.5 90l182 -166q41 0 84 13.5t77 40t55.5 63.5t23.5 84q-2 59 -27.5 103.5t-65.5 80t-85 68.5t-85 72t-65.5 87 t-25.5 118q0 68 26.5 130t78.5 117.5t128 98.5t174 69q8 45 1 88t-31.5 77t-64.5 55.5t-93 23.5q-47 -2 -96.5 -16.5t-93.5 -51t-77.5 -99t-50.5 -159.5l-172 -1038q-23 -145 -76 -241.5t-113.5 -156t-117.5 -88t-88 -36.5z" />
<glyph unicode="&#xe0;" horiz-adv-x="1095" d="M88 285q0 143 41 279t119 242.5t189.5 171t252.5 64.5q51 0 82 -9t74 -27q82 43 172 43l-184 -936h149v-52q-41 -33 -98.5 -53t-112.5 -20q-59 0 -84.5 25.5t-25.5 54.5q0 37 14 120.5t43 212.5h-8q-27 -74 -67 -149.5t-92 -137t-115.5 -100.5t-135.5 -39 q-213 0 -213 310zM272 319q0 -104 26 -160.5t89 -56.5q55 0 110.5 52.5t104.5 126t88 153.5t62 133l65 351q-29 20 -55.5 28t-73.5 8q-94 0 -171 -58t-131 -150.5t-84 -205t-30 -221.5zM381 1485v41q12 10 39.5 19t60.5 15.5t62.5 9.5t45.5 1l177 -357l-45 -34z" />
<glyph unicode="&#xe1;" horiz-adv-x="1095" d="M88 285q0 143 41 279t119 242.5t189.5 171t252.5 64.5q51 0 82 -9t74 -27q82 43 172 43l-184 -936h149v-52q-41 -33 -98.5 -53t-112.5 -20q-59 0 -84.5 25.5t-25.5 54.5q0 37 14 120.5t43 212.5h-8q-27 -74 -67 -149.5t-92 -137t-115.5 -100.5t-135.5 -39 q-213 0 -213 310zM272 319q0 -104 26 -160.5t89 -56.5q55 0 110.5 52.5t104.5 126t88 153.5t62 133l65 351q-29 20 -55.5 28t-73.5 8q-94 0 -171 -58t-131 -150.5t-84 -205t-30 -221.5zM586 1214l260 357q16 2 43 -1t55.5 -9.5t53 -15.5t36.5 -19v-39l-403 -309z" />
<glyph unicode="&#xe2;" horiz-adv-x="1095" d="M88 285q0 143 41 279t119 242.5t189.5 171t252.5 64.5q51 0 82 -9t74 -27q82 43 172 43l-184 -936h149v-52q-41 -33 -98.5 -53t-112.5 -20q-59 0 -84.5 25.5t-25.5 54.5q0 37 14 120.5t43 212.5h-8q-27 -74 -67 -149.5t-92 -137t-115.5 -100.5t-135.5 -39 q-213 0 -213 310zM272 319q0 -104 26 -160.5t89 -56.5q55 0 110.5 52.5t104.5 126t88 153.5t62 133l65 351q-29 20 -55.5 28t-73.5 8q-94 0 -171 -58t-131 -150.5t-84 -205t-30 -221.5zM442 1241l309 381q10 8 27 8q16 0 25 -8l149 -379l-55 -35l-160 219l-235 -219z" />
<glyph unicode="&#xe3;" horiz-adv-x="1095" d="M88 285q0 143 41 279t119 242.5t189.5 171t252.5 64.5q51 0 82 -9t74 -27q82 43 172 43l-184 -936h149v-52q-41 -33 -98.5 -53t-112.5 -20q-59 0 -84.5 25.5t-25.5 54.5q0 37 14 120.5t43 212.5h-8q-27 -74 -67 -149.5t-92 -137t-115.5 -100.5t-135.5 -39 q-213 0 -213 310zM272 319q0 -104 26 -160.5t89 -56.5q55 0 110.5 52.5t104.5 126t88 153.5t62 133l65 351q-29 20 -55.5 28t-73.5 8q-94 0 -171 -58t-131 -150.5t-84 -205t-30 -221.5zM383 1337q76 72 135.5 96.5t106.5 24.5q37 0 68.5 -10t60 -22.5t58.5 -22.5t60 -10 q27 0 53.5 9t59.5 32l27 -58q-66 -66 -120 -91t-101 -25q-37 0 -70 11t-63.5 23.5t-60.5 23.5t-60 11q-27 0 -54.5 -10t-60.5 -39z" />
<glyph unicode="&#xe4;" horiz-adv-x="1095" d="M88 285q0 143 41 279t119 242.5t189.5 171t252.5 64.5q51 0 82 -9t74 -27q82 43 172 43l-184 -936h149v-52q-41 -33 -98.5 -53t-112.5 -20q-59 0 -84.5 25.5t-25.5 54.5q0 37 14 120.5t43 212.5h-8q-27 -74 -67 -149.5t-92 -137t-115.5 -100.5t-135.5 -39 q-213 0 -213 310zM272 319q0 -104 26 -160.5t89 -56.5q55 0 110.5 52.5t104.5 126t88 153.5t62 133l65 351q-29 20 -55.5 28t-73.5 8q-94 0 -171 -58t-131 -150.5t-84 -205t-30 -221.5zM398 1356q0 49 30.5 78.5t81.5 29.5q49 0 80 -29.5t31 -78.5q0 -47 -31 -76t-80 -29 q-51 0 -81.5 29t-30.5 76zM811 1356q0 49 31 78.5t80 29.5q51 0 82 -29.5t31 -78.5q0 -47 -31 -76t-82 -29q-49 0 -80 29t-31 76z" />
<glyph unicode="&#xe5;" horiz-adv-x="1095" d="M88 285q0 143 41 279t119 242.5t189.5 171t252.5 64.5q51 0 82 -9t74 -27q82 43 172 43l-184 -936h149v-52q-41 -33 -98.5 -53t-112.5 -20q-59 0 -84.5 25.5t-25.5 54.5q0 37 14 120.5t43 212.5h-8q-27 -74 -67 -149.5t-92 -137t-115.5 -100.5t-135.5 -39 q-213 0 -213 310zM272 319q0 -104 26 -160.5t89 -56.5q55 0 110.5 52.5t104.5 126t88 153.5t62 133l65 351q-29 20 -55.5 28t-73.5 8q-94 0 -171 -58t-131 -150.5t-84 -205t-30 -221.5zM536 1364q0 47 16.5 90t47.5 75t74 50t96 18q78 0 121 -43t43 -110q0 -49 -18.5 -91 t-49.5 -73t-73 -48.5t-89 -17.5q-78 0 -123 39t-45 111zM643 1372q0 -37 21.5 -55.5t47.5 -18.5q39 0 76 38t37 110q0 68 -59 67q-63 0 -93 -46t-30 -95z" />
<glyph unicode="&#xe6;" horiz-adv-x="1513" d="M59 248q0 78 44 142.5t127 109.5t200 64.5t262 6.5q25 86 37 158t3 123t-41 80t-93 29q-29 0 -64.5 -3.5t-72.5 -17.5l-109 -225h-53q-39 113 -41 233q88 47 187.5 74t216.5 27q115 0 171 -35t68 -86q66 55 150 88t182 33t169 -50.5t71 -148.5q0 -145 -144.5 -229 t-466.5 -109q-8 -35 -11 -67.5t-3 -63.5q0 -123 62.5 -201t183.5 -78q39 0 76.5 12.5t71.5 31t61.5 39t48.5 36.5l32 -39q-18 -39 -53 -75.5t-82 -66.5t-106.5 -47.5t-126.5 -17.5q-131 0 -217 60.5t-119 181.5q-57 -109 -145.5 -175.5t-208.5 -66.5q-55 0 -103.5 19.5 t-84.5 54.5t-57.5 86t-21.5 113zM262 266q0 -90 43 -127t98 -37q45 0 87 21.5t76 55.5t59.5 76t40.5 83q-2 33 1 78t7 78q-104 12 -182 -4.5t-129.5 -50t-76 -80t-24.5 -93.5zM877 600q199 6 309 68.5t110 173.5q0 43 -25.5 81t-101.5 38q-88 0 -163.5 -82t-128.5 -279z" />
<glyph unicode="&#xe7;" horiz-adv-x="876" d="M82 334q0 147 47 277t128 227.5t190.5 154t234.5 56.5q78 0 127 -12.5t74 -35.5q2 -23 -3.5 -50t-16.5 -54t-28.5 -49.5t-35.5 -30.5l-140 144q-70 -2 -138 -43t-122.5 -117t-88.5 -183.5t-31 -242.5q-2 -141 56 -207t159 -64q43 -2 80.5 10.5t70.5 31t59.5 39t47.5 36.5 l30 -39q-39 -68 -117.5 -127t-193.5 -75l-68 -119q86 -4 123 -40t41 -95q2 -63 -35.5 -109.5t-95 -76t-124 -43t-122.5 -11.5v61q39 6 78 17.5t70 28t49.5 40t15.5 52.5q0 18 -5 34.5t-18 29.5t-38 22.5t-66 13.5l103 192q-137 10 -217 103.5t-80 253.5z" />
<glyph unicode="&#xe8;" horiz-adv-x="929" d="M82 342q0 145 41 274t114.5 225.5t179 152t234.5 55.5q98 0 169 -50.5t71 -148.5q0 -145 -144.5 -229t-465.5 -109q-8 -35 -11.5 -67.5t-3.5 -63.5q0 -123 62.5 -201t183.5 -78q39 0 77 12.5t71.5 31t61.5 39t48 36.5l33 -39q-18 -39 -53 -75.5t-82 -66.5t-106.5 -47.5 t-127.5 -17.5q-170 0 -261 97.5t-91 269.5zM295 600q199 6 309.5 68.5t110.5 173.5q0 43 -25.5 80t-101.5 39q-88 -2 -164 -83t-129 -278zM361 1485v41q12 10 39.5 19t60.5 15.5t62.5 9.5t45.5 1l177 -357l-45 -34z" />
<glyph unicode="&#xe9;" horiz-adv-x="929" d="M82 342q0 145 41 274t114.5 225.5t179 152t234.5 55.5q98 0 169 -50.5t71 -148.5q0 -145 -144.5 -229t-465.5 -109q-8 -35 -11.5 -67.5t-3.5 -63.5q0 -123 62.5 -201t183.5 -78q39 0 77 12.5t71.5 31t61.5 39t48 36.5l33 -39q-18 -39 -53 -75.5t-82 -66.5t-106.5 -47.5 t-127.5 -17.5q-170 0 -261 97.5t-91 269.5zM295 600q199 6 309.5 68.5t110.5 173.5q0 43 -25.5 80t-101.5 39q-88 -2 -164 -83t-129 -278zM522 1214l260 357q16 2 43 -1t55.5 -9.5t53 -15.5t36.5 -19v-39l-403 -309z" />
<glyph unicode="&#xea;" horiz-adv-x="929" d="M82 342q0 145 41 274t114.5 225.5t179 152t234.5 55.5q98 0 169 -50.5t71 -148.5q0 -145 -144.5 -229t-465.5 -109q-8 -35 -11.5 -67.5t-3.5 -63.5q0 -123 62.5 -201t183.5 -78q39 0 77 12.5t71.5 31t61.5 39t48 36.5l33 -39q-18 -39 -53 -75.5t-82 -66.5t-106.5 -47.5 t-127.5 -17.5q-170 0 -261 97.5t-91 269.5zM295 600q199 6 309.5 68.5t110.5 173.5q0 43 -25.5 80t-101.5 39q-88 -2 -164 -83t-129 -278zM383 1241l309 381q10 8 27 8q16 0 25 -8l149 -379l-55 -35l-160 219l-235 -219z" />
<glyph unicode="&#xeb;" horiz-adv-x="929" d="M82 342q0 145 41 274t114.5 225.5t179 152t234.5 55.5q98 0 169 -50.5t71 -148.5q0 -145 -144.5 -229t-465.5 -109q-8 -35 -11.5 -67.5t-3.5 -63.5q0 -123 62.5 -201t183.5 -78q39 0 77 12.5t71.5 31t61.5 39t48 36.5l33 -39q-18 -39 -53 -75.5t-82 -66.5t-106.5 -47.5 t-127.5 -17.5q-170 0 -261 97.5t-91 269.5zM295 600q199 6 309.5 68.5t110.5 173.5q0 43 -25.5 80t-101.5 39q-88 -2 -164 -83t-129 -278zM332 1356q0 49 30.5 78.5t81.5 29.5q49 0 80 -29.5t31 -78.5q0 -47 -31 -76t-80 -29q-51 0 -81.5 29t-30.5 76zM745 1356 q0 49 31 78.5t80 29.5q51 0 82 -29.5t31 -78.5q0 -47 -31 -76t-82 -29q-49 0 -80 29t-31 76z" />
<glyph unicode="&#xec;" horiz-adv-x="567" d="M109 1485v41q12 10 39.5 19t60.5 15.5t62.5 9.5t45.5 1l177 -357l-45 -34zM111 76q0 41 6 80t16 86l143 661l-131 21v51q31 12 70 25.5t80 23.5t78 17.5t65 7.5l37 -25l-192 -909h151v-54q-43 -33 -100.5 -53t-112.5 -20q-59 0 -84.5 26.5t-25.5 61.5z" />
<glyph unicode="&#xed;" horiz-adv-x="567" d="M111 76q0 41 6 80t16 86l143 661l-131 21v51q31 12 70 25.5t80 23.5t78 17.5t65 7.5l37 -25l-192 -909h151v-54q-43 -33 -100.5 -53t-112.5 -20q-59 0 -84.5 26.5t-25.5 61.5zM311 1214l260 357q16 2 43 -1t55.5 -9.5t53 -15.5t36.5 -19v-39l-403 -309z" />
<glyph unicode="&#xee;" horiz-adv-x="567" d="M111 76q0 41 6 80t16 86l143 661l-131 21v51q31 12 70 25.5t80 23.5t78 17.5t65 7.5l37 -25l-192 -909h151v-54q-43 -33 -100.5 -53t-112.5 -20q-59 0 -84.5 26.5t-25.5 61.5zM176 1241l309 381q10 8 27 8q16 0 25 -8l149 -379l-55 -35l-160 219l-235 -219z" />
<glyph unicode="&#xef;" horiz-adv-x="567" d="M93 1356q0 49 30.5 78.5t81.5 29.5q49 0 80 -29.5t31 -78.5q0 -47 -31 -76t-80 -29q-51 0 -81.5 29t-30.5 76zM111 76q0 41 6 80t16 86l143 661l-131 21v51q31 12 70 25.5t80 23.5t78 17.5t65 7.5l37 -25l-192 -909h151v-54q-43 -33 -100.5 -53t-112.5 -20 q-59 0 -84.5 26.5t-25.5 61.5zM506 1356q0 49 31 78.5t80 29.5q51 0 82 -29.5t31 -78.5q0 -47 -31 -76t-82 -29q-49 0 -80 29t-31 76z" />
<glyph unicode="&#xf0;" horiz-adv-x="1015" d="M59 344q0 125 42 249t121 222t190.5 159.5t251.5 61.5q37 0 73.5 -8t59.5 -24q0 82 -15.5 148.5t-44.5 121.5l-225 -103l-47 76l227 103q-43 55 -96 91t-109 52v43h185q37 -14 81 -44t85 -77l202 92l43 -77l-194 -91q41 -68 66.5 -162t25.5 -221q0 -209 -50 -388 t-134 -311t-198 -207t-239 -75q-147 0 -224 97.5t-77 271.5zM244 334q0 -47 6 -94t24.5 -87t51 -65t86.5 -25q68 0 136 65t123.5 178.5t90.5 267t35 333.5q-45 25 -80 33t-74 8q-113 0 -188.5 -62.5t-122.5 -154.5t-67.5 -198.5t-20.5 -198.5z" />
<glyph unicode="&#xf1;" horiz-adv-x="1130" d="M88 0l180 905l-125 19l4 51q29 14 65 27.5t74 23.5t73.5 16.5t66.5 6.5l41 -25l-78 -362h10q39 82 89.5 152.5t106.5 122.5t117.5 82t125.5 30q86 0 126 -54.5t40 -136.5q0 -45 -10.5 -112.5t-24.5 -127.5l-117 -503h152v-54q-41 -33 -99.5 -53t-113.5 -20 q-59 0 -82 24.5t-23 53.5q0 39 10.5 85t20.5 93l74 340q14 63 25 117.5t11 107.5q0 47 -21.5 80t-68.5 33q-55 0 -112.5 -45.5t-106.5 -108.5t-89 -132t-60 -114l-109 -522h-172zM395 1337q76 72 135.5 96.5t106.5 24.5q37 0 68.5 -10t60 -22.5t58.5 -22.5t60 -10 q27 0 53.5 9t59.5 32l27 -58q-66 -66 -120 -91t-101 -25q-37 0 -70 11t-63.5 23.5t-60.5 23.5t-60 11q-27 0 -54.5 -10t-60.5 -39z" />
<glyph unicode="&#xf2;" horiz-adv-x="1042" d="M84 381q0 109 34 226.5t103.5 216t174 162t243.5 63.5q160 0 241 -98.5t81 -291.5q0 -135 -39 -259t-109 -218t-168 -150.5t-217 -56.5q-158 0 -251 101.5t-93 304.5zM268 336q0 -121 53.5 -197t143.5 -76q72 0 128 54.5t96 143.5t61.5 201.5t21.5 227.5q0 121 -42 195 t-132 76q-100 -2 -163.5 -66t-100.5 -158t-51.5 -202.5t-14.5 -198.5zM334 1485v41q12 10 39.5 19t60.5 15.5t62.5 9.5t45.5 1l177 -357l-45 -34z" />
<glyph unicode="&#xf3;" horiz-adv-x="1042" d="M84 381q0 109 34 226.5t103.5 216t174 162t243.5 63.5q160 0 241 -98.5t81 -291.5q0 -135 -39 -259t-109 -218t-168 -150.5t-217 -56.5q-158 0 -251 101.5t-93 304.5zM268 336q0 -121 53.5 -197t143.5 -76q72 0 128 54.5t96 143.5t61.5 201.5t21.5 227.5q0 121 -42 195 t-132 76q-100 -2 -163.5 -66t-100.5 -158t-51.5 -202.5t-14.5 -198.5zM535 1214l260 357q16 2 43 -1t55.5 -9.5t53 -15.5t36.5 -19v-39l-403 -309z" />
<glyph unicode="&#xf4;" horiz-adv-x="1042" d="M84 381q0 109 34 226.5t103.5 216t174 162t243.5 63.5q160 0 241 -98.5t81 -291.5q0 -135 -39 -259t-109 -218t-168 -150.5t-217 -56.5q-158 0 -251 101.5t-93 304.5zM268 336q0 -121 53.5 -197t143.5 -76q72 0 128 54.5t96 143.5t61.5 201.5t21.5 227.5q0 121 -42 195 t-132 76q-100 -2 -163.5 -66t-100.5 -158t-51.5 -202.5t-14.5 -198.5zM409 1241l309 381q10 8 27 8q16 0 25 -8l149 -379l-55 -35l-160 219l-235 -219z" />
<glyph unicode="&#xf5;" horiz-adv-x="1042" d="M84 381q0 109 34 226.5t103.5 216t174 162t243.5 63.5q160 0 241 -98.5t81 -291.5q0 -135 -39 -259t-109 -218t-168 -150.5t-217 -56.5q-158 0 -251 101.5t-93 304.5zM268 336q0 -121 53.5 -197t143.5 -76q72 0 128 54.5t96 143.5t61.5 201.5t21.5 227.5q0 121 -42 195 t-132 76q-100 -2 -163.5 -66t-100.5 -158t-51.5 -202.5t-14.5 -198.5zM371 1337q76 72 135.5 96.5t106.5 24.5q37 0 68.5 -10t60 -22.5t58.5 -22.5t60 -10q27 0 53.5 9t59.5 32l27 -58q-66 -66 -120 -91t-101 -25q-37 0 -70 11t-63.5 23.5t-60.5 23.5t-60 11 q-27 0 -54.5 -10t-60.5 -39z" />
<glyph unicode="&#xf6;" horiz-adv-x="1042" d="M84 381q0 109 34 226.5t103.5 216t174 162t243.5 63.5q160 0 241 -98.5t81 -291.5q0 -135 -39 -259t-109 -218t-168 -150.5t-217 -56.5q-158 0 -251 101.5t-93 304.5zM268 336q0 -121 53.5 -197t143.5 -76q72 0 128 54.5t96 143.5t61.5 201.5t21.5 227.5q0 121 -42 195 t-132 76q-100 -2 -163.5 -66t-100.5 -158t-51.5 -202.5t-14.5 -198.5zM330 1356q0 49 30.5 78.5t81.5 29.5q49 0 80 -29.5t31 -78.5q0 -47 -31 -76t-80 -29q-51 0 -81.5 29t-30.5 76zM743 1356q0 49 31 78.5t80 29.5q51 0 82 -29.5t31 -78.5q0 -47 -31 -76t-82 -29 q-49 0 -80 29t-31 76z" />
<glyph unicode="&#xf7;" d="M76 653v109h921v-109h-921zM397 316q0 61 39 98t101 37q63 0 102 -37t39 -98q0 -59 -39 -96t-102 -37q-61 0 -100.5 37t-39.5 96zM397 1096q0 61 39 98t101 37q63 0 102 -37t39 -98q0 -59 -39 -96t-102 -37q-61 0 -100.5 37t-39.5 96z" />
<glyph unicode="&#xf8;" horiz-adv-x="1042" d="M-39 -61l174 202q-51 90 -51 240q0 109 34 226.5t103.5 216t174 162t243.5 63.5q131 0 215 -74l145 168l78 -64l-162 -188q23 -47 34.5 -103.5t11.5 -128.5q0 -135 -39 -259t-109 -218t-168 -150.5t-217 -56.5q-143 0 -233 84l-160 -186zM268 323.5q0 -12.5 2 -26.5 l478 551q-46 111 -150 113q-98 -2 -161.5 -63.5t-100.5 -154t-51.5 -199t-16.5 -194.5v-26.5zM301 180q23 -55 65 -86t99 -31q70 0 126 53.5t96 140.5t61.5 196.5t21.5 222.5v49z" />
<glyph unicode="&#xf9;" horiz-adv-x="1110" d="M109 168q0 45 14 133t34.5 192.5t44 214t42.5 197.5l-125 19v51q33 12 70.5 24.5t75.5 22.5t73 17.5t63 9.5l45 -25q-33 -154 -66.5 -292t-62.5 -292q-10 -49 -21 -109.5t-11 -131.5q0 -43 23.5 -70t53.5 -27q45 0 90.5 27t85.5 70t75.5 95t64.5 103.5t48 95.5t30 70 l90 461h170l-168 -911h151v-52q-41 -33 -99 -53t-114 -20q-59 0 -84.5 24.5t-25.5 53.5q0 37 10 123.5t45 211.5h-8q-27 -57 -67 -130.5t-95 -139t-125.5 -111t-156.5 -45.5q-72 0 -121 50.5t-49 142.5zM336 1485v41q12 10 39.5 19t60.5 15.5t62.5 9.5t45.5 1l177 -357 l-45 -34z" />
<glyph unicode="&#xfa;" horiz-adv-x="1110" d="M109 168q0 45 14 133t34.5 192.5t44 214t42.5 197.5l-125 19v51q33 12 70.5 24.5t75.5 22.5t73 17.5t63 9.5l45 -25q-33 -154 -66.5 -292t-62.5 -292q-10 -49 -21 -109.5t-11 -131.5q0 -43 23.5 -70t53.5 -27q45 0 90.5 27t85.5 70t75.5 95t64.5 103.5t48 95.5t30 70 l90 461h170l-168 -911h151v-52q-41 -33 -99 -53t-114 -20q-59 0 -84.5 24.5t-25.5 53.5q0 37 10 123.5t45 211.5h-8q-27 -57 -67 -130.5t-95 -139t-125.5 -111t-156.5 -45.5q-72 0 -121 50.5t-49 142.5zM576 1214l260 357q16 2 43 -1t55.5 -9.5t53 -15.5t36.5 -19v-39 l-403 -309z" />
<glyph unicode="&#xfb;" horiz-adv-x="1110" d="M109 168q0 45 14 133t34.5 192.5t44 214t42.5 197.5l-125 19v51q33 12 70.5 24.5t75.5 22.5t73 17.5t63 9.5l45 -25q-33 -154 -66.5 -292t-62.5 -292q-10 -49 -21 -109.5t-11 -131.5q0 -43 23.5 -70t53.5 -27q45 0 90.5 27t85.5 70t75.5 95t64.5 103.5t48 95.5t30 70 l90 461h170l-168 -911h151v-52q-41 -33 -99 -53t-114 -20q-59 0 -84.5 24.5t-25.5 53.5q0 37 10 123.5t45 211.5h-8q-27 -57 -67 -130.5t-95 -139t-125.5 -111t-156.5 -45.5q-72 0 -121 50.5t-49 142.5zM409 1241l309 381q10 8 27 8q16 0 25 -8l149 -379l-55 -35l-160 219 l-235 -219z" />
<glyph unicode="&#xfc;" horiz-adv-x="1110" d="M109 168q0 45 14 133t34.5 192.5t44 214t42.5 197.5l-125 19v51q33 12 70.5 24.5t75.5 22.5t73 17.5t63 9.5l45 -25q-33 -154 -66.5 -292t-62.5 -292q-10 -49 -21 -109.5t-11 -131.5q0 -43 23.5 -70t53.5 -27q45 0 90.5 27t85.5 70t75.5 95t64.5 103.5t48 95.5t30 70 l90 461h170l-168 -911h151v-52q-41 -33 -99 -53t-114 -20q-59 0 -84.5 24.5t-25.5 53.5q0 37 10 123.5t45 211.5h-8q-27 -57 -67 -130.5t-95 -139t-125.5 -111t-156.5 -45.5q-72 0 -121 50.5t-49 142.5zM359 1356q0 49 30.5 78.5t81.5 29.5q49 0 80 -29.5t31 -78.5 q0 -47 -31 -76t-80 -29q-51 0 -81.5 29t-30.5 76zM772 1356q0 49 31 78.5t80 29.5q51 0 82 -29.5t31 -78.5q0 -47 -31 -76t-82 -29q-49 0 -80 29t-31 76z" />
<glyph unicode="&#xfd;" horiz-adv-x="931" d="M-31 -395q-2 23 4.5 51.5t19.5 57t34.5 53t48.5 38.5l166 -86q14 10 36.5 30t47 53.5t49 81.5t47.5 116l-242 905l-131 17v51q10 8 33.5 20.5t54.5 24.5t63.5 21.5t61.5 9.5q43 0 62.5 -21.5t29.5 -56.5l170 -717l6 -123h5l47 121q27 57 54.5 125.5t54 138.5t49 137.5 t38.5 124.5q0 23 -5 59.5t-11 73.5t-12.5 69t-10.5 44q29 12 62 18.5t63 6.5q61 0 109 -25q-63 -254 -173 -508t-243 -516q-111 -215 -221.5 -321.5t-249.5 -106.5q-31 0 -58.5 8t-58.5 25zM508 1214l260 357q16 2 43 -1t55.5 -9.5t53 -15.5t36.5 -19v-39l-403 -309z" />
<glyph unicode="&#xfe;" horiz-adv-x="1110" d="M2 -391l375 1808l-125 19v51q68 29 142.5 51.5t140.5 22.5l40 -25l-180 -872h8q37 82 81 151.5t95.5 121.5t111 82t126.5 30q45 0 86 -17.5t72 -53.5t48 -89t17 -123q0 -158 -47 -301t-128 -252t-189.5 -173.5t-233.5 -64.5q-35 0 -59.5 2.5t-42.5 7.5t-35.5 13t-38.5 18 l-67 -315q72 -12 143 -51v-60h-322zM287 111q29 -25 60.5 -36.5t101.5 -11.5q82 0 154.5 60.5t126.5 155t86 210t32 228.5q0 98 -34 151.5t-93 53.5t-112.5 -46.5t-99.5 -112t-83 -138t-59 -127.5z" />
<glyph unicode="&#xff;" horiz-adv-x="931" d="M-31 -395q-2 23 4.5 51.5t19.5 57t34.5 53t48.5 38.5l166 -86q14 10 36.5 30t47 53.5t49 81.5t47.5 116l-242 905l-131 17v51q10 8 33.5 20.5t54.5 24.5t63.5 21.5t61.5 9.5q43 0 62.5 -21.5t29.5 -56.5l170 -717l6 -123h5l47 121q27 57 54.5 125.5t54 138.5t49 137.5 t38.5 124.5q0 23 -5 59.5t-11 73.5t-12.5 69t-10.5 44q29 12 62 18.5t63 6.5q61 0 109 -25q-63 -254 -173 -508t-243 -516q-111 -215 -221.5 -321.5t-249.5 -106.5q-31 0 -58.5 8t-58.5 25zM283 1356q0 49 30.5 78.5t81.5 29.5q49 0 80 -29.5t31 -78.5q0 -47 -31 -76 t-80 -29q-51 0 -81.5 29t-30.5 76zM696 1356q0 49 31 78.5t80 29.5q51 0 82 -29.5t31 -78.5q0 -47 -31 -76t-82 -29q-49 0 -80 29t-31 76z" />
<glyph unicode="&#x100;" horiz-adv-x="1380" d="M-100 0l12 59q80 33 160 50l809 1349h53l231 -1349q37 -8 75 -19.5t69 -30.5l-11 -59h-520l10 59q92 35 181 50l-62 374h-481l-219 -374q88 -12 164 -50l-11 -59h-460zM485 590h406l-66 434l-4 176h-4l-82 -180zM629 1614l21 106h618l-22 -106h-617z" />
<glyph unicode="&#x101;" horiz-adv-x="1095" d="M88 285q0 143 41 279t119 242.5t189.5 171t252.5 64.5q51 0 82 -9t74 -27q82 43 172 43l-184 -936h149v-52q-41 -33 -98.5 -53t-112.5 -20q-59 0 -84.5 25.5t-25.5 54.5q0 37 14 120.5t43 212.5h-8q-27 -74 -67 -149.5t-92 -137t-115.5 -100.5t-135.5 -39 q-213 0 -213 310zM272 319q0 -104 26 -160.5t89 -56.5q55 0 110.5 52.5t104.5 126t88 153.5t62 133l65 351q-29 20 -55.5 28t-73.5 8q-94 0 -171 -58t-131 -150.5t-84 -205t-30 -221.5zM488 1305l20 106h521l-23 -106h-518z" />
<glyph unicode="&#x102;" horiz-adv-x="1380" d="M-100 0l12 59q80 33 160 50l809 1349h53l231 -1349q37 -8 75 -19.5t69 -30.5l-11 -59h-520l10 59q92 35 181 50l-62 374h-481l-219 -374q88 -12 164 -50l-11 -59h-460zM485 590h406l-66 434l-4 176h-4l-82 -180zM650 1784q25 39 86 31q16 -49 69 -82t117 -35 q90 -2 162 28.5t119 81.5q33 4 65 -28q-16 -37 -56 -77t-91.5 -73t-108.5 -54.5t-108 -21.5q-111 0 -174.5 60.5t-79.5 169.5z" />
<glyph unicode="&#x103;" horiz-adv-x="1095" d="M88 285q0 143 41 279t119 242.5t189.5 171t252.5 64.5q51 0 82 -9t74 -27q82 43 172 43l-184 -936h149v-52q-41 -33 -98.5 -53t-112.5 -20q-59 0 -84.5 25.5t-25.5 54.5q0 37 14 120.5t43 212.5h-8q-27 -74 -67 -149.5t-92 -137t-115.5 -100.5t-135.5 -39 q-213 0 -213 310zM272 319q0 -104 26 -160.5t89 -56.5q55 0 110.5 52.5t104.5 126t88 153.5t62 133l65 351q-29 20 -55.5 28t-73.5 8q-94 0 -171 -58t-131 -150.5t-84 -205t-30 -221.5zM481 1477l58 26q23 -51 74 -91t112 -42q33 0 71 7t73.5 22.5t67.5 40t52 55.5l50 -22 q-18 -47 -50 -91.5t-74 -80t-91.5 -57t-100.5 -21.5q-111 0 -171 71.5t-71 182.5z" />
<glyph unicode="&#x104;" horiz-adv-x="1380" d="M-100 0l12 59q80 33 160 50l809 1349h53l231 -1349q37 -8 75 -19.5t69 -30.5l-4 -22l-7 -37h-81q-47 -25 -88.5 -54.5t-73 -64.5t-50 -74.5t-18.5 -82.5q0 -57 37 -94.5t100 -37.5t113 13v-60q-29 -23 -74 -41t-112 -18q-47 0 -89 14.5t-74 41t-50.5 64.5t-18.5 83 q0 104 78 180t205 131h-324l10 59q92 35 181 50l-62 374h-481l-219 -374q88 -12 164 -50l-11 -59h-460zM485 590h406l-66 434l-4 176h-4l-82 -180z" />
<glyph unicode="&#x105;" horiz-adv-x="1095" d="M88 285q0 143 41 279t119 242.5t189.5 171t252.5 64.5q51 0 82 -9t74 -27q82 43 172 43l-184 -936h149v-52q-43 -33 -94 -51q-33 -18 -65.5 -43.5t-59.5 -57.5t-44.5 -70t-17.5 -81q0 -53 29 -88t96 -37q23 2 39.5 7.5t44.5 13.5v-66q-29 -16 -72.5 -29.5t-80.5 -13.5 q-123 0 -174.5 51.5t-51.5 129.5q0 90 57.5 153.5t166.5 110.5q-51 4 -72.5 26.5t-21.5 51.5q0 37 14 120.5t43 212.5h-8q-27 -74 -67 -149.5t-92 -137t-115.5 -100.5t-135.5 -39q-213 0 -213 310zM272 319q0 -104 26 -160.5t89 -56.5q55 0 110.5 52.5t104.5 126t88 153.5 t62 133l65 351q-29 20 -55.5 28t-73.5 8q-94 0 -171 -58t-131 -150.5t-84 -205t-30 -221.5z" />
<glyph unicode="&#x106;" horiz-adv-x="1300" d="M135 528q0 209 59.5 380t169 293t266 189.5t353.5 67.5q135 0 229.5 -18.5t157.5 -50.5q-6 -33 -17.5 -77t-26.5 -93.5t-31.5 -96.5t-30.5 -86h-54l-43 295q-27 10 -81 15.5t-105 5.5q-135 0 -250 -52.5t-198.5 -155t-131 -256t-47.5 -356.5q0 -127 44 -214t110.5 -140 t144.5 -75.5t148 -20.5q70 -2 118 10t70 27l152 254h51q0 -57 -11.5 -144.5t-33.5 -169.5q-41 -23 -88 -39t-98.5 -26t-100.5 -14.5t-92 -4.5q-174 0 -295 49.5t-195.5 129t-108.5 178t-34 196.5zM809 1575l299 254q18 2 46.5 -2t58.5 -13.5t55.5 -22.5t37.5 -28v-41 l-463 -186z" />
<glyph unicode="&#x107;" horiz-adv-x="876" d="M82 334q0 147 47 277t128 227.5t190.5 154t234.5 56.5q78 0 127 -12.5t74 -35.5q2 -23 -3.5 -50t-16.5 -54t-28.5 -49.5t-35.5 -30.5l-140 144q-70 -2 -138 -43t-122.5 -117t-88.5 -183.5t-31 -242.5q-2 -141 56 -207t159 -66q43 0 80.5 12.5t70.5 31t59.5 39t47.5 36.5 l30 -39q-23 -39 -57.5 -75.5t-81.5 -66.5t-105.5 -47.5t-127.5 -17.5q-152 0 -240 96.5t-88 262.5zM545 1214l260 357q16 2 43 -1t55.5 -9.5t53 -15.5t36.5 -19v-39l-403 -309z" />
<glyph unicode="&#x108;" horiz-adv-x="1300" d="M135 528q0 209 59.5 380t169 293t266 189.5t353.5 67.5q135 0 229.5 -18.5t157.5 -50.5q-6 -33 -17.5 -77t-26.5 -93.5t-31.5 -96.5t-30.5 -86h-54l-43 295q-27 10 -81 15.5t-105 5.5q-135 0 -250 -52.5t-198.5 -155t-131 -256t-47.5 -356.5q0 -127 44 -214t110.5 -140 t144.5 -75.5t148 -20.5q70 -2 118 10t70 27l152 254h51q0 -57 -11.5 -144.5t-33.5 -169.5q-41 -23 -88 -39t-98.5 -26t-100.5 -14.5t-92 -4.5q-174 0 -295 49.5t-195.5 129t-108.5 178t-34 196.5zM677 1579l343 229q10 8 28 9q16 0 25 -9l174 -223l-31 -43l-205 115 l-305 -117z" />
<glyph unicode="&#x109;" horiz-adv-x="876" d="M82 334q0 147 47 277t128 227.5t190.5 154t234.5 56.5q78 0 127 -12.5t74 -35.5q2 -23 -3.5 -50t-16.5 -54t-28.5 -49.5t-35.5 -30.5l-140 144q-70 -2 -138 -43t-122.5 -117t-88.5 -183.5t-31 -242.5q-2 -141 56 -207t159 -66q43 0 80.5 12.5t70.5 31t59.5 39t47.5 36.5 l30 -39q-23 -39 -57.5 -75.5t-81.5 -66.5t-105.5 -47.5t-127.5 -17.5q-152 0 -240 96.5t-88 262.5zM403 1241l309 381q10 8 27 8q16 0 25 -8l149 -379l-55 -35l-160 219l-235 -219z" />
<glyph unicode="&#x10c;" horiz-adv-x="1300" d="M135 528q0 209 59.5 380t169 293t266 189.5t353.5 67.5q135 0 229.5 -18.5t157.5 -50.5q-6 -33 -17.5 -77t-26.5 -93.5t-31.5 -96.5t-30.5 -86h-54l-43 295q-27 10 -81 15.5t-105 5.5q-135 0 -250 -52.5t-198.5 -155t-131 -256t-47.5 -356.5q0 -127 44 -214t110.5 -140 t144.5 -75.5t148 -20.5q70 -2 118 10t70 27l152 254h51q0 -57 -11.5 -144.5t-33.5 -169.5q-41 -23 -88 -39t-98.5 -26t-100.5 -14.5t-92 -4.5q-174 0 -295 49.5t-195.5 129t-108.5 178t-34 196.5zM793 1778q8 14 19 27.5t32 13.5l184 -113l283 113q16 0 30.5 -10.5 t20.5 -24.5l-342 -230q-10 -6 -27 -6q-14 0 -26 6z" />
<glyph unicode="&#x10d;" horiz-adv-x="876" d="M82 334q0 147 47 277t128 227.5t190.5 154t234.5 56.5q78 0 127 -12.5t74 -35.5q2 -23 -3.5 -50t-16.5 -54t-28.5 -49.5t-35.5 -30.5l-140 144q-70 -2 -138 -43t-122.5 -117t-88.5 -183.5t-31 -242.5q-2 -141 56 -207t159 -66q43 0 80.5 12.5t70.5 31t59.5 39t47.5 36.5 l30 -39q-23 -39 -57.5 -75.5t-81.5 -66.5t-105.5 -47.5t-127.5 -17.5q-152 0 -240 96.5t-88 262.5zM446 1595q8 16 28.5 26.5t41.5 8.5l157 -217l267 217q18 2 35.5 -8t23.5 -25l-336 -378q-10 -6 -26 -7q-16 0 -25 7z" />
<glyph unicode="&#x10e;" horiz-adv-x="1437" d="M-41 0l10 59q84 35 181 50l256 1214q-45 10 -85 23.5t-73 27.5l14 60h207q35 0 83 2t98 5t97.5 6t77.5 3q164 0 279 -39t185.5 -105.5t102 -157.5t31.5 -196q0 -104 -17 -217.5t-58 -221t-110 -204t-172 -169t-244.5 -115.5t-325.5 -43q-31 0 -73 3t-89 6l-94 6t-86 3 h-195zM330 94q20 -2 50 -3t59.5 -2t53 -2t35.5 1q193 -2 323 76t209 204t111.5 282.5t32.5 314.5q0 80 -18.5 149.5t-65.5 119.5t-128 79.5t-208 29.5q-53 0 -108 -2t-84 -6zM594 1778q8 14 19 27.5t32 13.5l184 -113l283 113q16 0 30.5 -10.5t20.5 -24.5l-342 -230 q-10 -6 -27 -6q-14 0 -26 6z" />
<glyph unicode="&#x10f;" horiz-adv-x="1095" d="M92 287q0 145 41 281.5t119 241.5t188.5 168.5t251.5 63.5q53 0 80 -7t68 -25l78 387l-144 18v51q31 12 68 23.5t76.5 21t80.5 17.5t76 12l43 -16l-280 -1411h149v-52q-41 -33 -98.5 -53t-112.5 -20q-59 0 -84.5 25.5t-25.5 54.5q0 37 14 120.5t43 212.5h-8 q-27 -74 -68 -149.5t-93 -137t-114.5 -100.5t-134.5 -39q-213 0 -213 312zM276 319q0 -104 26 -160.5t89 -56.5q55 0 110.5 52.5t104.5 126t88 153.5t62 133l65 351q-31 20 -56.5 27t-72.5 9q-98 -2 -176 -60t-131 -149.5t-81 -204t-28 -221.5zM1116 1112q53 96 91 201.5 t38 189.5l25 33q14 2 37.5 -1t48 -10t47 -16.5t35.5 -19.5q-10 -57 -40 -114.5t-71 -111t-86 -98.5t-84 -75z" />
<glyph unicode="&#x110;" horiz-adv-x="1437" d="M-41 0l10 59q84 35 181 50l120 569h-184l23 106h182l115 539q-45 10 -85 23.5t-73 27.5l14 60h207q35 0 83 2t98 5t97.5 6t77.5 3q164 0 279 -39t185.5 -105.5t102 -157.5t31.5 -196q0 -104 -17 -217.5t-58 -221t-110 -204t-172 -169t-244.5 -115.5t-325.5 -43 q-31 0 -73 3t-89 6l-94 6t-86 3h-195zM330 96q20 -2 50 -3t59.5 -2t53 -2t35.5 -1q193 -2 323 76t209 204t111.5 282.5t32.5 314.5q0 80 -18.5 149.5t-65.5 119.5t-128 79.5t-208 29.5q-53 0 -108 -2t-84 -6l-117 -551h342l-22 -106h-342z" />
<glyph unicode="&#x111;" horiz-adv-x="1095" d="M92 287q0 145 41 281.5t119 241.5t188.5 168.5t251.5 63.5q53 0 80 -7t68 -25l30 159h-333l24 107h330l27 121l-144 18v51q31 12 68 23.5t76.5 21t80.5 17.5t76 12l43 -16l-51 -248h182l-26 -107h-176l-209 -1056h149v-52q-41 -33 -98.5 -53t-112.5 -20q-59 0 -84.5 25.5 t-25.5 54.5q0 37 14 120.5t43 212.5h-8q-27 -74 -68 -149.5t-93 -137t-114.5 -100.5t-134.5 -39q-213 0 -213 312zM276 319q0 -104 26 -160.5t89 -56.5q55 0 110.5 52.5t104.5 126t88 153.5t62 133l65 351q-31 20 -56.5 27t-72.5 9q-98 -2 -176 -60t-131 -149.5t-81 -204 t-28 -221.5z" />
<glyph unicode="&#x112;" horiz-adv-x="1171" d="M-41 0l10 59q84 35 181 50l256 1214q-41 10 -80 22.5t-78 28.5l14 60h969q-16 -82 -39 -166t-53 -166h-54l-34 225h-449l-113 -543h332l113 152h51q-16 -102 -37.5 -205.5t-50.5 -208.5h-51l-47 156h-334l-119 -572h469l154 246h51q-4 -80 -16.5 -171t-34.5 -181h-1010z M498 1614l21 106h618l-22 -106h-617z" />
<glyph unicode="&#x113;" horiz-adv-x="929" d="M82 342q0 145 41 274t114.5 225.5t179 152t234.5 55.5q98 0 169 -50.5t71 -148.5q0 -145 -144.5 -229t-465.5 -109q-8 -35 -11.5 -67.5t-3.5 -63.5q0 -123 62.5 -201t183.5 -78q39 0 77 12.5t71.5 31t61.5 39t48 36.5l33 -39q-18 -39 -53 -75.5t-82 -66.5t-106.5 -47.5 t-127.5 -17.5q-170 0 -261 97.5t-91 269.5zM295 600q199 6 309.5 68.5t110.5 173.5q0 43 -25.5 80t-101.5 39q-88 -2 -164 -83t-129 -278zM410 1305l20 106h521l-23 -106h-518z" />
<glyph unicode="&#x116;" horiz-adv-x="1171" d="M-41 0l10 59q84 35 181 50l256 1214q-41 10 -80 22.5t-78 28.5l14 60h969q-16 -82 -39 -166t-53 -166h-54l-34 225h-449l-113 -543h332l113 152h51q-16 -102 -37.5 -205.5t-50.5 -208.5h-51l-47 156h-334l-119 -572h469l154 246h51q-4 -80 -16.5 -171t-34.5 -181h-1010z M670 1673q0 53 39 82t94 29t92 -29t37 -82t-37 -81.5t-92 -28.5t-94 28.5t-39 81.5z" />
<glyph unicode="&#x117;" horiz-adv-x="929" d="M82 342q0 145 41 274t114.5 225.5t179 152t234.5 55.5q98 0 169 -50.5t71 -148.5q0 -145 -144.5 -229t-465.5 -109q-8 -35 -11.5 -67.5t-3.5 -63.5q0 -123 62.5 -201t183.5 -78q39 0 77 12.5t71.5 31t61.5 39t48 36.5l33 -39q-18 -39 -53 -75.5t-82 -66.5t-106.5 -47.5 t-127.5 -17.5q-170 0 -261 97.5t-91 269.5zM295 600q199 6 309.5 68.5t110.5 173.5q0 43 -25.5 80t-101.5 39q-88 -2 -164 -83t-129 -278zM537 1378q0 53 33 84t86 31q57 0 90 -30.5t33 -84.5q0 -51 -33 -79.5t-90 -28.5q-53 0 -86 28.5t-33 79.5z" />
<glyph unicode="&#x118;" horiz-adv-x="1171" d="M-41 0l10 59q84 35 181 50l256 1214q-41 10 -80 22.5t-78 28.5l14 60h969q-16 -82 -39 -166t-53 -166h-54l-34 225h-449l-113 -543h332l113 152h51q-16 -102 -37.5 -205.5t-50.5 -208.5h-51l-47 156h-334l-119 -572h469l154 246h51q-4 -80 -16.5 -171t-34.5 -181h-97 q-47 -25 -88 -54.5t-72.5 -64.5t-50 -74.5t-18.5 -82.5q0 -57 37 -94.5t100 -37.5t113 13v-60q-29 -23 -74 -41t-112 -18q-47 0 -89.5 14.5t-74 41t-50 64.5t-18.5 83q0 104 78 180t205 131h-799z" />
<glyph unicode="&#x119;" horiz-adv-x="929" d="M82 342q0 145 41 274t114.5 225.5t179 152t234.5 55.5q98 0 169 -50.5t71 -148.5q0 -145 -144.5 -229t-465.5 -109q-8 -35 -11.5 -67.5t-3.5 -63.5q0 -121 61.5 -200t184.5 -79q39 0 77 12.5t71.5 31t61.5 39t48 36.5l33 -39q-25 -53 -78 -100t-125 -76 q-31 -18 -63.5 -42.5t-58 -56.5t-42 -70t-16.5 -79q0 -53 28.5 -88t96.5 -37q23 0 39 5.5t45 13.5v-64q-29 -16 -74 -29.5t-82 -13.5q-121 0 -173 51.5t-52 129.5q0 84 51 144t145 105q-174 2 -268 95.5t-94 271.5zM295 600q199 6 309.5 68.5t110.5 173.5q0 43 -25.5 80 t-101.5 39q-88 -2 -164 -83t-129 -278z" />
<glyph unicode="&#x11a;" horiz-adv-x="1171" d="M-41 0l10 59q84 35 181 50l256 1214q-41 10 -80 22.5t-78 28.5l14 60h969q-16 -82 -39 -166t-53 -166h-54l-34 225h-449l-113 -543h332l113 152h51q-16 -102 -37.5 -205.5t-50.5 -208.5h-51l-47 156h-334l-119 -572h469l154 246h51q-4 -80 -16.5 -171t-34.5 -181h-1010z M600 1778q8 14 19 27.5t32 13.5l184 -113l283 113q16 0 30.5 -10.5t20.5 -24.5l-342 -230q-10 -6 -27 -6q-14 0 -26 6z" />
<glyph unicode="&#x11b;" horiz-adv-x="929" d="M82 342q0 145 41 274t114.5 225.5t179 152t234.5 55.5q98 0 169 -50.5t71 -148.5q0 -145 -144.5 -229t-465.5 -109q-8 -35 -11.5 -67.5t-3.5 -63.5q0 -123 62.5 -201t183.5 -78q39 0 77 12.5t71.5 31t61.5 39t48 36.5l33 -39q-18 -39 -53 -75.5t-82 -66.5t-106.5 -47.5 t-127.5 -17.5q-170 0 -261 97.5t-91 269.5zM295 600q199 6 309.5 68.5t110.5 173.5q0 43 -25.5 80t-101.5 39q-88 -2 -164 -83t-129 -278zM440 1595q8 16 28.5 26.5t41.5 8.5l157 -217l267 217q18 2 35.5 -8t23.5 -25l-336 -378q-10 -6 -26 -7q-16 0 -25 7z" />
<glyph unicode="&#x11c;" horiz-adv-x="1390" d="M135 530q0 207 58.5 378t169 293t269.5 189.5t359 67.5q135 0 231.5 -17.5t159.5 -51.5q-6 -31 -17 -76t-26.5 -94.5t-32 -97.5t-30.5 -85h-53l-43 295q-37 10 -92.5 15.5t-106.5 5.5q-158 0 -275.5 -64.5t-195.5 -175.5t-117 -259t-39 -318q0 -145 41 -234.5 t101.5 -138.5t129 -65.5t126.5 -14.5q82 -2 151.5 24.5t95.5 47.5l91 413q-53 4 -98.5 18.5t-88.5 30.5l15 60h501l-12 -60q-23 -14 -55.5 -26t-83.5 -23l-99 -469q-45 -27 -102 -49t-117.5 -38.5t-121 -26t-111.5 -9.5q-272 0 -427 144.5t-155 410.5zM684 1579l343 229 q10 8 28 9q16 0 25 -9l174 -223l-31 -43l-205 115l-305 -117z" />
<glyph unicode="&#x11d;" horiz-adv-x="1001" d="M-113 -195q0 57 26 106.5t69 93.5t98 81t115 70q-31 16 -50.5 43.5t-19.5 62.5q0 31 20.5 64.5t48 64.5t55 53.5t42.5 32.5q-25 6 -50.5 22.5t-48 43t-37 61.5t-14.5 78q0 80 34 147.5t93.5 115.5t137 76t167.5 28q98 0 161 -25t97 -53q18 16 49 32.5t66 31t72 26.5 t69 22q6 -10 10.5 -30.5t3.5 -45t-8.5 -50t-21.5 -46.5l-211 15q6 -18 12.5 -42t6.5 -53q0 -82 -34 -151.5t-93.5 -119.5t-138 -78.5t-167.5 -28.5q-35 0 -56 1t-48 7q-18 -20 -50 -48t-32 -61q0 -35 45 -53t113.5 -33.5t148.5 -33t148.5 -47t113.5 -77t45 -124.5 q0 -96 -54 -173t-143 -131.5t-203 -84t-230 -29.5q-94 0 -162 19.5t-111 53t-63.5 76.5t-20.5 90zM72 -150q-2 -92 70.5 -144t195.5 -52q63 0 125.5 18.5t113 52t82 84t31.5 113.5q0 61 -50 95t-122 54.5t-148.5 34t-131.5 31.5q-96 -70 -132 -145.5t-34 -141.5zM307 686 q0 -78 50.5 -114.5t107.5 -36.5q61 0 105 21.5t74 58t44 83.5t14 99q0 76 -35.5 123t-109.5 47q-59 0 -105 -22.5t-79 -60.5t-49.5 -89.5t-16.5 -108.5zM368 1241l309 381q10 8 27 8q16 0 25 -8l149 -379l-55 -35l-160 219l-235 -219z" />
<glyph unicode="&#x11e;" horiz-adv-x="1390" d="M135 530q0 207 58.5 378t169 293t269.5 189.5t359 67.5q135 0 231.5 -17.5t159.5 -51.5q-6 -31 -17 -76t-26.5 -94.5t-32 -97.5t-30.5 -85h-53l-43 295q-37 10 -92.5 15.5t-106.5 5.5q-158 0 -275.5 -64.5t-195.5 -175.5t-117 -259t-39 -318q0 -145 41 -234.5 t101.5 -138.5t129 -65.5t126.5 -14.5q82 -2 151.5 24.5t95.5 47.5l91 413q-53 4 -98.5 18.5t-88.5 30.5l15 60h501l-12 -60q-23 -14 -55.5 -26t-83.5 -23l-99 -469q-45 -27 -102 -49t-117.5 -38.5t-121 -26t-111.5 -9.5q-272 0 -427 144.5t-155 410.5zM750 1784q25 39 86 31 q16 -49 69 -82t117 -35q90 -2 162 28.5t119 81.5q33 4 65 -28q-16 -37 -56 -77t-91.5 -73t-108.5 -54.5t-108 -21.5q-111 0 -174.5 60.5t-79.5 169.5z" />
<glyph unicode="&#x11f;" horiz-adv-x="1001" d="M-113 -195q0 57 26 106.5t69 93.5t98 81t115 70q-31 16 -50.5 43.5t-19.5 62.5q0 31 20.5 64.5t48 64.5t55 53.5t42.5 32.5q-25 6 -50.5 22.5t-48 43t-37 61.5t-14.5 78q0 80 34 147.5t93.5 115.5t137 76t167.5 28q98 0 161 -25t97 -53q18 16 49 32.5t66 31t72 26.5 t69 22q6 -10 10.5 -30.5t3.5 -45t-8.5 -50t-21.5 -46.5l-211 15q6 -18 12.5 -42t6.5 -53q0 -82 -34 -151.5t-93.5 -119.5t-138 -78.5t-167.5 -28.5q-35 0 -56 1t-48 7q-18 -20 -50 -48t-32 -61q0 -35 45 -53t113.5 -33.5t148.5 -33t148.5 -47t113.5 -77t45 -124.5 q0 -96 -54 -173t-143 -131.5t-203 -84t-230 -29.5q-94 0 -162 19.5t-111 53t-63.5 76.5t-20.5 90zM72 -150q-2 -92 70.5 -144t195.5 -52q63 0 125.5 18.5t113 52t82 84t31.5 113.5q0 61 -50 95t-122 54.5t-148.5 34t-131.5 31.5q-96 -70 -132 -145.5t-34 -141.5zM307 686 q0 -78 50.5 -114.5t107.5 -36.5q61 0 105 21.5t74 58t44 83.5t14 99q0 76 -35.5 123t-109.5 47q-59 0 -105 -22.5t-79 -60.5t-49.5 -89.5t-16.5 -108.5zM383 1477l58 26q23 -51 74 -91t112 -42q33 0 71 7t73.5 22.5t67.5 40t52 55.5l50 -22q-18 -47 -50 -91.5t-74 -80 t-91.5 -57t-100.5 -21.5q-111 0 -171 71.5t-71 182.5z" />
<glyph unicode="&#x122;" horiz-adv-x="1390" d="M135 530q0 207 58.5 378t169 293t269.5 189.5t359 67.5q135 0 231.5 -17.5t159.5 -51.5q-6 -31 -17 -76t-26.5 -94.5t-32 -97.5t-30.5 -85h-53l-43 295q-37 10 -92.5 15.5t-106.5 5.5q-158 0 -275.5 -64.5t-195.5 -175.5t-117 -259t-39 -318q0 -145 41 -234.5 t101.5 -138.5t129 -65.5t126.5 -14.5q82 -2 151.5 24.5t95.5 47.5l91 413q-53 4 -98.5 18.5t-88.5 30.5l15 60h501l-12 -60q-23 -14 -55.5 -26t-83.5 -23l-99 -469q-45 -27 -102 -49t-117.5 -38.5t-121 -26t-111.5 -9.5q-272 0 -427 144.5t-155 410.5zM473 -485 q82 23 130.5 61.5t58.5 104.5q-18 20 -50 41.5t-59 29.5q-2 29 15.5 56.5t42 48t53 34t49.5 13.5q66 -4 114 -44t48 -106q0 -57 -29 -109.5t-78 -93t-117.5 -69.5t-148.5 -39z" />
<glyph unicode="&#x123;" horiz-adv-x="1001" d="M-113 -195q0 57 26 106.5t69 93.5t98 81t115 70q-31 16 -50.5 43.5t-19.5 62.5q0 31 20.5 64.5t48 64.5t55 53.5t42.5 32.5q-25 6 -50.5 22.5t-48 43t-37 61.5t-14.5 78q0 80 34 147.5t93.5 115.5t137 76t167.5 28q98 0 161 -25t97 -53q18 16 49 32.5t66 31t72 26.5 t69 22q6 -10 10.5 -30.5t3.5 -45t-8.5 -50t-21.5 -46.5l-211 15q6 -18 12.5 -42t6.5 -53q0 -82 -34 -151.5t-93.5 -119.5t-138 -78.5t-167.5 -28.5q-35 0 -56 1t-48 7q-18 -20 -50 -48t-32 -61q0 -35 45 -53t113.5 -33.5t148.5 -33t148.5 -47t113.5 -77t45 -124.5 q0 -96 -54 -173t-143 -131.5t-203 -84t-230 -29.5q-94 0 -162 19.5t-111 53t-63.5 76.5t-20.5 90zM72 -150q-2 -92 70.5 -144t195.5 -52q63 0 125.5 18.5t113 52t82 84t31.5 113.5q0 61 -50 95t-122 54.5t-148.5 34t-131.5 31.5q-96 -70 -132 -145.5t-34 -141.5zM307 686 q0 -78 50.5 -114.5t107.5 -36.5q61 0 105 21.5t74 58t44 83.5t14 99q0 76 -35.5 123t-109.5 47q-59 0 -105 -22.5t-79 -60.5t-49.5 -89.5t-16.5 -108.5zM460 1350q0 53 25 101t68 88t103 67.5t132 38.5l23 -62q-162 -45 -177 -164q16 -20 47 -39.5t58 -27.5 q2 -29 -13.5 -54.5t-39 -46t-49 -33t-46.5 -12.5q-61 4 -96 41t-35 103z" />
<glyph unicode="&#x124;" horiz-adv-x="1472" d="M-41 0l10 59q45 20 90 31.5t91 18.5l256 1214q-92 18 -158 51l14 60h518l-12 -60q-35 -18 -80 -30.5t-86 -20.5l-113 -535h644l114 535q-41 10 -76.5 21.5t-68.5 29.5l14 60h518l-12 -60q-41 -20 -87 -31.5t-91 -19.5l-258 -1214q92 -16 155 -50l-10 -59h-518l10 59 q39 16 81 28.5t85 21.5l121 573h-645l-119 -573q37 -8 74 -20.5t67 -29.5l-10 -59h-518zM688 1579l343 229q10 8 28 9q16 0 25 -9l174 -223l-31 -43l-205 115l-305 -117z" />
<glyph unicode="&#x125;" horiz-adv-x="1112" d="M70 0l280 1397l-139 18v47q31 12 68.5 25.5t78.5 25t80 18.5t74 9l43 -18l-184 -860h10q39 82 88 152.5t103.5 122.5t113.5 82t121 30q94 0 136 -54.5t42 -134.5q0 -55 -10 -118.5t-25 -123.5l-116 -503h151v-54q-41 -33 -98.5 -53t-114.5 -20q-59 0 -81.5 24.5 t-22.5 53.5q0 37 10 83t20 93l74 342q14 63 25.5 118.5t11.5 106.5q0 47 -20.5 80t-55.5 33q-63 0 -122.5 -45.5t-110.5 -108.5t-90 -132t-60 -114l-108 -522h-172zM249 1579l343 229q10 8 28 9q16 0 25 -9l174 -223l-31 -43l-205 115l-305 -117z" />
<glyph unicode="&#x126;" horiz-adv-x="1476" d="M-41 0l10 59q45 20 90 31.5t91 18.5l194 925h-164l23 107h164l39 182q-92 18 -158 51l14 60h518l-12 -60q-35 -18 -80 -30.5t-86 -20.5l-39 -182h643l41 182q-41 10 -76.5 21.5t-68.5 29.5l14 60h518l-12 -60q-41 -20 -87 -31.5t-91 -19.5l-39 -182h166l-25 -107h-164 l-196 -925q92 -16 155 -50l-10 -59h-518l10 59q39 16 81 28.5t85 21.5l121 573h-645l-119 -573q37 -8 74 -20.5t67 -29.5l-10 -59h-518zM489 788h644l53 246h-645z" />
<glyph unicode="&#x127;" horiz-adv-x="1112" d="M70 0l229 1147h-174l25 106h172l28 144l-139 18v47q31 12 68.5 25.5t78.5 25t80 18.5t74 9l43 -18l-55 -269h338l-27 -106h-336l-104 -485h10q39 82 88 152.5t103.5 122.5t113.5 82t121 30q94 0 136 -54.5t42 -134.5q0 -55 -10 -118.5t-25 -123.5l-116 -503h151v-54 q-41 -33 -98.5 -53t-114.5 -20q-59 0 -81.5 24.5t-22.5 53.5q0 37 10 83t20 93l74 342q14 63 25.5 118.5t11.5 106.5q0 47 -20.5 80t-55.5 33q-63 0 -122.5 -45.5t-110.5 -108.5t-90 -132t-60 -114l-108 -522h-172z" />
<glyph unicode="&#x12a;" horiz-adv-x="702" d="M-2 0l10 59q90 37 176 50l256 1214q-41 8 -77.5 21.5t-75.5 29.5l14 60h524l-12 -60q-41 -16 -88 -29.5t-88 -21.5l-256 -1214q41 -8 81 -20.5t70 -29.5l-10 -59h-524zM283 1614l21 106h618l-22 -106h-617z" />
<glyph unicode="&#x12b;" horiz-adv-x="567" d="M111 76q0 41 6 80t16 86l143 661l-131 21v51q31 12 70 25.5t80 23.5t78 17.5t65 7.5l37 -25l-192 -909h151v-54q-43 -33 -100.5 -53t-112.5 -20q-59 0 -84.5 26.5t-25.5 61.5zM180 1305l20 106h521l-23 -106h-518z" />
<glyph unicode="&#x12e;" horiz-adv-x="702" d="M-2 0l10 59q90 37 176 50l256 1214q-41 8 -77.5 21.5t-75.5 29.5l14 60h524l-12 -60q-41 -16 -88 -29.5t-88 -21.5l-256 -1214q41 -8 81 -20.5t70 -29.5l-10 -59h-104q-94 -47 -162 -118.5t-68 -157.5q0 -57 37 -94.5t101 -37.5q63 0 112 13v-60q-29 -23 -74 -41 t-112 -18q-47 0 -89 14.5t-74 41t-50.5 64.5t-18.5 83q0 104 78 180t205 131h-305z" />
<glyph unicode="&#x12f;" horiz-adv-x="567" d="M-23 -274q0 90 57.5 153.5t166.5 110.5q-49 4 -70.5 28.5t-21.5 57.5q0 41 6 80t16 86l143 661l-131 21v51q31 12 70 25.5t80 23.5t78 17.5t65 7.5l37 -25l-192 -911h151v-52q-23 -16 -48.5 -29.5t-53.5 -23.5q-31 -18 -64 -43.5t-58.5 -57.5t-41.5 -70t-16 -79 q0 -53 28.5 -88t95.5 -37q20 0 38 5.5t46 13.5v-64q-29 -16 -73.5 -29.5t-81.5 -13.5q-121 0 -173.5 51.5t-52.5 129.5zM307 1378q0 53 33 84t86 31q57 0 90 -30.5t33 -84.5q0 -51 -33 -79.5t-90 -28.5q-53 0 -86 28.5t-33 79.5z" />
<glyph unicode="&#x130;" horiz-adv-x="702" d="M-2 0l10 59q90 37 176 50l256 1214q-41 8 -77.5 21.5t-75.5 29.5l14 60h524l-12 -60q-41 -16 -88 -29.5t-88 -21.5l-256 -1214q41 -8 81 -20.5t70 -29.5l-10 -59h-524zM453 1673q0 53 39 82t94 29t92 -29t37 -82t-37 -81.5t-92 -28.5t-94 28.5t-39 81.5z" />
<glyph unicode="&#x131;" horiz-adv-x="567" d="M109 76q0 41 6 80t16 86l143 661l-131 21v51q31 12 70 25.5t80 23.5t78 17.5t65 7.5l37 -25l-192 -909h151v-54q-43 -33 -100.5 -53t-112.5 -20q-59 0 -84.5 26.5t-25.5 61.5z" />
<glyph unicode="&#x134;" horiz-adv-x="677" d="M-66 -297q41 33 75 66.5t62.5 84t53.5 122t47 178.5l246 1169q-88 20 -152 51l13 60h522l-10 -60q-41 -18 -88.5 -30.5t-88.5 -20.5l-241 -1147q-31 -141 -83 -233.5t-112.5 -148.5t-121 -83.5t-107.5 -38.5zM266 1579l343 229q10 8 28 9q16 0 25 -9l174 -223l-31 -43 l-205 115l-305 -117z" />
<glyph unicode="&#x135;" horiz-adv-x="563" d="M-150 -389q25 12 58 42t65.5 82t64.5 130t54 184l180 856l-122 19v51q63 29 141 51.5t141 22.5l41 -25l-199 -936q-31 -145 -85 -241.5t-113.5 -156t-113.5 -88t-87 -36.5zM149 1241l309 381q10 8 27 8q16 0 25 -8l149 -379l-55 -35l-160 219l-235 -219z" />
<glyph unicode="&#x136;" horiz-adv-x="1304" d="M-41 0l10 59q92 37 181 50l256 1214q-45 8 -85 20.5t-73 30.5l14 60h518l-12 -60q-70 -33 -166 -51l-119 -567l123 28l492 539q-41 10 -74 21.5t-63 29.5l14 60h465l-15 -60q-37 -18 -82 -30.5t-83 -20.5l-531 -553q37 -68 85 -149.5t102.5 -170t112.5 -178.5t116 -172 l88 -49l-10 -51h-248l-60 49q-92 141 -178 305t-162 332h-108l-121 -577q84 -16 141 -50l-10 -59h-518zM366 -485q82 23 130.5 61.5t58.5 104.5q-18 20 -50 41.5t-59 29.5q-2 29 15.5 56.5t42 48t53 34t49.5 13.5q66 -4 114 -44t48 -106q0 -57 -29 -109.5t-78 -93 t-117.5 -69.5t-148.5 -39z" />
<glyph unicode="&#x137;" horiz-adv-x="985" d="M70 0l278 1397l-143 18v51q59 27 144 48.5t157 25.5l43 -22l-193 -957h60q43 27 89 66t88 80t74.5 78.5t51.5 64.5q2 14 3 38.5t0 50.5t-2 49.5t-3 35.5q76 27 147 27q74 0 123 -27q-27 -68 -82 -135.5t-118.5 -125.5t-125 -106.5t-98.5 -74.5q14 -39 46 -101.5t70 -130 t80 -131t77 -104.5h129v-54q-41 -33 -89.5 -53t-101.5 -20q-49 0 -88 22.5t-74 81.5q-66 111 -110.5 210t-85.5 185l-74 21l-96 -508h-176zM233 -473q162 45 177 164q-16 20 -47 39.5t-58 27.5q-2 29 13.5 54.5t39 46t49 33t46.5 12.5q61 -4 96 -41t35 -103q0 -53 -25 -101 t-68 -88t-103 -67.5t-132 -38.5z" />
<glyph unicode="&#x139;" horiz-adv-x="1101" d="M-41 0l10 59q55 23 98.5 33t82.5 17l256 1214q-96 18 -158 51l14 60h561l-14 -60q-51 -18 -103.5 -31.5t-103.5 -19.5l-256 -1217h469l191 330h53q-4 -43 -10.5 -99t-15.5 -116.5t-20.5 -118t-23.5 -102.5h-1030zM506 1575l299 254q18 2 46.5 -2t58.5 -13.5t55.5 -22.5 t37.5 -28v-41l-463 -186z" />
<glyph unicode="&#x13a;" horiz-adv-x="567" d="M94 76q0 41 6 80t17 86l239 1155l-145 18v51q29 12 66.5 24.5t79.5 24t83 18.5t74 7l41 -22l-283 -1403h150v-54q-41 -33 -99.5 -53t-113.5 -20q-59 0 -87 26.5t-28 61.5zM344 1595l299 254q18 2 46.5 -2t58.5 -13.5t55.5 -22.5t37.5 -28v-41l-463 -186z" />
<glyph unicode="&#x13b;" horiz-adv-x="1101" d="M-41 0l10 59q55 23 98.5 33t82.5 17l256 1214q-96 18 -158 51l14 60h561l-14 -60q-51 -18 -103.5 -31.5t-103.5 -19.5l-256 -1217h469l191 330h53q-4 -43 -10.5 -99t-15.5 -116.5t-20.5 -118t-23.5 -102.5h-1030zM270 -485q82 23 130.5 61.5t58.5 104.5q-18 20 -50 41.5 t-59 29.5q-2 29 15.5 56.5t42 48t53 34t49.5 13.5q66 -4 114 -44t48 -106q0 -57 -29 -109.5t-78 -93t-117.5 -69.5t-148.5 -39z" />
<glyph unicode="&#x13c;" horiz-adv-x="567" d="M6 -473q162 45 177 164q-16 20 -47 39.5t-58 27.5q-2 29 13.5 54.5t39 46t49 33t46.5 12.5q61 -4 96 -41t35 -103q0 -53 -25 -101t-68 -88t-103 -67.5t-132 -38.5zM94 76q0 41 6 80t17 86l239 1155l-145 18v51q29 12 66.5 24.5t79.5 24t83 18.5t74 7l41 -22l-283 -1403 h150v-54q-41 -33 -99.5 -53t-113.5 -20q-59 0 -87 26.5t-28 61.5z" />
<glyph unicode="&#x13d;" horiz-adv-x="1101" d="M-41 0l10 59q55 23 98.5 33t82.5 17l256 1214q-96 18 -158 51l14 60h561l-14 -60q-51 -18 -103.5 -31.5t-103.5 -19.5l-256 -1217h469l191 330h53q-4 -43 -10.5 -99t-15.5 -116.5t-20.5 -118t-23.5 -102.5h-1030zM905 1032q20 45 37.5 97.5t28 104.5t16.5 101t6 90l25 33 q16 2 42.5 -3t54.5 -14t52.5 -22.5t38.5 -27.5q-8 -55 -36.5 -113.5t-66.5 -110t-80 -93.5t-77 -64z" />
<glyph unicode="&#x13e;" horiz-adv-x="567" d="M94 76q0 41 6 80t17 86l239 1155l-145 18v51q29 12 66.5 24.5t79.5 24t83 18.5t74 7l41 -22l-283 -1403h150v-54q-41 -33 -99.5 -53t-113.5 -20q-59 0 -87 26.5t-28 61.5zM573 1112q53 96 91 201.5t38 189.5l25 33q14 2 37.5 -1t48 -10t47 -16.5t35.5 -19.5 q-10 -57 -40 -114.5t-71 -111t-86 -98.5t-84 -75z" />
<glyph unicode="&#x141;" horiz-adv-x="1101" d="M-41 0l10 59q55 23 98.5 33t82.5 17l92 440l-217 -119l28 133l215 119l138 641q-96 18 -158 51l14 60h561l-14 -60q-51 -18 -103.5 -31.5t-103.5 -19.5l-110 -520l313 172l-29 -135l-311 -172l-119 -562h469l191 330h53q-4 -43 -10.5 -99t-15.5 -116.5t-20.5 -118 t-23.5 -102.5h-1030z" />
<glyph unicode="&#x142;" horiz-adv-x="610" d="M-2 469l29 135l204 119l140 674l-146 18v51q29 12 67 24.5t80 24t83 18.5t73 7l41 -22l-137 -678l213 125l-27 -136l-212 -122l-119 -592h151v-54q-41 -33 -99 -53t-114 -20q-59 0 -86.5 26.5t-27.5 61.5q0 41 6 80t16 86l70 348z" />
<glyph unicode="&#x143;" horiz-adv-x="1480" d="M-41 0l10 59q88 53 185 72l249 1174q-39 16 -74.5 34.5t-64.5 36.5l10 58h340l441 -973l61 -176h8l33 176l176 831q-82 35 -141 82l12 60h436l-12 -60q-41 -29 -90 -49t-94 -33l-281 -1317h-110l-514 1129l-43 160h-7l-20 -160l-205 -973q37 -10 74 -28.5t68 -43.5 l-13 -59h-434zM770 1575l299 254q18 2 46.5 -2t58.5 -13.5t55.5 -22.5t37.5 -28v-41l-463 -186z" />
<glyph unicode="&#x144;" horiz-adv-x="1130" d="M88 0l180 905l-125 19l4 51q29 14 65 27.5t74 23.5t73.5 16.5t66.5 6.5l41 -25l-78 -362h10q39 82 89.5 152.5t106.5 122.5t117.5 82t125.5 30q86 0 126 -54.5t40 -136.5q0 -45 -10.5 -112.5t-24.5 -127.5l-117 -503h152v-54q-41 -33 -99.5 -53t-113.5 -20 q-59 0 -82 24.5t-23 53.5q0 39 10.5 85t20.5 93l74 340q14 63 25 117.5t11 107.5q0 47 -21.5 80t-68.5 33q-55 0 -112.5 -45.5t-106.5 -108.5t-89 -132t-60 -114l-109 -522h-172zM617 1214l260 357q16 2 43 -1t55.5 -9.5t53 -15.5t36.5 -19v-39l-403 -309z" />
<glyph unicode="&#x145;" horiz-adv-x="1480" d="M-41 0l10 59q88 53 185 72l249 1174q-39 16 -74.5 34.5t-64.5 36.5l10 58h340l441 -973l61 -176h8l33 176l176 831q-82 35 -141 82l12 60h436l-12 -60q-41 -29 -90 -49t-94 -33l-281 -1317h-110l-514 1129l-43 160h-7l-20 -160l-205 -973q37 -10 74 -28.5t68 -43.5 l-13 -59h-434zM364 -485q82 23 130.5 61.5t58.5 104.5q-18 20 -50 41.5t-59 29.5q-2 29 15.5 56.5t42 48t53 34t49.5 13.5q66 -4 114 -44t48 -106q0 -57 -29 -109.5t-78 -93t-117.5 -69.5t-148.5 -39z" />
<glyph unicode="&#x146;" horiz-adv-x="1130" d="M88 0l180 905l-125 19l4 51q29 14 65 27.5t74 23.5t73.5 16.5t66.5 6.5l41 -25l-78 -362h10q39 82 89.5 152.5t106.5 122.5t117.5 82t125.5 30q86 0 126 -54.5t40 -136.5q0 -45 -10.5 -112.5t-24.5 -127.5l-117 -503h152v-54q-41 -33 -99.5 -53t-113.5 -20 q-59 0 -82 24.5t-23 53.5q0 39 10.5 85t20.5 93l74 340q14 63 25 117.5t11 107.5q0 47 -21.5 80t-68.5 33q-55 0 -112.5 -45.5t-106.5 -108.5t-89 -132t-60 -114l-109 -522h-172zM233 -473q162 45 177 164q-16 20 -47 39.5t-58 27.5q-2 29 13.5 54.5t39 46t49 33t46.5 12.5 q61 -4 96 -41t35 -103q0 -53 -25 -101t-68 -88t-103 -67.5t-132 -38.5z" />
<glyph unicode="&#x147;" horiz-adv-x="1480" d="M-41 0l10 59q88 53 185 72l249 1174q-39 16 -74.5 34.5t-64.5 36.5l10 58h340l441 -973l61 -176h8l33 176l176 831q-82 35 -141 82l12 60h436l-12 -60q-41 -29 -90 -49t-94 -33l-281 -1317h-110l-514 1129l-43 160h-7l-20 -160l-205 -973q37 -10 74 -28.5t68 -43.5 l-13 -59h-434zM756 1778q8 14 19 27.5t32 13.5l184 -113l283 113q16 0 30.5 -10.5t20.5 -24.5l-342 -230q-10 -6 -27 -6q-14 0 -26 6z" />
<glyph unicode="&#x148;" horiz-adv-x="1130" d="M88 0l180 905l-125 19l4 51q29 14 65 27.5t74 23.5t73.5 16.5t66.5 6.5l41 -25l-78 -362h10q39 82 89.5 152.5t106.5 122.5t117.5 82t125.5 30q86 0 126 -54.5t40 -136.5q0 -45 -10.5 -112.5t-24.5 -127.5l-117 -503h152v-54q-41 -33 -99.5 -53t-113.5 -20 q-59 0 -82 24.5t-23 53.5q0 39 10.5 85t20.5 93l74 340q14 63 25 117.5t11 107.5q0 47 -21.5 80t-68.5 33q-55 0 -112.5 -45.5t-106.5 -108.5t-89 -132t-60 -114l-109 -522h-172zM477 1595q8 16 28.5 26.5t41.5 8.5l157 -217l267 217q18 2 35.5 -8t23.5 -25l-336 -378 q-10 -6 -26 -7q-16 0 -25 7z" />
<glyph unicode="&#x14c;" horiz-adv-x="1495" d="M135 569q0 186 56.5 348t163 282t256 189.5t337.5 69.5q150 0 252.5 -49t164.5 -129t90 -183.5t28 -213.5q0 -164 -46 -327t-142.5 -292t-243 -209t-346.5 -80q-147 0 -255 48.5t-177.5 129t-103.5 188t-34 228.5zM354 567q0 -113 30 -203t82 -153.5t122.5 -97 t154.5 -31.5q150 -2 249.5 72.5t159.5 192.5t86 260.5t26 277.5q0 104 -23.5 190t-71 147.5t-116 95.5t-158.5 34q-141 0 -243.5 -74t-169 -188.5t-97.5 -254t-31 -268.5zM663 1614l21 106h618l-22 -106h-617z" />
<glyph unicode="&#x14d;" horiz-adv-x="1042" d="M84 381q0 109 34 226.5t103.5 216t174 162t243.5 63.5q160 0 241 -98.5t81 -291.5q0 -135 -39 -259t-109 -218t-168 -150.5t-217 -56.5q-158 0 -251 101.5t-93 304.5zM268 336q0 -121 53.5 -197t143.5 -76q72 0 128 54.5t96 143.5t61.5 201.5t21.5 227.5q0 121 -42 195 t-132 76q-100 -2 -163.5 -66t-100.5 -158t-51.5 -202.5t-14.5 -198.5zM402 1305l20 106h521l-23 -106h-518z" />
<glyph unicode="&#x150;" horiz-adv-x="1495" d="M135 569q0 186 56.5 348t163 282t256 189.5t337.5 69.5q150 0 252.5 -49t164.5 -129t90 -183.5t28 -213.5q0 -164 -46 -327t-142.5 -292t-243 -209t-346.5 -80q-147 0 -255 48.5t-177.5 129t-103.5 188t-34 228.5zM354 567q0 -113 30 -203t82 -153.5t122.5 -97 t154.5 -31.5q150 -2 249.5 72.5t159.5 192.5t86 260.5t26 277.5q0 104 -23.5 190t-71 147.5t-116 95.5t-158.5 34q-141 0 -243.5 -74t-169 -188.5t-97.5 -254t-31 -268.5zM680 1589l143 230q12 2 36.5 -2.5t51.5 -10.5t48.5 -16t27.5 -21v-28l-268 -189zM944 1585l235 234 q14 2 39 -2.5t51.5 -12.5t49 -18t32.5 -23l-2 -20l-362 -195z" />
<glyph unicode="&#x151;" horiz-adv-x="1042" d="M84 381q0 109 34 226.5t103.5 216t174 162t243.5 63.5q160 0 241 -98.5t81 -291.5q0 -135 -39 -259t-109 -218t-168 -150.5t-217 -56.5q-158 0 -251 101.5t-93 304.5zM268 336q0 -121 53.5 -197t143.5 -76q72 0 128 54.5t96 143.5t61.5 201.5t21.5 227.5q0 121 -42 195 t-132 76q-100 -2 -163.5 -66t-100.5 -158t-51.5 -202.5t-14.5 -198.5zM451 1257l158 316q12 2 38.5 -1t54 -9.5t50.5 -15.5t29 -17v-31l-283 -274zM691 1262l272 311q14 2 39.5 -1t51.5 -11.5t49.5 -19.5t33.5 -25v-27l-408 -264z" />
<glyph unicode="&#x152;" horiz-adv-x="1937" d="M135 524q0 164 46 331t145.5 301t254 218t371.5 84q47 0 117 -6t127 -18h801q-18 -82 -41 -165t-51 -167h-54l-34 225h-449l-113 -543h332l113 152h51q-16 -102 -37.5 -205.5t-50.5 -208.5h-51l-47 156h-334l-121 -572h471l154 246h51q-4 -86 -16.5 -174t-34.5 -178h-840 q-55 -10 -100 -17.5t-101 -7.5q-283 0 -421 140.5t-138 408.5zM354 510q0 -74 14.5 -150.5t51.5 -139t103.5 -101.5t170.5 -37q53 -2 110.5 7t113.5 32l249 1182q-47 23 -108.5 36t-130.5 13q-133 0 -239.5 -65.5t-180.5 -179.5t-114 -267.5t-40 -329.5z" />
<glyph unicode="&#x153;" horiz-adv-x="1593" d="M84 381q0 109 34 226.5t103.5 216t174 162t243.5 63.5q98 0 176 -45.5t107 -133.5q88 100 190 139.5t201 39.5q100 0 169.5 -50.5t69.5 -148.5q0 -145 -143 -229t-465 -109q-8 -35 -11 -67.5t-3 -63.5q0 -123 61.5 -201t182.5 -78q41 0 78.5 12.5t70.5 31t60.5 39 t48.5 36.5l32 -39q-18 -39 -53 -75.5t-82 -66.5t-105.5 -47.5t-125.5 -17.5q-131 0 -206 54.5t-106 122.5q-39 -49 -85 -83t-93 -54.5t-94 -30t-86 -9.5q-158 0 -251 101.5t-93 304.5zM268 336q0 -121 53.5 -197t143.5 -76q72 0 128 54.5t96 143.5t61.5 201.5t21.5 227.5 q0 121 -42 195t-132 76q-100 -2 -163.5 -66t-100.5 -158t-51.5 -202.5t-14.5 -198.5zM958 600q199 6 308.5 68.5t109.5 173.5q0 43 -25.5 79.5t-99.5 36.5q-90 0 -165.5 -80.5t-127.5 -277.5z" />
<glyph unicode="&#x154;" horiz-adv-x="1284" d="M-41 0l10 59q49 20 93 30.5t88 19.5l256 1214q-49 12 -89.5 24.5t-68.5 26.5l14 60h180q82 0 181.5 8t189.5 8q203 0 302 -87t99 -247q0 -80 -27.5 -153.5t-77.5 -133t-123 -103.5t-165 -67q59 -139 130 -276t147 -272l96 -60l-10 -51h-234l-69 57q-43 72 -77 141.5 t-61.5 139.5t-49 143.5t-40.5 153.5h-196l-111 -526q90 -16 162 -50l-10 -59h-539zM475 723h146q109 -2 183.5 33t120.5 93t67.5 132t21.5 152q2 111 -63 160.5t-206 49.5q-47 0 -80.5 -3t-62.5 -7zM670 1575l299 254q18 2 46.5 -2t58.5 -13.5t55.5 -22.5t37.5 -28v-41 l-463 -186z" />
<glyph unicode="&#x155;" horiz-adv-x="788" d="M88 0l191 905l-125 19v51q70 33 145.5 50t136.5 24l41 -25l-57 -272h8q59 135 145 216t185 81q27 0 53.5 -5.5t50.5 -19.5q0 -18 -6 -48t-17.5 -60.5t-24.5 -58.5t-28 -42l-161 84q-53 -20 -120 -103t-118 -225l-123 -571h-176zM465 1214l260 357q16 2 43 -1t55.5 -9.5 t53 -15.5t36.5 -19v-39l-403 -309z" />
<glyph unicode="&#x156;" horiz-adv-x="1284" d="M-41 0l10 59q49 20 93 30.5t88 19.5l256 1214q-49 12 -89.5 24.5t-68.5 26.5l14 60h180q82 0 181.5 8t189.5 8q203 0 302 -87t99 -247q0 -80 -27.5 -153.5t-77.5 -133t-123 -103.5t-165 -67q59 -139 130 -276t147 -272l96 -60l-10 -51h-234l-69 57q-43 72 -77 141.5 t-61.5 139.5t-49 143.5t-40.5 153.5h-196l-111 -526q90 -16 162 -50l-10 -59h-539zM307 -485q82 23 130.5 61.5t58.5 104.5q-18 20 -50 41.5t-59 29.5q-2 29 15.5 56.5t42 48t53 34t49.5 13.5q66 -4 114 -44t48 -106q0 -57 -29 -109.5t-78 -93t-117.5 -69.5t-148.5 -39z M475 723h146q109 -2 183.5 33t120.5 93t67.5 132t21.5 152q2 111 -63 160.5t-206 49.5q-47 0 -80.5 -3t-62.5 -7z" />
<glyph unicode="&#x157;" horiz-adv-x="788" d="M10 -473q162 45 177 164q-16 20 -47 39.5t-58 27.5q-2 29 13.5 54.5t39 46t49 33t46.5 12.5q61 -4 96 -41t35 -103q0 -53 -25 -101t-68 -88t-103 -67.5t-132 -38.5zM88 0l191 905l-125 19v51q70 33 145.5 50t136.5 24l41 -25l-57 -272h8q59 135 145 216t185 81 q27 0 53.5 -5.5t50.5 -19.5q0 -18 -6 -48t-17.5 -60.5t-24.5 -58.5t-28 -42l-161 84q-53 -20 -120 -103t-118 -225l-123 -571h-176z" />
<glyph unicode="&#x158;" horiz-adv-x="1284" d="M-41 0l10 59q49 20 93 30.5t88 19.5l256 1214q-49 12 -89.5 24.5t-68.5 26.5l14 60h180q82 0 181.5 8t189.5 8q203 0 302 -87t99 -247q0 -80 -27.5 -153.5t-77.5 -133t-123 -103.5t-165 -67q59 -139 130 -276t147 -272l96 -60l-10 -51h-234l-69 57q-43 72 -77 141.5 t-61.5 139.5t-49 143.5t-40.5 153.5h-196l-111 -526q90 -16 162 -50l-10 -59h-539zM475 723h146q109 -2 183.5 33t120.5 93t67.5 132t21.5 152q2 111 -63 160.5t-206 49.5q-47 0 -80.5 -3t-62.5 -7zM572 1778q8 14 19 27.5t32 13.5l184 -113l283 113q16 0 30.5 -10.5 t20.5 -24.5l-342 -230q-10 -6 -27 -6q-14 0 -26 6z" />
<glyph unicode="&#x159;" horiz-adv-x="788" d="M88 0l191 905l-125 19v51q70 33 145.5 50t136.5 24l41 -25l-57 -272h8q59 135 145 216t185 81q27 0 53.5 -5.5t50.5 -19.5q0 -18 -6 -48t-17.5 -60.5t-24.5 -58.5t-28 -42l-161 84q-53 -20 -120 -103t-118 -225l-123 -571h-176zM358 1595q8 16 28.5 26.5t41.5 8.5 l157 -217l267 217q18 2 35.5 -8t23.5 -25l-336 -378q-10 -6 -26 -7q-16 0 -25 7z" />
<glyph unicode="&#x15a;" horiz-adv-x="1079" d="M45 72q8 37 23.5 87t34 101t37 99.5t34.5 82.5h53l21 -301q23 -18 76 -39.5t112 -19.5q68 -2 131.5 10t114.5 43t82 81t31 126q0 84 -40 141.5t-99.5 101.5t-128 84t-128 89t-99.5 115.5t-40 164.5q0 94 34 171t100.5 132.5t162.5 86t219 30.5q125 0 223.5 -19.5 t153.5 -47.5q-8 -35 -23.5 -81t-32 -95.5t-35 -95.5t-32.5 -81h-53l-25 281q-35 16 -89 24.5t-118 8.5q-61 0 -115.5 -14.5t-94 -44t-62 -74.5t-22.5 -107q0 -82 39.5 -136t99 -97t128 -83t128 -91.5t99.5 -124t40 -179.5q0 -96 -38 -173.5t-108.5 -134t-174 -87.5 t-234.5 -31q-66 0 -126 8.5t-110.5 22.5t-89 31.5t-59.5 34.5zM617 1575l299 254q18 2 46.5 -2t58.5 -13.5t55.5 -22.5t37.5 -28v-41l-463 -186z" />
<glyph unicode="&#x15b;" horiz-adv-x="856" d="M14 37q10 53 24.5 103t59.5 93l185 -170q43 0 85 10.5t75.5 33t55 55.5t23.5 80q-2 49 -27.5 84.5t-65.5 68.5t-85 66t-85 72.5t-65.5 92t-25.5 126.5t28.5 129t79 92t121 56.5t154.5 19.5q53 0 119.5 -9.5t126.5 -44.5q0 -23 -8.5 -52.5t-21.5 -57t-29.5 -51 t-35.5 -31.5l-151 158q-43 -2 -80 -10.5t-64.5 -27t-43 -48t-15.5 -74.5q0 -53 26.5 -91t66.5 -72t86 -65.5t86 -71.5t67 -92.5t27 -123.5q0 -74 -34 -131.5t-92.5 -97.5t-135 -60.5t-162.5 -20.5t-157 17.5t-112 44.5zM473 1214l260 357q16 2 43 -1t55.5 -9.5t53 -15.5 t36.5 -19v-39l-403 -309z" />
<glyph unicode="&#x15c;" horiz-adv-x="1079" d="M45 72q8 37 23.5 87t34 101t37 99.5t34.5 82.5h53l21 -301q23 -18 76 -39.5t112 -19.5q68 -2 131.5 10t114.5 43t82 81t31 126q0 84 -40 141.5t-99.5 101.5t-128 84t-128 89t-99.5 115.5t-40 164.5q0 94 34 171t100.5 132.5t162.5 86t219 30.5q125 0 223.5 -19.5 t153.5 -47.5q-8 -35 -23.5 -81t-32 -95.5t-35 -95.5t-32.5 -81h-53l-25 281q-35 16 -89 24.5t-118 8.5q-61 0 -115.5 -14.5t-94 -44t-62 -74.5t-22.5 -107q0 -82 39.5 -136t99 -97t128 -83t128 -91.5t99.5 -124t40 -179.5q0 -96 -38 -173.5t-108.5 -134t-174 -87.5 t-234.5 -31q-66 0 -126 8.5t-110.5 22.5t-89 31.5t-59.5 34.5zM516 1579l343 229q10 8 28 9q16 0 25 -9l174 -223l-31 -43l-205 115l-305 -117z" />
<glyph unicode="&#x15d;" horiz-adv-x="856" d="M14 37q10 53 24.5 103t59.5 93l185 -170q43 0 85 10.5t75.5 33t55 55.5t23.5 80q-2 49 -27.5 84.5t-65.5 68.5t-85 66t-85 72.5t-65.5 92t-25.5 126.5t28.5 129t79 92t121 56.5t154.5 19.5q53 0 119.5 -9.5t126.5 -44.5q0 -23 -8.5 -52.5t-21.5 -57t-29.5 -51 t-35.5 -31.5l-151 158q-43 -2 -80 -10.5t-64.5 -27t-43 -48t-15.5 -74.5q0 -53 26.5 -91t66.5 -72t86 -65.5t86 -71.5t67 -92.5t27 -123.5q0 -74 -34 -131.5t-92.5 -97.5t-135 -60.5t-162.5 -20.5t-157 17.5t-112 44.5zM311 1241l309 381q10 8 27 8q16 0 25 -8l149 -379 l-55 -35l-160 219l-235 -219z" />
<glyph unicode="&#x15e;" horiz-adv-x="1079" d="M45 72q8 37 23.5 87t34 101t37 99.5t34.5 82.5h53l21 -301q23 -18 76 -39.5t112 -21.5q68 0 131.5 12t114.5 43t82 81t31 126q0 84 -40 141.5t-99.5 101.5t-128 84t-128 89t-99.5 115.5t-40 164.5q0 94 34 171t100.5 132.5t162.5 86t219 30.5q125 0 223.5 -19.5 t153.5 -47.5q-8 -35 -23.5 -81t-32 -95.5t-35 -95.5t-32.5 -81h-53l-25 281q-35 16 -89 24.5t-118 8.5q-61 0 -115.5 -14.5t-94 -44t-62 -74.5t-22.5 -107q0 -82 39.5 -136t99 -97t128 -83t128 -91.5t99.5 -124t40 -179.5q0 -92 -33.5 -167.5t-99.5 -131t-160 -87 t-215 -38.5l-76 -131q113 -2 151 -44t38 -105q0 -66 -42 -114t-104.5 -78.5t-134 -46t-131.5 -15.5v68q41 6 82 17t75 29.5t54.5 45t20.5 63.5q0 20 -6.5 37.5t-21.5 29t-43 18.5t-73 11l109 215q-113 6 -203 35t-127 60z" />
<glyph unicode="&#x15f;" horiz-adv-x="856" d="M14 37q10 53 24.5 103t59.5 93l185 -170q43 0 85 10.5t75.5 33t55 55.5t23.5 80q-2 49 -27.5 84.5t-65.5 68.5t-85 66t-85 72.5t-65.5 92t-25.5 126.5t28.5 129t79 92t121 56.5t154.5 19.5q53 0 119.5 -9.5t126.5 -44.5q0 -23 -8.5 -52.5t-21.5 -57t-29.5 -51 t-35.5 -31.5l-151 158q-43 -2 -80 -10.5t-64.5 -27t-43 -48t-15.5 -74.5q0 -53 26.5 -91t66.5 -72t86 -65.5t86 -71.5t67 -92.5t27 -123.5q0 -66 -28 -119t-76 -92t-112.5 -62.5t-138.5 -31.5l-69 -119q86 -4 123.5 -40t39.5 -95q2 -63 -35.5 -109.5t-94 -76t-123 -43 t-121.5 -11.5v61q39 6 77.5 17.5t68.5 28t48.5 40t16.5 52.5q0 18 -4.5 34.5t-17.5 29.5t-38.5 22.5t-66.5 13.5l102 190q-78 4 -142.5 20.5t-101.5 41.5z" />
<glyph unicode="&#x160;" horiz-adv-x="1079" d="M45 72q8 37 23.5 87t34 101t37 99.5t34.5 82.5h53l21 -301q23 -18 76 -39.5t112 -19.5q68 -2 131.5 10t114.5 43t82 81t31 126q0 84 -40 141.5t-99.5 101.5t-128 84t-128 89t-99.5 115.5t-40 164.5q0 94 34 171t100.5 132.5t162.5 86t219 30.5q125 0 223.5 -19.5 t153.5 -47.5q-8 -35 -23.5 -81t-32 -95.5t-35 -95.5t-32.5 -81h-53l-25 281q-35 16 -89 24.5t-118 8.5q-61 0 -115.5 -14.5t-94 -44t-62 -74.5t-22.5 -107q0 -82 39.5 -136t99 -97t128 -83t128 -91.5t99.5 -124t40 -179.5q0 -96 -38 -173.5t-108.5 -134t-174 -87.5 t-234.5 -31q-66 0 -126 8.5t-110.5 22.5t-89 31.5t-59.5 34.5zM590 1778q8 14 19 27.5t32 13.5l184 -113l283 113q16 0 30.5 -10.5t20.5 -24.5l-342 -230q-10 -6 -27 -6q-14 0 -26 6z" />
<glyph unicode="&#x161;" horiz-adv-x="856" d="M14 37q10 53 24.5 103t59.5 93l185 -170q43 0 85 10.5t75.5 33t55 55.5t23.5 80q-2 49 -27.5 84.5t-65.5 68.5t-85 66t-85 72.5t-65.5 92t-25.5 126.5t28.5 129t79 92t121 56.5t154.5 19.5q53 0 119.5 -9.5t126.5 -44.5q0 -23 -8.5 -52.5t-21.5 -57t-29.5 -51 t-35.5 -31.5l-151 158q-43 -2 -80 -10.5t-64.5 -27t-43 -48t-15.5 -74.5q0 -53 26.5 -91t66.5 -72t86 -65.5t86 -71.5t67 -92.5t27 -123.5q0 -74 -34 -131.5t-92.5 -97.5t-135 -60.5t-162.5 -20.5t-157 17.5t-112 44.5zM334 1595q8 16 28.5 26.5t41.5 8.5l157 -217l267 217 q18 2 35.5 -8t23.5 -25l-336 -378q-10 -6 -26 -7q-16 0 -25 7z" />
<glyph unicode="&#x162;" horiz-adv-x="1249" d="M180 1034q2 41 9.5 93.5t15.5 106.5t17 106.5t20 93.5h1188q-8 -41 -20.5 -92.5t-27 -105.5t-30 -106.5t-29.5 -95.5h-53l-43 293h-314l-258 -1218q49 -10 93.5 -20.5t82.5 -29.5l-10 -59h-241l-91 -154q113 -2 151 -44t38 -105q0 -66 -42 -114t-103.5 -78.5t-133 -46 t-131.5 -15.5v68q39 6 81 17t75 29.5t53.5 45t20.5 63.5q0 20 -6.5 37.5t-21.5 29t-42 18.5t-72 11l121 238h-231l10 59q49 18 97 29.5t106 20.5l258 1218h-314l-170 -293h-53z" />
<glyph unicode="&#x163;" horiz-adv-x="690" d="M70 -453q39 6 77.5 17.5t69.5 28t49.5 40t16.5 52.5q0 18 -5.5 34.5t-18.5 29.5t-37.5 22.5t-65.5 13.5l102 192q-70 10 -108.5 50.5t-38.5 115.5q0 29 5 64t13 72l135 643h-155l2 53q41 23 87 41t91 28l33 156q29 23 66.5 40t78.5 34l43 -25l-49 -225h254q4 -25 0 -51.5 t-21 -50.5h-254l-129 -594q-8 -39 -12 -69t-4 -54q0 -53 30.5 -78t67.5 -25q51 0 109.5 19.5t107.5 44.5l23 -37q-35 -47 -116 -91t-167 -58l-67 -119q86 -4 122.5 -40t40.5 -95q2 -63 -35.5 -109.5t-95 -76t-124 -43t-121.5 -11.5v61z" />
<glyph unicode="&#x164;" horiz-adv-x="1249" d="M180 1034q2 41 9.5 93.5t15.5 106.5t17 106.5t20 93.5h1188q-8 -41 -20.5 -92.5t-27 -105.5t-30 -106.5t-29.5 -95.5h-53l-43 293h-314l-258 -1218q49 -10 93.5 -20.5t82.5 -29.5l-10 -59h-575l10 59q49 18 97 29.5t106 20.5l258 1218h-314l-170 -293h-53zM656 1778 q8 14 19 27.5t32 13.5l184 -113l283 113q16 0 30.5 -10.5t20.5 -24.5l-342 -230q-10 -6 -27 -6q-14 0 -26 6z" />
<glyph unicode="&#x165;" horiz-adv-x="690" d="M109 922l2 53q41 23 87 41t91 28l33 156q29 23 66.5 40t78.5 34l43 -25l-49 -225h254q4 -25 0 -51.5t-21 -50.5h-254l-129 -594q-8 -39 -12 -69t-4 -54q0 -53 30.5 -78t67.5 -25q51 0 109.5 19.5t107.5 44.5l23 -37q-18 -27 -55 -53.5t-83 -49t-96.5 -37t-95.5 -14.5 q-90 0 -141 41t-51 127q0 29 5 64t13 72l135 643h-155zM557 1114q53 96 91 201.5t38 189.5l25 33q14 2 37.5 -1t48 -10t47 -16.5t35.5 -19.5q-10 -57 -40 -114.5t-71 -111t-86 -98.5t-84 -75z" />
<glyph unicode="&#x16a;" horiz-adv-x="1363" d="M188.5 292q-14.5 95 10.5 206l176 825q-41 8 -84 21.5t-74 29.5l12 60h521l-13 -60q-80 -35 -166 -51l-174 -813q-23 -109 -12.5 -185.5t49.5 -125.5t102.5 -72t147.5 -23q166 0 265.5 92.5t140.5 290.5l174 818q-90 31 -148 69l12 60h439l-15 -60q-35 -23 -82 -41 t-92 -28l-174 -822q-57 -268 -201.5 -384.5t-371.5 -116.5q-135 0 -228.5 38.5t-146.5 107.5t-67.5 164zM629 1614l21 106h618l-22 -106h-617z" />
<glyph unicode="&#x16b;" horiz-adv-x="1110" d="M109 168q0 45 14 133t34.5 192.5t44 214t42.5 197.5l-125 19v51q33 12 70.5 24.5t75.5 22.5t73 17.5t63 9.5l45 -25q-33 -154 -66.5 -292t-62.5 -292q-10 -49 -21 -109.5t-11 -131.5q0 -43 23.5 -70t53.5 -27q45 0 90.5 27t85.5 70t75.5 95t64.5 103.5t48 95.5t30 70 l90 461h170l-168 -911h151v-52q-41 -33 -99 -53t-114 -20q-59 0 -84.5 24.5t-25.5 53.5q0 37 10 123.5t45 211.5h-8q-27 -57 -67 -130.5t-95 -139t-125.5 -111t-156.5 -45.5q-72 0 -121 50.5t-49 142.5zM440 1305l20 106h521l-23 -106h-518z" />
<glyph unicode="&#x16c;" horiz-adv-x="1363" d="M188.5 292q-14.5 95 10.5 206l176 825q-41 8 -84 21.5t-74 29.5l12 60h521l-13 -60q-80 -35 -166 -51l-174 -813q-23 -109 -12.5 -185.5t49.5 -125.5t102.5 -72t147.5 -23q166 0 265.5 92.5t140.5 290.5l174 818q-90 31 -148 69l12 60h439l-15 -60q-35 -23 -82 -41 t-92 -28l-174 -822q-57 -268 -201.5 -384.5t-371.5 -116.5q-135 0 -228.5 38.5t-146.5 107.5t-67.5 164zM674 1784q25 39 86 31q16 -49 69 -82t117 -35q90 -2 162 28.5t119 81.5q33 4 65 -28q-16 -37 -56 -77t-91.5 -73t-108.5 -54.5t-108 -21.5q-111 0 -174.5 60.5 t-79.5 169.5z" />
<glyph unicode="&#x16d;" horiz-adv-x="1110" d="M109 168q0 45 14 133t34.5 192.5t44 214t42.5 197.5l-125 19v51q33 12 70.5 24.5t75.5 22.5t73 17.5t63 9.5l45 -25q-33 -154 -66.5 -292t-62.5 -292q-10 -49 -21 -109.5t-11 -131.5q0 -43 23.5 -70t53.5 -27q45 0 90.5 27t85.5 70t75.5 95t64.5 103.5t48 95.5t30 70 l90 461h170l-168 -911h151v-52q-41 -33 -99 -53t-114 -20q-59 0 -84.5 24.5t-25.5 53.5q0 37 10 123.5t45 211.5h-8q-27 -57 -67 -130.5t-95 -139t-125.5 -111t-156.5 -45.5q-72 0 -121 50.5t-49 142.5zM450 1477l58 26q23 -51 74 -91t112 -42q33 0 71 7t73.5 22.5t67.5 40 t52 55.5l50 -22q-18 -47 -50 -91.5t-74 -80t-91.5 -57t-100.5 -21.5q-111 0 -171 71.5t-71 182.5z" />
<glyph unicode="&#x16e;" horiz-adv-x="1363" d="M188.5 292q-14.5 95 10.5 206l176 825q-41 8 -84 21.5t-74 29.5l12 60h521l-13 -60q-80 -35 -166 -51l-174 -813q-23 -109 -12.5 -185.5t49.5 -125.5t102.5 -72t147.5 -23q166 0 265.5 92.5t140.5 290.5l174 818q-90 31 -148 69l12 60h439l-15 -60q-35 -23 -82 -41 t-92 -28l-174 -822q-57 -268 -201.5 -384.5t-371.5 -116.5q-135 0 -228.5 38.5t-146.5 107.5t-67.5 164zM729 1593q0 41 23 77t59.5 62.5t86 42t104.5 15.5q33 0 66.5 -6t60 -23.5t43 -46t16.5 -72.5q0 -41 -21.5 -75.5t-58 -60t-84 -40t-98.5 -14.5q-92 0 -144.5 34.5 t-52.5 106.5zM844 1599q0 -35 26.5 -49t63.5 -14q61 0 100.5 27.5t39.5 68.5t-28 57.5t-67 16.5q-57 0 -96 -30t-39 -77z" />
<glyph unicode="&#x16f;" horiz-adv-x="1110" d="M109 168q0 45 14 133t34.5 192.5t44 214t42.5 197.5l-125 19v51q33 12 70.5 24.5t75.5 22.5t73 17.5t63 9.5l45 -25q-33 -154 -66.5 -292t-62.5 -292q-10 -49 -21 -109.5t-11 -131.5q0 -43 23.5 -70t53.5 -27q45 0 90.5 27t85.5 70t75.5 95t64.5 103.5t48 95.5t30 70 l90 461h170l-168 -911h151v-52q-41 -33 -99 -53t-114 -20q-59 0 -84.5 24.5t-25.5 53.5q0 37 10 123.5t45 211.5h-8q-27 -57 -67 -130.5t-95 -139t-125.5 -111t-156.5 -45.5q-72 0 -121 50.5t-49 142.5zM512 1364q0 47 16.5 90t47.5 75t74 50t96 18q78 0 121 -43t43 -110 q0 -49 -18.5 -91t-49.5 -73t-73 -48.5t-89 -17.5q-78 0 -123 39t-45 111zM619 1372q0 -37 21.5 -55.5t47.5 -18.5q39 0 76 38t37 110q0 68 -59 67q-63 0 -93 -46t-30 -95z" />
<glyph unicode="&#x170;" horiz-adv-x="1363" d="M188.5 292q-14.5 95 10.5 206l176 825q-41 8 -84 21.5t-74 29.5l12 60h521l-13 -60q-80 -35 -166 -51l-174 -813q-23 -109 -12.5 -185.5t49.5 -125.5t102.5 -72t147.5 -23q166 0 265.5 92.5t140.5 290.5l174 818q-90 31 -148 69l12 60h439l-15 -60q-35 -23 -82 -41 t-92 -28l-174 -822q-57 -268 -201.5 -384.5t-371.5 -116.5q-135 0 -228.5 38.5t-146.5 107.5t-67.5 164zM701 1589l143 230q12 2 36.5 -2.5t51.5 -10.5t48.5 -16t27.5 -21v-28l-268 -189zM965 1585l235 234q14 2 39 -2.5t51.5 -12.5t49 -18t32.5 -23l-2 -20l-362 -195z" />
<glyph unicode="&#x171;" horiz-adv-x="1110" d="M109 168q0 45 14 133t34.5 192.5t44 214t42.5 197.5l-125 19v51q33 12 70.5 24.5t75.5 22.5t73 17.5t63 9.5l45 -25q-33 -154 -66.5 -292t-62.5 -292q-10 -49 -21 -109.5t-11 -131.5q0 -43 23.5 -70t53.5 -27q45 0 90.5 27t85.5 70t75.5 95t64.5 103.5t48 95.5t30 70 l90 461h170l-168 -911h151v-52q-41 -33 -99 -53t-114 -20q-59 0 -84.5 24.5t-25.5 53.5q0 37 10 123.5t45 211.5h-8q-27 -57 -67 -130.5t-95 -139t-125.5 -111t-156.5 -45.5q-72 0 -121 50.5t-49 142.5zM473 1257l158 316q12 2 38.5 -1t54 -9.5t50.5 -15.5t29 -17v-31 l-283 -274zM713 1262l272 311q14 2 39.5 -1t51.5 -11.5t49.5 -19.5t33.5 -25v-27l-408 -264z" />
<glyph unicode="&#x172;" horiz-adv-x="1363" d="M188.5 292q-14.5 95 10.5 206l176 825q-41 8 -84 21.5t-74 29.5l12 60h521l-13 -60q-80 -35 -166 -51l-174 -813q-23 -109 -12.5 -185.5t49.5 -125.5t102.5 -72t147.5 -23q166 0 265.5 92.5t140.5 290.5l174 818q-90 31 -148 69l12 60h439l-15 -60q-35 -23 -82 -41 t-92 -28l-174 -822q-43 -203 -136 -317.5t-234 -157.5q-49 -23 -93.5 -53.5t-78 -66t-54 -77.5t-20.5 -87q0 -57 37 -94.5t102 -37.5q63 0 113 13v-60q-29 -23 -74 -41t-113 -18q-47 0 -89 14.5t-74.5 41t-51 64.5t-18.5 83q0 96 67.5 167.5t176.5 127.5q-8 0 -15.5 -1 t-17.5 -1q-135 0 -228.5 38.5t-146.5 107.5t-67.5 164z" />
<glyph unicode="&#x173;" horiz-adv-x="1110" d="M109 168q0 45 14 133t34.5 192.5t44 214t42.5 197.5l-125 19v51q33 12 70.5 24.5t75.5 22.5t73 17.5t63 9.5l45 -25q-33 -154 -66.5 -292t-62.5 -292q-10 -49 -21 -109.5t-11 -131.5q0 -43 23.5 -70t53.5 -27q45 0 90.5 27t85.5 70t75.5 95t64.5 103.5t48 95.5t30 70 l90 461h170l-168 -909h151v-54q-23 -16 -46 -28.5t-50 -22.5q-31 -18 -63.5 -43.5t-59 -57.5t-44 -70t-17.5 -81q0 -53 28.5 -88t94.5 -37q23 0 40 5.5t46 13.5v-64q-31 -16 -75 -29.5t-81 -13.5q-121 0 -173 51.5t-52 129.5q0 90 57.5 152.5t165.5 109.5q-51 4 -72.5 27.5 t-21.5 50.5q0 37 10 123.5t45 211.5h-8q-27 -57 -67 -130.5t-95 -139t-125.5 -111t-156.5 -45.5q-72 0 -121 50.5t-49 142.5z" />
<glyph unicode="&#x178;" horiz-adv-x="1300" d="M188 1374l15 60h540l-12 -60q-33 -12 -74 -26.5t-94 -24.5l207 -602l434 602q-43 10 -81 22.5t-70 28.5l12 60h457l-15 -60q-41 -20 -82 -31.5t-82 -19.5l-538 -713l-107 -501q76 -10 144 -50l-11 -59h-520l11 59q82 37 180 50l106 499l-264 715q-45 8 -83 21.5t-73 29.5 zM564 1616q0 49 33.5 73.5t82.5 24.5q51 0 84 -24.5t33 -73.5q0 -47 -33 -71.5t-84 -24.5q-49 0 -82.5 24.5t-33.5 71.5zM1020 1616q0 49 33 73.5t84 24.5q49 0 82 -24.5t35 -73.5q-2 -47 -35 -71.5t-82 -24.5q-51 0 -84 24.5t-33 71.5z" />
<glyph unicode="&#x179;" horiz-adv-x="1234" d="M10 0v104l1077 1223h-595l-187 -287h-53q2 43 9 94.5t15.5 104.5t17.5 103.5t19 91.5h1018v-107l-1077 -1221h643l186 287h54q-4 -43 -10.5 -94t-14.5 -103.5t-17.5 -103.5t-19.5 -92h-1065zM727 1575l299 254q18 2 46.5 -2t58.5 -13.5t55.5 -22.5t37.5 -28v-41 l-463 -186z" />
<glyph unicode="&#x17a;" horiz-adv-x="892" d="M-49 55l287 314l450 497q-92 -6 -199.5 3.5t-222.5 27.5l-94 -147l-51 12l29 209q12 80 110 80q74 0 214 -21.5t335 -32.5l47 52q27 -4 50.5 -20.5t27.5 -45.5l-705 -776q121 -23 236 -60.5t213 -91.5l119 135l49 -28l-72 -209q-10 -31 -36.5 -51.5t-65.5 -20.5 t-96.5 25.5t-130 58.5t-156.5 65.5t-176 47.5l-84 -90q-27 4 -51.5 20.5t-26.5 46.5zM490 1214l260 357q16 2 43 -1t55.5 -9.5t53 -15.5t36.5 -19v-39l-403 -309z" />
<glyph unicode="&#x17b;" horiz-adv-x="1234" d="M10 0v104l1077 1223h-595l-187 -287h-53q2 43 9 94.5t15.5 104.5t17.5 103.5t19 91.5h1018v-107l-1077 -1221h643l186 287h54q-4 -43 -10.5 -94t-14.5 -103.5t-17.5 -103.5t-19.5 -92h-1065zM701 1673q0 53 39 82t94 29t92 -29t37 -82t-37 -81.5t-92 -28.5t-94 28.5 t-39 81.5z" />
<glyph unicode="&#x17c;" horiz-adv-x="892" d="M-49 55l287 314l450 497q-92 -6 -199.5 3.5t-222.5 27.5l-94 -147l-51 12l29 209q12 80 110 80q74 0 214 -21.5t335 -32.5l47 52q27 -4 50.5 -20.5t27.5 -45.5l-705 -776q121 -23 236 -60.5t213 -91.5l119 135l49 -28l-72 -209q-10 -31 -36.5 -51.5t-65.5 -20.5 t-96.5 25.5t-130 58.5t-156.5 65.5t-176 47.5l-84 -90q-27 4 -51.5 20.5t-26.5 46.5zM459 1378q0 53 33 84t86 31q57 0 90 -30.5t33 -84.5q0 -51 -33 -79.5t-90 -28.5q-53 0 -86 28.5t-33 79.5z" />
<glyph unicode="&#x17d;" horiz-adv-x="1234" d="M10 0v104l1077 1223h-595l-187 -287h-53q2 43 9 94.5t15.5 104.5t17.5 103.5t19 91.5h1018v-107l-1077 -1221h643l186 287h54q-4 -43 -10.5 -94t-14.5 -103.5t-17.5 -103.5t-19.5 -92h-1065zM609 1778q8 14 19 27.5t32 13.5l184 -113l283 113q16 0 30.5 -10.5t20.5 -24.5 l-342 -230q-10 -6 -27 -6q-14 0 -26 6z" />
<glyph unicode="&#x17e;" horiz-adv-x="892" d="M-49 55l287 314l450 497q-92 -6 -199.5 3.5t-222.5 27.5l-94 -147l-51 12l29 209q12 80 110 80q74 0 214 -21.5t335 -32.5l47 52q27 -4 50.5 -20.5t27.5 -45.5l-705 -776q121 -23 236 -60.5t213 -91.5l119 135l49 -28l-72 -209q-10 -31 -36.5 -51.5t-65.5 -20.5 t-96.5 25.5t-130 58.5t-156.5 65.5t-176 47.5l-84 -90q-27 4 -51.5 20.5t-26.5 46.5zM369 1595q8 16 28.5 26.5t41.5 8.5l157 -217l267 217q18 2 35.5 -8t23.5 -25l-336 -378q-10 -6 -26 -7q-16 0 -25 7z" />
<glyph unicode="&#x17f;" horiz-adv-x="608" d="M-106 -389q25 12 59.5 44t68 85t63.5 130t46 179l133 873h-149v53q41 23 87 40t87 27l14 72q27 127 73 210t107.5 131t135 66.5t157.5 18.5q35 0 83 -8t81 -25q-4 -45 -21.5 -93t-58.5 -83l-155 127q-37 -10 -68 -22.5t-58.5 -46t-52 -95t-47.5 -168.5l-172 -1038 q-23 -145 -76 -241.5t-113.5 -156t-117.5 -88t-88 -36.5z" />
<glyph unicode="&#x192;" d="M18 -395q25 12 59 45t67.5 87t63.5 132t46 180l131 873h-147v53q41 23 87 40t87 27l14 72q27 127 73 210t106.5 131t134 66.5t157.5 18.5q35 0 83 -8t81 -25q-4 -45 -21.5 -93t-58.5 -83l-154 127q-37 -10 -68.5 -22.5t-59 -46t-52 -95t-47.5 -168.5l-20 -102h227 q10 -51 -21 -102h-227l-129 -834q-23 -145 -76 -241.5t-113.5 -156t-117.5 -88t-88 -36.5z" />
<glyph unicode="&#x1f4;" horiz-adv-x="1390" d="M135 530q0 207 58.5 378t169 293t269.5 189.5t359 67.5q135 0 231.5 -17.5t159.5 -51.5q-6 -31 -17 -76t-26.5 -94.5t-32 -97.5t-30.5 -85h-53l-43 295q-37 10 -92.5 15.5t-106.5 5.5q-158 0 -275.5 -64.5t-195.5 -175.5t-117 -259t-39 -318q0 -145 41 -234.5 t101.5 -138.5t129 -65.5t126.5 -14.5q82 -2 151.5 24.5t95.5 47.5l91 413q-53 4 -98.5 18.5t-88.5 30.5l15 60h501l-12 -60q-23 -14 -55.5 -26t-83.5 -23l-99 -469q-45 -27 -102 -49t-117.5 -38.5t-121 -26t-111.5 -9.5q-272 0 -427 144.5t-155 410.5zM850 1575l299 254 q18 2 46.5 -2t58.5 -13.5t55.5 -22.5t37.5 -28v-41l-463 -186z" />
<glyph unicode="&#x1f5;" horiz-adv-x="1001" d="M-113 -195q0 57 26 106.5t69 93.5t98 81t115 70q-31 16 -50.5 43.5t-19.5 62.5q0 31 20.5 64.5t48 64.5t55 53.5t42.5 32.5q-25 6 -50.5 22.5t-48 43t-37 61.5t-14.5 78q0 80 34 147.5t93.5 115.5t137 76t167.5 28q98 0 161 -25t97 -53q18 16 49 32.5t66 31t72 26.5 t69 22q6 -10 10.5 -30.5t3.5 -45t-8.5 -50t-21.5 -46.5l-211 15q6 -18 12.5 -42t6.5 -53q0 -82 -34 -151.5t-93.5 -119.5t-138 -78.5t-167.5 -28.5q-35 0 -56 1t-48 7q-18 -20 -50 -48t-32 -61q0 -35 45 -53t113.5 -33.5t148.5 -33t148.5 -47t113.5 -77t45 -124.5 q0 -96 -54 -173t-143 -131.5t-203 -84t-230 -29.5q-94 0 -162 19.5t-111 53t-63.5 76.5t-20.5 90zM72 -150q-2 -92 70.5 -144t195.5 -52q63 0 125.5 18.5t113 52t82 84t31.5 113.5q0 61 -50 95t-122 54.5t-148.5 34t-131.5 31.5q-96 -70 -132 -145.5t-34 -141.5zM307 686 q0 -78 50.5 -114.5t107.5 -36.5q61 0 105 21.5t74 58t44 83.5t14 99q0 76 -35.5 123t-109.5 47q-59 0 -105 -22.5t-79 -60.5t-49.5 -89.5t-16.5 -108.5zM547 1214l260 357q16 2 43 -1t55.5 -9.5t53 -15.5t36.5 -19v-39l-403 -309z" />
<glyph unicode="&#x218;" horiz-adv-x="1079" d="M45 72q8 37 23.5 87t34 101t37 99.5t34.5 82.5h53l21 -301q23 -18 76 -39.5t112 -19.5q68 -2 131.5 10t114.5 43t82 81t31 126q0 84 -40 141.5t-99.5 101.5t-128 84t-128 89t-99.5 115.5t-40 164.5q0 94 34 171t100.5 132.5t162.5 86t219 30.5q125 0 223.5 -19.5 t153.5 -47.5q-8 -35 -23.5 -81t-32 -95.5t-35 -95.5t-32.5 -81h-53l-25 281q-35 16 -89 24.5t-118 8.5q-61 0 -115.5 -14.5t-94 -44t-62 -74.5t-22.5 -107q0 -82 39.5 -136t99 -97t128 -83t128 -91.5t99.5 -124t40 -179.5q0 -96 -38 -173.5t-108.5 -134t-174 -87.5 t-234.5 -31q-66 0 -126 8.5t-110.5 22.5t-89 31.5t-59.5 34.5zM186 -485q82 23 130.5 61.5t58.5 104.5q-18 20 -50 41.5t-59 29.5q-2 29 15.5 56.5t42 48t53 34t49.5 13.5q66 -4 114 -44t48 -106q0 -57 -29 -109.5t-78 -93t-117.5 -69.5t-148.5 -39z" />
<glyph unicode="&#x219;" horiz-adv-x="856" d="M14 37q10 53 24.5 103t59.5 93l185 -170q43 0 85 10.5t75.5 33t55 55.5t23.5 80q-2 49 -27.5 84.5t-65.5 68.5t-85 66t-85 72.5t-65.5 92t-25.5 126.5t28.5 129t79 92t121 56.5t154.5 19.5q53 0 119.5 -9.5t126.5 -44.5q0 -23 -8.5 -52.5t-21.5 -57t-29.5 -51 t-35.5 -31.5l-151 158q-43 -2 -80 -10.5t-64.5 -27t-43 -48t-15.5 -74.5q0 -53 26.5 -91t66.5 -72t86 -65.5t86 -71.5t67 -92.5t27 -123.5q0 -74 -34 -131.5t-92.5 -97.5t-135 -60.5t-162.5 -20.5t-157 17.5t-112 44.5zM67 -473q162 45 177 164q-16 20 -47 39.5t-58 27.5 q-2 29 13.5 54.5t39 46t49 33t46.5 12.5q61 -4 96 -41t35 -103q0 -53 -25 -101t-68 -88t-103 -67.5t-132 -38.5z" />
<glyph unicode="&#x21a;" horiz-adv-x="1249" d="M180 1034q2 41 9.5 93.5t15.5 106.5t17 106.5t20 93.5h1188q-8 -41 -20.5 -92.5t-27 -105.5t-30 -106.5t-29.5 -95.5h-53l-43 293h-314l-258 -1218q49 -10 93.5 -20.5t82.5 -29.5l-10 -59h-575l10 59q49 18 97 29.5t106 20.5l258 1218h-314l-170 -293h-53zM274 -485 q82 23 130.5 61.5t58.5 104.5q-18 20 -50 41.5t-59 29.5q-2 29 15.5 56.5t42 48t53 34t49.5 13.5q66 -4 114 -44t48 -106q0 -57 -29 -109.5t-78 -93t-117.5 -69.5t-148.5 -39z" />
<glyph unicode="&#x21b;" horiz-adv-x="690" d="M67 -473q162 45 177 164q-16 20 -47 39.5t-58 27.5q-2 29 13.5 54.5t39 46t49 33t46.5 12.5q61 -4 96 -41t35 -103q0 -53 -25 -101t-68 -88t-103 -67.5t-132 -38.5zM109 922l2 53q41 23 87 41t91 28l33 156q29 23 66.5 40t78.5 34l43 -25l-49 -225h254q4 -25 0 -51.5 t-21 -50.5h-254l-129 -594q-8 -39 -12 -69t-4 -54q0 -53 30.5 -78t67.5 -25q51 0 109.5 19.5t107.5 44.5l23 -37q-18 -27 -55 -53.5t-83 -49t-96.5 -37t-95.5 -14.5q-90 0 -141 41t-51 127q0 29 5 64t13 72l135 643h-155z" />
<glyph unicode="&#x2c6;" horiz-adv-x="903" d="M393 1241l309 381q10 8 27 8q16 0 25 -8l149 -379l-55 -35l-160 219l-235 -219z" />
<glyph unicode="&#x2c7;" horiz-adv-x="798" d="M430 1595q8 16 28.5 26.5t41.5 8.5l157 -217l267 217q18 2 35.5 -8t23.5 -25l-336 -378q-10 -6 -26 -7q-16 0 -25 7z" />
<glyph unicode="&#x2d8;" horiz-adv-x="1044" d="M489 1477l58 26q23 -51 74 -91t112 -42q33 0 71 7t73.5 22.5t67.5 40t52 55.5l50 -22q-18 -47 -50 -91.5t-74 -80t-91.5 -57t-100.5 -21.5q-111 0 -171 71.5t-71 182.5z" />
<glyph unicode="&#x2d9;" horiz-adv-x="612" d="M428 1378q0 53 33 84t86 31q57 0 90 -30.5t33 -84.5q0 -51 -33 -79.5t-90 -28.5q-53 0 -86 28.5t-33 79.5z" />
<glyph unicode="&#x2da;" horiz-adv-x="958" d="M483 1364q0 47 16.5 90t47.5 75t74 50t96 18q78 0 121 -43t43 -110q0 -49 -18.5 -91t-49.5 -73t-73 -48.5t-89 -17.5q-78 0 -123 39t-45 111zM590 1372q0 -37 21.5 -55.5t47.5 -18.5q39 0 76 38t37 110q0 68 -59 67q-63 0 -93 -46t-30 -95z" />
<glyph unicode="&#x2db;" horiz-adv-x="911" d="M207 -274q0 113 92 185.5t258 121.5l51 -2q-35 -12 -74.5 -39t-74.5 -61.5t-58.5 -79t-23.5 -93.5q0 -53 29.5 -88t95.5 -37q23 0 39 5.5t45 13.5v-64q-29 -16 -73 -29.5t-81 -13.5q-123 0 -174 51.5t-51 129.5z" />
<glyph unicode="&#x2dc;" horiz-adv-x="884" d="M256 1337q76 72 135.5 96.5t106.5 24.5q37 0 68.5 -10t60 -22.5t58.5 -22.5t60 -10q27 0 53.5 9t59.5 32l27 -58q-66 -66 -120 -91t-101 -25q-37 0 -70 11t-63.5 23.5t-60.5 23.5t-60 11q-27 0 -54.5 -10t-60.5 -39z" />
<glyph unicode="&#x2dd;" horiz-adv-x="1275" d="M510 1257l158 316q12 2 38.5 -1t54 -9.5t50.5 -15.5t29 -17v-31l-283 -274zM750 1262l272 311q14 2 39.5 -1t51.5 -11.5t49.5 -19.5t33.5 -25v-27l-408 -264z" />
<glyph unicode="&#x3a9;" horiz-adv-x="1632" d="M117 0q0 37 2 87t5 104.5t7 107.5t8 98h51l91 -241h325q-90 33 -172 89t-144.5 134t-99 177t-36.5 216q0 156 47 282t135 216t214 139t281 49q160 0 281 -47t204 -135t125 -211t42 -272q0 -127 -40 -231.5t-103.5 -185.5t-141.5 -136.5t-154 -83.5h306l92 241h51 q4 -45 8 -98t7 -107.5t5.5 -104.5t2.5 -87h-578v170q49 20 106.5 69.5t106.5 125t82 177t31 228.5q2 119 -25 225.5t-81 185.5t-135 125t-192 46q-123 0 -211 -45t-143 -122t-80.5 -178.5t-23.5 -213.5q-2 -127 32.5 -232.5t87 -186.5t113 -133.5t109.5 -70.5v-170h-598z " />
<glyph unicode="&#x3c0;" horiz-adv-x="1259" d="M39 16q61 70 120.5 178.5t111 231.5t91 247t60.5 224h-35q-119 -2 -237 -123l-23 17q23 51 48.5 96t64.5 78.5t95 53t138 17.5q23 0 83 -2t140 -4t172.5 -4t175.5 -2q66 0 110 1t76 7t54.5 16.5t46.5 28.5l23 -18q-20 -66 -76.5 -115t-144.5 -47h-25l-164 -778l131 -17 l-8 -43q-66 -27 -147.5 -47t-149.5 -30h-51l192 915h-391l-82 -391q-14 -66 -34.5 -135.5t-45 -136t-52 -127t-56.5 -107.5q-16 -8 -40 -10t-50 -2q-43 0 -79 4t-34 8z" />
<glyph unicode="&#x1e30;" horiz-adv-x="1304" d="M-41 0l10 59q92 37 181 50l256 1214q-45 8 -85 20.5t-73 30.5l14 60h518l-12 -60q-70 -33 -166 -51l-119 -567l123 28l492 539q-41 10 -74 21.5t-63 29.5l14 60h465l-15 -60q-37 -18 -82 -30.5t-83 -20.5l-531 -553q37 -68 85 -149.5t102.5 -170t112.5 -178.5t116 -172 l88 -49l-10 -51h-248l-60 49q-92 141 -178 305t-162 332h-108l-121 -577q84 -16 141 -50l-10 -59h-518zM770 1575l299 254q18 2 46.5 -2t58.5 -13.5t55.5 -22.5t37.5 -28v-41l-463 -186z" />
<glyph unicode="&#x1e31;" horiz-adv-x="985" d="M70 0l278 1397l-143 18v51q59 27 144 48.5t157 25.5l43 -22l-193 -957h60q43 27 89 66t88 80t74.5 78.5t51.5 64.5q2 14 3 38.5t0 50.5t-2 49.5t-3 35.5q76 27 147 27q74 0 123 -27q-27 -68 -82 -135.5t-118.5 -125.5t-125 -106.5t-98.5 -74.5q14 -39 46 -101.5t70 -130 t80 -131t77 -104.5h129v-54q-41 -33 -89.5 -53t-101.5 -20q-49 0 -88 22.5t-74 81.5q-66 111 -110.5 210t-85.5 185l-74 21l-96 -508h-176zM602 1214l260 357q16 2 43 -1t55.5 -9.5t53 -15.5t36.5 -19v-39l-403 -309z" />
<glyph unicode="&#x1e3e;" horiz-adv-x="1755" d="M-41 0l10 59q82 35 178 52l256 1212q-41 8 -81.5 21.5t-75.5 29.5l12 60h426l145 -936l25 -211h2l107 215l577 932h377l-14 -60q-80 -35 -166 -51l-258 -1217q41 -8 77.5 -19t65.5 -28l-10 -59h-508l10 59q45 16 88 27.5t90 22.5l193 921l61 240h-16l-111 -219 l-647 -1051h-53l-178 1051l-23 239h-18l-54 -260l-194 -921q37 -8 73.5 -20.5t71.5 -29.5l-12 -59h-426zM936 1575l299 254q18 2 46.5 -2t58.5 -13.5t55.5 -22.5t37.5 -28v-41l-463 -186z" />
<glyph unicode="&#x1e3f;" horiz-adv-x="1638" d="M88 0l191 905l-125 19v51q68 35 146.5 54.5t135.5 19.5l43 -25l-90 -362h8q25 57 69 124.5t101.5 126t123 97.5t130.5 39q25 0 49.5 -8.5t43 -30t30.5 -58.5t12 -94q0 -45 -9 -96t-21 -100q31 70 78 138t102 123.5t117.5 90.5t128.5 35q78 0 117.5 -49.5t39.5 -135.5 q0 -66 -12 -124t-27 -126l-133 -499h152v-54q-41 -33 -100.5 -53t-112.5 -20q-59 0 -82 26.5t-23 63.5q0 59 29 164l96 372q12 49 23.5 102.5t13.5 88.5q-2 53 -17.5 85t-62.5 32q-49 0 -100 -39t-97 -98.5t-84 -129t-63 -131.5l-125 -524h-163l129 575q14 63 24 122t10 122 q0 47 -16 75t-57 28t-90.5 -39t-96.5 -98.5t-87 -129t-64 -133.5l-109 -522h-176zM891 1214l260 357q16 2 43 -1t55.5 -9.5t53 -15.5t36.5 -19v-39l-403 -309z" />
<glyph unicode="&#x1e54;" horiz-adv-x="1198" d="M-41 0l10 59q47 20 91 30.5t90 19.5l256 1214q-45 8 -84 21.5t-74 29.5l14 60h184q82 0 179.5 8t185.5 8q98 0 181 -19.5t141.5 -61.5t91 -104.5t32.5 -148.5q0 -121 -44 -223t-126.5 -178t-199.5 -119t-260 -43h-34t-51.5 1t-55 3t-46.5 4l-94 -452q53 -6 99.5 -19.5 t84.5 -30.5l-10 -59h-561zM465 670q10 -2 29.5 -4t41 -3t41 -2.5t31.5 -1.5q213 0 321.5 122t108.5 333q0 51 -11 93t-43 73t-86 47t-140 16q-49 0 -87 -3t-67 -7zM668 1575l299 254q18 2 46.5 -2t58.5 -13.5t55.5 -22.5t37.5 -28v-41l-463 -186z" />
<glyph unicode="&#x1e55;" horiz-adv-x="1110" d="M2 -391l88 407l191 889l-125 19v51q68 29 142.5 51.5t139.5 22.5l41 -25l-84 -360h8q37 82 81 151.5t95.5 121.5t111 82t126.5 30q45 0 86 -17.5t72 -53.5t48 -89t17 -123q0 -158 -47 -301t-128 -252t-189.5 -173.5t-233.5 -64.5q-35 0 -59.5 2.5t-42.5 7.5t-35.5 13 t-38.5 18l-67 -315q72 -12 143 -51v-60h-322zM287 111q29 -25 60.5 -36.5t101.5 -11.5q82 0 154.5 60.5t126.5 155t86 210t32 228.5q0 98 -34 151.5t-93 53.5t-112.5 -46.5t-99.5 -112t-83 -138t-59 -127.5zM565 1214l260 357q16 2 43 -1t55.5 -9.5t53 -15.5t36.5 -19v-39 l-403 -309z" />
<glyph unicode="&#x1e9e;" horiz-adv-x="1288" d="M-41 0l12 63q76 39 146 52l194 917q27 127 85.5 210t132 131t158.5 66.5t167 18.5q106 0 181 -24.5t121 -63.5t69.5 -86t29.5 -92l-460 -346q96 -25 174 -69t133 -103.5t85 -131t30 -147.5q0 -86 -26 -161.5t-84 -133t-151.5 -91.5t-226.5 -34q-172 0 -319 60 q14 51 38.5 103t49.5 87h51l104 -127q20 -10 44 -13t53 -3q80 0 132 24.5t82.5 63.5t43 86t12.5 90q0 141 -106.5 237.5t-317.5 139.5l18 98l443 361q-16 78 -68.5 124t-138.5 46q-63 0 -117.5 -16.5t-98.5 -56.5t-78 -108.5t-56 -175.5l-211 -995h-330z" />
<glyph unicode="&#x2000;" horiz-adv-x="924" />
<glyph unicode="&#x2001;" horiz-adv-x="1849" />
<glyph unicode="&#x2002;" horiz-adv-x="924" />
<glyph unicode="&#x2003;" horiz-adv-x="1849" />
<glyph unicode="&#x2004;" horiz-adv-x="616" />
<glyph unicode="&#x2005;" horiz-adv-x="462" />
<glyph unicode="&#x2006;" horiz-adv-x="308" />
<glyph unicode="&#x2007;" horiz-adv-x="308" />
<glyph unicode="&#x2008;" horiz-adv-x="231" />
<glyph unicode="&#x2009;" horiz-adv-x="369" />
<glyph unicode="&#x200a;" horiz-adv-x="102" />
<glyph unicode="&#x2010;" horiz-adv-x="870" d="M145 512l29 129h578l-27 -129h-580z" />
<glyph unicode="&#x2011;" horiz-adv-x="870" d="M145 512l29 129h578l-27 -129h-580z" />
<glyph unicode="&#x2012;" horiz-adv-x="870" d="M145 512l29 129h578l-27 -129h-580z" />
<glyph unicode="&#x2013;" horiz-adv-x="1261" d="M133 512l31 129h987l-31 -129h-987z" />
<glyph unicode="&#x2014;" horiz-adv-x="1794" d="M133 512l31 129h1519l-30 -129h-1520z" />
<glyph unicode="&#x2018;" horiz-adv-x="577" d="M287 1317q0 66 29.5 129t77.5 115.5t109.5 90.5t125.5 56l26 -61q-72 -27 -126 -90.5t-64 -139.5q16 -20 52 -37.5t58 -27.5q2 -33 -14 -64t-40.5 -55.5t-52.5 -39.5t-46 -15q-57 6 -96 39.5t-39 99.5z" />
<glyph unicode="&#x2019;" horiz-adv-x="577" d="M246 962q74 27 127 90.5t63 139.5q-16 20 -52 37.5t-58 27.5q-2 33 14.5 64t41 55.5t52 39.5t45.5 15q59 -6 97.5 -39.5t38.5 -99.5t-30 -129t-78 -115.5t-109.5 -90.5t-122.5 -56z" />
<glyph unicode="&#x201a;" horiz-adv-x="598" d="M0 -236q74 27 127 90.5t63 139.5q-16 20 -52 37.5t-58 27.5q-2 33 14.5 64t41 55.5t52 39.5t45.5 15q59 -6 97.5 -39.5t38.5 -99.5t-30 -129t-78 -115.5t-109.5 -90.5t-122.5 -56z" />
<glyph unicode="&#x201c;" horiz-adv-x="952" d="M289 1317q0 66 29.5 129t77.5 115.5t109.5 90.5t125.5 56l26 -61q-72 -27 -126 -90.5t-64 -139.5q16 -20 52 -37.5t58 -27.5q2 -33 -14 -64t-40.5 -55.5t-52.5 -39.5t-46 -15q-57 6 -96 39.5t-39 99.5zM662 1317q0 66 29.5 129t77.5 115.5t109.5 90.5t125.5 56l26 -61 q-72 -27 -126 -90.5t-64 -139.5q16 -20 52 -37.5t58 -27.5q2 -33 -14 -64t-40.5 -55.5t-52.5 -39.5t-46 -15q-57 6 -96 39.5t-39 99.5z" />
<glyph unicode="&#x201d;" horiz-adv-x="952" d="M246 962q74 27 127 90.5t63 139.5q-16 20 -52 37.5t-58 27.5q-2 33 14.5 64t41 55.5t52 39.5t45.5 15q59 -6 97.5 -39.5t38.5 -99.5t-30 -129t-78 -115.5t-109.5 -90.5t-122.5 -56zM618 962q74 27 127 90.5t63 139.5q-16 20 -52 37.5t-58 27.5q-2 33 14.5 64t41 55.5 t52 39.5t45.5 15q59 -6 97.5 -39.5t38.5 -99.5t-30 -129t-78 -115.5t-109.5 -90.5t-122.5 -56z" />
<glyph unicode="&#x201e;" horiz-adv-x="970" d="M0 -236q74 27 127 90.5t63 139.5q-16 20 -52 37.5t-58 27.5q-2 33 14.5 64t41 55.5t52 39.5t45.5 15q59 -6 97.5 -39.5t38.5 -99.5t-30 -129t-78 -115.5t-109.5 -90.5t-122.5 -56zM373 -236q74 27 127 90.5t63 139.5q-16 20 -52 37.5t-58 27.5q-2 33 14.5 64t41 55.5 t52 39.5t45.5 15q59 -6 97.5 -39.5t38.5 -99.5t-30 -129t-78 -115.5t-109.5 -90.5t-122.5 -56z" />
<glyph unicode="&#x2020;" horiz-adv-x="999" d="M143 958q0 27 3.5 50.5t13.5 44.5h26l357 -68l-74 399v29q49 23 111 23q29 0 57.5 -6.5t48.5 -16.5v-29l-74 -399l357 68h26q8 -18 12.5 -47t4.5 -58t-3 -53.5t-14 -42.5h-30l-353 68l66 -250v-41l-78 -1039h-45l-78 1041v39l66 250l-357 -68h-26q-8 18 -12.5 47t-4.5 59 z" />
<glyph unicode="&#x2021;" horiz-adv-x="999" d="M143 82q0 66 17 104h26l357 -67l-66 383v39l66 379l-357 -68h-26q-8 18 -12.5 47t-4.5 57q0 29 3.5 52.5t13.5 44.5h26l357 -68l-74 399v29q49 23 111 23q29 0 57.5 -6.5t48.5 -16.5v-29l-74 -399l357 68h26q8 -18 12.5 -47t4.5 -58q0 -27 -3 -52.5t-14 -43.5h-30 l-353 68l66 -379v-41l-66 -381l353 67h30q10 -18 13.5 -42.5t3.5 -51.5q0 -29 -4 -57.5t-13 -46.5h-26l-357 67l74 -401v-27q-20 -10 -49 -16t-57 -6q-61 0 -111 22v27l74 401l-357 -67h-26q-10 20 -13.5 43.5t-3.5 50.5z" />
<glyph unicode="&#x2022;" horiz-adv-x="913" d="M207 637q0 63 22.5 116.5t61.5 91.5t92 59.5t113 21.5q59 0 112.5 -19.5t92 -57.5t61 -91t22.5 -121t-22.5 -121t-61 -91t-92 -57.5t-112.5 -19.5t-112.5 19.5t-92.5 57.5t-61.5 91t-22.5 121z" />
<glyph unicode="&#x2026;" horiz-adv-x="1794" d="M59 117q0 61 39 98t101 37q63 0 102 -37t39 -98q0 -59 -39 -96t-102 -37q-61 0 -100.5 37t-39.5 96zM677 117q0 61 39 98t101 37q63 0 102 -37t39 -98q0 -59 -39 -96t-102 -37q-61 0 -100.5 37t-39.5 96zM1298 117q0 61 39 98t101 37q63 0 102 -37t39 -98q0 -59 -39 -96 t-102 -37q-61 0 -100.5 37t-39.5 96z" />
<glyph unicode="&#x202f;" horiz-adv-x="369" />
<glyph unicode="&#x2030;" horiz-adv-x="2424" d="M86 51l1360 1403l71 -63l-1362 -1405zM129 1024q0 94 37 174t98 137.5t141 90t166 32.5q141 0 217 -73.5t76 -190.5q0 -106 -40 -187t-102.5 -135.5t-141 -82t-156.5 -27.5q-61 0 -115.5 19.5t-94.5 54t-62.5 83t-22.5 105.5zM299 1022q0 -37 7 -69.5t24.5 -58.5t44 -41 t63.5 -15q45 0 91 22.5t83 69.5t59.5 118.5t22.5 170.5q0 31 -7 59.5t-23.5 52t-43 36.5t-67.5 13q-45 0 -90 -27.5t-82 -74.5t-59.5 -113.5t-22.5 -142.5zM725 240q0 94 37 174t98 137.5t141 90t166 32.5q141 0 217 -73.5t76 -190.5q0 -106 -40 -187t-102.5 -135.5 t-141 -82t-156.5 -27.5q-61 0 -115.5 19.5t-94.5 54t-62.5 83t-22.5 105.5zM895 238q0 -37 7 -69.5t24.5 -58.5t44 -41t63.5 -15q45 0 91 22.5t83 69.5t59.5 118.5t22.5 170.5q0 31 -7 59.5t-23.5 52t-43 36.5t-67.5 13q-45 0 -90 -27.5t-82 -74.5t-59.5 -113.5 t-22.5 -142.5zM1534 240q0 94 37 174t98 137.5t141 90t166 32.5q141 0 217 -73.5t76 -190.5q0 -106 -40 -187t-102.5 -135.5t-141 -82t-156.5 -27.5q-61 0 -115.5 19.5t-94.5 54t-62.5 83t-22.5 105.5zM1704 238q0 -37 7 -69.5t24.5 -58.5t44 -41t63.5 -15q45 0 91 22.5 t83 69.5t59.5 118.5t22.5 170.5q0 31 -7 59.5t-23.5 52t-43 36.5t-67.5 13q-45 0 -90 -27.5t-82 -74.5t-59.5 -113.5t-22.5 -142.5z" />
<glyph unicode="&#x2039;" horiz-adv-x="552" d="M94 530l441 420l40 -39l-294 -383l147 -370l-57 -41z" />
<glyph unicode="&#x203a;" horiz-adv-x="552" d="M57 158l310 393l-140 360l60 39l264 -418l-455 -413z" />
<glyph unicode="&#x2044;" horiz-adv-x="649" d="M-391 51l1360 1403l71 -63l-1362 -1405z" />
<glyph unicode="&#x205f;" horiz-adv-x="462" />
<glyph unicode="&#x20ac;" d="M-100 528l55 115h156q4 35 8 71t12 70h-178l57 115h148q39 129 106.5 232.5t157.5 176t199.5 111.5t236.5 39q135 0 225.5 -18.5t153.5 -50.5q-6 -33 -17.5 -77t-26.5 -93.5t-31.5 -96.5t-31.5 -86h-53l-43 295q-25 10 -75 15.5t-101 5.5q-166 0 -298 -113t-195 -340h606 l-58 -115h-573q-4 -35 -8 -70.5t-8 -70.5h522l-58 -115h-466q0 -129 29.5 -214t79.5 -137t114.5 -73.5t132.5 -21.5q70 0 114 12t64 27l152 252h53q-2 -57 -13.5 -144.5t-31.5 -169.5q-80 -47 -182.5 -65.5t-188.5 -18.5q-162 0 -266.5 49.5t-164.5 128t-84 177t-24 198.5 h-206z" />
<glyph unicode="&#x20b4;" d="M74 238q0 84 39 161.5t125 139.5h-140l21 106h911l-20 -106h-531q-88 -49 -151.5 -120t-63.5 -179q0 -80 60.5 -119t152.5 -39q78 0 136.5 19.5t88.5 43.5l132 244h53q6 -49 6 -100q0 -55 -5 -110.5t-14 -102.5q-27 -18 -72.5 -35.5t-102 -32t-119 -24t-119.5 -9.5 q-119 0 -193.5 25t-118 62.5t-59.5 84t-16 91.5zM150 786l22 107h530q39 23 78 56.5t72 73.5t53.5 84t20.5 91q0 70 -44 112t-149 42q-63 0 -111.5 -15.5t-89.5 -36.5l-116 -225h-54q-4 41 -8 86t-4 90q0 31 3 60.5t7 58.5q68 31 172.5 59.5t217.5 28.5q193 0 279.5 -68.5 t86.5 -189.5q0 -86 -49 -167t-129 -140h145l-22 -107h-911z" />
<glyph unicode="&#x20b6;" d="M-61 0l10 59q47 20 91 30.5t89 19.5l45 213h-182l22 106h183l30 141h-182l21 107h182l139 647q-45 8 -84 21.5t-74 29.5l13 60h184q82 0 176 8t182 8q199 0 319 -82t120 -254q0 -117 -44 -217t-128 -173t-204 -114t-274 -41h-151l-31 -141h408l-23 -106h-405l-45 -213 q53 -6 100 -19.5t86 -30.5l-12 -59h-561zM444 676h144q199 -2 308.5 112.5t107.5 325.5q2 51 -9.5 93t-42 73t-84 47t-135.5 16q-49 0 -85 -3t-62 -7z" />
<glyph unicode="&#x20b7;" d="M-61 0l10 59q47 20 91 30.5t89 19.5l45 213h-182l22 106h183l30 141h-182l21 107h182l139 647q-45 8 -84 21.5t-74 29.5l13 60h184q82 0 176 8t182 8q199 0 319 -82t120 -254q0 -117 -44 -217t-128 -173t-204 -114t-274 -41h-151l-31 -141h408l-23 -106h-405l-45 -213 q53 -6 100 -19.5t86 -30.5l-12 -59h-561zM444 676h144q199 -2 308.5 112.5t107.5 325.5q2 51 -9.5 93t-42 73t-84 47t-135.5 16q-49 0 -85 -3t-62 -7z" />
<glyph unicode="&#x20b9;" d="M-61 0l10 59q47 20 91 30.5t89 19.5l45 213h-182l22 106h183l30 141h-182l21 107h182l139 647q-45 8 -84 21.5t-74 29.5l13 60h184q82 0 176 8t182 8q199 0 319 -82t120 -254q0 -117 -44 -217t-128 -173t-204 -114t-274 -41h-151l-31 -141h408l-23 -106h-405l-45 -213 q53 -6 100 -19.5t86 -30.5l-12 -59h-561zM444 676h144q199 -2 308.5 112.5t107.5 325.5q2 51 -9.5 93t-42 73t-84 47t-135.5 16q-49 0 -85 -3t-62 -7z" />
<glyph unicode="&#x20ba;" d="M-61 0l10 59q47 20 91 30.5t89 19.5l45 213h-182l22 106h183l30 141h-182l21 107h182l139 647q-45 8 -84 21.5t-74 29.5l13 60h184q82 0 176 8t182 8q199 0 319 -82t120 -254q0 -117 -44 -217t-128 -173t-204 -114t-274 -41h-151l-31 -141h408l-23 -106h-405l-45 -213 q53 -6 100 -19.5t86 -30.5l-12 -59h-561zM444 676h144q199 -2 308.5 112.5t107.5 325.5q2 51 -9.5 93t-42 73t-84 47t-135.5 16q-49 0 -85 -3t-62 -7z" />
<glyph unicode="&#x20bb;" d="M-61 0l10 59q47 20 91 30.5t89 19.5l45 213h-182l22 106h183l30 141h-182l21 107h182l139 647q-45 8 -84 21.5t-74 29.5l13 60h184q82 0 176 8t182 8q199 0 319 -82t120 -254q0 -117 -44 -217t-128 -173t-204 -114t-274 -41h-151l-31 -141h408l-23 -106h-405l-45 -213 q53 -6 100 -19.5t86 -30.5l-12 -59h-561zM444 676h144q199 -2 308.5 112.5t107.5 325.5q2 51 -9.5 93t-42 73t-84 47t-135.5 16q-49 0 -85 -3t-62 -7z" />
<glyph unicode="&#x20bc;" d="M-61 0l10 59q47 20 91 30.5t89 19.5l45 213h-182l22 106h183l30 141h-182l21 107h182l139 647q-45 8 -84 21.5t-74 29.5l13 60h184q82 0 176 8t182 8q199 0 319 -82t120 -254q0 -117 -44 -217t-128 -173t-204 -114t-274 -41h-151l-31 -141h408l-23 -106h-405l-45 -213 q53 -6 100 -19.5t86 -30.5l-12 -59h-561zM444 676h144q199 -2 308.5 112.5t107.5 325.5q2 51 -9.5 93t-42 73t-84 47t-135.5 16q-49 0 -85 -3t-62 -7z" />
<glyph unicode="&#x20bd;" d="M-61 0l10 59q47 20 91 30.5t89 19.5l45 213h-182l22 106h183l30 141h-182l21 107h182l139 647q-45 8 -84 21.5t-74 29.5l13 60h184q82 0 176 8t182 8q199 0 319 -82t120 -254q0 -117 -44 -217t-128 -173t-204 -114t-274 -41h-151l-31 -141h408l-23 -106h-405l-45 -213 q53 -6 100 -19.5t86 -30.5l-12 -59h-561zM444 676h144q199 -2 308.5 112.5t107.5 325.5q2 51 -9.5 93t-42 73t-84 47t-135.5 16q-49 0 -85 -3t-62 -7z" />
<glyph unicode="&#x20be;" d="M-61 0l10 59q47 20 91 30.5t89 19.5l45 213h-182l22 106h183l30 141h-182l21 107h182l139 647q-45 8 -84 21.5t-74 29.5l13 60h184q82 0 176 8t182 8q199 0 319 -82t120 -254q0 -117 -44 -217t-128 -173t-204 -114t-274 -41h-151l-31 -141h408l-23 -106h-405l-45 -213 q53 -6 100 -19.5t86 -30.5l-12 -59h-561zM444 676h144q199 -2 308.5 112.5t107.5 325.5q2 51 -9.5 93t-42 73t-84 47t-135.5 16q-49 0 -85 -3t-62 -7z" />
<glyph unicode="&#x20bf;" d="M-61 0l10 59q47 20 91 30.5t89 19.5l45 213h-182l22 106h183l30 141h-182l21 107h182l139 647q-45 8 -84 21.5t-74 29.5l13 60h184q82 0 176 8t182 8q199 0 319 -82t120 -254q0 -117 -44 -217t-128 -173t-204 -114t-274 -41h-151l-31 -141h408l-23 -106h-405l-45 -213 q53 -6 100 -19.5t86 -30.5l-12 -59h-561zM444 676h144q199 -2 308.5 112.5t107.5 325.5q2 51 -9.5 93t-42 73t-84 47t-135.5 16q-49 0 -85 -3t-62 -7z" />
<glyph unicode="&#x20c0;" d="M-61 0l10 59q47 20 91 30.5t89 19.5l45 213h-182l22 106h183l30 141h-182l21 107h182l139 647q-45 8 -84 21.5t-74 29.5l13 60h184q82 0 176 8t182 8q199 0 319 -82t120 -254q0 -117 -44 -217t-128 -173t-204 -114t-274 -41h-151l-31 -141h408l-23 -106h-405l-45 -213 q53 -6 100 -19.5t86 -30.5l-12 -59h-561zM444 676h144q199 -2 308.5 112.5t107.5 325.5q2 51 -9.5 93t-42 73t-84 47t-135.5 16q-49 0 -85 -3t-62 -7z" />
<glyph unicode="&#x20c1;" d="M-61 0l10 59q47 20 91 30.5t89 19.5l45 213h-182l22 106h183l30 141h-182l21 107h182l139 647q-45 8 -84 21.5t-74 29.5l13 60h184q82 0 176 8t182 8q199 0 319 -82t120 -254q0 -117 -44 -217t-128 -173t-204 -114t-274 -41h-151l-31 -141h408l-23 -106h-405l-45 -213 q53 -6 100 -19.5t86 -30.5l-12 -59h-561zM444 676h144q199 -2 308.5 112.5t107.5 325.5q2 51 -9.5 93t-42 73t-84 47t-135.5 16q-49 0 -85 -3t-62 -7z" />
<glyph unicode="&#x20c2;" d="M-61 0l10 59q47 20 91 30.5t89 19.5l45 213h-182l22 106h183l30 141h-182l21 107h182l139 647q-45 8 -84 21.5t-74 29.5l13 60h184q82 0 176 8t182 8q199 0 319 -82t120 -254q0 -117 -44 -217t-128 -173t-204 -114t-274 -41h-151l-31 -141h408l-23 -106h-405l-45 -213 q53 -6 100 -19.5t86 -30.5l-12 -59h-561zM444 676h144q199 -2 308.5 112.5t107.5 325.5q2 51 -9.5 93t-42 73t-84 47t-135.5 16q-49 0 -85 -3t-62 -7z" />
<glyph unicode="&#x20c3;" d="M-61 0l10 59q47 20 91 30.5t89 19.5l45 213h-182l22 106h183l30 141h-182l21 107h182l139 647q-45 8 -84 21.5t-74 29.5l13 60h184q82 0 176 8t182 8q199 0 319 -82t120 -254q0 -117 -44 -217t-128 -173t-204 -114t-274 -41h-151l-31 -141h408l-23 -106h-405l-45 -213 q53 -6 100 -19.5t86 -30.5l-12 -59h-561zM444 676h144q199 -2 308.5 112.5t107.5 325.5q2 51 -9.5 93t-42 73t-84 47t-135.5 16q-49 0 -85 -3t-62 -7z" />
<glyph unicode="&#x20c4;" d="M-61 0l10 59q47 20 91 30.5t89 19.5l45 213h-182l22 106h183l30 141h-182l21 107h182l139 647q-45 8 -84 21.5t-74 29.5l13 60h184q82 0 176 8t182 8q199 0 319 -82t120 -254q0 -117 -44 -217t-128 -173t-204 -114t-274 -41h-151l-31 -141h408l-23 -106h-405l-45 -213 q53 -6 100 -19.5t86 -30.5l-12 -59h-561zM444 676h144q199 -2 308.5 112.5t107.5 325.5q2 51 -9.5 93t-42 73t-84 47t-135.5 16q-49 0 -85 -3t-62 -7z" />
<glyph unicode="&#x20c5;" d="M-61 0l10 59q47 20 91 30.5t89 19.5l45 213h-182l22 106h183l30 141h-182l21 107h182l139 647q-45 8 -84 21.5t-74 29.5l13 60h184q82 0 176 8t182 8q199 0 319 -82t120 -254q0 -117 -44 -217t-128 -173t-204 -114t-274 -41h-151l-31 -141h408l-23 -106h-405l-45 -213 q53 -6 100 -19.5t86 -30.5l-12 -59h-561zM444 676h144q199 -2 308.5 112.5t107.5 325.5q2 51 -9.5 93t-42 73t-84 47t-135.5 16q-49 0 -85 -3t-62 -7z" />
<glyph unicode="&#x20c6;" d="M-61 0l10 59q47 20 91 30.5t89 19.5l45 213h-182l22 106h183l30 141h-182l21 107h182l139 647q-45 8 -84 21.5t-74 29.5l13 60h184q82 0 176 8t182 8q199 0 319 -82t120 -254q0 -117 -44 -217t-128 -173t-204 -114t-274 -41h-151l-31 -141h408l-23 -106h-405l-45 -213 q53 -6 100 -19.5t86 -30.5l-12 -59h-561zM444 676h144q199 -2 308.5 112.5t107.5 325.5q2 51 -9.5 93t-42 73t-84 47t-135.5 16q-49 0 -85 -3t-62 -7z" />
<glyph unicode="&#x20c7;" d="M-61 0l10 59q47 20 91 30.5t89 19.5l45 213h-182l22 106h183l30 141h-182l21 107h182l139 647q-45 8 -84 21.5t-74 29.5l13 60h184q82 0 176 8t182 8q199 0 319 -82t120 -254q0 -117 -44 -217t-128 -173t-204 -114t-274 -41h-151l-31 -141h408l-23 -106h-405l-45 -213 q53 -6 100 -19.5t86 -30.5l-12 -59h-561zM444 676h144q199 -2 308.5 112.5t107.5 325.5q2 51 -9.5 93t-42 73t-84 47t-135.5 16q-49 0 -85 -3t-62 -7z" />
<glyph unicode="&#x20c8;" d="M-61 0l10 59q47 20 91 30.5t89 19.5l45 213h-182l22 106h183l30 141h-182l21 107h182l139 647q-45 8 -84 21.5t-74 29.5l13 60h184q82 0 176 8t182 8q199 0 319 -82t120 -254q0 -117 -44 -217t-128 -173t-204 -114t-274 -41h-151l-31 -141h408l-23 -106h-405l-45 -213 q53 -6 100 -19.5t86 -30.5l-12 -59h-561zM444 676h144q199 -2 308.5 112.5t107.5 325.5q2 51 -9.5 93t-42 73t-84 47t-135.5 16q-49 0 -85 -3t-62 -7z" />
<glyph unicode="&#x20c9;" d="M-61 0l10 59q47 20 91 30.5t89 19.5l45 213h-182l22 106h183l30 141h-182l21 107h182l139 647q-45 8 -84 21.5t-74 29.5l13 60h184q82 0 176 8t182 8q199 0 319 -82t120 -254q0 -117 -44 -217t-128 -173t-204 -114t-274 -41h-151l-31 -141h408l-23 -106h-405l-45 -213 q53 -6 100 -19.5t86 -30.5l-12 -59h-561zM444 676h144q199 -2 308.5 112.5t107.5 325.5q2 51 -9.5 93t-42 73t-84 47t-135.5 16q-49 0 -85 -3t-62 -7z" />
<glyph unicode="&#x20ca;" d="M-61 0l10 59q47 20 91 30.5t89 19.5l45 213h-182l22 106h183l30 141h-182l21 107h182l139 647q-45 8 -84 21.5t-74 29.5l13 60h184q82 0 176 8t182 8q199 0 319 -82t120 -254q0 -117 -44 -217t-128 -173t-204 -114t-274 -41h-151l-31 -141h408l-23 -106h-405l-45 -213 q53 -6 100 -19.5t86 -30.5l-12 -59h-561zM444 676h144q199 -2 308.5 112.5t107.5 325.5q2 51 -9.5 93t-42 73t-84 47t-135.5 16q-49 0 -85 -3t-62 -7z" />
<glyph unicode="&#x20cb;" d="M-61 0l10 59q47 20 91 30.5t89 19.5l45 213h-182l22 106h183l30 141h-182l21 107h182l139 647q-45 8 -84 21.5t-74 29.5l13 60h184q82 0 176 8t182 8q199 0 319 -82t120 -254q0 -117 -44 -217t-128 -173t-204 -114t-274 -41h-151l-31 -141h408l-23 -106h-405l-45 -213 q53 -6 100 -19.5t86 -30.5l-12 -59h-561zM444 676h144q199 -2 308.5 112.5t107.5 325.5q2 51 -9.5 93t-42 73t-84 47t-135.5 16q-49 0 -85 -3t-62 -7z" />
<glyph unicode="&#x20cc;" d="M-61 0l10 59q47 20 91 30.5t89 19.5l45 213h-182l22 106h183l30 141h-182l21 107h182l139 647q-45 8 -84 21.5t-74 29.5l13 60h184q82 0 176 8t182 8q199 0 319 -82t120 -254q0 -117 -44 -217t-128 -173t-204 -114t-274 -41h-151l-31 -141h408l-23 -106h-405l-45 -213 q53 -6 100 -19.5t86 -30.5l-12 -59h-561zM444 676h144q199 -2 308.5 112.5t107.5 325.5q2 51 -9.5 93t-42 73t-84 47t-135.5 16q-49 0 -85 -3t-62 -7z" />
<glyph unicode="&#x20cd;" d="M-61 0l10 59q47 20 91 30.5t89 19.5l45 213h-182l22 106h183l30 141h-182l21 107h182l139 647q-45 8 -84 21.5t-74 29.5l13 60h184q82 0 176 8t182 8q199 0 319 -82t120 -254q0 -117 -44 -217t-128 -173t-204 -114t-274 -41h-151l-31 -141h408l-23 -106h-405l-45 -213 q53 -6 100 -19.5t86 -30.5l-12 -59h-561zM444 676h144q199 -2 308.5 112.5t107.5 325.5q2 51 -9.5 93t-42 73t-84 47t-135.5 16q-49 0 -85 -3t-62 -7z" />
<glyph unicode="&#x20ce;" d="M-61 0l10 59q47 20 91 30.5t89 19.5l45 213h-182l22 106h183l30 141h-182l21 107h182l139 647q-45 8 -84 21.5t-74 29.5l13 60h184q82 0 176 8t182 8q199 0 319 -82t120 -254q0 -117 -44 -217t-128 -173t-204 -114t-274 -41h-151l-31 -141h408l-23 -106h-405l-45 -213 q53 -6 100 -19.5t86 -30.5l-12 -59h-561zM444 676h144q199 -2 308.5 112.5t107.5 325.5q2 51 -9.5 93t-42 73t-84 47t-135.5 16q-49 0 -85 -3t-62 -7z" />
<glyph unicode="&#x20cf;" d="M-61 0l10 59q47 20 91 30.5t89 19.5l45 213h-182l22 106h183l30 141h-182l21 107h182l139 647q-45 8 -84 21.5t-74 29.5l13 60h184q82 0 176 8t182 8q199 0 319 -82t120 -254q0 -117 -44 -217t-128 -173t-204 -114t-274 -41h-151l-31 -141h408l-23 -106h-405l-45 -213 q53 -6 100 -19.5t86 -30.5l-12 -59h-561zM444 676h144q199 -2 308.5 112.5t107.5 325.5q2 51 -9.5 93t-42 73t-84 47t-135.5 16q-49 0 -85 -3t-62 -7z" />
<glyph unicode="&#x2122;" horiz-adv-x="2015" d="M248 1434h725q-2 -55 -9.5 -131t-19.5 -142h-51l-68 197h-127v-608q35 -10 61.5 -18.5t41.5 -18.5v-47h-385v47q25 14 52.5 23t53.5 14v608h-129l-67 -197h-50q-12 66 -19 140.5t-9 132.5zM1028 666v47q47 27 100 37l27 583q-33 12 -56.5 25.5t-41.5 25.5v50h334 l145 -424l29 -109h6l31 111l153 422h334v-50q-20 -10 -44 -20t-56 -16l30 -598q51 -10 101 -37v-47h-363v47q16 10 37 18t55 19l-30 591h-13l-239 -675h-72l-238 675h-12l-22 -591q55 -16 92 -37v-47h-287z" />
<glyph unicode="&#x2202;" horiz-adv-x="1042" d="M104 379q0 111 36 227.5t106.5 211.5t174 156.5t241.5 61.5q94 0 141 -32q0 63 -10.5 142t-41 148.5t-85 115.5t-140.5 46q-53 0 -98 -22.5t-92 -47.5l-29 37q59 47 135 84t168 37q178 0 273.5 -153.5t95.5 -468.5q0 -213 -44 -388.5t-120 -299t-177 -191.5t-216 -68 q-152 0 -235 101.5t-83 302.5zM289 338q0 -123 43 -197.5t125 -77.5q68 2 130 59.5t110 165t78 264.5t28 353q-43 25 -78 33t-74 10q-113 -2 -183.5 -63.5t-110.5 -152.5t-54 -197.5t-14 -196.5z" />
<glyph unicode="&#x220f;" horiz-adv-x="1638" d="M82 -350q31 16 72 28.5t96 20.5v1624q-41 8 -84 21.5t-84 29.5v60h1474v-60q-39 -20 -81.5 -31.5t-85.5 -19.5v-1624q82 -10 167 -49v-60h-518v60q45 29 154 49v1628h-746v-1628q80 -16 154 -49v-60h-518v60z" />
<glyph unicode="&#x2211;" horiz-adv-x="1294" d="M72 1350v84h1112q0 -41 -2 -91.5t-4 -103.5t-5.5 -105.5t-9.5 -93.5h-51l-108 287h-656l531 -704l-623 -848h776l117 254h51q6 -41 9 -100.5t6.5 -121t4.5 -120t3 -99.5h-1143v133l604 820z" />
<glyph unicode="&#x221a;" horiz-adv-x="1099" d="M59 973v51h297l224 -633q16 -47 22 -77.5t12 -77.5q10 45 19.5 84.5t19.5 74.5l455 1420h479v-107h-407l-566 -1733h-55l-364 947q-72 12 -136 51z" />
<glyph unicode="&#x221e;" horiz-adv-x="1443" d="M98 664q0 90 27 156.5t71 110.5t101 65.5t119 21.5q59 0 105 -14.5t85 -43t73 -75t69 -107.5q20 49 46.5 93t62.5 77t82 51.5t108 18.5q61 0 115.5 -20.5t95 -62.5t64.5 -105.5t24 -151.5t-27 -154.5t-71 -111.5t-101 -67.5t-121 -22.5q-113 0 -188.5 57t-149.5 186 q-23 -47 -48.5 -91t-59 -78t-77.5 -54t-104 -20q-61 0 -115.5 20t-95.5 61t-65.5 105.5t-24.5 155.5zM190 680q0 -53 17.5 -91t48.5 -64.5t72 -39t86 -12.5q90 0 142 40t93 112q-74 127 -131 184t-137 57q-82 0 -136.5 -50t-54.5 -136zM784 719q39 -59 70 -105.5t60.5 -77 t62.5 -47t74 -16.5q39 0 75.5 13.5t65.5 37t46 56t17 73.5q0 57 -18 97.5t-49 66t-71 37.5t-85 12q-88 0 -146.5 -37.5t-101.5 -109.5z" />
<glyph unicode="&#x222b;" horiz-adv-x="780" d="M43 -291q6 68 17.5 127.5t27.5 106.5h51l90 -176q51 0 80 12t43.5 48t18.5 101.5t4 169.5l-43 1016q0 127 24.5 210t69.5 131t105.5 66.5t132.5 18.5q14 0 38.5 -1t50 -4t50 -8t43.5 -11q-6 -68 -16.5 -127.5t-26.5 -106.5h-51l-90 176q-43 0 -74 -12t-48.5 -48 t-22.5 -101.5t-1 -170.5l43 -1015q0 -127 -24.5 -210t-69.5 -131.5t-106.5 -66.5t-131.5 -18q-16 0 -39.5 1t-50 4t-51.5 8t-43 11z" />
<glyph unicode="&#x2248;" d="M115 495q74 111 141.5 153t129.5 42q51 0 100 -21.5t96 -48t95 -48t100 -21.5q37 0 76.5 15t80.5 54l27 -43q-59 -86 -117.5 -121.5t-113.5 -35.5q-53 0 -103.5 21.5t-99.5 48t-98.5 48t-98.5 21.5q-45 0 -91 -24.5t-93 -88.5zM115 823q74 111 141.5 153t129.5 42 q51 0 100 -21.5t96 -48t95 -48t100 -21.5q37 0 76.5 15t80.5 54l27 -43q-59 -86 -117.5 -121.5t-113.5 -35.5q-53 0 -103.5 21.5t-99.5 48t-98.5 48t-98.5 21.5q-45 0 -91 -24.5t-93 -88.5z" />
<glyph unicode="&#x2260;" d="M76 485v109h342l98 221h-440v109h487l266 596l86 -37l-247 -559h329v-109h-379l-98 -221h477v-109h-524l-305 -690l-84 39l287 651h-295z" />
<glyph unicode="&#x2264;" d="M90 868v64l789 481l51 -90l-512 -309l-176 -82l174 -64l542 -319l-81 -133zM96 557l54 94l796 -463l-53 -94z" />
<glyph unicode="&#x2265;" d="M117 186l786 480l58 -95l-787 -479zM117 1280l80 133l786 -452v-64l-788 -481l-50 90l512 309l177 82l-175 64z" />
<glyph unicode="&#x25ca;" horiz-adv-x="1042" d="M72 700l422 758h49l428 -747l-428 -736h-49zM229 723l242 -434l59 -139h2l58 143l227 397l-242 434l-57 140h-4l-57 -144z" />
<glyph unicode="&#xe000;" horiz-adv-x="1034" d="M0 0v1034h1034v-1034h-1034z" />
</font>
</defs>
</svg>
