<?xml version="1.0" standalone="no"?>
<!DOCTYPE svg PUBLIC "-//W3C//DTD SVG 1.1//EN" "http://www.w3.org/Graphics/SVG/1.1/DTD/svg11.dtd" >
<svg xmlns="http://www.w3.org/2000/svg">
<metadata></metadata>
<defs>
<font id="ubuntu_condensedregular" horiz-adv-x="880" >
<font-face units-per-em="2048" ascent="1638" descent="-410" />
<missing-glyph horiz-adv-x="399" />
<glyph unicode="&#xfb01;" horiz-adv-x="1101" d="M160 0v1225q0 174 77.5 269t235.5 95q47 0 86 -8t68 -20l-33 -140q-53 18 -105 19q-74 0 -113.5 -48.5t-39.5 -166.5v-150h276v-151h-276v-924h-176zM739 1382q0 53 34 85t81 32t81 -31.5t34 -85.5q0 -53 -34 -84.5t-81 -31.5t-81 31.5t-34 84.5zM766 0v1075h176v-1075 h-176z" />
<glyph unicode="&#xfb02;" horiz-adv-x="1124" d="M160 0v1225q0 174 77.5 269t235.5 95q47 0 86 -8t68 -20l-33 -140q-53 18 -105 19q-74 0 -113.5 -48.5t-39.5 -166.5v-150h276v-151h-276v-924h-176zM782 279v1280l176 30v-1315q0 -72 29 -103.5t100 -43.5l-22 -147q-152 4 -217.5 74.5t-65.5 224.5z" />
<glyph unicode="&#xfb03;" horiz-adv-x="1728" d="M160 0v1225q0 174 77.5 269t235.5 95q59 0 104.5 -12t73.5 -27l-37 -139q-29 14 -59.5 21.5t-65.5 7.5q-47 0 -77.5 -16.5t-47 -45t-22.5 -68.5t-6 -85v-150h276v-151h-276v-924h-176zM787 0v1225q0 174 77.5 269t235.5 95q47 0 86 -8t68 -20l-33 -140q-53 18 -105 19 q-74 0 -113.5 -48.5t-39.5 -166.5v-150h276v-151h-276v-924h-176zM1366 1382q0 53 34 85t81 32t81 -31.5t34 -85.5q0 -53 -34 -84.5t-81 -31.5t-81 31.5t-34 84.5zM1393 0v1075h176v-1075h-176z" />
<glyph unicode="&#xfb04;" horiz-adv-x="1751" d="M160 0v1225q0 174 77.5 269t235.5 95q59 0 104.5 -12t73.5 -27l-37 -139q-29 14 -59.5 21.5t-65.5 7.5q-47 0 -77.5 -16.5t-47 -45t-22.5 -68.5t-6 -85v-150h276v-151h-276v-924h-176zM787 0v1225q0 174 77.5 269t235.5 95q47 0 86 -8t68 -20l-33 -140q-53 18 -105 19 q-74 0 -113.5 -48.5t-39.5 -166.5v-150h276v-151h-276v-924h-176zM1409 279v1280l176 30v-1315q0 -72 29 -103.5t100 -43.5l-22 -147q-152 4 -217.5 74.5t-65.5 224.5z" />
<glyph unicode="&#xd;" horiz-adv-x="399" />
<glyph horiz-adv-x="0" />
<glyph horiz-adv-x="0" />
<glyph unicode=" "  horiz-adv-x="399" />
<glyph unicode="&#x09;" horiz-adv-x="399" />
<glyph unicode="&#xa0;" horiz-adv-x="399" />
<glyph unicode="!" horiz-adv-x="538" d="M147 94q0 49 33 86t88 37t89 -37t34 -86q0 -47 -33.5 -84t-89.5 -37q-55 0 -88 37t-33 84zM174 1034v385h191v-385q0 -172 -12.5 -312t-30.5 -280h-105q-18 139 -30.5 279.5t-12.5 312.5z" />
<glyph unicode="&#x22;" horiz-adv-x="774" d="M143 1456v100h168v-102q0 -100 -10 -208.5t-29 -219.5h-90q-18 111 -28.5 218.5t-10.5 211.5zM462 1456v100h168v-102q0 -100 -10 -208.5t-29 -219.5h-90q-18 111 -28.5 218.5t-10.5 211.5z" />
<glyph unicode="#" horiz-adv-x="1161" d="M96 377v135h185l53 395h-238v135h256l51 377h148l-53 -377h254l53 377h147l-53 -377h166v-135h-184l-54 -395h238v-135h-256l-51 -377h-148l52 377h-254l-52 -377h-145l51 377h-166zM426 512h254l53 395h-254z" />
<glyph unicode="$" d="M113 123l51 137q47 -33 108.5 -54.5t130.5 -21.5q90 0 133.5 52.5t43.5 136.5q0 49 -15.5 88t-42 69.5t-60.5 56t-71 50.5q-47 31 -93 63.5t-83 76.5t-60.5 102.5t-23.5 140.5q0 51 15.5 103.5t45 96.5t72.5 77.5t101 50.5v241h157v-227q55 -6 105.5 -21.5t91.5 -37.5 l-49 -140q-41 23 -86 38.5t-92 15.5q-74 0 -124.5 -47.5t-50.5 -149.5q0 -49 18.5 -86t49.5 -67.5t71 -56.5t81 -54q43 -31 85 -64t74.5 -77t52 -102t19.5 -138q0 -115 -60.5 -208t-185.5 -122v-268h-157v258q-78 8 -144.5 31.5t-107.5 56.5z" />
<glyph unicode="%" horiz-adv-x="1320" d="M98 1071q0 184 60.5 280.5t179.5 96.5t179.5 -96.5t60.5 -280.5t-60.5 -280.5t-179.5 -96.5t-179.5 96.5t-60.5 280.5zM248 1071q0 -137 22.5 -192.5t67.5 -55.5t67.5 55.5t22.5 192.5t-22.5 192.5t-67.5 55.5t-67.5 -55.5t-22.5 -192.5zM289 0l571 1419h160l-571 -1419 h-160zM743 346q0 184 60.5 280.5t179.5 96.5t179.5 -96.5t60.5 -280.5t-60.5 -280.5t-179.5 -96.5t-179.5 96.5t-60.5 280.5zM893 346q0 -137 22.5 -192.5t67.5 -55.5t67.5 55.5t22.5 192.5t-22.5 192.5t-67.5 55.5t-67.5 -55.5t-22.5 -192.5z" />
<glyph unicode="&#x26;" horiz-adv-x="1046" d="M90 346q0 80 19.5 144.5t51.5 115.5t73.5 94t89.5 80q-53 78 -93.5 165t-40.5 190q0 143 80 230t215 87q74 0 127.5 -23.5t87 -64.5t49 -94t15.5 -113q0 -70 -19.5 -126t-51 -103t-73.5 -86t-85 -74l243 -344q23 66 39.5 145.5t24.5 173.5l147 -20q-10 -129 -38.5 -238.5 t-73.5 -197.5q47 -70 85.5 -144.5t65.5 -142.5h-178q-27 66 -70 143q-66 -78 -145.5 -119.5t-161.5 -41.5q-102 0 -175 32.5t-119 85t-67.5 118t-21.5 128.5zM268 360q0 -98 53.5 -163.5t157.5 -65.5q59 0 115.5 34t103.5 101l-290 400q-61 -55 -100.5 -127t-39.5 -179z M350 1137q0 -70 30 -130.5t73 -121.5q63 53 107 116.5t44 155.5q0 78 -33.5 117t-89.5 39q-66 0 -98.5 -46t-32.5 -130z" />
<glyph unicode="'" horiz-adv-x="454" d="M143 1456v100h168v-102q0 -100 -10 -208.5t-29 -219.5h-90q-18 111 -28.5 218.5t-10.5 211.5z" />
<glyph unicode="(" horiz-adv-x="583" d="M156 612q0 293 74.5 545t201.5 451l141 -78q-115 -193 -178 -424.5t-63 -493.5t63.5 -493.5t177.5 -423.5l-141 -78q-127 199 -201.5 450.5t-74.5 544.5z" />
<glyph unicode=")" horiz-adv-x="583" d="M10 -305q115 193 178.5 424t63.5 493t-63.5 493.5t-178.5 424.5l142 78q127 -199 201.5 -451t74.5 -545t-74.5 -544.5t-201.5 -450.5z" />
<glyph unicode="*" horiz-adv-x="792" d="M72 1149l51 168l12 -4q59 -20 117.5 -57t103.5 -70q-14 53 -31.5 119.5t-17.5 128.5v14h180v-14q0 -61 -17 -128t-34 -120q47 31 102.5 68.5t114.5 56.5l15 4l53 -172l-10 -4q-59 -18 -127 -22.5t-121 -8.5q41 -35 93 -77t87 -91l8 -10l-145 -107l-6 13 q-37 49 -61.5 112.5t-45.5 114.5q-20 -51 -44.5 -114.5t-59.5 -110.5l-8 -13l-146 107l10 10q35 49 89.5 92t95.5 78q-55 4 -123 6t-127 25z" />
<glyph unicode="+" d="M88 539v149h277v295h151v-295h277v-149h-277v-297h-151v297h-277z" />
<glyph unicode="," horiz-adv-x="475" d="M78 -279q51 104 67.5 212t16.5 202q0 27 -1 51.5t-3 46.5h180q2 -16 2 -31.5v-31.5q0 -131 -37 -252t-100 -233z" />
<glyph unicode="-" horiz-adv-x="477" d="M49 530v166h379v-166h-379z" />
<glyph unicode="." horiz-adv-x="475" d="M117 94q0 49 32.5 86t88.5 37q55 0 88.5 -37t33.5 -86q0 -47 -33.5 -84t-88.5 -37t-88 37t-33 84z" />
<glyph unicode="/" horiz-adv-x="552" d="M-53 -379l495 1983h164l-495 -1983h-164z" />
<glyph unicode="0" d="M106 711q0 209 18.5 351t59.5 228t103.5 124t152.5 38q88 0 151.5 -38t104.5 -124t59.5 -228t18.5 -351t-18.5 -351.5t-59.5 -228.5t-104.5 -124t-151.5 -38q-90 0 -152.5 38t-103.5 124t-59.5 228.5t-18.5 351.5zM291 711q0 -168 8 -281t25.5 -180.5t46 -96t69.5 -28.5 t70 28.5t46 96t25.5 180.5t8.5 281t-8.5 280.5t-25.5 180t-46 96t-70 28.5t-69.5 -28.5t-46 -96t-25.5 -180t-8 -280.5z" />
<glyph unicode="1" d="M143 1137q39 23 81 55.5t81 70t73 77.5t56 79h135v-1419h-176v1141q-35 -37 -81 -70t-97 -61z" />
<glyph unicode="2" d="M90 1331q121 121 295 121q166 0 254 -87t88 -271q0 -86 -28.5 -164t-71.5 -150.5t-94.5 -144.5t-98.5 -146.5t-82 -155.5t-43 -173h447v-160h-635v39q0 137 31.5 243.5t77.5 192.5t101.5 160t101.5 144.5t78 145t32 165.5q0 109 -43 156.5t-129 47.5q-59 0 -107.5 -23.5 t-87.5 -60.5z" />
<glyph unicode="3" d="M86 51l47 144q47 -29 99.5 -49.5t109.5 -20.5q104 0 162.5 64.5t58.5 205.5t-64.5 213t-205.5 72h-53v149h45q123 0 182 66t59 182q0 111 -47 165t-125 54q-53 0 -101 -20.5t-83 -50.5l-70 129q53 49 126 73.5t145 24.5q160 0 245.5 -100.5t85.5 -266.5 q0 -117 -46 -197.5t-130 -123.5q102 -37 158.5 -130t56.5 -241q0 -197 -95 -310.5t-288 -113.5q-76 0 -147.5 22.5t-124.5 59.5z" />
<glyph unicode="4" d="M86 346v129q37 127 94.5 268.5t118.5 272.5t117.5 237.5t91.5 165.5h180v-927h139v-146h-139v-346h-162v346h-440zM236 492h290v692q-31 -63 -70.5 -145.5t-79.5 -174.5t-77 -187t-63 -185z" />
<glyph unicode="5" d="M102 33l50 145q88 -49 180 -49q98 0 165.5 71.5t67.5 219.5q0 162 -91 232.5t-277 78.5q10 102 16 187.5t10 166t7 161.5t6 173h479v-153h-324q-10 -147 -14 -245.5t-8 -156.5q193 -27 282.5 -139.5t89.5 -304.5q0 -109 -30.5 -193t-85 -141t-128 -87t-159.5 -30 q-59 0 -120.5 16.5t-115.5 47.5z" />
<glyph unicode="6" d="M129 604q0 154 29.5 299.5t96.5 259t174.5 185t264.5 77.5l19 -145q-78 -10 -142.5 -33.5t-116 -74t-85 -132.5t-50.5 -204q43 18 83 26t75 8q147 0 228 -115.5t81 -318.5q0 -217 -76.5 -342t-242.5 -125q-84 0 -147.5 33t-105.5 107.5t-63.5 196.5t-21.5 298zM305 586 q0 -94 5 -179t21.5 -149.5t48.5 -102.5t85 -38q80 0 111.5 85t31.5 226q0 154 -42 226.5t-132 72.5q-33 0 -65.5 -11t-61.5 -28q-2 -25 -2 -50.5v-51.5z" />
<glyph unicode="7" d="M92 1264v155h682v-137q-49 -80 -108.5 -218t-111.5 -311t-91 -368t-47 -385h-180q4 98 21 212t44 230.5t58.5 234.5t68.5 225.5t74 199.5t73 162h-483z" />
<glyph unicode="8" d="M96 336q0 127 56.5 226.5t150.5 174.5q-78 59 -127 150.5t-49 214.5q0 92 28.5 158.5t74.5 109.5t103.5 62.5t117.5 19.5q57 0 113.5 -19.5t101.5 -61.5t71.5 -107.5t26.5 -157.5q0 -119 -58.5 -216t-136.5 -169q86 -63 149.5 -152.5t63.5 -212.5q0 -96 -29.5 -168.5 t-77.5 -121t-109.5 -73t-127.5 -24.5q-76 0 -139 28t-108.5 76t-70 115.5t-24.5 147.5zM270 350q0 -111 46 -177.5t126 -66.5q68 0 118 60.5t50 177.5q0 53 -17.5 99t-46 86t-64.5 73t-74 62q-59 -55 -98.5 -129t-39.5 -185zM299 1124q0 -66 10 -116t30.5 -87.5t50.5 -68.5 t69 -57q57 59 93 125.5t36 173.5q0 125 -41 173t-101 48q-23 0 -49 -8.5t-47.5 -30t-36 -58.5t-14.5 -94z" />
<glyph unicode="9" d="M117 985q0 217 76.5 342t242.5 125q84 0 147.5 -33t105.5 -107.5t63.5 -196.5t21.5 -298q0 -156 -29.5 -301t-97 -259t-178.5 -184.5t-272 -76.5l-19 149q78 8 144.5 32t118 73t87 130t52.5 204q-80 -33 -150 -33q-147 0 -230 115.5t-83 318.5zM295 993q0 -154 44 -226.5 t134 -72.5q61 0 121 37q0 25 1 50.5t1 54.5q0 94 -4 179t-20.5 149.5t-48 102.5t-85.5 38q-80 0 -111.5 -85t-31.5 -227z" />
<glyph unicode=":" horiz-adv-x="475" d="M117 96q0 49 32.5 86t88.5 37q55 0 88.5 -37t33.5 -86q0 -47 -33.5 -84t-88.5 -37t-88 37t-33 84zM117 979q0 49 32.5 86t88.5 37q55 0 88.5 -37t33.5 -86q0 -47 -33.5 -84t-88.5 -37t-88 37t-33 84z" />
<glyph unicode=";" horiz-adv-x="475" d="M55 -279q51 104 67.5 212t16.5 202q0 27 -1 51.5t-3 46.5h180q2 -16 2 -31.5v-31.5q0 -131 -37 -252t-100 -233zM117 979q0 49 32.5 86t88.5 37q55 0 88.5 -37t33.5 -86q0 -47 -33.5 -84t-88.5 -37t-88 37t-33 84z" />
<glyph unicode="&#x3c;" d="M94 539v127l617 376l75 -133l-522 -307l522 -307l-75 -133z" />
<glyph unicode="=" d="M88 340v149h705v-149h-705zM88 735v150h705v-150h-705z" />
<glyph unicode="&#x3e;" d="M94 295l522 307l-522 307l76 133l616 -376v-127l-616 -377z" />
<glyph unicode="?" horiz-adv-x="700" d="M43 1366q57 39 122.5 62.5t145.5 23.5q92 0 158 -26.5t106.5 -70.5t60 -101.5t19.5 -118.5q0 -72 -21.5 -128.5t-55 -104.5t-71.5 -92t-72 -92t-55.5 -103.5t-21.5 -127.5v-22t2 -23h-159q-6 39 -6 86q0 72 19 126.5t49 99.5t64.5 84t64.5 81t49.5 90t19.5 111 q0 84 -45 130t-125 46q-55 0 -99.5 -18t-78.5 -47zM168 94q0 49 32.5 86t88.5 37q55 0 89 -37t34 -86q0 -47 -34 -84t-89 -37t-88 37t-33 84z" />
<glyph unicode="@" horiz-adv-x="1687" d="M129 569q0 221 56.5 387t154.5 275.5t231.5 165t284.5 55.5q162 0 292 -54.5t221 -157.5t140.5 -249.5t49.5 -331.5q0 -281 -82 -426t-236 -145q-78 0 -128 22.5t-81 57.5q-41 -39 -85 -55.5t-97 -16.5q-166 0 -252 121t-86 354q0 219 97.5 347.5t273.5 128.5 q86 0 154.5 -17.5t105.5 -34.5v-602q0 -86 20.5 -124t79.5 -38q84 0 118 113t34 324q0 135 -30 251.5t-94.5 203.5t-165.5 136.5t-245 49.5q-127 0 -231.5 -49.5t-179 -144.5t-115.5 -232.5t-41 -313.5q0 -178 39 -316t110.5 -232.5t175 -142.5t232.5 -48q94 0 158.5 16.5 t87.5 24.5l22 -141q-14 -6 -41.5 -13.5t-64.5 -14.5t-79 -11t-85 -4q-158 0 -289 52t-227 159.5t-149.5 274.5t-53.5 396zM696 571q0 -150 39 -238.5t135 -88.5q63 0 107 37q-6 29 -8 57.5t-2 56.5v492q-10 4 -31 8t-49 4q-98 0 -144.5 -80t-46.5 -248z" />
<glyph unicode="A" horiz-adv-x="1030" d="M41 0q45 223 92 415.5t93 364.5t94.5 329t97.5 310h194q49 -154 97.5 -310.5t94.5 -328.5t92 -364.5t93 -415.5h-184q-16 92 -33.5 182t-36.5 180h-446q-20 -90 -36.5 -180t-33.5 -182h-178zM324 516h374q-41 180 -88 352t-98 342q-51 -170 -98 -342t-90 -352z" />
<glyph unicode="B" horiz-adv-x="1067" d="M172 23v1376q72 16 146.5 25.5t148.5 9.5q92 0 175 -17.5t146.5 -59.5t101.5 -110.5t38 -171.5q0 -127 -53.5 -208t-137.5 -119q104 -41 172 -125t68 -232q0 -111 -36 -186.5t-101.5 -123.5t-156.5 -69.5t-200 -21.5q-72 0 -149.5 8t-161.5 25zM356 156q39 -6 77 -10.5 t75 -4.5q57 0 108.5 12.5t89 41t59 79t21.5 123.5q0 127 -68.5 199t-213.5 72h-148v-512zM356 815h127q254 0 254 229q0 72 -21.5 118t-56 72t-81 36t-97.5 10q-31 0 -62.5 -2t-62.5 -6v-457z" />
<glyph unicode="C" horiz-adv-x="960" d="M113 731q0 199 37.5 336t105.5 223t160 124t200 38q90 0 168 -23.5t127 -58.5l-55 -153q-49 33 -105.5 53t-129.5 20q-164 0 -238 -136t-74 -423q0 -289 78 -444.5t254 -155.5q84 0 136 20.5t102 53.5l51 -146q-47 -37 -124 -63.5t-177 -26.5q-250 0 -383 186.5 t-133 575.5z" />
<glyph unicode="D" horiz-adv-x="1179" d="M170 23v1376q78 16 151.5 26.5t141.5 10.5q139 0 250.5 -39t190.5 -125t121 -224t42 -337t-42 -337t-121 -224.5t-190.5 -125t-248.5 -38.5q-139 0 -295 37zM354 158q31 -4 59.5 -6t55.5 -2q109 0 184.5 30.5t123.5 97t70.5 173t22.5 260.5q0 152 -22.5 258t-69.5 173.5 t-123.5 98.5t-183.5 31q-29 0 -57.5 -2t-59.5 -6v-1106z" />
<glyph unicode="E" horiz-adv-x="933" d="M172 0v1419h637v-157h-453v-441h410v-153h-410v-510h486v-158h-670z" />
<glyph unicode="F" horiz-adv-x="872" d="M172 0v1419h637v-157h-453v-447h402v-153h-402v-662h-184z" />
<glyph unicode="G" horiz-adv-x="1075" d="M113 711q0 201 36.5 342t105.5 230t166 129t218 40q92 0 168 -25.5t123 -58.5l-58 -154q-47 33 -102 54.5t-127 21.5q-178 0 -256 -144.5t-78 -434.5q0 -156 23.5 -266.5t66.5 -180t104.5 -102.5t137.5 -33q63 0 109 14v555h184v-667q-55 -27 -137 -45.5t-172 -18.5 q-111 0 -205 44t-163 135.5t-106.5 231.5t-37.5 333z" />
<glyph unicode="H" horiz-adv-x="1179" d="M172 0v1419h184v-600h467v600h185v-1419h-185v659h-467v-659h-184z" />
<glyph unicode="I" horiz-adv-x="528" d="M172 0v1419h184v-1419h-184z" />
<glyph unicode="J" horiz-adv-x="808" d="M10 59l62 146q35 -27 93 -50.5t114 -23.5q43 0 76.5 10.5t58 38t37 75.5t12.5 122v1042h184v-1042q0 -94 -19.5 -169t-61.5 -128t-110.5 -82t-166.5 -29q-78 0 -149.5 23.5t-129.5 66.5z" />
<glyph unicode="K" horiz-adv-x="1054" d="M172 0v1419h184v-626q53 68 112.5 153.5t118 171.5t110 165t85.5 136h201q-45 -70 -101.5 -153.5t-115.5 -172.5t-119.5 -175.5t-116.5 -159.5q61 -61 133 -154.5t141.5 -197t131 -210t98.5 -196.5h-207q-43 94 -99 192.5t-118.5 189.5t-127 169t-126.5 131v-682h-184z " />
<glyph unicode="L" horiz-adv-x="854" d="M172 0v1419h184v-1261h449v-158h-633z" />
<glyph unicode="M" horiz-adv-x="1486" d="M141 0q6 184 12.5 371.5t15.5 369t20.5 353.5t25.5 325h182q37 -88 84 -210t95.5 -255t93.5 -266t78 -244q33 111 75.5 244t90 266t93.5 255t83 210h182q14 -154 25.5 -325.5t20.5 -353t15 -369t13 -371.5h-177q-4 135 -7 284.5t-8 300t-11 293t-15 261.5 q-18 -51 -45.5 -128t-57.5 -167t-61.5 -185.5t-59 -183.5t-49 -160.5t-34.5 -117.5h-155q-41 147 -84 282t-83 255t-77 218.5t-68 171.5q-8 -117 -13 -257t-10 -287.5t-8.5 -296t-5.5 -283.5h-176z" />
<glyph unicode="N" horiz-adv-x="1189" d="M172 0v1419h154q78 -127 150.5 -260t138 -263t124 -256t107.5 -239v1018h172v-1419h-150q-49 121 -111.5 261t-131 282.5t-140 283t-141.5 260.5v-1087h-172z" />
<glyph unicode="O" horiz-adv-x="1239" d="M115 709q0 166 30.5 303t93 234t158 151.5t224.5 54.5t224 -54.5t157.5 -151.5t92 -234t29.5 -303t-29.5 -302.5t-92 -233.5t-157.5 -150.5t-224 -53.5t-224.5 53.5t-158 150.5t-93 233.5t-30.5 302.5zM311 709q0 -129 17.5 -235.5t54.5 -182.5t95.5 -118t142.5 -42 t142 42t95 118t53.5 182.5t16.5 235.5t-16.5 235.5t-53.5 183t-95 119.5t-142 43t-142.5 -43t-95.5 -119.5t-54.5 -183t-17.5 -235.5z" />
<glyph unicode="P" horiz-adv-x="993" d="M172 0v1399q143 35 281 35q106 0 193 -26t149.5 -80t96.5 -140t34 -207q0 -123 -35 -210t-98.5 -141.5t-152.5 -79t-198 -24.5h-86v-526h-184zM356 688h74q70 0 126 15.5t95 50t59.5 90t20.5 137.5t-20.5 138.5t-56.5 90t-87 48t-112 14.5q-53 0 -99 -6v-578z" />
<glyph unicode="Q" horiz-adv-x="1239" d="M115 709q0 166 30.5 303t93 234t158 151.5t224.5 54.5t224 -54.5t157.5 -151.5t92 -234t29.5 -303q0 -145 -23.5 -268.5t-70.5 -217.5t-120.5 -156.5t-172.5 -84.5q4 -86 92.5 -134.5t227.5 -72.5l-43 -144q-82 18 -157 41t-135 60t-102 94t-61 147q-115 12 -197.5 70.5 t-138 155t-82 225.5t-26.5 285zM311 709q0 -129 17.5 -235.5t54.5 -182.5t95.5 -118t142.5 -42t142 42t95 118t53.5 182.5t16.5 235.5t-16.5 235.5t-53.5 183t-95 119.5t-142 43t-142.5 -43t-95.5 -119.5t-54.5 -183t-17.5 -235.5z" />
<glyph unicode="R" horiz-adv-x="1052" d="M172 0v1399q143 35 277 35q106 0 192 -25t147.5 -78t95.5 -137t34 -203q0 -147 -56.5 -238t-152.5 -139q25 -41 62.5 -111.5t77.5 -155.5t78 -175t64 -172h-184q-23 61 -56.5 139t-70.5 155t-74 147.5t-65 119.5q-33 -4 -68 -6t-70 -2h-51v-553h-180zM352 705h78 q141 0 217 64.5t76 221.5q0 80 -19.5 134.5t-55.5 86t-86 46t-111 14.5q-53 0 -99 -6v-561z" />
<glyph unicode="S" horiz-adv-x="819" d="M51 51l58 148q53 -33 109 -52.5t130 -19.5q111 0 171.5 61.5t60.5 165.5q0 55 -18.5 98.5t-48.5 78t-68.5 63.5t-79.5 57q-47 33 -98.5 70t-93.5 86t-68.5 114.5t-26.5 153.5q0 86 29.5 155.5t82 119t125 76t156.5 26.5q82 0 151.5 -20.5t116.5 -49.5l-57 -145 q-43 29 -93 44t-106 15q-100 0 -160.5 -54t-60.5 -159q0 -57 19.5 -100t51.5 -78t74 -63.5t89 -59.5t96 -67.5t89 -84.5t65.5 -112.5t25.5 -152.5q0 -80 -24.5 -152t-77 -126t-131 -86t-185.5 -32q-98 0 -171.5 22.5t-131.5 59.5z" />
<glyph unicode="T" horiz-adv-x="872" d="M29 1262v157h815v-157h-316v-1262h-184v1262h-315z" />
<glyph unicode="U" horiz-adv-x="1124" d="M160 438v981h184v-964q0 -162 47 -243t170 -81q127 0 173 83t46 241v964h185v-981q0 -240 -102.5 -354.5t-305.5 -114.5q-199 0 -298 113t-99 356z" />
<glyph unicode="V" horiz-adv-x="1017" d="M41 1419h192q27 -158 60 -316.5t69.5 -312t74.5 -298t75 -273.5q37 129 75 273.5t74.5 298t69.5 312.5t60 316h186q-45 -225 -90 -416.5t-91 -363.5t-93.5 -328.5t-94.5 -310.5h-198q-47 154 -94.5 310.5t-93.5 328.5t-91 363.5t-90 416.5z" />
<glyph unicode="W" horiz-adv-x="1548" d="M82 1419h186q12 -164 30.5 -326.5t40 -317t44.5 -295t47 -255.5q31 104 65.5 231.5t68.5 262.5t64.5 272t57.5 260h182q27 -123 57.5 -260t64.5 -272t69 -262t65 -232q25 115 47.5 255.5t44 294t40 317t30.5 327.5h180q-47 -412 -105 -758t-136 -661h-187 q-31 100 -66.5 223t-70.5 255t-67.5 267.5t-59.5 262.5q-27 -127 -59.5 -262.5t-67.5 -267.5t-70.5 -255t-66.5 -223h-186q-78 315 -136.5 661.5t-105.5 757.5z" />
<glyph unicode="X" horiz-adv-x="964" d="M37 0q29 80 69.5 172t86 189.5t91.5 195.5t89 188l-328 674h188l246 -520l244 520h184l-323 -659q43 -92 91 -191.5t94 -199t87 -193.5t72 -176h-183q-23 61 -52 134t-65 148.5t-74 154.5t-75 153q-37 -74 -75.5 -153t-73.5 -154.5t-64.5 -148.5t-50.5 -134h-178z" />
<glyph unicode="Y" horiz-adv-x="923" d="M6 1419h199q53 -162 120.5 -342t139.5 -336q72 156 139.5 336t120.5 342h193q-35 -96 -77 -204.5t-89 -220t-96.5 -222t-98.5 -211.5v-561h-184v549q-49 100 -100.5 212.5t-98.5 225.5t-90 223.5t-78 208.5z" />
<glyph unicode="Z" horiz-adv-x="884" d="M63 0v113q31 82 72 180t88 203.5t97.5 212t100.5 207t96 189.5t85 157h-512v157h709v-145q-61 -109 -137 -255.5t-151 -301t-141.5 -302t-109.5 -257.5h553v-158h-750z" />
<glyph unicode="[" horiz-adv-x="575" d="M193 -379v1983h370v-140h-203v-1704h203v-139h-370z" />
<glyph unicode="\" horiz-adv-x="552" d="M-53 1604h164l495 -1983h-164z" />
<glyph unicode="]" horiz-adv-x="575" d="M12 -240h203v1704h-203v140h371v-1983h-371v139z" />
<glyph unicode="^" d="M61 698l293 721h174l293 -721l-147 -59l-232 584l-231 -584z" />
<glyph unicode="_" horiz-adv-x="751" d="M-8 -223h768v-150h-768v150z" />
<glyph unicode="`" horiz-adv-x="643" d="M57 1487l125 106l242 -325l-88 -76z" />
<glyph unicode="a" horiz-adv-x="888" d="M84 311q0 84 25.5 146.5t70.5 104.5t106.5 63.5t133.5 21.5q68 0 149 -16v98q0 119 -46 166t-132 47q-47 0 -89 -9t-89 -30l-37 150q53 23 112.5 36t129.5 13q143 0 233 -89t90 -278v-712q-74 -20 -150.5 -33t-150.5 -13t-138 18.5t-112.5 59.5t-77 103.5t-28.5 152.5z M260 313q0 -94 49 -139t140 -45q55 0 120 14v342q-61 16 -120 17q-39 0 -74 -9.5t-60.5 -31t-40 -57.5t-14.5 -91z" />
<glyph unicode="b" horiz-adv-x="956" d="M158 29v1530l176 30v-522q33 16 66.5 25.5t80.5 9.5q100 0 172 -40t117 -112.5t66.5 -176t21.5 -232.5q0 -285 -101.5 -426.5t-318.5 -141.5q-76 0 -149.5 15.5t-130.5 40.5zM334 143q29 -8 55.5 -11t48.5 -3q119 0 177.5 95t58.5 317q0 115 -14.5 192.5t-42 124.5 t-66.5 67.5t-90 20.5q-68 0 -127 -33v-770z" />
<glyph unicode="c" horiz-adv-x="722" d="M98 535q0 266 97.5 416.5t293.5 150.5q59 0 106.5 -14.5t88.5 -36.5l-45 -146q-63 41 -141 41q-111 0 -163 -100.5t-52 -310.5q0 -88 10 -163t35.5 -128.5t67.5 -84t108 -30.5q45 0 81 11.5t68 29.5l39 -137q-33 -23 -87.5 -41.5t-117.5 -18.5q-111 0 -184.5 43 t-119.5 118t-65.5 177.5t-19.5 223.5z" />
<glyph unicode="d" horiz-adv-x="956" d="M98 541q0 129 21.5 232.5t67.5 176t118 112.5t170 40q47 0 81 -9.5t67 -25.5v492l176 30v-1560q-57 -25 -131 -40.5t-150 -15.5q-221 0 -320.5 141.5t-99.5 426.5zM283 541q0 -221 58 -316.5t177 -95.5q23 0 49.5 3t55.5 11v770q-59 33 -127 33q-51 0 -90 -20.5 t-67 -67.5t-42 -125t-14 -192z" />
<glyph unicode="e" horiz-adv-x="892" d="M100 530q0 297 98.5 434.5t260.5 137.5q182 0 258 -137.5t76 -384.5v-46.5t-2 -48.5h-510q2 -78 14 -142t39.5 -112.5t74 -75t117.5 -26.5q59 0 109.5 17.5t73.5 29.5l32 -141q-27 -18 -89 -40t-148 -22q-113 0 -189.5 41t-125 115t-69 176.5t-20.5 224.5zM283 629h325 q0 150 -30.5 236.5t-118.5 86.5t-128 -88t-48 -235z" />
<glyph unicode="f" horiz-adv-x="626" d="M160 0v1225q0 174 77.5 269t235.5 95q59 0 104.5 -12t73.5 -27l-37 -139q-29 14 -59.5 21.5t-65.5 7.5q-47 0 -77.5 -16.5t-47 -45t-22.5 -68.5t-6 -85v-150h276v-151h-276v-924h-176z" />
<glyph unicode="g" horiz-adv-x="956" d="M98 545q0 129 23.5 232.5t74 176t130.5 110.5t194 38q76 0 148.5 -15.5t130.5 -39.5v-1016q0 -115 -30 -194t-81 -128t-119.5 -71.5t-146.5 -22.5q-66 0 -131.5 14.5t-120.5 42.5l37 148q37 -20 90 -36.5t111 -16.5q100 0 157.5 57t57.5 196v52q-33 -14 -70 -23.5 t-84 -9.5q-193 0 -282 132t-89 374zM283 545q0 -193 55 -271.5t158 -78.5q35 0 66.5 8t60.5 22v707q-29 8 -55.5 11t-49.5 3q-123 0 -179 -94t-56 -307z" />
<glyph unicode="h" horiz-adv-x="987" d="M160 0v1559l176 30v-520q39 12 85 20.5t93 8.5q68 0 127 -21.5t103 -73t70 -138.5t26 -216v-649h-176v635q0 160 -41 233.5t-154 73.5q-59 0 -133 -20v-922h-176z" />
<glyph unicode="i" horiz-adv-x="495" d="M133 1382q0 53 34 85t81 32t80.5 -31.5t33.5 -85.5q0 -53 -33.5 -84.5t-80.5 -31.5t-81 31.5t-34 84.5zM160 0v1075h176v-1075h-176z" />
<glyph unicode="j" horiz-adv-x="495" d="M-70 -365l25 150q18 -4 36.5 -7t41.5 -3q29 0 52.5 7t39.5 27.5t25.5 55.5t9.5 88v1122h176v-1132q0 -176 -78 -252t-207 -76q-68 0 -121 20zM133 1382q0 53 34 85t81 32t80.5 -31.5t33.5 -85.5q0 -53 -33.5 -84.5t-80.5 -31.5t-81 31.5t-34 84.5z" />
<glyph unicode="k" horiz-adv-x="874" d="M160 0v1559l176 30v-977q37 49 79 110.5t83 124t77.5 122t61.5 106.5h188q-86 -147 -164.5 -269t-156.5 -228q49 -57 100 -129t98.5 -149t88 -153.5t69.5 -146.5h-192q-31 68 -72 141.5t-86 144t-90 134t-84 106.5v-526h-176z" />
<glyph unicode="l" horiz-adv-x="497" d="M156 279v1280l176 30v-1315q0 -72 28.5 -103.5t100.5 -43.5l-23 -147q-152 4 -217 74.5t-65 224.5z" />
<glyph unicode="m" horiz-adv-x="1429" d="M160 0v1044q72 23 155.5 38.5t153.5 15.5q72 0 130 -18.5t103 -61.5q53 35 115 57.5t135 22.5q74 0 134.5 -21.5t103.5 -73t67.5 -138.5t24.5 -216v-649h-176v635q0 160 -37 233.5t-139 73.5q-39 0 -79 -14.5t-75 -38.5q16 -47 24.5 -106.5t8.5 -133.5v-649h-176v635 q0 160 -37 233.5t-139 73.5q-53 0 -121 -20v-922h-176z" />
<glyph unicode="n" horiz-adv-x="987" d="M160 0v1044q76 23 164 38.5t161 15.5q80 0 145.5 -21.5t111.5 -73t72 -138.5t26 -216v-649h-176v635q0 160 -41 233.5t-154 73.5q-59 0 -133 -20v-922h-176z" />
<glyph unicode="o" horiz-adv-x="948" d="M98 537q0 125 22.5 229t69 179t118 116t167.5 41t167 -41t117 -116t68.5 -179t22.5 -229q0 -127 -22.5 -230.5t-68.5 -177.5t-117 -115t-167 -41t-167.5 41t-118 115t-69 177.5t-22.5 230.5zM283 537q0 -90 10 -165t33.5 -128.5t59.5 -83t89 -29.5q51 0 88 29.5t59.5 83 t33 128.5t10.5 165t-10.5 164.5t-33 129t-59.5 84t-88 29.5q-53 0 -89 -29.5t-59.5 -84t-33.5 -129t-10 -164.5z" />
<glyph unicode="p" horiz-adv-x="956" d="M158 -379v1426q57 25 129.5 40t148.5 15q113 0 194 -39t131 -111.5t73.5 -178t23.5 -241.5q0 -272 -87 -415.5t-284 -143.5q-47 0 -83.5 9.5t-69.5 25.5v-387h-176zM334 162q59 -33 127 -33q51 0 90 20.5t66.5 67.5t42 125t14.5 193q0 221 -56.5 316t-179.5 95 q-23 0 -49.5 -3t-54.5 -11v-770z" />
<glyph unicode="q" horiz-adv-x="956" d="M98 532q0 135 23.5 241t74 178.5t130.5 111.5t194 39q76 0 148.5 -15.5t130.5 -39.5v-1426h-176v387q-33 -16 -70 -25.5t-84 -9.5q-197 0 -284 143.5t-87 415.5zM283 535q0 -115 14 -193t42 -125t66.5 -67.5t90.5 -20.5q68 0 127 33v770q-29 8 -55.5 11t-49.5 3 q-123 0 -179 -95t-56 -316z" />
<glyph unicode="r" horiz-adv-x="671" d="M160 0v1028q59 29 136 48.5t169 19.5q49 0 98 -6.5t92 -22.5l-30 -152q-66 29 -148 29q-76 0 -141 -26v-918h-176z" />
<glyph unicode="s" horiz-adv-x="698" d="M74 37l37 145q31 -16 83 -36.5t115 -20.5q78 0 118 44t40 116q0 45 -16.5 76.5t-43 56t-61.5 44t-70 42.5q-35 20 -67.5 48t-58 63.5t-41 81.5t-15.5 108q0 133 83 215t224 82q59 0 112.5 -15.5t88.5 -33.5l-39 -142q-37 20 -73.5 30.5t-79.5 10.5q-66 0 -105 -37.5 t-39 -109.5q0 -41 14.5 -70.5t38 -53.5t53 -44.5t62.5 -38.5q39 -23 77 -49.5t67.5 -62t48 -84t18.5 -115.5q0 -141 -83 -227.5t-243 -86.5q-82 0 -147.5 22.5t-97.5 41.5z" />
<glyph unicode="t" horiz-adv-x="657" d="M147 344v1020l177 31v-320h270v-151h-270v-592q0 -111 39.5 -155t107.5 -44q35 0 66.5 10.5t54.5 24.5l35 -141q-84 -49 -178 -50q-152 0 -227 85t-75 282z" />
<glyph unicode="u" horiz-adv-x="983" d="M145 414v661h177v-655q0 -158 48 -222.5t146 -64.5q33 0 65.5 3t67.5 14v925h176v-1044q-27 -10 -64.5 -19.5t-79.5 -16.5t-84 -12.5t-77 -5.5q-84 0 -153.5 19.5t-118.5 69t-76 134.5t-27 214z" />
<glyph unicode="v" horiz-adv-x="813" d="M31 1075h186q16 -96 40 -213t49.5 -234.5t52 -228t51.5 -192.5q25 82 52 192.5t54 228t50.5 234.5t39.5 213h176q-27 -135 -62.5 -284.5t-73.5 -294t-77 -273.5t-71 -223h-183q-33 94 -71.5 223t-76.5 273.5t-74 294t-62 284.5z" />
<glyph unicode="w" horiz-adv-x="1173" d="M41 1075h174q8 -88 24.5 -205.5t36 -241.5t40 -240t38.5 -198q18 82 42 201t47.5 244t44 242.5t32.5 197.5h166q8 -80 25.5 -196.5t37 -242.5t40 -245t36.5 -201q18 82 39 199t40.5 240t35.5 240.5t25 205.5h168q-47 -315 -103.5 -589.5t-120.5 -485.5h-172 q-16 63 -35.5 162.5t-39 212t-36 226.5t-28.5 208q-12 -94 -32.5 -208t-43 -226.5t-44.5 -212t-36 -162.5h-178q-63 211 -119.5 485.5t-103.5 589.5z" />
<glyph unicode="x" horiz-adv-x="802" d="M31 0q23 68 56.5 140.5t70.5 146t74.5 144.5t72.5 134l-264 510h178l184 -364l187 364h172l-264 -506q35 -63 72.5 -135t74.5 -145.5t70 -147t57 -141.5h-174q-41 119 -95 226.5t-108 201.5q-51 -94 -103 -201.5t-93 -226.5h-168z" />
<glyph unicode="y" horiz-adv-x="811" d="M2 -356l33 143q53 -23 100 -23q59 0 96 43t72 130l21 51q-39 106 -79 236t-78 271.5t-73 290t-63 289.5h186q16 -96 39 -210.5t48.5 -229.5t52 -222.5t51.5 -189.5q59 205 108 412t94 440h174q-31 -150 -66.5 -295t-73.5 -280t-76 -255t-70 -218q-39 -115 -75 -194 t-78 -127t-91 -69.5t-117 -21.5q-37 0 -73.5 9t-61.5 20z" />
<glyph unicode="z" horiz-adv-x="729" d="M68 0v127q33 90 84 200.5t107 221t110.5 210t93.5 165.5h-371v151h561v-131q-45 -76 -102 -180.5t-113.5 -214t-106.5 -215t-81 -182.5h418v-152h-600z" />
<glyph unicode="{" horiz-adv-x="544" d="M76 545v135q68 8 100.5 72.5t32.5 179.5v352q0 176 83 248t240 72v-138q-86 0 -120.5 -44t-34.5 -136v-350q0 -240 -141 -324q141 -84 141 -323v-350q0 -92 34.5 -136.5t120.5 -44.5v-137q-158 0 -240.5 71.5t-82.5 248.5v352q0 115 -33 179.5t-100 72.5z" />
<glyph unicode="|" horiz-adv-x="550" d="M193 -379v1983h165v-1983h-165z" />
<glyph unicode="}" horiz-adv-x="544" d="M12 -242q86 0 121 44t35 137v350q0 240 141 323q-141 84 -141 324v350q0 92 -35 136t-121 44v138q158 0 241 -72t83 -248v-352q0 -115 32.5 -179.5t100.5 -72.5v-135q-68 -8 -100.5 -72.5t-32.5 -179.5v-352q0 -176 -83 -248t-241 -72v137z" />
<glyph unicode="~" d="M51 500q6 45 21.5 93t43 87t70 64.5t101.5 25.5q55 0 98 -23.5t79 -53t67.5 -53.5t66.5 -24q49 0 71.5 41t39.5 107l120 -37q-6 -45 -21 -93t-43 -87t-70 -64.5t-103 -25.5q-55 0 -97 23.5t-78 53t-69 53t-65 23.5q-43 0 -69 -41t-42 -106z" />
<glyph unicode="&#xa1;" horiz-adv-x="538" d="M147 979q0 49 33 86t88 37t89 -37t34 -86q0 -47 -33.5 -84t-89.5 -37q-55 0 -88 37t-33 84zM174 43q0 172 12.5 312.5t30.5 279.5h105q18 -139 30.5 -279.5t12.5 -312.5v-422h-191v422z" />
<glyph unicode="&#xa2;" d="M147 598q0 207 64.5 341t200.5 179v285h161v-264q53 -4 94.5 -18.5t80.5 -33.5l-46 -145q-33 20 -67.5 30.5t-79.5 10.5q-117 0 -170 -93t-53 -292q0 -84 10 -153.5t35.5 -120t71 -79t112.5 -28.5q47 0 84 11.5t72 29.5l39 -137q-31 -23 -78 -39t-105 -21v-268h-161v287 q-74 23 -124 71t-82 115.5t-45.5 151.5t-13.5 180z" />
<glyph unicode="&#xa3;" d="M90 621v141h141v297q0 94 27 166.5t75 122t113.5 74t143.5 24.5q66 0 120 -15.5t89 -37.5l-41 -148q-33 20 -73 32.5t-79 12.5q-96 0 -147 -60.5t-51 -174.5v-293h286v-141h-286v-27q0 -100 -9.5 -219t-25.5 -223h448v-152h-643q25 143 39 286.5t14 293.5v41h-141z" />
<glyph unicode="&#xa4;" d="M61 328l119 164q-43 92 -43 221q0 127 45 223l-121 166l119 102l105 -145q72 45 157 45q88 0 156 -45l107 145l118 -102l-121 -166q45 -96 46 -223q0 -125 -46 -221l121 -164l-118 -103l-105 142q-68 -45 -158 -45q-88 0 -159 45l-103 -142zM281 713q0 -121 43 -187.5 t118 -66.5q76 0 119 66.5t43 187.5t-43 187.5t-119 66.5t-118.5 -66.5t-42.5 -187.5z" />
<glyph unicode="&#xa5;" d="M25 1419h174q25 -80 54.5 -165t61 -170t64.5 -165.5t63 -150.5q31 70 64 150.5t64.5 165.5t61.5 170t54 165h168q-53 -154 -117.5 -325.5t-152.5 -382.5h188v-136h-242v-192h242v-135h-242v-248h-176v248h-248v135h248v192h-248v136h189q-90 211 -153.5 383t-116.5 325z " />
<glyph unicode="&#xa6;" horiz-adv-x="550" d="M193 -379v785h165v-785h-165zM193 819v785h165v-785h-165z" />
<glyph unicode="&#xa7;" horiz-adv-x="819" d="M84 631q0 109 49 185.5t111 117.5q-47 41 -77 95t-30 132q0 70 25.5 124t69.5 91t102.5 56.5t124.5 19.5q80 0 140 -18.5t110 -47.5l-43 -133q-35 20 -85.5 37t-109.5 17q-70 0 -118 -37t-48 -109q0 -41 16.5 -72.5t43 -56t62.5 -44t73 -40.5q43 -23 85 -52.5t75.5 -69.5 t55 -91t21.5 -119q0 -104 -43 -179t-102 -118q49 -41 81 -97t32 -142q0 -72 -26 -128t-72 -95t-109.5 -59.5t-139.5 -20.5q-78 0 -147.5 17.5t-120.5 45.5l35 135q113 -53 233 -53q74 0 125.5 40t51.5 114q0 45 -13.5 75.5t-39 53t-61.5 42t-79 42.5q-45 23 -91 50.5t-83 66 t-60.5 93t-23.5 132.5zM246 649q0 -53 17.5 -91t45 -65.5t64.5 -48t78 -38.5l34 -19q90 78 90 211q0 47 -14 82t-38.5 61.5t-56.5 48t-67 41.5q-16 8 -30.5 16.5t-30.5 18.5q-43 -37 -67.5 -94t-24.5 -123z" />
<glyph unicode="&#xa8;" horiz-adv-x="643" d="M37 1382q0 53 33.5 85t81.5 32q47 0 80.5 -31.5t33.5 -85.5q0 -53 -33.5 -84.5t-80.5 -31.5t-81 31.5t-34 84.5zM377 1382q0 53 33.5 85t81.5 32q47 0 80.5 -31.5t33.5 -85.5q0 -53 -33.5 -84.5t-80.5 -31.5t-81 31.5t-34 84.5z" />
<glyph unicode="&#xa9;" horiz-adv-x="1456" d="M129 713q0 180 49 317t132 231.5t191.5 142.5t227.5 48t226.5 -48t190.5 -142.5t132 -231.5t49 -317t-49 -318.5t-132 -232.5t-190.5 -143.5t-226.5 -49.5t-227.5 49.5t-191.5 143.5t-132 232t-49 319zM268 713q0 -143 34 -258t95.5 -195t146.5 -122t185 -42t184 42 t145.5 122t95.5 195t34 258t-34 256.5t-95.5 192.5t-145.5 121t-184 42t-185 -42t-146.5 -121t-95.5 -192.5t-34 -256.5zM438 713q0 203 85 311.5t233 108.5q102 0 194 -56l-32 -116q-33 18 -74 31.5t-80 13.5q-84 0 -132 -73t-48 -220t50 -220t136 -73q39 0 81 13t77 32 l33 -117q-96 -55 -199 -55q-152 0 -238 108.5t-86 311.5z" />
<glyph unicode="&#xaa;" horiz-adv-x="649" d="M74 909q0 61 19.5 104.5t53 71t77.5 41t93 13.5t97 -13v70q0 57 -27 92t-94 35q-37 0 -74 -9t-65 -24l-19 119q33 14 81 25.5t97 11.5q66 0 110 -19.5t71.5 -53.5t39 -80t11.5 -99v-487q-41 -12 -96.5 -22.5t-116.5 -10.5q-117 0 -187.5 56t-70.5 179zM207 909 q0 -63 33.5 -90.5t95.5 -27.5q43 0 78 10v213q-20 4 -42 6t-44 2q-43 0 -82 -23.5t-39 -89.5z" />
<glyph unicode="&#xab;" horiz-adv-x="927" d="M57 582l262 452l136 -59l-193 -393l193 -394l-136 -59zM444 582l263 452l135 -59l-193 -393l193 -394l-135 -59z" />
<glyph unicode="&#xac;" d="M47 657v150h705v-535h-152v385h-553z" />
<glyph unicode="&#xad;" horiz-adv-x="477" d="M49 530v166h379v-166h-379z" />
<glyph unicode="&#xae;" horiz-adv-x="1456" d="M129 713q0 180 49 317t132 231.5t191.5 142.5t227.5 48t226.5 -48t190.5 -142.5t132 -231.5t49 -317t-49 -318.5t-132 -232.5t-190.5 -143.5t-226.5 -49.5t-227.5 49.5t-191.5 143.5t-132 232t-49 319zM268 713q0 -143 34 -258t95.5 -195t146.5 -122t185 -42t184 42 t145.5 122t95.5 195t34 258t-34 256.5t-95.5 192.5t-145.5 121t-184 42t-185 -42t-146.5 -121t-95.5 -192.5t-34 -256.5zM506 307v787q47 14 97 21t91 7q285 0 285 -260q0 -145 -125 -215l6 -12q16 -27 38 -65t43.5 -82t40.5 -91t34 -90h-142q-37 96 -78.5 177t-70.5 128 h-84v-305h-135zM641 723h51q61 0 103.5 27.5t42.5 111.5q0 78 -40 110t-93 32q-16 0 -32 -1.5t-32 -3.5v-276z" />
<glyph unicode="&#xaf;" horiz-adv-x="643" d="M102 1317v139h437v-139h-437z" />
<glyph unicode="&#xb0;" horiz-adv-x="589" d="M49 1305q0 57 19.5 102t53.5 77t79 48t94 16t93 -16t78 -48t54.5 -77t20.5 -102t-20.5 -102.5t-54.5 -77t-78 -48t-93 -16.5t-94 16.5t-79 48t-53.5 76.5t-19.5 103zM176 1305q0 -59 35 -92t84 -33t84 33t35 92t-35 92t-84 33t-84 -33t-35 -92z" />
<glyph unicode="&#xb1;" d="M88 -31v150h705v-150h-705zM88 551v149h277v295h151v-295h277v-149h-277v-297h-151v297h-277z" />
<glyph unicode="&#xb2;" horiz-adv-x="573" d="M66 1358q47 35 97 54.5t107 19.5q96 0 157.5 -57.5t61.5 -155.5q0 -49 -15 -92.5t-38.5 -81t-51.5 -71.5t-52 -63q-29 -35 -55.5 -72.5t-36.5 -78.5h260v-133h-430v35q0 53 15 100t38.5 88t53.5 79t59 72q53 66 81.5 111t28.5 92q0 49 -27.5 72.5t-64.5 23.5 q-31 0 -64.5 -14t-62.5 -37z" />
<glyph unicode="&#xb3;" horiz-adv-x="573" d="M49 664l41 122q35 -23 66.5 -33t70.5 -10q55 0 90 32t35 83q0 66 -46 95.5t-99 29.5h-49v121h57q18 0 38.5 5t39 17.5t31 33t12.5 50.5q0 47 -27.5 70t-72.5 23q-35 0 -67 -12.5t-65 -35.5l-49 111q43 31 90.5 48.5t100.5 17.5q57 0 100 -17.5t71.5 -45.5t42 -62.5 t13.5 -71.5q0 -66 -26.5 -108t-67.5 -74q53 -29 85 -82t32 -119q0 -47 -16.5 -90t-50.5 -77t-84 -53.5t-118 -19.5q-92 0 -178 52z" />
<glyph unicode="&#xb4;" horiz-adv-x="643" d="M219 1268l242 325l125 -106l-279 -295z" />
<glyph unicode="&#xb5;" horiz-adv-x="999" d="M160 -379v1454h176v-694q0 -129 48 -188.5t146 -59.5q33 0 66 3t68 14v925h176v-1044q-27 -10 -65 -19.5t-77 -16.5t-76.5 -12.5t-64.5 -5.5q-78 0 -134 16.5t-97 59.5q4 -66 7 -134.5t3 -141.5v-156h-176z" />
<glyph unicode="&#xb6;" horiz-adv-x="1085" d="M84 983q0 223 137 337t371 114q66 0 142.5 -8.5t148.5 -30.5v-1774h-148v1657q-23 4 -50 6t-62 2h-18.5t-16.5 -2v-1663h-148v920q-170 29 -263 139.5t-93 302.5z" />
<glyph unicode="&#xb7;" horiz-adv-x="464" d="M111 602q0 49 32.5 86t87.5 37t89 -37t34 -86q0 -47 -33.5 -84t-89.5 -37q-55 0 -87.5 37t-32.5 84z" />
<glyph unicode="&#xb8;" horiz-adv-x="643" d="M111 -365l20 113q20 -4 43 -9t47 -5q37 0 63.5 11t26.5 44q0 23 -22.5 39t-83.5 29q16 47 41.5 102t42.5 82h125q-12 -23 -29.5 -58.5t-30.5 -64.5q59 -23 84 -58.5t25 -82.5q0 -78 -61.5 -121t-151.5 -43q-31 0 -68 5t-71 17z" />
<glyph unicode="&#xb9;" horiz-adv-x="573" d="M66 1247q59 33 118.5 76t108.5 96h104v-792h-143v592q-70 -53 -133 -80z" />
<glyph unicode="&#xba;" horiz-adv-x="745" d="M84 1067q0 199 81 293t208 94t208 -94t81 -293q0 -195 -81 -291t-208 -96t-208 95t-81 292zM227 1067q0 -133 38 -196.5t108 -63.5t107.5 63.5t37.5 196.5q0 135 -38 197.5t-107 62.5q-68 0 -107 -62.5t-39 -197.5z" />
<glyph unicode="&#xbb;" horiz-adv-x="927" d="M86 188l193 394l-193 393l135 59l262 -452l-262 -453zM473 188l193 394l-193 393l135 59l262 -452l-262 -453z" />
<glyph unicode="&#xbc;" horiz-adv-x="1445" d="M54 1247q59 33 118.5 76t108.5 96h104v-792h-143v592q-70 -53 -133 -80zM347 0l579 1419h154l-580 -1419h-153zM874 196v78q86 274 246 520h147v-479h86v-119h-86v-194h-131v194h-262zM997 315h141v307q-35 -59 -71.5 -141t-69.5 -166z" />
<glyph unicode="&#xbd;" horiz-adv-x="1445" d="M54 1247q59 33 118.5 76t108.5 96h104v-792h-143v592q-70 -53 -133 -80zM306 0l579 1419h154l-580 -1419h-153zM916 733q47 35 97 54.5t107 19.5q96 0 157.5 -57.5t61.5 -155.5q0 -49 -15 -92.5t-38.5 -81t-51.5 -71.5t-52 -63q-29 -35 -55.5 -72.5t-36.5 -78.5h260v-133 h-430v35q0 53 15 100t38.5 88t53.5 79t59 72q53 66 81.5 111t28.5 92q0 49 -27.5 72.5t-64.5 23.5q-31 0 -64.5 -14t-62.5 -37z" />
<glyph unicode="&#xbe;" horiz-adv-x="1445" d="M78 664l41 122q35 -23 66.5 -33t70.5 -10q55 0 90 32t35 83q0 66 -46 95.5t-99 29.5h-49v121h57q18 0 38.5 5t39 17.5t31 33t12.5 50.5q0 47 -27.5 70t-72.5 23q-35 0 -67 -12.5t-65 -35.5l-49 111q43 31 90.5 48.5t100.5 17.5q57 0 100 -17.5t71.5 -45.5t42 -62.5 t13.5 -71.5q0 -66 -26.5 -108t-67.5 -74q53 -29 85 -82t32 -119q0 -47 -16.5 -90t-50.5 -77t-84 -53.5t-118 -19.5q-92 0 -178 52zM367 0l579 1419h154l-580 -1419h-153zM885 196v78q86 274 246 520h147v-479h86v-119h-86v-194h-131v194h-262zM1008 315h141v307 q-35 -59 -71.5 -141t-69.5 -166z" />
<glyph unicode="&#xbf;" horiz-adv-x="700" d="M53 -66q0 72 21.5 129.5t55.5 105.5t72 92t71.5 92t55 104.5t21.5 128.5v22.5t-2 22.5h160q6 -41 6 -86q0 -72 -19.5 -127.5t-49 -100.5t-64.5 -83.5t-64.5 -80.5t-49 -91.5t-19.5 -112.5q0 -86 45 -132t125 -46q55 0 99 18t79 47l70 -135q-57 -39 -123 -62.5t-146 -23.5 q-92 0 -157.5 26.5t-106.5 70.5t-60.5 101.5t-19.5 120.5zM297 977q0 49 32.5 86t88.5 37q55 0 89 -37t34 -86q0 -47 -34 -84t-89 -37t-88 37t-33 84z" />
<glyph unicode="&#xc0;" horiz-adv-x="1030" d="M41 0q45 223 92 415.5t93 364.5t94.5 329t97.5 310h194q49 -154 97.5 -310.5t94.5 -328.5t92 -364.5t93 -415.5h-184q-16 92 -33.5 182t-36.5 180h-446q-20 -90 -36.5 -180t-33.5 -182h-178zM250 1794l125 106l242 -325l-88 -76zM324 516h374q-41 180 -88 352t-98 342 q-51 -170 -98 -342t-90 -352z" />
<glyph unicode="&#xc1;" horiz-adv-x="1030" d="M41 0q45 223 92 415.5t93 364.5t94.5 329t97.5 310h194q49 -154 97.5 -310.5t94.5 -328.5t92 -364.5t93 -415.5h-184q-16 92 -33.5 182t-36.5 180h-446q-20 -90 -36.5 -180t-33.5 -182h-178zM324 516h374q-41 180 -88 352t-98 342q-51 -170 -98 -342t-90 -352zM414 1575 l242 325l125 -106l-279 -295z" />
<glyph unicode="&#xc2;" horiz-adv-x="1030" d="M41 0q45 223 92 415.5t93 364.5t94.5 329t97.5 310h194q49 -154 97.5 -310.5t94.5 -328.5t92 -364.5t93 -415.5h-184q-16 92 -33.5 182t-36.5 180h-446q-20 -90 -36.5 -180t-33.5 -182h-178zM276 1569l236 311l235 -311l-86 -72l-149 174l-150 -174zM324 516h374 q-41 180 -88 352t-98 342q-51 -170 -98 -342t-90 -352z" />
<glyph unicode="&#xc3;" horiz-adv-x="1030" d="M41 0q45 223 92 415.5t93 364.5t94.5 329t97.5 310h194q49 -154 97.5 -310.5t94.5 -328.5t92 -364.5t93 -415.5h-184q-16 92 -33.5 182t-36.5 180h-446q-20 -90 -36.5 -180t-33.5 -182h-178zM252 1616q16 98 57.5 150t100.5 52q37 0 65.5 -14t53 -32.5t45 -33t43.5 -14.5 q18 0 31.5 20.5t25.5 73.5l103 -34q-18 -98 -58.5 -150.5t-99.5 -52.5q-35 0 -64.5 14.5t-54 32.5t-46 32.5t-42.5 14.5q-18 0 -31.5 -20.5t-25.5 -73.5zM324 516h374q-41 180 -88 352t-98 342q-51 -170 -98 -342t-90 -352z" />
<glyph unicode="&#xc4;" horiz-adv-x="1030" d="M41 0q45 223 92 415.5t93 364.5t94.5 329t97.5 310h194q49 -154 97.5 -310.5t94.5 -328.5t92 -364.5t93 -415.5h-184q-16 92 -33.5 182t-36.5 180h-446q-20 -90 -36.5 -180t-33.5 -182h-178zM230 1689q0 53 33.5 85t81.5 32q47 0 80.5 -31.5t33.5 -85.5 q0 -53 -33.5 -84.5t-80.5 -31.5t-81 31.5t-34 84.5zM324 516h374q-41 180 -88 352t-98 342q-51 -170 -98 -342t-90 -352zM570 1689q0 53 33.5 85t81.5 32q47 0 80.5 -31.5t33.5 -85.5q0 -53 -33.5 -84.5t-80.5 -31.5t-81 31.5t-34 84.5z" />
<glyph unicode="&#xc5;" horiz-adv-x="1030" d="M41 0q45 217 89 403.5t89 354.5t91 320.5t93 299.5q-29 23 -46 57.5t-17 82.5q0 80 51 127t123 47t123 -47t51 -127q0 -45 -17.5 -80t-45.5 -58q47 -147 93 -300.5t92 -320.5t90 -354.5t89 -404.5h-184q-16 92 -33.5 182t-36.5 180h-446q-20 -90 -36.5 -180t-33.5 -182 h-178zM324 516h374q-41 180 -88 352t-98 342q-51 -170 -98 -342t-90 -352zM432 1518q0 -41 23.5 -62.5t58.5 -21.5t58.5 21.5t23.5 62.5t-23.5 62.5t-58.5 21.5t-58.5 -21.5t-23.5 -62.5z" />
<glyph unicode="&#xc6;" horiz-adv-x="1492" d="M4 0q61 178 137 364.5t159 371t171 358.5t172 325h725v-157h-453v-441h410v-153h-410v-510h486v-158h-670v362h-414q-37 -92 -71.5 -183t-63.5 -179h-178zM381 516h348l2 -10v747q-92 -174 -180 -360t-170 -377z" />
<glyph unicode="&#xc7;" horiz-adv-x="960" d="M113 731q0 199 37.5 336t105.5 223t160 124t200 38q90 0 168 -23.5t127 -58.5l-55 -153q-49 33 -105.5 53t-129.5 20q-164 0 -238 -136t-74 -423q0 -289 78 -444.5t254 -155.5q84 0 136 20.5t102 53.5l51 -146q-47 -37 -124 -63.5t-177 -26.5l-23 -51q59 -23 84 -58.5 t25 -82.5q0 -78 -61.5 -121t-151.5 -43q-31 0 -68 5t-72 17l21 113q20 -4 43 -9t47 -5q37 0 63.5 11t26.5 44q0 23 -22.5 39t-83.5 29q10 29 23.5 62.5t27.5 62.5q-193 41 -294 225t-101 524z" />
<glyph unicode="&#xc8;" horiz-adv-x="933" d="M172 0v1419h637v-157h-453v-441h410v-153h-410v-510h486v-158h-670zM223 1794l125 106l242 -325l-88 -76z" />
<glyph unicode="&#xc9;" horiz-adv-x="933" d="M172 0v1419h637v-157h-453v-441h410v-153h-410v-510h486v-158h-670zM371 1575l242 325l125 -106l-279 -295z" />
<glyph unicode="&#xca;" horiz-adv-x="933" d="M172 0v1419h637v-157h-453v-441h410v-153h-410v-510h486v-158h-670zM260 1569l236 311l235 -311l-86 -72l-149 174l-150 -174z" />
<glyph unicode="&#xcb;" horiz-adv-x="933" d="M172 0v1419h637v-157h-453v-441h410v-153h-410v-510h486v-158h-670zM203 1689q0 53 33.5 85t81.5 32q47 0 80.5 -31.5t33.5 -85.5q0 -53 -33.5 -84.5t-80.5 -31.5t-81 31.5t-34 84.5zM543 1689q0 53 33.5 85t81.5 32q47 0 80.5 -31.5t33.5 -85.5q0 -53 -33.5 -84.5 t-80.5 -31.5t-81 31.5t-34 84.5z" />
<glyph unicode="&#xcc;" horiz-adv-x="528" d="M2 1794l125 106l242 -325l-88 -76zM172 0v1419h184v-1419h-184z" />
<glyph unicode="&#xcd;" horiz-adv-x="528" d="M164 1575l242 325l125 -106l-279 -295zM172 0v1419h184v-1419h-184z" />
<glyph unicode="&#xce;" horiz-adv-x="528" d="M29 1569l236 311l235 -311l-86 -72l-149 174l-150 -174zM172 0v1419h184v-1419h-184z" />
<glyph unicode="&#xcf;" horiz-adv-x="528" d="M-18 1689q0 53 33.5 85t81.5 32q47 0 80.5 -31.5t33.5 -85.5q0 -53 -33.5 -84.5t-80.5 -31.5t-81 31.5t-34 84.5zM172 0v1419h184v-1419h-184zM322 1689q0 53 33.5 85t81.5 32q47 0 80.5 -31.5t33.5 -85.5q0 -53 -33.5 -84.5t-80.5 -31.5t-81 31.5t-34 84.5z" />
<glyph unicode="&#xd0;" horiz-adv-x="1179" d="M31 643v135h139v621q78 16 151.5 26.5t141.5 10.5q137 0 248.5 -40t190.5 -127t122 -225.5t43 -332.5q0 -195 -43 -333t-122 -225t-190.5 -127t-246.5 -40q-139 0 -295 37v620h-139zM354 158q31 -4 59.5 -6t55.5 -2q211 0 306 132t95 429q0 295 -94 428t-305 133 q-29 0 -57.5 -2t-59.5 -6v-486h221v-135h-221v-485z" />
<glyph unicode="&#xd1;" horiz-adv-x="1189" d="M172 0v1419h154q78 -127 150.5 -260t138 -263t124 -256t107.5 -239v1018h172v-1419h-150q-49 121 -111.5 261t-131 282.5t-140 283t-141.5 260.5v-1087h-172zM333 1616q16 98 57.5 150t100.5 52q37 0 65.5 -14t53 -32.5t45 -33t43.5 -14.5q18 0 31.5 20.5t25.5 73.5 l103 -34q-18 -98 -58.5 -150.5t-99.5 -52.5q-35 0 -64.5 14.5t-54 32.5t-46 32.5t-42.5 14.5q-18 0 -31.5 -20.5t-25.5 -73.5z" />
<glyph unicode="&#xd2;" horiz-adv-x="1239" d="M115 709q0 166 30.5 303t93 234t158 151.5t224.5 54.5t224 -54.5t157.5 -151.5t92 -234t29.5 -303t-29.5 -302.5t-92 -233.5t-157.5 -150.5t-224 -53.5t-224.5 53.5t-158 150.5t-93 233.5t-30.5 302.5zM311 709q0 -129 17.5 -235.5t54.5 -182.5t95.5 -118t142.5 -42 t142 42t95 118t53.5 182.5t16.5 235.5t-16.5 235.5t-53.5 183t-95 119.5t-142 43t-142.5 -43t-95.5 -119.5t-54.5 -183t-17.5 -235.5zM354 1794l125 106l242 -325l-88 -76z" />
<glyph unicode="&#xd3;" horiz-adv-x="1239" d="M115 709q0 166 30.5 303t93 234t158 151.5t224.5 54.5t224 -54.5t157.5 -151.5t92 -234t29.5 -303t-29.5 -302.5t-92 -233.5t-157.5 -150.5t-224 -53.5t-224.5 53.5t-158 150.5t-93 233.5t-30.5 302.5zM311 709q0 -129 17.5 -235.5t54.5 -182.5t95.5 -118t142.5 -42 t142 42t95 118t53.5 182.5t16.5 235.5t-16.5 235.5t-53.5 183t-95 119.5t-142 43t-142.5 -43t-95.5 -119.5t-54.5 -183t-17.5 -235.5zM516 1575l242 325l125 -106l-279 -295z" />
<glyph unicode="&#xd4;" horiz-adv-x="1239" d="M115 709q0 166 30.5 303t93 234t158 151.5t224.5 54.5t224 -54.5t157.5 -151.5t92 -234t29.5 -303t-29.5 -302.5t-92 -233.5t-157.5 -150.5t-224 -53.5t-224.5 53.5t-158 150.5t-93 233.5t-30.5 302.5zM311 709q0 -129 17.5 -235.5t54.5 -182.5t95.5 -118t142.5 -42 t142 42t95 118t53.5 182.5t16.5 235.5t-16.5 235.5t-53.5 183t-95 119.5t-142 43t-142.5 -43t-95.5 -119.5t-54.5 -183t-17.5 -235.5zM381 1569l236 311l235 -311l-86 -72l-149 174l-150 -174z" />
<glyph unicode="&#xd5;" horiz-adv-x="1239" d="M115 709q0 166 30.5 303t93 234t158 151.5t224.5 54.5t224 -54.5t157.5 -151.5t92 -234t29.5 -303t-29.5 -302.5t-92 -233.5t-157.5 -150.5t-224 -53.5t-224.5 53.5t-158 150.5t-93 233.5t-30.5 302.5zM311 709q0 -129 17.5 -235.5t54.5 -182.5t95.5 -118t142.5 -42 t142 42t95 118t53.5 182.5t16.5 235.5t-16.5 235.5t-53.5 183t-95 119.5t-142 43t-142.5 -43t-95.5 -119.5t-54.5 -183t-17.5 -235.5zM356 1616q16 98 57.5 150t100.5 52q37 0 65.5 -14t53 -32.5t45 -33t43.5 -14.5q18 0 31.5 20.5t25.5 73.5l103 -34q-18 -98 -58.5 -150.5 t-99.5 -52.5q-35 0 -64.5 14.5t-54 32.5t-46 32.5t-42.5 14.5q-18 0 -31.5 -20.5t-25.5 -73.5z" />
<glyph unicode="&#xd6;" horiz-adv-x="1239" d="M115 709q0 166 30.5 303t93 234t158 151.5t224.5 54.5t224 -54.5t157.5 -151.5t92 -234t29.5 -303t-29.5 -302.5t-92 -233.5t-157.5 -150.5t-224 -53.5t-224.5 53.5t-158 150.5t-93 233.5t-30.5 302.5zM311 709q0 -129 17.5 -235.5t54.5 -182.5t95.5 -118t142.5 -42 t142 42t95 118t53.5 182.5t16.5 235.5t-16.5 235.5t-53.5 183t-95 119.5t-142 43t-142.5 -43t-95.5 -119.5t-54.5 -183t-17.5 -235.5zM334 1689q0 53 33.5 85t81.5 32q47 0 80.5 -31.5t33.5 -85.5q0 -53 -33.5 -84.5t-80.5 -31.5t-81 31.5t-34 84.5zM674 1689q0 53 33.5 85 t81.5 32q47 0 80.5 -31.5t33.5 -85.5q0 -53 -33.5 -84.5t-80.5 -31.5t-81 31.5t-34 84.5z" />
<glyph unicode="&#xd7;" d="M106 385l228 227l-228 228l107 106l227 -227l228 227l106 -106l-227 -228l227 -227l-106 -106l-228 227l-227 -227z" />
<glyph unicode="&#xd8;" horiz-adv-x="1239" d="M115 709q0 166 30.5 303t93 234t158 151.5t224.5 54.5q90 0 162.5 -26.5t129.5 -75.5l84 145l117 -68l-108 -188q59 -98 88.5 -232.5t29.5 -297.5q0 -166 -29.5 -302.5t-92 -233.5t-157.5 -150.5t-224 -53.5q-176 0 -293 101l-82 -144l-117 68l107 182q-61 98 -91 232.5 t-30 300.5zM311 709q0 -199 39 -334l471 815q-37 47 -86 73.5t-114 26.5q-84 0 -142.5 -43t-95.5 -119.5t-54.5 -183t-17.5 -235.5zM420 227q37 -47 86 -71.5t115 -24.5q84 0 142 42t95 118t53.5 182.5t16.5 235.5q0 193 -37 331z" />
<glyph unicode="&#xd9;" horiz-adv-x="1124" d="M160 438v981h184v-964q0 -162 47 -243t170 -81q127 0 173 83t46 241v964h185v-981q0 -240 -102.5 -354.5t-305.5 -114.5q-199 0 -298 113t-99 356zM299 1794l125 106l242 -325l-88 -76z" />
<glyph unicode="&#xda;" horiz-adv-x="1124" d="M160 438v981h184v-964q0 -162 47 -243t170 -81q127 0 173 83t46 241v964h185v-981q0 -240 -102.5 -354.5t-305.5 -114.5q-199 0 -298 113t-99 356zM459 1575l242 325l125 -106l-279 -295z" />
<glyph unicode="&#xdb;" horiz-adv-x="1124" d="M160 438v981h184v-964q0 -162 47 -243t170 -81q127 0 173 83t46 241v964h185v-981q0 -240 -102.5 -354.5t-305.5 -114.5q-199 0 -298 113t-99 356zM326 1569l236 311l235 -311l-86 -72l-149 174l-150 -174z" />
<glyph unicode="&#xdc;" horiz-adv-x="1124" d="M160 438v981h184v-964q0 -162 47 -243t170 -81q127 0 173 83t46 241v964h185v-981q0 -240 -102.5 -354.5t-305.5 -114.5q-199 0 -298 113t-99 356zM279 1689q0 53 33.5 85t81.5 32q47 0 80.5 -31.5t33.5 -85.5q0 -53 -33.5 -84.5t-80.5 -31.5t-81 31.5t-34 84.5z M619 1689q0 53 33.5 85t81.5 32q47 0 80.5 -31.5t33.5 -85.5q0 -53 -33.5 -84.5t-80.5 -31.5t-81 31.5t-34 84.5z" />
<glyph unicode="&#xdd;" horiz-adv-x="923" d="M6 1419h199q53 -162 120.5 -342t139.5 -336q72 156 139.5 336t120.5 342h193q-35 -96 -77 -204.5t-89 -220t-96.5 -222t-98.5 -211.5v-561h-184v549q-49 100 -100.5 212.5t-98.5 225.5t-90 223.5t-78 208.5zM358 1575l242 325l125 -106l-279 -295z" />
<glyph unicode="&#xde;" horiz-adv-x="995" d="M172 0v1419h184v-227q23 2 47.5 3t49.5 1q106 0 193 -25.5t149.5 -80t96.5 -140.5t34 -207q0 -123 -35 -210t-98.5 -141t-152.5 -78.5t-198 -24.5h-86v-289h-184zM356 451h74q70 0 126 15t95 50t59.5 90.5t20.5 136.5q0 82 -20.5 138.5t-56.5 90.5t-87 48t-112 14 q-53 0 -99 -6v-577z" />
<glyph unicode="&#xdf;" horiz-adv-x="997" d="M156 0v1194q0 205 90 300t258 95q78 0 138 -23.5t101 -63.5t62.5 -96.5t21.5 -119.5q0 -96 -37.5 -166.5t-78.5 -128.5q-20 -29 -33.5 -50t-22 -37.5t-11.5 -30t-3 -27.5q0 -20 8 -40t26.5 -42.5t50.5 -53t81 -75.5q53 -47 86 -120t33 -179q0 -74 -19.5 -139.5 t-59.5 -114.5t-99.5 -78t-139.5 -29q-82 0 -155 27l30 154q29 -8 53.5 -12.5t51.5 -4.5q45 0 75.5 16.5t49 44t27 63.5t8.5 75q0 43 -7.5 74.5t-23 58.5t-38 49.5t-52.5 50.5q-78 72 -115 128.5t-37 125.5q0 66 22.5 111t65.5 108q35 49 61.5 98.5t26.5 123.5 q0 72 -34.5 120t-106.5 48q-86 0 -132 -50.5t-46 -183.5v-1200h-176z" />
<glyph unicode="&#xe0;" horiz-adv-x="888" d="M84 311q0 84 25.5 146.5t70.5 104.5t106.5 63.5t133.5 21.5q68 0 149 -16v98q0 119 -46 166t-132 47q-47 0 -89 -9t-89 -30l-37 150q53 23 112.5 36t129.5 13q143 0 233 -89t90 -278v-712q-74 -20 -150.5 -33t-150.5 -13t-138 18.5t-112.5 59.5t-77 103.5t-28.5 152.5z M190 1487l125 106l242 -325l-88 -76zM260 313q0 -94 49 -139t140 -45q55 0 120 14v342q-61 16 -120 17q-39 0 -74 -9.5t-60.5 -31t-40 -57.5t-14.5 -91z" />
<glyph unicode="&#xe1;" horiz-adv-x="888" d="M84 311q0 84 25.5 146.5t70.5 104.5t106.5 63.5t133.5 21.5q68 0 149 -16v98q0 119 -46 166t-132 47q-47 0 -89 -9t-89 -30l-37 150q53 23 112.5 36t129.5 13q143 0 233 -89t90 -278v-712q-74 -20 -150.5 -33t-150.5 -13t-138 18.5t-112.5 59.5t-77 103.5t-28.5 152.5z M260 313q0 -94 49 -139t140 -45q55 0 120 14v342q-61 16 -120 17q-39 0 -74 -9.5t-60.5 -31t-40 -57.5t-14.5 -91zM307 1268l242 325l125 -106l-279 -295z" />
<glyph unicode="&#xe2;" horiz-adv-x="888" d="M84 311q0 84 25.5 146.5t70.5 104.5t106.5 63.5t133.5 21.5q68 0 149 -16v98q0 119 -46 166t-132 47q-47 0 -89 -9t-89 -30l-37 150q53 23 112.5 36t129.5 13q143 0 233 -89t90 -278v-712q-74 -20 -150.5 -33t-150.5 -13t-138 18.5t-112.5 59.5t-77 103.5t-28.5 152.5z M207 1262l236 311l235 -311l-86 -72l-149 174l-150 -174zM260 313q0 -94 49 -139t140 -45q55 0 120 14v342q-61 16 -120 17q-39 0 -74 -9.5t-60.5 -31t-40 -57.5t-14.5 -91z" />
<glyph unicode="&#xe3;" horiz-adv-x="888" d="M84 311q0 84 25.5 146.5t70.5 104.5t106.5 63.5t133.5 21.5q68 0 149 -16v98q0 119 -46 166t-132 47q-47 0 -89 -9t-89 -30l-37 150q53 23 112.5 36t129.5 13q143 0 233 -89t90 -278v-712q-74 -20 -150.5 -33t-150.5 -13t-138 18.5t-112.5 59.5t-77 103.5t-28.5 152.5z M182 1309q16 98 57.5 150t100.5 52q37 0 65.5 -14t53 -32.5t45 -33t43.5 -14.5q18 0 31.5 20.5t25.5 73.5l103 -34q-18 -98 -58.5 -150.5t-99.5 -52.5q-35 0 -64.5 14.5t-54 32.5t-46 32.5t-42.5 14.5q-18 0 -31.5 -20.5t-25.5 -73.5zM260 313q0 -94 49 -139t140 -45 q55 0 120 14v342q-61 16 -120 17q-39 0 -74 -9.5t-60.5 -31t-40 -57.5t-14.5 -91z" />
<glyph unicode="&#xe4;" horiz-adv-x="888" d="M84 311q0 84 25.5 146.5t70.5 104.5t106.5 63.5t133.5 21.5q68 0 149 -16v98q0 119 -46 166t-132 47q-47 0 -89 -9t-89 -30l-37 150q53 23 112.5 36t129.5 13q143 0 233 -89t90 -278v-712q-74 -20 -150.5 -33t-150.5 -13t-138 18.5t-112.5 59.5t-77 103.5t-28.5 152.5z M160 1382q0 53 33.5 85t81.5 32q47 0 80.5 -31.5t33.5 -85.5q0 -53 -33.5 -84.5t-80.5 -31.5t-81 31.5t-34 84.5zM260 313q0 -94 49 -139t140 -45q55 0 120 14v342q-61 16 -120 17q-39 0 -74 -9.5t-60.5 -31t-40 -57.5t-14.5 -91zM500 1382q0 53 33.5 85t81.5 32 q47 0 80.5 -31.5t33.5 -85.5q0 -53 -33.5 -84.5t-80.5 -31.5t-81 31.5t-34 84.5z" />
<glyph unicode="&#xe5;" horiz-adv-x="888" d="M84 311q0 84 25.5 146.5t70.5 104.5t106.5 63.5t133.5 21.5q68 0 149 -16v98q0 119 -46 166t-132 47q-47 0 -89 -9t-89 -30l-37 150q53 23 112.5 36t129.5 13q143 0 233 -89t90 -278v-712q-74 -20 -150.5 -33t-150.5 -13t-138 18.5t-112.5 59.5t-77 103.5t-28.5 152.5z M260 313q0 -94 49 -139t140 -45q55 0 120 14v342q-61 16 -120 17q-39 0 -74 -9.5t-60.5 -31t-40 -57.5t-14.5 -91zM270 1397q0 80 51.5 127t123.5 47t123 -47t51 -127t-51.5 -127t-122.5 -47q-72 0 -123.5 47t-51.5 127zM363 1397q0 -41 23.5 -62.5t58.5 -21.5t58 21.5 t23 62.5t-23.5 62.5t-57.5 21.5q-35 0 -58.5 -21.5t-23.5 -62.5z" />
<glyph unicode="&#xe6;" horiz-adv-x="1357" d="M84 311q0 84 25.5 146.5t70.5 104.5t106.5 63.5t133.5 21.5q66 0 147 -16q0 4 1 6t1 6v86q0 119 -46 166t-132 47q-47 0 -89 -9t-89 -30l-37 150q53 23 112.5 36t129.5 13q84 0 150.5 -33t107.5 -106q92 139 248 139q182 0 257.5 -137.5t75.5 -384.5v-46.5t-2 -48.5h-510 q2 -78 14.5 -142t40 -112.5t74 -75t117.5 -26.5q59 0 109.5 17.5t73.5 29.5l32 -141q-27 -18 -89 -40t-148 -22q-80 0 -140.5 19.5t-107.5 58.5q-66 -35 -132.5 -54.5t-148.5 -19.5q-74 0 -139 19.5t-113.5 60.5t-76 104.5t-27.5 149.5zM260 313q0 -80 48.5 -132t140.5 -52 q55 0 98 13.5t80 35.5q-29 61 -43.5 138t-18.5 169q-59 16 -116 17q-39 0 -74 -9.5t-60.5 -31t-40 -57t-14.5 -91.5zM748 629h325q0 150 -30.5 236.5t-118.5 86.5t-128 -88t-48 -235z" />
<glyph unicode="&#xe7;" horiz-adv-x="722" d="M98 535q0 266 97.5 416.5t293.5 150.5q59 0 106.5 -14.5t88.5 -36.5l-45 -146q-63 41 -141 41q-111 0 -163 -100.5t-52 -310.5q0 -88 10 -163t35.5 -128.5t67.5 -84t108 -30.5q45 0 81 11.5t68 29.5l39 -137q-31 -23 -82 -39.5t-110 -20.5q-8 -14 -14.5 -28.5 t-10.5 -26.5q59 -23 84 -58.5t25 -82.5q0 -78 -61.5 -121t-151.5 -43q-31 0 -68 5t-72 17l21 113q20 -4 42.5 -9t47.5 -5q37 0 63.5 11t26.5 44q0 23 -22.5 39t-83.5 29q10 31 23 65.5t30 65.5q-78 20 -132 69t-87 121t-47.5 162t-14.5 195z" />
<glyph unicode="&#xe8;" horiz-adv-x="892" d="M100 530q0 297 98.5 434.5t260.5 137.5q182 0 258 -137.5t76 -384.5v-46.5t-2 -48.5h-510q2 -78 14 -142t39.5 -112.5t74 -75t117.5 -26.5q59 0 109.5 17.5t73.5 29.5l32 -141q-27 -18 -89 -40t-148 -22q-113 0 -189.5 41t-125 115t-69 176.5t-20.5 224.5zM213 1487 l125 106l242 -325l-88 -76zM283 629h325q0 150 -30.5 236.5t-118.5 86.5t-128 -88t-48 -235z" />
<glyph unicode="&#xe9;" horiz-adv-x="892" d="M100 530q0 297 98.5 434.5t260.5 137.5q182 0 258 -137.5t76 -384.5v-46.5t-2 -48.5h-510q2 -78 14 -142t39.5 -112.5t74 -75t117.5 -26.5q59 0 109.5 17.5t73.5 29.5l32 -141q-27 -18 -89 -40t-148 -22q-113 0 -189.5 41t-125 115t-69 176.5t-20.5 224.5zM283 629h325 q0 150 -30.5 236.5t-118.5 86.5t-128 -88t-48 -235zM330 1268l242 325l125 -106l-279 -295z" />
<glyph unicode="&#xea;" horiz-adv-x="892" d="M100 530q0 297 98.5 434.5t260.5 137.5q182 0 258 -137.5t76 -384.5v-46.5t-2 -48.5h-510q2 -78 14 -142t39.5 -112.5t74 -75t117.5 -26.5q59 0 109.5 17.5t73.5 29.5l32 -141q-27 -18 -89 -40t-148 -22q-113 0 -189.5 41t-125 115t-69 176.5t-20.5 224.5zM219 1262 l236 311l235 -311l-86 -72l-149 174l-150 -174zM283 629h325q0 150 -30.5 236.5t-118.5 86.5t-128 -88t-48 -235z" />
<glyph unicode="&#xeb;" horiz-adv-x="892" d="M100 530q0 297 98.5 434.5t260.5 137.5q182 0 258 -137.5t76 -384.5v-46.5t-2 -48.5h-510q2 -78 14 -142t39.5 -112.5t74 -75t117.5 -26.5q59 0 109.5 17.5t73.5 29.5l32 -141q-27 -18 -89 -40t-148 -22q-113 0 -189.5 41t-125 115t-69 176.5t-20.5 224.5zM172 1382 q0 53 33.5 85t81.5 32q47 0 80.5 -31.5t33.5 -85.5q0 -53 -33.5 -84.5t-80.5 -31.5t-81 31.5t-34 84.5zM283 629h325q0 150 -30.5 236.5t-118.5 86.5t-128 -88t-48 -235zM512 1382q0 53 33.5 85t81.5 32q47 0 80.5 -31.5t33.5 -85.5q0 -53 -33.5 -84.5t-80.5 -31.5t-81 31.5 t-34 84.5z" />
<glyph unicode="&#xec;" horiz-adv-x="495" d="M6 1487l125 106l242 -325l-88 -76zM160 0v1075h176v-1075h-176z" />
<glyph unicode="&#xed;" horiz-adv-x="495" d="M127 1268l242 325l125 -106l-279 -295zM160 0v1075h176v-1075h-176z" />
<glyph unicode="&#xee;" horiz-adv-x="495" d="M12 1262l236 311l235 -311l-86 -72l-149 174l-150 -174zM160 0v1075h176v-1075h-176z" />
<glyph unicode="&#xef;" horiz-adv-x="495" d="M-35 1382q0 53 33.5 85t81.5 32q47 0 80.5 -31.5t33.5 -85.5q0 -53 -33.5 -84.5t-80.5 -31.5t-81 31.5t-34 84.5zM160 0v1075h176v-1075h-176zM305 1382q0 53 33.5 85t81.5 32q47 0 80.5 -31.5t33.5 -85.5q0 -53 -33.5 -84.5t-80.5 -31.5t-81 31.5t-34 84.5z" />
<glyph unicode="&#xf0;" horiz-adv-x="944" d="M100 483q0 133 29 230.5t79 162t118.5 95t148.5 30.5q74 0 139 -24q-29 125 -75 229l-164 -76l-51 117l157 74q-55 92 -129 178l125 88q86 -92 150 -198l194 92l51 -117l-182 -86q72 -150 110 -324t38 -368q0 -129 -18.5 -242t-62.5 -194.5t-116 -129t-176 -47.5 q-92 0 -159.5 36t-114 102.5t-69 161t-22.5 210.5zM285 479q0 -188 48 -270t126 -82q106 0 150 123t44 342q0 115 -12 219q-29 20 -65.5 33.5t-83.5 13.5q-207 0 -207 -379z" />
<glyph unicode="&#xf1;" horiz-adv-x="987" d="M160 0v1044q76 23 164 38.5t161 15.5q80 0 145.5 -21.5t111.5 -73t72 -138.5t26 -216v-649h-176v635q0 160 -41 233.5t-154 73.5q-59 0 -133 -20v-922h-176zM231 1309q16 98 57.5 150t100.5 52q37 0 65.5 -14t53 -32.5t45 -33t43.5 -14.5q18 0 31.5 20.5t25.5 73.5 l103 -34q-18 -98 -58.5 -150.5t-99.5 -52.5q-35 0 -64.5 14.5t-54 32.5t-46 32.5t-42.5 14.5q-18 0 -31.5 -20.5t-25.5 -73.5z" />
<glyph unicode="&#xf2;" horiz-adv-x="948" d="M98 537q0 125 22.5 229t69 179t118 116t167.5 41t167 -41t117 -116t68.5 -179t22.5 -229q0 -127 -22.5 -230.5t-68.5 -177.5t-117 -115t-167 -41t-167.5 41t-118 115t-69 177.5t-22.5 230.5zM229 1487l125 106l242 -325l-88 -76zM283 537q0 -90 10 -165t33.5 -128.5 t59.5 -83t89 -29.5q51 0 88 29.5t59.5 83t33 128.5t10.5 165t-10.5 164.5t-33 129t-59.5 84t-88 29.5q-53 0 -89 -29.5t-59.5 -84t-33.5 -129t-10 -164.5z" />
<glyph unicode="&#xf3;" horiz-adv-x="948" d="M98 537q0 125 22.5 229t69 179t118 116t167.5 41t167 -41t117 -116t68.5 -179t22.5 -229q0 -127 -22.5 -230.5t-68.5 -177.5t-117 -115t-167 -41t-167.5 41t-118 115t-69 177.5t-22.5 230.5zM283 537q0 -90 10 -165t33.5 -128.5t59.5 -83t89 -29.5q51 0 88 29.5t59.5 83 t33 128.5t10.5 165t-10.5 164.5t-33 129t-59.5 84t-88 29.5q-53 0 -89 -29.5t-59.5 -84t-33.5 -129t-10 -164.5zM352 1268l242 325l125 -106l-279 -295z" />
<glyph unicode="&#xf4;" horiz-adv-x="948" d="M98 537q0 125 22.5 229t69 179t118 116t167.5 41t167 -41t117 -116t68.5 -179t22.5 -229q0 -127 -22.5 -230.5t-68.5 -177.5t-117 -115t-167 -41t-167.5 41t-118 115t-69 177.5t-22.5 230.5zM236 1262l236 311l235 -311l-86 -72l-149 174l-150 -174zM283 537 q0 -90 10 -165t33.5 -128.5t59.5 -83t89 -29.5q51 0 88 29.5t59.5 83t33 128.5t10.5 165t-10.5 164.5t-33 129t-59.5 84t-88 29.5q-53 0 -89 -29.5t-59.5 -84t-33.5 -129t-10 -164.5z" />
<glyph unicode="&#xf5;" horiz-adv-x="948" d="M98 537q0 125 22.5 229t69 179t118 116t167.5 41t167 -41t117 -116t68.5 -179t22.5 -229q0 -127 -22.5 -230.5t-68.5 -177.5t-117 -115t-167 -41t-167.5 41t-118 115t-69 177.5t-22.5 230.5zM211 1309q16 98 57.5 150t100.5 52q37 0 65.5 -14t53 -32.5t45 -33t43.5 -14.5 q18 0 31.5 20.5t25.5 73.5l103 -34q-18 -98 -58.5 -150.5t-99.5 -52.5q-35 0 -64.5 14.5t-54 32.5t-46 32.5t-42.5 14.5q-18 0 -31.5 -20.5t-25.5 -73.5zM283 537q0 -90 10 -165t33.5 -128.5t59.5 -83t89 -29.5q51 0 88 29.5t59.5 83t33 128.5t10.5 165t-10.5 164.5t-33 129 t-59.5 84t-88 29.5q-53 0 -89 -29.5t-59.5 -84t-33.5 -129t-10 -164.5z" />
<glyph unicode="&#xf6;" horiz-adv-x="948" d="M98 537q0 125 22.5 229t69 179t118 116t167.5 41t167 -41t117 -116t68.5 -179t22.5 -229q0 -127 -22.5 -230.5t-68.5 -177.5t-117 -115t-167 -41t-167.5 41t-118 115t-69 177.5t-22.5 230.5zM189 1382q0 53 33.5 85t81.5 32q47 0 80.5 -31.5t33.5 -85.5 q0 -53 -33.5 -84.5t-80.5 -31.5t-81 31.5t-34 84.5zM283 537q0 -90 10 -165t33.5 -128.5t59.5 -83t89 -29.5q51 0 88 29.5t59.5 83t33 128.5t10.5 165t-10.5 164.5t-33 129t-59.5 84t-88 29.5q-53 0 -89 -29.5t-59.5 -84t-33.5 -129t-10 -164.5zM529 1382q0 53 33.5 85 t81.5 32q47 0 80.5 -31.5t33.5 -85.5q0 -53 -33.5 -84.5t-80.5 -31.5t-81 31.5t-34 84.5z" />
<glyph unicode="&#xf7;" d="M88 539v149h705v-149h-705zM338 303q0 45 29.5 78t78.5 33t80 -33t31 -78q0 -43 -30.5 -75.5t-80.5 -32.5q-49 0 -78.5 32.5t-29.5 75.5zM338 928q0 45 29.5 77.5t78.5 32.5t80 -32.5t31 -77.5q0 -43 -30.5 -76t-80.5 -33q-49 0 -78.5 33t-29.5 76z" />
<glyph unicode="&#xf8;" horiz-adv-x="948" d="M82 -8l94 158q-41 74 -59.5 172t-18.5 215q0 125 22.5 229t69 179t118 116t167.5 41q135 0 225 -84l70 115l102 -62l-96 -158q37 -72 55.5 -168t18.5 -208q0 -127 -22.5 -230.5t-68.5 -177.5t-117 -115t-167 -41q-131 0 -219 76l-72 -119zM283 537q0 -53 3 -100.5 t11 -88.5l309 514q-45 82 -131 82q-53 0 -89 -29.5t-59.5 -84t-33.5 -129t-10 -164.5zM348 201q45 -70 127 -70q51 0 88 29.5t59.5 83t33 128.5t10.5 165q0 94 -13 172z" />
<glyph unicode="&#xf9;" horiz-adv-x="983" d="M145 414v661h177v-655q0 -158 48 -222.5t146 -64.5q33 0 65.5 3t67.5 14v925h176v-1044q-27 -10 -64.5 -19.5t-79.5 -16.5t-84 -12.5t-77 -5.5q-84 0 -153.5 19.5t-118.5 69t-76 134.5t-27 214zM219 1487l125 106l242 -325l-88 -76z" />
<glyph unicode="&#xfa;" horiz-adv-x="983" d="M145 414v661h177v-655q0 -158 48 -222.5t146 -64.5q33 0 65.5 3t67.5 14v925h176v-1044q-27 -10 -64.5 -19.5t-79.5 -16.5t-84 -12.5t-77 -5.5q-84 0 -153.5 19.5t-118.5 69t-76 134.5t-27 214zM387 1268l242 325l125 -106l-279 -295z" />
<glyph unicode="&#xfb;" horiz-adv-x="983" d="M145 414v661h177v-655q0 -158 48 -222.5t146 -64.5q33 0 65.5 3t67.5 14v925h176v-1044q-27 -10 -64.5 -19.5t-79.5 -16.5t-84 -12.5t-77 -5.5q-84 0 -153.5 19.5t-118.5 69t-76 134.5t-27 214zM256 1262l236 311l235 -311l-86 -72l-149 174l-150 -174z" />
<glyph unicode="&#xfc;" horiz-adv-x="983" d="M145 414v661h177v-655q0 -158 48 -222.5t146 -64.5q33 0 65.5 3t67.5 14v925h176v-1044q-27 -10 -64.5 -19.5t-79.5 -16.5t-84 -12.5t-77 -5.5q-84 0 -153.5 19.5t-118.5 69t-76 134.5t-27 214zM209 1382q0 53 33.5 85t81.5 32q47 0 80.5 -31.5t33.5 -85.5 q0 -53 -33.5 -84.5t-80.5 -31.5t-81 31.5t-34 84.5zM549 1382q0 53 33.5 85t81.5 32q47 0 80.5 -31.5t33.5 -85.5q0 -53 -33.5 -84.5t-80.5 -31.5t-81 31.5t-34 84.5z" />
<glyph unicode="&#xfd;" horiz-adv-x="811" d="M2 -356l33 143q53 -23 100 -23q59 0 96 43t72 130l21 51q-39 106 -79 236t-78 271.5t-73 290t-63 289.5h186q16 -96 39 -210.5t48.5 -229.5t52 -222.5t51.5 -189.5q59 205 108 412t94 440h174q-31 -150 -66.5 -295t-73.5 -280t-76 -255t-70 -218q-39 -115 -75 -194 t-78 -127t-91 -69.5t-117 -21.5q-37 0 -73.5 9t-61.5 20zM297 1268l242 325l125 -106l-279 -295z" />
<glyph unicode="&#xfe;" horiz-adv-x="956" d="M158 -375v1934l176 30v-506q29 8 60.5 13.5t66.5 5.5q203 0 300 -150.5t97 -419.5q0 -272 -87 -415.5t-284 -143.5q-47 0 -83.5 9.5t-69.5 25.5v-383h-176zM334 162q59 -33 127 -33q51 0 90 20.5t66.5 67.5t42 125t14.5 193q0 221 -56.5 316t-179.5 95q-23 0 -49.5 -3 t-54.5 -11v-770z" />
<glyph unicode="&#xff;" horiz-adv-x="811" d="M2 -356l33 143q53 -23 100 -23q59 0 96 43t72 130l21 51q-39 106 -79 236t-78 271.5t-73 290t-63 289.5h186q16 -96 39 -210.5t48.5 -229.5t52 -222.5t51.5 -189.5q59 205 108 412t94 440h174q-31 -150 -66.5 -295t-73.5 -280t-76 -255t-70 -218q-39 -115 -75 -194 t-78 -127t-91 -69.5t-117 -21.5q-37 0 -73.5 9t-61.5 20zM119 1382q0 53 33.5 85t81.5 32q47 0 80.5 -31.5t33.5 -85.5q0 -53 -33.5 -84.5t-80.5 -31.5t-81 31.5t-34 84.5zM459 1382q0 53 33.5 85t81.5 32q47 0 80.5 -31.5t33.5 -85.5q0 -53 -33.5 -84.5t-80.5 -31.5 t-81 31.5t-34 84.5z" />
<glyph unicode="&#x100;" horiz-adv-x="1030" d="M41 0q45 223 92 415.5t93 364.5t94.5 329t97.5 310h194q49 -154 97.5 -310.5t94.5 -328.5t92 -364.5t93 -415.5h-184q-16 92 -33.5 182t-36.5 180h-446q-20 -90 -36.5 -180t-33.5 -182h-178zM295 1624v139h437v-139h-437zM324 516h374q-41 180 -88 352t-98 342 q-51 -170 -98 -342t-90 -352z" />
<glyph unicode="&#x101;" horiz-adv-x="888" d="M84 311q0 84 25.5 146.5t70.5 104.5t106.5 63.5t133.5 21.5q68 0 149 -16v98q0 119 -46 166t-132 47q-47 0 -89 -9t-89 -30l-37 150q53 23 112.5 36t129.5 13q143 0 233 -89t90 -278v-712q-74 -20 -150.5 -33t-150.5 -13t-138 18.5t-112.5 59.5t-77 103.5t-28.5 152.5z M225 1317v139h437v-139h-437zM260 313q0 -94 49 -139t140 -45q55 0 120 14v342q-61 16 -120 17q-39 0 -74 -9.5t-60.5 -31t-40 -57.5t-14.5 -91z" />
<glyph unicode="&#x102;" horiz-adv-x="1030" d="M41 0q45 223 92 415.5t93 364.5t94.5 329t97.5 310h194q49 -154 97.5 -310.5t94.5 -328.5t92 -364.5t93 -415.5h-184q-16 92 -33.5 182t-36.5 180h-446q-20 -90 -36.5 -180t-33.5 -182h-178zM279 1851h119q4 -68 27.5 -117t89.5 -49t89 49.5t27 116.5h119 q0 -135 -61 -209.5t-174 -74.5q-115 0 -175.5 74.5t-60.5 209.5zM324 516h374q-41 180 -88 352t-98 342q-51 -170 -98 -342t-90 -352z" />
<glyph unicode="&#x103;" horiz-adv-x="888" d="M84 311q0 84 25.5 146.5t70.5 104.5t106.5 63.5t133.5 21.5q68 0 149 -16v98q0 119 -46 166t-132 47q-47 0 -89 -9t-89 -30l-37 150q53 23 112.5 36t129.5 13q143 0 233 -89t90 -278v-712q-74 -20 -150.5 -33t-150.5 -13t-138 18.5t-112.5 59.5t-77 103.5t-28.5 152.5z M209 1544h119q4 -68 27.5 -117t89.5 -49t89 49.5t27 116.5h119q0 -135 -61 -209.5t-174 -74.5q-115 0 -175.5 74.5t-60.5 209.5zM260 313q0 -94 49 -139t140 -45q55 0 120 14v342q-61 16 -120 17q-39 0 -74 -9.5t-60.5 -31t-40 -57.5t-14.5 -91z" />
<glyph unicode="&#x104;" horiz-adv-x="1030" d="M41 0q45 223 92 415.5t93 364.5t94.5 329t97.5 310h194q49 -154 97.5 -310.5t94.5 -328.5t92 -364.5t93 -415.5q-80 -43 -124 -85t-44 -85q0 -41 25.5 -58.5t62.5 -17.5q39 0 74 15l10 -129q-57 -23 -127 -23q-90 0 -147 44t-57 122q0 66 36.5 117t106.5 100 q-16 92 -33.5 182t-36.5 180h-446q-20 -90 -36.5 -180t-33.5 -182h-178zM324 516h374q-41 180 -88 352t-98 342q-51 -170 -98 -342t-90 -352z" />
<glyph unicode="&#x105;" horiz-adv-x="888" d="M84 311q0 84 25.5 146.5t70.5 104.5t106.5 63.5t133.5 21.5q68 0 149 -16v98q0 119 -46 166t-132 47q-47 0 -89 -9t-89 -30l-37 150q53 23 112.5 36t129.5 13q143 0 233 -89t90 -278v-712q-80 -47 -124 -93.5t-44 -93.5q0 -45 26 -63.5t63 -18.5q39 0 73 15l10 -129 q-57 -23 -127 -23q-90 0 -147 46t-57 128q0 55 24.5 101.5t71.5 89.5q-18 -4 -35.5 -4.5t-34.5 -0.5q-74 0 -138 18.5t-112.5 59.5t-77 103.5t-28.5 152.5zM260 313q0 -94 49 -139t140 -45q55 0 120 14v342q-61 16 -120 17q-39 0 -74 -9.5t-60.5 -31t-40 -57.5t-14.5 -91z " />
<glyph unicode="&#x106;" horiz-adv-x="960" d="M113 731q0 199 37.5 336t105.5 223t160 124t200 38q90 0 168 -23.5t127 -58.5l-55 -153q-49 33 -105.5 53t-129.5 20q-164 0 -238 -136t-74 -423q0 -289 78 -444.5t254 -155.5q84 0 136 20.5t102 53.5l51 -146q-47 -37 -124 -63.5t-177 -26.5q-250 0 -383 186.5 t-133 575.5zM477 1575l242 325l125 -106l-279 -295z" />
<glyph unicode="&#x107;" horiz-adv-x="722" d="M98 535q0 266 97.5 416.5t293.5 150.5q59 0 106.5 -14.5t88.5 -36.5l-45 -146q-63 41 -141 41q-111 0 -163 -100.5t-52 -310.5q0 -88 10 -163t35.5 -128.5t67.5 -84t108 -30.5q45 0 81 11.5t68 29.5l39 -137q-33 -23 -87.5 -41.5t-117.5 -18.5q-111 0 -184.5 43 t-119.5 118t-65.5 177.5t-19.5 223.5zM315 1268l242 325l125 -106l-279 -295z" />
<glyph unicode="&#x108;" horiz-adv-x="960" d="M113 731q0 199 37.5 336t105.5 223t160 124t200 38q90 0 168 -23.5t127 -58.5l-55 -153q-49 33 -105.5 53t-129.5 20q-164 0 -238 -136t-74 -423q0 -289 78 -444.5t254 -155.5q84 0 136 20.5t102 53.5l51 -146q-47 -37 -124 -63.5t-177 -26.5q-250 0 -383 186.5 t-133 575.5zM346 1569l236 311l235 -311l-86 -72l-149 174l-150 -174z" />
<glyph unicode="&#x109;" horiz-adv-x="722" d="M98 535q0 266 97.5 416.5t293.5 150.5q59 0 106.5 -14.5t88.5 -36.5l-45 -146q-63 41 -141 41q-111 0 -163 -100.5t-52 -310.5q0 -88 10 -163t35.5 -128.5t67.5 -84t108 -30.5q45 0 81 11.5t68 29.5l39 -137q-33 -23 -87.5 -41.5t-117.5 -18.5q-111 0 -184.5 43 t-119.5 118t-65.5 177.5t-19.5 223.5zM205 1262l236 311l235 -311l-86 -72l-149 174l-150 -174z" />
<glyph unicode="&#x10a;" horiz-adv-x="960" d="M113 731q0 199 37.5 336t105.5 223t160 124t200 38q90 0 168 -23.5t127 -58.5l-55 -153q-49 33 -105.5 53t-129.5 20q-164 0 -238 -136t-74 -423q0 -289 78 -444.5t254 -155.5q84 0 136 20.5t102 53.5l51 -146q-47 -37 -124 -63.5t-177 -26.5q-250 0 -383 186.5 t-133 575.5zM469 1689q0 53 33.5 85t81.5 32q47 0 80.5 -31.5t33.5 -85.5q0 -53 -33.5 -84.5t-80.5 -31.5t-81 31.5t-34 84.5z" />
<glyph unicode="&#x10b;" horiz-adv-x="722" d="M98 535q0 266 97.5 416.5t293.5 150.5q59 0 106.5 -14.5t88.5 -36.5l-45 -146q-63 41 -141 41q-111 0 -163 -100.5t-52 -310.5q0 -88 10 -163t35.5 -128.5t67.5 -84t108 -30.5q45 0 81 11.5t68 29.5l39 -137q-33 -23 -87.5 -41.5t-117.5 -18.5q-111 0 -184.5 43 t-119.5 118t-65.5 177.5t-19.5 223.5zM328 1382q0 53 33.5 85t81.5 32q47 0 80.5 -31.5t33.5 -85.5q0 -53 -33.5 -84.5t-80.5 -31.5t-81 31.5t-34 84.5z" />
<glyph unicode="&#x10c;" horiz-adv-x="960" d="M113 731q0 199 37.5 336t105.5 223t160 124t200 38q90 0 168 -23.5t127 -58.5l-55 -153q-49 33 -105.5 53t-129.5 20q-164 0 -238 -136t-74 -423q0 -289 78 -444.5t254 -155.5q84 0 136 20.5t102 53.5l51 -146q-47 -37 -124 -63.5t-177 -26.5q-250 0 -383 186.5 t-133 575.5zM348 1808l86 72l150 -174l149 174l86 -72l-235 -311z" />
<glyph unicode="&#x10d;" horiz-adv-x="722" d="M98 535q0 266 97.5 416.5t293.5 150.5q59 0 106.5 -14.5t88.5 -36.5l-45 -146q-63 41 -141 41q-111 0 -163 -100.5t-52 -310.5q0 -88 10 -163t35.5 -128.5t67.5 -84t108 -30.5q45 0 81 11.5t68 29.5l39 -137q-33 -23 -87.5 -41.5t-117.5 -18.5q-111 0 -184.5 43 t-119.5 118t-65.5 177.5t-19.5 223.5zM207 1501l86 72l150 -174l149 174l86 -72l-235 -311z" />
<glyph unicode="&#x10e;" horiz-adv-x="1179" d="M170 23v1376q78 16 151.5 26.5t141.5 10.5q139 0 250.5 -39t190.5 -125t121 -224t42 -337t-42 -337t-121 -224.5t-190.5 -125t-248.5 -38.5q-139 0 -295 37zM315 1808l86 72l150 -174l149 174l86 -72l-235 -311zM354 158q31 -4 59.5 -6t55.5 -2q109 0 184.5 30.5 t123.5 97t70.5 173t22.5 260.5q0 152 -22.5 258t-69.5 173.5t-123.5 98.5t-183.5 31q-29 0 -57.5 -2t-59.5 -6v-1106z" />
<glyph unicode="&#x10f;" horiz-adv-x="1050" d="M98 541q0 129 21.5 232.5t67.5 176t118 112.5t170 40q47 0 81 -9.5t67 -25.5v492l176 30v-1560q-57 -25 -131 -40.5t-150 -15.5q-221 0 -320.5 141.5t-99.5 426.5zM283 541q0 -221 58 -316.5t177 -95.5q23 0 49.5 3t55.5 11v770q-59 33 -127 33q-51 0 -90 -20.5 t-67 -67.5t-42 -125t-14 -192zM932 1133v456h172l-56 -456h-116z" />
<glyph unicode="&#x110;" horiz-adv-x="1179" d="M31 643v135h139v621q78 16 151.5 26.5t141.5 10.5q137 0 248.5 -40t190.5 -127t122 -225.5t43 -332.5q0 -195 -43 -333t-122 -225t-190.5 -127t-246.5 -40q-139 0 -295 37v620h-139zM354 158q31 -4 59.5 -6t55.5 -2q211 0 306 132t95 429q0 295 -94 428t-305 133 q-29 0 -57.5 -2t-59.5 -6v-486h221v-135h-221v-485z" />
<glyph unicode="&#x111;" horiz-adv-x="956" d="M98 541q0 129 21.5 232.5t67.5 176t118 112.5t170 40q47 0 81 -9.5t67 -25.5v197h-234v135h234v160l176 30v-190h157v-135h-157v-1235q-57 -25 -131 -40.5t-150 -15.5q-221 0 -320.5 141.5t-99.5 426.5zM283 541q0 -221 58 -316.5t177 -95.5q23 0 49.5 3t55.5 11v770 q-59 33 -127 33q-51 0 -90 -20.5t-67 -67.5t-42 -125t-14 -192z" />
<glyph unicode="&#x112;" horiz-adv-x="933" d="M172 0v1419h637v-157h-453v-441h410v-153h-410v-510h486v-158h-670zM278 1624v139h437v-139h-437z" />
<glyph unicode="&#x113;" horiz-adv-x="892" d="M100 530q0 297 98.5 434.5t260.5 137.5q182 0 258 -137.5t76 -384.5v-46.5t-2 -48.5h-510q2 -78 14 -142t39.5 -112.5t74 -75t117.5 -26.5q59 0 109.5 17.5t73.5 29.5l32 -141q-27 -18 -89 -40t-148 -22q-113 0 -189.5 41t-125 115t-69 176.5t-20.5 224.5zM237 1317v139 h437v-139h-437zM283 629h325q0 150 -30.5 236.5t-118.5 86.5t-128 -88t-48 -235z" />
<glyph unicode="&#x114;" horiz-adv-x="933" d="M172 0v1419h637v-157h-453v-441h410v-153h-410v-510h486v-158h-670zM262 1851h119q4 -68 27.5 -117t89.5 -49t89 49.5t27 116.5h119q0 -135 -61 -209.5t-174 -74.5q-115 0 -175.5 74.5t-60.5 209.5z" />
<glyph unicode="&#x115;" horiz-adv-x="892" d="M100 530q0 297 98.5 434.5t260.5 137.5q182 0 258 -137.5t76 -384.5v-46.5t-2 -48.5h-510q2 -78 14 -142t39.5 -112.5t74 -75t117.5 -26.5q59 0 109.5 17.5t73.5 29.5l32 -141q-27 -18 -89 -40t-148 -22q-113 0 -189.5 41t-125 115t-69 176.5t-20.5 224.5zM221 1544h119 q4 -68 27.5 -117t89.5 -49t89 49.5t27 116.5h119q0 -135 -61 -209.5t-174 -74.5q-115 0 -175.5 74.5t-60.5 209.5zM283 629h325q0 150 -30.5 236.5t-118.5 86.5t-128 -88t-48 -235z" />
<glyph unicode="&#x116;" horiz-adv-x="933" d="M172 0v1419h637v-157h-453v-441h410v-153h-410v-510h486v-158h-670zM383 1689q0 53 33.5 85t81.5 32q47 0 80.5 -31.5t33.5 -85.5q0 -53 -33.5 -84.5t-80.5 -31.5t-81 31.5t-34 84.5z" />
<glyph unicode="&#x117;" horiz-adv-x="892" d="M100 530q0 297 98.5 434.5t260.5 137.5q182 0 258 -137.5t76 -384.5v-46.5t-2 -48.5h-510q2 -78 14 -142t39.5 -112.5t74 -75t117.5 -26.5q59 0 109.5 17.5t73.5 29.5l32 -141q-27 -18 -89 -40t-148 -22q-113 0 -189.5 41t-125 115t-69 176.5t-20.5 224.5zM283 629h325 q0 150 -30.5 236.5t-118.5 86.5t-128 -88t-48 -235zM342 1382q0 53 33.5 85t81.5 32q47 0 80.5 -31.5t33.5 -85.5q0 -53 -33.5 -84.5t-80.5 -31.5t-81 31.5t-34 84.5z" />
<glyph unicode="&#x118;" horiz-adv-x="933" d="M172 0v1419h637v-157h-453v-441h410v-153h-410v-510h486v-158q-80 -43 -124 -85t-44 -85q0 -41 25.5 -58.5t62.5 -17.5q39 0 74 15l10 -129q-57 -23 -127 -23q-90 0 -147.5 44t-57.5 122q0 66 34 117t93 100h-469z" />
<glyph unicode="&#x119;" horiz-adv-x="892" d="M100 530q0 297 98.5 434.5t260.5 137.5q182 0 258 -137.5t76 -384.5v-46.5t-2 -48.5h-510q2 -78 14 -142t39.5 -112.5t74 -75t117.5 -26.5q59 0 109.5 17.5t73.5 29.5l32 -141l-18 -12q-72 -45 -111 -91.5t-39 -93.5q0 -45 26 -64.5t63 -19.5q39 0 73 15l10 -129 q-57 -23 -127 -23q-90 0 -147 47t-57 131q0 51 20.5 94t57.5 84q-109 2 -184 44t-121 115t-66.5 174.5t-20.5 223.5zM283 629h325q0 150 -30.5 236.5t-118.5 86.5t-128 -88t-48 -235z" />
<glyph unicode="&#x11a;" horiz-adv-x="933" d="M172 0v1419h637v-157h-453v-441h410v-153h-410v-510h486v-158h-670zM254 1808l86 72l150 -174l149 174l86 -72l-235 -311z" />
<glyph unicode="&#x11b;" horiz-adv-x="892" d="M100 530q0 297 98.5 434.5t260.5 137.5q182 0 258 -137.5t76 -384.5v-46.5t-2 -48.5h-510q2 -78 14 -142t39.5 -112.5t74 -75t117.5 -26.5q59 0 109.5 17.5t73.5 29.5l32 -141q-27 -18 -89 -40t-148 -22q-113 0 -189.5 41t-125 115t-69 176.5t-20.5 224.5zM221 1501 l86 72l150 -174l149 174l86 -72l-235 -311zM283 629h325q0 150 -30.5 236.5t-118.5 86.5t-128 -88t-48 -235z" />
<glyph unicode="&#x11c;" horiz-adv-x="1075" d="M113 711q0 201 36.5 342t105.5 230t166 129t218 40q92 0 168 -25.5t123 -58.5l-58 -154q-47 33 -102 54.5t-127 21.5q-178 0 -256 -144.5t-78 -434.5q0 -156 23.5 -266.5t66.5 -180t104.5 -102.5t137.5 -33q63 0 109 14v555h184v-667q-55 -27 -137 -45.5t-172 -18.5 q-111 0 -205 44t-163 135.5t-106.5 231.5t-37.5 333zM362 1569l236 311l235 -311l-86 -72l-149 174l-150 -174z" />
<glyph unicode="&#x11d;" horiz-adv-x="956" d="M98 545q0 129 23.5 232.5t74 176t130.5 110.5t194 38q76 0 148.5 -15.5t130.5 -39.5v-1016q0 -115 -30 -194t-81 -128t-119.5 -71.5t-146.5 -22.5q-66 0 -131.5 14.5t-120.5 42.5l37 148q37 -20 90 -36.5t111 -16.5q100 0 157.5 57t57.5 196v52q-33 -14 -70 -23.5 t-84 -9.5q-193 0 -282 132t-89 374zM256 1262l236 311l235 -311l-86 -72l-149 174l-150 -174zM283 545q0 -193 55 -271.5t158 -78.5q35 0 66.5 8t60.5 22v707q-29 8 -55.5 11t-49.5 3q-123 0 -179 -94t-56 -307z" />
<glyph unicode="&#x11e;" horiz-adv-x="1075" d="M113 711q0 201 36.5 342t105.5 230t166 129t218 40q92 0 168 -25.5t123 -58.5l-58 -154q-47 33 -102 54.5t-127 21.5q-178 0 -256 -144.5t-78 -434.5q0 -156 23.5 -266.5t66.5 -180t104.5 -102.5t137.5 -33q63 0 109 14v555h184v-667q-55 -27 -137 -45.5t-172 -18.5 q-111 0 -205 44t-163 135.5t-106.5 231.5t-37.5 333zM365 1851h119q4 -68 27.5 -117t89.5 -49t89 49.5t27 116.5h119q0 -135 -61 -209.5t-174 -74.5q-115 0 -175.5 74.5t-60.5 209.5z" />
<glyph unicode="&#x11f;" horiz-adv-x="956" d="M98 545q0 129 23.5 232.5t74 176t130.5 110.5t194 38q76 0 148.5 -15.5t130.5 -39.5v-1016q0 -115 -30 -194t-81 -128t-119.5 -71.5t-146.5 -22.5q-66 0 -131.5 14.5t-120.5 42.5l37 148q37 -20 90 -36.5t111 -16.5q100 0 157.5 57t57.5 196v52q-33 -14 -70 -23.5 t-84 -9.5q-193 0 -282 132t-89 374zM258 1544h119q4 -68 27.5 -117t89.5 -49t89 49.5t27 116.5h119q0 -135 -61 -209.5t-174 -74.5q-115 0 -175.5 74.5t-60.5 209.5zM283 545q0 -193 55 -271.5t158 -78.5q35 0 66.5 8t60.5 22v707q-29 8 -55.5 11t-49.5 3q-123 0 -179 -94 t-56 -307z" />
<glyph unicode="&#x120;" horiz-adv-x="1075" d="M113 711q0 201 36.5 342t105.5 230t166 129t218 40q92 0 168 -25.5t123 -58.5l-58 -154q-47 33 -102 54.5t-127 21.5q-178 0 -256 -144.5t-78 -434.5q0 -156 23.5 -266.5t66.5 -180t104.5 -102.5t137.5 -33q63 0 109 14v555h184v-667q-55 -27 -137 -45.5t-172 -18.5 q-111 0 -205 44t-163 135.5t-106.5 231.5t-37.5 333zM486 1689q0 53 33.5 85t81.5 32q47 0 80.5 -31.5t33.5 -85.5q0 -53 -33.5 -84.5t-80.5 -31.5t-81 31.5t-34 84.5z" />
<glyph unicode="&#x121;" horiz-adv-x="956" d="M98 545q0 129 23.5 232.5t74 176t130.5 110.5t194 38q76 0 148.5 -15.5t130.5 -39.5v-1016q0 -115 -30 -194t-81 -128t-119.5 -71.5t-146.5 -22.5q-66 0 -131.5 14.5t-120.5 42.5l37 148q37 -20 90 -36.5t111 -16.5q100 0 157.5 57t57.5 196v52q-33 -14 -70 -23.5 t-84 -9.5q-193 0 -282 132t-89 374zM283 545q0 -193 55 -271.5t158 -78.5q35 0 66.5 8t60.5 22v707q-29 8 -55.5 11t-49.5 3q-123 0 -179 -94t-56 -307zM375 1382q0 53 33.5 85t81.5 32q47 0 80.5 -31.5t33.5 -85.5q0 -53 -33.5 -84.5t-80.5 -31.5t-81 31.5t-34 84.5z" />
<glyph unicode="&#x122;" horiz-adv-x="1075" d="M113 711q0 201 36.5 342t105.5 230t166 129t218 40q92 0 168 -25.5t123 -58.5l-58 -154q-47 33 -102 54.5t-127 21.5q-178 0 -256 -144.5t-78 -434.5q0 -156 23.5 -266.5t66.5 -180t104.5 -102.5t137.5 -33q63 0 109 14v555h184v-667q-55 -27 -137 -45.5t-172 -18.5 q-111 0 -205 44t-163 135.5t-106.5 231.5t-37.5 333zM423 -270q8 -2 25 -2q51 0 77.5 30.5t26.5 112.5v27h152q2 -10 2 -23.5v-19.5q0 -129 -61.5 -184.5t-151.5 -55.5q-23 0 -41 2t-29 6v107z" />
<glyph unicode="&#x123;" horiz-adv-x="956" d="M98 545q0 129 23.5 232.5t74 176t130.5 110.5t194 38q76 0 148.5 -15.5t130.5 -39.5v-1016q0 -115 -30 -194t-81 -128t-119.5 -71.5t-146.5 -22.5q-66 0 -131.5 14.5t-120.5 42.5l37 148q37 -20 90 -36.5t111 -16.5q100 0 157.5 57t57.5 196v52q-33 -14 -70 -23.5 t-84 -9.5q-193 0 -282 132t-89 374zM283 545q0 -193 55 -271.5t158 -78.5q35 0 66.5 8t60.5 22v707q-29 8 -55.5 11t-49.5 3q-123 0 -179 -94t-56 -307zM395 1270.5v19.5q0 74 20.5 128.5t53.5 91t71.5 58t73.5 31.5l74 -92q-27 -18 -48.5 -36.5t-37.5 -44t-25.5 -61.5 t-9.5 -91v-27h-170q-2 10 -2 23.5z" />
<glyph unicode="&#x124;" horiz-adv-x="1179" d="M172 0v1419h184v-600h467v600h185v-1419h-185v659h-467v-659h-184zM352 1569l236 311l235 -311l-86 -72l-149 174l-150 -174z" />
<glyph unicode="&#x125;" horiz-adv-x="987" d="M94 1780l242 194l241 -194l-63 -86l-178 123l-177 -123zM160 0v1559l176 30v-520q39 12 85 20.5t93 8.5q68 0 127 -21.5t103 -73t70 -138.5t26 -216v-649h-176v635q0 160 -41 233.5t-154 73.5q-59 0 -133 -20v-922h-176z" />
<glyph unicode="&#x126;" horiz-adv-x="1179" d="M33 1057v135h139v227h184v-227h467v227h185v-227h139v-135h-139v-1057h-185v659h-467v-659h-184v1057h-139zM356 819h467v238h-467v-238z" />
<glyph unicode="&#x127;" horiz-adv-x="987" d="M31 1264v135h129v160l176 30v-190h262v-135h-262v-195q39 12 85 20.5t93 8.5q68 0 127 -21.5t103 -73t70 -138.5t26 -216v-649h-176v635q0 160 -41 233.5t-154 73.5q-59 0 -133 -20v-924h-176v1266h-129z" />
<glyph unicode="&#x128;" horiz-adv-x="528" d="M4 1616q16 98 57.5 150t100.5 52q37 0 65.5 -14t53 -32.5t45 -33t43.5 -14.5q18 0 31.5 20.5t25.5 73.5l103 -34q-18 -98 -58.5 -150.5t-99.5 -52.5q-35 0 -64.5 14.5t-54 32.5t-46 32.5t-42.5 14.5q-18 0 -31.5 -20.5t-25.5 -73.5zM172 0v1419h184v-1419h-184z" />
<glyph unicode="&#x129;" horiz-adv-x="495" d="M-13 1309q16 98 57.5 150t100.5 52q37 0 65.5 -14t53 -32.5t45 -33t43.5 -14.5q18 0 31.5 20.5t25.5 73.5l103 -34q-18 -98 -58.5 -150.5t-99.5 -52.5q-35 0 -64.5 14.5t-54 32.5t-46 32.5t-42.5 14.5q-18 0 -31.5 -20.5t-25.5 -73.5zM160 0v1075h176v-1075h-176z" />
<glyph unicode="&#x12a;" horiz-adv-x="528" d="M47 1624v139h437v-139h-437zM172 0v1419h184v-1419h-184z" />
<glyph unicode="&#x12b;" horiz-adv-x="495" d="M30 1317v139h437v-139h-437zM160 0v1075h176v-1075h-176z" />
<glyph unicode="&#x12c;" horiz-adv-x="528" d="M31 1851h119q4 -68 27.5 -117t89.5 -49t89 49.5t27 116.5h119q0 -135 -61 -209.5t-174 -74.5q-115 0 -175.5 74.5t-60.5 209.5zM172 0v1419h184v-1419h-184z" />
<glyph unicode="&#x12d;" horiz-adv-x="495" d="M14 1544h119q4 -68 27.5 -117t89.5 -49t89 49.5t27 116.5h119q0 -135 -61 -209.5t-174 -74.5q-115 0 -175.5 74.5t-60.5 209.5zM160 0v1075h176v-1075h-176z" />
<glyph unicode="&#x12e;" horiz-adv-x="528" d="M29 -217q0 68 36.5 128t106.5 112v1396h184v-1419q-80 -43 -124 -85t-44 -85q0 -41 26 -58.5t62 -17.5q39 0 74 15l10 -129q-57 -23 -127 -23q-90 0 -147 44t-57 122z" />
<glyph unicode="&#x12f;" horiz-adv-x="495" d="M8 -217q0 74 41 131t111 109v1052h176v-1075q-80 -43 -124 -85t-44 -85q0 -41 25.5 -58.5t62.5 -17.5q39 0 74 15l10 -129q-57 -23 -127 -23q-90 0 -147.5 44t-57.5 122zM133 1382q0 53 34 85t81 32t80.5 -31.5t33.5 -85.5q0 -53 -33.5 -84.5t-80.5 -31.5t-81 31.5 t-34 84.5z" />
<glyph unicode="&#x130;" horiz-adv-x="528" d="M152 1689q0 53 33.5 85t81.5 32q47 0 80.5 -31.5t33.5 -85.5q0 -53 -33.5 -84.5t-80.5 -31.5t-81 31.5t-34 84.5zM172 0v1419h184v-1419h-184z" />
<glyph unicode="&#x131;" horiz-adv-x="495" d="M160 0v1075h176v-1075h-176z" />
<glyph unicode="&#x132;" horiz-adv-x="1337" d="M172 0v1419h184v-1419h-184zM538 59l62 146q35 -27 93 -50.5t114 -23.5q43 0 76.5 10.5t58 38t37 75.5t12.5 122v1042h184v-1042q0 -94 -19.5 -169t-61.5 -128t-110.5 -82t-166.5 -29q-78 0 -149.5 23.5t-129.5 66.5z" />
<glyph unicode="&#x133;" horiz-adv-x="991" d="M133 1382q0 53 34 85t81 32t80.5 -31.5t33.5 -85.5q0 -53 -33.5 -84.5t-80.5 -31.5t-81 31.5t-34 84.5zM160 0v1075h176v-1075h-176zM426 -365l25 150q18 -4 36.5 -7t41.5 -3q29 0 52.5 7t39.5 27.5t25.5 55.5t9.5 88v1122h176v-1132q0 -176 -78 -252t-207 -76 q-68 0 -121 20zM629 1382q0 53 34 85t81 32t80.5 -31.5t33.5 -85.5q0 -53 -33.5 -84.5t-80.5 -31.5t-81 31.5t-34 84.5z" />
<glyph unicode="&#x134;" horiz-adv-x="808" d="M10 59l62 146q35 -27 93 -50.5t114 -23.5q43 0 76.5 10.5t58 38t37 75.5t12.5 122v1042h184v-1042q0 -94 -19.5 -169t-61.5 -128t-110.5 -82t-166.5 -29q-78 0 -149.5 23.5t-129.5 66.5zM317 1569l236 311l235 -311l-86 -72l-149 174l-150 -174z" />
<glyph unicode="&#x135;" horiz-adv-x="495" d="M-70 -360l25 149q18 -4 36.5 -7t41.5 -3q29 0 52.5 7t39.5 27.5t25.5 55.5t9.5 88v1118h176v-1128q0 -176 -78 -252t-207 -76q-68 0 -121 21zM12 1262l236 311l235 -311l-86 -72l-149 174l-150 -174z" />
<glyph unicode="&#x136;" horiz-adv-x="1054" d="M172 0v1419h184v-626q53 68 112.5 153.5t118 171.5t110 165t85.5 136h201q-45 -70 -101.5 -153.5t-115.5 -172.5t-119.5 -175.5t-116.5 -159.5q61 -61 133 -154.5t141.5 -197t131 -210t98.5 -196.5h-207q-43 94 -99 192.5t-118.5 189.5t-127 169t-126.5 131v-682h-184z M362 -270q8 -2 25 -2q51 0 77.5 30.5t26.5 112.5v27h152q2 -10 2 -23.5v-19.5q0 -129 -61.5 -184.5t-151.5 -55.5q-23 0 -41 2t-29 6v107z" />
<glyph unicode="&#x137;" horiz-adv-x="874" d="M160 0v1559l176 30v-977q37 49 79 110.5t83 124t77.5 122t61.5 106.5h188q-86 -147 -164.5 -269t-156.5 -228q49 -57 100 -129t98.5 -149t88 -153.5t69.5 -146.5h-192q-31 68 -72 141.5t-86 144t-90 134t-84 106.5v-526h-176zM270 -270q8 -2 25 -2q51 0 77.5 30.5 t26.5 112.5v27h152q2 -10 2 -23.5v-19.5q0 -129 -61.5 -184.5t-151.5 -55.5q-23 0 -41 2t-29 6v107z" />
<glyph unicode="&#x138;" horiz-adv-x="874" d="M160 0v1075h176v-463q37 49 79 110.5t83 124t77.5 122t61.5 106.5h188q-86 -147 -164.5 -269t-156.5 -228q49 -57 100 -129t98.5 -149t88 -153.5t69.5 -146.5h-192q-31 68 -72 141.5t-86 144t-90 134t-84 106.5v-526h-176z" />
<glyph unicode="&#x139;" horiz-adv-x="854" d="M139 1575l242 325l125 -106l-279 -295zM172 0v1419h184v-1261h449v-158h-633z" />
<glyph unicode="&#x13a;" horiz-adv-x="497" d="M84 1786l310 160l55 -146l-322 -117zM156 279v1280l176 30v-1315q0 -72 28.5 -103.5t100.5 -43.5l-23 -147q-152 4 -217 74.5t-65 224.5z" />
<glyph unicode="&#x13b;" horiz-adv-x="854" d="M172 0v1419h184v-1261h449v-158h-633zM296 -270q8 -2 25 -2q51 0 77.5 30.5t26.5 112.5v27h152q2 -10 2 -23.5v-19.5q0 -129 -61.5 -184.5t-151.5 -55.5q-23 0 -41 2t-29 6v107z" />
<glyph unicode="&#x13c;" horiz-adv-x="497" d="M84 -270q8 -2 25 -2q51 0 77.5 30.5t26.5 112.5v27h152q2 -10 2 -23.5v-19.5q0 -129 -61.5 -184.5t-151.5 -55.5q-23 0 -41 2t-29 6v107zM156 279v1280l176 30v-1315q0 -72 28.5 -103.5t100.5 -43.5l-23 -147q-152 4 -217 74.5t-65 224.5z" />
<glyph unicode="&#x13d;" horiz-adv-x="854" d="M172 0v1419h184v-1261h449v-158h-633zM502 965v456h172l-56 -456h-116z" />
<glyph unicode="&#x13e;" horiz-adv-x="555" d="M156 279v1280l176 30v-1315q0 -72 28.5 -103.5t100.5 -43.5l-23 -147q-152 4 -217 74.5t-65 224.5zM445 1133v456h172l-56 -456h-116z" />
<glyph unicode="&#x13f;" horiz-adv-x="854" d="M172 0v1419h184v-1261h449v-158h-633zM519 737q0 49 32.5 86t87.5 37t89 -37t34 -86q0 -47 -33.5 -84t-89.5 -37q-55 0 -87.5 37t-32.5 84z" />
<glyph unicode="&#x140;" horiz-adv-x="677" d="M156 279v1280l176 30v-1315q0 -72 28.5 -103.5t100.5 -43.5l-23 -147q-152 4 -217 74.5t-65 224.5zM455 745q0 49 32.5 86t87.5 37t89 -37t34 -86q0 -47 -33.5 -84t-89.5 -37q-55 0 -87.5 37t-32.5 84z" />
<glyph unicode="&#x141;" horiz-adv-x="854" d="M23 635l170 102v682h184v-571l205 123l69 -115l-274 -166v-532h448v-158h-632v580l-101 -60z" />
<glyph unicode="&#x142;" horiz-adv-x="497" d="M-16 760l172 96v703l176 30v-633l114 66l68 -121l-182 -102v-525q0 -72 28.5 -103.5t100.5 -43.5l-23 -147q-152 4 -217 74.5t-65 224.5v419l-105 -57z" />
<glyph unicode="&#x143;" horiz-adv-x="1189" d="M172 0v1419h154q78 -127 150.5 -260t138 -263t124 -256t107.5 -239v1018h172v-1419h-150q-49 121 -111.5 261t-131 282.5t-140 283t-141.5 260.5v-1087h-172zM493 1575l242 325l125 -106l-279 -295z" />
<glyph unicode="&#x144;" horiz-adv-x="987" d="M160 0v1044q76 23 164 38.5t161 15.5q80 0 145.5 -21.5t111.5 -73t72 -138.5t26 -216v-649h-176v635q0 160 -41 233.5t-154 73.5q-59 0 -133 -20v-922h-176zM377 1268l242 325l125 -106l-279 -295z" />
<glyph unicode="&#x145;" horiz-adv-x="1189" d="M172 0v1419h154q78 -127 150.5 -260t138 -263t124 -256t107.5 -239v1018h172v-1419h-150q-49 121 -111.5 261t-131 282.5t-140 283t-141.5 260.5v-1087h-172zM409 -270q8 -2 25 -2q51 0 77.5 30.5t26.5 112.5v27h152q2 -10 2 -23.5v-19.5q0 -129 -61.5 -184.5 t-151.5 -55.5q-23 0 -41 2t-29 6v107z" />
<glyph unicode="&#x146;" horiz-adv-x="987" d="M160 0v1044q76 23 164 38.5t161 15.5q80 0 145.5 -21.5t111.5 -73t72 -138.5t26 -216v-649h-176v635q0 160 -41 233.5t-154 73.5q-59 0 -133 -20v-922h-176zM305 -270q8 -2 25 -2q51 0 77.5 30.5t26.5 112.5v27h152q2 -10 2 -23.5v-19.5q0 -129 -61.5 -184.5 t-151.5 -55.5q-23 0 -41 2t-29 6v107z" />
<glyph unicode="&#x147;" horiz-adv-x="1189" d="M172 0v1419h154q78 -127 150.5 -260t138 -263t124 -256t107.5 -239v1018h172v-1419h-150q-49 121 -111.5 261t-131 282.5t-140 283t-141.5 260.5v-1087h-172zM360 1808l86 72l150 -174l149 174l86 -72l-235 -311z" />
<glyph unicode="&#x148;" horiz-adv-x="987" d="M160 0v1044q76 23 164 38.5t161 15.5q80 0 145.5 -21.5t111.5 -73t72 -138.5t26 -216v-649h-176v635q0 160 -41 233.5t-154 73.5q-59 0 -133 -20v-922h-176zM258 1501l86 72l150 -174l149 174l86 -72l-235 -311z" />
<glyph unicode="&#x149;" horiz-adv-x="987" d="M40 1210q51 80 67.5 162t16.5 154q0 20 -1 38.5t-3 34.5h179q2 -14 2 -25v-24q0 -102 -37 -195t-101 -181zM160 0v1044q76 23 164 38.5t161 15.5q80 0 145.5 -21.5t111.5 -73t72 -138.5t26 -216v-649h-176v635q0 160 -41 233.5t-154 73.5q-59 0 -133 -20v-922h-176z" />
<glyph unicode="&#x14a;" horiz-adv-x="1189" d="M172 0v1419h154q78 -127 150.5 -260t138 -263t124 -256t107.5 -239v1018h172v-1480q0 -176 -68.5 -252t-191.5 -76q-31 0 -60.5 5t-56.5 15l25 150q18 -4 35.5 -7t35.5 -3q27 0 47.5 7t33.5 27.5t20.5 55.5t7.5 88v106q-49 119 -109.5 252t-126 268.5t-133 266.5 t-133.5 245v-1087h-172z" />
<glyph unicode="&#x14b;" horiz-adv-x="987" d="M160 0v1044q76 23 164 38.5t161 15.5q80 0 145.5 -21.5t111.5 -73t72 -138.5t26 -216v-710q0 -176 -74 -252t-197 -76q-66 0 -114 20l24 140q37 -10 70 -11q27 0 47 7.5t35.5 28t24 55t8.5 88.5v696q0 160 -41 233.5t-154 73.5q-59 0 -133 -20v-922h-176z" />
<glyph unicode="&#x14c;" horiz-adv-x="1239" d="M115 709q0 166 30.5 303t93 234t158 151.5t224.5 54.5t224 -54.5t157.5 -151.5t92 -234t29.5 -303t-29.5 -302.5t-92 -233.5t-157.5 -150.5t-224 -53.5t-224.5 53.5t-158 150.5t-93 233.5t-30.5 302.5zM311 709q0 -129 17.5 -235.5t54.5 -182.5t95.5 -118t142.5 -42 t142 42t95 118t53.5 182.5t16.5 235.5t-16.5 235.5t-53.5 183t-95 119.5t-142 43t-142.5 -43t-95.5 -119.5t-54.5 -183t-17.5 -235.5zM399 1624v139h437v-139h-437z" />
<glyph unicode="&#x14d;" horiz-adv-x="948" d="M98 537q0 125 22.5 229t69 179t118 116t167.5 41t167 -41t117 -116t68.5 -179t22.5 -229q0 -127 -22.5 -230.5t-68.5 -177.5t-117 -115t-167 -41t-167.5 41t-118 115t-69 177.5t-22.5 230.5zM254 1317v139h437v-139h-437zM283 537q0 -90 10 -165t33.5 -128.5t59.5 -83 t89 -29.5q51 0 88 29.5t59.5 83t33 128.5t10.5 165t-10.5 164.5t-33 129t-59.5 84t-88 29.5q-53 0 -89 -29.5t-59.5 -84t-33.5 -129t-10 -164.5z" />
<glyph unicode="&#x14e;" horiz-adv-x="1239" d="M115 709q0 166 30.5 303t93 234t158 151.5t224.5 54.5t224 -54.5t157.5 -151.5t92 -234t29.5 -303t-29.5 -302.5t-92 -233.5t-157.5 -150.5t-224 -53.5t-224.5 53.5t-158 150.5t-93 233.5t-30.5 302.5zM311 709q0 -129 17.5 -235.5t54.5 -182.5t95.5 -118t142.5 -42 t142 42t95 118t53.5 182.5t16.5 235.5t-16.5 235.5t-53.5 183t-95 119.5t-142 43t-142.5 -43t-95.5 -119.5t-54.5 -183t-17.5 -235.5zM383 1851h119q4 -68 27.5 -117t89.5 -49t89 49.5t27 116.5h119q0 -135 -61 -209.5t-174 -74.5q-115 0 -175.5 74.5t-60.5 209.5z" />
<glyph unicode="&#x14f;" horiz-adv-x="948" d="M98 537q0 125 22.5 229t69 179t118 116t167.5 41t167 -41t117 -116t68.5 -179t22.5 -229q0 -127 -22.5 -230.5t-68.5 -177.5t-117 -115t-167 -41t-167.5 41t-118 115t-69 177.5t-22.5 230.5zM238 1544h119q4 -68 27.5 -117t89.5 -49t89 49.5t27 116.5h119 q0 -135 -61 -209.5t-174 -74.5q-115 0 -175.5 74.5t-60.5 209.5zM283 537q0 -90 10 -165t33.5 -128.5t59.5 -83t89 -29.5q51 0 88 29.5t59.5 83t33 128.5t10.5 165t-10.5 164.5t-33 129t-59.5 84t-88 29.5q-53 0 -89 -29.5t-59.5 -84t-33.5 -129t-10 -164.5z" />
<glyph unicode="&#x150;" horiz-adv-x="1239" d="M115 709q0 166 30.5 303t93 234t158 151.5t224.5 54.5t224 -54.5t157.5 -151.5t92 -234t29.5 -303t-29.5 -302.5t-92 -233.5t-157.5 -150.5t-224 -53.5t-224.5 53.5t-158 150.5t-93 233.5t-30.5 302.5zM311 709q0 -129 17.5 -235.5t54.5 -182.5t95.5 -118t142.5 -42 t142 42t95 118t53.5 182.5t16.5 235.5t-16.5 235.5t-53.5 183t-95 119.5t-142 43t-142.5 -43t-95.5 -119.5t-54.5 -183t-17.5 -235.5zM412 1564l196 349l127 -84l-229 -322zM692 1564l197 349l127 -84l-229 -322z" />
<glyph unicode="&#x151;" horiz-adv-x="948" d="M98 537q0 125 22.5 229t69 179t118 116t167.5 41t167 -41t117 -116t68.5 -179t22.5 -229q0 -127 -22.5 -230.5t-68.5 -177.5t-117 -115t-167 -41t-167.5 41t-118 115t-69 177.5t-22.5 230.5zM234 1257l196 349l127 -84l-229 -322zM283 537q0 -90 10 -165t33.5 -128.5 t59.5 -83t89 -29.5q51 0 88 29.5t59.5 83t33 128.5t10.5 165t-10.5 164.5t-33 129t-59.5 84t-88 29.5q-53 0 -89 -29.5t-59.5 -84t-33.5 -129t-10 -164.5zM514 1257l197 349l127 -84l-229 -322z" />
<glyph unicode="&#x152;" horiz-adv-x="1548" d="M115 711q0 195 42 333t118.5 225t185 127t241.5 40q45 0 92.5 -4.5t98.5 -12.5h551v-157h-453v-441h410v-153h-410v-510h486v-158h-607q-43 -6 -84 -10t-81 -4q-133 0 -243 40t-186.5 127t-118.5 225t-42 333zM311 711q0 -295 91.5 -428t291.5 -133q29 0 56.5 2t56.5 6 v1106q-29 4 -56.5 6t-54.5 2q-203 0 -294 -132t-91 -429z" />
<glyph unicode="&#x153;" horiz-adv-x="1460" d="M100 537q0 125 22.5 229t69 179t118 116t167.5 41q94 0 163 -47t116 -135q96 182 264 182q92 0 155.5 -37t103.5 -104.5t57.5 -165t17.5 -215.5v-46.5t-2 -48.5h-510q2 -78 14 -142t40 -112.5t74 -75t117 -26.5q59 0 109.5 17.5t73.5 29.5l33 -141q-27 -18 -89.5 -40 t-148.5 -22q-111 0 -186.5 45t-122.5 132q-47 -86 -116 -131.5t-163 -45.5q-96 0 -167.5 41t-118 115t-69 177.5t-22.5 230.5zM285 537q0 -90 10 -165t33.5 -128.5t59.5 -83t89 -29.5q51 0 88 29.5t59.5 83t33 128.5t10.5 165t-10.5 164.5t-33 129t-59.5 84t-88 29.5 q-53 0 -89 -29.5t-59.5 -84t-33.5 -129t-10 -164.5zM844 629h325q0 68 -7 126t-23.5 102t-46 69.5t-72.5 25.5t-75 -24.5t-52.5 -68.5t-32.5 -103.5t-16 -126.5z" />
<glyph unicode="&#x154;" horiz-adv-x="1052" d="M172 0v1399q143 35 277 35q106 0 192 -25t147.5 -78t95.5 -137t34 -203q0 -147 -56.5 -238t-152.5 -139q25 -41 62.5 -111.5t77.5 -155.5t78 -175t64 -172h-184q-23 61 -56.5 139t-70.5 155t-74 147.5t-65 119.5q-33 -4 -68 -6t-70 -2h-51v-553h-180zM346 1575l242 325 l125 -106l-279 -295zM352 705h78q141 0 217 64.5t76 221.5q0 80 -19.5 134.5t-55.5 86t-86 46t-111 14.5q-53 0 -99 -6v-561z" />
<glyph unicode="&#x155;" horiz-adv-x="671" d="M160 0v1028q59 29 136 48.5t169 19.5q49 0 98 -6.5t92 -22.5l-30 -152q-66 29 -148 29q-76 0 -141 -26v-918h-176zM291 1268l242 325l125 -106l-279 -295z" />
<glyph unicode="&#x156;" horiz-adv-x="1052" d="M172 0v1399q143 35 277 35q106 0 192 -25t147.5 -78t95.5 -137t34 -203q0 -147 -56.5 -238t-152.5 -139q25 -41 62.5 -111.5t77.5 -155.5t78 -175t64 -172h-184q-23 61 -56.5 139t-70.5 155t-74 147.5t-65 119.5q-33 -4 -68 -6t-70 -2h-51v-553h-180zM352 705h78 q141 0 217 64.5t76 221.5q0 80 -19.5 134.5t-55.5 86t-86 46t-111 14.5q-53 0 -99 -6v-561zM358 -270q8 -2 25 -2q51 0 77.5 30.5t26.5 112.5v27h152q2 -10 2 -23.5v-19.5q0 -129 -61.5 -184.5t-151.5 -55.5q-23 0 -41 2t-29 6v107z" />
<glyph unicode="&#x157;" horiz-adv-x="671" d="M38 -270q8 -2 25 -2q51 0 77.5 30.5t26.5 112.5v27h152q2 -10 2 -23.5v-19.5q0 -129 -61.5 -184.5t-151.5 -55.5q-23 0 -41 2t-29 6v107zM160 0v1028q59 29 136 48.5t169 19.5q49 0 98 -6.5t92 -22.5l-30 -152q-66 29 -148 29q-76 0 -141 -26v-918h-176z" />
<glyph unicode="&#x158;" horiz-adv-x="1052" d="M172 0v1399q143 35 277 35q106 0 192 -25t147.5 -78t95.5 -137t34 -203q0 -147 -56.5 -238t-152.5 -139q25 -41 62.5 -111.5t77.5 -155.5t78 -175t64 -172h-184q-23 61 -56.5 139t-70.5 155t-74 147.5t-65 119.5q-33 -4 -68 -6t-70 -2h-51v-553h-180zM268 1808l86 72 l150 -174l149 174l86 -72l-235 -311zM352 705h78q141 0 217 64.5t76 221.5q0 80 -19.5 134.5t-55.5 86t-86 46t-111 14.5q-53 0 -99 -6v-561z" />
<glyph unicode="&#x159;" horiz-adv-x="671" d="M160 0v1028q59 29 136 48.5t169 19.5q49 0 98 -6.5t92 -22.5l-30 -152q-66 29 -148 29q-76 0 -141 -26v-918h-176zM172 1501l86 72l150 -174l149 174l86 -72l-235 -311z" />
<glyph unicode="&#x15a;" horiz-adv-x="819" d="M51 51l58 148q53 -33 109 -52.5t130 -19.5q111 0 171.5 61.5t60.5 165.5q0 55 -18.5 98.5t-48.5 78t-68.5 63.5t-79.5 57q-47 33 -98.5 70t-93.5 86t-68.5 114.5t-26.5 153.5q0 86 29.5 155.5t82 119t125 76t156.5 26.5q82 0 151.5 -20.5t116.5 -49.5l-57 -145 q-43 29 -93 44t-106 15q-100 0 -160.5 -54t-60.5 -159q0 -57 19.5 -100t51.5 -78t74 -63.5t89 -59.5t96 -67.5t89 -84.5t65.5 -112.5t25.5 -152.5q0 -80 -24.5 -152t-77 -126t-131 -86t-185.5 -32q-98 0 -171.5 22.5t-131.5 59.5zM325 1575l242 325l125 -106l-279 -295z" />
<glyph unicode="&#x15b;" horiz-adv-x="698" d="M74 37l37 145q31 -16 83 -36.5t115 -20.5q78 0 118 44t40 116q0 45 -16.5 76.5t-43 56t-61.5 44t-70 42.5q-35 20 -67.5 48t-58 63.5t-41 81.5t-15.5 108q0 133 83 215t224 82q59 0 112.5 -15.5t88.5 -33.5l-39 -142q-37 20 -73.5 30.5t-79.5 10.5q-66 0 -105 -37.5 t-39 -109.5q0 -41 14.5 -70.5t38 -53.5t53 -44.5t62.5 -38.5q39 -23 77 -49.5t67.5 -62t48 -84t18.5 -115.5q0 -141 -83 -227.5t-243 -86.5q-82 0 -147.5 22.5t-97.5 41.5zM254 1268l242 325l125 -106l-279 -295z" />
<glyph unicode="&#x15c;" horiz-adv-x="819" d="M51 51l58 148q53 -33 109 -52.5t130 -19.5q111 0 171.5 61.5t60.5 165.5q0 55 -18.5 98.5t-48.5 78t-68.5 63.5t-79.5 57q-47 33 -98.5 70t-93.5 86t-68.5 114.5t-26.5 153.5q0 86 29.5 155.5t82 119t125 76t156.5 26.5q82 0 151.5 -20.5t116.5 -49.5l-57 -145 q-43 29 -93 44t-106 15q-100 0 -160.5 -54t-60.5 -159q0 -57 19.5 -100t51.5 -78t74 -63.5t89 -59.5t96 -67.5t89 -84.5t65.5 -112.5t25.5 -152.5q0 -80 -24.5 -152t-77 -126t-131 -86t-185.5 -32q-98 0 -171.5 22.5t-131.5 59.5zM195 1569l236 311l235 -311l-86 -72 l-149 174l-150 -174z" />
<glyph unicode="&#x15d;" horiz-adv-x="698" d="M74 37l37 145q31 -16 83 -36.5t115 -20.5q78 0 118 44t40 116q0 45 -16.5 76.5t-43 56t-61.5 44t-70 42.5q-35 20 -67.5 48t-58 63.5t-41 81.5t-15.5 108q0 133 83 215t224 82q59 0 112.5 -15.5t88.5 -33.5l-39 -142q-37 20 -73.5 30.5t-79.5 10.5q-66 0 -105 -37.5 t-39 -109.5q0 -41 14.5 -70.5t38 -53.5t53 -44.5t62.5 -38.5q39 -23 77 -49.5t67.5 -62t48 -84t18.5 -115.5q0 -141 -83 -227.5t-243 -86.5q-82 0 -147.5 22.5t-97.5 41.5zM143 1262l236 311l235 -311l-86 -72l-149 174l-150 -174z" />
<glyph unicode="&#x15e;" horiz-adv-x="819" d="M51 51l58 148q53 -33 109 -52.5t130 -19.5q111 0 171.5 61.5t60.5 165.5q0 55 -18.5 98.5t-48.5 78t-68.5 63.5t-79.5 57q-47 33 -98.5 70t-93.5 86t-68.5 114.5t-26.5 153.5q0 86 29.5 155.5t82 119t125 76t156.5 26.5q82 0 151.5 -20.5t116.5 -49.5l-57 -145 q-43 29 -93 44t-106 15q-100 0 -160.5 -54t-60.5 -159q0 -57 19.5 -100t51.5 -78t74 -63.5t89 -59.5t96 -67.5t89 -84.5t65.5 -112.5t25.5 -152.5q0 -72 -19.5 -135.5t-59.5 -116t-100.5 -88t-141.5 -48.5q-8 -16 -15.5 -30.5t-11.5 -28.5q59 -23 83.5 -58.5t24.5 -82.5 q0 -78 -61 -121t-152 -43q-31 0 -67.5 5t-71.5 17l21 113q20 -4 42.5 -9t47.5 -5q37 0 63.5 11t26.5 44q0 23 -22.5 39t-84.5 29q8 27 20.5 56.5t24.5 57.5q-86 4 -151.5 24.5t-116.5 55.5z" />
<glyph unicode="&#x15f;" horiz-adv-x="698" d="M74 37l37 145q31 -16 83 -36.5t115 -20.5q78 0 118 44t40 116q0 45 -16.5 76.5t-43 56t-61.5 44t-70 42.5q-35 20 -67.5 48t-58 63.5t-41 81.5t-15.5 108q0 133 83 215t224 82q59 0 112.5 -15.5t88.5 -33.5l-39 -142q-37 20 -73.5 30.5t-79.5 10.5q-66 0 -105 -37.5 t-39 -109.5q0 -41 14.5 -70.5t38 -53.5t53 -44.5t62.5 -38.5q39 -23 77 -49.5t67.5 -62t48 -84t18.5 -115.5q0 -117 -55 -196t-166 -105q-10 -16 -17.5 -34t-13.5 -34q59 -23 84 -58.5t25 -82.5q0 -78 -61.5 -121t-151.5 -43q-31 0 -68 5t-71 17l20 113q20 -4 43 -9t47 -5 q37 0 63.5 11t26.5 44q0 23 -22.5 39t-83.5 29q8 29 20 59.5t27 58.5q-72 4 -130.5 24.5t-86.5 37.5z" />
<glyph unicode="&#x160;" horiz-adv-x="819" d="M51 51l58 148q53 -33 109 -52.5t130 -19.5q111 0 171.5 61.5t60.5 165.5q0 55 -18.5 98.5t-48.5 78t-68.5 63.5t-79.5 57q-47 33 -98.5 70t-93.5 86t-68.5 114.5t-26.5 153.5q0 86 29.5 155.5t82 119t125 76t156.5 26.5q82 0 151.5 -20.5t116.5 -49.5l-57 -145 q-43 29 -93 44t-106 15q-100 0 -160.5 -54t-60.5 -159q0 -57 19.5 -100t51.5 -78t74 -63.5t89 -59.5t96 -67.5t89 -84.5t65.5 -112.5t25.5 -152.5q0 -80 -24.5 -152t-77 -126t-131 -86t-185.5 -32q-98 0 -171.5 22.5t-131.5 59.5zM197 1808l86 72l150 -174l149 174l86 -72 l-235 -311z" />
<glyph unicode="&#x161;" horiz-adv-x="698" d="M74 37l37 145q31 -16 83 -36.5t115 -20.5q78 0 118 44t40 116q0 45 -16.5 76.5t-43 56t-61.5 44t-70 42.5q-35 20 -67.5 48t-58 63.5t-41 81.5t-15.5 108q0 133 83 215t224 82q59 0 112.5 -15.5t88.5 -33.5l-39 -142q-37 20 -73.5 30.5t-79.5 10.5q-66 0 -105 -37.5 t-39 -109.5q0 -41 14.5 -70.5t38 -53.5t53 -44.5t62.5 -38.5q39 -23 77 -49.5t67.5 -62t48 -84t18.5 -115.5q0 -141 -83 -227.5t-243 -86.5q-82 0 -147.5 22.5t-97.5 41.5zM125 1501l86 72l150 -174l149 174l86 -72l-235 -311z" />
<glyph unicode="&#x162;" horiz-adv-x="872" d="M29 1262v157h815v-157h-316v-1262h-22q-10 -20 -19.5 -41.5t-17.5 -40.5q59 -23 84 -58.5t25 -82.5q0 -78 -61.5 -121t-151.5 -43q-31 0 -68 5t-72 17l21 113q20 -4 42.5 -9t47.5 -5q37 0 63.5 11t26.5 44q0 23 -22.5 39t-84.5 29q10 35 26.5 73.5t33.5 69.5h-35v1262 h-315z" />
<glyph unicode="&#x163;" horiz-adv-x="657" d="M147 344v1020l177 31v-320h270v-151h-270v-592q0 -111 39.5 -155t107.5 -44q35 0 66.5 10.5t54.5 24.5l35 -141q-80 -45 -170 -50q-8 -16 -15.5 -30.5t-11.5 -28.5q59 -23 84 -58.5t25 -82.5q0 -78 -61.5 -121t-151.5 -43q-31 0 -68 5t-72 17l21 113q20 -4 42.5 -9 t47.5 -5q37 0 63.5 11t26.5 44q0 23 -22.5 39t-83.5 29q10 33 24 68.5t31 66.5q-96 27 -142.5 110.5t-46.5 241.5z" />
<glyph unicode="&#x164;" horiz-adv-x="872" d="M29 1262v157h815v-157h-316v-1262h-184v1262h-315zM201 1808l86 72l150 -174l149 174l86 -72l-235 -311z" />
<glyph unicode="&#x165;" horiz-adv-x="657" d="M147 344v1020l177 31v-320h270v-151h-270v-592q0 -111 39.5 -155t107.5 -44q35 0 66.5 10.5t54.5 24.5l35 -141q-84 -49 -178 -50q-152 0 -227 85t-75 282zM461 1192v397h172l-56 -397h-116z" />
<glyph unicode="&#x166;" horiz-adv-x="872" d="M29 1262v157h815v-157h-316v-476h183v-135h-183v-651h-184v651h-182v135h182v476h-315z" />
<glyph unicode="&#x167;" horiz-adv-x="718" d="M147 344v1020l177 31v-320h270v-151h-270v-297h270v-135h-270v-160q0 -111 39.5 -155t107.5 -44q35 0 66.5 10.5t54.5 24.5l35 -141q-84 -49 -178 -50q-152 0 -227 85t-75 282z" />
<glyph unicode="&#x168;" horiz-adv-x="1124" d="M160 438v981h184v-964q0 -162 47 -243t170 -81q127 0 173 83t46 241v964h185v-981q0 -240 -102.5 -354.5t-305.5 -114.5q-199 0 -298 113t-99 356zM301 1616q16 98 57.5 150t100.5 52q37 0 65.5 -14t53 -32.5t45 -33t43.5 -14.5q18 0 31.5 20.5t25.5 73.5l103 -34 q-18 -98 -58.5 -150.5t-99.5 -52.5q-35 0 -64.5 14.5t-54 32.5t-46 32.5t-42.5 14.5q-18 0 -31.5 -20.5t-25.5 -73.5z" />
<glyph unicode="&#x169;" horiz-adv-x="983" d="M145 414v661h177v-655q0 -158 48 -222.5t146 -64.5q33 0 65.5 3t67.5 14v925h176v-1044q-27 -10 -64.5 -19.5t-79.5 -16.5t-84 -12.5t-77 -5.5q-84 0 -153.5 19.5t-118.5 69t-76 134.5t-27 214zM231 1309q16 98 57.5 150t100.5 52q37 0 65.5 -14t53 -32.5t45 -33 t43.5 -14.5q18 0 31.5 20.5t25.5 73.5l103 -34q-18 -98 -58.5 -150.5t-99.5 -52.5q-35 0 -64.5 14.5t-54 32.5t-46 32.5t-42.5 14.5q-18 0 -31.5 -20.5t-25.5 -73.5z" />
<glyph unicode="&#x16a;" horiz-adv-x="1124" d="M160 438v981h184v-964q0 -162 47 -243t170 -81q127 0 173 83t46 241v964h185v-981q0 -240 -102.5 -354.5t-305.5 -114.5q-199 0 -298 113t-99 356zM344 1624v139h437v-139h-437z" />
<glyph unicode="&#x16b;" horiz-adv-x="983" d="M145 414v661h177v-655q0 -158 48 -222.5t146 -64.5q33 0 65.5 3t67.5 14v925h176v-1044q-27 -10 -64.5 -19.5t-79.5 -16.5t-84 -12.5t-77 -5.5q-84 0 -153.5 19.5t-118.5 69t-76 134.5t-27 214zM274 1317v139h437v-139h-437z" />
<glyph unicode="&#x16c;" horiz-adv-x="1124" d="M160 438v981h184v-964q0 -162 47 -243t170 -81q127 0 173 83t46 241v964h185v-981q0 -240 -102.5 -354.5t-305.5 -114.5q-199 0 -298 113t-99 356zM328 1851h119q4 -68 27.5 -117t89.5 -49t89 49.5t27 116.5h119q0 -135 -61 -209.5t-174 -74.5q-115 0 -175.5 74.5 t-60.5 209.5z" />
<glyph unicode="&#x16d;" horiz-adv-x="983" d="M145 414v661h177v-655q0 -158 48 -222.5t146 -64.5q33 0 65.5 3t67.5 14v925h176v-1044q-27 -10 -64.5 -19.5t-79.5 -16.5t-84 -12.5t-77 -5.5q-84 0 -153.5 19.5t-118.5 69t-76 134.5t-27 214zM258 1544h119q4 -68 27.5 -117t89.5 -49t89 49.5t27 116.5h119 q0 -135 -61 -209.5t-174 -74.5q-115 0 -175.5 74.5t-60.5 209.5z" />
<glyph unicode="&#x16e;" horiz-adv-x="1124" d="M160 438v981h184v-964q0 -162 47 -243t170 -81q127 0 173 83t46 241v964h185v-981q0 -240 -102.5 -354.5t-305.5 -114.5q-199 0 -298 113t-99 356zM389 1704q0 80 51.5 127t123.5 47t123 -47t51 -127t-51.5 -127t-122.5 -47q-72 0 -123.5 47t-51.5 127zM482 1704 q0 -41 23.5 -62.5t58.5 -21.5t58 21.5t23 62.5t-23.5 62.5t-57.5 21.5q-35 0 -58.5 -21.5t-23.5 -62.5z" />
<glyph unicode="&#x16f;" horiz-adv-x="983" d="M145 414v661h177v-655q0 -158 48 -222.5t146 -64.5q33 0 65.5 3t67.5 14v925h176v-1044q-27 -10 -64.5 -19.5t-79.5 -16.5t-84 -12.5t-77 -5.5q-84 0 -153.5 19.5t-118.5 69t-76 134.5t-27 214zM319 1397q0 80 51.5 127t123.5 47t123 -47t51 -127t-51.5 -127t-122.5 -47 q-72 0 -123.5 47t-51.5 127zM412 1397q0 -41 23.5 -62.5t58.5 -21.5t58 21.5t23 62.5t-23.5 62.5t-57.5 21.5q-35 0 -58.5 -21.5t-23.5 -62.5z" />
<glyph unicode="&#x170;" horiz-adv-x="1124" d="M160 438v981h184v-964q0 -162 47 -243t170 -81q127 0 173 83t46 241v964h185v-981q0 -240 -102.5 -354.5t-305.5 -114.5q-199 0 -298 113t-99 356zM342 1564l196 349l127 -84l-229 -322zM622 1564l197 349l127 -84l-229 -322z" />
<glyph unicode="&#x171;" horiz-adv-x="983" d="M145 414v661h177v-655q0 -158 48 -222.5t146 -64.5q33 0 65.5 3t67.5 14v925h176v-1044q-27 -10 -64.5 -19.5t-79.5 -16.5t-84 -12.5t-77 -5.5q-84 0 -153.5 19.5t-118.5 69t-76 134.5t-27 214zM252 1257l196 349l127 -84l-229 -322zM532 1257l197 349l127 -84l-229 -322 z" />
<glyph unicode="&#x172;" horiz-adv-x="1124" d="M160 438v981h184v-964q0 -162 47 -243t170 -81q127 0 173 83t46 241v964h185v-981q0 -96 -15.5 -164.5t-43 -118t-64.5 -86t-82 -69.5q-20 -14 -42 -31.5t-40.5 -37t-29.5 -43t-11 -50.5q0 -45 25.5 -64.5t62.5 -19.5q39 0 74 15l10 -129q-57 -23 -127 -23 q-90 0 -147.5 47t-57.5 131q0 51 19.5 93t54.5 81q-195 2 -293 115t-98 354z" />
<glyph unicode="&#x173;" horiz-adv-x="983" d="M145 414v661h177v-655q0 -158 48 -222.5t146 -64.5q33 0 65.5 3t67.5 14v925h176v-1044q-80 -49 -124 -96.5t-44 -96.5q0 -45 26 -64.5t62 -19.5q39 0 74 15l10 -129q-57 -23 -127 -23q-90 0 -147 47t-57 131q0 53 23.5 99.5t64.5 87.5q-16 -2 -32.5 -3.5t-33.5 -1.5 q-84 0 -153.5 19.5t-118.5 69t-76 134.5t-27 214z" />
<glyph unicode="&#x174;" horiz-adv-x="1548" d="M82 1419h186q12 -164 30.5 -326.5t40 -317t44.5 -295t47 -255.5q31 104 65.5 231.5t68.5 262.5t64.5 272t57.5 260h182q27 -123 57.5 -260t64.5 -272t69 -262t65 -232q25 115 47.5 255.5t44 294t40 317t30.5 327.5h180q-47 -412 -105 -758t-136 -661h-187 q-31 100 -66.5 223t-70.5 255t-67.5 267.5t-59.5 262.5q-27 -127 -59.5 -262.5t-67.5 -267.5t-70.5 -255t-66.5 -223h-186q-78 315 -136.5 661.5t-105.5 757.5zM537 1569l236 311l235 -311l-86 -72l-149 174l-150 -174z" />
<glyph unicode="&#x175;" horiz-adv-x="1173" d="M41 1075h174q8 -88 24.5 -205.5t36 -241.5t40 -240t38.5 -198q18 82 42 201t47.5 244t44 242.5t32.5 197.5h166q8 -80 25.5 -196.5t37 -242.5t40 -245t36.5 -201q18 82 39 199t40.5 240t35.5 240.5t25 205.5h168q-47 -315 -103.5 -589.5t-120.5 -485.5h-172 q-16 63 -35.5 162.5t-39 212t-36 226.5t-28.5 208q-12 -94 -32.5 -208t-43 -226.5t-44.5 -212t-36 -162.5h-178q-63 211 -119.5 485.5t-103.5 589.5zM348 1262l236 311l235 -311l-86 -72l-149 174l-150 -174z" />
<glyph unicode="&#x176;" horiz-adv-x="923" d="M6 1419h199q53 -162 120.5 -342t139.5 -336q72 156 139.5 336t120.5 342h193q-35 -96 -77 -204.5t-89 -220t-96.5 -222t-98.5 -211.5v-561h-184v549q-49 100 -100.5 212.5t-98.5 225.5t-90 223.5t-78 208.5zM223 1569l236 311l235 -311l-86 -72l-149 174l-150 -174z" />
<glyph unicode="&#x177;" horiz-adv-x="811" d="M2 -356l33 143q53 -23 100 -23q59 0 96 43t72 130l21 51q-39 106 -79 236t-78 271.5t-73 290t-63 289.5h186q16 -96 39 -210.5t48.5 -229.5t52 -222.5t51.5 -189.5q59 205 108 412t94 440h174q-31 -150 -66.5 -295t-73.5 -280t-76 -255t-70 -218q-39 -115 -75 -194 t-78 -127t-91 -69.5t-117 -21.5q-37 0 -73.5 9t-61.5 20zM166 1262l236 311l235 -311l-86 -72l-149 174l-150 -174z" />
<glyph unicode="&#x178;" horiz-adv-x="923" d="M6 1419h199q53 -162 120.5 -342t139.5 -336q72 156 139.5 336t120.5 342h193q-35 -96 -77 -204.5t-89 -220t-96.5 -222t-98.5 -211.5v-561h-184v549q-49 100 -100.5 212.5t-98.5 225.5t-90 223.5t-78 208.5zM176 1689q0 53 33.5 85t81.5 32q47 0 80.5 -31.5t33.5 -85.5 q0 -53 -33.5 -84.5t-80.5 -31.5t-81 31.5t-34 84.5zM516 1689q0 53 33.5 85t81.5 32q47 0 80.5 -31.5t33.5 -85.5q0 -53 -33.5 -84.5t-80.5 -31.5t-81 31.5t-34 84.5z" />
<glyph unicode="&#x179;" horiz-adv-x="884" d="M63 0v113q31 82 72 180t88 203.5t97.5 212t100.5 207t96 189.5t85 157h-512v157h709v-145q-61 -109 -137 -255.5t-151 -301t-141.5 -302t-109.5 -257.5h553v-158h-750zM274 1575l242 325l125 -106l-279 -295z" />
<glyph unicode="&#x17a;" horiz-adv-x="729" d="M68 0v127q33 90 84 200.5t107 221t110.5 210t93.5 165.5h-371v151h561v-131q-45 -76 -102 -180.5t-113.5 -214t-106.5 -215t-81 -182.5h418v-152h-600zM250 1268l242 325l125 -106l-279 -295z" />
<glyph unicode="&#x17b;" horiz-adv-x="884" d="M63 0v113q31 82 72 180t88 203.5t97.5 212t100.5 207t96 189.5t85 157h-512v157h709v-145q-61 -109 -137 -255.5t-151 -301t-141.5 -302t-109.5 -257.5h553v-158h-750zM328 1689q0 53 33.5 85t81.5 32q47 0 80.5 -31.5t33.5 -85.5q0 -53 -33.5 -84.5t-80.5 -31.5 t-81 31.5t-34 84.5z" />
<glyph unicode="&#x17c;" horiz-adv-x="729" d="M68 0v127q33 90 84 200.5t107 221t110.5 210t93.5 165.5h-371v151h561v-131q-45 -76 -102 -180.5t-113.5 -214t-106.5 -215t-81 -182.5h418v-152h-600zM252 1382q0 53 33.5 85t81.5 32q47 0 80.5 -31.5t33.5 -85.5q0 -53 -33.5 -84.5t-80.5 -31.5t-81 31.5t-34 84.5z" />
<glyph unicode="&#x17d;" horiz-adv-x="884" d="M63 0v113q31 82 72 180t88 203.5t97.5 212t100.5 207t96 189.5t85 157h-512v157h709v-145q-61 -109 -137 -255.5t-151 -301t-141.5 -302t-109.5 -257.5h553v-158h-750zM207 1808l86 72l150 -174l149 174l86 -72l-235 -311z" />
<glyph unicode="&#x17e;" horiz-adv-x="729" d="M68 0v127q33 90 84 200.5t107 221t110.5 210t93.5 165.5h-371v151h561v-131q-45 -76 -102 -180.5t-113.5 -214t-106.5 -215t-81 -182.5h418v-152h-600zM131 1501l86 72l150 -174l149 174l86 -72l-235 -311z" />
<glyph unicode="&#x17f;" horiz-adv-x="487" d="M160 0v1225q0 174 77.5 269t235.5 95q59 0 104.5 -12t73.5 -27l-37 -139q-29 14 -59.5 21.5t-65.5 7.5q-47 0 -77.5 -16.5t-47 -45t-22.5 -68.5t-6 -85v-1225h-176z" />
<glyph unicode="&#x180;" horiz-adv-x="956" d="M31 1264v135h127v160l176 30v-190h264v-135h-264v-197q33 16 66.5 25.5t80.5 9.5q100 0 172 -40t117 -112.5t66.5 -176t21.5 -232.5q0 -285 -101.5 -426.5t-318.5 -141.5q-76 0 -149.5 15.5t-130.5 40.5v1235h-127zM334 143q29 -8 55.5 -11t48.5 -3q119 0 177.5 95 t58.5 317q0 115 -14.5 192.5t-42 124.5t-66.5 67.5t-90 20.5q-68 0 -127 -33v-770z" />
<glyph unicode="&#x181;" horiz-adv-x="1177" d="M0 1108q0 119 53 185.5t134 100t177.5 42t182.5 8.5q94 0 183 -18.5t157.5 -61.5t109.5 -113.5t41 -175.5q0 -127 -53 -208t-137 -119q104 -41 171.5 -125t67.5 -232q0 -111 -35.5 -186.5t-101 -123.5t-157 -69.5t-199.5 -21.5q-72 0 -149.5 8t-161.5 25v1237 q-78 -18 -105.5 -58.5t-27.5 -111.5q0 -16 1 -34t1 -30l-142 -18q-4 14 -7 42.5t-3 57.5zM467 156q39 -6 77 -10.5t74 -4.5q57 0 108.5 12.5t89.5 41t59.5 79t21.5 123.5q0 127 -68.5 199t-214.5 72h-147v-512zM467 815h127q254 0 254 229q0 129 -72.5 181.5t-236.5 52.5 h-38t-34 -2v-461z" />
<glyph unicode="&#x182;" horiz-adv-x="1026" d="M172 20v1399h637v-157h-453v-369h88q111 0 201 -24.5t154.5 -79t100.5 -141.5t36 -210q0 -121 -35 -207t-98.5 -140t-151.5 -79.5t-194 -25.5q-141 0 -285 34zM356 154q49 -6 103 -7q63 0 115.5 14.5t89 48.5t57 89t20.5 139q0 162 -81.5 227.5t-227.5 65.5h-76v-577z " />
<glyph unicode="&#x183;" horiz-adv-x="956" d="M158 29v1550h573v-152h-397v-360q33 16 66.5 25.5t80.5 9.5q100 0 172 -40t117 -112.5t66.5 -176t21.5 -232.5q0 -285 -101.5 -426.5t-318.5 -141.5q-76 0 -149.5 15.5t-130.5 40.5zM334 143q29 -8 55.5 -11t48.5 -3q119 0 177.5 95t58.5 317q0 115 -14.5 192.5 t-42 124.5t-66.5 67.5t-90 20.5q-68 0 -127 -33v-770z" />
<glyph unicode="&#x184;" horiz-adv-x="956" d="M33 1450q68 43 142.5 80t158.5 59v-522q33 16 66.5 25.5t80.5 9.5q100 0 172 -40t117 -112.5t66.5 -176t21.5 -232.5q0 -285 -101.5 -426.5t-318.5 -141.5q-76 0 -149.5 15.5t-130.5 40.5v1265zM334 143q29 -8 55.5 -11t48.5 -3q119 0 177.5 95t58.5 317 q0 115 -14.5 192.5t-42 124.5t-66.5 67.5t-90 20.5q-68 0 -127 -33v-770z" />
<glyph unicode="&#x185;" horiz-adv-x="1003" d="M47 1294q68 43 145.5 80t163.5 60v-541h88q111 0 201 -24.5t154.5 -79t100.5 -141.5t36 -210q0 -121 -35 -207t-97.5 -140t-151.5 -79.5t-195 -25.5q-139 0 -285 34v1119zM356 154q45 -6 101 -7q63 0 115.5 14.5t90 48.5t58 89t20.5 139q0 82 -21.5 137.5t-61.5 90 t-97 50t-129 15.5h-76v-577z" />
<glyph unicode="&#x186;" horiz-adv-x="942" d="M31 55l55 146q47 -33 100.5 -51.5t124.5 -18.5q170 0 246 141.5t76 438.5q0 279 -75 429t-245 150q-80 0 -131 -20.5t-98 -52.5l-51 145q45 37 120 63.5t173 26.5q242 0 372.5 -182.5t130.5 -558.5q0 -203 -40.5 -344.5t-110.5 -229.5t-163 -128t-200 -40 q-86 0 -161.5 25.5t-122.5 60.5z" />
<glyph unicode="&#x187;" horiz-adv-x="1005" d="M113 711q0 203 37.5 344t105.5 229t162 128t209 40q39 0 75.5 -6t71.5 -14q29 92 88.5 135t157.5 43q33 0 62.5 -7.5t54.5 -17.5l-25 -147q-27 12 -50.5 17t-41.5 5q-35 0 -59.5 -18.5t-40 -48t-25.5 -68.5t-18 -82l-3 -12q-47 23 -109.5 41t-133.5 18q-170 0 -246 -141 t-76 -438q0 -281 78 -430.5t254 -149.5q84 0 136 20.5t102 53.5l51 -146q-47 -37 -124 -63.5t-177 -26.5q-250 0 -383 181.5t-133 560.5z" />
<glyph unicode="&#x188;" horiz-adv-x="774" d="M98 535q0 266 95.5 416.5t291.5 150.5h24.5t22.5 -2q29 104 91.5 146t164.5 42q33 0 63 -7t54 -17l-24 -138q-27 12 -50.5 17.5t-42.5 5.5q-37 0 -61.5 -19.5t-39.5 -50t-24.5 -69.5t-17.5 -78l-4 -19q-66 33 -147 33q-111 0 -161 -100.5t-50 -310.5q0 -88 9 -163 t33.5 -128.5t66.5 -84t108 -30.5q45 0 79.5 11.5t67.5 29.5l39 -137q-33 -23 -86.5 -41.5t-116.5 -18.5q-111 0 -184.5 43t-117.5 118t-63.5 177.5t-19.5 223.5z" />
<glyph unicode="&#x189;" horiz-adv-x="1179" d="M31 643v135h139v621q78 16 151.5 26.5t141.5 10.5q137 0 248.5 -40t190.5 -127t122 -225.5t43 -332.5q0 -195 -43 -333t-122 -225t-190.5 -127t-246.5 -40q-139 0 -295 37v620h-139zM354 158q31 -4 59.5 -6t55.5 -2q211 0 306 132t95 429q0 295 -94 428t-305 133 q-29 0 -57.5 -2t-59.5 -6v-486h221v-135h-221v-485z" />
<glyph unicode="&#x18a;" horiz-adv-x="1294" d="M0 1100q0 119 54.5 185.5t137 100t182 42t187.5 8.5q145 0 261 -39t196 -125t122 -224.5t42 -336.5q0 -195 -41 -333t-118 -225t-188.5 -127t-254.5 -40q-139 0 -295 37v1228q-78 -18 -106.5 -58t-28.5 -112q0 -16 1 -33.5t1 -29.5l-142 -19q-4 14 -7 43t-3 58zM469 158 q31 -4 59.5 -6t55.5 -2q113 0 189.5 31.5t123.5 100t67.5 175t20.5 254.5q0 150 -21.5 256t-71.5 173.5t-133 99.5t-206 32h-44.5t-39.5 -2v-1112z" />
<glyph unicode="&#x18b;" horiz-adv-x="1026" d="M90 438q0 123 38 210t104.5 141.5t155.5 79t194 24.5h88v369h-453v157h637v-1399q-145 -35 -285 -34q-111 0 -199.5 25.5t-150 79.5t-95.5 140t-34 207zM285 438q0 -84 20.5 -139t58 -89t90 -48.5t115.5 -14.5q53 0 101 7v577h-76q-145 0 -227 -65.5t-82 -227.5z" />
<glyph unicode="&#x18c;" horiz-adv-x="956" d="M98 541q0 129 21.5 232.5t67.5 176t118 112.5t170 40q47 0 81 -9.5t67 -25.5v360h-398v152h574v-1550q-57 -25 -131 -40.5t-150 -15.5q-221 0 -320.5 141.5t-99.5 426.5zM283 541q0 -221 58 -316.5t177 -95.5q23 0 49.5 3t55.5 11v770q-59 33 -127 33q-51 0 -90 -20.5 t-67 -67.5t-42 -125t-14 -192z" />
<glyph unicode="&#x18d;" horiz-adv-x="958" d="M100 623q0 94 22.5 180t69 152.5t118 106.5t169.5 40t170 -40t118 -106.5t68.5 -152.5t22.5 -180q0 -176 -61.5 -300t-184.5 -208q45 -27 81 -51.5t60.5 -53t38 -64.5t13.5 -83q0 -66 -30 -112t-79 -74.5t-113.5 -42t-133.5 -13.5q-72 0 -147 12.5t-128 32.5l27 144 q51 -16 118.5 -32t133.5 -16q82 0 131 24t49 77q0 45 -32 73.5t-114 75.5q-61 33 -128.5 83t-125 122t-95.5 171t-38 235zM285 623q0 -158 57 -261.5t139 -164.5q98 74 145.5 179t47.5 247q0 68 -11.5 126t-34 102t-60.5 68.5t-89 24.5q-53 0 -90 -25.5t-59.5 -69.5 t-33.5 -102t-11 -124z" />
<glyph unicode="&#x18e;" horiz-adv-x="933" d="M92 0v158h486v510h-410v153h410v441h-453v157h637v-1419h-670z" />
<glyph unicode="&#x18f;" horiz-adv-x="1093" d="M113 641v59.5t2 63.5h669q-2 113 -17 209t-52 166.5t-99.5 110.5t-160.5 40q-68 0 -122 -17.5t-112 -55.5l-51 145q127 90 299 90q143 0 240.5 -53t158 -150.5t87 -231.5t26.5 -296q0 -373 -121 -562.5t-323 -189.5q-115 0 -196 47t-131 134.5t-73.5 212t-23.5 278.5z M307 608q0 -98 11.5 -185t37 -151.5t69.5 -101.5t110 -37q63 0 108 37t73.5 100.5t44 150.5t19.5 187h-473z" />
<glyph unicode="&#x190;" horiz-adv-x="878" d="M100 401q0 61 16.5 119t46.5 105t68.5 83t85.5 54q-84 43 -129 124t-45 197q0 82 27 151t76 116t117.5 73.5t152.5 26.5q78 0 152.5 -19.5t136.5 -64.5l-47 -147q-45 37 -103.5 56t-111.5 19q-111 0 -167.5 -62.5t-56.5 -160.5q0 -111 70 -178.5t229 -67.5h58v-145h-66 q-160 0 -245.5 -78t-85.5 -199q0 -137 77.5 -208.5t202.5 -71.5q55 0 116.5 15.5t110.5 43.5l37 -143q-55 -33 -124.5 -51.5t-151.5 -18.5q-223 0 -335 116t-112 316z" />
<glyph unicode="&#x191;" horiz-adv-x="872" d="M-37 -360l25 149q37 -10 69 -10q27 0 47.5 7t36 27.5t23.5 55.5t8 88v1462h637v-157h-453v-447h402v-153h-402v-715q0 -176 -71.5 -252t-198.5 -76q-70 0 -123 21z" />
<glyph unicode="&#x192;" d="M45 -369l18 144q35 -10 68 -11q57 0 91 35t34 129v1301q0 174 88 267t248 93q47 0 89 -8t83 -22l-39 -148q-27 12 -53.5 19.5t-61.5 7.5q-94 0 -136 -53.5t-42 -153.5v-166h291v-150h-291v-970q0 -156 -74.5 -243t-210.5 -87q-49 0 -102 16z" />
<glyph unicode="&#x193;" horiz-adv-x="1046" d="M113 711q0 201 38.5 342t109.5 230t172.5 129t225.5 40q39 0 75 -5t71 -13q55 180 233 180q31 0 59.5 -7.5t51.5 -17.5l-25 -147q-45 23 -84 22q-31 0 -52 -16t-35.5 -43t-23.5 -60.5t-16 -70.5l-6 -33q-51 23 -108.5 36t-136.5 13q-188 0 -270.5 -143t-82.5 -436 q0 -156 23.5 -266.5t66.5 -180t104.5 -102.5t137.5 -33q63 0 109 14v555h184v-667q-55 -27 -137 -45.5t-172 -18.5q-111 0 -205 44t-163 135.5t-106.5 231.5t-37.5 333z" />
<glyph unicode="&#x194;" horiz-adv-x="1081" d="M41 1419h184l316 -815l315 815h184l-411 -991q45 -121 73.5 -199.5t46 -135t24.5 -100.5t7 -93q0 -45 -13 -93.5t-42 -89.5t-73.5 -67.5t-110.5 -26.5t-111 26.5t-73.5 67.5t-42 89.5t-13.5 93.5q0 49 7 93t24.5 100.5t46.5 135t74 199.5zM455 -90q0 -59 22.5 -97 t63.5 -38t63.5 37.5t22.5 97.5q0 27 -2 53.5t-8.5 56t-16.5 65.5t-27 83l-32 94l-33 -94q-16 -47 -26.5 -83t-16.5 -65.5t-8 -56t-2 -53.5z" />
<glyph unicode="&#x195;" horiz-adv-x="1519" d="M160 -2v1561l176 30v-520q41 12 87 20.5t95 8.5q70 0 130.5 -21.5t105.5 -73t70.5 -138.5t25.5 -216v-299q0 -100 40 -158.5t132 -58.5q94 0 134 58.5t40 160.5v721h176v-721q0 -375 -350 -375q-174 0 -261 88.5t-87 286.5v283q0 158 -43 232.5t-158 74.5q-61 0 -137 -20 v-924h-176z" />
<glyph unicode="&#x196;" horiz-adv-x="618" d="M172 317v1102h184v-1102q0 -188 138 -188q33 0 55 5t41 13l28 -143q-23 -12 -67.5 -23.5t-97.5 -11.5q-152 0 -216.5 90.5t-64.5 257.5z" />
<glyph unicode="&#x197;" horiz-adv-x="593" d="M25 674v135h180v610h184v-610h180v-135h-180v-674h-184v674h-180z" />
<glyph unicode="&#x198;" horiz-adv-x="1077" d="M172 0v1419h184v-626q104 137 187.5 258t136.5 209q59 98 115.5 135t117.5 37q47 0 96.5 -17.5t84.5 -48.5l-62 -133q-47 41 -88 41q-12 0 -24.5 -2t-26.5 -12.5t-31.5 -30t-40.5 -53.5q-59 -90 -136 -201t-155 -215q61 -61 133 -154.5t141.5 -198t131 -211t98.5 -196.5 h-207q-43 94 -99 192.5t-118.5 189.5t-127 169t-126.5 131v-682h-184z" />
<glyph unicode="&#x199;" horiz-adv-x="874" d="M160 0v1262q0 176 73.5 251.5t196.5 75.5q66 0 115 -20l-25 -150q-37 10 -69 11q-53 0 -84 -36t-31 -143v-639q37 49 79 110.5t83 124t77.5 122t61.5 106.5h188q-86 -147 -164.5 -269t-156.5 -228q49 -57 100 -129t98.5 -149t88 -153.5t69.5 -146.5h-192 q-31 68 -72 141.5t-86 144t-90 134t-84 106.5v-526h-176z" />
<glyph unicode="&#x19a;" horiz-adv-x="497" d="M27 760v129h129v670l176 30v-700h139v-129h-139v-486q0 -72 28.5 -103.5t100.5 -43.5l-23 -147q-152 4 -217 74.5t-65 224.5v481h-129z" />
<glyph unicode="&#x19b;" horiz-adv-x="829" d="M31 0q33 143 72.5 289.5t81.5 287t85 269.5t84 239l-28 107l-185 -62l-41 130l179 59q-37 70 -77 87t-91 17q-10 0 -25.5 -2t-30.5 -6l-20 156q27 6 53.5 10t48.5 4q121 0 188.5 -50t114.5 -163l166 55l41 -129l-160 -53q33 -96 72 -233.5t80 -301t82 -345t78 -365.5 h-181q-16 94 -38.5 209t-47 231.5t-50 226t-50.5 193.5q-29 -94 -60.5 -203.5t-60 -223.5t-55.5 -224.5t-47 -208.5h-178z" />
<glyph unicode="&#x19c;" horiz-adv-x="1581" d="M172 397v1022h184v-1003q0 -88 15.5 -144.5t41 -88t60.5 -43t74 -11.5q102 0 184 41q-33 86 -33 227v1022h185v-1003q0 -160 46 -224.5t152 -64.5q74 0 144 33v1259h184v-1382q-80 -29 -172 -49.5t-168 -20.5t-138.5 16.5t-109.5 55.5q-61 -33 -137 -52.5t-154 -19.5 q-76 0 -141 20.5t-113.5 69.5t-76 132t-27.5 208z" />
<glyph unicode="&#x19d;" horiz-adv-x="1189" d="M-39 -360l27 149q37 -10 69 -10q27 0 47.5 7t36 27.5t23.5 55.5t8 88v1462h154q78 -127 150.5 -260t138 -263t124 -256t107.5 -239v1018h172v-1419h-150q-49 121 -111.5 261t-131 282.5t-140 283t-141.5 260.5v-1140q0 -176 -70.5 -252t-193.5 -76q-70 0 -119 21z" />
<glyph unicode="&#x19e;" horiz-adv-x="987" d="M160 0v1044q76 23 164 38.5t161 15.5q80 0 145.5 -21.5t111.5 -73t72 -138.5t26 -216v-1024h-176v1010q0 160 -41 233.5t-154 73.5q-59 0 -133 -20v-922h-176z" />
<glyph unicode="&#x19f;" horiz-adv-x="1239" d="M115 709q0 166 30.5 303t93 234t158 151.5t224.5 54.5t224 -54.5t157.5 -151.5t92 -234t29.5 -303t-29.5 -302.5t-92 -233.5t-157.5 -150.5t-224 -53.5t-224.5 53.5t-158 150.5t-93 233.5t-30.5 302.5zM311 643q4 -117 23.5 -211t56.5 -160.5t94.5 -103.5t135.5 -37 q80 0 135 37t92 103.5t55.5 160.5t22.5 211h-615zM311 778h615q-4 115 -22.5 209t-55.5 162t-93 104.5t-134 36.5t-134.5 -36.5t-94.5 -104.5t-57.5 -162t-23.5 -209z" />
<glyph unicode="&#x1a0;" horiz-adv-x="1239" d="M115 709q0 166 30.5 303t93 234t158 151.5t224.5 54.5q182 0 303 -111q33 51 47 103.5t14 118.5q0 20 -1 42.5t-3 34.5h176q4 -23 4 -35v-30q0 -98 -37 -190.5t-106 -165.5q53 -98 79.5 -226t26.5 -284q0 -166 -29.5 -302.5t-92 -233.5t-157.5 -150.5t-224 -53.5 t-224.5 53.5t-158 150.5t-93 233.5t-30.5 302.5zM311 709q0 -129 17.5 -235.5t54.5 -182.5t95.5 -118t142.5 -42t142 42t95 118t53.5 182.5t16.5 235.5t-16.5 235.5t-53.5 183t-95 119.5t-142 43t-142.5 -43t-95.5 -119.5t-54.5 -183t-17.5 -235.5z" />
<glyph unicode="&#x1a1;" horiz-adv-x="948" d="M98 537q0 125 22.5 229t69 179t118 116t167.5 41q137 0 230 -88q29 47 41 95t12 110q0 20 -1 42.5t-3 34.5h168q4 -23 4 -35v-30q0 -96 -35 -185.5t-100 -162.5q31 -70 45 -157t14 -189q0 -127 -22.5 -230.5t-68.5 -177.5t-117 -115t-167 -41t-167.5 41t-118 115 t-69 177.5t-22.5 230.5zM283 537q0 -90 10 -165t33.5 -128.5t59.5 -83t89 -29.5q51 0 88 29.5t59.5 83t33 128.5t10.5 165t-10.5 164.5t-33 129t-59.5 84t-88 29.5q-53 0 -89 -29.5t-59.5 -84t-33.5 -129t-10 -164.5z" />
<glyph unicode="&#x1a2;" horiz-adv-x="1712" d="M115 709q0 166 29.5 303t91 234t154.5 151.5t220 54.5q158 0 269 -86q76 47 152.5 66.5t150.5 19.5q84 0 152.5 -24.5t116.5 -82t74.5 -151.5t26.5 -233v-961h-184v942q0 190 -45 269t-154 79q-49 0 -96 -13t-88 -34q59 -98 89 -233t30 -301t-30 -302.5t-90 -233.5 t-153.5 -150.5t-220.5 -53.5t-220 53.5t-154.5 150.5t-91 233.5t-29.5 302.5zM311 709q0 -129 16.5 -235.5t52.5 -182.5t93 -118t137 -42q82 0 138.5 42t91 118t51 182.5t16.5 235.5t-16.5 235.5t-51 183t-91 119.5t-138.5 43q-80 0 -137 -43t-93 -119.5t-52.5 -183 t-16.5 -235.5z" />
<glyph unicode="&#x1a3;" horiz-adv-x="1392" d="M98 537q0 125 22.5 229t69 179t118 116t167.5 41q137 0 227 -86q49 35 107.5 58.5t128.5 23.5q68 0 125 -21.5t97 -73t62.5 -138.5t22.5 -216v-1024h-176v1010q0 160 -32.5 233.5t-123.5 73.5q-33 0 -66.5 -12t-62.5 -35q35 -72 50.5 -162t15.5 -196q0 -127 -22.5 -230.5 t-68.5 -177.5t-117 -115t-167 -41t-167.5 41t-118 115t-69 177.5t-22.5 230.5zM283 537q0 -90 10 -165t33.5 -128.5t59.5 -83t89 -29.5q51 0 88 29.5t59.5 83t33 128.5t10.5 165t-10.5 164.5t-33 129t-59.5 84t-88 29.5q-53 0 -89 -29.5t-59.5 -84t-33.5 -129t-10 -164.5z " />
<glyph unicode="&#x1a4;" horiz-adv-x="1103" d="M0 1098q0 119 54.5 185.5t136 100t179 42t185.5 8.5q109 0 198 -26t151.5 -80t97 -140t34.5 -207q0 -123 -34.5 -210t-98 -141.5t-152.5 -79t-198 -24.5h-86v-526h-184v1247q-78 -16 -105.5 -56t-27.5 -112q0 -16 1 -33.5t1 -29.5l-142 -19q-4 14 -7 43t-3 58zM467 688 h74q70 0 126 15.5t95 50t59.5 90t20.5 137.5t-20.5 137.5t-59.5 89t-92 47t-121 13.5h-43.5t-38.5 -2v-578z" />
<glyph unicode="&#x1a5;" horiz-adv-x="956" d="M158 -375v1637q0 176 73.5 251.5t196.5 75.5q66 0 115 -20l-25 -150q-37 10 -69 11q-53 0 -84 -36t-31 -143v-168q29 8 60.5 13.5t66.5 5.5q203 0 300 -150.5t97 -419.5q0 -272 -87 -415.5t-284 -143.5q-47 0 -83.5 9.5t-69.5 25.5v-383h-176zM334 162q59 -33 127 -33 q51 0 90 20.5t66.5 67.5t42 125t14.5 193q0 221 -56.5 316t-179.5 95q-23 0 -49.5 -3t-54.5 -11v-770z" />
<glyph unicode="&#x1a6;" horiz-adv-x="1052" d="M172 0v1589h180v-159q25 4 48.5 4h48.5q106 0 192 -25t147.5 -78t95.5 -137t34 -203q0 -147 -56.5 -238t-152.5 -139q31 -55 80 -151t101 -211t102 -239t85 -236h-184q-31 88 -76 196.5t-93 216t-96 205.5t-87 166q-33 -4 -68 -6t-70 -2h-51v-553h-180zM352 705h78 q141 0 217 64.5t76 221.5q0 80 -19.5 134.5t-55.5 86t-86 46t-111 14.5q-53 0 -99 -6v-561z" />
<glyph unicode="&#x1a7;" horiz-adv-x="806" d="M51 365q0 78 26.5 141t68.5 114.5t94.5 91.5t103.5 70q43 25 83 55.5t72.5 67.5t52 81t19.5 97q0 104 -54 158.5t-146 54.5q-61 0 -116.5 -15t-102.5 -44l-58 145q49 29 125 49.5t164 20.5q84 0 152.5 -26.5t117.5 -76t76 -119t27 -155.5q0 -84 -29 -148.5t-72 -114.5 t-95 -89t-97 -72q-41 -29 -80 -57.5t-69.5 -63t-50 -77.5t-19.5 -99q0 -104 57.5 -165.5t155.5 -61.5q70 0 125 19.5t112 52.5l58 -148q-59 -37 -134 -59.5t-167 -22.5q-102 0 -177 30t-124.5 82t-74 125t-24.5 159z" />
<glyph unicode="&#x1a8;" horiz-adv-x="704" d="M53 287q0 68 19.5 116t52.5 82.5t73 61t81 51.5q33 20 64.5 39.5t55 43.5t38 53.5t14.5 70.5q0 68 -42 107.5t-102 39.5q-43 0 -78.5 -11t-72.5 -32l-39 144q39 20 89 34.5t109 14.5q68 0 125.5 -21.5t98.5 -59.5t64.5 -93.5t23.5 -122.5q0 -61 -16.5 -107.5t-44 -82 t-63.5 -63.5t-73 -48q-37 -23 -72.5 -42.5t-63.5 -44t-45.5 -56t-17.5 -76.5q0 -72 44 -116t114 -44q63 0 115.5 20.5t83.5 36.5l37 -145q-33 -18 -98.5 -41t-147.5 -23q-160 0 -243 86t-83 228z" />
<glyph unicode="&#x1a9;" horiz-adv-x="878" d="M63 0v123q72 154 155 304.5t181 299.5q-88 135 -172 282.5t-157 295.5v114h731v-159h-518q72 -139 149.5 -270.5t165.5 -260.5q-94 -141 -177 -281.5t-153 -287.5h553v-160h-758z" />
<glyph unicode="&#x1aa;" horiz-adv-x="512" d="M-164 1282q0 68 18.5 124t51.5 97t80 63.5t104 22.5q141 0 202.5 -87t61.5 -222v-1368q0 -72 30 -101.5t101 -37.5l-24 -156q-154 4 -222.5 74.5t-68.5 224.5v1090q-47 -27 -102 -27q-113 0 -172.5 85t-59.5 218zM-27 1288q0 -78 25 -126t72 -48q35 0 58.5 14.5 t41.5 38.5v144q0 72 -26.5 108.5t-67.5 36.5q-53 0 -78 -50t-25 -118z" />
<glyph unicode="&#x1ab;" horiz-adv-x="657" d="M147 344v1020l177 31v-320h270v-151h-270v-592q0 -111 39.5 -155t107.5 -44q31 0 64.5 5t56.5 14q4 -27 7 -73t3 -79q0 -88 -9 -158.5t-37 -121t-77 -77t-129 -26.5q-27 0 -58.5 5t-53.5 11l14 140q10 -4 33.5 -7.5t36.5 -3.5q74 0 97 46.5t23 148.5q0 4 -1 10t-1 10 q-150 4 -221.5 87t-71.5 280z" />
<glyph unicode="&#x1ac;" horiz-adv-x="944" d="M27 1139q0 78 25.5 132t66.5 87t92 47t104 14h600v-157h-315v-1262h-184v1262h-107q-53 0 -90 -30t-37 -114q0 -12 1 -23.5t1 -21.5l-147 -18q-4 12 -7 35.5t-3 48.5z" />
<glyph unicode="&#x1ad;" horiz-adv-x="657" d="M147 344v883q0 174 78 269t236 95q59 0 104 -12t74 -27l-37 -139q-29 14 -59.5 21.5t-65.5 7.5q-47 0 -77.5 -16.5t-47 -45t-22.5 -68.5t-6 -85v-152h270v-151h-270v-592q0 -111 39.5 -155t107.5 -44q35 0 66.5 10.5t54.5 24.5l35 -141q-84 -49 -178 -50q-152 0 -227 85 t-75 282z" />
<glyph unicode="&#x1ae;" horiz-adv-x="872" d="M29 1262v157h815v-157h-316v-1315q0 -53 8.5 -88t23.5 -55.5t35.5 -27.5t47.5 -7q35 0 70 6l24 -140q-55 -16 -114 -16q-129 0 -204 76t-75 252v1315h-315z" />
<glyph unicode="&#x1af;" horiz-adv-x="1124" d="M160 438v981h184v-964q0 -162 47 -243t170 -81q127 0 173 83t46 241v964h119q63 0 92 38t29 106q0 20 -1 42.5t-3 34.5h168q2 -18 2 -36.5v-36.5q0 -47 -10.5 -94.5t-36 -87t-68.5 -67.5t-106 -36v-844q0 -240 -102.5 -354.5t-305.5 -114.5q-199 0 -298 113t-99 356z" />
<glyph unicode="&#x1b0;" horiz-adv-x="983" d="M145 414v661h177v-655q0 -158 48 -222.5t146 -64.5q33 0 65.5 3t67.5 14v925h109q59 0 91 35t32 109q0 20 -1 42.5t-3 34.5h163q2 -18 2 -36.5v-36.5q0 -47 -10 -94.5t-34.5 -87.5t-66.5 -67.5t-106 -35.5v-907q-27 -10 -64.5 -19.5t-79.5 -16.5t-84 -12.5t-77 -5.5 q-84 0 -153.5 19.5t-118.5 69t-76 134.5t-27 214z" />
<glyph unicode="&#x1b1;" horiz-adv-x="1251" d="M102 1264v155h441v-121q-45 -61 -85 -133.5t-71 -154.5t-48 -173.5t-17 -191.5q0 -139 23.5 -238.5t63.5 -162t95 -91t121 -28.5t121 28.5t96 91t64.5 162t23.5 238.5q0 203 -63.5 366t-157.5 287v121h440v-155h-231q37 -51 73.5 -119t66 -147.5t48 -172t18.5 -190.5 q0 -164 -35.5 -289t-101 -210t-158 -129t-204.5 -44q-111 0 -203 44t-157.5 129t-101.5 210t-36 289q0 98 18.5 190.5t48 172t66.5 147t74 119.5h-232z" />
<glyph unicode="&#x1b2;" horiz-adv-x="1128" d="M160 426v993h184v-983q0 -154 51 -229.5t164 -75.5q141 0 199.5 144.5t58.5 439.5q0 119 -7 218t-30.5 171t-69.5 110.5t-122 38.5h-29l-6 166q18 4 38.5 4h35.5q113 0 187.5 -50t118.5 -141t62.5 -219t18.5 -284q0 -152 -21.5 -290t-74 -242.5t-139.5 -166t-220 -61.5 q-207 0 -303 108.5t-96 348.5z" />
<glyph unicode="&#x1b3;" horiz-adv-x="1081" d="M8 1419h199q53 -162 120.5 -342t139.5 -336q27 61 49.5 111.5t47 109t52 130t64.5 176.5q31 86 85 135t148 49q61 0 108.5 -18.5t88.5 -47.5l-66 -135q-20 16 -42.5 28.5t-57.5 12.5q-43 0 -65.5 -27.5t-44.5 -82.5q-41 -102 -73 -182t-62.5 -151t-63.5 -139.5 t-76 -150.5v-559h-184v549q-49 100 -100.5 212.5t-98.5 225.5t-90 223.5t-78 208.5z" />
<glyph unicode="&#x1b4;" horiz-adv-x="937" d="M2 -356l33 143q23 -10 49.5 -16.5t54.5 -6.5q33 0 55.5 9.5t41 31t34 59.5t31.5 93l14 51q-39 106 -76.5 233.5t-74.5 265.5t-71 282.5t-62 285.5h186q14 -94 36.5 -204.5t47.5 -222t50.5 -216t49.5 -188.5q27 115 63 278.5t75 362.5q23 111 87 159t152 48 q53 0 104.5 -16.5t86.5 -39.5l-54 -127q-20 12 -47.5 26.5t-62.5 14.5q-82 0 -107 -106q-27 -121 -52 -229.5t-51 -208t-51.5 -193.5t-51.5 -186q-33 -113 -66 -191t-73 -127t-89 -71.5t-114 -22.5q-47 0 -85 9t-63 20z" />
<glyph unicode="&#x1b5;" horiz-adv-x="884" d="M63 0v113q43 117 105.5 263t134.5 298h-164v135h228q63 131 124.5 249t110.5 204h-512v157h709v-145q-53 -92 -117 -213t-129 -252h215v-135h-281q-68 -145 -127 -279.5t-100 -236.5h553v-158h-750z" />
<glyph unicode="&#x1b6;" horiz-adv-x="729" d="M68 0v127q29 78 71.5 175t91.5 196h-102v127h168q47 90 90 166.5t76 132.5h-371v151h561v-131q-39 -66 -85 -148.5t-95 -174.5h141v-127h-206q-47 -96 -89.5 -185.5t-68.5 -156.5h418v-152h-600z" />
<glyph unicode="&#x1b7;" horiz-adv-x="825" d="M41 31l33 151q51 -27 114.5 -42t120.5 -15q51 0 97.5 16.5t81 50t55 85t20.5 118.5q0 141 -82 214t-215 73h-47v106q78 117 149.5 234t137.5 240h-432v157h637v-102q-68 -129 -140.5 -251t-152.5 -243q156 -35 246 -145.5t90 -284.5q0 -88 -30 -165.5t-86 -135 t-139 -90.5t-190 -33q-74 0 -144.5 18.5t-123.5 43.5z" />
<glyph unicode="&#x1b8;" horiz-adv-x="825" d="M72 393q0 174 89 284.5t247 145.5q-80 121 -154 243t-139 251v102h637v-157h-435q66 -123 138.5 -240t150.5 -234v-106h-47q-133 0 -215 -72.5t-82 -214.5q0 -68 20.5 -119t55.5 -84.5t81 -50t97 -16.5q57 0 120.5 15.5t115.5 41.5l32 -151q-53 -25 -123.5 -43.5 t-144.5 -18.5q-106 0 -189 33t-139.5 90.5t-86 135t-29.5 165.5z" />
<glyph unicode="&#x1b9;" horiz-adv-x="743" d="M61 39q0 174 88.5 281.5t256.5 138.5q-84 125 -158 246.5t-144 257.5v102h586v-152h-393q63 -125 135 -240.5t150 -232.5v-116h-45q-141 0 -219 -72t-78 -201q0 -74 19.5 -127t54 -87t80.5 -50t102 -16q49 0 98 11t96 32l33 -152q-47 -20 -104.5 -33.5t-122.5 -13.5 q-102 0 -182.5 30.5t-136.5 86t-86 133.5t-30 174z" />
<glyph unicode="&#x1ba;" horiz-adv-x="747" d="M12 -248q0 63 22.5 107.5t59.5 76t86 53t105 44.5q39 14 73.5 33.5t61 46t42 62.5t15.5 85q0 104 -68.5 154.5t-199.5 56.5v113q66 76 127 158.5t117 170.5h-426v152h600v-117q-59 -98 -124 -191t-134 -179q59 -10 111 -33t91 -62t61.5 -95t22.5 -132q0 -82 -27.5 -140.5 t-70.5 -98.5t-96 -66.5t-105 -46.5q-51 -20 -85.5 -34.5t-57.5 -31t-33 -38t-10 -52.5t7 -59.5t11 -38.5l-139 -37q-37 74 -37 139z" />
<glyph unicode="&#x1bb;" horiz-adv-x="894" d="M88 1331q125 121 305 121q170 0 261 -91t91 -267q0 -78 -27.5 -149t-70.5 -136h117v-156h-227q-41 -53 -80 -108.5t-72 -115.5t-56.5 -126.5t-31.5 -142.5h467v-160h-655v39q0 106 20.5 193t52 162t72.5 138.5t84 120.5h-203v156h318q43 66 70.5 133.5t27.5 147.5 q0 205 -178 204q-59 0 -109.5 -23.5t-89.5 -60.5z" />
<glyph unicode="&#x1bc;" horiz-adv-x="823" d="M49 1257v162h674v-159h-356q-8 -145 -14.5 -239.5t-10.5 -150.5q213 -31 316.5 -145.5t103.5 -304.5q0 -109 -34 -193t-94.5 -141t-142 -87t-176.5 -30q-68 0 -136 16.5t-128 47.5l49 155q47 -27 98.5 -41t104.5 -14q123 0 192.5 76t69.5 211q0 162 -102.5 236.5 t-306.5 82.5q14 156 22 275t12 243h-141z" />
<glyph unicode="&#x1bd;" horiz-adv-x="749" d="M53 911v154h572v-152h-275q-10 -104 -15 -168.5t-9 -103.5q154 -18 246 -101t92 -229q0 -84 -29 -147.5t-79 -106.5t-119.5 -65.5t-149.5 -22.5q-55 0 -112.5 16.5t-108.5 47.5l49 147q41 -25 83 -38t97 -13q76 0 134 46t58 140q0 98 -82.5 151.5t-216.5 53.5h-28 q14 119 22 207t13 184h-142z" />
<glyph unicode="&#x1be;" horiz-adv-x="739" d="M92 37l37 145q31 -16 83.5 -36.5t115.5 -20.5q78 0 117.5 44t39.5 116q0 45 -16 76.5t-41 55t-55.5 42t-61.5 37.5q-43 25 -78.5 54.5t-63.5 69t-43 93t-15 127.5v524l176 31v-320h321v-151h-321v-84q0 -53 13 -90t35.5 -64t52.5 -47.5t63 -40.5q39 -25 76.5 -51.5 t68.5 -61t49.5 -83t18.5 -115.5q0 -141 -83 -227.5t-243 -86.5q-82 0 -147.5 22.5t-98.5 41.5z" />
<glyph unicode="&#x1bf;" horiz-adv-x="942" d="M160 -379v1391q59 31 134 53t152 22q88 0 162 -29.5t126 -90t81 -149.5t29 -208q0 -147 -41 -262t-110.5 -202t-162 -150.5t-194.5 -110.5v-264h-176zM336 55q74 43 134 93.5t102 116t64.5 150t22.5 199.5q0 156 -58 239t-155 83q-53 0 -110 -25v-856z" />
<glyph unicode="&#x1c0;" horiz-adv-x="550" d="M193 -379v1983h165v-1983h-165z" />
<glyph unicode="&#x1c1;" horiz-adv-x="915" d="M193 -379v1983h165v-1983h-165zM558 -379v1983h165v-1983h-165z" />
<glyph unicode="&#x1c2;" horiz-adv-x="911" d="M86 367v139h287v229h-287v139h287v730h166v-730h286v-139h-286v-229h286v-139h-286v-746h-166v746h-287z" />
<glyph unicode="&#x1c3;" horiz-adv-x="538" d="M147 94q0 49 33 86t88 37t89 -37t34 -86q0 -47 -33.5 -84t-89.5 -37q-55 0 -88 37t-33 84zM170 1034v385h190v-385q0 -172 -12 -312t-31 -280h-104q-18 139 -30.5 279.5t-12.5 312.5z" />
<glyph unicode="&#x1c4;" horiz-adv-x="2048" d="M170 23v1376q78 16 151.5 26.5t141.5 10.5q139 0 250.5 -39t190.5 -125t121 -224t42 -337t-42 -337t-121 -224.5t-190.5 -125t-248.5 -38.5q-139 0 -295 37zM354 158q31 -4 59.5 -6t55.5 -2q109 0 184.5 30.5t123.5 97t70.5 173t22.5 260.5q0 152 -22.5 258t-69.5 173.5 t-123.5 98.5t-183.5 31q-29 0 -57.5 -2t-59.5 -6v-1106zM1243 0v113q31 82 72 180t88 203.5t97.5 212t100.5 207t96 189.5t85 157h-512v157h709v-145q-61 -109 -137 -255.5t-151 -301t-141.5 -302t-109.5 -257.5h553v-158h-750zM1386 1808l86 72l150 -174l149 174l86 -72 l-235 -311z" />
<glyph unicode="&#x1c5;" horiz-adv-x="1892" d="M170 23v1376q78 16 151.5 26.5t141.5 10.5q139 0 250.5 -39t190.5 -125t121 -224t42 -337t-42 -337t-121 -224.5t-190.5 -125t-248.5 -38.5q-139 0 -295 37zM354 158q31 -4 59.5 -6t55.5 -2q109 0 184.5 30.5t123.5 97t70.5 173t22.5 260.5q0 152 -22.5 258t-69.5 173.5 t-123.5 98.5t-183.5 31q-29 0 -57.5 -2t-59.5 -6v-1106zM1248 0v127q33 90 84 200.5t107 221t110.5 210t93.5 165.5h-371v151h561v-131q-45 -76 -102 -180.5t-113.5 -214t-106.5 -215t-81 -182.5h418v-152h-600zM1311 1501l86 72l150 -174l149 174l86 -72l-235 -311z" />
<glyph unicode="&#x1c6;" horiz-adv-x="1716" d="M98 541q0 129 21.5 232.5t67.5 176t118 112.5t170 40q47 0 81 -9.5t67 -25.5v492l176 30v-1560q-57 -25 -131 -40.5t-150 -15.5q-221 0 -320.5 141.5t-99.5 426.5zM283 541q0 -221 58 -316.5t177 -95.5q23 0 49.5 3t55.5 11v770q-59 33 -127 33q-51 0 -90 -20.5 t-67 -67.5t-42 -125t-14 -192zM1055 0v127q33 90 84 200.5t107 221t110.5 210t93.5 165.5h-371v151h561v-131q-45 -76 -102 -180.5t-113.5 -214t-106.5 -215t-81 -182.5h418v-152h-600zM1118 1501l86 72l150 -174l149 174l86 -72l-235 -311z" />
<glyph unicode="&#x1c7;" horiz-adv-x="1703" d="M172 0v1419h184v-1261h449v-158h-633zM905 59l62 146q35 -27 93 -50.5t114 -23.5q43 0 76.5 10.5t58 38t37 75.5t12.5 122v1042h184v-1042q0 -94 -19.5 -169t-61.5 -128t-110.5 -82t-166.5 -29q-78 0 -149.5 23.5t-129.5 66.5z" />
<glyph unicode="&#x1c8;" horiz-adv-x="1349" d="M172 0v1419h184v-1261h449v-158h-633zM784 -365l25 150q18 -4 36.5 -7t41.5 -3q29 0 52.5 7t39.5 27.5t25.5 55.5t9.5 88v1122h176v-1132q0 -176 -78 -252t-207 -76q-68 0 -121 20zM987 1382q0 53 34 85t81 32t80.5 -31.5t33.5 -85.5q0 -53 -33.5 -84.5t-80.5 -31.5 t-81 31.5t-34 84.5z" />
<glyph unicode="&#x1c9;" horiz-adv-x="993" d="M176 279v1280l176 30v-1315q0 -72 28.5 -103.5t100.5 -43.5l-23 -147q-152 4 -217 74.5t-65 224.5zM428 -365l25 150q18 -4 36.5 -7t41.5 -3q29 0 52.5 7t39.5 27.5t25.5 55.5t9.5 88v1122h176v-1132q0 -176 -78 -252t-207 -76q-68 0 -121 20zM631 1382q0 53 34 85t81 32 t80.5 -31.5t33.5 -85.5q0 -53 -33.5 -84.5t-80.5 -31.5t-81 31.5t-34 84.5z" />
<glyph unicode="&#x1ca;" horiz-adv-x="1996" d="M172 0v1419h154q78 -127 150.5 -260t138 -263t124 -256t107.5 -239v1018h172v-1419h-150q-49 121 -111.5 261t-131 282.5t-140 283t-141.5 260.5v-1087h-172zM1198 59l62 146q35 -27 93 -50.5t114 -23.5q43 0 76.5 10.5t58 38t37 75.5t12.5 122v1042h184v-1042 q0 -94 -19.5 -169t-61.5 -128t-110.5 -82t-166.5 -29q-78 0 -149.5 23.5t-129.5 66.5z" />
<glyph unicode="&#x1cb;" horiz-adv-x="1683" d="M172 0v1419h154q78 -127 150.5 -260t138 -263t124 -256t107.5 -239v1018h172v-1419h-150q-49 121 -111.5 261t-131 282.5t-140 283t-141.5 260.5v-1087h-172zM1118 -365l25 150q18 -4 36.5 -7t41.5 -3q29 0 52.5 7t39.5 27.5t25.5 55.5t9.5 88v1122h176v-1132 q0 -176 -78 -252t-207 -76q-68 0 -121 20zM1321 1382q0 53 34 85t81 32t80.5 -31.5t33.5 -85.5q0 -53 -33.5 -84.5t-80.5 -31.5t-81 31.5t-34 84.5z" />
<glyph unicode="&#x1cc;" horiz-adv-x="1482" d="M160 0v1044q76 23 164 38.5t161 15.5q80 0 145.5 -21.5t111.5 -73t72 -138.5t26 -216v-649h-176v635q0 160 -41 233.5t-154 73.5q-59 0 -133 -20v-922h-176zM917 -365l25 150q18 -4 36.5 -7t41.5 -3q29 0 52.5 7t39.5 27.5t25.5 55.5t9.5 88v1122h176v-1132 q0 -176 -78 -252t-207 -76q-68 0 -121 20zM1120 1382q0 53 34 85t81 32t80.5 -31.5t33.5 -85.5q0 -53 -33.5 -84.5t-80.5 -31.5t-81 31.5t-34 84.5z" />
<glyph unicode="&#x1cd;" horiz-adv-x="1030" d="M41 0q45 223 92 415.5t93 364.5t94.5 329t97.5 310h194q49 -154 97.5 -310.5t94.5 -328.5t92 -364.5t93 -415.5h-184q-16 92 -33.5 182t-36.5 180h-446q-20 -90 -36.5 -180t-33.5 -182h-178zM276 1810l86 72l150 -174l149 174l86 -72l-235 -311zM324 516h374 q-41 180 -88 352t-98 342q-51 -170 -98 -342t-90 -352z" />
<glyph unicode="&#x1ce;" horiz-adv-x="888" d="M84 311q0 84 25.5 146.5t70.5 104.5t106.5 63.5t133.5 21.5q68 0 149 -16v98q0 119 -46 166t-132 47q-47 0 -89 -9t-89 -30l-37 150q53 23 112.5 36t129.5 13q143 0 233 -89t90 -278v-712q-74 -20 -150.5 -33t-150.5 -13t-138 18.5t-112.5 59.5t-77 103.5t-28.5 152.5z M215 1501l86 72l150 -174l149 174l86 -72l-235 -311zM260 313q0 -94 49 -139t140 -45q55 0 120 14v342q-61 16 -120 17q-39 0 -74 -9.5t-60.5 -31t-40 -57.5t-14.5 -91z" />
<glyph unicode="&#x1cf;" horiz-adv-x="528" d="M31 1812l86 72l150 -174l149 174l86 -72l-235 -311zM172 0v1419h184v-1419h-184z" />
<glyph unicode="&#x1d0;" horiz-adv-x="495" d="M14 1501l86 72l150 -174l149 174l86 -72l-235 -311zM160 0v1075h176v-1075h-176z" />
<glyph unicode="&#x1d1;" horiz-adv-x="1239" d="M115 709q0 166 30.5 303t93 234t158 151.5t224.5 54.5t224 -54.5t157.5 -151.5t92 -234t29.5 -303t-29.5 -302.5t-92 -233.5t-157.5 -150.5t-224 -53.5t-224.5 53.5t-158 150.5t-93 233.5t-30.5 302.5zM311 709q0 -129 17.5 -235.5t54.5 -182.5t95.5 -118t142.5 -42 t142 42t95 118t53.5 182.5t16.5 235.5t-16.5 235.5t-53.5 183t-95 119.5t-142 43t-142.5 -43t-95.5 -119.5t-54.5 -183t-17.5 -235.5zM385 1810l86 72l150 -174l149 174l86 -72l-235 -311z" />
<glyph unicode="&#x1d2;" horiz-adv-x="948" d="M98 537q0 125 22.5 229t69 179t118 116t167.5 41t167 -41t117 -116t68.5 -179t22.5 -229q0 -127 -22.5 -230.5t-68.5 -177.5t-117 -115t-167 -41t-167.5 41t-118 115t-69 177.5t-22.5 230.5zM240 1501l86 72l150 -174l149 174l86 -72l-235 -311zM283 537q0 -90 10 -165 t33.5 -128.5t59.5 -83t89 -29.5q51 0 88 29.5t59.5 83t33 128.5t10.5 165t-10.5 164.5t-33 129t-59.5 84t-88 29.5q-53 0 -89 -29.5t-59.5 -84t-33.5 -129t-10 -164.5z" />
<glyph unicode="&#x1d3;" horiz-adv-x="1124" d="M160 438v981h184v-964q0 -162 47 -243t170 -81q127 0 173 83t46 241v964h185v-981q0 -240 -102.5 -354.5t-305.5 -114.5q-199 0 -298 113t-99 356zM326 1810l86 72l150 -174l149 174l86 -72l-235 -311z" />
<glyph unicode="&#x1d4;" horiz-adv-x="983" d="M145 414v661h177v-655q0 -158 48 -222.5t146 -64.5q33 0 65.5 3t67.5 14v925h176v-1044q-27 -10 -64.5 -19.5t-79.5 -16.5t-84 -12.5t-77 -5.5q-84 0 -153.5 19.5t-118.5 69t-76 134.5t-27 214zM258 1501l86 72l150 -174l149 174l86 -72l-235 -311z" />
<glyph unicode="&#x1d5;" horiz-adv-x="1124" d="M160 438v981h184v-964q0 -162 47 -243t170 -81q127 0 173 83t46 241v964h185v-981q0 -240 -102.5 -354.5t-305.5 -114.5q-199 0 -298 113t-99 356zM285 1638q0 49 30.5 79t76.5 30q45 0 75.5 -30t30.5 -79t-30.5 -79t-75.5 -30t-76 30t-31 79zM342 1837v135h437v-135 h-437zM625 1638q0 49 30.5 79t76.5 30q45 0 75.5 -30t30.5 -79t-30.5 -79t-75.5 -30t-76 30t-31 79z" />
<glyph unicode="&#x1d6;" horiz-adv-x="983" d="M145 414v661h177v-655q0 -158 48 -222.5t146 -64.5q33 0 65.5 3t67.5 14v925h176v-1044q-27 -10 -64.5 -19.5t-79.5 -16.5t-84 -12.5t-77 -5.5q-84 0 -153.5 19.5t-118.5 69t-76 134.5t-27 214zM217 1321q0 49 30.5 79t76.5 30q45 0 75.5 -30t30.5 -79t-30.5 -79 t-75.5 -30t-76 30t-31 79zM274 1520v135h437v-135h-437zM557 1321q0 49 30.5 79t76.5 30q45 0 75.5 -30t30.5 -79t-30.5 -79t-75.5 -30t-76 30t-31 79z" />
<glyph unicode="&#x1d7;" horiz-adv-x="1124" d="M160 438v981h184v-964q0 -162 47 -243t170 -81q127 0 173 83t46 241v964h185v-981q0 -240 -102.5 -354.5t-305.5 -114.5q-199 0 -298 113t-99 356zM177 1642q0 49 30.5 79t75.5 30t76 -29.5t31 -79.5q0 -49 -31 -78.5t-76 -29.5t-75.5 29.5t-30.5 78.5zM455 1673l195 289 l118 -100l-225 -258zM734 1642q0 49 30.5 79t75.5 30t76 -29.5t31 -79.5q0 -49 -31 -78.5t-76 -29.5t-75.5 29.5t-30.5 78.5z" />
<glyph unicode="&#x1d8;" horiz-adv-x="983" d="M145 414v661h177v-655q0 -158 48 -222.5t146 -64.5q33 0 65.5 3t67.5 14v925h176v-1044q-27 -10 -64.5 -19.5t-79.5 -16.5t-84 -12.5t-77 -5.5q-84 0 -153.5 19.5t-118.5 69t-76 134.5t-27 214zM215 1321q0 49 30.5 79t76.5 30q45 0 75.5 -30t30.5 -79t-30.5 -79 t-75.5 -30t-76 30t-31 79zM410 1509l194 289l119 -100l-225 -258zM555 1321q0 49 30.5 79t76.5 30q45 0 75.5 -30t30.5 -79t-30.5 -79t-75.5 -30t-76 30t-31 79z" />
<glyph unicode="&#x1d9;" horiz-adv-x="1124" d="M160 438v981h184v-964q0 -162 47 -243t170 -81q127 0 173 83t46 241v964h185v-981q0 -240 -102.5 -354.5t-305.5 -114.5q-199 0 -298 113t-99 356zM179 1642q0 49 30.5 79t75.5 30t76 -29.5t31 -79.5q0 -49 -31 -78.5t-76 -29.5t-75.5 29.5t-30.5 78.5zM322 1855l63 87 l179 -123l176 123l65 -87l-241 -194zM736 1642q0 49 30.5 79t75.5 30t76 -29.5t31 -79.5q0 -49 -31 -78.5t-76 -29.5t-75.5 29.5t-30.5 78.5z" />
<glyph unicode="&#x1da;" horiz-adv-x="983" d="M145 414v661h177v-655q0 -158 48 -222.5t146 -64.5q33 0 65.5 3t67.5 14v925h176v-1044q-27 -10 -64.5 -19.5t-79.5 -16.5t-84 -12.5t-77 -5.5q-84 0 -153.5 19.5t-118.5 69t-76 134.5t-27 214zM217 1321q0 49 30.5 79t76.5 30q45 0 75.5 -30t30.5 -79t-30.5 -79 t-75.5 -30t-76 30t-31 79zM252 1649l63 86l179 -123l176 123l65 -86l-241 -195zM557 1321q0 49 30.5 79t76.5 30q45 0 75.5 -30t30.5 -79t-30.5 -79t-75.5 -30t-76 30t-31 79z" />
<glyph unicode="&#x1db;" horiz-adv-x="1124" d="M160 438v981h184v-964q0 -162 47 -243t170 -81q127 0 173 83t46 241v964h185v-981q0 -240 -102.5 -354.5t-305.5 -114.5q-199 0 -298 113t-99 356zM175 1642q0 49 30.5 79t75.5 30t76 -29.5t31 -79.5q0 -49 -31 -78.5t-76 -29.5t-75.5 29.5t-30.5 78.5zM353 1862l118 100 l195 -289l-88 -69zM732 1642q0 49 30.5 79t75.5 30t76 -29.5t31 -79.5q0 -49 -31 -78.5t-76 -29.5t-75.5 29.5t-30.5 78.5z" />
<glyph unicode="&#x1dc;" horiz-adv-x="983" d="M145 414v661h177v-655q0 -158 48 -222.5t146 -64.5q33 0 65.5 3t67.5 14v925h176v-1044q-27 -10 -64.5 -19.5t-79.5 -16.5t-84 -12.5t-77 -5.5q-84 0 -153.5 19.5t-118.5 69t-76 134.5t-27 214zM217 1321q0 49 30.5 79t76.5 30q45 0 75.5 -30t30.5 -79t-30.5 -79 t-75.5 -30t-76 30t-31 79zM262 1698l119 100l194 -289l-88 -69zM557 1321q0 49 30.5 79t76.5 30q45 0 75.5 -30t30.5 -79t-30.5 -79t-75.5 -30t-76 30t-31 79z" />
<glyph unicode="&#x1dd;" horiz-adv-x="892" d="M100 498v46t2 48h510q-2 76 -14 141.5t-40 113.5t-74 74.5t-117 26.5q-59 0 -109.5 -17.5t-73.5 -29.5l-32 141q27 18 89 40t148 22q113 0 189.5 -41t124 -115t69 -176t21.5 -225q0 -150 -26 -257.5t-73 -177t-113.5 -103.5t-146.5 -34q-182 0 -258 137.5t-76 385.5z M285 449q0 -150 30.5 -237t118.5 -87t128 88t48 236h-325z" />
<glyph unicode="&#x1de;" horiz-adv-x="1030" d="M41 0q45 223 92 415.5t93 364.5t94.5 329t97.5 310h194q49 -154 97.5 -310.5t94.5 -328.5t92 -364.5t93 -415.5h-184q-16 92 -33.5 182t-36.5 180h-446q-20 -90 -36.5 -180t-33.5 -182h-178zM240 1638q0 49 30.5 79t76.5 30q45 0 75.5 -30t30.5 -79t-30.5 -79t-75.5 -30 t-76 30t-31 79zM297 1837v135h437v-135h-437zM324 516h374q-41 180 -88 352t-98 342q-51 -170 -98 -342t-90 -352zM580 1638q0 49 30.5 79t76.5 30q45 0 75.5 -30t30.5 -79t-30.5 -79t-75.5 -30t-76 30t-31 79z" />
<glyph unicode="&#x1df;" horiz-adv-x="888" d="M84 311q0 84 25.5 146.5t70.5 104.5t106.5 63.5t133.5 21.5q68 0 149 -16v98q0 119 -46 166t-132 47q-47 0 -89 -9t-89 -30l-37 150q53 23 112.5 36t129.5 13q143 0 233 -89t90 -278v-712q-74 -20 -150.5 -33t-150.5 -13t-138 18.5t-112.5 59.5t-77 103.5t-28.5 152.5z M172 1321q0 49 30.5 79t76.5 30q45 0 75.5 -30t30.5 -79t-30.5 -79t-75.5 -30t-76 30t-31 79zM229 1520v135h437v-135h-437zM260 313q0 -94 49 -139t140 -45q55 0 120 14v342q-61 16 -120 17q-39 0 -74 -9.5t-60.5 -31t-40 -57.5t-14.5 -91zM512 1321q0 49 30.5 79t76.5 30 q45 0 75.5 -30t30.5 -79t-30.5 -79t-75.5 -30t-76 30t-31 79z" />
<glyph unicode="&#x1e0;" horiz-adv-x="1030" d="M41 0q45 223 92 415.5t93 364.5t94.5 329t97.5 310h194q49 -154 97.5 -310.5t94.5 -328.5t92 -364.5t93 -415.5h-184q-16 92 -33.5 182t-36.5 180h-446q-20 -90 -36.5 -180t-33.5 -182h-178zM297 1848v135h437v-135h-437zM324 516h374q-41 180 -88 352t-98 342 q-51 -170 -98 -342t-90 -352zM402 1655q0 53 33.5 85t81.5 32q47 0 80.5 -32t33.5 -85t-33.5 -85t-80.5 -32t-81 32t-34 85z" />
<glyph unicode="&#x1e1;" horiz-adv-x="888" d="M84 311q0 84 25.5 146.5t70.5 104.5t106.5 63.5t133.5 21.5q68 0 149 -16v98q0 119 -46 166t-132 47q-47 0 -89 -9t-89 -30l-37 150q53 23 112.5 36t129.5 13q143 0 233 -89t90 -278v-712q-74 -20 -150.5 -33t-150.5 -13t-138 18.5t-112.5 59.5t-77 103.5t-28.5 152.5z M231 1520v135h437v-135h-437zM260 313q0 -94 49 -139t140 -45q55 0 120 14v342q-61 16 -120 17q-39 0 -74 -9.5t-60.5 -31t-40 -57.5t-14.5 -91zM336 1327q0 53 33.5 85t81.5 32q47 0 80.5 -32t33.5 -85t-33.5 -85t-80.5 -32t-81 32t-34 85z" />
<glyph unicode="&#x1e2;" horiz-adv-x="1492" d="M4 0q61 178 137 364.5t159 371t171 358.5t172 325h725v-157h-453v-441h410v-153h-410v-510h486v-158h-670v362h-414q-37 -92 -71.5 -183t-63.5 -179h-178zM381 516h348l2 -10v747q-92 -174 -180 -360t-170 -377zM651 1636v139h437v-139h-437z" />
<glyph unicode="&#x1e3;" horiz-adv-x="1357" d="M84 311q0 84 25.5 146.5t70.5 104.5t106.5 63.5t133.5 21.5q66 0 147 -16q0 4 1 6t1 6v86q0 119 -46 166t-132 47q-47 0 -89 -9t-89 -30l-37 150q53 23 112.5 36t129.5 13q84 0 150.5 -33t107.5 -106q92 139 248 139q182 0 257.5 -137.5t75.5 -384.5v-46.5t-2 -48.5h-510 q2 -78 14.5 -142t40 -112.5t74 -75t117.5 -26.5q59 0 109.5 17.5t73.5 29.5l32 -141q-27 -18 -89 -40t-148 -22q-80 0 -140.5 19.5t-107.5 58.5q-66 -35 -132.5 -54.5t-148.5 -19.5q-74 0 -139 19.5t-113.5 60.5t-76 104.5t-27.5 149.5zM260 313q0 -80 48.5 -132t140.5 -52 q55 0 98 13.5t80 35.5q-29 61 -43.5 138t-18.5 169q-59 16 -116 17q-39 0 -74 -9.5t-60.5 -31t-40 -57t-14.5 -91.5zM460 1317v139h437v-139h-437zM748 629h325q0 150 -30.5 236.5t-118.5 86.5t-128 -88t-48 -235z" />
<glyph unicode="&#x1e4;" horiz-adv-x="1103" d="M113 711q0 201 36.5 342t105.5 230t166 129t218 40q92 0 168 -25.5t123 -58.5l-58 -154q-47 33 -102 54.5t-127 21.5q-178 0 -256 -144.5t-78 -434.5q0 -156 23.5 -266.5t66.5 -180t104.5 -102.5t137.5 -33q63 0 109 14v265h-172v135h172v155h184v-155h141v-135h-141 v-377q-55 -27 -137 -45.5t-172 -18.5q-111 0 -205 44t-163 135.5t-106.5 231.5t-37.5 333z" />
<glyph unicode="&#x1e5;" horiz-adv-x="952" d="M98 545q0 129 23.5 232.5t74 176t130.5 110.5t194 38q76 0 148.5 -15.5t130.5 -39.5v-406h129v-135h-129v-475q0 -115 -30 -194t-81 -128t-119.5 -71.5t-146.5 -22.5q-66 0 -131.5 14.5t-120.5 42.5l37 148q37 -20 90 -36.5t111 -16.5q100 0 157.5 57t57.5 196v52 q-33 -14 -70 -23.5t-84 -9.5q-193 0 -282 132t-89 374zM283 545q0 -193 55 -271.5t158 -78.5q35 0 66.5 8t60.5 22v281h-166v135h166v291q-29 8 -55.5 11t-49.5 3q-123 0 -179 -94t-56 -307z" />
<glyph unicode="&#x1e6;" horiz-adv-x="1075" d="M113 711q0 201 36.5 342t105.5 230t166 129t218 40q92 0 168 -25.5t123 -58.5l-58 -154q-47 33 -102 54.5t-127 21.5q-178 0 -256 -144.5t-78 -434.5q0 -156 23.5 -266.5t66.5 -180t104.5 -102.5t137.5 -33q63 0 109 14v555h184v-667q-55 -27 -137 -45.5t-172 -18.5 q-111 0 -205 44t-163 135.5t-106.5 231.5t-37.5 333zM379 1820l86 72l150 -174l149 174l86 -72l-235 -311z" />
<glyph unicode="&#x1e7;" horiz-adv-x="956" d="M98 545q0 129 23.5 232.5t74 176t130.5 110.5t194 38q76 0 148.5 -15.5t130.5 -39.5v-1016q0 -115 -30 -194t-81 -128t-119.5 -71.5t-146.5 -22.5q-66 0 -131.5 14.5t-120.5 42.5l37 148q37 -20 90 -36.5t111 -16.5q100 0 157.5 57t57.5 196v52q-33 -14 -70 -23.5 t-84 -9.5q-193 0 -282 132t-89 374zM244 1501l86 72l150 -174l149 174l86 -72l-235 -311zM283 545q0 -193 55 -271.5t158 -78.5q35 0 66.5 8t60.5 22v707q-29 8 -55.5 11t-49.5 3q-123 0 -179 -94t-56 -307z" />
<glyph unicode="&#x1e8;" horiz-adv-x="1054" d="M172 0v1419h184v-626q53 68 112.5 153.5t118 171.5t110 165t85.5 136h201q-45 -70 -101.5 -153.5t-115.5 -172.5t-119.5 -175.5t-116.5 -159.5q61 -61 133 -154.5t141.5 -197t131 -210t98.5 -196.5h-207q-43 94 -99 192.5t-118.5 189.5t-127 169t-126.5 131v-682h-184z M315 1820l86 72l150 -174l149 174l86 -72l-235 -311z" />
<glyph unicode="&#x1e9;" horiz-adv-x="874" d="M94 1872l63 86l179 -123l176 123l65 -86l-241 -195zM160 0v1559l176 30v-977q37 49 79 110.5t83 124t77.5 122t61.5 106.5h188q-86 -147 -164.5 -269t-156.5 -228q49 -57 100 -129t98.5 -149t88 -153.5t69.5 -146.5h-192q-31 68 -72 141.5t-86 144t-90 134t-84 106.5 v-526h-176z" />
<glyph unicode="&#x1ea;" horiz-adv-x="1239" d="M115 709q0 166 30.5 303t93 234t158 151.5t224.5 54.5t224 -54.5t157.5 -151.5t92 -234t29.5 -303q0 -141 -18.5 -247t-50 -184.5t-74.5 -134t-94 -98.5q-35 -29 -72 -53.5t-65.5 -47t-47 -48t-18.5 -58.5q0 -47 25.5 -65.5t62.5 -18.5q39 0 74 15l10 -129 q-57 -23 -127 -23q-90 0 -147.5 47t-57.5 129q0 96 82 178q-127 2 -219 57.5t-152.5 151.5t-90 230.5t-29.5 298.5zM311 709q0 -129 17.5 -235.5t54.5 -182.5t95.5 -118t142.5 -42t142 42t95 118t53.5 182.5t16.5 235.5t-16.5 235.5t-53.5 183t-95 119.5t-142 43t-142.5 -43 t-95.5 -119.5t-54.5 -183t-17.5 -235.5z" />
<glyph unicode="&#x1eb;" horiz-adv-x="948" d="M98 537q0 125 22.5 229t69 179t118 116t167.5 41t167 -41t117 -116t68.5 -179t22.5 -229q0 -121 -16.5 -206t-44 -144.5t-66.5 -101.5t-82 -77q-20 -18 -41.5 -35.5t-40 -37t-30 -42t-11.5 -51.5q0 -47 25.5 -67.5t62.5 -20.5q39 0 74 15l10 -129q-57 -23 -127 -23 q-90 0 -147.5 48t-57.5 134q0 96 74 176q-86 8 -148.5 53.5t-104.5 118t-61.5 172t-19.5 218.5zM283 537q0 -90 10 -165t33.5 -128.5t59.5 -83t89 -29.5q51 0 88 29.5t59.5 83t33 128.5t10.5 165t-10.5 164.5t-33 129t-59.5 84t-88 29.5q-53 0 -89 -29.5t-59.5 -84 t-33.5 -129t-10 -164.5z" />
<glyph unicode="&#x1ec;" horiz-adv-x="1239" d="M115 709q0 166 30.5 303t93 234t158 151.5t224.5 54.5t224 -54.5t157.5 -151.5t92 -234t29.5 -303q0 -141 -18.5 -247t-50 -184.5t-74.5 -134t-94 -98.5q-35 -29 -72 -53.5t-65.5 -47t-47 -48t-18.5 -58.5q0 -47 25.5 -65.5t62.5 -18.5q39 0 74 15l10 -129 q-57 -23 -127 -23q-90 0 -147.5 47t-57.5 129q0 96 82 178q-127 2 -219 57.5t-152.5 151.5t-90 230.5t-29.5 298.5zM311 709q0 -129 17.5 -235.5t54.5 -182.5t95.5 -118t142.5 -42t142 42t95 118t53.5 182.5t16.5 235.5t-16.5 235.5t-53.5 183t-95 119.5t-142 43t-142.5 -43 t-95.5 -119.5t-54.5 -183t-17.5 -235.5zM395 1624v139h437v-139h-437z" />
<glyph unicode="&#x1ed;" horiz-adv-x="948" d="M98 537q0 125 22.5 229t69 179t118 116t167.5 41t167 -41t117 -116t68.5 -179t22.5 -229q0 -121 -16.5 -206t-44 -144.5t-66.5 -101.5t-82 -77q-20 -18 -41.5 -35.5t-40 -37t-30 -42t-11.5 -51.5q0 -47 25.5 -67.5t62.5 -20.5q39 0 74 15l10 -129q-57 -23 -127 -23 q-90 0 -147.5 48t-57.5 134q0 96 74 176q-86 8 -148.5 53.5t-104.5 118t-61.5 172t-19.5 218.5zM256 1317v139h437v-139h-437zM283 537q0 -90 10 -165t33.5 -128.5t59.5 -83t89 -29.5q51 0 88 29.5t59.5 83t33 128.5t10.5 165t-10.5 164.5t-33 129t-59.5 84t-88 29.5 q-53 0 -89 -29.5t-59.5 -84t-33.5 -129t-10 -164.5z" />
<glyph unicode="&#x1ee;" horiz-adv-x="825" d="M41 31l33 151q51 -27 114.5 -42t120.5 -15q51 0 97.5 16.5t81 50t55 85t20.5 118.5q0 141 -82 214t-215 73h-47v106q78 117 149.5 234t137.5 240h-432v157h637v-102q-68 -129 -140.5 -251t-152.5 -243q156 -35 246 -145.5t90 -284.5q0 -88 -30 -165.5t-86 -135 t-139 -90.5t-190 -33q-74 0 -144.5 18.5t-123.5 43.5zM149 1820l86 72l150 -174l149 174l86 -72l-235 -311z" />
<glyph unicode="&#x1ef;" horiz-adv-x="743" d="M20 -338l33 152q47 -20 96.5 -31.5t98.5 -11.5q55 0 101 16t81 50t54.5 87t19.5 127q0 129 -78 201t-219 72h-45v116q78 117 149.5 232.5t134.5 240.5h-393v152h586v-102q-70 -135 -143.5 -257t-157.5 -247q168 -31 256 -138.5t88 -281.5q0 -96 -29.5 -174t-86 -133.5 t-137.5 -86t-181 -30.5q-66 0 -123 13.5t-105 33.5zM92 1501l86 72l150 -174l149 174l86 -72l-235 -311z" />
<glyph unicode="&#x1f0;" horiz-adv-x="495" d="M-70 -360l25 149q18 -4 36.5 -7t41.5 -3q29 0 52.5 7t39.5 27.5t25.5 55.5t9.5 88v1118h176v-1128q0 -176 -78 -252t-207 -76q-68 0 -121 21zM14 1501l86 72l150 -174l149 174l86 -72l-235 -311z" />
<glyph unicode="&#x1f1;" horiz-adv-x="2048" d="M170 23v1376q78 16 151.5 26.5t141.5 10.5q139 0 250.5 -39t190.5 -125t121 -224t42 -337t-42 -337t-121 -224.5t-190.5 -125t-248.5 -38.5q-139 0 -295 37zM354 158q31 -4 59.5 -6t55.5 -2q109 0 184.5 30.5t123.5 97t70.5 173t22.5 260.5q0 152 -22.5 258t-69.5 173.5 t-123.5 98.5t-183.5 31q-29 0 -57.5 -2t-59.5 -6v-1106zM1243 0v113q31 82 72 180t88 203.5t97.5 212t100.5 207t96 189.5t85 157h-512v157h709v-145q-61 -109 -137 -255.5t-151 -301t-141.5 -302t-109.5 -257.5h553v-158h-750z" />
<glyph unicode="&#x1f2;" horiz-adv-x="1912" d="M170 23v1376q78 16 151.5 26.5t141.5 10.5q139 0 250.5 -39t190.5 -125t121 -224t42 -337t-42 -337t-121 -224.5t-190.5 -125t-248.5 -38.5q-139 0 -295 37zM354 158q31 -4 59.5 -6t55.5 -2q109 0 184.5 30.5t123.5 97t70.5 173t22.5 260.5q0 152 -22.5 258t-69.5 173.5 t-123.5 98.5t-183.5 31q-29 0 -57.5 -2t-59.5 -6v-1106zM1246 0v127q33 90 84 200.5t107 221t110.5 210t93.5 165.5h-371v151h561v-131q-45 -76 -102 -180.5t-113.5 -214t-106.5 -215t-81 -182.5h418v-152h-600z" />
<glyph unicode="&#x1f3;" horiz-adv-x="1689" d="M73 541q0 129 21.5 232.5t67.5 176t118 112.5t170 40q47 0 81 -9.5t67 -25.5v492l176 30v-1560q-57 -25 -131 -40.5t-150 -15.5q-221 0 -320.5 141.5t-99.5 426.5zM258 541q0 -221 58 -316.5t177 -95.5q23 0 49.5 3t55.5 11v770q-59 33 -127 33q-51 0 -90 -20.5 t-67 -67.5t-42 -125t-14 -192zM1029 0v127q33 90 84 200.5t107 221t110.5 210t93.5 165.5h-371v151h561v-131q-45 -76 -102 -180.5t-113.5 -214t-106.5 -215t-81 -182.5h418v-152h-600z" />
<glyph unicode="&#x1f4;" horiz-adv-x="1075" d="M113 711q0 201 36.5 342t105.5 230t166 129t218 40q92 0 168 -25.5t123 -58.5l-58 -154q-47 33 -102 54.5t-127 21.5q-178 0 -256 -144.5t-78 -434.5q0 -156 23.5 -266.5t66.5 -180t104.5 -102.5t137.5 -33q63 0 109 14v555h184v-667q-55 -27 -137 -45.5t-172 -18.5 q-111 0 -205 44t-163 135.5t-106.5 231.5t-37.5 333zM432 1587l242 325l125 -106l-279 -295z" />
<glyph unicode="&#x1f5;" horiz-adv-x="956" d="M98 545q0 129 23.5 232.5t74 176t130.5 110.5t194 38q76 0 148.5 -15.5t130.5 -39.5v-1016q0 -115 -30 -194t-81 -128t-119.5 -71.5t-146.5 -22.5q-66 0 -131.5 14.5t-120.5 42.5l37 148q37 -20 90 -36.5t111 -16.5q100 0 157.5 57t57.5 196v52q-33 -14 -70 -23.5 t-84 -9.5q-193 0 -282 132t-89 374zM283 545q0 -193 55 -271.5t158 -78.5q35 0 66.5 8t60.5 22v707q-29 8 -55.5 11t-49.5 3q-123 0 -179 -94t-56 -307zM311 1268l242 325l125 -106l-279 -295z" />
<glyph unicode="&#x1f6;" horiz-adv-x="1726" d="M172 0v1419h184v-600h467v600h185v-1028q0 -115 45 -186.5t147 -71.5q104 0 149.5 71.5t45.5 188.5v680h184v-680q0 -186 -96.5 -301t-282.5 -115t-281.5 109t-95.5 307v266h-467v-659h-184z" />
<glyph unicode="&#x1f7;" horiz-adv-x="1067" d="M172 -379v1718q80 43 167 69t185 26q215 0 332 -133.5t117 -395.5q0 -168 -48 -304t-131 -246.5t-196 -197.5t-242 -155v-381h-184zM356 188q86 51 163 116t133.5 149t90 189.5t33.5 240.5q0 104 -20.5 179t-55 121t-84 67.5t-104.5 21.5q-76 0 -156 -35v-1049z" />
<glyph unicode="&#x1f8;" horiz-adv-x="1189" d="M172 0v1419h154q78 -127 150.5 -260t138 -263t124 -256t107.5 -239v1018h172v-1419h-150q-49 121 -111.5 261t-131 282.5t-140 283t-141.5 260.5v-1087h-172zM336 1806l125 106l242 -325l-88 -76z" />
<glyph unicode="&#x1f9;" horiz-adv-x="987" d="M160 0v1044q76 23 164 38.5t161 15.5q80 0 145.5 -21.5t111.5 -73t72 -138.5t26 -216v-649h-176v635q0 160 -41 233.5t-154 73.5q-59 0 -133 -20v-922h-176zM231 1487l125 106l242 -325l-88 -76z" />
<glyph unicode="&#x1fa;" horiz-adv-x="1030" d="M41 0q45 217 89 403.5t89 354.5t91 320.5t93 299.5q-29 23 -46 57.5t-17 82.5q0 80 51 127t123 47t123 -47t51 -127q0 -45 -17.5 -80t-45.5 -58q47 -147 93 -300.5t92 -320.5t90 -354.5t89 -404.5h-184q-16 92 -33.5 182t-36.5 180h-446q-20 -90 -36.5 -180t-33.5 -182 h-178zM311 1810l310 160l55 -145l-322 -117zM324 516h374q-41 180 -88 352t-98 342q-51 -170 -98 -342t-90 -352zM432 1518q0 -41 23.5 -62.5t58.5 -21.5t58.5 21.5t23.5 62.5t-23.5 62.5t-58.5 21.5t-58.5 -21.5t-23.5 -62.5z" />
<glyph unicode="&#x1fb;" horiz-adv-x="888" d="M84 311q0 84 25.5 146.5t70.5 104.5t106.5 63.5t133.5 21.5q68 0 149 -16v98q0 119 -46 166t-132 47q-47 0 -89 -9t-89 -30l-37 150q53 23 112.5 36t129.5 13q143 0 233 -89t90 -278v-712q-74 -20 -150.5 -33t-150.5 -13t-138 18.5t-112.5 59.5t-77 103.5t-28.5 152.5z M260 313q0 -94 49 -139t140 -45q55 0 120 14v342q-61 16 -120 17q-39 0 -74 -9.5t-60.5 -31t-40 -57.5t-14.5 -91zM270 1356q0 80 51.5 127t122.5 47q72 0 123 -47t51 -127t-51 -127t-123 -47t-123 47t-51 127zM270 1669l310 160l55 -146l-322 -116zM362 1356 q0 -41 24 -62.5t58 -21.5q35 0 58.5 21.5t23.5 62.5t-23.5 62.5t-58.5 21.5t-58.5 -21.5t-23.5 -62.5z" />
<glyph unicode="&#x1fc;" horiz-adv-x="1492" d="M4 0q61 178 137 364.5t159 371t171 358.5t172 325h725v-157h-453v-441h410v-153h-410v-510h486v-158h-670v362h-414q-37 -92 -71.5 -183t-63.5 -179h-178zM381 516h348l2 -10v747q-92 -174 -180 -360t-170 -377zM786 1587l242 325l125 -106l-279 -295z" />
<glyph unicode="&#x1fd;" horiz-adv-x="1357" d="M84 311q0 84 25.5 146.5t70.5 104.5t106.5 63.5t133.5 21.5q66 0 147 -16q0 4 1 6t1 6v86q0 119 -46 166t-132 47q-47 0 -89 -9t-89 -30l-37 150q53 23 112.5 36t129.5 13q84 0 150.5 -33t107.5 -106q92 139 248 139q182 0 257.5 -137.5t75.5 -384.5v-46.5t-2 -48.5h-510 q2 -78 14.5 -142t40 -112.5t74 -75t117.5 -26.5q59 0 109.5 17.5t73.5 29.5l32 -141q-27 -18 -89 -40t-148 -22q-80 0 -140.5 19.5t-107.5 58.5q-66 -35 -132.5 -54.5t-148.5 -19.5q-74 0 -139 19.5t-113.5 60.5t-76 104.5t-27.5 149.5zM260 313q0 -80 48.5 -132t140.5 -52 q55 0 98 13.5t80 35.5q-29 61 -43.5 138t-18.5 169q-59 16 -116 17q-39 0 -74 -9.5t-60.5 -31t-40 -57t-14.5 -91.5zM596 1268l242 325l125 -106l-279 -295zM748 629h325q0 150 -30.5 236.5t-118.5 86.5t-128 -88t-48 -235z" />
<glyph unicode="&#x1fe;" horiz-adv-x="1239" d="M115 709q0 166 30.5 303t93 234t158 151.5t224.5 54.5q90 0 162.5 -26.5t129.5 -75.5l84 145l117 -68l-108 -188q59 -98 88.5 -232.5t29.5 -297.5q0 -166 -29.5 -302.5t-92 -233.5t-157.5 -150.5t-224 -53.5q-176 0 -293 101l-82 -144l-117 68l107 182q-61 98 -91 232.5 t-30 300.5zM311 709q0 -199 39 -334l471 815q-37 47 -86 73.5t-114 26.5q-84 0 -142.5 -43t-95.5 -119.5t-54.5 -183t-17.5 -235.5zM420 227q37 -47 86 -71.5t115 -24.5q84 0 142 42t95 118t53.5 182.5t16.5 235.5q0 193 -37 331zM516 1575l242 325l125 -106l-279 -295z" />
<glyph unicode="&#x1ff;" horiz-adv-x="948" d="M82 -8l94 158q-41 74 -59.5 172t-18.5 215q0 125 22.5 229t69 179t118 116t167.5 41q135 0 225 -84l70 115l102 -62l-96 -158q37 -72 55.5 -168t18.5 -208q0 -127 -22.5 -230.5t-68.5 -177.5t-117 -115t-167 -41q-131 0 -219 76l-72 -119zM283 537q0 -53 3 -100.5 t11 -88.5l309 514q-45 82 -131 82q-53 0 -89 -29.5t-59.5 -84t-33.5 -129t-10 -164.5zM348 201q45 -70 127 -70q51 0 88 29.5t59.5 83t33 128.5t10.5 165q0 94 -13 172zM352 1268l242 325l125 -106l-279 -295z" />
<glyph unicode="&#x200;" horiz-adv-x="1030" d="M41 0q45 223 92 415.5t93 364.5t94.5 329t97.5 310h194q49 -154 97.5 -310.5t94.5 -328.5t92 -364.5t93 -415.5h-184q-16 92 -33.5 182t-36.5 180h-446q-20 -90 -36.5 -180t-33.5 -182h-178zM129 1841l127 84l197 -349l-94 -57zM324 516h374q-41 180 -88 352t-98 342 q-51 -170 -98 -342t-90 -352zM410 1841l127 84l197 -349l-95 -57z" />
<glyph unicode="&#x201;" horiz-adv-x="888" d="M61 1522l127 84l197 -349l-94 -57zM84 311q0 84 25.5 146.5t70.5 104.5t106.5 63.5t133.5 21.5q68 0 149 -16v98q0 119 -46 166t-132 47q-47 0 -89 -9t-89 -30l-37 150q53 23 112.5 36t129.5 13q143 0 233 -89t90 -278v-712q-74 -20 -150.5 -33t-150.5 -13t-138 18.5 t-112.5 59.5t-77 103.5t-28.5 152.5zM260 313q0 -94 49 -139t140 -45q55 0 120 14v342q-61 16 -120 17q-39 0 -74 -9.5t-60.5 -31t-40 -57.5t-14.5 -91zM342 1522l127 84l197 -349l-95 -57z" />
<glyph unicode="&#x202;" horiz-adv-x="1030" d="M41 0q45 223 92 415.5t93 364.5t94.5 329t97.5 310h194q49 -154 97.5 -310.5t94.5 -328.5t92 -364.5t93 -415.5h-184q-16 92 -33.5 182t-36.5 180h-446q-20 -90 -36.5 -180t-33.5 -182h-178zM279 1549q0 135 60.5 209.5t175.5 74.5q113 0 174 -74.5t61 -209.5h-119 q-4 68 -27.5 117t-88.5 49q-66 0 -89.5 -49.5t-27.5 -116.5h-119zM324 516h374q-41 180 -88 352t-98 342q-51 -170 -98 -342t-90 -352z" />
<glyph unicode="&#x203;" horiz-adv-x="888" d="M84 311q0 84 25.5 146.5t70.5 104.5t106.5 63.5t133.5 21.5q68 0 149 -16v98q0 119 -46 166t-132 47q-47 0 -89 -9t-89 -30l-37 150q53 23 112.5 36t129.5 13q143 0 233 -89t90 -278v-712q-74 -20 -150.5 -33t-150.5 -13t-138 18.5t-112.5 59.5t-77 103.5t-28.5 152.5z M209 1270q0 135 60.5 209.5t175.5 74.5q113 0 174 -74.5t61 -209.5h-119q-4 68 -27.5 117t-88.5 49q-66 0 -89.5 -49.5t-27.5 -116.5h-119zM260 313q0 -94 49 -139t140 -45q55 0 120 14v342q-61 16 -120 17q-39 0 -74 -9.5t-60.5 -31t-40 -57.5t-14.5 -91z" />
<glyph unicode="&#x204;" horiz-adv-x="933" d="M135 1841l127 84l197 -349l-94 -57zM172 0v1419h637v-157h-453v-441h410v-153h-410v-510h486v-158h-670zM416 1841l127 84l197 -349l-95 -57z" />
<glyph unicode="&#x205;" horiz-adv-x="892" d="M94 1522l127 84l197 -349l-94 -57zM100 530q0 297 98.5 434.5t260.5 137.5q182 0 258 -137.5t76 -384.5v-46.5t-2 -48.5h-510q2 -78 14 -142t39.5 -112.5t74 -75t117.5 -26.5q59 0 109.5 17.5t73.5 29.5l32 -141q-27 -18 -89 -40t-148 -22q-113 0 -189.5 41t-125 115 t-69 176.5t-20.5 224.5zM283 629h325q0 150 -30.5 236.5t-118.5 86.5t-128 -88t-48 -235zM375 1522l127 84l197 -349l-95 -57z" />
<glyph unicode="&#x206;" horiz-adv-x="933" d="M172 0v1419h637v-157h-453v-441h410v-153h-410v-510h486v-158h-670zM262 1549q0 135 60.5 209.5t175.5 74.5q113 0 174 -74.5t61 -209.5h-119q-4 68 -27.5 117t-88.5 49q-66 0 -89.5 -49.5t-27.5 -116.5h-119z" />
<glyph unicode="&#x207;" horiz-adv-x="892" d="M100 530q0 297 98.5 434.5t260.5 137.5q182 0 258 -137.5t76 -384.5v-46.5t-2 -48.5h-510q2 -78 14 -142t39.5 -112.5t74 -75t117.5 -26.5q59 0 109.5 17.5t73.5 29.5l32 -141q-27 -18 -89 -40t-148 -22q-113 0 -189.5 41t-125 115t-69 176.5t-20.5 224.5zM219 1270 q0 135 60.5 209.5t175.5 74.5q113 0 174 -74.5t61 -209.5h-119q-4 68 -27.5 117t-88.5 49q-66 0 -89.5 -49.5t-27.5 -116.5h-119zM283 629h325q0 150 -30.5 236.5t-118.5 86.5t-128 -88t-48 -235z" />
<glyph unicode="&#x208;" horiz-adv-x="528" d="M-138 1841l127 84l197 -349l-94 -57zM143 1841l127 84l197 -349l-95 -57zM172 0v1419h184v-1419h-184z" />
<glyph unicode="&#x209;" horiz-adv-x="495" d="M-154 1522l127 84l197 -349l-94 -57zM127 1522l127 84l197 -349l-95 -57zM160 0v1075h176v-1075h-176z" />
<glyph unicode="&#x20a;" horiz-adv-x="528" d="M31 1589q0 135 60.5 209.5t175.5 74.5q113 0 174 -74.5t61 -209.5h-119q-4 68 -27.5 117t-88.5 49q-66 0 -89.5 -49.5t-27.5 -116.5h-119zM172 0v1419h184v-1419h-184z" />
<glyph unicode="&#x20b;" horiz-adv-x="495" d="M12 1270q0 135 60.5 209.5t175.5 74.5q113 0 174 -74.5t61 -209.5h-119q-4 68 -27.5 117t-88.5 49q-66 0 -89.5 -49.5t-27.5 -116.5h-119zM160 0v1075h176v-1075h-176z" />
<glyph unicode="&#x20c;" horiz-adv-x="1239" d="M115 709q0 166 30.5 303t93 234t158 151.5t224.5 54.5t224 -54.5t157.5 -151.5t92 -234t29.5 -303t-29.5 -302.5t-92 -233.5t-157.5 -150.5t-224 -53.5t-224.5 53.5t-158 150.5t-93 233.5t-30.5 302.5zM262 1841l127 84l197 -349l-94 -57zM311 709q0 -129 17.5 -235.5 t54.5 -182.5t95.5 -118t142.5 -42t142 42t95 118t53.5 182.5t16.5 235.5t-16.5 235.5t-53.5 183t-95 119.5t-142 43t-142.5 -43t-95.5 -119.5t-54.5 -183t-17.5 -235.5zM543 1841l127 84l197 -349l-95 -57z" />
<glyph unicode="&#x20d;" horiz-adv-x="948" d="M98 537q0 125 22.5 229t69 179t118 116t167.5 41t167 -41t117 -116t68.5 -179t22.5 -229q0 -127 -22.5 -230.5t-68.5 -177.5t-117 -115t-167 -41t-167.5 41t-118 115t-69 177.5t-22.5 230.5zM108 1522l127 84l197 -349l-94 -57zM283 537q0 -90 10 -165t33.5 -128.5 t59.5 -83t89 -29.5q51 0 88 29.5t59.5 83t33 128.5t10.5 165t-10.5 164.5t-33 129t-59.5 84t-88 29.5q-53 0 -89 -29.5t-59.5 -84t-33.5 -129t-10 -164.5zM389 1522l127 84l197 -349l-95 -57z" />
<glyph unicode="&#x20e;" horiz-adv-x="1239" d="M115 709q0 166 30.5 303t93 234t158 151.5t224.5 54.5t224 -54.5t157.5 -151.5t92 -234t29.5 -303t-29.5 -302.5t-92 -233.5t-157.5 -150.5t-224 -53.5t-224.5 53.5t-158 150.5t-93 233.5t-30.5 302.5zM311 709q0 -129 17.5 -235.5t54.5 -182.5t95.5 -118t142.5 -42 t142 42t95 118t53.5 182.5t16.5 235.5t-16.5 235.5t-53.5 183t-95 119.5t-142 43t-142.5 -43t-95.5 -119.5t-54.5 -183t-17.5 -235.5zM383 1549q0 135 60.5 209.5t175.5 74.5q113 0 174 -74.5t61 -209.5h-119q-4 68 -27.5 117t-88.5 49q-66 0 -89.5 -49.5t-27.5 -116.5h-119 z" />
<glyph unicode="&#x20f;" horiz-adv-x="948" d="M98 537q0 125 22.5 229t69 179t118 116t167.5 41t167 -41t117 -116t68.5 -179t22.5 -229q0 -127 -22.5 -230.5t-68.5 -177.5t-117 -115t-167 -41t-167.5 41t-118 115t-69 177.5t-22.5 230.5zM242 1270q0 135 60.5 209.5t175.5 74.5q113 0 174 -74.5t61 -209.5h-119 q-4 68 -27.5 117t-88.5 49q-66 0 -89.5 -49.5t-27.5 -116.5h-119zM283 537q0 -90 10 -165t33.5 -128.5t59.5 -83t89 -29.5q51 0 88 29.5t59.5 83t33 128.5t10.5 165t-10.5 164.5t-33 129t-59.5 84t-88 29.5q-53 0 -89 -29.5t-59.5 -84t-33.5 -129t-10 -164.5z" />
<glyph unicode="&#x210;" horiz-adv-x="1052" d="M120 1841l127 84l197 -349l-94 -57zM172 0v1399q143 35 277 35q106 0 192 -25t147.5 -78t95.5 -137t34 -203q0 -147 -56.5 -238t-152.5 -139q25 -41 62.5 -111.5t77.5 -155.5t78 -175t64 -172h-184q-23 61 -56.5 139t-70.5 155t-74 147.5t-65 119.5q-33 -4 -68 -6t-70 -2 h-51v-553h-180zM352 705h78q141 0 217 64.5t76 221.5q0 80 -19.5 134.5t-55.5 86t-86 46t-111 14.5q-53 0 -99 -6v-561zM401 1841l127 84l197 -349l-95 -57z" />
<glyph unicode="&#x211;" horiz-adv-x="671" d="M38 1522l127 84l197 -349l-94 -57zM160 0v1028q59 29 136 48.5t169 19.5q49 0 98 -6.5t92 -22.5l-30 -152q-66 29 -148 29q-76 0 -141 -26v-918h-176zM319 1522l127 84l197 -349l-95 -57z" />
<glyph unicode="&#x212;" horiz-adv-x="1052" d="M172 0v1399q143 35 277 35q106 0 192 -25t147.5 -78t95.5 -137t34 -203q0 -147 -56.5 -238t-152.5 -139q25 -41 62.5 -111.5t77.5 -155.5t78 -175t64 -172h-184q-23 61 -56.5 139t-70.5 155t-74 147.5t-65 119.5q-33 -4 -68 -6t-70 -2h-51v-553h-180zM279 1549 q0 135 60.5 209.5t175.5 74.5q113 0 174 -74.5t61 -209.5h-119q-4 68 -27.5 117t-88.5 49q-66 0 -89.5 -49.5t-27.5 -116.5h-119zM352 705h78q141 0 217 64.5t76 221.5q0 80 -19.5 134.5t-55.5 86t-86 46t-111 14.5q-53 0 -99 -6v-561z" />
<glyph unicode="&#x213;" horiz-adv-x="671" d="M160 0v1028q59 29 136 48.5t169 19.5q49 0 98 -6.5t92 -22.5l-30 -152q-66 29 -148 29q-76 0 -141 -26v-918h-176zM170 1270q0 135 60.5 209.5t175.5 74.5q113 0 174 -74.5t61 -209.5h-119q-4 68 -27.5 117t-88.5 49q-66 0 -89.5 -49.5t-27.5 -116.5h-119z" />
<glyph unicode="&#x214;" horiz-adv-x="1124" d="M160 438v981h184v-964q0 -162 47 -243t170 -81q127 0 173 83t46 241v964h185v-981q0 -240 -102.5 -354.5t-305.5 -114.5q-199 0 -298 113t-99 356zM174 1841l127 84l197 -349l-94 -57zM455 1841l127 84l197 -349l-95 -57z" />
<glyph unicode="&#x215;" horiz-adv-x="983" d="M110 1522l127 84l197 -349l-94 -57zM145 414v661h177v-655q0 -158 48 -222.5t146 -64.5q33 0 65.5 3t67.5 14v925h176v-1044q-27 -10 -64.5 -19.5t-79.5 -16.5t-84 -12.5t-77 -5.5q-84 0 -153.5 19.5t-118.5 69t-76 134.5t-27 214zM391 1522l127 84l197 -349l-95 -57z " />
<glyph unicode="&#x216;" horiz-adv-x="1124" d="M160 438v981h184v-964q0 -162 47 -243t170 -81q127 0 173 83t46 241v964h185v-981q0 -240 -102.5 -354.5t-305.5 -114.5q-199 0 -298 113t-99 356zM326 1549q0 135 60.5 209.5t175.5 74.5q113 0 174 -74.5t61 -209.5h-119q-4 68 -27.5 117t-88.5 49q-66 0 -89.5 -49.5 t-27.5 -116.5h-119z" />
<glyph unicode="&#x217;" horiz-adv-x="983" d="M145 414v661h177v-655q0 -158 48 -222.5t146 -64.5q33 0 65.5 3t67.5 14v925h176v-1044q-27 -10 -64.5 -19.5t-79.5 -16.5t-84 -12.5t-77 -5.5q-84 0 -153.5 19.5t-118.5 69t-76 134.5t-27 214zM258 1270q0 135 60.5 209.5t175.5 74.5q113 0 174 -74.5t61 -209.5h-119 q-4 68 -27.5 117t-88.5 49q-66 0 -89.5 -49.5t-27.5 -116.5h-119z" />
<glyph unicode="&#x218;" horiz-adv-x="819" d="M51 51l58 148q53 -33 109 -52.5t130 -19.5q111 0 171.5 61.5t60.5 165.5q0 55 -18.5 98.5t-48.5 78t-68.5 63.5t-79.5 57q-47 33 -98.5 70t-93.5 86t-68.5 114.5t-26.5 153.5q0 86 29.5 155.5t82 119t125 76t156.5 26.5q82 0 151.5 -20.5t116.5 -49.5l-57 -145 q-43 29 -93 44t-106 15q-100 0 -160.5 -54t-60.5 -159q0 -57 19.5 -100t51.5 -78t74 -63.5t89 -59.5t96 -67.5t89 -84.5t65.5 -112.5t25.5 -152.5q0 -80 -24.5 -152t-77 -126t-131 -86t-185.5 -32q-98 0 -171.5 22.5t-131.5 59.5zM215 -270q8 -2 25 -2q51 0 77.5 30.5 t26.5 112.5v27h152q2 -10 2 -23.5v-19.5q0 -129 -61.5 -184.5t-151.5 -55.5q-23 0 -41 2t-29 6v107z" />
<glyph unicode="&#x219;" horiz-adv-x="698" d="M74 37l37 145q31 -16 83 -36.5t115 -20.5q78 0 118 44t40 116q0 45 -16.5 76.5t-43 56t-61.5 44t-70 42.5q-35 20 -67.5 48t-58 63.5t-41 81.5t-15.5 108q0 133 83 215t224 82q59 0 112.5 -15.5t88.5 -33.5l-39 -142q-37 20 -73.5 30.5t-79.5 10.5q-66 0 -105 -37.5 t-39 -109.5q0 -41 14.5 -70.5t38 -53.5t53 -44.5t62.5 -38.5q39 -23 77 -49.5t67.5 -62t48 -84t18.5 -115.5q0 -141 -83 -227.5t-243 -86.5q-82 0 -147.5 22.5t-97.5 41.5zM174 -270q8 -2 25 -2q51 0 77.5 30.5t26.5 112.5v27h152q2 -10 2 -23.5v-19.5q0 -129 -61.5 -184.5 t-151.5 -55.5q-23 0 -41 2t-29 6v107z" />
<glyph unicode="&#x21a;" horiz-adv-x="872" d="M29 1262v157h815v-157h-316v-1262h-184v1262h-315zM231 -270q8 -2 25 -2q51 0 77.5 30.5t26.5 112.5v27h152q2 -10 2 -23.5v-19.5q0 -129 -61.5 -184.5t-151.5 -55.5q-23 0 -41 2t-29 6v107z" />
<glyph unicode="&#x21b;" horiz-adv-x="657" d="M147 344v1020l177 31v-320h270v-151h-270v-592q0 -111 39.5 -155t107.5 -44q35 0 66.5 10.5t54.5 24.5l35 -141q-84 -49 -178 -50q-152 0 -227 85t-75 282zM178 -270q8 -2 25 -2q51 0 77.5 30.5t26.5 112.5v27h152q2 -10 2 -23.5v-19.5q0 -129 -61.5 -184.5t-151.5 -55.5 q-23 0 -41 2t-29 6v107z" />
<glyph unicode="&#x21c;" horiz-adv-x="858" d="M27 -207h53q236 0 370 99.5t134 310.5q0 166 -93.5 250t-244.5 84h-78v153h72q141 0 221 86t80 240q0 117 -61.5 194.5t-174.5 77.5q-61 0 -111.5 -12t-97.5 -41l-53 147q59 33 128 51.5t140 18.5q98 0 176 -31.5t132.5 -89t83 -137.5t28.5 -174q0 -129 -50 -234.5 t-144 -162.5q104 -43 170.5 -154t66.5 -262q0 -150 -49 -259.5t-139 -181t-218 -106.5t-288 -35h-23.5t-23.5 2z" />
<glyph unicode="&#x21d;" horiz-adv-x="722" d="M20 1020q53 31 118 52.5t143 21.5q76 0 138 -26t106 -72t67.5 -108.5t23.5 -137.5q0 -106 -45 -192.5t-129 -131.5q47 -18 87 -53t69 -81t45 -100.5t16 -113.5q0 -115 -46 -200t-124.5 -140t-184 -83t-226.5 -28h-39l-6 150q10 -2 21.5 -2h21.5q82 0 153.5 17.5t126 54 t86 94t31.5 137.5q0 66 -19.5 116t-53 83.5t-79 51t-94.5 17.5h-61v146h53q111 0 162 68.5t51 184.5q0 84 -44 138.5t-124 54.5q-49 0 -98 -16.5t-92 -42.5z" />
<glyph unicode="&#x21e;" horiz-adv-x="1179" d="M172 0v1419h184v-600h467v600h185v-1419h-185v659h-467v-659h-184zM356 1810l86 72l150 -174l149 174l86 -72l-235 -311z" />
<glyph unicode="&#x21f;" horiz-adv-x="987" d="M94 1872l63 86l179 -123l176 123l65 -86l-241 -195zM160 0v1559l176 30v-520q39 12 85 20.5t93 8.5q68 0 127 -21.5t103 -73t70 -138.5t26 -216v-649h-176v635q0 160 -41 233.5t-154 73.5q-59 0 -133 -20v-922h-176z" />
<glyph unicode="&#x220;" horiz-adv-x="1132" d="M172 0v1382q90 29 193.5 49.5t189.5 20.5q94 0 171 -27.5t131 -92t84 -171t30 -262.5v-1278h-185v1260q0 201 -54 305t-200 104q-37 0 -81.5 -6t-94.5 -24v-1260h-184z" />
<glyph unicode="&#x221;" horiz-adv-x="1132" d="M100 541q0 129 21.5 232.5t68 176t118 112.5t169.5 40q47 0 81 -9.5t67 -25.5v492l176 30v-1421q57 39 131 39q55 0 96 -23.5t68.5 -63.5t42 -93.5t14.5 -110.5q0 -51 -14.5 -103.5t-45 -95.5t-79.5 -69.5t-119 -26.5q-74 0 -137.5 37t-98.5 109l-98 -152l-98 68l162 264 v35q-27 -4 -52.5 -6.5t-52.5 -2.5q-221 0 -320.5 141.5t-99.5 426.5zM285 541q0 -221 58 -316.5t177 -95.5q23 0 49.5 3t55.5 11v770q-59 33 -127 33q-51 0 -90 -20.5t-67 -67.5t-42 -125t-14 -192zM801 18v-92q0 -84 27.5 -133t76.5 -49q51 0 78 40t27 126q0 80 -24 127 t-77 47q-63 0 -108 -66z" />
<glyph unicode="&#x222;" horiz-adv-x="1093" d="M96 412q0 125 59.5 227t159.5 141q-76 43 -111.5 131t-35.5 213q0 92 10 157t29 138h166q-12 -72 -21.5 -143.5t-9.5 -142.5q0 -137 49 -210t156 -73q106 0 155.5 72.5t49.5 210.5q0 72 -9.5 143.5t-21.5 142.5h172q18 -74 25.5 -138.5t7.5 -156.5q0 -125 -36 -213 t-112 -131q49 -18 89 -55t70 -86t45 -107.5t15 -119.5q0 -90 -28.5 -168t-85 -134.5t-140.5 -88t-194 -31.5q-113 0 -198 31.5t-141 88t-85 134.5t-29 168zM285 422q0 -70 21.5 -120t57 -84t83 -50t100.5 -16q51 0 99 16t84 50t57.5 84t21.5 120q0 135 -73.5 201.5 t-188.5 66.5t-188.5 -66.5t-73.5 -201.5z" />
<glyph unicode="&#x223;" horiz-adv-x="972" d="M102 481q0 174 56.5 281.5t134.5 157.5q-61 35 -99 116.5t-38 214.5q0 86 7 169t17 169h174q-10 -72 -15 -144.5t-5 -144.5q0 -90 10 -150t29.5 -96t48.5 -51.5t65 -15.5q37 0 66 15.5t47 51.5t28.5 96t10.5 150q0 72 -5 145t-16 144h175q10 -86 17 -169t7 -169 q0 -133 -38 -215t-99 -116q78 -49 134 -157t56 -282q0 -129 -28.5 -224t-79.5 -158.5t-122 -94.5t-153 -31q-84 0 -154.5 32t-121.5 94.5t-80 157.5t-29 224zM287 481q0 -186 53 -268t147 -82t147.5 82t53.5 268t-53 268t-148 82q-94 0 -147 -81.5t-53 -268.5z" />
<glyph unicode="&#x224;" horiz-adv-x="884" d="M63 0v113q31 82 72 180t88 203.5t97.5 212t100.5 207t96 189.5t85 157h-512v157h709v-145q-61 -109 -137 -255.5t-151 -301t-141.5 -302t-109.5 -257.5h553v-158q0 -88 -9 -158.5t-37 -121t-77 -77t-129 -26.5q-27 0 -58.5 5t-53.5 11l14 140q10 -4 33.5 -7.5t35.5 -3.5 q74 0 97.5 46.5t23.5 148.5v43h-590z" />
<glyph unicode="&#x225;" horiz-adv-x="729" d="M68 0v127q33 90 84 200.5t107 221t110.5 210t93.5 165.5h-371v151h561v-131q-45 -76 -102 -180.5t-113.5 -214t-106.5 -215t-81 -182.5h418v-152q0 -88 -9.5 -158.5t-37 -121t-76.5 -77t-129 -26.5q-27 0 -58.5 5t-54.5 11l14 140q10 -4 34 -7.5t36 -3.5q74 0 97.5 46.5 t23.5 148.5v43h-440z" />
<glyph unicode="&#x226;" horiz-adv-x="1030" d="M41 0q45 223 92 415.5t93 364.5t94.5 329t97.5 310h194q49 -154 97.5 -310.5t94.5 -328.5t92 -364.5t93 -415.5h-184q-16 92 -33.5 182t-36.5 180h-446q-20 -90 -36.5 -180t-33.5 -182h-178zM324 516h374q-41 180 -88 352t-98 342q-51 -170 -98 -342t-90 -352zM404 1693 q0 53 33.5 85t81.5 32q47 0 80.5 -31.5t33.5 -85.5q0 -53 -33.5 -84.5t-80.5 -31.5t-81 31.5t-34 84.5z" />
<glyph unicode="&#x227;" horiz-adv-x="888" d="M84 311q0 84 25.5 146.5t70.5 104.5t106.5 63.5t133.5 21.5q68 0 149 -16v98q0 119 -46 166t-132 47q-47 0 -89 -9t-89 -30l-37 150q53 23 112.5 36t129.5 13q143 0 233 -89t90 -278v-712q-74 -20 -150.5 -33t-150.5 -13t-138 18.5t-112.5 59.5t-77 103.5t-28.5 152.5z M260 313q0 -94 49 -139t140 -45q55 0 120 14v342q-61 16 -120 17q-39 0 -74 -9.5t-60.5 -31t-40 -57.5t-14.5 -91zM330 1382q0 53 33.5 85t81.5 32q47 0 80.5 -31.5t33.5 -85.5q0 -53 -33.5 -84.5t-80.5 -31.5t-81 31.5t-34 84.5z" />
<glyph unicode="&#x228;" horiz-adv-x="933" d="M172 0v1419h637v-157h-453v-441h410v-153h-410v-510h486v-158h-246q-10 -20 -19.5 -41.5t-17.5 -40.5q59 -23 84 -58.5t25 -82.5q0 -78 -61.5 -121t-151.5 -43q-31 0 -68 5t-72 17l21 113q20 -4 42.5 -9t47.5 -5q37 0 63.5 11t26.5 44q0 23 -22.5 39t-83.5 29 q10 35 26.5 73.5t32.5 69.5h-297z" />
<glyph unicode="&#x229;" horiz-adv-x="892" d="M100 530q0 297 98.5 434.5t260.5 137.5q182 0 258 -137.5t76 -384.5v-46.5t-2 -48.5h-510q2 -78 14 -142t39.5 -112.5t74 -75t117.5 -26.5q59 0 109.5 17.5t73.5 29.5l32 -141q-25 -16 -80 -35.5t-129 -24.5q-8 -16 -14 -30.5t-10 -26.5q59 -23 83.5 -58.5t24.5 -82.5 q0 -78 -61 -121t-152 -43q-31 0 -67.5 5t-71.5 17l21 113q20 -4 42.5 -9t47.5 -5q37 0 63.5 11t26.5 44q0 23 -22.5 39t-84.5 29q10 29 22.5 63.5t29.5 63.5q-86 16 -144.5 62t-95.5 116.5t-53.5 164t-16.5 203.5zM283 629h325q0 150 -30.5 236.5t-118.5 86.5t-128 -88 t-48 -235z" />
<glyph unicode="&#x22a;" horiz-adv-x="1239" d="M115 709q0 166 30.5 303t93 234t158 151.5t224.5 54.5t224 -54.5t157.5 -151.5t92 -234t29.5 -303t-29.5 -302.5t-92 -233.5t-157.5 -150.5t-224 -53.5t-224.5 53.5t-158 150.5t-93 233.5t-30.5 302.5zM311 709q0 -129 17.5 -235.5t54.5 -182.5t95.5 -118t142.5 -42 t142 42t95 118t53.5 182.5t16.5 235.5t-16.5 235.5t-53.5 183t-95 119.5t-142 43t-142.5 -43t-95.5 -119.5t-54.5 -183t-17.5 -235.5zM346 1649q0 49 30.5 79t76.5 30q45 0 75.5 -30t30.5 -79t-30.5 -79t-75.5 -30t-76 30t-31 79zM403 1848v135h437v-135h-437zM686 1649 q0 49 30.5 79t76.5 30q45 0 75.5 -30t30.5 -79t-30.5 -79t-75.5 -30t-76 30t-31 79z" />
<glyph unicode="&#x22b;" horiz-adv-x="948" d="M98 537q0 125 22.5 229t69 179t118 116t167.5 41t167 -41t117 -116t68.5 -179t22.5 -229q0 -127 -22.5 -230.5t-68.5 -177.5t-117 -115t-167 -41t-167.5 41t-118 115t-69 177.5t-22.5 230.5zM199 1321q0 49 30.5 79t76.5 30q45 0 75.5 -30t30.5 -79t-30.5 -79t-75.5 -30 t-76 30t-31 79zM256 1520v135h437v-135h-437zM283 537q0 -90 10 -165t33.5 -128.5t59.5 -83t89 -29.5q51 0 88 29.5t59.5 83t33 128.5t10.5 165t-10.5 164.5t-33 129t-59.5 84t-88 29.5q-53 0 -89 -29.5t-59.5 -84t-33.5 -129t-10 -164.5zM539 1321q0 49 30.5 79t76.5 30 q45 0 75.5 -30t30.5 -79t-30.5 -79t-75.5 -30t-76 30t-31 79z" />
<glyph unicode="&#x22c;" horiz-adv-x="1239" d="M115 709q0 166 30.5 303t93 234t158 151.5t224.5 54.5t224 -54.5t157.5 -151.5t92 -234t29.5 -303t-29.5 -302.5t-92 -233.5t-157.5 -150.5t-224 -53.5t-224.5 53.5t-158 150.5t-93 233.5t-30.5 302.5zM311 709q0 -129 17.5 -235.5t54.5 -182.5t95.5 -118t142.5 -42 t142 42t95 118t53.5 182.5t16.5 235.5t-16.5 235.5t-53.5 183t-95 119.5t-142 43t-142.5 -43t-95.5 -119.5t-54.5 -183t-17.5 -235.5zM358 1565q16 98 57.5 150t100.5 52q37 0 65.5 -14t53 -32.5t45 -33t43.5 -14.5q18 0 31.5 20.5t25.5 73.5l103 -34q-18 -98 -58.5 -150.5 t-99.5 -52.5q-35 0 -64.5 14.5t-54 32.5t-46 32.5t-42.5 14.5q-18 0 -31.5 -20.5t-25.5 -73.5zM401 1858v135h437v-135h-437z" />
<glyph unicode="&#x22d;" horiz-adv-x="948" d="M98 537q0 125 22.5 229t69 179t118 116t167.5 41t167 -41t117 -116t68.5 -179t22.5 -229q0 -127 -22.5 -230.5t-68.5 -177.5t-117 -115t-167 -41t-167.5 41t-118 115t-69 177.5t-22.5 230.5zM213 1257q16 98 57 150.5t101 52.5q37 0 65.5 -14t53 -32.5t45 -33t43.5 -14.5 q18 0 31.5 20.5t25.5 73.5l102 -35q-18 -98 -58 -150t-99 -52q-35 0 -65 14t-54.5 32.5t-46 33t-41.5 14.5q-18 0 -31.5 -20.5t-26.5 -73.5zM256 1550v136h436v-136h-436zM283 537q0 -90 10 -165t33.5 -128.5t59.5 -83t89 -29.5q51 0 88 29.5t59.5 83t33 128.5t10.5 165 t-10.5 164.5t-33 129t-59.5 84t-88 29.5q-53 0 -89 -29.5t-59.5 -84t-33.5 -129t-10 -164.5z" />
<glyph unicode="&#x22e;" horiz-adv-x="1239" d="M115 709q0 166 30.5 303t93 234t158 151.5t224.5 54.5t224 -54.5t157.5 -151.5t92 -234t29.5 -303t-29.5 -302.5t-92 -233.5t-157.5 -150.5t-224 -53.5t-224.5 53.5t-158 150.5t-93 233.5t-30.5 302.5zM311 709q0 -129 17.5 -235.5t54.5 -182.5t95.5 -118t142.5 -42 t142 42t95 118t53.5 182.5t16.5 235.5t-16.5 235.5t-53.5 183t-95 119.5t-142 43t-142.5 -43t-95.5 -119.5t-54.5 -183t-17.5 -235.5zM508 1726q0 53 33.5 85t81.5 32q47 0 80.5 -31.5t33.5 -85.5q0 -53 -33.5 -84.5t-80.5 -31.5t-81 31.5t-34 84.5z" />
<glyph unicode="&#x22f;" horiz-adv-x="948" d="M98 537q0 125 22.5 229t69 179t118 116t167.5 41t167 -41t117 -116t68.5 -179t22.5 -229q0 -127 -22.5 -230.5t-68.5 -177.5t-117 -115t-167 -41t-167.5 41t-118 115t-69 177.5t-22.5 230.5zM283 537q0 -90 10 -165t33.5 -128.5t59.5 -83t89 -29.5q51 0 88 29.5t59.5 83 t33 128.5t10.5 165t-10.5 164.5t-33 129t-59.5 84t-88 29.5q-53 0 -89 -29.5t-59.5 -84t-33.5 -129t-10 -164.5zM361 1382q0 53 33.5 85t81.5 32q47 0 80.5 -31.5t33.5 -85.5q0 -53 -33.5 -84.5t-80.5 -31.5t-81 31.5t-34 84.5z" />
<glyph unicode="&#x230;" horiz-adv-x="1239" d="M115 709q0 166 30.5 303t93 234t158 151.5t224.5 54.5t224 -54.5t157.5 -151.5t92 -234t29.5 -303t-29.5 -302.5t-92 -233.5t-157.5 -150.5t-224 -53.5t-224.5 53.5t-158 150.5t-93 233.5t-30.5 302.5zM311 709q0 -129 17.5 -235.5t54.5 -182.5t95.5 -118t142.5 -42 t142 42t95 118t53.5 182.5t16.5 235.5t-16.5 235.5t-53.5 183t-95 119.5t-142 43t-142.5 -43t-95.5 -119.5t-54.5 -183t-17.5 -235.5zM405 1848v135h437v-135h-437zM510 1655q0 53 33.5 85t81.5 32q47 0 80.5 -32t33.5 -85t-33.5 -85t-80.5 -32t-81 32t-34 85z" />
<glyph unicode="&#x2c6;" horiz-adv-x="643" d="M86 1262l236 311l235 -311l-86 -72l-149 174l-150 -174z" />
<glyph unicode="&#x2c7;" horiz-adv-x="643" d="M86 1501l86 72l150 -174l149 174l86 -72l-235 -311z" />
<glyph unicode="&#x2d8;" horiz-adv-x="643" d="M86 1544h119q4 -68 27.5 -117t89.5 -49t89 49.5t27 116.5h119q0 -135 -61 -209.5t-174 -74.5q-115 0 -175.5 74.5t-60.5 209.5z" />
<glyph unicode="&#x2d9;" horiz-adv-x="643" d="M207 1382q0 53 33.5 85t81.5 32q47 0 80.5 -31.5t33.5 -85.5q0 -53 -33.5 -84.5t-80.5 -31.5t-81 31.5t-34 84.5z" />
<glyph unicode="&#x2da;" horiz-adv-x="643" d="M147 1397q0 80 51.5 127t123.5 47t123 -47t51 -127t-51.5 -127t-122.5 -47q-72 0 -123.5 47t-51.5 127zM240 1397q0 -41 23.5 -62.5t58.5 -21.5t58 21.5t23 62.5t-23.5 62.5t-57.5 21.5q-35 0 -58.5 -21.5t-23.5 -62.5z" />
<glyph unicode="&#x2db;" horiz-adv-x="643" d="M156 -211q0 68 38.5 122t108.5 105h180q-80 -47 -124 -91t-44 -91q0 -43 26 -61.5t62 -18.5q39 0 74 15l10 -129q-57 -23 -127 -23q-90 0 -147 46t-57 126z" />
<glyph unicode="&#x2dc;" horiz-adv-x="643" d="M59 1309q16 98 57.5 150t100.5 52q37 0 65.5 -14t53 -32.5t45 -33t43.5 -14.5q18 0 31.5 20.5t25.5 73.5l103 -34q-18 -98 -58.5 -150.5t-99.5 -52.5q-35 0 -64.5 14.5t-54 32.5t-46 32.5t-42.5 14.5q-18 0 -31.5 -20.5t-25.5 -73.5z" />
<glyph unicode="&#x2dd;" horiz-adv-x="643" d="M80 1257l196 349l127 -84l-229 -322zM360 1257l197 349l127 -84l-229 -322z" />
<glyph unicode="&#x3a9;" horiz-adv-x="1251" d="M102 0v156h232q-37 51 -74 118.5t-66.5 147.5t-48 172t-18.5 190q0 162 36 288t101.5 211t157.5 129t205 44q111 0 203 -44t157.5 -129t101 -211t35.5 -288q0 -98 -18.5 -190t-48 -172t-66.5 -147.5t-73 -118.5h231v-156h-440v121q45 61 85 134t70.5 155t48 173t17.5 191 q0 139 -23.5 238.5t-63.5 162t-96.5 91t-119.5 28.5q-66 0 -121 -28.5t-96 -91t-64.5 -162t-23.5 -238.5q0 -203 63.5 -365.5t157.5 -287.5v-121h-441z" />
<glyph unicode="&#x3c0;" horiz-adv-x="980" d="M160 0v1075h661v-1075h-176v924h-309v-924h-176z" />
<glyph unicode="&#x1e80;" horiz-adv-x="1548" d="M82 1419h186q12 -164 30.5 -326.5t40 -317t44.5 -295t47 -255.5q31 104 65.5 231.5t68.5 262.5t64.5 272t57.5 260h182q27 -123 57.5 -260t64.5 -272t69 -262t65 -232q25 115 47.5 255.5t44 294t40 317t30.5 327.5h180q-47 -412 -105 -758t-136 -661h-187 q-31 100 -66.5 223t-70.5 255t-67.5 267.5t-59.5 262.5q-27 -127 -59.5 -262.5t-67.5 -267.5t-70.5 -255t-66.5 -223h-186q-78 315 -136.5 661.5t-105.5 757.5zM530 1794l125 106l242 -325l-88 -76z" />
<glyph unicode="&#x1e81;" horiz-adv-x="1173" d="M41 1075h174q8 -88 24.5 -205.5t36 -241.5t40 -240t38.5 -198q18 82 42 201t47.5 244t44 242.5t32.5 197.5h166q8 -80 25.5 -196.5t37 -242.5t40 -245t36.5 -201q18 82 39 199t40.5 240t35.5 240.5t25 205.5h168q-47 -315 -103.5 -589.5t-120.5 -485.5h-172 q-16 63 -35.5 162.5t-39 212t-36 226.5t-28.5 208q-12 -94 -32.5 -208t-43 -226.5t-44.5 -212t-36 -162.5h-178q-63 211 -119.5 485.5t-103.5 589.5zM321 1487l125 106l242 -325l-88 -76z" />
<glyph unicode="&#x1e82;" horiz-adv-x="1548" d="M82 1419h186q12 -164 30.5 -326.5t40 -317t44.5 -295t47 -255.5q31 104 65.5 231.5t68.5 262.5t64.5 272t57.5 260h182q27 -123 57.5 -260t64.5 -272t69 -262t65 -232q25 115 47.5 255.5t44 294t40 317t30.5 327.5h180q-47 -412 -105 -758t-136 -661h-187 q-31 100 -66.5 223t-70.5 255t-67.5 267.5t-59.5 262.5q-27 -127 -59.5 -262.5t-67.5 -267.5t-70.5 -255t-66.5 -223h-186q-78 315 -136.5 661.5t-105.5 757.5zM668 1575l242 325l125 -106l-279 -295z" />
<glyph unicode="&#x1e83;" horiz-adv-x="1173" d="M41 1075h174q8 -88 24.5 -205.5t36 -241.5t40 -240t38.5 -198q18 82 42 201t47.5 244t44 242.5t32.5 197.5h166q8 -80 25.5 -196.5t37 -242.5t40 -245t36.5 -201q18 82 39 199t40.5 240t35.5 240.5t25 205.5h168q-47 -315 -103.5 -589.5t-120.5 -485.5h-172 q-16 63 -35.5 162.5t-39 212t-36 226.5t-28.5 208q-12 -94 -32.5 -208t-43 -226.5t-44.5 -212t-36 -162.5h-178q-63 211 -119.5 485.5t-103.5 589.5zM485 1268l242 325l125 -106l-279 -295z" />
<glyph unicode="&#x1e84;" horiz-adv-x="1548" d="M82 1419h186q12 -164 30.5 -326.5t40 -317t44.5 -295t47 -255.5q31 104 65.5 231.5t68.5 262.5t64.5 272t57.5 260h182q27 -123 57.5 -260t64.5 -272t69 -262t65 -232q25 115 47.5 255.5t44 294t40 317t30.5 327.5h180q-47 -412 -105 -758t-136 -661h-187 q-31 100 -66.5 223t-70.5 255t-67.5 267.5t-59.5 262.5q-27 -127 -59.5 -262.5t-67.5 -267.5t-70.5 -255t-66.5 -223h-186q-78 315 -136.5 661.5t-105.5 757.5zM490 1689q0 53 33.5 85t81.5 32q47 0 80.5 -31.5t33.5 -85.5q0 -53 -33.5 -84.5t-80.5 -31.5t-81 31.5t-34 84.5 zM830 1689q0 53 33.5 85t81.5 32q47 0 80.5 -31.5t33.5 -85.5q0 -53 -33.5 -84.5t-80.5 -31.5t-81 31.5t-34 84.5z" />
<glyph unicode="&#x1e85;" horiz-adv-x="1173" d="M41 1075h174q8 -88 24.5 -205.5t36 -241.5t40 -240t38.5 -198q18 82 42 201t47.5 244t44 242.5t32.5 197.5h166q8 -80 25.5 -196.5t37 -242.5t40 -245t36.5 -201q18 82 39 199t40.5 240t35.5 240.5t25 205.5h168q-47 -315 -103.5 -589.5t-120.5 -485.5h-172 q-16 63 -35.5 162.5t-39 212t-36 226.5t-28.5 208q-12 -94 -32.5 -208t-43 -226.5t-44.5 -212t-36 -162.5h-178q-63 211 -119.5 485.5t-103.5 589.5zM301 1382q0 53 33.5 85t81.5 32q47 0 80.5 -31.5t33.5 -85.5q0 -53 -33.5 -84.5t-80.5 -31.5t-81 31.5t-34 84.5zM641 1382 q0 53 33.5 85t81.5 32q47 0 80.5 -31.5t33.5 -85.5q0 -53 -33.5 -84.5t-80.5 -31.5t-81 31.5t-34 84.5z" />
<glyph unicode="&#x1ef2;" horiz-adv-x="923" d="M6 1419h199q53 -162 120.5 -342t139.5 -336q72 156 139.5 336t120.5 342h193q-35 -96 -77 -204.5t-89 -220t-96.5 -222t-98.5 -211.5v-561h-184v549q-49 100 -100.5 212.5t-98.5 225.5t-90 223.5t-78 208.5zM196 1794l125 106l242 -325l-88 -76z" />
<glyph unicode="&#x1ef3;" horiz-adv-x="811" d="M2 -356l33 143q53 -23 100 -23q59 0 96 43t72 130l21 51q-39 106 -79 236t-78 271.5t-73 290t-63 289.5h186q16 -96 39 -210.5t48.5 -229.5t52 -222.5t51.5 -189.5q59 205 108 412t94 440h174q-31 -150 -66.5 -295t-73.5 -280t-76 -255t-70 -218q-39 -115 -75 -194 t-78 -127t-91 -69.5t-117 -21.5q-37 0 -73.5 9t-61.5 20zM139 1487l125 106l242 -325l-88 -76z" />
<glyph unicode="&#x2000;" horiz-adv-x="996" />
<glyph unicode="&#x2001;" horiz-adv-x="1993" />
<glyph unicode="&#x2002;" horiz-adv-x="996" />
<glyph unicode="&#x2003;" horiz-adv-x="1993" />
<glyph unicode="&#x2004;" horiz-adv-x="664" />
<glyph unicode="&#x2005;" horiz-adv-x="498" />
<glyph unicode="&#x2006;" horiz-adv-x="332" />
<glyph unicode="&#x2007;" horiz-adv-x="332" />
<glyph unicode="&#x2008;" horiz-adv-x="249" />
<glyph unicode="&#x2009;" horiz-adv-x="398" />
<glyph unicode="&#x200a;" horiz-adv-x="110" />
<glyph unicode="&#x2010;" horiz-adv-x="477" d="M49 530v166h379v-166h-379z" />
<glyph unicode="&#x2011;" horiz-adv-x="477" d="M49 530v166h379v-166h-379z" />
<glyph unicode="&#x2012;" horiz-adv-x="477" d="M49 530v166h379v-166h-379z" />
<glyph unicode="&#x2013;" horiz-adv-x="751" d="M-8 541v149h768v-149h-768z" />
<glyph unicode="&#x2014;" horiz-adv-x="1519" d="M-8 541v149h1536v-149h-1536z" />
<glyph unicode="&#x2015;" horiz-adv-x="1519" d="M-8 541v149h1536v-149h-1536z" />
<glyph unicode="&#x2018;" horiz-adv-x="456" d="M115 1093.5v28.5q0 117 36.5 223.5t100.5 206.5l125 -36q-51 -92 -67.5 -186.5t-16.5 -178.5q0 -23 1 -44.5t3 -41.5h-180q-2 16 -2 28.5z" />
<glyph unicode="&#x2019;" horiz-adv-x="456" d="M80 1085q51 92 67.5 186.5t16.5 178.5q0 23 -1 44.5t-3 41.5h180q2 -16 2 -28.5v-28.5q0 -117 -37 -223.5t-100 -206.5z" />
<glyph unicode="&#x201a;" horiz-adv-x="456" d="M70 -217q51 92 67.5 186t16.5 178q0 23 -1 44.5t-3 41.5h180q2 -16 2 -28v-29q0 -117 -37 -223.5t-100 -206.5z" />
<glyph unicode="&#x201c;" horiz-adv-x="802" d="M125 1093.5v28.5q0 117 36.5 223.5t100.5 206.5l125 -36q-51 -92 -67.5 -186.5t-16.5 -178.5q0 -23 1 -44.5t3 -41.5h-180q-2 16 -2 28.5zM471 1093.5v28.5q0 117 36.5 223.5t100.5 206.5l125 -36q-51 -92 -67.5 -186.5t-16.5 -178.5q0 -23 1 -44.5t3 -41.5h-180 q-2 16 -2 28.5z" />
<glyph unicode="&#x201d;" horiz-adv-x="800" d="M80 1085q51 92 67.5 186.5t16.5 178.5q0 23 -1 44.5t-3 41.5h180q2 -16 2 -28.5v-28.5q0 -117 -37 -223.5t-100 -206.5zM424 1085q51 92 67.5 186.5t16.5 178.5q0 23 -1 44.5t-3 41.5h180q2 -16 2 -28.5v-28.5q0 -117 -37 -223.5t-100 -206.5z" />
<glyph unicode="&#x201e;" horiz-adv-x="800" d="M70 -217q51 92 67.5 186t16.5 178q0 23 -1 44.5t-3 41.5h180q2 -16 2 -28v-29q0 -117 -37 -223.5t-100 -206.5zM414 -217q51 92 67.5 186t16.5 178q0 23 -1 44.5t-3 41.5h180q2 -16 2 -28v-29q0 -117 -37 -223.5t-100 -206.5z" />
<glyph unicode="&#x2020;" horiz-adv-x="786" d="M76 825v148h241v446h152v-446h242v-148h-242v-534q0 -174 -5 -312.5t-20 -275.5h-102q-12 139 -18.5 276.5t-6.5 311.5v534h-241z" />
<glyph unicode="&#x2021;" horiz-adv-x="786" d="M76 276v148h241v401h-241v148h241v446h152v-446h242v-148h-242v-401h242v-148h-242q0 -84 -1 -158.5t-4 -144t-8 -136t-12 -134.5h-102q-6 68 -11 134.5t-8.5 136t-4.5 144.5t-1 158h-241z" />
<glyph unicode="&#x2022;" horiz-adv-x="671" d="M102 723q0 47 16.5 89t47.5 74t74 50t96 18t96 -18t74 -50t47 -74t16 -89t-16 -89t-47 -74t-74 -50t-96 -18t-96 18t-74 50t-47.5 74t-16.5 89z" />
<glyph unicode="&#x2026;" horiz-adv-x="1673" d="M41 94q0 49 32.5 86t88.5 37q55 0 88.5 -37t33.5 -86q0 -47 -33.5 -84t-88.5 -37t-88 37t-33 84zM668 94q0 49 32.5 86t88.5 37q55 0 88.5 -37t33.5 -86q0 -47 -33.5 -84t-88.5 -37t-88 37t-33 84zM1297 94q0 49 32.5 86t88.5 37q55 0 88.5 -37t33.5 -86q0 -47 -33.5 -84 t-88.5 -37t-88 37t-33 84z" />
<glyph unicode="&#x202f;" horiz-adv-x="398" />
<glyph unicode="&#x2030;" horiz-adv-x="1880" d="M98 1071q0 184 60.5 280.5t179.5 96.5t179.5 -96.5t60.5 -280.5t-60.5 -280.5t-179.5 -96.5t-179.5 96.5t-60.5 280.5zM248 1071q0 -137 22.5 -192.5t67.5 -55.5t67.5 55.5t22.5 192.5t-22.5 192.5t-67.5 55.5t-67.5 -55.5t-22.5 -192.5zM289 0l571 1419h160l-571 -1419 h-160zM743 346q0 184 60.5 280.5t179.5 96.5t179.5 -96.5t60.5 -280.5t-60.5 -280.5t-179.5 -96.5t-179.5 96.5t-60.5 280.5zM893 346q0 -137 22.5 -192.5t67.5 -55.5t67.5 55.5t22.5 192.5t-22.5 192.5t-67.5 55.5t-67.5 -55.5t-22.5 -192.5zM1303 346q0 184 60 280.5 t179 96.5t179.5 -96.5t60.5 -280.5t-60.5 -280.5t-179.5 -96.5t-179 96.5t-60 280.5zM1452 346q0 -137 22.5 -192.5t67.5 -55.5t67.5 55.5t22.5 192.5t-22.5 192.5t-67.5 55.5t-67.5 -55.5t-22.5 -192.5z" />
<glyph unicode="&#x2039;" horiz-adv-x="540" d="M57 582l262 452l136 -59l-193 -393l193 -394l-136 -59z" />
<glyph unicode="&#x203a;" horiz-adv-x="540" d="M86 188l193 394l-193 393l135 59l262 -452l-262 -453z" />
<glyph unicode="&#x2044;" horiz-adv-x="278" d="M-231 0l579 1419h154l-580 -1419h-153z" />
<glyph unicode="&#x205f;" horiz-adv-x="498" />
<glyph unicode="&#x20ac;" d="M55 481v135h156q-2 23 -2 44.5v46.5v55t2 53h-156v135h168q18 147 57 243.5t93.5 154t120 80t137.5 22.5q61 0 112.5 -17.5t94.5 -46.5l-56 -141q-29 18 -64.5 33.5t-82.5 15.5q-104 0 -158.5 -85t-73.5 -259h312l-27 -135h-293q-2 -27 -2 -53.5v-54.5v-91h254l-26 -135 h-218q20 -193 82 -273.5t170 -80.5q43 0 84 11.5t76 29.5l33 -141q-27 -16 -85 -35t-120 -19q-88 0 -159.5 28t-125 89.5t-89.5 157.5t-50 233h-164z" />
<glyph unicode="&#x20ae;" d="M33 1268v151h815v-151h-320v-320l185 96l61 -120l-246 -127v-226l185 97l61 -121l-246 -127v-420h-176v330l-184 -94l-62 120l246 125v226l-184 -95l-62 121l246 125v410h-319z" />
<glyph unicode="&#x20b4;" d="M45 467v125h156q51 74 119.5 126t132.5 105h-408v125h516q16 29 25.5 61.5t9.5 73.5q0 98 -55.5 155.5t-141.5 57.5q-45 0 -90 -14t-82 -33l-55 140q109 63 238 63q82 0 148.5 -27.5t113.5 -77t72.5 -118t25.5 -150.5q0 -39 -5 -70.5t-15 -60.5h88v-125h-160 q-57 -68 -131 -120t-133 -111h424v-125h-508q-18 -53 -19 -115q0 -109 59.5 -168t147.5 -59q43 0 93.5 13.5t90.5 39.5l54 -139q-59 -35 -124 -52.5t-130 -17.5q-88 0 -157 28t-117 78t-73.5 119.5t-25.5 153.5q0 68 14 119h-98z" />
<glyph unicode="&#x20b9;" d="M106 553v152h87q129 0 214 49t103 170h-404v147h402q-16 86 -74.5 143.5t-171.5 57.5h-156v147h785l-29 -147h-284q47 -39 72.5 -90.5t35.5 -110.5h137l-28 -147h-107q-20 -166 -124.5 -251t-256.5 -110q39 -49 88 -115.5t99.5 -142.5t96.5 -154.5t79 -150.5h-185 q-33 61 -81 137t-100 152t-104.5 145.5t-93.5 118.5z" />
<glyph unicode="&#x2122;" horiz-adv-x="1284" d="M47 1307v116h459v-116h-164v-562h-131v562h-164zM545 745q4 166 14 336t27 342h153q12 -37 28.5 -90t33 -111.5t34 -116.5t29.5 -110q12 51 29.5 109.5t34 117t33 111.5t28.5 90h154q16 -172 26.5 -342t14.5 -336h-123q-4 145 -10.5 281.5t-10.5 241.5 q-16 -43 -34.5 -99.5t-36 -116t-31.5 -116.5t-23 -102h-102q-10 45 -25.5 102t-32 115.5t-35 115t-32.5 99.5q-4 -102 -10 -238.5t-10 -282.5h-123z" />
<glyph unicode="&#x2202;" horiz-adv-x="946" d="M80 442q0 274 101.5 426t279.5 152q59 0 112.5 -20.5t94.5 -55.5q-6 111 -26.5 202t-57.5 154.5t-91.5 98.5t-127.5 35q-45 0 -87 -11.5t-79 -27.5l-35 149q102 45 213 45q141 0 231 -62.5t142.5 -167t73 -241.5t20.5 -287q0 -180 -20.5 -336.5t-69.5 -272.5t-129 -182.5 t-199 -66.5q-172 0 -259 120t-87 349zM250 446q0 -319 176 -319q68 0 114 64.5t73.5 162t41 210t15.5 210.5q-35 47 -80 76t-105 29q-63 0 -107 -37t-73 -98.5t-42 -139.5t-13 -158z" />
<glyph unicode="&#x2206;" horiz-adv-x="1052" d="M41 0q49 217 95 403.5t93 356.5t98.5 331.5t108.5 331.5h185q57 -170 107 -331.5t97 -331.5t92.5 -356.5t94.5 -403.5h-971zM246 160h555q-41 178 -81 336.5t-76 291t-66.5 234.5t-53.5 168q-23 -68 -53.5 -170t-67 -234.5t-77.5 -290t-80 -335.5z" />
<glyph unicode="&#x220f;" horiz-adv-x="1136" d="M172 -223v1642h793v-1642h-185v1483h-424v-1483h-184z" />
<glyph unicode="&#x2211;" horiz-adv-x="802" d="M35 -100q72 182 155.5 361t182.5 360q-88 160 -174 333.5t-158 350.5v114h731v-159h-532q72 -168 149.5 -327t169.5 -315q-94 -168 -177 -336.5t-153 -344.5h543v-160h-737v123z" />
<glyph unicode="&#x221a;" horiz-adv-x="921" d="M37 743l299 76q43 -135 83 -290.5t79 -329.5l260 1405h174l-320 -1635h-221q-20 98 -41.5 185.5t-43 170.5t-45 162.5t-50.5 161.5l-137 -35z" />
<glyph unicode="&#x221e;" d="M33 612q0 86 21.5 141.5t53 89.5t68.5 47t68 13q82 0 124.5 -40t71.5 -93q29 53 72 93t125 40q31 0 67.5 -13t68.5 -47t53.5 -89.5t21.5 -141.5t-21.5 -141t-53.5 -89t-68.5 -47t-67.5 -13q-82 0 -125 39.5t-72 93.5q-29 -53 -71.5 -93t-124.5 -40q-31 0 -68 13t-68.5 47 t-53 89t-21.5 141zM170 612q0 -86 26.5 -127t67.5 -41q35 0 65.5 35t49.5 133q-18 98 -49 133t-66 35q-41 0 -67.5 -41t-26.5 -127zM502 612q18 -98 49 -133t65 -35q41 0 68 41t27 127t-27 127t-68 41q-35 0 -65.5 -34.5t-48.5 -133.5z" />
<glyph unicode="&#x222b;" horiz-adv-x="598" d="M12 -223h35q88 0 126 61.5t38 177.5v1180q0 180 79 286.5t238 106.5h27.5t30.5 -2v-151h-35q-88 0 -131 -61.5t-33 -178.5v-1180q0 -180 -79 -287.5t-240 -107.5q-12 0 -26.5 1t-29.5 3v152z" />
<glyph unicode="&#x2248;" d="M51 316q6 45 21.5 93t43 87t70 64.5t101.5 25.5q55 0 98 -23.5t79 -53t67.5 -53.5t66.5 -24q49 0 71.5 41t39.5 107l120 -37q-6 -45 -21 -93t-43 -87t-70 -64.5t-103 -25.5q-55 0 -97 23.5t-78 53t-69 53t-65 23.5q-43 0 -69 -41t-42 -106zM51 711q6 45 21.5 93t43 87 t70 64.5t101.5 25.5q55 0 98 -23.5t79 -53t67.5 -53.5t66.5 -24q49 0 71.5 41t39.5 107l120 -37q-6 -45 -21 -93t-43 -87t-70 -64.5t-103 -25.5q-55 0 -97 23.5t-78 53t-69 53t-65 23.5q-43 0 -69 -41t-42 -106z" />
<glyph unicode="&#x2260;" d="M88 340v149h223l92 246h-315v150h373l90 237l143 -53l-69 -184h168v-150h-226l-94 -246h320v-149h-375l-92 -242l-142 54l70 188h-166z" />
<glyph unicode="&#x2264;" d="M88 0v150h705v-150h-705zM88 608v148l625 325l69 -137l-532 -262l532 -262l-69 -137z" />
<glyph unicode="&#x2265;" d="M88 0v150h705v-150h-705zM98 420l531 262l-531 262l70 137l625 -325v-148l-625 -325z" />
<glyph unicode="&#x25ca;" horiz-adv-x="872" d="M57 711q84 186 176.5 372.5t192.5 372.5h20q100 -188 192.5 -373.5t176.5 -371.5q-84 -186 -176 -371.5t-193 -374.5h-20q-98 188 -193.5 374t-175.5 372zM221 711q53 -113 106.5 -222.5t108.5 -218.5q53 109 107.5 218.5t107.5 222.5q-53 113 -107.5 221t-107.5 217 q-55 -109 -108.5 -217.5t-106.5 -220.5z" />
<glyph unicode="&#xe000;" horiz-adv-x="1075" d="M0 0v1075h1075v-1075h-1075z" />
</font>
</defs>
</svg>
