<?xml version="1.0" standalone="no"?>
<!DOCTYPE svg PUBLIC "-//W3C//DTD SVG 1.1//EN" "http://www.w3.org/Graphics/SVG/1.1/DTD/svg11.dtd" >
<svg xmlns="http://www.w3.org/2000/svg">
<metadata></metadata>
<defs>
<font id="andadaregular" horiz-adv-x="1146" >
<font-face units-per-em="2048" ascent="1638" descent="-410" />
<missing-glyph horiz-adv-x="471" />
<glyph unicode="&#xfb01;" horiz-adv-x="1228" d="M53 987q20 6 58 17q80 25 106 43v176q0 164 93 259t268 95q45 0 90 -9t59 -12l-22 -276l-109 6v74q0 29 -27 108q-125 -4 -159 -92q-27 -72 -27 -217l4 -147h535q43 0 61 2l33 4l12 -12l-8 -129q-6 -72 -6 -207v-328q0 -109 6 -152l8 -73l160 -13l-12 -112l-99 4 q-115 4 -185.5 4t-135.5 -4l-54 -4l-10 104l135 21q2 18 11.5 70.5t9.5 93.5v432q0 31 -9.5 83t-11.5 81l-155 24h-289v-559q0 -109 6 -152l8 -73l160 -13l-12 -112l-90 4q-111 4 -188 4t-142 -4l-53 -4l-11 104l136 21q2 18 11 70.5t9 93.5v620h-158zM791 1341.5 q0 61.5 30.5 97.5t89 36t90 -35t31.5 -97.5t-30.5 -97.5t-90 -35t-90 35t-30.5 96.5z" />
<glyph unicode="&#xfb02;" horiz-adv-x="1232" d="M53 987q20 6 58 17q79 25 106 43v176q0 164 93 259t268 95q66 0 173 -14.5t153 -14.5t83 4l33 4l12 -12l-8 -129q-6 -72 -6 -207v-866q0 -109 6 -152l8 -73l160 -13l-12 -112l-99 4q-119 4 -188.5 4t-134.5 -4l-56 -4l-10 104l135 21q2 18 11.5 70.5t9.5 93.5v989 q0 31 -9.5 83t-11.5 81l-92 16q-115 18 -164 18t-85.5 -15t-57 -38.5t-31.5 -68.5q-14 -63 -14 -187l4 -147h283l-11 -111h-276v-559q0 -109 6 -152l8 -73l160 -13l-12 -112l-90 4q-111 4 -188 4t-142 -4l-53 -4l-11 104l136 21q2 18 11 70.5t9 93.5v620h-158z" />
<glyph horiz-adv-x="2048" />
<glyph horiz-adv-x="2048" />
<glyph unicode="&#xd;" horiz-adv-x="681" />
<glyph unicode=" "  horiz-adv-x="471" />
<glyph unicode="&#x09;" horiz-adv-x="471" />
<glyph unicode="&#xa0;" horiz-adv-x="471" />
<glyph unicode="!" horiz-adv-x="468" d="M143 111.5q0 62.5 31 97.5t90.5 35t90 -35t30.5 -96.5t-30.5 -97t-89 -35.5t-90.5 34.5t-32 97zM172 1460l8 6q8 -2 23 -2h39q39 0 88 4l43 7l14 -15q-53 -586 -53 -891q0 -76 2 -110l4 -64l-14 -12l-25 4q-29 4 -53 4l-43 -2q-6 -2 -19 -2l-8 6v43l2 88z" />
<glyph unicode="&#x22;" horiz-adv-x="612" d="M72 1548h182l-27 -497l-118 6l2 192q-10 92 -21 164zM358 1548h183l-27 -497l-119 6l2 192q-10 92 -20 164z" />
<glyph unicode="#" d="M45 307v135l264 2l39 248l-262 -2v146h285l53 335l123 -20l-51 -315h227l53 335l123 -20l-51 -315h252v-136l-273 -4l-39 -247l271 4v-146h-293l-53 -338l-123 21l49 317h-225l-54 -338l-122 21l49 317h-242zM434 446l228 3l38 247l-227 -2z" />
<glyph unicode="$" horiz-adv-x="1046" d="M92 80l31 307l127 -12l-2 -111q0 -16 20 -119q96 -39 197 -47l20 500l-61 29q-143 66 -233.5 154.5t-90.5 240.5t114 242t298 90h4l8 200l70 -6l-8 -198q113 -10 301 -58l-31 -295l-111 13l3 96q0 20 -27 100q-68 27 -139 37l-21 -467l60 -31q82 -45 122.5 -71.5 t100.5 -77.5q111 -98 110.5 -260t-119 -257t-305.5 -99l-6 -168l-71 6l6 164q-213 12 -367 98zM291 1055q0 -86 52 -139.5t151 -104.5l18 436h-6q-94 0 -154.5 -53t-60.5 -139zM535 98q102 8 160.5 65.5t58.5 148.5t-51.5 145.5t-149.5 105.5z" />
<glyph unicode="%" horiz-adv-x="1607" d="M84 1008.5q0 154.5 82 255t225.5 100.5t225 -100t81.5 -254v-2q0 -154 -81.5 -254.5t-225 -100.5t-225.5 100.5t-82 255zM238 1008.5q0 -103.5 35.5 -175t117.5 -71.5q154 0 154 248q0 102 -36 173.5t-118 71.5t-117.5 -71.5t-35.5 -175zM295 -35l889 1512l102 -66 l-887 -1511zM866 332.5q0 154.5 82 255t225.5 100.5t225.5 -100t82 -254v-2q0 -154 -82 -254.5t-225.5 -100.5t-225.5 100.5t-82 255zM1020 332.5q0 -103.5 36 -175t118 -71.5q154 0 153 248q0 102 -36 174t-117.5 72t-117.5 -72t-36 -175.5z" />
<glyph unicode="&#x26;" horiz-adv-x="1484" d="M102 389q0 252 256 402q-109 154 -108.5 290t102 205.5t261 69.5t333.5 -64l-26 -286l-113 6q0 27 2 41l2 53q0 18 -9 51t-11 47q-70 51 -162 51t-145.5 -50t-53.5 -136q0 -129 146.5 -301t406.5 -408q33 86 33 211q0 31 -9.5 67t-11.5 56l-137 19l10 108l43 -6 q53 -4 144.5 -4t244.5 20l11 -112l-150 -25l-6 -35q-6 -37 -6 -112q0 -150 -66 -277l62 -57q10 -10 131 -98l147 -11l-12 -112l-53 4q-70 4 -123 4t-90 -4l-35 -4l-43 78l-76 73q-164 -164 -426 -163q-197 0 -330 111.5t-133 297.5zM285 403q0 -129 78.5 -215t203.5 -86 q219 0 336 127q-326 299 -471 463q-147 -113 -147 -289z" />
<glyph unicode="'" horiz-adv-x="325" d="M72 1548h182l-27 -497l-118 6l2 192q-10 92 -21 164z" />
<glyph unicode="(" horiz-adv-x="555" d="M102 649.5q0 558.5 367 925.5l66 -53q-43 -61 -87.5 -128t-56.5 -102q-121 -323 -121 -642.5t121 -643.5q12 -35 56.5 -101.5t87.5 -127.5l-66 -53q-367 367 -367 925.5z" />
<glyph unicode=")" horiz-adv-x="555" d="M23 -223l65 98q70 109 78 131q121 324 121 643.5t-121 642.5q-8 23 -78 131l-65 99l65 53q367 -367 367 -926t-367 -925z" />
<glyph unicode="*" horiz-adv-x="837" d="M72 1341l65 158l35 12l211 -174l-8 115q-10 37 -39 94l-31 62l170 22l27 -24l-43 -271l94 66q8 6 61 80l39 57l105 -135l-6 -37l-258 -98l104 -47q29 -10 98 -15l70 -4l-66 -158l-34 -12l-213 172l10 -112q10 -37 39 -95l30 -61l-170 -23l-26 25l43 270l-94 -65 q-14 -12 -64 -80l-37 -57l-104 135l6 37l256 96l-102 49q-41 10 -101 14z" />
<glyph unicode="+" d="M45 446v154h451v447h143l4 -447h457v-143l-457 -6l6 -451h-153v451z" />
<glyph unicode="," horiz-adv-x="450" d="M70 -213q145 64 145 193q-53 4 -83 45t-30 100t34 99t93 40q129 0 129 -182q0 -123 -70.5 -228.5t-197.5 -132.5z" />
<glyph unicode="-" horiz-adv-x="577" d="M61 596h455l-10 -154h-440z" />
<glyph unicode="." horiz-adv-x="436" d="M82 120.5q0 63.5 35 103.5t96 40t96 -38t35 -103.5t-35 -104t-96 -38.5t-96 38.5t-35 102z" />
<glyph unicode="/" horiz-adv-x="770" d="M14 -96l637 1679l129 -41l-635 -1679z" />
<glyph unicode="0" d="M82 668q0 301 121 494.5t370.5 193.5t370.5 -193.5t121 -494.5t-121 -494.5t-370.5 -193.5t-370.5 193.5t-121 494.5zM285 667.5q0 -565.5 288.5 -565.5t288.5 565.5t-288.5 565.5t-288.5 -565.5z" />
<glyph unicode="1" horiz-adv-x="868" d="M102 1038l125 99q59 45 102.5 80.5t51.5 41t37 39.5q51 61 61 78l96 -24l-8 -201q-6 -106 -6 -279v-530q0 -109 6 -152l8 -73l170 -13l-12 -112l-112 4q-131 4 -202 4t-149 -4l-67 -4l-10 100l178 25q2 18 11 70.5t9 93.5v792l-233 -121z" />
<glyph unicode="2" horiz-adv-x="1085" d="M92 150q51 51 153.5 146t155 146.5t126 135.5t110.5 145q94 158 94 295q0 92 -70.5 157.5t-166 65.5t-183.5 -43q-20 -55 -20 -100l4 -92l-113 -7l-26 297q166 59 353 59.5t302 -85.5t115 -252q0 -113 -40 -214.5t-141.5 -216t-171.5 -177.5q-166 -158 -290 -260h385 q8 0 172 16q29 63 28 72l11 96l112 -8l-18 -312l-21 -20l-266 6h-565z" />
<glyph unicode="3" horiz-adv-x="1085" d="M119 -121q229 43 411 148q96 55 154.5 137t58.5 187.5t-78.5 173t-201.5 67.5l-141 -6l-29 98q211 29 303 105.5t92 197.5q0 258 -221 258q-98 0 -164 -47q-18 -74 -18 -100l4 -92l-113 -7l-26 297q178 59 323 60q195 0 301.5 -92.5t106.5 -270.5q0 -217 -244 -307 q135 -35 218 -122t83 -215t-72.5 -231.5t-189.5 -170.5q-227 -127 -524 -162z" />
<glyph unicode="4" horiz-adv-x="1099" d="M41 520l737 993l142 -104q-90 -94 -124 -133t-71 -80q-80 -86 -90 -102l-383 -574h264q80 0 146 6v291l159 55v-335l131 8l58 4v-137h-189v-70q0 -109 6 -152l9 -73l170 -13l-13 -112l-114 4q-131 4 -203 4t-158 -4l-76 -4l-10 100l209 25q2 18 11.5 70.5t9.5 93.5v131 h-531z" />
<glyph unicode="5" horiz-adv-x="1056" d="M129 -121q260 78 414 195q176 134 176 372q0 119 -76 202t-187.5 83t-240.5 -33l-76 43q8 190 27 389l18 195l11 10h165l457 21l12 -137q-104 -14 -255.5 -31t-170.5 -17h-90l-14 -96q-16 -115 -18 -231q86 23 186 22q205 0 325.5 -107.5t120.5 -303.5q0 -135 -64.5 -254 t-172.5 -201q-221 -170 -514 -215z" />
<glyph unicode="6" horiz-adv-x="1110" d="M102 504q0 340 213 633q104 143 274.5 248.5t383.5 144.5l22 -94q-193 -57 -334 -161t-219 -235q-147 -250 -147 -536q0 -166 71.5 -288t199.5 -122t198 91t70 216t-70 214.5t-182 89.5q-59 0 -131 -11l-13 99q86 32 162 32q190 0 309 -115.5t119 -303t-131 -308.5 t-339 -121t-332 144.5t-124 382.5z" />
<glyph unicode="7" horiz-adv-x="1085" d="M154 1010l20 323l21 21q188 -18 266 -19h536l33 -80l-586 -1470l-159 51l438 1028q16 41 90 322h-334q-96 0 -174 -12q-27 -57 -29 -70l-10 -103z" />
<glyph unicode="8" horiz-adv-x="1085" d="M92 336q0 207 289 375q-115 67 -179.5 149t-64.5 219.5t119 227.5t286 90t286.5 -90t119.5 -244q0 -109 -74.5 -200t-175.5 -150q137 -74 216 -162t79 -219q0 -170 -129 -261t-321.5 -91t-321.5 91t-129 265zM279 336q0 -117 73.5 -188.5t186 -71.5t190.5 70.5t78 181.5 q0 76 -57 151q-35 47 -150 115q-23 12 -94 53q-4 0 -19 8q-208 -149 -208 -319zM315 1071q0 -106 78 -176q82 -72 207 -133l2 -2q168 129 168 303q0 102 -64.5 169.5t-159.5 67.5t-163 -68.5t-68 -160.5z" />
<glyph unicode="9" horiz-adv-x="1116" d="M82 920.5q0 187.5 130 311.5t340 124t336 -147.5t126 -387.5q0 -344 -203 -637q-98 -145 -267 -251.5t-386 -151.5l-25 92q193 61 332 169t211 241q137 246 137 538q0 166 -72.5 292t-200.5 126t-193.5 -92t-65.5 -220t71.5 -213t171 -85t142.5 6l14 -96 q-72 -31 -160 -31q-193 0 -315.5 112.5t-122.5 300z" />
<glyph unicode=":" horiz-adv-x="415" d="M82 110.5q0 61.5 30.5 97.5t89 36t90.5 -35t32 -97.5t-31 -97t-90.5 -34.5t-90 34.5t-30.5 96zM82 833.5q0 61.5 30.5 97.5t89 36t90.5 -35t32 -97.5t-31 -97.5t-90.5 -35t-90 35t-30.5 96.5z" />
<glyph unicode=";" horiz-adv-x="450" d="M70 -213q145 64 145 193q-53 4 -83 45t-30 100t34 99t93 40q129 0 129 -182q0 -123 -70.5 -228.5t-197.5 -132.5zM106 833.5q0 61.5 31 97.5t89.5 36t90 -35t31.5 -97.5t-30.5 -97.5t-90 -35t-90.5 35t-31 96.5z" />
<glyph unicode="&#x3c;" d="M209 506l618 545l109 -109l-518 -434l520 -430l-109 -109z" />
<glyph unicode="=" d="M106 244v135l932 10v-145h-932zM106 629v145h932v-135z" />
<glyph unicode="&#x3e;" d="M209 78l520 430l-518 434l108 109l619 -545l-621 -537z" />
<glyph unicode="?" horiz-adv-x="825" d="M47 1409q174 80 322 80q229 0 350 -121t121 -320.5t-111 -317.5t-326 -128l13 -201l-17 -20l-53 6q-80 6 -115 0l-6 293l60 53q37 -12 84 -12q143 0 210.5 94t67.5 231.5t-67.5 231.5t-210.5 94q-94 0 -168 -61q-14 -37 -15 -111l4 -74l-118 -6zM207 111.5 q0 62.5 30.5 97.5t90 35t90.5 -35t31 -96.5t-31 -97t-89.5 -35.5t-90 34.5t-31.5 97z" />
<glyph unicode="@" horiz-adv-x="1867" d="M82 475q0 160 37 293l18 63q18 47 23 60l14 31q43 94 102 163q2 2 27 30t39 40q18 16 78 66l29 18l30 16q45 25 64 33l35 15q86 33 188 49l43 6q43 6 73.5 7t61.5 1l74 -2l74 -6l69 -12q141 -25 246 -82q4 -2 13.5 -6.5t17.5 -8.5q35 -27 47 -32l71 -56q2 -4 6.5 -7 t14.5 -13l20 -23q6 -4 30 -33.5t42 -60.5l17 -25q12 -25 30 -59q35 -70 42 -118t11 -60l7 -33q10 -72 10 -141v-23q-8 -215 -140.5 -377.5t-361.5 -191.5l-51 -6l-19 10l-28 162q-10 -20 -37 -51l-33 -33q-37 -31 -78 -49l-18 -11l-29 -12l-43 -12l-30 -6q-2 -2 -13 -2 l-20 -4h-13q-10 -2 -36 -2q-78 0 -131 26q-57 25 -99 86l-6 8l-18 37l-7 21l-4 12l-4 20l-2 25q-2 6 -2 25v43l12 55q12 27 19 39q43 72 133 106l59 19l13 4q27 6 166 33l41 6q31 6 79 12q59 8 80 12v90q-4 72 -8 87.5t-4 19.5l-12 37q-16 43 -35 61q-8 12 -25 23 q-16 14 -38.5 20t-26.5 8l-21 3q-6 2 -22 2h-21l-32 -2l-35 -7q-12 0 -41 -8l-29 -8l-2 -2l-31 -12v-2q-2 -2 -2 -11l-2 -4l-6 -30l-6 -27v-4q-2 -8 -2 -19v-73l-119 -6l-22 276q86 20 129 29l47 6q14 4 63 8l21 2l110 4h21q8 0 37 -4l51 -6q74 -16 119 -55l28 -29l17 -21 l12 -22q53 -100 53 -297v-315q0 -45 4 -54l19 -129v-4h2q139 33 201.5 182.5t62.5 311.5v28l-2 31l-6 58q0 6 -4 26l-4 29q-23 96 -52 151l-10 23l-24 45q-41 66 -97 115l-37 32q-66 49 -107.5 67.5t-49.5 23.5l-51 16q-23 8 -27 8l-84 16l-29 5q-25 0 -30 2h-31l-31 2 q-29 0 -43 -2l-41 -2l-39 -5l-39 -8q-113 -23 -190 -71q-31 -16 -51 -35q-180 -133 -250 -436q-23 -121 -23 -245t17 -202l12 -70l4 -12q49 -199 180 -330q8 -8 25 -20q150 -123 393 -135l35 -2q68 0 289 53l118 29l7 -13q2 2 4 2h2l14 -41l6 -12h-2l4 -12l-94 -37 q-88 -37 -197 -66q-92 -31 -131 -30h-20q-229 0 -408 84l-41 20q-6 6 -16 8q-248 141 -342 455q-6 16 -15.5 54t-21.5 141l-6 61q-2 31 -2 88zM743 258q0 -37 9.5 -61.5t11.5 -24.5l4 -6l10 -12l17 -15l8 -6q2 -4 18 -10q29 -12 72 -12h10h23q37 6 78 24q70 29 114 90l25 41 q16 43 22 76v123l-4 -2q-10 0 -14 -2l-45 -6q-35 -4 -43 -9l-33 -4l-49 -10l-35 -6l-27 -6q-14 -6 -43 -10l-22 -7q-66 -29 -84 -61l-6 -8l-12 -29q-4 -25 -5 -47z" />
<glyph unicode="A" horiz-adv-x="1404" d="M10 98l117 17q113 207 115 215l397 1114l111 22l225 -585q49 -125 106 -279q123 -324 131 -340q16 -49 78 -151l105 -11l-6 -108l-142 4q-152 4 -190.5 4t-91.5 -4l-50 -4l-10 108l146 15q-14 100 -31 149l-82 213l-510 -6l-84 -235q-14 -63 -22 -119h2l159 -17l-12 -108 l-127 4q-143 4 -193.5 4t-95.5 -4l-39 -4zM467 582q111 -4 158 -4t138 3t134 3l-223 581z" />
<glyph unicode="B" horiz-adv-x="1212" d="M61 98l158 19q2 18 11.5 70.5t9.5 93.5v882q0 31 -9.5 83t-11.5 81l-158 25l11 102l65 -6q78 -4 129 -4h10l398 20q174 0 292.5 -95t118.5 -242.5t-83.5 -243t-221.5 -125.5v-15q168 -27 267.5 -120t99.5 -259.5t-124 -275t-310 -108.5l-340 20h-66q-70 0 -147 -10 l-84 -8zM428 342q0 -154 12 -227q96 -15 220 -15h2q123 0 203 76q81 76 81 218.5t-109.5 219t-267.5 76.5h-24l14 117h16q137 0 226.5 74.5t89.5 200.5t-73 199t-180 73h-2q-108 0 -196 -13l-12 -239v-760z" />
<glyph unicode="C" horiz-adv-x="1316" d="M92 720q0 345 176 550t508 205q166 0 330 -41q102 -25 121 -29l-23 -303l-125 8v96q0 33 -24 103q-156 47 -277 47q-225 0 -346 -177.5t-121 -456t121 -456.5t346 -178q139 0 295 45q31 88 33 115.5t2 54.5v41l125 4l12 -309q-295 -70 -469 -70q-332 0 -508 203t-176 548 z" />
<glyph unicode="D" horiz-adv-x="1435" d="M61 98l158 19q2 18 11.5 70.5t9.5 93.5v882q0 31 -9.5 83t-11.5 81l-158 25l11 102l65 -6q78 -4 129 -4h8q59 0 184.5 10t198.5 10q338 0 522.5 -198.5t184.5 -539.5t-189.5 -545t-517.5 -204l-413 21q-80 -4 -113 -10l-55 -6zM428 342l12 -233q74 -8 219 -9 q246 0 374 174.5t128 446.5t-128 446t-374 174q-133 0 -219 -10q-12 -78 -12 -229v-760z" />
<glyph unicode="E" horiz-adv-x="1150" d="M61 98l158 19q2 18 11.5 70.5t9.5 93.5v882q0 31 -9.5 83t-11.5 81l-158 25l11 102l57 -6q66 -4 117 -4h524q53 0 252 20l20 -22l15 -293l-119 -10q-16 88 -24.5 114.5t-39.5 65.5q-78 10 -165 10h-269q-12 -82 -12 -227v-295q70 -4 86 -4h150q49 0 122 18l19 135l94 -10 q-2 -25 -2 -67v-97q0 -106 2 -149l4 -74l-98 -12l-19 137l-67 6l-96 6h-109q-20 0 -86 -4v-350q0 -139 12 -225h295q84 0 178 16q29 39 43 78q2 16 15.5 70.5t15.5 66.5l113 -10l-31 -324l-20 -22l-111 4q-115 4 -141 4h-490q-70 0 -147 -10l-84 -8z" />
<glyph unicode="F" horiz-adv-x="1107" d="M61 98l158 19q2 18 11.5 70.5t9.5 93.5v882q0 31 -9.5 83t-11.5 81l-158 25l11 102l57 -6q66 -4 117 -4h524q53 0 252 20l20 -22l15 -293l-119 -10q-16 88 -24.5 114.5t-39.5 65.5q-78 10 -165 10h-269q-12 -90 -12 -227v-316q70 -4 86 -4h150q49 0 122 19l19 135l94 -10 q-2 -25 -2 -68v-96q0 -106 2 -150l4 -73l-98 -13l-19 138l-67 6l-96 6h-109q-16 0 -86 -4v-330q0 -113 18 -215l197 -14l-10 -121l-111 4q-127 4 -205.5 4t-156.5 -10l-84 -8z" />
<glyph unicode="G" horiz-adv-x="1337" d="M92 720q0 345 176 550t508 205q166 0 330 -41q102 -25 121 -29l-23 -303l-119 12v92q0 31 -24 101q-166 49 -289 49q-229 0 -349 -176t-120 -457t120 -458t349 -177q131 0 285 41q25 94 24 133v139q0 31 -9 83.5t-11 80.5l-176 17l10 116l100 -8q74 -8 140.5 -8t85.5 2 l32 4l13 -12q-20 -215 -21 -336v-301q-295 -70 -469 -70q-332 0 -508 203t-176 548z" />
<glyph unicode="H" horiz-adv-x="1533" d="M61 98l158 19q2 18 11.5 70.5t9.5 93.5v882q0 31 -9.5 83t-11.5 81l-158 25l11 102l65 -6q78 -4 169 -4t175 8l109 8l12 -121l-160 -12l-8 -74q-6 -43 -6 -151v-320q51 -8 246 -8l434 8v381q0 31 -9 83t-12 81l-157 16l10 111l66 -6q78 -4 169 -4t175 8l110 8l13 -121 l-160 -12l-8 -74q-6 -43 -7 -151v-760q0 -109 7 -152l8 -73l160 -13l-13 -112l-110 4q-127 4 -197 4t-147 -4l-66 -4l-10 112l157 13q2 18 11.5 70.5t9.5 93.5v391l-680 -6v-324q0 -109 6 -152l8 -73l160 -13l-12 -112l-98 4q-115 4 -193 4t-149 -10l-74 -8z" />
<glyph unicode="I" horiz-adv-x="702" d="M82 98l158 19q2 18 11 70.5t9 93.5v882q0 31 -9 83t-11 81l-158 19l10 108l66 -6q78 -4 168 -4t174 8l108 8l13 -121l-160 -12l-8 -74q-6 -43 -7 -151v-760q0 -109 7 -152l8 -73l160 -13l-13 -112l-108 4q-127 4 -195.5 4t-146.5 -4l-66 -4z" />
<glyph unicode="J" horiz-adv-x="702" d="M82 1346l10 108l66 -6q78 -4 168 -4t174 8l108 8l13 -121l-160 -12l-8 -74q-6 -43 -7 -151v-1122q0 -43 -141 -218q-49 -63 -139 -172l-70 45q164 348 164 388v1140q0 31 -9 83t-11 81z" />
<glyph unicode="K" horiz-adv-x="1392" d="M61 98l158 19q2 18 11.5 70.5t9.5 93.5v882q0 31 -9.5 83t-11.5 81l-158 19l11 108l65 -6q78 -4 168 -4t174 8l109 8l12 -121l-160 -12l-8 -74q-6 -43 -6 -151v-760q0 -109 6 -152l8 -73l160 -13l-12 -112l-109 4q-127 4 -195.5 4t-146.5 -4l-65 -4zM446 723l373 459 l84 147l-110 17l10 108l61 -6q70 -4 158 -4t162 8l92 8l12 -121l-151 -12q-66 -57 -217 -209l-273 -360q33 -37 185.5 -217.5t238.5 -276.5q94 -94 168 -149l143 -11l-12 -112l-108 4q-127 4 -196 4t-146 -4l-66 -4l-10 106l92 11q-90 152 -150 227q-27 27 -91 101.5 t-95 109.5z" />
<glyph unicode="L" horiz-adv-x="1056" d="M61 98l158 19q2 18 11.5 70.5t9.5 93.5v882q0 31 -9.5 83t-11.5 81l-158 19l11 108l65 -6q78 -4 168 -4t174 8l109 8l12 -121l-160 -12l-8 -74q-6 -42 -6 -151v-760q0 -109 6 -152l8 -73h242q72 0 178 18q31 41 43 76q2 16 15.5 70.5t15.5 66.5l113 -10l-31 -324l-21 -22 l-110 4q-115 4 -142 4h-477q-51 0 -129 -4l-65 -4z" />
<glyph unicode="M" horiz-adv-x="1927" d="M57 98l158 19q2 6 7 28.5t9.5 36t10.5 45t10 43.5l53 895q0 31 -9 83t-11 81l-156 17l10 114l97 -8q74 -8 127 -8t114 4l53 4l13 -12l47 -168q53 -188 59 -205l322 -772l325 805q12 29 54.5 166t52.5 174l12 12l37 -4q45 -4 99.5 -4t121.5 8l92 8l13 -121l-160 -12 l-6 -65q-6 -35 -6 -97l69 -895q2 -16 13.5 -59t16.5 -65.5t7 -28.5l158 -19l-10 -106l-68 4q-78 4 -148.5 4t-205.5 -4l-119 -4l-12 112l159 13l11 215l-43 751l-465 -1083h-76l-465 1085l-37 -753q0 -39 4 -133l6 -82l160 -13l-12 -112l-90 4q-111 4 -179.5 4t-146.5 -4 l-65 -4z" />
<glyph unicode="N" horiz-adv-x="1564" d="M61 98l158 19q2 18 11.5 70.5t9.5 93.5v882q0 33 -9.5 88.5t-11.5 77.5l-156 17l11 108l86 -6q94 -4 139 -4t107 4l51 4l10 -12q31 -74 91 -203t77 -152l536 -751v809q0 39 -9 96t-11 88l-158 16l11 111l65 -6q78 -4 166 -4t162 8l94 8l12 -121l-160 -12l-18 -84 q-16 -98 -16 -162v-473l-2 -342v-280h-123l-807 1153v-797q0 -109 6 -152l8 -73l160 -13l-12 -112l-74 4q-94 4 -169 4t-146 -10l-74 -8z" />
<glyph unicode="O" horiz-adv-x="1527" d="M92 722q0 343 173 548t499 205t499 -205t173 -548t-173 -548t-499 -205t-499 205t-173 548zM311 721q0 -283 117 -463t336 -180t336 180t117 463t-117 464t-336 181t-336 -181t-117 -464z" />
<glyph unicode="P" horiz-adv-x="1140" d="M61 98l158 19q2 18 11.5 70.5t9.5 93.5v882q0 31 -9.5 83t-11.5 81l-158 25l11 102l65 -6q78 -4 129 -4h13l376 20q217 0 337 -110.5t120 -318.5t-144.5 -323.5t-359.5 -115.5q-123 0 -180 2v-256q0 -113 18 -215l197 -14l-12 -121l-109 4q-127 4 -205.5 4t-156.5 -10 l-84 -8zM428 707q67 -9 139 -9q164 0 258.5 84t94.5 246t-93.5 248t-257.5 86q-45 0 -127 -10v-4l-8 -84q-6 -49 -6 -162v-395z" />
<glyph unicode="Q" horiz-adv-x="1538" d="M92 722q0 343 173 548t499 205t499 -205t173 -549q0 -274 -114 -462.5t-327 -256.5l179 -125q14 -12 143 -69.5t180 -77.5l-121 -189l-536 432q-49 -4 -76 -4q-326 0 -499 205t-173 548zM311 721q0 -283 117 -463t336 -180t336 180t117 463t-117 464t-336 181t-336 -181 t-117 -464z" />
<glyph unicode="R" horiz-adv-x="1263" d="M61 98l158 19q2 18 11.5 70.5t9.5 93.5v882q0 31 -9.5 83t-11.5 81l-158 25l11 102l65 -6q78 -4 129 -4h13l376 20q213 0 332 -103.5t119 -301.5q0 -141 -85 -239.5t-224 -139.5q162 -322 217 -412q0 -2 102 -147l137 -23l-8 -106l-76 4q-86 4 -117.5 4t-105.5 -8l-12 8 q-82 186 -113 238l-213 417q-123 0 -180 2v-315q0 -106 6 -149l8 -74l140 -15l-13 -112l-77 4q-94 4 -174 4t-158 -10l-84 -8zM428 766q51 -6 139 -6q158 0 249 76.5t91 224t-90 224.5t-248 77q-45 0 -127 -10v-4l-8 -84q-6 -49 -6 -162v-336z" />
<glyph unicode="S" horiz-adv-x="1124" d="M92 78l31 315l135 -12v-98q0 -31 23 -136q129 -55 260 -55t203.5 66.5t72.5 184.5t-102 196q-68 51 -154 94l-92 47l-12 4q-168 82 -260.5 173t-92.5 254t124 263.5t298 100.5t437 -66l-29 -301l-121 12v82q0 20 -29 115q-109 45 -225.5 45t-183 -59.5t-66.5 -167.5 q0 -106 103 -185q72 -51 152.5 -91t84.5 -42q96 -49 151.5 -84t114.5 -86q117 -104 117 -287.5t-137 -287t-328.5 -103.5t-351.5 54q-68 23 -123 55z" />
<glyph unicode="T" horiz-adv-x="1241" d="M31 1149l14 293l21 22q199 -20 251 -20h607q53 0 252 20l20 -22l14 -293l-118 -10q-16 88 -24.5 114.5t-39.5 65.5q-39 6 -135 10h-166l-12 -227v-760q0 -106 6 -149l8 -72l180 -17l-12 -112l-119 4q-135 4 -204.5 4t-147.5 -4l-66 -4l-10 106l158 19q2 18 11 70.5 t9 93.5v882q0 25 -8 89.5t-12 76.5h-160q-96 -4 -137 -10q-37 -53 -41 -72.5t-20 -107.5z" />
<glyph unicode="U" horiz-adv-x="1533" d="M61 1352l11 102l65 -6q78 -4 171 -4t177 8l111 8l12 -121l-159 -12l-9 -80q-6 -47 -6 -155v-529q0 -205 92 -334t264.5 -129t266.5 130t94 333v590q0 25 -10.5 85t-12.5 89l-155 16l10 111l49 -6q61 -4 159.5 -4t174.5 8l94 8l13 -121l-160 -12l-8 -80q-6 -47 -7 -155 v-529q0 -270 -137 -432t-392 -162t-392 166t-137 438v580q0 37 -9.5 91t-11.5 83z" />
<glyph unicode="V" horiz-adv-x="1402" d="M10 1333l8 121l82 -6q94 -4 175 -4t157 6l80 8l4 -129l-143 -14q59 -229 63 -238l312 -768l294 875q8 39 21 135l-154 20l11 117l71 -6q39 -6 140.5 -6t179.5 6l80 8l2 -125l-123 -16q-96 -160 -105 -201l-374 -1104v-12h-123l-463 1145q-51 96 -103 180z" />
<glyph unicode="W" horiz-adv-x="2037" d="M10 1333l8 121l82 -6q94 -4 175 -4t157 6l80 8l4 -129l-154 -14q51 -213 62 -238l252 -735l309 1083h94l373 -1083l221 842q8 39 21 135l-150 20l10 117l72 -6q39 -6 140.5 -6t179.5 6l79 8l3 -125l-117 -14q-94 -150 -103 -203l-331 -1116h-105l-368 1038 q-43 -141 -141.5 -492t-164.5 -546h-104l-401 1145q-68 123 -101 180z" />
<glyph unicode="X" horiz-adv-x="1439" d="M10 104l117 9q14 16 99 106t106 117l272 397l-280 410l-131 176l-170 12l8 123l65 -6q78 -4 180.5 -4t165.5 6l109 8l4 -127l-100 -12q29 -86 88 -182l186 -271l207 318q18 25 70 137l-162 20l10 113l66 -6q78 -4 180 -4t166 6l110 8l8 -123l-149 -18q-98 -86 -154 -152 l-274 -411l338 -484q45 -55 135 -155l150 -17l-15 -116l-112 8q-109 10 -191 10t-151 -4l-60 -4l-12 112l117 9q-57 129 -97 178l-229 330l-236 -351q-27 -39 -77 -153l184 -19l-14 -116l-113 8q-109 10 -190.5 10t-151.5 -4l-59 -4z" />
<glyph unicode="Y" horiz-adv-x="1320" d="M10 1333l8 121l82 -6q94 -4 175 -4t157 6l80 8l4 -129l-129 -12q74 -205 92 -240l189 -368l241 475q10 20 49 139l-131 16l11 117l71 -6q39 -6 140.5 -6t179.5 6l80 8l2 -125l-140 -18l-155 -197l-271 -520v-256q0 -109 7 -152l8 -73l160 -13l-13 -112l-108 4 q-127 4 -198 4t-148 -4l-66 -4l-10 106l158 19q2 18 11 70.5t9 93.5v272l-311 592q-51 68 -152 180z" />
<glyph unicode="Z" horiz-adv-x="1128" d="M41 117l106 135q113 145 146 197l387 616l137 258h-379q-29 0 -176 -16q-29 -43 -32 -59.5t-11 -69t-10 -60.5l-119 10l14 314l21 22q201 -20 252 -20h678l14 -115q-172 -244 -223 -317l-381 -621l-143 -270h401q59 0 186 24q25 37 35 66l31 158l112 -11l-30 -344 l-21 -22l-110 4q-115 4 -142 4h-729z" />
<glyph unicode="[" horiz-adv-x="542" d="M154 -221l20 405v944l-20 406l26 27q90 0 221 4l115 4l6 -88l-178 -25q-29 -115 -29 -225v-1149q0 -111 29 -225l178 -25l-6 -88l-115 4q-131 4 -221 4z" />
<glyph unicode="\" horiz-adv-x="815" d="M14 1542l129 41l637 -1679l-131 -41z" />
<glyph unicode="]" horiz-adv-x="542" d="M20 -168l179 25q8 49 14 73q14 100 14 152v1149q0 51 -14 151q-6 25 -14 74l-179 25l7 88l114 -4q131 -4 221 -4l27 -27l-10 -188q-10 -161 -10 -218v-944q0 -55 10 -219l10 -186l-27 -27q-90 0 -221 -4l-114 -4z" />
<glyph unicode="^" d="M20 731l553 760l553 -760l-129 -90l-424 619l-423 -619z" />
<glyph unicode="_" horiz-adv-x="1032" d="M0 -322h1032l-10 -153h-1018z" />
<glyph unicode="`" horiz-adv-x="493" d="M0 1440l100 127l394 -328l-68 -84l-152 125q-29 14 -149 88z" />
<glyph unicode="a" horiz-adv-x="1050" d="M82 240.5q0 115.5 59.5 175t149.5 83t393 70.5v68q0 283 -192 283q-113 0 -191 -39q-18 -92 -18 -97v-73l-119 -6l-23 276q184 49 374 49t262.5 -106.5t72.5 -327.5v-315q0 -47 20 -164l142 -11l-13 -114l-67 4q-94 4 -199 4l-28 162q-41 -76 -138.5 -129t-216.5 -53 t-193.5 72.5t-74.5 188zM262 262q0 -151 164 -151h2q88 0 164 65.5t92 165.5v123q-10 -2 -117.5 -20.5t-175.5 -34.5q-129 -33 -129 -148z" />
<glyph unicode="b" horiz-adv-x="1124" d="M10 1458l10 111q158 -21 212 -21h12q47 0 80 4l30 4l13 -12l-9 -131q-6 -72 -6 -207v-329q37 57 110 105t161 48q209 0 314 -138t105 -366.5t-129 -387t-340 -158.5t-403 73l8 97q8 68 8 129v991q0 31 -9 83t-11 81zM352 342l13 -223q98 -25 194 -25q156 0 227.5 119 t71.5 307q0 385 -252 385q-123 0 -187.5 -93t-64.5 -230l-2 26v-266z" />
<glyph unicode="c" horiz-adv-x="989" d="M82 503.5q0 241.5 121 384t350 142.5q74 0 125 -12q66 -16 196 -60l-20 -256l-119 7v73q0 16 -14 70q-74 61 -168 61q-143 0 -211 -118.5t-68 -289.5t68 -281.5t212 -110.5t286 73l57 -96q-39 -33 -94 -55q-106 -55 -252 -55q-227 0 -348 141t-121 382.5z" />
<glyph unicode="d" horiz-adv-x="1148" d="M82 506.5q0 230.5 110.5 377t319.5 146.5q113 0 256 -49v289q0 31 -9 83t-11 81l-181 24l11 111q178 -21 233 -21h12q47 0 80 4l33 4l12 -12l-8 -129q-6 -72 -6 -207v-927q0 -47 20 -164l142 -11l-13 -114l-67 4q-94 4 -199 4l-26 166q-23 -57 -107 -121.5t-190 -64.5 q-205 0 -308.5 148t-103.5 378.5zM270 504q0 -102 19.5 -185t76 -145.5t142.5 -62.5q127 0 193.5 85t66.5 228v410q-114 72 -242 72h-2q-129 0 -191.5 -116t-62.5 -286z" />
<glyph unicode="e" horiz-adv-x="972" d="M82 501.5q0 239.5 113.5 383t332.5 143.5q393 0 394 -475l-35 -68h-613q4 -152 77 -262t202 -110q166 0 305 84l57 -95q-146 -123 -366 -123q-1 1 -2 1q-221 0 -343 141t-122 380.5zM276 590q387 33 455 33v16l2 25q0 119 -52 188.5t-161 69.5q-211 0 -244 -332z" />
<glyph unicode="f" horiz-adv-x="747" d="M53 987q20 6 58 17q79 25 106 43v176q0 164 93 259t268 95q66 0 126 -9t84 -12l-22 -276l-109 6v74q0 29 -26 104q-29 4 -69 4t-76.5 -15t-57 -38.5t-31.5 -68.5q-14 -63 -14 -187l4 -147h283l-11 -111h-276v-559q0 -106 6 -154l8 -75l203 -17l-12 -104l-113 4 q-131 4 -208 4t-142 -4l-53 -4l-11 104l136 21q2 18 11 70.5t9 93.5v620h-158z" />
<glyph unicode="g" horiz-adv-x="1042" d="M49 -184q0 63 191 204q-92 49 -93 152q0 43 146 166q-182 94 -182 321q0 172 110.5 271.5t284.5 99.5q113 0 205 -45l235 51l19 -104l-74 -25q-12 -4 -51 -33q61 -88 61 -215q0 -172 -110.5 -271t-284.5 -99q-76 0 -139 18q-55 -70 -55.5 -88t16 -32.5t54.5 -22.5 t71.5 -12.5t93.5 -10.5q258 -27 336 -53q92 -29 92 -190.5t-161 -270t-359 -108.5q-406 0 -406 297zM225 -147q0 -123 73 -170.5t202 -47.5t215 55.5t86 155.5q0 48 -15.5 65t-65.5 27.5t-209 29t-196 28.5q-90 -117 -90 -143zM289 659.5q0 -266.5 217 -266.5t217 266.5 t-217 266.5t-217 -266.5z" />
<glyph unicode="h" horiz-adv-x="1236" d="M41 1458l10 111q160 -21 212 -21h11q45 0 78 4l33 4l12 -12l-8 -129q-6 -72 -6 -207v-319q106 141 302 141t266.5 -115.5t70.5 -347.5v-225q0 -109 6 -152l8 -73l162 -13l-12 -112l-90 4q-111 4 -188 4t-142 -4l-55 -4l-11 104l136 21q2 18 11 70.5t9 93.5v356 q0 119 -52 189.5t-162 70.5t-180.5 -81t-78.5 -198v-276q0 -109 6 -152l8 -73l160 -13l-12 -112l-99 4q-115 4 -185.5 4t-135.5 -4l-53 -4l-11 104l136 21q2 18 11 70.5t9 93.5v989q0 31 -9 83t-11 81z" />
<glyph unicode="i" horiz-adv-x="612" d="M53 92l158 25q2 18 11 70.5t9 93.5v450q0 31 -9 83t-11 81l-156 25l11 110q143 -18 212.5 -18t88.5 2l32 4l13 -12l-9 -129q-6 -72 -6 -207v-328q0 -109 6 -152l9 -73l159 -13l-12 -112l-98 4q-115 4 -184.5 4t-147.5 -4l-66 -4zM174 1341.5q0 61.5 31 97.5t89 36t90 -35 t32 -97.5t-31 -97.5t-90 -35t-90 35t-31 96.5z" />
<glyph unicode="j" horiz-adv-x="555" d="M37 920l10 110q143 -18 213 -18t88 2l33 4l12 -12l-8 -129q-6 -72 -6 -207v-690q0 -43 -86 -195t-162 -266l-74 43q156 406 156 481v688q0 31 -9 83t-11 81zM156 1341.5q0 61.5 30.5 97.5t89 36t90 -35t31.5 -97.5t-30.5 -97.5t-90 -35t-90 35t-30.5 96.5z" />
<glyph unicode="k" horiz-adv-x="1193" d="M41 1458l10 111q160 -21 212 -21h11q45 0 78 4l33 4l12 -12l-8 -129q-6 -72 -6 -207v-866q0 -109 6 -152l8 -73l160 -13l-12 -112l-99 4q-115 4 -185.5 4t-135.5 -4l-53 -4l-11 104l136 21q2 18 11 70.5t9 93.5v989q0 31 -9 83t-11 81zM408 543l342 358l-91 19l11 110 q143 -18 223 -18t121 6l78 8l10 -113l-123 -14q-174 -88 -223 -149l-168 -181l282 -305q53 -53 197 -151l117 -13l-8 -108l-109 4q-127 4 -197.5 4t-124.5 -4l-45 -4l-10 104l119 17q-305 346 -401 430z" />
<glyph unicode="l" horiz-adv-x="604" d="M41 92l158 25q2 18 11 70.5t9 93.5v989q0 31 -9 83t-11 81l-156 24l10 111q161 -21 215 -21h11q47 0 79 4l33 4l12 -12l-8 -129q-6 -72 -6 -207v-866q0 -109 6 -152l8 -73l160 -13l-12 -112l-98 4q-119 4 -188.5 4t-147.5 -4l-66 -4z" />
<glyph unicode="m" horiz-adv-x="1822" d="M53 932l10 104l64 -6q39 -6 103.5 -6t78.5 2l25 4l12 -12l27 -162q102 174 317 174t277 -196q37 78 116.5 137t204.5 59q188 0 254 -115.5t66 -347.5v-225q0 -109 6 -152l8 -73l162 -13l-12 -112l-91 4q-111 4 -186.5 4t-136.5 -4l-53 -4l-11 104l127 21q2 18 11.5 70.5 t9.5 93.5v356q0 260 -195 260q-100 0 -170.5 -99.5t-75.5 -224.5v-231q0 -109 7 -152l8 -73l153 -13l-12 -112l-86 4q-111 4 -184.5 4t-134.5 -4l-54 -4l-10 104l127 21q2 18 11.5 70.5t9.5 93.5v356q0 260 -195 260q-102 0 -174 -104.5t-72 -231.5v-219q0 -109 6 -152 l9 -73l153 -13l-12 -112l-88 4q-111 4 -185.5 4t-140.5 -4l-53 -4l-10 104l135 21q2 18 11 70.5t9 93.5v450q0 12 -10 69.5t-18 106.5z" />
<glyph unicode="n" horiz-adv-x="1249" d="M53 932l10 104l64 -6q39 -6 103.5 -6t78.5 2l25 4l12 -12l27 -162q39 68 118.5 121t202.5 53q199 0 269.5 -115.5t70.5 -347.5v-225q0 -109 6 -152l9 -73l161 -13l-12 -112l-90 4q-111 4 -187.5 4t-142.5 -4l-55 -4l-10 104l135 21q2 18 11 70.5t9 93.5v356 q0 119 -52 189.5t-161.5 70.5t-180.5 -81t-79 -198v-276q0 -109 6 -152l9 -73l161 -13l-12 -112l-92 4q-111 4 -187.5 4t-142.5 -4l-53 -4l-10 104l135 21q2 18 11 70.5t9 93.5v450q0 12 -10 69.5t-18 106.5z" />
<glyph unicode="o" horiz-adv-x="1105" d="M82 504.5q0 240.5 122 383t351 142.5t349 -141t120 -383t-122 -384t-349 -142t-349 142t-122 382.5zM274 504q0 -178 66 -293t213 -115t212.5 115t65.5 293t-65.5 293.5t-212.5 115.5t-213 -115.5t-66 -293.5z" />
<glyph unicode="p" horiz-adv-x="1144" d="M31 932l10 104l63 -6q39 -6 105.5 -6t85.5 2l33 4l12 -12l18 -166q31 59 108 118.5t177 59.5q209 0 314.5 -138t105.5 -366.5t-129 -387t-342 -158.5q-117 0 -219 49v-158q0 -106 6 -150l8 -73l205 -19l-12 -110l-113 6q-90 8 -188.5 8t-163.5 -4l-54 -4l-10 100l137 21 l9 65q10 57 10 99v921q0 12 -10.5 69.5t-18.5 106.5zM373 176q104 -74 207 -74q156 0 227.5 117t71.5 301q0 385 -252 385q-121 0 -185.5 -89t-68.5 -222v-418z" />
<glyph unicode="q" horiz-adv-x="1110" d="M82 504.5q0 228.5 120 377t328.5 148.5t419.5 -74l-8 -98q-8 -68 -8 -127v-860q0 -109 6 -152l8 -73l142 -13l-13 -114l-82 6q-68 8 -161 8t-187 -4l-84 -4l-10 100l199 21l8 65q8 47 8 99v317q-41 -57 -113.5 -102t-160.5 -45q-205 0 -308.5 148t-103.5 376.5zM270 504 q0 -102 19.5 -185t76 -145.5t142.5 -62.5q127 0 193.5 85t66.5 228v244q0 8 -14 223q-98 24 -195 24h-8q-137 0 -209 -121.5t-72 -289.5z" />
<glyph unicode="r" horiz-adv-x="856" d="M53 932l10 104l64 -6q39 -6 103.5 -6t78.5 2l25 4l12 -12l31 -180q116 192 328 192h2q57 0 98 -10l41 -10l-21 -338l-116 6l-2 108q0 16 -29 103q-143 0 -210 -76.5t-73 -230.5v-240q0 -109 6 -152l9 -73l202 -17l-12 -108l-113 4q-131 4 -207.5 4t-142.5 -4l-53 -4 l-10 104l135 21q2 18 11 70.5t9 93.5v450q0 12 -10 69.5t-18 106.5z" />
<glyph unicode="s" horiz-adv-x="854" d="M78 59l22 279l119 -6v-78q0 -25 29 -123q57 -47 174 -47q186 0 186 156q0 59 -54 103t-130 78t-152.5 71.5t-131 105.5t-54.5 160q0 127 93 199.5t243.5 72.5t302.5 -35l-25 -293l-118 7v73q0 23 -29 117q-57 25 -135 25t-123 -36t-45 -95.5t54 -103.5t131 -77.5 t155 -71.5t132 -104.5t54 -156.5q0 -299 -360 -299q-190 0 -338 79z" />
<glyph unicode="t" horiz-adv-x="700" d="M20 987q20 6 58 17q80 25 106 43q2 2 54 100l41 84l81 -8v-211h287l-10 -111h-277v-631q0 -159 111 -159q74 0 162 59l57 -84q-137 -106 -246 -106q-141 0 -200.5 81.5t-59.5 257.5v582h-157z" />
<glyph unicode="u" horiz-adv-x="1206" d="M39 920l10 110q125 -18 193.5 -18t87.5 2l32 4l13 -12l-8 -129q-6 -72 -7 -207v-295q0 -264 207 -264q117 0 185.5 90t72.5 217v313q0 31 -9 83t-11 81l-176 25l10 104l98 -6q55 -6 130 -6t94 2l32 4l13 -12l-9 -129q-6 -72 -6 -207v-389q0 -47 21 -164l141 -11l-12 -114 l-68 4q-94 4 -199 4l-26 158q-102 -178 -318 -178q-207 0 -274 131q-61 117 -61 333v287q0 31 -9.5 83t-11.5 81z" />
<glyph unicode="v" horiz-adv-x="1120" d="M10 920l10 110q143 -18 221 -18t117 6l70 8l10 -113l-116 -14l59 -184l209 -504l194 508q4 10 23.5 75.5t32.5 104.5l-135 21l10 110q143 -18 219 -18t108 6l60 6l8 -111l-90 -12q-104 -195 -121 -248l-262 -653h-137l-146 336q-141 311 -153.5 353t-108.5 214z" />
<glyph unicode="w" horiz-adv-x="1638" d="M0 920l10 110q129 -18 213 -18t123 6l72 8l10 -113l-117 -14l56 -184l174 -500l256 797h82l280 -797l160 504q10 55 45 180l-131 21l10 110q143 -18 219 -18t109 6l59 6l8 -111l-106 -14q-98 -213 -102 -246l-220 -653h-137l-256 664l-223 -664h-137l-131 336 q-133 340 -142.5 370.5t-87.5 194.5z" />
<glyph unicode="x" horiz-adv-x="1107" d="M10 98l131 17q152 152 176 190l140 199l-160 219l-158 176l-108 21l10 110q143 -18 223 -18t121 6l78 8l10 -113l-98 -12q53 -90 65 -108l121 -175l113 175q8 14 29.5 55t31.5 57l-88 15l10 110q143 -18 221 -18t111 6l60 6l8 -111l-148 -18q-25 -29 -54.5 -64.5 t-58 -68.5t-32.5 -39l-127 -195l166 -223q33 -49 192 -194l103 -15l-11 -114l-92 8q-86 10 -145 10t-115 -8l-76 -6l-10 112l88 11q-39 76 -73 127l-127 176l-123 -176q-6 -8 -76 -132l92 -12l-10 -110l-96 8q-92 10 -158 10l-90 -6l-58 -6z" />
<glyph unicode="y" horiz-adv-x="1103" d="M10 920l10 110q143 -18 222.5 -18t117.5 6l72 8l10 -113l-127 -16q33 -115 56 -182l209 -518l188 522q31 90 53 180l-133 21l10 110q143 -18 219 -18t109 6l59 6l9 -111l-78 -10q-119 -240 -123 -250l-258 -653l-172 -481l-334 22l16 119q10 -2 33 -2h49q33 0 135 25 q66 98 80 135l58 164l-303 723q-8 27 -105 198z" />
<glyph unicode="z" horiz-adv-x="935" d="M72 119l86 96q86 94 108 129l256 377q82 143 103 184h-250q-14 0 -109 -12q-49 -98 -49 -127l-8 -72l-119 8l12 299l17 17l90 -4q47 -2 123 -2h495l15 -119l-37 -45q-100 -123 -139 -178l-252 -379q-25 -29 -103 -185h256q23 0 121 13q41 84 45 106q8 41 12 80l119 -12 l-18 -279l-21 -20l-241 6h-498z" />
<glyph unicode="{" horiz-adv-x="557" d="M72 627l8 59q18 0 71.5 32t67.5 60q0 174 -31 469l-30 287l26 27q82 0 226 4l120 4l7 -88l-179 -25l-8 -98q-8 -68 -8 -127l18 -500q-2 0 -73 -47l-41 -18v-19l41 -18q71 -47 73 -47l-18 -500q0 -61 8 -129l8 -96l179 -25l-7 -88l-120 4q-143 4 -226 4l-26 27l30 284 q31 295 31 472q-16 27 -70.5 59.5t-76.5 32.5z" />
<glyph unicode="|" horiz-adv-x="563" d="M205 -231l14 1787l133 -16l6 -1790z" />
<glyph unicode="}" horiz-adv-x="557" d="M20 -168l179 25l8 96q8 68 8 129l-18 500q23 18 71 47l43 18v19l-43 18q-48 29 -71 47l18 500q0 59 -8 127l-8 98l-179 25l7 88l120 -4q143 -4 226 -4l26 -27q-18 -145 -39.5 -363.5t-21.5 -392.5q14 -29 67.5 -60.5t71.5 -31.5l8 -59q-23 0 -77 -33t-70 -59 q0 -176 21.5 -396.5t39.5 -359.5l-26 -27q-82 0 -226 -4l-120 -4z" />
<glyph unicode="~" d="M96 436q43 68 74 107q82 106 152.5 106t259 -61.5t242 -61.5t145.5 113l82 -68q-43 -68 -74 -106q-82 -106 -147.5 -106.5t-258 61t-238.5 61.5t-104 -57l-51 -55z" />
<glyph unicode="&#xa1;" horiz-adv-x="468" d="M82 -467q10 100 27 326q26 473 26 565l-6 190l14 13l23 -4q29 -4 55 -5q49 0 62 5l8 -7q-2 -14 -2 -43v-88l8 -952l-8 -6h-23l-39 2q-14 0 -88 -6l-43 -4zM84 897q0 61 30.5 97t89 36t90.5 -34.5t32 -97t-31 -97.5t-90.5 -35t-90 35t-30.5 96z" />
<glyph unicode="&#xa2;" horiz-adv-x="989" d="M82 666.5q0 230.5 114.5 372t331.5 149.5l11 223l69 -6l-8 -219q76 -4 274 -70l-20 -256l-119 6v74q0 16 -14 70q-59 49 -127 59l-31 -799q150 0 277 74l57 -96q-41 -35 -92 -55q-123 -55 -248 -56l-8 -223l-72 6l8 219q-201 23 -302 160t-101 367.5zM274 667.5 q0 -155.5 53.5 -262t164.5 -129.5l32 793q-129 -12 -189.5 -129t-60.5 -272.5z" />
<glyph unicode="&#xa3;" horiz-adv-x="1169" d="M92 836l219 8v252q0 180 114 279.5t298 99.5q139 0 385 -66l-29 -301l-121 12v82q0 31 -24 115q-96 45 -209 45t-170 -59.5t-57 -167.5v-283l434 20l4 -69l-438 -21v-147l444 20l4 -69l-448 -21v-223q0 -109 6 -152l8 -73h262q72 0 178 18q31 41 43 76q2 16 15.5 70.5 t15.5 66.5l113 -10l-31 -324l-21 -22l-110 4q-115 4 -141 4h-521q-49 0 -127 -4l-65 -4l-10 106l157 19q41 115 41 164v274l-205 -8l-4 71l209 9v147l-215 -10z" />
<glyph unicode="&#xa5;" horiz-adv-x="1320" d="M10 1333l8 121l82 -6q94 -4 175 -4t157 6l80 8l4 -129l-129 -12q74 -205 92 -240l189 -368l241 475q10 20 49 139l-131 16l11 117l71 -6q39 -6 140.5 -6t179.5 6l80 8l2 -125l-140 -18l-155 -197l-271 -520v-29l328 15l2 -70l-330 -16v-146l334 15l4 -70l-338 -16 q4 -94 9 -113l6 -51l160 -13l-13 -112l-108 4q-127 4 -198 4t-148 -4l-66 -4l-10 106l158 19q12 66 20 155l-315 -14l-2 72l317 14v145l-322 -14l-4 72l322 14l-307 584q-51 68 -152 180z" />
<glyph unicode="&#xa6;" horiz-adv-x="522" d="M184 -231l4 665l148 -14l2 -670zM193 819l6 737l133 -16l2 -737z" />
<glyph unicode="&#xa7;" horiz-adv-x="1124" d="M137 1174.5q0 134.5 102.5 217.5t246 83t356.5 -54l-25 -268l-96 10v68q0 25 -25 92q-90 39 -179 39t-135 -44t-46 -122q0 -113 168 -201q66 -37 168 -89t151 -95q88 -76 88 -180q0 -51 -38 -109.5t-87 -93.5l-59 35q37 43 37 89t-19.5 80t-58.5 60.5t-75 45t-94 44 t-91 41.5q-131 59 -210 138t-79 213.5zM147 641q0 51 39 108.5t88 92.5l58 -35q-33 -41 -33 -84t18.5 -76t58.5 -61.5t72.5 -47t94 -47t110.5 -53t90 -51.5t91 -70q96 -84 96 -233.5t-114 -234.5t-308.5 -85t-349.5 91l24 278l113 -10v-80q0 -23 18 -111q104 -45 206 -45 t153 48.5t51 138.5q0 66 -51 127q-18 20 -66 49q-53 33 -149 80q-143 63 -226.5 135t-83.5 176z" />
<glyph unicode="&#xa8;" horiz-adv-x="712" d="M4 1337q0 57 29 90t82 33q111 0 110.5 -121.5t-111 -121.5t-110.5 120zM487 1337q0 57 29 90t82 33q111 0 111 -121.5t-111 -121.5t-111 120z" />
<glyph unicode="&#xa9;" horiz-adv-x="1730" d="M102 508.5q0 318.5 224.5 542t541 223.5t538.5 -221.5t222 -536.5t-224 -540.5t-539.5 -225.5t-539 220t-223.5 538.5zM207 514q0 -272 193.5 -465.5t466 -193.5t464 192.5t191.5 462.5t-193.5 464.5t-465 194.5t-464 -191.5t-192.5 -463.5zM461 510q0 207 108.5 330 t311.5 123q88 0 270 -41l-14 -203l-84 6v66q0 14 -15 57q-78 23 -155 22q-125 0 -192.5 -99t-67.5 -259t67.5 -260t192.5 -100q92 0 166 20q18 41 18 66l2 38v29l86 2l6 -207q-182 -41 -280 -41q-205 0 -312.5 122t-107.5 329z" />
<glyph unicode="&#xaa;" horiz-adv-x="690" d="M41 942q0 133 154 172q41 12 137 27.5t104 17.5v29q0 195 -117 194q-55 0 -118 -28l-8 -33q-6 -25 -7 -27v-45l-88 -4l-16 187q123 33 254 32.5t180 -71t49 -219.5v-199q0 -41 6 -64l9 -43l100 -10l-10 -88l-52 4q-66 4 -143 4l-18 115q-29 -51 -90.5 -90t-141.5 -39 t-132 47t-52 131zM176 950q0 -90 88 -90q68 0 115 41t57 109v69q-111 -18 -182 -32q-78 -20 -78 -97z" />
<glyph unicode="&#xab;" horiz-adv-x="851" d="M51 496l314 454l75 -51l-219 -403l219 -404l-75 -51zM385 496l307 446l74 -51l-213 -395l213 -396l-74 -51z" />
<glyph unicode="&#xac;" d="M106 483v146h932v-488h-145l4 351z" />
<glyph unicode="&#xad;" horiz-adv-x="577" d="M61 596h455l-10 -154h-440z" />
<glyph unicode="&#xae;" horiz-adv-x="1730" d="M102 508.5q0 318.5 224.5 542t541 223.5t538.5 -221.5t222 -536.5t-224 -540.5t-539.5 -225.5t-539 220t-223.5 538.5zM207 514q0 -272 193.5 -465.5t466 -193.5t464 192.5t191.5 462.5t-193.5 464.5t-465 194.5t-464 -191.5t-192.5 -463.5zM532 127l89 10l6 39l6 60v520 l-10 90l-88 12l6 72l39 -4q23 -2 77 -2h9l225 12q133 0 206.5 -61.5t73.5 -182.5q0 -84 -50 -142t-134 -85q59 -121 107 -207l22 -39l58 -80l79 -12l-8 -74q-31 0 -45 2l-86 2l-57 -4l-8 4l-29 62q-27 59 -39 82l-127 250q-66 0 -88 2v-181q0 -41 4 -90l4 -43l86 -8l-10 -78 q-29 0 -45 2l-123 2q-10 0 -90 -6l-47 -4zM766 526q11 -2 27 -2h47q90 -2 141 42t51 128t-51 127t-141 43q-45 0 -68 -6v-2l-4 -47q-2 -27 -2 -90v-193z" />
<glyph unicode="&#xaf;" horiz-adv-x="681" d="M4 1282v109h660l-11 -109h-649z" />
<glyph unicode="&#xb0;" horiz-adv-x="737" d="M61 1059q0 141 83 223t225.5 82t225.5 -82t83 -223t-83 -223t-225.5 -82t-225.5 82t-83 223zM219 1059q0 -88 38 -144.5t113.5 -56.5t112.5 57.5t37 143.5t-37 143.5t-112.5 57.5t-113.5 -56.5t-38 -144.5z" />
<glyph unicode="&#xb1;" d="M106 0v135l932 10v-145h-932zM106 616v144h394v391h133l4 -391h401v-133l-399 -4l4 -400h-143v398z" />
<glyph unicode="&#xb2;" horiz-adv-x="665" d="M82 752q25 25 79 72.5t78.5 71.5t62.5 64.5t54 67.5q45 78 45 131t-30.5 82t-71.5 29t-82 -25q-10 -37 -10 -57v-68l-103 -2l-14 203q123 35 221.5 35t167 -46t68.5 -141q0 -76 -49 -165q-25 -43 -93.5 -109t-144.5 -133h131l78 8l4 23q6 25 6 28l4 68l101 -4l-11 -211 l-10 -10q-47 0 -69 2l-88 2h-310z" />
<glyph unicode="&#xb3;" horiz-adv-x="679" d="M113 686l14 184l102 -4q-2 -10 -3 -25.5t-1 -37.5q0 -25 6 -53q31 -14 89.5 -14.5t88 32.5t29.5 87t-35 87t-88 33l-43 -2h-18l-14 65q96 10 136 44t40 96q0 92 -101 92q-41 0 -71 -15q-6 -18 -6 -57v-70l-99 -4l-16 193q121 37 214 37t155.5 -45t62.5 -131 q0 -109 -117 -152q150 -39 150 -172q0 -98 -74 -150.5t-191.5 -52.5t-209.5 35z" />
<glyph unicode="&#xb4;" horiz-adv-x="493" d="M0 1239l393 328l101 -127q-102 -57 -125 -72l-150 -88l-151 -125z" />
<glyph unicode="&#xb5;" horiz-adv-x="1187" d="M180 1006l13 12l32 -4q16 -2 51 -2t54 2l32 4l13 -12l-8 -129q-6 -72 -7 -207v-295q0 -264 207 -264q121 0 189.5 94t68.5 225v301l-14 275l12 12l29 -4q16 -2 53 -2t56 2l32 4l13 -12l-9 -129q-6 -72 -6 -207v-389q0 -94 24.5 -137.5t106.5 -88.5l-39 -86q-6 2 -44 14.5 t-71.5 27t-74.5 48t-57 80.5q-106 -160 -295 -159q-127 0 -203 88l10 -226q0 -20 21 -147l20 -117l-18 -16h-45q-33 0 -78 -4l-41 -4l-19 16l7 334v827z" />
<glyph unicode="&#xb6;" horiz-adv-x="1138" d="M29 1035q0 208 119.5 318.5t336.5 110.5q43 0 103 -6v-811l-56 -51q-215 0 -359 115.5t-144 323.5zM475 -72l197 15l8 69q10 68 10 146v1274l25 22q66 -10 134.5 -12t119.5 6l67 6l11 -102l-158 -25q-20 -127 -21 -164v-1067q0 -43 11 -149l10 -117l-23 -20l-133 6 q-90 0 -176 -4l-70 -5z" />
<glyph unicode="&#xb7;" horiz-adv-x="436" d="M82 612.5q0 63.5 35 103.5t96 40t96 -38t35 -103.5t-35 -104.5t-96 -39t-96 39t-35 102.5z" />
<glyph unicode="&#xb8;" horiz-adv-x="344" d="M-35 -444l27 71q72 -23 121 -22.5t78.5 25t29.5 71.5q0 88 -96 88l-27 -2h-16l-23 20l19 193h98l-29 -121q94 -2 150.5 -49t56.5 -129t-62.5 -132t-155.5 -50t-171 37z" />
<glyph unicode="&#xb9;" horiz-adv-x="573" d="M82 1159l76 55q23 18 56.5 43t35.5 27l43 43l33 37l80 -14l-9 -105q-6 -55 -6 -141v-223q0 -31 4 -80l6 -43l107 -10l-10 -89l-72 5q-86 4 -135 4t-111 -4l-51 -5l-8 82l131 17l10 92v305l-137 -65z" />
<glyph unicode="&#xba;" horiz-adv-x="745" d="M51 1114q0 160 83 255t238.5 95t238.5 -95t83 -255t-83 -255t-238.5 -95t-238.5 95t-83 255zM197 1114q0 -264 176 -264t176 264t-176 264t-176 -264z" />
<glyph unicode="&#xbb;" horiz-adv-x="849" d="M86 98l213 396l-213 395l74 51l307 -446l-307 -447zM412 90l217 404l-217 403l75 51l314 -454l-314 -455z" />
<glyph unicode="&#xbc;" horiz-adv-x="1523" d="M66 1159l75 55q23 18 56.5 43t35.5 27l43 43l33 37l80 -14l-8 -105q-6 -55 -6 -141v-223q0 -31 4 -80l6 -43l107 -10l-11 -89l-71 5q-86 4 -135.5 4t-110.5 -4l-51 -5l-9 82l132 17l10 92v305l-137 -65zM248 -35l889 1512l102 -66l-887 -1511zM834 272l305 478l100 -74 l-45 -53q-12 -16 -31.5 -40t-21.5 -28l-148 -260h78q49 0 96 2v121l115 37l4 -154l115 6v-98h-115v-12q0 -63 1 -83t3 -26l111 -10l-10 -88l-72 4q-86 4 -133 4t-101 -4l-47 -4l-8 82l129 16l4 31q4 33 4 47v43h-280z" />
<glyph unicode="&#xbd;" horiz-adv-x="1556" d="M66 1159l75 55q23 18 56.5 43t35.5 27l43 43l33 37l80 -14l-8 -105q-6 -55 -6 -141v-223q0 -31 4 -80l6 -43l107 -10l-11 -89l-71 5q-86 4 -135.5 4t-110.5 -4l-51 -5l-9 82l132 17l10 92v305l-137 -65zM248 -35l889 1512l102 -66l-887 -1511zM942 86q25 25 79 73 t78.5 71.5t62.5 64.5t55 70q45 76 45 129t-31 81.5t-72 28.5t-82 -24q-10 -37 -10 -58v-67l-102 -2l-15 202q123 35 221.5 35t167 -46t68.5 -140q0 -76 -49 -164q-25 -45 -93.5 -110.5t-144.5 -133.5h131l78 8l4 23q6 25 6 29l4 67l101 -4l-10 -211l-11 -10q-47 0 -69 2 l-88 2h-310z" />
<glyph unicode="&#xbe;" horiz-adv-x="1540" d="M82 686l14 184l103 -4q-2 -10 -3 -25.5t-1 -37.5q0 -25 6 -53q31 -14 89 -14.5t88 32.5t30 87t-35 87t-88 33l-43 -2h-19l-14 65q96 10 136 44t40 96q0 92 -100 92q-41 0 -72 -15q-6 -18 -6 -57v-70l-98 -4l-17 193q121 37 214 37t155.5 -45t62.5 -131q0 -109 -116 -152 q150 -39 149 -172q0 -98 -73.5 -150.5t-191.5 -52.5t-210 35zM268 -35l889 1512l103 -66l-887 -1511zM850 272l305 478l100 -74l-45 -53q-12 -16 -31.5 -40t-21.5 -28l-147 -260h77q49 0 97 2v121l114 37l5 -154l114 6v-98h-114v-12q0 -63 1 -83t3 -26l110 -10l-10 -88 l-72 4q-86 4 -133 4t-100 -4l-47 -4l-8 82l129 16l4 31q4 33 4 47v43h-281z" />
<glyph unicode="&#xbf;" horiz-adv-x="825" d="M-49 -38q0 200 110.5 317.5t325.5 128.5l-12 200l16 21l53 -6q78 -6 115 0l6 -293l-59 -54q-37 12 -84 13q-143 0 -211 -94.5t-68 -231.5t68 -231t211 -94q94 0 168 61q14 68 14 111l-4 73l119 6l24 -288q-174 -80 -321 -80q-229 0 -350 120.5t-121 320.5zM342 897 q0 61 30.5 97t89 36t90.5 -34.5t32 -97t-31 -97.5t-90.5 -35t-90 35t-30.5 96z" />
<glyph unicode="&#xc0;" horiz-adv-x="1404" d="M10 98l117 17q113 207 115 215l397 1114l111 22l225 -585q49 -125 106 -279q123 -324 131 -340q16 -49 78 -151l105 -11l-6 -108l-142 4q-152 4 -190.5 4t-91.5 -4l-50 -4l-10 108l146 15q-14 100 -31 149l-82 213l-510 -6l-84 -235q-14 -63 -22 -119h2l159 -17l-12 -108 l-127 4q-143 4 -193.5 4t-95.5 -4l-39 -4zM330 1749l61 149l469 -204l-41 -99l-180 76zM467 582q111 -4 158 -4t138 3t134 3l-223 581z" />
<glyph unicode="&#xc1;" horiz-adv-x="1404" d="M10 98l117 17q113 207 115 215l397 1114l111 22l225 -585q49 -125 106 -279q123 -324 131 -340q16 -49 78 -151l105 -11l-6 -108l-142 4q-152 4 -190.5 4t-91.5 -4l-50 -4l-10 108l146 15q-14 100 -31 149l-82 213l-510 -6l-84 -235q-14 -63 -22 -119h2l159 -17l-12 -108 l-127 4q-143 4 -193.5 4t-95.5 -4l-39 -4zM467 582q111 -4 158 -4t138 3t134 3l-223 581zM504 1694l469 204l61 -149l-139 -35q-29 -8 -70 -17t-66.5 -16.5t-33.5 -9.5l-180 -76z" />
<glyph unicode="&#xc2;" horiz-adv-x="1404" d="M10 98l117 17q113 207 115 215l397 1114l111 22l225 -585q49 -125 106 -279q123 -324 131 -340q16 -49 78 -151l105 -11l-6 -108l-142 4q-152 4 -190.5 4t-91.5 -4l-50 -4l-10 108l146 15q-14 100 -31 149l-82 213l-510 -6l-84 -235q-14 -63 -22 -119h2l159 -17l-12 -108 l-127 4q-143 4 -193.5 4t-95.5 -4l-39 -4zM326 1669l356 219l356 -219l-47 -80l-180 84l-129 51l-129 -51l-180 -84zM467 582q111 -4 158 -4t138 3t134 3l-223 581z" />
<glyph unicode="&#xc3;" horiz-adv-x="1404" d="M10 98l117 17q113 207 115 215l397 1114l111 22l225 -585q49 -125 106 -279q123 -324 131 -340q16 -49 78 -151l105 -11l-6 -108l-142 4q-152 4 -190.5 4t-91.5 -4l-50 -4l-10 108l146 15q-14 100 -31 149l-82 213l-510 -6l-84 -235q-14 -63 -22 -119h2l159 -17l-12 -108 l-127 4q-143 4 -193.5 4t-95.5 -4l-39 -4zM338 1659q18 45 53 102q63 104 109.5 104.5t174.5 -41.5t165 -42t80 51q14 16 32 53l74 -43q-96 -201 -170 -201q-41 0 -168 42t-161.5 42t-82.5 -55q-14 -20 -32 -55zM467 582q111 -4 158 -4t138 3t134 3l-223 581z" />
<glyph unicode="&#xc4;" horiz-adv-x="1404" d="M10 98l117 17q113 207 115 215l397 1114l111 22l225 -585q49 -125 106 -279q123 -324 131 -340q16 -49 78 -151l105 -11l-6 -108l-142 4q-152 4 -190.5 4t-91.5 -4l-50 -4l-10 108l146 15q-14 100 -31 149l-82 213l-510 -6l-84 -235q-14 -63 -22 -119h2l159 -17l-12 -108 l-127 4q-143 4 -193.5 4t-95.5 -4l-39 -4zM319 1745q0 57 29 90t82 33q111 0 111 -122t-111 -122t-111 121zM467 582q111 -4 158 -4t138 3t134 3l-223 581zM823 1745q0 57 29 90t82 33q111 0 110.5 -122t-111 -122t-110.5 121z" />
<glyph unicode="&#xc5;" horiz-adv-x="1404" d="M10 98l117 17q113 207 115 215l397 1114l111 22l225 -585q49 -125 106 -279q123 -324 131 -340q16 -49 78 -151l105 -11l-6 -108l-142 4q-152 4 -190.5 4t-91.5 -4l-50 -4l-10 108l146 15q-14 100 -31 149l-82 213l-510 -6l-84 -235q-14 -63 -22 -119h2l159 -17l-12 -108 l-127 4q-143 4 -193.5 4t-95.5 -4l-39 -4zM467 582q111 -4 158 -4t138 3t134 3l-223 581zM498 1742q0 81 47 128t137 47t136 -47t46 -128t-46 -128t-136 -47t-137 47t-47 128zM598 1742q0 -97 85 -97t85 97t-85 97t-85 -97z" />
<glyph unicode="&#xc6;" horiz-adv-x="1869" d="M10 98l127 19q117 156 131 196l484 1014l-152 25l10 102l66 -6q78 -4 129 -4h643q51 0 252 20l20 -22l15 -293l-119 -10q-16 88 -24.5 114.5t-39.5 65.5q-78 10 -166 10h-370q2 -10 8 -93t14 -128l49 -320l156 -6h98q49 0 123 19l19 135l94 -10q-2 -25 -2 -68v-96 q0 -106 2 -150l4 -73l-98 -13l-19 138l-67 6l-97 6h-57q-63 0 -137 -8l49 -312q4 -37 24.5 -128t26.5 -111h248q72 0 178 18q31 41 43 76q2 16 15.5 70.5t15.5 66.5l113 -10l-31 -324l-21 -22l-110 4q-115 4 -141 4h-535q-29 0 -82 -4l-49 -4l-10 108l143 15v22 q0 102 -6 129l-39 252l-434 -6l-144 -303q-8 -23 -28 -94l151 -15l-12 -108l-127 4q-143 4 -193.5 4t-95.5 -4l-39 -4zM557 621q51 -2 136 -2.5t229 4.5l-78 516l-15 57z" />
<glyph unicode="&#xc7;" horiz-adv-x="1316" d="M92 720q0 -345 176 -548t508 -203q174 0 469 70l-12 309l-125 -4v-41q0 -27 -2 -54.5t-33 -115.5q-156 -45 -295 -45q-225 0 -346 178t-121 456.5t121 456t346 177.5q121 0 277 -47q25 -70 24 -103v-96l125 -8l23 303q-18 4 -121 29q-164 41 -330 41q-332 0 -508 -205 t-176 -550zM600 -444l27 71q72 -23 121 -22.5t78.5 25t29.5 71.5q0 88 -96 88l-27 -2h-16l-23 20l19 193h98l-29 -121q94 -2 150.5 -49t56.5 -129t-62.5 -132t-155.5 -50t-171 37z" />
<glyph unicode="&#xc8;" horiz-adv-x="1150" d="M61 98l158 19q2 18 11.5 70.5t9.5 93.5v882q0 31 -9.5 83t-11.5 81l-158 25l11 102l57 -6q66 -4 117 -4h524q53 0 252 20l20 -22l15 -293l-119 -10q-16 88 -24.5 114.5t-39.5 65.5q-78 10 -165 10h-269q-12 -82 -12 -227v-295q70 -4 86 -4h150q49 0 122 18l19 135l94 -10 q-2 -25 -2 -67v-97q0 -106 2 -149l4 -74l-98 -12l-19 137l-67 6l-96 6h-109q-20 0 -86 -4v-350q0 -139 12 -225h295q84 0 178 16q29 39 43 78q2 16 15.5 70.5t15.5 66.5l113 -10l-31 -324l-20 -22l-111 4q-115 4 -141 4h-490q-70 0 -147 -10l-84 -8zM307 1749l62 149 l469 -204l-41 -99l-181 76z" />
<glyph unicode="&#xc9;" horiz-adv-x="1150" d="M61 98l158 19q2 18 11.5 70.5t9.5 93.5v882q0 31 -9.5 83t-11.5 81l-158 25l11 102l57 -6q66 -4 117 -4h524q53 0 252 20l20 -22l15 -293l-119 -10q-16 88 -24.5 114.5t-39.5 65.5q-78 10 -165 10h-269q-12 -82 -12 -227v-295q70 -4 86 -4h150q49 0 122 18l19 135l94 -10 q-2 -25 -2 -67v-97q0 -106 2 -149l4 -74l-98 -12l-19 137l-67 6l-96 6h-109q-20 0 -86 -4v-350q0 -139 12 -225h295q84 0 178 16q29 39 43 78q2 16 15.5 70.5t15.5 66.5l113 -10l-31 -324l-20 -22l-111 4q-115 4 -141 4h-490q-70 0 -147 -10l-84 -8zM481 1694l469 204 l62 -149l-140 -35q-29 -8 -69.5 -17t-66 -16.5t-34.5 -9.5l-180 -76z" />
<glyph unicode="&#xca;" horiz-adv-x="1150" d="M61 98l158 19q2 18 11.5 70.5t9.5 93.5v882q0 31 -9.5 83t-11.5 81l-158 25l11 102l57 -6q66 -4 117 -4h524q53 0 252 20l20 -22l15 -293l-119 -10q-16 88 -24.5 114.5t-39.5 65.5q-78 10 -165 10h-269q-12 -82 -12 -227v-295q70 -4 86 -4h150q49 0 122 18l19 135l94 -10 q-2 -25 -2 -67v-97q0 -106 2 -149l4 -74l-98 -12l-19 137l-67 6l-96 6h-109q-20 0 -86 -4v-350q0 -139 12 -225h295q84 0 178 16q29 39 43 78q2 16 15.5 70.5t15.5 66.5l113 -10l-31 -324l-20 -22l-111 4q-115 4 -141 4h-490q-70 0 -147 -10l-84 -8zM303 1669l356 219 l357 -219l-47 -80l-181 84l-129 51l-129 -51l-180 -84z" />
<glyph unicode="&#xcb;" horiz-adv-x="1150" d="M61 98l158 19q2 18 11.5 70.5t9.5 93.5v882q0 31 -9.5 83t-11.5 81l-158 25l11 102l57 -6q66 -4 117 -4h524q53 0 252 20l20 -22l15 -293l-119 -10q-16 88 -24.5 114.5t-39.5 65.5q-78 10 -165 10h-269q-12 -82 -12 -227v-295q70 -4 86 -4h150q49 0 122 18l19 135l94 -10 q-2 -25 -2 -67v-97q0 -106 2 -149l4 -74l-98 -12l-19 137l-67 6l-96 6h-109q-20 0 -86 -4v-350q0 -139 12 -225h295q84 0 178 16q29 39 43 78q2 16 15.5 70.5t15.5 66.5l113 -10l-31 -324l-20 -22l-111 4q-115 4 -141 4h-490q-70 0 -147 -10l-84 -8zM297 1745q0 57 29 90 t82 33q111 0 110.5 -122t-111 -122t-110.5 121zM801 1745q0 57 28.5 90t81.5 33q111 0 111 -122t-110.5 -122t-110.5 121z" />
<glyph unicode="&#xcc;" horiz-adv-x="702" d="M16 1749l62 149l469 -204l-41 -99l-180 76zM82 98l158 19q2 18 11 70.5t9 93.5v882q0 31 -9 83t-11 81l-158 19l10 108l66 -6q78 -4 168 -4t174 8l108 8l13 -121l-160 -12l-8 -74q-6 -43 -7 -151v-760q0 -109 7 -152l8 -73l160 -13l-13 -112l-108 4q-127 4 -195.5 4 t-146.5 -4l-66 -4z" />
<glyph unicode="&#xcd;" horiz-adv-x="702" d="M82 98l158 19q2 18 11 70.5t9 93.5v882q0 31 -9 83t-11 81l-158 19l10 108l66 -6q78 -4 168 -4t174 8l108 8l13 -121l-160 -12l-8 -74q-6 -43 -7 -151v-760q0 -109 7 -152l8 -73l160 -13l-13 -112l-108 4q-127 4 -195.5 4t-146.5 -4l-66 -4zM190 1694l469 204l62 -149 l-139 -35q-29 -8 -70 -17t-66.5 -16.5t-33.5 -9.5l-181 -76z" />
<glyph unicode="&#xce;" horiz-adv-x="702" d="M12 1669l357 219l356 -219l-47 -80l-180 84l-129 51l-129 -51l-181 -84zM82 98l158 19q2 18 11 70.5t9 93.5v882q0 31 -9 83t-11 81l-158 19l10 108l66 -6q78 -4 168 -4t174 8l108 8l13 -121l-160 -12l-8 -74q-6 -43 -7 -151v-760q0 -109 7 -152l8 -73l160 -13l-13 -112 l-108 4q-127 4 -195.5 4t-146.5 -4l-66 -4z" />
<glyph unicode="&#xcf;" horiz-adv-x="702" d="M6 1745q0 57 29 90t82 33q111 0 110.5 -122t-111 -122t-110.5 121zM82 98l158 19q2 18 11 70.5t9 93.5v882q0 31 -9 83t-11 81l-158 19l10 108l66 -6q78 -4 168 -4t174 8l108 8l13 -121l-160 -12l-8 -74q-6 -43 -7 -151v-760q0 -109 7 -152l8 -73l160 -13l-13 -112 l-108 4q-127 4 -195.5 4t-146.5 -4l-66 -4zM510 1745q0 57 29 90t82 33q111 0 110.5 -122t-111 -122t-110.5 121z" />
<glyph unicode="&#xd0;" horiz-adv-x="1486" d="M90 690v88h180v385q0 31 -9 83t-11 81l-158 25l10 102l54 -4q92 -6 108 -6l424 20q338 0 522.5 -198.5t184.5 -539.5t-189.5 -545t-517.5 -204l-414 21q-80 -4 -112 -10l-56 -6l-14 116l158 19q2 18 11 70.5t9 93.5v409h-180zM459 342l12 -233q74 -8 219 -9 q246 0 374 174.5t128 446.5t-128 446t-374 174q-133 0 -219 -10q-12 -78 -12 -229v-324h291l-11 -88h-280v-348z" />
<glyph unicode="&#xd1;" horiz-adv-x="1564" d="M61 98l158 19q2 18 11.5 70.5t9.5 93.5v882q0 33 -9.5 88.5t-11.5 77.5l-156 17l11 108l86 -6q94 -4 139 -4t107 4l51 4l10 -12q31 -74 91 -203t77 -152l536 -751v809q0 39 -9 96t-11 88l-158 16l11 111l65 -6q78 -4 166 -4t162 8l94 8l12 -121l-160 -12l-18 -84 q-16 -98 -16 -162v-473l-2 -342v-280h-123l-807 1153v-797q0 -109 6 -152l8 -73l160 -13l-12 -112l-74 4q-94 4 -169 4t-146 -10l-74 -8zM403 1659q18 45 54 102q63 104 109 104.5t174 -41.5t165 -42t80 51q14 16 33 53l74 -43q-96 -201 -170 -201q-41 0 -168 42t-162 42 t-82 -55q-16 -20 -33 -55z" />
<glyph unicode="&#xd2;" horiz-adv-x="1527" d="M92 722q0 343 173 548t499 205t499 -205t173 -548t-173 -548t-499 -205t-499 205t-173 548zM311 721q0 -283 117 -463t336 -180t336 180t117 463t-117 464t-336 181t-336 -181t-117 -464zM414 1749l61 149l469 -204l-41 -99l-180 76z" />
<glyph unicode="&#xd3;" horiz-adv-x="1527" d="M92 722q0 343 173 548t499 205t499 -205t173 -548t-173 -548t-499 -205t-499 205t-173 548zM311 721q0 -283 117 -463t336 -180t336 180t117 463t-117 464t-336 181t-336 -181t-117 -464zM588 1694l469 204l61 -149l-139 -35q-29 -8 -70 -17t-66.5 -16.5t-33.5 -9.5 l-180 -76z" />
<glyph unicode="&#xd4;" horiz-adv-x="1527" d="M92 722q0 343 173 548t499 205t499 -205t173 -548t-173 -548t-499 -205t-499 205t-173 548zM311 721q0 -283 117 -463t336 -180t336 180t117 463t-117 464t-336 181t-336 -181t-117 -464zM410 1669l356 219l356 -219l-47 -80l-180 84l-129 51l-129 -51l-180 -84z" />
<glyph unicode="&#xd5;" horiz-adv-x="1527" d="M92 722q0 343 173 548t499 205t499 -205t173 -548t-173 -548t-499 -205t-499 205t-173 548zM311 721q0 -283 117 -463t336 -180t336 180t117 463t-117 464t-336 181t-336 -181t-117 -464zM422 1659q18 45 53 102q63 104 109.5 104.5t174.5 -41.5t165 -42t80 51 q14 16 32 53l74 -43q-96 -201 -170 -201q-41 0 -168 42t-162 42t-82 -55q-16 -20 -32 -55z" />
<glyph unicode="&#xd6;" horiz-adv-x="1527" d="M92 722q0 343 173 548t499 205t499 -205t173 -548t-173 -548t-499 -205t-499 205t-173 548zM311 721q0 -283 117 -463t336 -180t336 180t117 463t-117 464t-336 181t-336 -181t-117 -464zM403 1745q0 57 29 90t82 33q111 0 111 -122t-111 -122t-111 121zM907 1745 q0 57 29 90t82 33q111 0 110.5 -122t-111 -122t-110.5 121z" />
<glyph unicode="&#xd7;" d="M145 829l103 103l323 -320l320 324l108 -109l-319 -319l321 -315l-108 -109l-320 317l-321 -319l-102 102l317 324z" />
<glyph unicode="&#xd8;" horiz-adv-x="1548" d="M113 722q0 343 173 548t498.5 205t498.5 -205t173 -548t-173 -548t-498.5 -205t-498.5 205t-173 548zM231 -231l1024 1947l86 -47l-1028 -1948zM332 721q0 -283 116.5 -463t336 -180t336 180t116.5 463t-116.5 464t-336 181t-336 -181t-116.5 -464z" />
<glyph unicode="&#xd9;" horiz-adv-x="1533" d="M61 1352l11 102l65 -6q78 -4 171 -4t177 8l111 8l12 -121l-159 -12l-9 -80q-6 -47 -6 -155v-529q0 -205 92 -334t264.5 -129t266.5 130t94 333v590q0 25 -10.5 85t-12.5 89l-155 16l10 111l49 -6q61 -4 159.5 -4t174.5 8l94 8l13 -121l-160 -12l-8 -80q-6 -47 -7 -155 v-529q0 -270 -137 -432t-392 -162t-392 166t-137 438v580q0 37 -9.5 91t-11.5 83zM438 1749l62 149l469 -204l-41 -99l-180 76z" />
<glyph unicode="&#xda;" horiz-adv-x="1533" d="M61 1352l11 102l65 -6q78 -4 171 -4t177 8l111 8l12 -121l-159 -12l-9 -80q-6 -47 -6 -155v-529q0 -205 92 -334t264.5 -129t266.5 130t94 333v590q0 25 -10.5 85t-12.5 89l-155 16l10 111l49 -6q61 -4 159.5 -4t174.5 8l94 8l13 -121l-160 -12l-8 -80q-6 -47 -7 -155 v-529q0 -270 -137 -432t-392 -162t-392 166t-137 438v580q0 37 -9.5 91t-11.5 83zM612 1694l469 204l62 -149l-139 -35q-29 -8 -70 -17t-66.5 -16.5t-33.5 -9.5l-181 -76z" />
<glyph unicode="&#xdb;" horiz-adv-x="1533" d="M61 1352l11 102l65 -6q78 -4 171 -4t177 8l111 8l12 -121l-159 -12l-9 -80q-6 -47 -6 -155v-529q0 -205 92 -334t264.5 -129t266.5 130t94 333v590q0 25 -10.5 85t-12.5 89l-155 16l10 111l49 -6q61 -4 159.5 -4t174.5 8l94 8l13 -121l-160 -12l-8 -80q-6 -47 -7 -155 v-529q0 -270 -137 -432t-392 -162t-392 166t-137 438v580q0 37 -9.5 91t-11.5 83zM434 1669l357 219l356 -219l-47 -80l-180 84l-129 51l-129 -51l-181 -84z" />
<glyph unicode="&#xdc;" horiz-adv-x="1533" d="M61 1352l11 102l65 -6q78 -4 171 -4t177 8l111 8l12 -121l-159 -12l-9 -80q-6 -47 -6 -155v-529q0 -205 92 -334t264.5 -129t266.5 130t94 333v590q0 25 -10.5 85t-12.5 89l-155 16l10 111l49 -6q61 -4 159.5 -4t174.5 8l94 8l13 -121l-160 -12l-8 -80q-6 -47 -7 -155 v-529q0 -270 -137 -432t-392 -162t-392 166t-137 438v580q0 37 -9.5 91t-11.5 83zM428 1745q0 57 29 90t82 33q111 0 110.5 -122t-111 -122t-110.5 121zM932 1745q0 57 28.5 90t81.5 33q111 0 111 -122t-110.5 -122t-110.5 121z" />
<glyph unicode="&#xdd;" horiz-adv-x="1320" d="M10 1333l8 121l82 -6q94 -4 175 -4t157 6l80 8l4 -129l-129 -12q74 -205 92 -240l189 -368l241 475q10 20 49 139l-131 16l11 117l71 -6q39 -6 140.5 -6t179.5 6l80 8l2 -125l-140 -18l-155 -197l-271 -520v-256q0 -109 7 -152l8 -73l160 -13l-13 -112l-108 4 q-127 4 -198 4t-148 -4l-66 -4l-10 106l158 19q2 18 11 70.5t9 93.5v272l-311 592q-51 68 -152 180zM487 1694l469 204l62 -149l-139 -35q-29 -8 -70 -17t-66.5 -16.5t-33.5 -9.5l-181 -76z" />
<glyph unicode="&#xde;" horiz-adv-x="1142" d="M61 98l158 19q2 18 11.5 70.5t9.5 93.5v882q0 31 -9.5 83t-11.5 81l-158 25l11 102l65 -6q78 -4 168 -4t174 8l109 8l12 -121l-160 -12l-6 -53q-4 -18 -8 -119q186 14 229 14q217 0 337 -110.5t120 -318.5t-144.5 -323.5t-359.5 -115.5q-123 0 -180 2q0 -68 10 -123 l8 -53l197 -14l-12 -121l-109 4q-127 4 -205.5 4t-156.5 -10l-84 -8zM428 412q67 -9 139 -9q164 0 258.5 84t94.5 246t-93.5 248t-257.5 86q-31 0 -141 -12v-643z" />
<glyph unicode="&#xdf;" horiz-adv-x="1216" d="M53 987q20 6 58 17q80 25 106 43v135q0 190 109.5 292.5t296 102.5t308.5 -86t122 -244q0 -152 -109 -243q-45 -37 -91 -69t-78 -73t-32 -90t49.5 -91t120 -78t140 -77t119 -107.5t49.5 -148.5q0 -154 -85 -222t-253 -68t-316 79l23 279l119 -6v-78q0 -39 24 -123 q49 -47 152 -47q162 0 162 156q0 98 -121 159q-131 66 -230 131q-51 35 -86 93.5t-35 134.5t35 133t84 92t97 70q119 82 118.5 186t-79 160.5t-214 56.5t-184.5 -82t-49 -256v-776q0 -90 14 -338l-12 -12l-31 4q-45 4 -104.5 4t-124.5 -4l-53 -4l-11 104l136 21 q2 18 11 70.5t9 93.5v620h-158z" />
<glyph unicode="&#xe0;" horiz-adv-x="1050" d="M82 240.5q0 115.5 59.5 175t149.5 83t393 70.5v68q0 283 -192 283q-113 0 -191 -39q-18 -92 -18 -97v-73l-119 -6l-23 276q184 49 374 49t262.5 -106.5t72.5 -327.5v-315q0 -47 20 -164l142 -11l-13 -114l-67 4q-94 4 -199 4l-28 162q-41 -76 -138.5 -129t-216.5 -53 t-193.5 72.5t-74.5 188zM160 1440l100 127l393 -328l-67 -84l-152 125q-29 14 -149 88zM262 262q0 -152 166 -151q88 0 164 65.5t92 165.5v123q-10 -2 -117.5 -20.5t-175.5 -34.5q-129 -33 -129 -148z" />
<glyph unicode="&#xe1;" horiz-adv-x="1050" d="M82 240.5q0 115.5 59.5 175t149.5 83t393 70.5v68q0 283 -192 283q-113 0 -191 -39q-18 -92 -18 -97v-73l-119 -6l-23 276q184 49 374 49t262.5 -106.5t72.5 -327.5v-315q0 -47 20 -164l142 -11l-13 -114l-67 4q-94 4 -199 4l-28 162q-41 -76 -138.5 -129t-216.5 -53 t-193.5 72.5t-74.5 188zM262 262q0 -152 166 -151q88 0 164 65.5t92 165.5v123q-10 -2 -117.5 -20.5t-175.5 -34.5q-129 -33 -129 -148zM326 1239l393 328l100 -127q-102 -57 -125 -72l-149 -88l-152 -125z" />
<glyph unicode="&#xe2;" horiz-adv-x="1050" d="M82 240.5q0 115.5 59.5 175t149.5 83t393 70.5v68q0 283 -192 283q-113 0 -191 -39q-18 -92 -18 -97v-73l-119 -6l-23 276q184 49 374 49t262.5 -106.5t72.5 -327.5v-315q0 -47 20 -164l142 -11l-13 -114l-67 4q-94 4 -199 4l-28 162q-41 -76 -138.5 -129t-216.5 -53 t-193.5 72.5t-74.5 188zM152 1221l340 346l339 -346l-67 -66l-152 125q-57 37 -120 86q-23 -16 -50.5 -36.5t-46.5 -33.5l-24 -16l-152 -125zM262 262q0 -152 166 -151q88 0 164 65.5t92 165.5v123q-10 -2 -117.5 -20.5t-175.5 -34.5q-129 -33 -129 -148z" />
<glyph unicode="&#xe3;" horiz-adv-x="1050" d="M82 240.5q0 115.5 59.5 175t149.5 83t393 70.5v68q0 283 -192 283q-113 0 -191 -39q-18 -92 -18 -97v-73l-119 -6l-23 276q184 49 374 49t262.5 -106.5t72.5 -327.5v-315q0 -47 20 -164l142 -11l-13 -114l-67 4q-94 4 -199 4l-28 162q-41 -76 -138.5 -129t-216.5 -53 t-193.5 72.5t-74.5 188zM156 1253q18 45 53 103q63 104 109.5 104t164 -42t154.5 -42t80 51q14 16 33 54l73 -43q-96 -201 -170 -201q-43 0 -157.5 42t-150.5 42t-83 -55q-14 -20 -33 -56zM262 262q0 -152 166 -151q88 0 164 65.5t92 165.5v123q-10 -2 -117.5 -20.5 t-175.5 -34.5q-129 -33 -129 -148z" />
<glyph unicode="&#xe4;" horiz-adv-x="1050" d="M82 240.5q0 115.5 59.5 175t149.5 83t393 70.5v68q0 283 -192 283q-113 0 -191 -39q-18 -92 -18 -97v-73l-119 -6l-23 276q184 49 374 49t262.5 -106.5t72.5 -327.5v-315q0 -47 20 -164l142 -11l-13 -114l-67 4q-94 4 -199 4l-28 162q-41 -76 -138.5 -129t-216.5 -53 t-193.5 72.5t-74.5 188zM137 1337q0 57 29 90t82 33q111 0 110.5 -121.5t-111 -121.5t-110.5 120zM262 262q0 -152 166 -151q88 0 164 65.5t92 165.5v123q-10 -2 -117.5 -20.5t-175.5 -34.5q-129 -33 -129 -148zM621 1337q0 57 28.5 90t81.5 33q111 0 111 -121.5 t-110.5 -121.5t-110.5 120z" />
<glyph unicode="&#xe5;" horiz-adv-x="1050" d="M82 240.5q0 115.5 59.5 175t149.5 83t393 70.5v68q0 283 -192 283q-113 0 -191 -39q-18 -92 -18 -97v-73l-119 -6l-23 276q184 49 374 49t262.5 -106.5t72.5 -327.5v-315q0 -47 20 -164l142 -11l-13 -114l-67 4q-94 4 -199 4l-28 162q-41 -76 -138.5 -129t-216.5 -53 t-193.5 72.5t-74.5 188zM262 262q0 -152 166 -151q88 0 164 65.5t92 165.5v123q-10 -2 -117.5 -20.5t-175.5 -34.5q-129 -33 -129 -148zM305 1363q0 81 47 128t137.5 47t136.5 -47t46 -128t-46 -128t-136.5 -47t-137.5 47t-47 128zM406 1363q0 -97 84.5 -97t84.5 97 t-84.5 97t-84.5 -97z" />
<glyph unicode="&#xe6;" horiz-adv-x="1542" d="M82 240.5q0 115.5 59.5 175t149.5 83t393 70.5v68q0 283 -192 283q-113 0 -191 -39q-18 -92 -18 -97v-73l-119 -6l-23 276q184 49 383 49t271 -133q121 131 307 131q365 0 389 -393l-31 -78l-612 -68q4 -156 75.5 -266t202.5 -110q166 0 306 84l57 -95 q-147 -123 -363 -122q-131 0 -232 57t-155 160q-139 -217 -381 -217q-127 0 -201.5 72.5t-74.5 188zM262 262q0 -72 39 -111.5t111 -39.5q133 0 202.5 102t69.5 252q-10 -2 -117.5 -20.5t-175.5 -34.5q-129 -33 -129 -148zM850 592l457 67v5q0 119 -52.5 188.5t-160.5 69.5 q-211 0 -244 -330z" />
<glyph unicode="&#xe7;" horiz-adv-x="989" d="M82 503.5q0 241.5 121 384t350 142.5q74 0 125 -12q66 -16 196 -60l-20 -256l-119 7v73q0 16 -14 70q-74 61 -168 61q-143 0 -211 -118.5t-68 -289.5t68 -281.5t212 -110.5t286 73l57 -96q-39 -33 -94 -55q-106 -55 -252 -55q-227 0 -348 141t-121 382.5zM403 -444l27 71 q72 -23 121 -22.5t78.5 25t29.5 71.5q0 88 -96 88l-26 -2h-17l-22 20l18 193h98l-28 -121q94 -2 150.5 -49t56.5 -129t-62.5 -132t-156 -50t-171.5 37z" />
<glyph unicode="&#xe8;" horiz-adv-x="972" d="M82 501.5q0 239.5 113.5 383t332.5 143.5q393 0 394 -475l-35 -68h-613q4 -152 77 -262t202 -110q166 0 305 84l57 -95q-147 -123 -368 -122.5t-343 141.5t-122 380.5zM211 1440l100 127l394 -328l-68 -84l-152 125q-31 14 -149 88zM276 590q387 33 455 33v16l2 25 q0 119 -52 188.5t-161 69.5q-211 0 -244 -332z" />
<glyph unicode="&#xe9;" horiz-adv-x="972" d="M82 501.5q0 239.5 113.5 383t332.5 143.5q393 0 394 -475l-35 -68h-613q4 -152 77 -262t202 -110q166 0 305 84l57 -95q-147 -123 -368 -122.5t-343 141.5t-122 380.5zM276 590q387 33 455 33v16l2 25q0 119 -52 188.5t-161 69.5q-211 0 -244 -332zM377 1239l393 328 l100 -127q-102 -57 -125 -72l-149 -88l-152 -125z" />
<glyph unicode="&#xea;" horiz-adv-x="972" d="M82 501.5q0 239.5 113.5 383t332.5 143.5q393 0 394 -475l-35 -68h-613q4 -152 77 -262t202 -110q166 0 305 84l57 -95q-147 -123 -368 -122.5t-343 141.5t-122 380.5zM203 1221l340 346l340 -346l-68 -66l-151 125q-57 37 -121 86q-23 -16 -50.5 -36.5t-46.5 -33.5 l-24 -16l-152 -125zM276 590q387 33 455 33v16l2 25q0 119 -52 188.5t-161 69.5q-211 0 -244 -332z" />
<glyph unicode="&#xeb;" horiz-adv-x="972" d="M82 501.5q0 239.5 113.5 383t332.5 143.5q393 0 394 -475l-35 -68h-613q4 -152 77 -262t202 -110q166 0 305 84l57 -95q-147 -123 -368 -122.5t-343 141.5t-122 380.5zM188 1337q0 57 29 90t82 33q111 0 111 -121.5t-111 -121.5t-111 120zM276 590q387 33 455 33v16l2 25 q0 119 -52 188.5t-161 69.5q-211 0 -244 -332zM672 1337q0 57 28.5 90t81.5 33q111 0 111 -121.5t-110.5 -121.5t-110.5 120z" />
<glyph unicode="&#xec;" horiz-adv-x="612" d="M-74 1440l101 127l393 -328l-68 -84l-151 125q-29 14 -150 88zM53 92l158 25q2 18 11 70.5t9 93.5v450q0 31 -9 83t-11 81l-156 25l11 110q143 -18 212.5 -18t88.5 2l32 4l13 -12l-9 -129q-6 -72 -6 -207v-328q0 -109 6 -152l9 -73l159 -13l-12 -112l-98 4 q-115 4 -184.5 4t-147.5 -4l-66 -4z" />
<glyph unicode="&#xed;" horiz-adv-x="612" d="M53 92l158 25q2 18 11 70.5t9 93.5v450q0 31 -9 83t-11 81l-156 25l11 110q143 -18 212.5 -18t88.5 2l32 4l13 -12l-9 -129q-6 -72 -6 -207v-328q0 -109 6 -152l9 -73l159 -13l-12 -112l-98 4q-115 4 -184.5 4t-147.5 -4l-66 -4zM92 1239l393 328l101 -127 q-102 -57 -125 -72l-150 -88l-151 -125z" />
<glyph unicode="&#xee;" horiz-adv-x="612" d="M-82 1221l340 346l340 -346l-68 -66l-151 125q-57 37 -121 86q-23 -16 -50.5 -36.5t-45.5 -33.5l-25 -16l-151 -125zM53 92l158 25q2 18 11 70.5t9 93.5v450q0 31 -9 83t-11 81l-156 25l11 110q143 -18 212.5 -18t88.5 2l32 4l13 -12l-9 -129q-6 -72 -6 -207v-328 q0 -109 6 -152l9 -73l159 -13l-12 -112l-98 4q-115 4 -184.5 4t-147.5 -4l-66 -4z" />
<glyph unicode="&#xef;" horiz-adv-x="612" d="M-14 1337q0 57 28.5 90t81.5 33q111 0 111 -121.5t-110.5 -121.5t-110.5 120zM53 92l158 25q2 18 11 70.5t9 93.5v450q0 31 -9 83t-11 81l-156 25l11 110q143 -18 212.5 -18t88.5 2l32 4l13 -12l-9 -129q-6 -72 -6 -207v-328q0 -109 6 -152l9 -73l159 -13l-12 -112l-98 4 q-115 4 -184.5 4t-147.5 -4l-66 -4zM346 1337q0 57 29 90t82 33q111 0 110.5 -121.5t-111 -121.5t-110.5 120z" />
<glyph unicode="&#xf0;" horiz-adv-x="1116" d="M82 482.5q0 224.5 123 365.5t321 141q55 0 144 -33l-17 -92q-35 8 -108 8q-133 0 -201 -111.5t-68 -278.5t67 -276.5t211 -109.5t210.5 118t66.5 300q0 469 -208 741l-254 -129l-45 72l239 125q-88 92 -221 160l39 84q170 -68 295 -187l235 123l45 -76l-217 -110 q139 -156 212 -365t73 -445.5t-123 -381.5t-345 -145t-348 139t-126 363.5z" />
<glyph unicode="&#xf1;" horiz-adv-x="1249" d="M53 932l10 104l64 -6q39 -6 103.5 -6t78.5 2l25 4l12 -12l27 -162q39 68 118.5 121t202.5 53q199 0 269.5 -115.5t70.5 -347.5v-225q0 -109 6 -152l9 -73l161 -13l-12 -112l-90 4q-111 4 -187.5 4t-142.5 -4l-55 -4l-10 104l135 21q2 18 11 70.5t9 93.5v356 q0 119 -52 189.5t-161.5 70.5t-180.5 -81t-79 -198v-276q0 -109 6 -152l9 -73l161 -13l-12 -112l-92 4q-111 4 -187.5 4t-142.5 -4l-53 -4l-10 104l135 21q2 18 11 70.5t9 93.5v450q0 12 -10 69.5t-18 106.5zM307 1253q18 45 53 103q63 104 109.5 104t164.5 -42t154.5 -42 t79.5 51q14 16 33 54l74 -43q-96 -201 -170 -201q-43 0 -158 42t-150.5 42t-82.5 -55q-16 -20 -33 -56z" />
<glyph unicode="&#xf2;" horiz-adv-x="1105" d="M82 504.5q0 240.5 122 383t351 142.5t349 -141t120 -383t-122 -384t-349 -142t-349 142t-122 382.5zM223 1440l101 127l393 -328l-68 -84l-151 125q-29 14 -150 88zM274 504q0 -178 66 -293t213 -115t212.5 115t65.5 293t-65.5 293.5t-212.5 115.5t-213 -115.5 t-66 -293.5z" />
<glyph unicode="&#xf3;" horiz-adv-x="1105" d="M82 504.5q0 240.5 122 383t351 142.5t349 -141t120 -383t-122 -384t-349 -142t-349 142t-122 382.5zM274 504q0 -178 66 -293t213 -115t212.5 115t65.5 293t-65.5 293.5t-212.5 115.5t-213 -115.5t-66 -293.5zM389 1239l393 328l101 -127q-102 -57 -125 -72l-150 -88 l-151 -125z" />
<glyph unicode="&#xf4;" horiz-adv-x="1105" d="M82 504.5q0 240.5 122 383t351 142.5t349 -141t120 -383t-122 -384t-349 -142t-349 142t-122 382.5zM215 1221l340 346l340 -346l-68 -66l-151 125q-57 37 -121 86q-23 -16 -50.5 -36.5t-45.5 -33.5l-25 -16l-151 -125zM274 504q0 -178 66 -293t213 -115t212.5 115 t65.5 293t-65.5 293.5t-212.5 115.5t-213 -115.5t-66 -293.5z" />
<glyph unicode="&#xf5;" horiz-adv-x="1105" d="M82 504.5q0 240.5 122 383t351 142.5t349 -141t120 -383t-122 -384t-349 -142t-349 142t-122 382.5zM219 1253q18 45 53 103q63 104 109.5 104t164.5 -42t154.5 -42t79.5 51q14 16 33 54l74 -43q-96 -201 -170 -201q-41 0 -158 42t-151.5 42t-81.5 -55q-16 -20 -33 -56z M274 504q0 -178 66 -293t213 -115t212.5 115t65.5 293t-65.5 293.5t-212.5 115.5t-213 -115.5t-66 -293.5z" />
<glyph unicode="&#xf6;" horiz-adv-x="1105" d="M82 504.5q0 240.5 122 383t351 142.5t349 -141t120 -383t-122 -384t-349 -142t-349 142t-122 382.5zM201 1337q0 57 28.5 90t81.5 33q111 0 111 -121.5t-110.5 -121.5t-110.5 120zM274 504q0 -178 66 -293t213 -115t212.5 115t65.5 293t-65.5 293.5t-212.5 115.5 t-213 -115.5t-66 -293.5zM684 1337q0 57 29 90t82 33q111 0 110.5 -121.5t-111 -121.5t-110.5 120z" />
<glyph unicode="&#xf7;" d="M106 436v135l932 11v-146h-932zM467 143.5q0 61.5 30.5 97t89 35.5t90.5 -34.5t32 -97t-31 -97.5t-90.5 -35t-90 35t-30.5 96.5zM467 866.5q0 61.5 30.5 97t89 35.5t90.5 -34.5t32 -97t-31 -97.5t-90.5 -35t-90 35t-30.5 96.5z" />
<glyph unicode="&#xf8;" horiz-adv-x="1105" d="M82 504.5q0 240.5 122 383t351 142.5t349 -141t120 -383t-122 -384t-349 -142t-349 142t-122 382.5zM150 -162l731 1387l82 -41l-734 -1387zM274 504q0 -178 66 -293t213 -115t212.5 115t65.5 293t-65.5 293.5t-212.5 115.5t-213 -115.5t-66 -293.5z" />
<glyph unicode="&#xf9;" horiz-adv-x="1206" d="M39 920l10 110q125 -18 193.5 -18t87.5 2l32 4l13 -12l-8 -129q-6 -72 -7 -207v-295q0 -264 207 -264q117 0 185.5 90t72.5 217v313q0 31 -9 83t-11 81l-176 25l10 104l98 -6q55 -6 130 -6t94 2l32 4l13 -12l-9 -129q-6 -72 -6 -207v-389q0 -47 21 -164l141 -11l-12 -114 l-68 4q-94 4 -199 4l-26 158q-102 -178 -318 -178q-207 0 -274 131q-61 117 -61 333v287q0 31 -9.5 83t-11.5 81zM229 1440l101 127l393 -328l-68 -84l-151 125q-31 14 -150 88z" />
<glyph unicode="&#xfa;" horiz-adv-x="1206" d="M39 920l10 110q125 -18 193.5 -18t87.5 2l32 4l13 -12l-8 -129q-6 -72 -7 -207v-295q0 -264 207 -264q117 0 185.5 90t72.5 217v313q0 31 -9 83t-11 81l-176 25l10 104l98 -6q55 -6 130 -6t94 2l32 4l13 -12l-9 -129q-6 -72 -6 -207v-389q0 -47 21 -164l141 -11l-12 -114 l-68 4q-94 4 -199 4l-26 158q-102 -178 -318 -178q-207 0 -274 131q-61 117 -61 333v287q0 31 -9.5 83t-11.5 81zM395 1239l393 328l101 -127q-102 -57 -125 -72l-150 -88l-151 -125z" />
<glyph unicode="&#xfb;" horiz-adv-x="1206" d="M39 920l10 110q125 -18 193.5 -18t87.5 2l32 4l13 -12l-8 -129q-6 -72 -7 -207v-295q0 -264 207 -264q117 0 185.5 90t72.5 217v313q0 31 -9 83t-11 81l-176 25l10 104l98 -6q55 -6 130 -6t94 2l32 4l13 -12l-9 -129q-6 -72 -6 -207v-389q0 -47 21 -164l141 -11l-12 -114 l-68 4q-94 4 -199 4l-26 158q-102 -178 -318 -178q-207 0 -274 131q-61 117 -61 333v287q0 31 -9.5 83t-11.5 81zM221 1221l340 346l340 -346l-67 -66l-152 125q-57 37 -121 86q-23 -16 -50.5 -36.5t-45.5 -33.5l-25 -16l-151 -125z" />
<glyph unicode="&#xfc;" horiz-adv-x="1206" d="M39 920l10 110q125 -18 193.5 -18t87.5 2l32 4l13 -12l-8 -129q-6 -72 -7 -207v-295q0 -264 207 -264q117 0 185.5 90t72.5 217v313q0 31 -9 83t-11 81l-176 25l10 104l98 -6q55 -6 130 -6t94 2l32 4l13 -12l-9 -129q-6 -72 -6 -207v-389q0 -47 21 -164l141 -11l-12 -114 l-68 4q-94 4 -199 4l-26 158q-102 -178 -318 -178q-207 0 -274 131q-61 117 -61 333v287q0 31 -9.5 83t-11.5 81zM207 1337q0 57 28.5 90t81.5 33q111 0 111 -121.5t-110.5 -121.5t-110.5 120zM690 1337q0 57 29 90t82 33q111 0 110.5 -121.5t-111 -121.5t-110.5 120z" />
<glyph unicode="&#xfd;" horiz-adv-x="1103" d="M10 920l10 110q143 -18 222.5 -18t117.5 6l72 8l10 -113l-127 -16q33 -115 56 -182l209 -518l188 522q31 90 53 180l-133 21l10 110q143 -18 219 -18t109 6l59 6l9 -111l-78 -10q-119 -240 -123 -250l-258 -653l-172 -481l-334 22l16 119q10 -2 33 -2h49q33 0 135 25 q66 98 80 135l58 164l-303 723q-8 27 -105 198zM412 1239l393 328l100 -127q-102 -57 -125 -72l-149 -88l-152 -125z" />
<glyph unicode="&#xfe;" horiz-adv-x="1132" d="M18 1458l11 111q158 -20 212 -20.5t91 3.5l30 4l13 -12l-8 -131q-6 -72 -7 -207v-329q37 57 110 105t161 48q209 0 314.5 -138t105.5 -366.5t-129 -387t-342 -158.5q-117 0 -220 49v-158q0 -106 7 -150l8 -73l205 -19l-13 -110l-112 6q-90 8 -188.5 8t-164.5 -4l-53 -4 l-10 100l137 21l8 65q10 57 11 99v1460q0 31 -9.5 83t-11.5 81zM360 309q0 -88 9 -139q106 -68 198 -68q156 0 227.5 117t71.5 301q0 385 -252 385q-121 0 -185 -89t-69 -222v-285z" />
<glyph unicode="&#xff;" horiz-adv-x="1103" d="M10 920l10 110q143 -18 222.5 -18t117.5 6l72 8l10 -113l-127 -16q33 -115 56 -182l209 -518l188 522q31 90 53 180l-133 21l10 110q143 -18 219 -18t109 6l59 6l9 -111l-78 -10q-119 -240 -123 -250l-258 -653l-172 -481l-334 22l16 119q10 -2 33 -2h49q33 0 135 25 q66 98 80 135l58 164l-303 723q-8 27 -105 198zM223 1337q0 57 29 90t82 33q111 0 110.5 -121.5t-111 -121.5t-110.5 120zM707 1337q0 57 28.5 90t81.5 33q111 0 111 -121.5t-110.5 -121.5t-110.5 120z" />
<glyph unicode="&#x100;" horiz-adv-x="1404" d="M10 98l117 17q113 207 115 215l397 1114l111 22l225 -585q49 -125 106 -279q123 -324 131 -340q16 -49 78 -151l105 -11l-6 -108l-142 4q-152 4 -190.5 4t-91.5 -4l-50 -4l-10 108l146 15q-14 100 -31 149l-82 213l-510 -6l-84 -235q-14 -63 -22 -119h2l159 -17l-12 -108 l-127 4q-143 4 -193.5 4t-95.5 -4l-39 -4zM356 1661v108h660l-10 -108h-650zM467 582q111 -4 158 -4t138 3t134 3l-223 581z" />
<glyph unicode="&#x101;" horiz-adv-x="1050" d="M82 240.5q0 115.5 59.5 175t149.5 83t393 70.5v68q0 283 -192 283q-113 0 -191 -39q-18 -92 -18 -97v-73l-119 -6l-23 276q184 49 374 49t262.5 -106.5t72.5 -327.5v-315q0 -47 20 -164l142 -11l-13 -114l-67 4q-94 4 -199 4l-28 162q-41 -76 -138.5 -129t-216.5 -53 t-193.5 72.5t-74.5 188zM164 1282v109h659l-10 -109h-649zM262 262q0 -152 166 -151q88 0 164 65.5t92 165.5v123q-10 -2 -117.5 -20.5t-175.5 -34.5q-129 -33 -129 -148z" />
<glyph unicode="&#x102;" horiz-adv-x="1404" d="M10 98l117 17q113 207 115 215l397 1114l111 22l225 -585q49 -125 106 -279q123 -324 131 -340q16 -49 78 -151l105 -11l-6 -108l-142 4q-152 4 -190.5 4t-91.5 -4l-50 -4l-10 108l146 15q-14 100 -31 149l-82 213l-510 -6l-84 -235q-14 -63 -22 -119h2l159 -17l-12 -108 l-127 4q-143 4 -193.5 4t-95.5 -4l-39 -4zM397 1876h115q0 -78 46 -125t124 -47t124 47t46 125h115q0 -139 -73 -213t-212 -74t-212 74t-73 213zM467 582q111 -4 158 -4t138 3t134 3l-223 581z" />
<glyph unicode="&#x103;" horiz-adv-x="1050" d="M82 240.5q0 115.5 59.5 175t149.5 83t393 70.5v68q0 283 -192 283q-113 0 -191 -39q-18 -92 -18 -97v-73l-119 -6l-23 276q184 49 374 49t262.5 -106.5t72.5 -327.5v-315q0 -47 20 -164l142 -11l-13 -114l-67 4q-94 4 -199 4l-28 162q-41 -76 -138.5 -129t-216.5 -53 t-193.5 72.5t-74.5 188zM205 1489h114q0 -78 46.5 -125t124 -47t123.5 47t46 125h115q0 -139 -72.5 -213t-212 -74t-212 74t-72.5 213zM262 262q0 -152 166 -151q88 0 164 65.5t92 165.5v123q-10 -2 -117.5 -20.5t-175.5 -34.5q-129 -33 -129 -148z" />
<glyph unicode="&#x104;" horiz-adv-x="1404" d="M10 98l117 17q113 207 115 215l397 1114l111 22l225 -585q49 -125 106 -279q123 -324 131 -340q16 -49 78 -151l105 -11l-6 -108l-142 4q-152 4 -190.5 4t-91.5 -4l-50 -4l-10 108l146 15q-14 100 -31 149l-82 213l-510 -6l-84 -235q-14 -63 -22 -119h2l159 -17l-12 -108 l-127 4q-143 4 -193.5 4t-95.5 -4l-39 -4zM467 582q111 -4 158 -4t138 3t134 3l-223 581zM1153 -234.5q0 76.5 31.5 121.5t107.5 113l97 -8q-57 -63 -80 -108.5t-23 -104.5q0 -96 111 -96q53 0 114 26l29 -67q-96 -45 -184 -45t-145.5 46t-57.5 122.5z" />
<glyph unicode="&#x105;" horiz-adv-x="1050" d="M82 240.5q0 115.5 59.5 175t149.5 83t393 70.5v68q0 283 -192 283q-113 0 -191 -39q-18 -92 -18 -97v-73l-119 -6l-23 276q184 49 374 49t262.5 -106.5t72.5 -327.5v-315q0 -47 20 -164l142 -11l-13 -114l-67 4q-94 4 -199 4l-28 162q-41 -76 -138.5 -129t-216.5 -53 t-193.5 72.5t-74.5 188zM262 262q0 -152 166 -151q88 0 164 65.5t92 165.5v123q-10 -2 -117.5 -20.5t-175.5 -34.5q-129 -33 -129 -148zM764 -234.5q0 76.5 31.5 121.5t107.5 113l96 -8q-57 -63 -79.5 -108.5t-22.5 -104.5q0 -96 111 -96q53 0 114 26l29 -67 q-96 -45 -184 -45t-145.5 46t-57.5 122.5z" />
<glyph unicode="&#x106;" horiz-adv-x="1316" d="M92 720q0 345 176 550t508 205q166 0 330 -41q102 -25 121 -29l-23 -303l-125 8v96q0 33 -24 103q-156 47 -277 47q-225 0 -346 -177.5t-121 -456t121 -456.5t346 -178q139 0 295 45q31 88 33 115.5t2 54.5v41l125 4l12 -309q-295 -70 -469 -70q-332 0 -508 203t-176 548 zM627 1694l469 204l61 -149l-139 -35q-29 -8 -70 -17t-66.5 -16.5t-33.5 -9.5l-180 -76z" />
<glyph unicode="&#x107;" horiz-adv-x="989" d="M82 503.5q0 241.5 121 384t350 142.5q74 0 125 -12q66 -16 196 -60l-20 -256l-119 7v73q0 16 -14 70q-74 61 -168 61q-143 0 -211 -118.5t-68 -289.5t68 -281.5t212 -110.5t286 73l57 -96q-39 -33 -94 -55q-106 -55 -252 -55q-227 0 -348 141t-121 382.5zM389 1239 l393 328l101 -127q-102 -57 -125 -72l-150 -88l-151 -125z" />
<glyph unicode="&#x108;" horiz-adv-x="1316" d="M92 720q0 345 176 550t508 205q166 0 330 -41q102 -25 121 -29l-23 -303l-125 8v96q0 33 -24 103q-156 47 -277 47q-225 0 -346 -177.5t-121 -456t121 -456.5t346 -178q139 0 295 45q31 88 33 115.5t2 54.5v41l125 4l12 -309q-295 -70 -469 -70q-332 0 -508 203t-176 548 zM449 1669l356 219l356 -219l-47 -80l-180 84l-129 51l-129 -51l-180 -84z" />
<glyph unicode="&#x109;" horiz-adv-x="989" d="M82 503.5q0 241.5 121 384t350 142.5q74 0 125 -12q66 -16 196 -60l-20 -256l-119 7v73q0 16 -14 70q-74 61 -168 61q-143 0 -211 -118.5t-68 -289.5t68 -281.5t212 -110.5t286 73l57 -96q-39 -33 -94 -55q-106 -55 -252 -55q-227 0 -348 141t-121 382.5zM215 1221 l340 346l340 -346l-68 -66l-151 125q-57 37 -121 86q-23 -16 -50.5 -36.5t-45.5 -33.5l-25 -16l-151 -125z" />
<glyph unicode="&#x10a;" horiz-adv-x="1316" d="M92 720q0 345 176 550t508 205q166 0 330 -41q102 -25 121 -29l-23 -303l-125 8v96q0 33 -24 103q-156 47 -277 47q-225 0 -346 -177.5t-121 -456t121 -456.5t346 -178q139 0 295 45q31 88 33 115.5t2 54.5v41l125 4l12 -309q-295 -70 -469 -70q-332 0 -508 203t-176 548 zM684 1720.5q0 61.5 30.5 97t89 35.5t90.5 -34.5t32 -97t-31 -97.5t-90.5 -35t-90 35t-30.5 96.5z" />
<glyph unicode="&#x10b;" horiz-adv-x="989" d="M82 503.5q0 241.5 121 384t350 142.5q74 0 125 -12q66 -16 196 -60l-20 -256l-119 7v73q0 16 -14 70q-74 61 -168 61q-143 0 -211 -118.5t-68 -289.5t68 -281.5t212 -110.5t286 73l57 -96q-39 -33 -94 -55q-106 -55 -252 -55q-227 0 -348 141t-121 382.5zM432 1341.5 q0 61.5 31 97.5t89 36t90 -35t32 -97.5t-31 -97.5t-90 -35t-90 35t-31 96.5z" />
<glyph unicode="&#x10c;" horiz-adv-x="1316" d="M92 720q0 345 176 550t508 205q166 0 330 -41q102 -25 121 -29l-23 -303l-125 8v96q0 33 -24 103q-156 47 -277 47q-225 0 -346 -177.5t-121 -456t121 -456.5t346 -178q139 0 295 45q31 88 33 115.5t2 54.5v41l125 4l12 -309q-295 -70 -469 -70q-332 0 -508 203t-176 548 zM449 1808l47 80l180 -84l129 -51l129 51l180 84l47 -80l-356 -219z" />
<glyph unicode="&#x10d;" horiz-adv-x="989" d="M82 503.5q0 241.5 121 384t350 142.5q74 0 125 -12q66 -16 196 -60l-20 -256l-119 7v73q0 16 -14 70q-74 61 -168 61q-143 0 -211 -118.5t-68 -289.5t68 -281.5t212 -110.5t286 73l57 -96q-39 -33 -94 -55q-106 -55 -252 -55q-227 0 -348 141t-121 382.5zM213 1501l68 66 l151 -125l121 -88l121 88l151 125l68 -66l-340 -346z" />
<glyph unicode="&#x10e;" horiz-adv-x="1486" d="M92 98l158 19q2 18 11 70.5t9 93.5v882q0 31 -9 83t-11 81l-158 25l10 102l66 -6q78 -4 129 -4h8q59 0 184 10t199 10q338 0 522.5 -198.5t184.5 -539.5t-189.5 -545t-517.5 -204l-414 21q-80 -4 -112 -10l-56 -6zM348 1808l47 80l180 -84l130 -51l129 51l180 84l47 -80 l-356 -219zM459 342l12 -233q74 -8 219 -9q246 0 374 174.5t128 446.5t-128 446t-374 174q-133 0 -219 -10q-12 -78 -12 -229v-760z" />
<glyph unicode="&#x110;" horiz-adv-x="1486" d="M90 690v88h660l-11 -88h-649zM92 98l158 19q2 18 11 70.5t9 93.5v882q0 31 -9 83t-11 81l-158 25l10 102l66 -6q78 -4 129 -4h8q59 0 184 10t199 10q338 0 522.5 -198.5t184.5 -539.5t-189.5 -545t-517.5 -204l-414 21q-80 -4 -112 -10l-56 -6zM459 342l12 -233 q74 -8 219 -9q246 0 374 174.5t128 446.5t-128 446t-374 174q-133 0 -219 -10q-12 -78 -12 -229v-760z" />
<glyph unicode="&#x111;" horiz-adv-x="1148" d="M82 506.5q0 230.5 110.5 377t319.5 146.5q113 0 256 -49v289q0 31 -9 83t-11 81l-181 24l11 111q178 -20 233 -20.5t92 3.5l33 4l12 -12l-8 -129q-6 -72 -6 -207v-927q0 -47 20 -164l142 -11l-13 -114l-67 4q-94 4 -199 4l-26 166q-23 -57 -107 -121.5t-190 -64.5 q-205 0 -308.5 148t-103.5 378.5zM270 504q0 -102 19.5 -185t76 -145.5t142.5 -62.5q127 0 193.5 85t66.5 228v410q-115 72 -244 71.5t-191.5 -116t-62.5 -285.5zM397 1192l11 88h690v-88h-701z" />
<glyph unicode="&#x112;" horiz-adv-x="1150" d="M61 98l158 19q2 18 11.5 70.5t9.5 93.5v882q0 31 -9.5 83t-11.5 81l-158 25l11 102l57 -6q66 -4 117 -4h524q53 0 252 20l20 -22l15 -293l-119 -10q-16 88 -24.5 114.5t-39.5 65.5q-78 10 -165 10h-269q-12 -82 -12 -227v-295q70 -4 86 -4h150q49 0 122 18l19 135l94 -10 q-2 -25 -2 -67v-97q0 -106 2 -149l4 -74l-98 -12l-19 137l-67 6l-96 6h-109q-20 0 -86 -4v-350q0 -139 12 -225h295q84 0 178 16q29 39 43 78q2 16 15.5 70.5t15.5 66.5l113 -10l-31 -324l-20 -22l-111 4q-115 4 -141 4h-490q-70 0 -147 -10l-84 -8zM334 1661v108h659 l-10 -108h-649z" />
<glyph unicode="&#x113;" horiz-adv-x="972" d="M82 501.5q0 239.5 113.5 383t332.5 143.5q393 0 394 -475l-35 -68h-613q4 -152 77 -262t202 -110q166 0 305 84l57 -95q-147 -123 -368 -122.5t-343 141.5t-122 380.5zM215 1282v109h659l-10 -109h-649zM276 590q387 33 455 33v16l2 25q0 119 -52 188.5t-161 69.5 q-211 0 -244 -332z" />
<glyph unicode="&#x114;" horiz-adv-x="1150" d="M61 98l158 19q2 18 11.5 70.5t9.5 93.5v882q0 31 -9.5 83t-11.5 81l-158 25l11 102l57 -6q66 -4 117 -4h524q53 0 252 20l20 -22l15 -293l-119 -10q-16 88 -24.5 114.5t-39.5 65.5q-78 10 -165 10h-269q-12 -82 -12 -227v-295q70 -4 86 -4h150q49 0 122 18l19 135l94 -10 q-2 -25 -2 -67v-97q0 -106 2 -149l4 -74l-98 -12l-19 137l-67 6l-96 6h-109q-20 0 -86 -4v-350q0 -139 12 -225h295q84 0 178 16q29 39 43 78q2 16 15.5 70.5t15.5 66.5l113 -10l-31 -324l-20 -22l-111 4q-115 4 -141 4h-490q-70 0 -147 -10l-84 -8zM375 1876h114 q0 -78 46.5 -125t124 -47t123.5 47t46 125h115q0 -139 -72.5 -213t-212 -74t-212 74t-72.5 213z" />
<glyph unicode="&#x115;" horiz-adv-x="972" d="M82 501.5q0 239.5 113.5 383t332.5 143.5q393 0 394 -475l-35 -68h-613q4 -152 77 -262t202 -110q166 0 305 84l57 -95q-147 -123 -368 -122.5t-343 141.5t-122 380.5zM256 1489h115q0 -78 46 -125t123.5 -47t124 47t46.5 125h114q0 -139 -72.5 -213t-212 -74t-212 74 t-72.5 213zM276 590q387 33 455 33v16l2 25q0 119 -52 188.5t-161 69.5q-211 0 -244 -332z" />
<glyph unicode="&#x116;" horiz-adv-x="1150" d="M61 98l158 19q2 18 11.5 70.5t9.5 93.5v882q0 31 -9.5 83t-11.5 81l-158 25l11 102l57 -6q66 -4 117 -4h524q53 0 252 20l20 -22l15 -293l-119 -10q-16 88 -24.5 114.5t-39.5 65.5q-78 10 -165 10h-269q-12 -82 -12 -227v-295q70 -4 86 -4h150q49 0 122 18l19 135l94 -10 q-2 -25 -2 -67v-97q0 -106 2 -149l4 -74l-98 -12l-19 137l-67 6l-96 6h-109q-20 0 -86 -4v-350q0 -139 12 -225h295q84 0 178 16q29 39 43 78q2 16 15.5 70.5t15.5 66.5l113 -10l-31 -324l-20 -22l-111 4q-115 4 -141 4h-490q-70 0 -147 -10l-84 -8zM539 1720.5 q0 61.5 30.5 97t89 35.5t90 -34.5t31.5 -97t-30.5 -97.5t-90 -35t-90 35t-30.5 96.5z" />
<glyph unicode="&#x117;" horiz-adv-x="972" d="M82 501.5q0 239.5 113.5 383t332.5 143.5q393 0 394 -475l-35 -68h-613q4 -152 77 -262t202 -110q166 0 305 84l57 -95q-147 -123 -368 -122.5t-343 141.5t-122 380.5zM276 590q387 33 455 33v16l2 25q0 119 -52 188.5t-161 69.5q-211 0 -244 -332zM420 1341.5 q0 61.5 30.5 97.5t89 36t90.5 -35t32 -97.5t-31 -97.5t-90.5 -35t-90 35t-30.5 96.5z" />
<glyph unicode="&#x118;" horiz-adv-x="1150" d="M61 98l158 19q2 18 11.5 70.5t9.5 93.5v882q0 31 -9.5 83t-11.5 81l-158 25l11 102l57 -6q66 -4 117 -4h524q53 0 252 20l20 -22l15 -293l-119 -10q-16 88 -24.5 114.5t-39.5 65.5q-78 10 -165 10h-269q-12 -82 -12 -227v-295q70 -4 86 -4h150q49 0 122 18l19 135l94 -10 q-2 -25 -2 -67v-97q0 -106 2 -149l4 -74l-98 -12l-19 137l-67 6l-96 6h-109q-20 0 -86 -4v-350q0 -139 12 -225h295q84 0 178 16q29 39 43 78q2 16 15.5 70.5t15.5 66.5l113 -10l-31 -324l-20 -22l-111 4q-115 4 -141 4h-490q-70 0 -147 -10l-84 -8zM813 -234.5 q0 76.5 31.5 121.5t107.5 113l97 -8q-57 -63 -80 -108.5t-23 -104.5q0 -96 111 -96q53 0 114 26l29 -67q-96 -45 -184 -45t-145.5 46t-57.5 122.5z" />
<glyph unicode="&#x119;" horiz-adv-x="972" d="M82 501.5q0 239.5 113.5 383t332.5 143.5q393 0 394 -475l-35 -68h-613q4 -152 77 -262t202 -110q166 0 305 84l57 -95q-147 -123 -368 -122.5t-343 141.5t-122 380.5zM276 590q387 33 455 33v16l2 25q0 119 -52 188.5t-161 69.5q-211 0 -244 -332zM440 -234.5 q0 76.5 32 121.5t108 113l96 -8q-57 -63 -80 -108.5t-23 -104.5q0 -96 111 -96q53 0 115 26l28 -67q-96 -45 -184 -45t-145.5 46t-57.5 122.5z" />
<glyph unicode="&#x11a;" horiz-adv-x="1150" d="M61 98l158 19q2 18 11.5 70.5t9.5 93.5v882q0 31 -9.5 83t-11.5 81l-158 25l11 102l57 -6q66 -4 117 -4h524q53 0 252 20l20 -22l15 -293l-119 -10q-16 88 -24.5 114.5t-39.5 65.5q-78 10 -165 10h-269q-12 -82 -12 -227v-295q70 -4 86 -4h150q49 0 122 18l19 135l94 -10 q-2 -25 -2 -67v-97q0 -106 2 -149l4 -74l-98 -12l-19 137l-67 6l-96 6h-109q-20 0 -86 -4v-350q0 -139 12 -225h295q84 0 178 16q29 39 43 78q2 16 15.5 70.5t15.5 66.5l113 -10l-31 -324l-20 -22l-111 4q-115 4 -141 4h-490q-70 0 -147 -10l-84 -8zM303 1808l47 80l180 -84 l129 -51l129 51l181 84l47 -80l-357 -219z" />
<glyph unicode="&#x11b;" horiz-adv-x="972" d="M82 501.5q0 239.5 113.5 383t332.5 143.5q393 0 394 -475l-35 -68h-613q4 -152 77 -262t202 -110q166 0 305 84l57 -95q-147 -123 -368 -122.5t-343 141.5t-122 380.5zM201 1501l67 66l152 -125l121 -88l121 88l151 125l68 -66l-340 -346zM276 590q387 33 455 33v16l2 25 q0 119 -52 188.5t-161 69.5q-211 0 -244 -332z" />
<glyph unicode="&#x11c;" horiz-adv-x="1337" d="M92 720q0 345 176 550t508 205q166 0 330 -41q102 -25 121 -29l-23 -303l-119 12v92q0 31 -24 101q-166 49 -289 49q-229 0 -349 -176t-120 -457t120 -458t349 -177q131 0 285 41q25 94 24 133v139q0 31 -9 83.5t-11 80.5l-176 17l10 116l100 -8q74 -8 140.5 -8t85.5 2 l32 4l13 -12q-20 -215 -21 -336v-301q-295 -70 -469 -70q-332 0 -508 203t-176 548zM436 1669l357 219l356 -219l-47 -80l-180 84l-129 51l-129 -51l-181 -84z" />
<glyph unicode="&#x11d;" horiz-adv-x="1042" d="M49 -184q0 63 191 204q-92 49 -93 152q0 43 146 166q-182 94 -182 321q0 172 110.5 271.5t284.5 99.5q113 0 205 -45l235 51l19 -104l-74 -25q-12 -4 -51 -33q61 -88 61 -215q0 -172 -110.5 -271t-284.5 -99q-76 0 -139 18q-55 -70 -55.5 -88t16 -32.5t54.5 -22.5 t71.5 -12.5t93.5 -10.5q258 -27 336 -53q92 -29 92 -190.5t-161 -270t-359 -108.5q-406 0 -406 297zM211 1221l340 346l340 -346l-68 -66l-151 125q-57 37 -121 86q-23 -16 -50.5 -36.5t-45.5 -33.5l-25 -16l-151 -125zM225 -147q0 -123 73 -170.5t202 -47.5t215 55.5 t86 155.5q0 48 -15.5 65t-65.5 27.5t-209 29t-196 28.5q-90 -117 -90 -143zM289 659.5q0 -266.5 217 -266.5t217 266.5t-217 266.5t-217 -266.5z" />
<glyph unicode="&#x11e;" horiz-adv-x="1337" d="M92 720q0 345 176 550t508 205q166 0 330 -41q102 -25 121 -29l-23 -303l-119 12v92q0 31 -24 101q-166 49 -289 49q-229 0 -349 -176t-120 -457t120 -458t349 -177q131 0 285 41q25 94 24 133v139q0 31 -9 83.5t-11 80.5l-176 17l10 116l100 -8q74 -8 140.5 -8t85.5 2 l32 4l13 -12q-20 -215 -21 -336v-301q-295 -70 -469 -70q-332 0 -508 203t-176 548zM508 1876h115q0 -78 46 -125t123.5 -47t124 47t46.5 125h114q0 -139 -72.5 -213t-212 -74t-212 74t-72.5 213z" />
<glyph unicode="&#x11f;" horiz-adv-x="1042" d="M49 -184q0 63 191 204q-92 49 -93 152q0 43 146 166q-182 94 -182 321q0 172 110.5 271.5t284.5 99.5q113 0 205 -45l235 51l19 -104l-74 -25q-12 -4 -51 -33q61 -88 61 -215q0 -172 -110.5 -271t-284.5 -99q-76 0 -139 18q-55 -70 -55.5 -88t16 -32.5t54.5 -22.5 t71.5 -12.5t93.5 -10.5q258 -27 336 -53q92 -29 92 -190.5t-161 -270t-359 -108.5q-406 0 -406 297zM225 -147q0 -123 73 -170.5t202 -47.5t215 55.5t86 155.5q0 48 -15.5 65t-65.5 27.5t-209 29t-196 28.5q-90 -117 -90 -143zM264 1489h115q0 -78 46 -125t124 -47t124 47 t46 125h115q0 -139 -73 -213t-212 -74t-212 74t-73 213zM289 659.5q0 -266.5 217 -266.5t217 266.5t-217 266.5t-217 -266.5z" />
<glyph unicode="&#x120;" horiz-adv-x="1337" d="M92 720q0 345 176 550t508 205q166 0 330 -41q102 -25 121 -29l-23 -303l-119 12v92q0 31 -24 101q-166 49 -289 49q-229 0 -349 -176t-120 -457t120 -458t349 -177q131 0 285 41q25 94 24 133v139q0 31 -9 83.5t-11 80.5l-176 17l10 116l100 -8q74 -8 140.5 -8t85.5 2 l32 4l13 -12q-20 -215 -21 -336v-301q-295 -70 -469 -70q-332 0 -508 203t-176 548zM672 1720.5q0 61.5 30.5 97t89 35.5t90 -34.5t31.5 -97t-30.5 -97.5t-90 -35t-90 35t-30.5 96.5z" />
<glyph unicode="&#x121;" horiz-adv-x="1042" d="M49 -184q0 63 191 204q-92 49 -93 152q0 43 146 166q-182 94 -182 321q0 172 110.5 271.5t284.5 99.5q113 0 205 -45l235 51l19 -104l-74 -25q-12 -4 -51 -33q61 -88 61 -215q0 -172 -110.5 -271t-284.5 -99q-76 0 -139 18q-55 -70 -55.5 -88t16 -32.5t54.5 -22.5 t71.5 -12.5t93.5 -10.5q258 -27 336 -53q92 -29 92 -190.5t-161 -270t-359 -108.5q-406 0 -406 297zM225 -147q0 -123 73 -170.5t202 -47.5t215 55.5t86 155.5q0 48 -15.5 65t-65.5 27.5t-209 29t-196 28.5q-90 -117 -90 -143zM289 659.5q0 -266.5 217 -266.5t217 266.5 t-217 266.5t-217 -266.5zM428 1341.5q0 61.5 30.5 97.5t89 36t90.5 -35t32 -97.5t-31 -97.5t-90.5 -35t-90 35t-30.5 96.5z" />
<glyph unicode="&#x124;" horiz-adv-x="1595" d="M104 98l158 19q2 18 11.5 70.5t9.5 93.5v882q0 31 -9.5 83t-11.5 81l-158 25l11 102l65 -6q78 -4 169 -4t175 8l109 8l12 -121l-160 -12l-8 -74q-6 -43 -6 -151v-320q51 -8 246 -8l434 8v381q0 31 -9 83t-12 81l-157 16l10 111l66 -6q78 -4 169 -4t175 8l110 8l13 -121 l-160 -12l-8 -74q-6 -43 -7 -151v-760q0 -109 7 -152l8 -73l160 -13l-13 -112l-110 4q-127 4 -197 4t-147 -4l-66 -4l-10 112l157 13q2 18 11.5 70.5t9.5 93.5v391l-680 -6v-324q0 -109 6 -152l8 -73l160 -13l-12 -112l-98 4q-115 4 -193 4t-149 -10l-74 -8zM457 1669 l356 219l356 -219l-47 -80l-180 84l-129 51l-129 -51l-180 -84z" />
<glyph unicode="&#x125;" horiz-adv-x="1236" d="M-131 1669l356 219l357 -219l-47 -80l-181 84l-129 51l-129 -51l-180 -84zM41 1458l10 111q160 -20 212 -20.5t89 3.5l33 4l12 -12l-8 -129q-6 -72 -6 -207v-319q106 141 302 141t266.5 -115.5t70.5 -347.5v-225q0 -109 6 -152l8 -73l162 -13l-12 -112l-90 4 q-111 4 -188 4t-142 -4l-55 -4l-11 104l136 21q2 18 11 70.5t9 93.5v356q0 119 -52 189.5t-162 70.5t-180.5 -81t-78.5 -198v-276q0 -109 6 -152l8 -73l160 -13l-12 -112l-99 4q-115 4 -185.5 4t-135.5 -4l-53 -4l-11 104l136 21q2 18 11 70.5t9 93.5v989q0 31 -9 83t-11 81 z" />
<glyph unicode="&#x128;" horiz-adv-x="702" d="M25 1659q18 45 53 102q63 104 109 104.5t174 -41.5t165 -42t80 51q14 16 33 53l74 -43q-96 -201 -170 -201q-41 0 -168 42t-162 42t-82 -55q-16 -20 -33 -55zM82 98l158 19q2 18 11 70.5t9 93.5v882q0 31 -9 83t-11 81l-158 19l10 108l66 -6q78 -4 168 -4t174 8l108 8 l13 -121l-160 -12l-8 -74q-6 -43 -7 -151v-760q0 -109 7 -152l8 -73l160 -13l-13 -112l-108 4q-127 4 -195.5 4t-146.5 -4l-66 -4z" />
<glyph unicode="&#x129;" horiz-adv-x="612" d="M-16 1253q18 45 53 103q63 104 115 104q35 0 116.5 -42t116.5 -42t78 51q14 16 33 54l73 -43q-20 -52 -53 -101q-63 -100 -107 -100t-126 42t-114 42t-79 -55q-14 -20 -33 -56zM53 92l158 25q2 18 11 70.5t9 93.5v450q0 31 -9 83t-11 81l-156 25l11 110 q143 -18 212.5 -18t88.5 2l32 4l13 -12l-9 -129q-6 -72 -6 -207v-328q0 -109 6 -152l9 -73l159 -13l-12 -112l-98 4q-115 4 -184.5 4t-147.5 -4l-66 -4z" />
<glyph unicode="&#x12a;" horiz-adv-x="702" d="M43 1661v108h659l-10 -108h-649zM82 98l158 19q2 18 11 70.5t9 93.5v882q0 31 -9 83t-11 81l-158 19l10 108l66 -6q78 -4 168 -4t174 8l108 8l13 -121l-160 -12l-8 -74q-6 -43 -7 -151v-760q0 -109 7 -152l8 -73l160 -13l-13 -112l-108 4q-127 4 -195.5 4t-146.5 -4 l-66 -4z" />
<glyph unicode="&#x12b;" horiz-adv-x="612" d="M14 1282v109h529l-11 -109h-518zM53 92l158 25q2 18 11 70.5t9 93.5v450q0 31 -9 83t-11 81l-156 25l11 110q143 -18 212.5 -18t88.5 2l32 4l13 -12l-9 -129q-6 -72 -6 -207v-328q0 -109 6 -152l9 -73l159 -13l-12 -112l-98 4q-115 4 -184.5 4t-147.5 -4l-66 -4z" />
<glyph unicode="&#x12c;" horiz-adv-x="702" d="M82 98l158 19q2 18 11 70.5t9 93.5v882q0 31 -9 83t-11 81l-158 19l10 108l66 -6q78 -4 168 -4t174 8l108 8l13 -121l-160 -12l-8 -74q-6 -43 -7 -151v-760q0 -109 7 -152l8 -73l160 -13l-13 -112l-108 4q-127 4 -195.5 4t-146.5 -4l-66 -4zM84 1876h115q0 -78 46 -125 t123.5 -47t124 47t46.5 125h114q0 -139 -72.5 -213t-212 -74t-212 74t-72.5 213z" />
<glyph unicode="&#x12d;" horiz-adv-x="612" d="M-29 1489h115q0 -78 46 -125t124 -47t124 47t46 125h115q0 -139 -73 -213t-212 -74t-212 74t-73 213zM53 92l158 25q2 18 11 70.5t9 93.5v450q0 31 -9 83t-11 81l-156 25l11 110q143 -18 212.5 -18t88.5 2l32 4l13 -12l-9 -129q-6 -72 -6 -207v-328q0 -109 6 -152l9 -73 l159 -13l-12 -112l-98 4q-115 4 -184.5 4t-147.5 -4l-66 -4z" />
<glyph unicode="&#x12e;" horiz-adv-x="702" d="M82 98l158 19q2 18 11 70.5t9 93.5v882q0 31 -9 83t-11 81l-158 19l10 108l66 -6q78 -4 168 -4t174 8l108 8l13 -121l-160 -12l-8 -74q-6 -43 -7 -151v-760q0 -109 7 -152l8 -73l160 -13l-13 -112l-108 4q-127 4 -195.5 4t-146.5 -4l-66 -4zM373 -234.5 q0 76.5 31.5 121.5t107.5 113l96 -8q-57 -63 -79.5 -108.5t-22.5 -104.5q0 -96 110 -96q53 0 115 26l29 -67q-96 -45 -184.5 -45t-145.5 46t-57 122.5z" />
<glyph unicode="&#x12f;" horiz-adv-x="612" d="M53 92l158 25q2 18 11 70.5t9 93.5v450q0 31 -9 83t-11 81l-156 25l11 110q143 -18 212.5 -18t88.5 2l32 4l13 -12l-9 -129q-6 -72 -6 -207v-328q0 -109 6 -152l9 -73l159 -13l-12 -112l-98 4q-115 4 -184.5 4t-147.5 -4l-66 -4zM174 1341.5q0 61.5 31 97.5t89 36t90 -35 t32 -97.5t-31 -97.5t-90 -35t-90 35t-31 96.5zM324 -234.5q0 76.5 31.5 121.5t107.5 113l96 -8q-57 -63 -79.5 -108.5t-22.5 -104.5q0 -96 110 -96q53 0 115 26l29 -67q-96 -45 -184.5 -45t-145.5 46t-57 122.5z" />
<glyph unicode="&#x130;" horiz-adv-x="702" d="M82 98l158 19q2 18 11 70.5t9 93.5v882q0 31 -9 83t-11 81l-158 19l10 108l66 -6q78 -4 168 -4t174 8l108 8l13 -121l-160 -12l-8 -74q-6 -43 -7 -151v-760q0 -109 7 -152l8 -73l160 -13l-13 -112l-108 4q-127 4 -195.5 4t-146.5 -4l-66 -4zM248 1720.5q0 61.5 30.5 97 t89 35.5t90 -34.5t31.5 -97t-30.5 -97.5t-90 -35t-90 35t-30.5 96.5z" />
<glyph unicode="&#x131;" horiz-adv-x="612" d="M53 92l158 25q2 18 11 70.5t9 93.5v450q0 31 -9 83t-11 81l-156 25l11 110q143 -18 212.5 -18t88.5 2l32 4l13 -12l-9 -129q-6 -72 -6 -207v-328q0 -109 6 -152l9 -73l159 -13l-12 -112l-98 4q-115 4 -184.5 4t-147.5 -4l-66 -4z" />
<glyph unicode="&#x141;" horiz-adv-x="1136" d="M92 608l721 348l41 -75l-721 -351zM141 98l158 19q2 18 11 70.5t9 93.5v882q0 31 -9 83t-11 81l-158 19l11 108l65 -6q78 -4 168 -4t174 8l109 8l12 -121l-160 -12l-8 -74q-6 -42 -6 -151v-760q0 -109 6 -152l8 -73h242q72 0 178 18q31 41 43 76q2 16 15.5 70.5 t15.5 66.5l112 -10l-30 -324l-21 -22l-110 4q-115 4 -142 4h-477q-51 0 -129 -4l-65 -4z" />
<glyph unicode="&#x142;" horiz-adv-x="700" d="M41 608l569 275l41 -76l-569 -277zM90 92l158 25q2 18 11 70.5t9 93.5v989q0 31 -9 83t-11 81l-156 24l10 111q160 -20 214.5 -20.5t91.5 3.5l32 4l13 -12l-9 -129q-6 -72 -6 -207v-866q0 -109 6 -152l9 -73l159 -13l-12 -112l-98 4q-119 4 -188.5 4t-147.5 -4l-66 -4z " />
<glyph unicode="&#x143;" horiz-adv-x="1564" d="M61 98l158 19q2 18 11.5 70.5t9.5 93.5v882q0 33 -9.5 88.5t-11.5 77.5l-156 17l11 108l86 -6q94 -4 139 -4t107 4l51 4l10 -12q31 -74 91 -203t77 -152l536 -751v809q0 39 -9 96t-11 88l-158 16l11 111l65 -6q78 -4 166 -4t162 8l94 8l12 -121l-160 -12l-18 -84 q-16 -98 -16 -162v-473l-2 -342v-280h-123l-807 1153v-797q0 -109 6 -152l8 -73l160 -13l-12 -112l-74 4q-94 4 -169 4t-146 -10l-74 -8zM569 1694l469 204l62 -149l-139 -35q-29 -8 -70 -17t-66.5 -16.5t-33.5 -9.5l-181 -76z" />
<glyph unicode="&#x144;" horiz-adv-x="1249" d="M53 932l10 104l64 -6q39 -6 103.5 -6t78.5 2l25 4l12 -12l27 -162q39 68 118.5 121t202.5 53q199 0 269.5 -115.5t70.5 -347.5v-225q0 -109 6 -152l9 -73l161 -13l-12 -112l-90 4q-111 4 -187.5 4t-142.5 -4l-55 -4l-10 104l135 21q2 18 11 70.5t9 93.5v356 q0 119 -52 189.5t-161.5 70.5t-180.5 -81t-79 -198v-276q0 -109 6 -152l9 -73l161 -13l-12 -112l-92 4q-111 4 -187.5 4t-142.5 -4l-53 -4l-10 104l135 21q2 18 11 70.5t9 93.5v450q0 12 -10 69.5t-18 106.5zM477 1239l393 328l101 -127q-102 -57 -125 -72l-150 -88 l-151 -125z" />
<glyph unicode="&#x147;" horiz-adv-x="1564" d="M61 98l158 19q2 18 11.5 70.5t9.5 93.5v882q0 33 -9.5 88.5t-11.5 77.5l-156 17l11 108l86 -6q94 -4 139 -4t107 4l51 4l10 -12q31 -74 91 -203t77 -152l536 -751v809q0 39 -9 96t-11 88l-158 16l11 111l65 -6q78 -4 166 -4t162 8l94 8l12 -121l-160 -12l-18 -84 q-16 -98 -16 -162v-473l-2 -342v-280h-123l-807 1153v-797q0 -109 6 -152l8 -73l160 -13l-12 -112l-74 4q-94 4 -169 4t-146 -10l-74 -8zM391 1808l47 80l180 -84l130 -51l129 51l180 84l47 -80l-356 -219z" />
<glyph unicode="&#x148;" horiz-adv-x="1249" d="M53 932l10 104l64 -6q39 -6 103.5 -6t78.5 2l25 4l12 -12l27 -162q39 68 118.5 121t202.5 53q199 0 269.5 -115.5t70.5 -347.5v-225q0 -109 6 -152l9 -73l161 -13l-12 -112l-90 4q-111 4 -187.5 4t-142.5 -4l-55 -4l-10 104l135 21q2 18 11 70.5t9 93.5v356 q0 119 -52 189.5t-161.5 70.5t-180.5 -81t-79 -198v-276q0 -109 6 -152l9 -73l161 -13l-12 -112l-92 4q-111 4 -187.5 4t-142.5 -4l-53 -4l-10 104l135 21q2 18 11 70.5t9 93.5v450q0 12 -10 69.5t-18 106.5zM301 1501l68 66l151 -125l121 -88l121 88l151 125l68 -66 l-340 -346z" />
<glyph unicode="&#x14c;" horiz-adv-x="1527" d="M92 722q0 343 173 548t499 205t499 -205t173 -548t-173 -548t-499 -205t-499 205t-173 548zM311 721q0 -283 117 -463t336 -180t336 180t117 463t-117 464t-336 181t-336 -181t-117 -464zM440 1661v108h660l-10 -108h-650z" />
<glyph unicode="&#x14d;" horiz-adv-x="1105" d="M82 504.5q0 240.5 122 383t351 142.5t349 -141t120 -383t-122 -384t-349 -142t-349 142t-122 382.5zM227 1282v109h660l-10 -109h-650zM274 504q0 -178 66 -293t213 -115t212.5 115t65.5 293t-65.5 293.5t-212.5 115.5t-213 -115.5t-66 -293.5z" />
<glyph unicode="&#x14e;" horiz-adv-x="1527" d="M92 722q0 343 173 548t499 205t499 -205t173 -548t-173 -548t-499 -205t-499 205t-173 548zM311 721q0 -283 117 -463t336 -180t336 180t117 463t-117 464t-336 181t-336 -181t-117 -464zM481 1876h115q0 -78 46 -125t124 -47t124 47t46 125h115q0 -139 -73 -213 t-212 -74t-212 74t-73 213z" />
<glyph unicode="&#x14f;" horiz-adv-x="1105" d="M82 504.5q0 240.5 122 383t351 142.5t349 -141t120 -383t-122 -384t-349 -142t-349 142t-122 382.5zM268 1489h115q0 -78 46 -125t124 -47t124 47t46 125h115q0 -139 -73 -213t-212 -74t-212 74t-73 213zM274 504q0 -178 66 -293t213 -115t212.5 115t65.5 293 t-65.5 293.5t-212.5 115.5t-213 -115.5t-66 -293.5z" />
<glyph unicode="&#x150;" horiz-adv-x="1527" d="M92 722q0 343 173 548t499 205t499 -205t173 -548t-173 -548t-499 -205t-499 205t-173 548zM311 721q0 -283 117 -463t336 -180t336 180t117 463t-117 464t-336 181t-336 -181t-117 -464zM432 1651l430 278l84 -137q-37 -18 -99.5 -45t-96.5 -43q-86 -35 -97 -39 l-166 -102zM924 1651l430 278l84 -137q-37 -18 -99.5 -45t-97.5 -43q-86 -35 -96 -39l-166 -102z" />
<glyph unicode="&#x151;" horiz-adv-x="1105" d="M82 504.5q0 240.5 122 383t351 142.5t349 -141t120 -383t-122 -384t-349 -142t-349 142t-122 382.5zM233 1239l394 328l100 -127q-102 -57 -125 -72l-149 -88l-152 -125zM274 504q0 -178 66 -293t213 -115t212.5 115t65.5 293t-65.5 293.5t-212.5 115.5t-213 -115.5 t-66 -293.5zM645 1239l393 328l101 -127q-102 -57 -125 -72l-150 -88l-151 -125z" />
<glyph unicode="&#x152;" horiz-adv-x="1988" d="M92 722q0 343 173 548t499 205q109 0 211 -27q66 -4 108 -4h525q51 0 252 20l20 -22l14 -293l-118 -10q-16 88 -24.5 114.5t-39.5 65.5q-78 10 -166 10h-268q-12 -90 -12 -227v-295q70 -4 86 -4h149q49 0 123 18l18 135l95 -10q-2 -25 -2 -67v-97q0 -106 2 -149l4 -74 l-99 -12l-18 137l-68 6l-96 6h-108q-16 0 -86 -4v-350q0 -143 12 -225h295q72 0 178 18q31 41 43 76q2 16 15.5 70.5t15.5 66.5l112 -10l-30 -324l-21 -22l-110 4q-115 4 -142 4h-510q-98 -4 -137 -10l-74 -8q-70 -12 -149 -13q-326 0 -499 205t-173 548zM311 721 q0 -283 117 -463t336 -180q190 0 307 143q6 37 6 60v882q0 23 -6 60q-117 143 -307 143q-219 0 -336 -181t-117 -464z" />
<glyph unicode="&#x153;" horiz-adv-x="1691" d="M82 504.5q0 240.5 122 383t352 142.5t355 -151q119 150 336 149q393 0 393 -475l-34 -68h-613q4 -152 77 -262t202 -110q166 0 305 84l57 -95q-147 -123 -372.5 -122.5t-350.5 153.5q-125 -154 -355 -153.5t-352 142.5t-122 382.5zM274 504q0 -178 66 -293t213 -115 t212.5 115t65.5 293t-65.5 293.5t-212.5 115.5t-213 -115.5t-66 -293.5zM995 590q387 33 455 33v16l2 25q0 119 -52 188.5t-161 69.5q-211 0 -244 -332z" />
<glyph unicode="&#x154;" horiz-adv-x="1263" d="M61 98l158 19q2 18 11.5 70.5t9.5 93.5v882q0 31 -9.5 83t-11.5 81l-158 25l11 102l65 -6q78 -4 129 -4h13l376 20q213 0 332 -103.5t119 -301.5q0 -141 -85 -239.5t-224 -139.5q162 -322 217 -412q0 -2 102 -147l137 -23l-8 -106l-76 4q-86 4 -117.5 4t-105.5 -8l-12 8 q-82 186 -113 238l-213 417q-123 0 -180 2v-315q0 -106 6 -149l8 -74l140 -15l-13 -112l-77 4q-94 4 -174 4t-158 -10l-84 -8zM377 1694l469 204l61 -149l-139 -35q-29 -8 -70 -17t-66.5 -16.5t-33.5 -9.5l-180 -76zM428 766q51 -6 139 -6q158 0 249 76.5t91 224t-90 224.5 t-248 77q-45 0 -127 -10v-4l-8 -84q-6 -49 -6 -162v-336z" />
<glyph unicode="&#x155;" horiz-adv-x="856" d="M53 932l10 104l64 -6q39 -6 103.5 -6t78.5 2l25 4l12 -12l31 -180q117 193 330 192q57 0 98 -10l41 -10l-21 -338l-116 6l-2 108q0 16 -29 103q-143 0 -210 -76.5t-73 -230.5v-240q0 -109 6 -152l9 -73l202 -17l-12 -108l-113 4q-131 4 -207.5 4t-142.5 -4l-53 -4 l-10 104l135 21q2 18 11 70.5t9 93.5v450q0 12 -10 69.5t-18 106.5zM297 1239l393 328l101 -127q-102 -57 -125 -72l-150 -88l-151 -125z" />
<glyph unicode="&#x158;" horiz-adv-x="1263" d="M61 98l158 19q2 18 11.5 70.5t9.5 93.5v882q0 31 -9.5 83t-11.5 81l-158 25l11 102l65 -6q78 -4 129 -4h13l376 20q213 0 332 -103.5t119 -301.5q0 -141 -85 -239.5t-224 -139.5q162 -322 217 -412q0 -2 102 -147l137 -23l-8 -106l-76 4q-86 4 -117.5 4t-105.5 -8l-12 8 q-82 186 -113 238l-213 417q-123 0 -180 2v-315q0 -106 6 -149l8 -74l140 -15l-13 -112l-77 4q-94 4 -174 4t-158 -10l-84 -8zM199 1808l47 80l180 -84l129 -51l129 51l180 84l47 -80l-356 -219zM428 766q51 -6 139 -6q158 0 249 76.5t91 224t-90 224.5t-248 77 q-45 0 -127 -10v-4l-8 -84q-6 -49 -6 -162v-336z" />
<glyph unicode="&#x159;" horiz-adv-x="856" d="M53 932l10 104l64 -6q39 -6 103.5 -6t78.5 2l25 4l12 -12l31 -180q117 193 330 192q57 0 98 -10l41 -10l-21 -338l-116 6l-2 108q0 16 -29 103q-143 0 -210 -76.5t-73 -230.5v-240q0 -109 6 -152l9 -73l202 -17l-12 -108l-113 4q-131 4 -207.5 4t-142.5 -4l-53 -4 l-10 104l135 21q2 18 11 70.5t9 93.5v450q0 12 -10 69.5t-18 106.5zM121 1501l67 66l152 -125l121 -88l121 88l151 125l68 -66l-340 -346z" />
<glyph unicode="&#x15a;" horiz-adv-x="1124" d="M92 78l31 315l135 -12v-98q0 -31 23 -136q129 -55 260 -55t203.5 66.5t72.5 184.5t-102 196q-68 51 -154 94l-92 47l-12 4q-168 82 -260.5 173t-92.5 254t124 263.5t298 100.5t437 -66l-29 -301l-121 12v82q0 20 -29 115q-109 45 -225.5 45t-183 -59.5t-66.5 -167.5 q0 -106 103 -185q72 -51 152.5 -91t84.5 -42q96 -49 151.5 -84t114.5 -86q117 -104 117 -287.5t-137 -287t-328.5 -103.5t-351.5 54q-68 23 -123 55zM428 1694l469 204l61 -149l-139 -35q-29 -8 -69.5 -17t-66.5 -16.5t-34 -9.5l-180 -76z" />
<glyph unicode="&#x15b;" horiz-adv-x="854" d="M78 59l22 279l119 -6v-78q0 -25 29 -123q57 -47 174 -47q186 0 186 156q0 59 -54 103t-130 78t-152.5 71.5t-131 105.5t-54.5 160q0 127 93 199.5t243.5 72.5t302.5 -35l-25 -293l-118 7v73q0 23 -29 117q-57 25 -135 25t-123 -36t-45 -95.5t54 -103.5t131 -77.5 t155 -71.5t132 -104.5t54 -156.5q0 -299 -360 -299q-190 0 -338 79zM285 1239l393 328l100 -127q-102 -57 -125 -72l-149 -88l-152 -125z" />
<glyph unicode="&#x15c;" horiz-adv-x="1124" d="M92 78l31 315l135 -12v-98q0 -31 23 -136q129 -55 260 -55t203.5 66.5t72.5 184.5t-102 196q-68 51 -154 94l-92 47l-12 4q-168 82 -260.5 173t-92.5 254t124 263.5t298 100.5t437 -66l-29 -301l-121 12v82q0 20 -29 115q-109 45 -225.5 45t-183 -59.5t-66.5 -167.5 q0 -106 103 -185q72 -51 152.5 -91t84.5 -42q96 -49 151.5 -84t114.5 -86q117 -104 117 -287.5t-137 -287t-328.5 -103.5t-351.5 54q-68 23 -123 55zM250 1669l356 219l357 -219l-48 -80l-180 84l-129 51l-129 -51l-180 -84z" />
<glyph unicode="&#x15d;" horiz-adv-x="854" d="M78 59l22 279l119 -6v-78q0 -25 29 -123q57 -47 174 -47q186 0 186 156q0 59 -54 103t-130 78t-152.5 71.5t-131 105.5t-54.5 160q0 127 93 199.5t243.5 72.5t302.5 -35l-25 -293l-118 7v73q0 23 -29 117q-57 25 -135 25t-123 -36t-45 -95.5t54 -103.5t131 -77.5 t155 -71.5t132 -104.5t54 -156.5q0 -299 -360 -299q-190 0 -338 79zM111 1221l340 346l340 -346l-68 -66l-152 125q-57 37 -120 86q-23 -16 -50.5 -36.5t-46.5 -33.5l-24 -16l-152 -125z" />
<glyph unicode="&#x15e;" horiz-adv-x="1124" d="M92 78l31 315l135 -12v-98q0 -31 23 -136q129 -55 260 -55t203.5 66.5t72.5 184.5t-102 196q-68 51 -154 94l-92 47l-12 4q-168 82 -260.5 173t-92.5 254t124 263.5t298 100.5t437 -66l-29 -301l-121 12v82q0 20 -29 115q-109 45 -225.5 45t-183 -59.5t-66.5 -167.5 q0 -106 103 -185q72 -51 152.5 -91t84.5 -42q96 -49 151.5 -84t114.5 -86q117 -104 117 -287.5t-137 -287t-328.5 -103.5t-351.5 54q-68 23 -123 55zM393 -444l27 71q72 -23 121 -22.5t78.5 25t29.5 71.5q0 88 -96 88l-27 -2h-16l-23 20l19 193h98l-29 -121q94 -2 150.5 -49 t56.5 -129t-62.5 -132t-155.5 -50t-171 37z" />
<glyph unicode="&#x15f;" horiz-adv-x="854" d="M78 59l22 279l119 -6v-78q0 -25 29 -123q57 -47 174 -47q186 0 186 156q0 59 -54 103t-130 78t-152.5 71.5t-131 105.5t-54.5 160q0 127 93 199.5t243.5 72.5t302.5 -35l-25 -293l-118 7v73q0 23 -29 117q-57 25 -135 25t-123 -36t-45 -95.5t54 -103.5t131 -77.5 t155 -71.5t132 -104.5t54 -156.5q0 -299 -360 -299q-190 0 -338 79zM268 -444l27 71q72 -23 121 -22.5t78.5 25t29.5 71.5q0 88 -96 88l-27 -2h-16l-23 20l19 193h98l-28 -121q94 -2 150 -49t56 -129t-62.5 -132t-155.5 -50t-171 37z" />
<glyph unicode="&#x160;" horiz-adv-x="1124" d="M92 78l31 315l135 -12v-98q0 -31 23 -136q129 -55 260 -55t203.5 66.5t72.5 184.5t-102 196q-68 51 -154 94l-92 47l-12 4q-168 82 -260.5 173t-92.5 254t124 263.5t298 100.5t437 -66l-29 -301l-121 12v82q0 20 -29 115q-109 45 -225.5 45t-183 -59.5t-66.5 -167.5 q0 -106 103 -185q72 -51 152.5 -91t84.5 -42q96 -49 151.5 -84t114.5 -86q117 -104 117 -287.5t-137 -287t-328.5 -103.5t-351.5 54q-68 23 -123 55zM250 1808l47 80l180 -84l129 -51l129 51l180 84l48 -80l-357 -219z" />
<glyph unicode="&#x161;" horiz-adv-x="854" d="M78 59l22 279l119 -6v-78q0 -25 29 -123q57 -47 174 -47q186 0 186 156q0 59 -54 103t-130 78t-152.5 71.5t-131 105.5t-54.5 160q0 127 93 199.5t243.5 72.5t302.5 -35l-25 -293l-118 7v73q0 23 -29 117q-57 25 -135 25t-123 -36t-45 -95.5t54 -103.5t131 -77.5 t155 -71.5t132 -104.5t54 -156.5q0 -299 -360 -299q-190 0 -338 79zM109 1501l67 66l152 -125l121 -88l120 88l152 125l67 -66l-339 -346z" />
<glyph unicode="&#x163;" horiz-adv-x="700" d="M20 987l7 -86h157v-582q0 -176 59.5 -257.5t200.5 -81.5q109 0 246 106l-57 84q-88 -59 -162 -59q-111 0 -111 159v631h277l10 111h-287v211l-81 8l-41 -84q-51 -98 -54 -100q-27 -18 -106 -43q-37 -10 -58 -17zM238 -444l26 71q72 -23 121 -22.5t79 25t30 71.5 q-1 88 -97 88l-26 -2h-17l-22 20l18 193h99l-29 -121q94 -2 150.5 -49t56.5 -129t-62.5 -132t-156 -50t-170.5 37z" />
<glyph unicode="&#x164;" horiz-adv-x="1241" d="M31 1149l14 293l21 22q199 -20 251 -20h607q53 0 252 20l20 -22l14 -293l-118 -10q-16 88 -24.5 114.5t-39.5 65.5q-39 6 -135 10h-166l-12 -227v-760q0 -106 6 -149l8 -72l180 -17l-12 -112l-119 4q-135 4 -204.5 4t-147.5 -4l-66 -4l-10 106l158 19q2 18 11 70.5 t9 93.5v882q0 25 -8 89.5t-12 76.5h-160q-96 -4 -137 -10q-37 -53 -41 -72.5t-20 -107.5zM272 1808l47 80l181 -84l129 -51l129 51l180 84l47 -80l-356 -219z" />
<glyph unicode="&#x168;" horiz-adv-x="1533" d="M61 1352l11 102l65 -6q78 -4 171 -4t177 8l111 8l12 -121l-159 -12l-9 -80q-6 -47 -6 -155v-529q0 -205 92 -334t264.5 -129t266.5 130t94 333v590q0 25 -10.5 85t-12.5 89l-155 16l10 111l49 -6q61 -4 159.5 -4t174.5 8l94 8l13 -121l-160 -12l-8 -80q-6 -47 -7 -155 v-529q0 -270 -137 -432t-392 -162t-392 166t-137 438v580q0 37 -9.5 91t-11.5 83zM446 1659q18 45 54 102q63 104 109 104.5t174 -41.5t165 -42t80 51q14 16 33 53l74 -43q-96 -201 -170 -201q-41 0 -168 42t-162 42t-82 -55q-16 -20 -33 -55z" />
<glyph unicode="&#x169;" horiz-adv-x="1206" d="M39 920l10 110q125 -18 193.5 -18t87.5 2l32 4l13 -12l-8 -129q-6 -72 -7 -207v-295q0 -264 207 -264q117 0 185.5 90t72.5 217v313q0 31 -9 83t-11 81l-176 25l10 104l98 -6q55 -6 130 -6t94 2l32 4l13 -12l-9 -129q-6 -72 -6 -207v-389q0 -47 21 -164l141 -11l-12 -114 l-68 4q-94 4 -199 4l-26 158q-102 -178 -318 -178q-207 0 -274 131q-61 117 -61 333v287q0 31 -9.5 83t-11.5 81zM225 1253q18 45 54 103q63 104 109 104t164 -42t154.5 -42t79.5 51q14 16 33 54l74 -43q-96 -201 -170 -201q-43 0 -157.5 42t-150.5 42t-83 -55 q-16 -20 -33 -56z" />
<glyph unicode="&#x16a;" horiz-adv-x="1533" d="M61 1352l11 102l65 -6q78 -4 171 -4t177 8l111 8l12 -121l-159 -12l-9 -80q-6 -47 -6 -155v-529q0 -205 92 -334t264.5 -129t266.5 130t94 333v590q0 25 -10.5 85t-12.5 89l-155 16l10 111l49 -6q61 -4 159.5 -4t174.5 8l94 8l13 -121l-160 -12l-8 -80q-6 -47 -7 -155 v-529q0 -270 -137 -432t-392 -162t-392 166t-137 438v580q0 37 -9.5 91t-11.5 83zM465 1661v108h659l-10 -108h-649z" />
<glyph unicode="&#x16b;" horiz-adv-x="1206" d="M39 920l10 110q125 -18 193.5 -18t87.5 2l32 4l13 -12l-8 -129q-6 -72 -7 -207v-295q0 -264 207 -264q117 0 185.5 90t72.5 217v313q0 31 -9 83t-11 81l-176 25l10 104l98 -6q55 -6 130 -6t94 2l32 4l13 -12l-9 -129q-6 -72 -6 -207v-389q0 -47 21 -164l141 -11l-12 -114 l-68 4q-94 4 -199 4l-26 158q-102 -178 -318 -178q-207 0 -274 131q-61 117 -61 333v287q0 31 -9.5 83t-11.5 81zM233 1282v109h660l-10 -109h-650z" />
<glyph unicode="&#x16c;" horiz-adv-x="1533" d="M61 1352l11 102l65 -6q78 -4 171 -4t177 8l111 8l12 -121l-159 -12l-9 -80q-6 -47 -6 -155v-529q0 -205 92 -334t264.5 -129t266.5 130t94 333v590q0 25 -10.5 85t-12.5 89l-155 16l10 111l49 -6q61 -4 159.5 -4t174.5 8l94 8l13 -121l-160 -12l-8 -80q-6 -47 -7 -155 v-529q0 -270 -137 -432t-392 -162t-392 166t-137 438v580q0 37 -9.5 91t-11.5 83zM506 1876h115q0 -78 46 -125t123.5 -47t124 47t46.5 125h114q0 -139 -72.5 -213t-212 -74t-212 74t-72.5 213z" />
<glyph unicode="&#x16d;" horiz-adv-x="1206" d="M39 920l10 110q125 -18 193.5 -18t87.5 2l32 4l13 -12l-8 -129q-6 -72 -7 -207v-295q0 -264 207 -264q117 0 185.5 90t72.5 217v313q0 31 -9 83t-11 81l-176 25l10 104l98 -6q55 -6 130 -6t94 2l32 4l13 -12l-9 -129q-6 -72 -6 -207v-389q0 -47 21 -164l141 -11l-12 -114 l-68 4q-94 4 -199 4l-26 158q-102 -178 -318 -178q-207 0 -274 131q-61 117 -61 333v287q0 31 -9.5 83t-11.5 81zM274 1489h115q0 -78 46 -125t124 -47t124 47t46 125h115q0 -139 -73 -213t-212 -74t-212 74t-73 213z" />
<glyph unicode="&#x16e;" horiz-adv-x="1533" d="M61 1352l11 102l65 -6q78 -4 171 -4t177 8l111 8l12 -121l-159 -12l-9 -80q-6 -47 -6 -155v-529q0 -205 92 -334t264.5 -129t266.5 130t94 333v590q0 25 -10.5 85t-12.5 89l-155 16l10 111l49 -6q61 -4 159.5 -4t174.5 8l94 8l13 -121l-160 -12l-8 -80q-6 -47 -7 -155 v-529q0 -270 -137 -432t-392 -162t-392 166t-137 438v580q0 37 -9.5 91t-11.5 83zM606 1742q0 81 47 128t137.5 47t136.5 -47t46 -128t-46 -128t-136.5 -47t-137.5 47t-47 128zM707 1742q0 -97 85 -97t85 97t-85 97t-85 -97z" />
<glyph unicode="&#x16f;" horiz-adv-x="1206" d="M39 920l10 110q125 -18 193.5 -18t87.5 2l32 4l13 -12l-8 -129q-6 -72 -7 -207v-295q0 -264 207 -264q117 0 185.5 90t72.5 217v313q0 31 -9 83t-11 81l-176 25l10 104l98 -6q55 -6 130 -6t94 2l32 4l13 -12l-9 -129q-6 -72 -6 -207v-389q0 -47 21 -164l141 -11l-12 -114 l-68 4q-94 4 -199 4l-26 158q-102 -178 -318 -178q-207 0 -274 131q-61 117 -61 333v287q0 31 -9.5 83t-11.5 81zM375 1363q0 81 47 128t137 47t136 -47t46 -128t-46 -128t-136 -47t-137 47t-47 128zM475 1363q0 -97 85 -97t85 97t-85 97t-85 -97z" />
<glyph unicode="&#x170;" horiz-adv-x="1533" d="M61 1352l11 102l65 -6q78 -4 171 -4t177 8l111 8l12 -121l-159 -12l-9 -80q-6 -47 -6 -155v-529q0 -205 92 -334t264.5 -129t266.5 130t94 333v590q0 25 -10.5 85t-12.5 89l-155 16l10 111l49 -6q61 -4 159.5 -4t174.5 8l94 8l13 -121l-160 -12l-8 -80q-6 -47 -7 -155 v-529q0 -270 -137 -432t-392 -162t-392 166t-137 438v580q0 37 -9.5 91t-11.5 83zM457 1651l430 278l84 -137q-37 -18 -99.5 -45t-97.5 -43q-86 -37 -96 -39l-166 -102zM948 1651l430 278l84 -137q-37 -18 -99.5 -45t-96.5 -43q-86 -35 -97 -39l-165 -102z" />
<glyph unicode="&#x171;" horiz-adv-x="1206" d="M39 920l10 110q125 -18 193.5 -18t87.5 2l32 4l13 -12l-8 -129q-6 -72 -7 -207v-295q0 -264 207 -264q117 0 185.5 90t72.5 217v313q0 31 -9 83t-11 81l-176 25l10 104l98 -6q55 -6 130 -6t94 2l32 4l13 -12l-9 -129q-6 -72 -6 -207v-389q0 -47 21 -164l141 -11l-12 -114 l-68 4q-94 4 -199 4l-26 158q-102 -178 -318 -178q-207 0 -274 131q-61 117 -61 333v287q0 31 -9.5 83t-11.5 81zM240 1239l393 328l100 -127q-102 -57 -125 -72l-149 -88l-152 -125zM651 1239l393 328l101 -127q-102 -57 -125 -72l-150 -88l-151 -125z" />
<glyph unicode="&#x172;" horiz-adv-x="1533" d="M61 1352l11 102l65 -6q78 -4 171 -4t177 8l111 8l12 -121l-159 -12l-9 -80q-6 -47 -6 -155v-529q0 -205 92 -334t264.5 -129t266.5 130t94 333v590q0 25 -10.5 85t-12.5 89l-155 16l10 111l49 -6q61 -4 159.5 -4t174.5 8l94 8l13 -121l-160 -12l-8 -80q-6 -47 -7 -155 v-529q0 -270 -137 -432t-392 -162t-392 166t-137 438v580q0 37 -9.5 91t-11.5 83zM651 -234.5q0 76.5 32 121.5t108 113l96 -8q-57 -63 -80 -108.5t-23 -104.5q0 -96 111 -96q53 0 115 26l28 -67q-96 -45 -184 -45t-145.5 46t-57.5 122.5z" />
<glyph unicode="&#x173;" horiz-adv-x="1206" d="M39 920l10 110q125 -18 193.5 -18t87.5 2l32 4l13 -12l-8 -129q-6 -72 -7 -207v-295q0 -264 207 -264q117 0 185.5 90t72.5 217v313q0 31 -9 83t-11 81l-176 25l10 104l98 -6q55 -6 130 -6t94 2l32 4l13 -12l-9 -129q-6 -72 -6 -207v-389q0 -47 21 -164l141 -11l-12 -114 l-68 4q-94 4 -199 4l-26 158q-102 -178 -318 -178q-207 0 -274 131q-61 117 -61 333v287q0 31 -9.5 83t-11.5 81zM907 -234.5q0 76.5 32 121.5t108 113l96 -8q-57 -63 -80 -108.5t-23 -104.5q0 -96 111 -96q53 0 115 26l28 -67q-96 -45 -184 -45t-145.5 46t-57.5 122.5z" />
<glyph unicode="&#x174;" horiz-adv-x="2037" d="M10 1333l8 121l82 -6q94 -4 175 -4t157 6l80 8l4 -129l-154 -14q51 -213 62 -238l252 -735l309 1083h94l373 -1083l221 842q8 39 21 135l-150 20l10 117l72 -6q39 -6 140.5 -6t179.5 6l79 8l3 -125l-117 -14q-94 -150 -103 -203l-331 -1116h-105l-368 1038 q-43 -141 -141.5 -492t-164.5 -546h-104l-401 1145q-68 123 -101 180zM655 1669l357 219l356 -219l-47 -80l-180 84l-129 51l-129 -51l-181 -84z" />
<glyph unicode="&#x175;" horiz-adv-x="1638" d="M0 920l10 110q129 -18 213 -18t123 6l72 8l10 -113l-117 -14l56 -184l174 -500l256 797h82l280 -797l160 504q10 55 45 180l-131 21l10 110q143 -18 219 -18t109 6l59 6l8 -111l-106 -14q-98 -213 -102 -246l-220 -653h-137l-256 664l-223 -664h-137l-131 336 q-133 340 -142.5 370.5t-87.5 194.5zM485 1221l340 346l340 -346l-67 -66l-152 125q-57 37 -121 86q-23 -16 -50 -36.5t-46 -33.5l-24 -16l-152 -125z" />
<glyph unicode="&#x176;" horiz-adv-x="1320" d="M10 1333l8 121l82 -6q94 -4 175 -4t157 6l80 8l4 -129l-129 -12q74 -205 92 -240l189 -368l241 475q10 20 49 139l-131 16l11 117l71 -6q39 -6 140.5 -6t179.5 6l80 8l2 -125l-140 -18l-155 -197l-271 -520v-256q0 -109 7 -152l8 -73l160 -13l-13 -112l-108 4 q-127 4 -198 4t-148 -4l-66 -4l-10 106l158 19q2 18 11 70.5t9 93.5v272l-311 592q-51 68 -152 180zM309 1669l357 219l356 -219l-47 -80l-180 84l-129 51l-129 -51l-181 -84z" />
<glyph unicode="&#x177;" horiz-adv-x="1103" d="M10 920l10 110q143 -18 222.5 -18t117.5 6l72 8l10 -113l-127 -16q33 -115 56 -182l209 -518l188 522q31 90 53 180l-133 21l10 110q143 -18 219 -18t109 6l59 6l9 -111l-78 -10q-119 -240 -123 -250l-258 -653l-172 -481l-334 22l16 119q10 -2 33 -2h49q33 0 135 25 q66 98 80 135l58 164l-303 723q-8 27 -105 198zM238 1221l340 346l340 -346l-68 -66l-152 125q-57 37 -120 86q-23 -16 -50.5 -36.5t-46.5 -33.5l-24 -16l-152 -125z" />
<glyph unicode="&#x178;" horiz-adv-x="1320" d="M10 1333l8 121l82 -6q94 -4 175 -4t157 6l80 8l4 -129l-129 -12q74 -205 92 -240l189 -368l241 475q10 20 49 139l-131 16l11 117l71 -6q39 -6 140.5 -6t179.5 6l80 8l2 -125l-140 -18l-155 -197l-271 -520v-256q0 -109 7 -152l8 -73l160 -13l-13 -112l-108 4 q-127 4 -198 4t-148 -4l-66 -4l-10 106l158 19q2 18 11 70.5t9 93.5v272l-311 592q-51 68 -152 180zM303 1745q0 57 29 90t82 33q111 0 110.5 -122t-111 -122t-110.5 121zM807 1745q0 57 29 90t82 33q111 0 110.5 -122t-111 -122t-110.5 121z" />
<glyph unicode="&#x179;" horiz-adv-x="1128" d="M41 117l106 135q113 145 146 197l387 616l137 258h-379q-29 0 -176 -16q-29 -43 -32 -59.5t-11 -69t-10 -60.5l-119 10l14 314l21 22q201 -20 252 -20h678l14 -115q-172 -244 -223 -317l-381 -621l-143 -270h401q59 0 186 24q25 37 35 66l31 158l112 -11l-30 -344 l-21 -22l-110 4q-115 4 -142 4h-729zM430 1694l469 204l62 -149l-140 -35q-29 -8 -69.5 -17t-66.5 -16.5t-34 -9.5l-180 -76z" />
<glyph unicode="&#x17a;" horiz-adv-x="935" d="M72 119l86 96q86 94 108 129l256 377q82 143 103 184h-250q-14 0 -109 -12q-49 -98 -49 -127l-8 -72l-119 8l12 299l17 17l90 -4q47 -2 123 -2h495l15 -119l-37 -45q-100 -123 -139 -178l-252 -379q-25 -29 -103 -185h256q23 0 121 13q41 84 45 106q8 41 12 80l119 -12 l-18 -279l-21 -20l-241 6h-498zM305 1239l393 328l101 -127q-102 -57 -125 -72l-150 -88l-151 -125z" />
<glyph unicode="&#x17b;" horiz-adv-x="1128" d="M41 117l106 135q113 145 146 197l387 616l137 258h-379q-29 0 -176 -16q-29 -43 -32 -59.5t-11 -69t-10 -60.5l-119 10l14 314l21 22q201 -20 252 -20h678l14 -115q-172 -244 -223 -317l-381 -621l-143 -270h401q59 0 186 24q25 37 35 66l31 158l112 -11l-30 -344 l-21 -22l-110 4q-115 4 -142 4h-729zM487 1720.5q0 61.5 31 97t89.5 35.5t90 -34.5t31.5 -97t-30.5 -97.5t-90 -35t-90.5 35t-31 96.5z" />
<glyph unicode="&#x17c;" horiz-adv-x="935" d="M72 119l86 96q86 94 108 129l256 377q82 143 103 184h-250q-14 0 -109 -12q-49 -98 -49 -127l-8 -72l-119 8l12 299l17 17l90 -4q47 -2 123 -2h495l15 -119l-37 -45q-100 -123 -139 -178l-252 -379q-25 -29 -103 -185h256q23 0 121 13q41 84 45 106q8 41 12 80l119 -12 l-18 -279l-21 -20l-241 6h-498zM348 1341.5q0 61.5 31 97.5t89 36t90 -35t32 -97.5t-31 -97.5t-90 -35t-90 35t-31 96.5z" />
<glyph unicode="&#x17d;" horiz-adv-x="1128" d="M41 117l106 135q113 145 146 197l387 616l137 258h-379q-29 0 -176 -16q-29 -43 -32 -59.5t-11 -69t-10 -60.5l-119 10l14 314l21 22q201 -20 252 -20h678l14 -115q-172 -244 -223 -317l-381 -621l-143 -270h401q59 0 186 24q25 37 35 66l31 158l112 -11l-30 -344 l-21 -22l-110 4q-115 4 -142 4h-729zM252 1808l47 80l180 -84l129 -51l129 51l181 84l47 -80l-357 -219z" />
<glyph unicode="&#x17e;" horiz-adv-x="935" d="M72 119l86 96q86 94 108 129l256 377q82 143 103 184h-250q-14 0 -109 -12q-49 -98 -49 -127l-8 -72l-119 8l12 299l17 17l90 -4q47 -2 123 -2h495l15 -119l-37 -45q-100 -123 -139 -178l-252 -379q-25 -29 -103 -185h256q23 0 121 13q41 84 45 106q8 41 12 80l119 -12 l-18 -279l-21 -20l-241 6h-498zM129 1501l68 66l151 -125l121 -88l121 88l151 125l68 -66l-340 -346z" />
<glyph unicode="&#x192;" horiz-adv-x="747" d="M-10 -397l4 108q125 0 161 72.5t42 236.5l30 881h-157l-4 86q53 16 81 23q47 14 84 37l7 176q6 166 102 260t270 94q66 0 126.5 -9t84.5 -12l-33 -276l-108 6l4 74q0 35 -25 104q-29 4 -68.5 4t-76.5 -15t-58.5 -38.5t-33.5 -68.5q-16 -72 -21 -187l-4 -147h287l-14 -111 h-277l-33 -944q-6 -164 -101 -259t-269 -95z" />
<glyph unicode="&#x1cd;" horiz-adv-x="1404" d="M10 98l117 17q113 207 115 215l397 1114l111 22l225 -585q49 -125 106 -279q123 -324 131 -340q16 -49 78 -151l105 -11l-6 -108l-142 4q-152 4 -190.5 4t-91.5 -4l-50 -4l-10 108l146 15q-14 100 -31 149l-82 213l-510 -6l-84 -235q-14 -63 -22 -119h2l159 -17l-12 -108 l-127 4q-143 4 -193.5 4t-95.5 -4l-39 -4zM326 1808l47 80l180 -84l129 -51l129 51l180 84l47 -80l-356 -219zM467 582q111 -4 158 -4t138 3t134 3l-223 581z" />
<glyph unicode="&#x1ce;" horiz-adv-x="1050" d="M82 240.5q0 115.5 59.5 175t149.5 83t393 70.5v68q0 283 -192 283q-113 0 -191 -39q-18 -92 -18 -97v-73l-119 -6l-23 276q184 49 374 49t262.5 -106.5t72.5 -327.5v-315q0 -47 20 -164l142 -11l-13 -114l-67 4q-94 4 -199 4l-28 162q-41 -76 -138.5 -129t-216.5 -53 t-193.5 72.5t-74.5 188zM150 1501l67 66l152 -125l120 -88l121 88l152 125l67 -66l-340 -346zM262 262q0 -152 166 -151q88 0 164 65.5t92 165.5v123q-10 -2 -117.5 -20.5t-175.5 -34.5q-129 -33 -129 -148z" />
<glyph unicode="&#x1cf;" horiz-adv-x="702" d="M12 1808l47 80l181 -84l129 -51l129 51l180 84l47 -80l-356 -219zM82 98l158 19q2 18 11 70.5t9 93.5v882q0 31 -9 83t-11 81l-158 19l10 108l66 -6q78 -4 168 -4t174 8l108 8l13 -121l-160 -12l-8 -74q-6 -43 -7 -151v-760q0 -109 7 -152l8 -73l160 -13l-13 -112l-108 4 q-127 4 -195.5 4t-146.5 -4l-66 -4z" />
<glyph unicode="&#x1d0;" horiz-adv-x="612" d="M-84 1501l68 66l151 -125l121 -88l121 88l151 125l68 -66l-340 -346zM53 92l158 25q2 18 11 70.5t9 93.5v450q0 31 -9 83t-11 81l-156 25l11 110q143 -18 212.5 -18t88.5 2l32 4l13 -12l-9 -129q-6 -72 -6 -207v-328q0 -109 6 -152l9 -73l159 -13l-12 -112l-98 4 q-115 4 -184.5 4t-147.5 -4l-66 -4z" />
<glyph unicode="&#x1d1;" horiz-adv-x="1527" d="M92 722q0 343 173 548t499 205t499 -205t173 -548t-173 -548t-499 -205t-499 205t-173 548zM311 721q0 -283 117 -463t336 -180t336 180t117 463t-117 464t-336 181t-336 -181t-117 -464zM410 1808l47 80l180 -84l129 -51l129 51l180 84l47 -80l-356 -219z" />
<glyph unicode="&#x1d2;" horiz-adv-x="1105" d="M82 504.5q0 240.5 122 383t351 142.5t349 -141t120 -383t-122 -384t-349 -142t-349 142t-122 382.5zM213 1501l68 66l151 -125l121 -88l121 88l151 125l68 -66l-340 -346zM274 504q0 -178 66 -293t213 -115t212.5 115t65.5 293t-65.5 293.5t-212.5 115.5t-213 -115.5 t-66 -293.5z" />
<glyph unicode="&#x1d3;" horiz-adv-x="1533" d="M61 1352l11 102l65 -6q78 -4 171 -4t177 8l111 8l12 -121l-159 -12l-9 -80q-6 -47 -6 -155v-529q0 -205 92 -334t264.5 -129t266.5 130t94 333v590q0 25 -10.5 85t-12.5 89l-155 16l10 111l49 -6q61 -4 159.5 -4t174.5 8l94 8l13 -121l-160 -12l-8 -80q-6 -47 -7 -155 v-529q0 -270 -137 -432t-392 -162t-392 166t-137 438v580q0 37 -9.5 91t-11.5 83zM434 1808l47 80l181 -84l129 -51l129 51l180 84l47 -80l-356 -219z" />
<glyph unicode="&#x1d4;" horiz-adv-x="1206" d="M39 920l10 110q125 -18 193.5 -18t87.5 2l32 4l13 -12l-8 -129q-6 -72 -7 -207v-295q0 -264 207 -264q117 0 185.5 90t72.5 217v313q0 31 -9 83t-11 81l-176 25l10 104l98 -6q55 -6 130 -6t94 2l32 4l13 -12l-9 -129q-6 -72 -6 -207v-389q0 -47 21 -164l141 -11l-12 -114 l-68 4q-94 4 -199 4l-26 158q-102 -178 -318 -178q-207 0 -274 131q-61 117 -61 333v287q0 31 -9.5 83t-11.5 81zM219 1501l68 66l151 -125l121 -88l121 88l151 125l68 -66l-340 -346z" />
<glyph unicode="&#x1e2;" horiz-adv-x="1869" d="M10 98l127 19q117 156 131 196l484 1014l-152 25l10 102l66 -6q78 -4 129 -4h643q51 0 252 20l20 -22l15 -293l-119 -10q-16 88 -24.5 114.5t-39.5 65.5q-78 10 -166 10h-370q2 -10 8 -93t14 -128l49 -320l156 -6h98q49 0 123 19l19 135l94 -10q-2 -25 -2 -68v-96 q0 -106 2 -150l4 -73l-98 -13l-19 138l-67 6l-97 6h-57q-63 0 -137 -8l49 -312q4 -37 24.5 -128t26.5 -111h248q72 0 178 18q31 41 43 76q2 16 15.5 70.5t15.5 66.5l113 -10l-31 -324l-21 -22l-110 4q-115 4 -141 4h-535q-29 0 -82 -4l-49 -4l-10 108l143 15v22 q0 102 -6 129l-39 252l-434 -6l-144 -303q-8 -23 -28 -94l151 -15l-12 -108l-127 4q-143 4 -193.5 4t-95.5 -4l-39 -4zM557 621q51 -2 136 -2.5t229 4.5l-78 516l-15 57zM774 1661v108h660l-11 -108h-649z" />
<glyph unicode="&#x1e3;" horiz-adv-x="1542" d="M82 240.5q0 115.5 59.5 175t149.5 83t393 70.5v68q0 283 -192 283q-113 0 -191 -39q-18 -92 -18 -97v-73l-119 -6l-23 276q184 49 383 49t271 -133q121 131 307 131q365 0 389 -393l-31 -78l-612 -68q4 -156 75.5 -266t202.5 -110q166 0 306 84l57 -95 q-147 -123 -363 -122q-131 0 -232 57t-155 160q-139 -217 -381 -217q-127 0 -201.5 72.5t-74.5 188zM262 262q0 -72 39 -111.5t111 -39.5q133 0 202.5 102t69.5 252q-10 -2 -117.5 -20.5t-175.5 -34.5q-129 -33 -129 -148zM469 1282v109h659l-10 -109h-649zM850 592l457 67 v5q0 119 -52.5 188.5t-160.5 69.5q-211 0 -244 -330z" />
<glyph unicode="&#x1e6;" horiz-adv-x="1337" d="M92 720q0 345 176 550t508 205q166 0 330 -41q102 -25 121 -29l-23 -303l-119 12v92q0 31 -24 101q-166 49 -289 49q-229 0 -349 -176t-120 -457t120 -458t349 -177q131 0 285 41q25 94 24 133v139q0 31 -9 83.5t-11 80.5l-176 17l10 116l100 -8q74 -8 140.5 -8t85.5 2 l32 4l13 -12q-20 -215 -21 -336v-301q-295 -70 -469 -70q-332 0 -508 203t-176 548zM436 1808l47 80l181 -84l129 -51l129 51l180 84l47 -80l-356 -219z" />
<glyph unicode="&#x1e7;" horiz-adv-x="1042" d="M49 -184q0 63 191 204q-92 49 -93 152q0 43 146 166q-182 94 -182 321q0 172 110.5 271.5t284.5 99.5q113 0 205 -45l235 51l19 -104l-74 -25q-12 -4 -51 -33q61 -88 61 -215q0 -172 -110.5 -271t-284.5 -99q-76 0 -139 18q-55 -70 -55.5 -88t16 -32.5t54.5 -22.5 t71.5 -12.5t93.5 -10.5q258 -27 336 -53q92 -29 92 -190.5t-161 -270t-359 -108.5q-406 0 -406 297zM209 1501l67 66l152 -125l121 -88l121 88l151 125l68 -66l-340 -346zM225 -147q0 -123 73 -170.5t202 -47.5t215 55.5t86 155.5q0 48 -15.5 65t-65.5 27.5t-209 29 t-196 28.5q-90 -117 -90 -143zM289 659.5q0 -266.5 217 -266.5t217 266.5t-217 266.5t-217 -266.5z" />
<glyph unicode="&#x1ea;" horiz-adv-x="1527" d="M92 722q0 343 173 548t499 205t499 -205t173 -548t-173 -548t-499 -205t-499 205t-173 548zM311 721q0 -283 117 -463t336 -180t336 180t117 463t-117 464t-336 181t-336 -181t-117 -464zM627 -234.5q0 76.5 31.5 121.5t107.5 113l96 -8q-57 -63 -79.5 -108.5 t-22.5 -104.5q0 -96 110 -96q53 0 115 26l29 -67q-96 -45 -184.5 -45t-145.5 46t-57 122.5z" />
<glyph unicode="&#x1eb;" horiz-adv-x="1105" d="M82 504.5q0 240.5 122 383t351 142.5t349 -141t120 -383t-122 -384t-349 -142t-349 142t-122 382.5zM274 504q0 -178 66 -293t213 -115t212.5 115t65.5 293t-65.5 293.5t-212.5 115.5t-213 -115.5t-66 -293.5zM438 -234.5q0 76.5 32 121.5t108 113l96 -8 q-57 -63 -80 -108.5t-23 -104.5q0 -96 111 -96q53 0 115 26l28 -67q-96 -45 -184 -45t-145.5 46t-57.5 122.5z" />
<glyph unicode="&#x1f4;" horiz-adv-x="1337" d="M92 720q0 345 176 550t508 205q166 0 330 -41q102 -25 121 -29l-23 -303l-119 12v92q0 31 -24 101q-166 49 -289 49q-229 0 -349 -176t-120 -457t120 -458t349 -177q131 0 285 41q25 94 24 133v139q0 31 -9 83.5t-11 80.5l-176 17l10 116l100 -8q74 -8 140.5 -8t85.5 2 l32 4l13 -12q-20 -215 -21 -336v-301q-295 -70 -469 -70q-332 0 -508 203t-176 548zM614 1694l469 204l62 -149l-139 -35q-29 -8 -70 -17t-66.5 -16.5t-33.5 -9.5l-181 -76z" />
<glyph unicode="&#x1f5;" horiz-adv-x="1042" d="M49 -184q0 63 191 204q-92 49 -93 152q0 43 146 166q-182 94 -182 321q0 172 110.5 271.5t284.5 99.5q113 0 205 -45l235 51l19 -104l-74 -25q-12 -4 -51 -33q61 -88 61 -215q0 -172 -110.5 -271t-284.5 -99q-76 0 -139 18q-55 -70 -55.5 -88t16 -32.5t54.5 -22.5 t71.5 -12.5t93.5 -10.5q258 -27 336 -53q92 -29 92 -190.5t-161 -270t-359 -108.5q-406 0 -406 297zM225 -147q0 -123 73 -170.5t202 -47.5t215 55.5t86 155.5q0 48 -15.5 65t-65.5 27.5t-209 29t-196 28.5q-90 -117 -90 -143zM289 659.5q0 -266.5 217 -266.5t217 266.5 t-217 266.5t-217 -266.5zM385 1239l393 328l101 -127q-102 -57 -125 -72l-150 -88l-151 -125z" />
<glyph unicode="&#x1fc;" horiz-adv-x="1869" d="M10 98l127 19q117 156 131 196l484 1014l-152 25l10 102l66 -6q78 -4 129 -4h643q51 0 252 20l20 -22l15 -293l-119 -10q-16 88 -24.5 114.5t-39.5 65.5q-78 10 -166 10h-370q2 -10 8 -93t14 -128l49 -320l156 -6h98q49 0 123 19l19 135l94 -10q-2 -25 -2 -68v-96 q0 -106 2 -150l4 -73l-98 -13l-19 138l-67 6l-97 6h-57q-63 0 -137 -8l49 -312q4 -37 24.5 -128t26.5 -111h248q72 0 178 18q31 41 43 76q2 16 15.5 70.5t15.5 66.5l113 -10l-31 -324l-21 -22l-110 4q-115 4 -141 4h-535q-29 0 -82 -4l-49 -4l-10 108l143 15v22 q0 102 -6 129l-39 252l-434 -6l-144 -303q-8 -23 -28 -94l151 -15l-12 -108l-127 4q-143 4 -193.5 4t-95.5 -4l-39 -4zM557 621q51 -2 136 -2.5t229 4.5l-78 516l-15 57zM922 1694l469 204l61 -149l-139 -35q-29 -8 -70 -17t-66.5 -16.5t-33.5 -9.5l-180 -76z" />
<glyph unicode="&#x1fd;" horiz-adv-x="1542" d="M82 240.5q0 115.5 59.5 175t149.5 83t393 70.5v68q0 283 -192 283q-113 0 -191 -39q-18 -92 -18 -97v-73l-119 -6l-23 276q184 49 383 49t271 -133q121 131 307 131q365 0 389 -393l-31 -78l-612 -68q4 -156 75.5 -266t202.5 -110q166 0 306 84l57 -95 q-147 -123 -363 -122q-131 0 -232 57t-155 160q-139 -217 -381 -217q-127 0 -201.5 72.5t-74.5 188zM262 262q0 -72 39 -111.5t111 -39.5q133 0 202.5 102t69.5 252q-10 -2 -117.5 -20.5t-175.5 -34.5q-129 -33 -129 -148zM631 1239l393 328l100 -127q-102 -57 -125 -72 l-149 -88l-152 -125zM850 592l457 67v5q0 119 -52.5 188.5t-160.5 69.5q-211 0 -244 -330z" />
<glyph unicode="&#x1fe;" horiz-adv-x="1548" d="M82 722q0 343 173 548t498.5 205t498.5 -205t173 -548t-173 -548t-498.5 -205t-498.5 205t-173 548zM201 -231l1024 1947l86 -47l-1028 -1948zM301 721q0 -283 117 -463t336 -180t335.5 180t116.5 463t-116.5 464t-335.5 181t-336 -181t-117 -464zM596 1694l469 204 l61 -149l-139 -35q-29 -8 -69.5 -17t-66.5 -16.5t-34 -9.5l-180 -76z" />
<glyph unicode="&#x1ff;" horiz-adv-x="1105" d="M82 504.5q0 240.5 122 383t351 142.5t349 -141t120 -383t-122 -384t-349 -142t-349 142t-122 382.5zM150 -162l731 1387l82 -41l-734 -1387zM274 504q0 -178 66 -293t213 -115t212.5 115t65.5 293t-65.5 293.5t-212.5 115.5t-213 -115.5t-66 -293.5zM391 1239l393 328 l101 -127q-102 -57 -125 -72l-150 -88l-151 -125z" />
<glyph unicode="&#x2c6;" horiz-adv-x="681" d="M0 1221l340 346l340 -346l-68 -66l-151 125q-57 37 -121 86q-23 -16 -50.5 -36.5t-45.5 -33.5l-25 -16l-151 -125z" />
<glyph unicode="&#x2c7;" horiz-adv-x="681" d="M0 1501l68 66l151 -125l121 -88l121 88l151 125l68 -66l-340 -346z" />
<glyph unicode="&#x2d8;" horiz-adv-x="571" d="M0 1489h115q0 -78 46 -125t123.5 -47t124 47t46.5 125h114q0 -139 -72.5 -213t-212 -74t-212 74t-72.5 213z" />
<glyph unicode="&#x2d9;" horiz-adv-x="241" d="M0 1341.5q0 61.5 30.5 97.5t89 36t90.5 -35t32 -97.5t-31 -97.5t-90.5 -35t-90 35t-30.5 96.5z" />
<glyph unicode="&#x2da;" horiz-adv-x="366" d="M0 1363q0 81 47 128t137 47t136.5 -47t46.5 -128t-46.5 -128t-136.5 -47t-137 47t-47 128zM100 1363q0 -97 85 -97t85 97t-85 97t-85 -97z" />
<glyph unicode="&#x2db;" horiz-adv-x="389" d="M47 -234.5q0 76.5 31.5 121.5t107.5 113l97 -8q-57 -63 -80 -108.5t-23 -104.5q0 -96 111 -96q53 0 115 26l28 -67q-96 -45 -184 -45t-145.5 46t-57.5 122.5z" />
<glyph unicode="&#x2dc;" horiz-adv-x="667" d="M0 1253q18 45 53 103q63 104 109.5 104t164 -42t154.5 -42t80 51q14 16 33 54l74 -43q-96 -201 -170 -201q-43 0 -158 42t-150.5 42t-83.5 -55q-16 -20 -32 -56z" />
<glyph unicode="&#x2dd;" horiz-adv-x="987" d="M41 1239l393 328l101 -127q-102 -57 -125 -72l-150 -88l-151 -125zM453 1239l393 328l100 -127q-102 -57 -125 -72l-149 -88l-152 -125z" />
<glyph unicode="&#x3c0;" horiz-adv-x="1245" d="M-20 840q147 213 223 213l758 -35q49 0 147 76l72 -78q-143 -178 -217 -178q-8 -47 -9 -109l-4 -387q0 -141 20.5 -192.5t108.5 -94.5l-39 -86q-147 49 -197 93t-50 118l18 662l-410 22v-522l7 -334l-19 -16l-41 4q-45 4 -78 4h-45l-18 16l20 117q16 100 21 148 q23 512 22 589q-27 2 -57 2q-51 0 -152 -100z" />
<glyph unicode="&#x1e20;" horiz-adv-x="1337" d="M92 720q0 345 176 550t508 205q166 0 330 -41q102 -25 121 -29l-23 -303l-119 12v92q0 31 -24 101q-166 49 -289 49q-229 0 -349 -176t-120 -457t120 -458t349 -177q131 0 285 41q25 94 24 133v139q0 31 -9 83.5t-11 80.5l-176 17l10 116l100 -8q74 -8 140.5 -8t85.5 2 l32 4l13 -12q-20 -215 -21 -336v-301q-295 -70 -469 -70q-332 0 -508 203t-176 548zM467 1661v108h659l-10 -108h-649z" />
<glyph unicode="&#x1e21;" horiz-adv-x="1042" d="M49 -184q0 63 191 204q-92 49 -93 152q0 43 146 166q-182 94 -182 321q0 172 110.5 271.5t284.5 99.5q113 0 205 -45l235 51l19 -104l-74 -25q-12 -4 -51 -33q61 -88 61 -215q0 -172 -110.5 -271t-284.5 -99q-76 0 -139 18q-55 -70 -55.5 -88t16 -32.5t54.5 -22.5 t71.5 -12.5t93.5 -10.5q258 -27 336 -53q92 -29 92 -190.5t-161 -270t-359 -108.5q-406 0 -406 297zM223 1282v109h660l-11 -109h-649zM225 -147q0 -123 73 -170.5t202 -47.5t215 55.5t86 155.5q0 48 -15.5 65t-65.5 27.5t-209 29t-196 28.5q-90 -117 -90 -143zM289 659.5 q0 -266.5 217 -266.5t217 266.5t-217 266.5t-217 -266.5z" />
<glyph unicode="&#x1e3e;" horiz-adv-x="1927" d="M57 98l158 19q2 6 7 28.5t9.5 36t10.5 45t10 43.5l53 895q0 31 -9 83t-11 81l-156 17l10 114l97 -8q74 -8 127 -8t114 4l53 4l13 -12l47 -168q53 -188 59 -205l322 -772l325 805q12 29 54.5 166t52.5 174l12 12l37 -4q45 -4 99.5 -4t121.5 8l92 8l13 -121l-160 -12 l-6 -65q-6 -35 -6 -97l69 -895q2 -16 13.5 -59t16.5 -65.5t7 -28.5l158 -19l-10 -106l-68 4q-78 4 -148.5 4t-205.5 -4l-119 -4l-12 112l159 13l11 215l-43 751l-465 -1083h-76l-465 1085l-37 -753q0 -39 4 -133l6 -82l160 -13l-12 -112l-90 4q-111 4 -179.5 4t-146.5 -4 l-65 -4zM805 1694l469 204l61 -149l-139 -35q-29 -8 -70 -17t-66.5 -16.5t-33.5 -9.5l-180 -76z" />
<glyph unicode="&#x1e3f;" horiz-adv-x="1822" d="M53 932l10 104l64 -6q39 -6 103.5 -6t78.5 2l25 4l12 -12l27 -162q102 174 317 174t277 -196q37 78 116.5 137t204.5 59q188 0 254 -115.5t66 -347.5v-225q0 -109 6 -152l8 -73l162 -13l-12 -112l-91 4q-111 4 -186.5 4t-136.5 -4l-53 -4l-11 104l127 21q2 18 11.5 70.5 t9.5 93.5v356q0 260 -195 260q-100 0 -170.5 -99.5t-75.5 -224.5v-231q0 -109 7 -152l8 -73l153 -13l-12 -112l-86 4q-111 4 -184.5 4t-134.5 -4l-54 -4l-10 104l127 21q2 18 11.5 70.5t9.5 93.5v356q0 260 -195 260q-102 0 -174 -104.5t-72 -231.5v-219q0 -109 6 -152 l9 -73l153 -13l-12 -112l-88 4q-111 4 -185.5 4t-140.5 -4l-53 -4l-10 104l135 21q2 18 11 70.5t9 93.5v450q0 12 -10 69.5t-18 106.5zM776 1239l393 328l101 -127q-102 -57 -125 -72l-150 -88l-151 -125z" />
<glyph unicode="&#x1e40;" horiz-adv-x="1927" d="M57 98l158 19q2 6 7 28.5t9.5 36t10.5 45t10 43.5l53 895q0 31 -9 83t-11 81l-156 17l10 114l97 -8q74 -8 127 -8t114 4l53 4l13 -12l47 -168q53 -188 59 -205l322 -772l325 805q12 29 54.5 166t52.5 174l12 12l37 -4q45 -4 99.5 -4t121.5 8l92 8l13 -121l-160 -12 l-6 -65q-6 -35 -6 -97l69 -895q2 -16 13.5 -59t16.5 -65.5t7 -28.5l158 -19l-10 -106l-68 4q-78 4 -148.5 4t-205.5 -4l-119 -4l-12 112l159 13l11 215l-43 751l-465 -1083h-76l-465 1085l-37 -753q0 -39 4 -133l6 -82l160 -13l-12 -112l-90 4q-111 4 -179.5 4t-146.5 -4 l-65 -4zM862 1720.5q0 61.5 31 97t89 35.5t90 -34.5t32 -97t-31 -97.5t-90 -35t-90 35t-31 96.5z" />
<glyph unicode="&#x1e41;" horiz-adv-x="1822" d="M53 932l10 104l64 -6q39 -6 103.5 -6t78.5 2l25 4l12 -12l27 -162q102 174 317 174t277 -196q37 78 116.5 137t204.5 59q188 0 254 -115.5t66 -347.5v-225q0 -109 6 -152l8 -73l162 -13l-12 -112l-91 4q-111 4 -186.5 4t-136.5 -4l-53 -4l-11 104l127 21q2 18 11.5 70.5 t9.5 93.5v356q0 260 -195 260q-100 0 -170.5 -99.5t-75.5 -224.5v-231q0 -109 7 -152l8 -73l153 -13l-12 -112l-86 4q-111 4 -184.5 4t-134.5 -4l-54 -4l-10 104l127 21q2 18 11.5 70.5t9.5 93.5v356q0 260 -195 260q-102 0 -174 -104.5t-72 -231.5v-219q0 -109 6 -152 l9 -73l153 -13l-12 -112l-88 4q-111 4 -185.5 4t-140.5 -4l-53 -4l-10 104l135 21q2 18 11 70.5t9 93.5v450q0 12 -10 69.5t-18 106.5zM819 1341.5q0 61.5 31 97.5t89 36t90 -35t32 -97.5t-31 -97.5t-90 -35t-90 35t-31 96.5z" />
<glyph unicode="&#x1e44;" horiz-adv-x="1564" d="M61 98l158 19q2 18 11.5 70.5t9.5 93.5v882q0 33 -9.5 88.5t-11.5 77.5l-156 17l11 108l86 -6q94 -4 139 -4t107 4l51 4l10 -12q31 -74 91 -203t77 -152l536 -751v809q0 39 -9 96t-11 88l-158 16l11 111l65 -6q78 -4 166 -4t162 8l94 8l12 -121l-160 -12l-18 -84 q-16 -98 -16 -162v-473l-2 -342v-280h-123l-807 1153v-797q0 -109 6 -152l8 -73l160 -13l-12 -112l-74 4q-94 4 -169 4t-146 -10l-74 -8zM627 1720.5q0 61.5 30.5 97t89 35.5t90 -34.5t31.5 -97t-30.5 -97.5t-90 -35t-90 35t-30.5 96.5z" />
<glyph unicode="&#x1e45;" horiz-adv-x="1249" d="M53 932l10 104l64 -6q39 -6 103.5 -6t78.5 2l25 4l12 -12l27 -162q39 68 118.5 121t202.5 53q199 0 269.5 -115.5t70.5 -347.5v-225q0 -109 6 -152l9 -73l161 -13l-12 -112l-90 4q-111 4 -187.5 4t-142.5 -4l-55 -4l-10 104l135 21q2 18 11 70.5t9 93.5v356 q0 119 -52 189.5t-161.5 70.5t-180.5 -81t-79 -198v-276q0 -109 6 -152l9 -73l161 -13l-12 -112l-92 4q-111 4 -187.5 4t-142.5 -4l-53 -4l-10 104l135 21q2 18 11 70.5t9 93.5v450q0 12 -10 69.5t-18 106.5zM520 1341.5q0 61.5 31 97.5t89 36t90 -35t32 -97.5t-31 -97.5 t-90 -35t-90 35t-31 96.5z" />
<glyph unicode="&#x1e58;" horiz-adv-x="1263" d="M61 98l158 19q2 18 11.5 70.5t9.5 93.5v882q0 31 -9.5 83t-11.5 81l-158 25l11 102l65 -6q78 -4 129 -4h13l376 20q213 0 332 -103.5t119 -301.5q0 -141 -85 -239.5t-224 -139.5q162 -322 217 -412q0 -2 102 -147l137 -23l-8 -106l-76 4q-86 4 -117.5 4t-105.5 -8l-12 8 q-82 186 -113 238l-213 417q-123 0 -180 2v-315q0 -106 6 -149l8 -74l140 -15l-13 -112l-77 4q-94 4 -174 4t-158 -10l-84 -8zM428 766q51 -6 139 -6q158 0 249 76.5t91 224t-90 224.5t-248 77q-45 0 -127 -10v-4l-8 -84q-6 -49 -6 -162v-336zM434 1720.5q0 61.5 31 97 t89 35.5t90 -34.5t32 -97t-31 -97.5t-90 -35t-90 35t-31 96.5z" />
<glyph unicode="&#x1e59;" horiz-adv-x="856" d="M53 932l10 104l64 -6q39 -6 103.5 -6t78.5 2l25 4l12 -12l31 -180q117 193 330 192q57 0 98 -10l41 -10l-21 -338l-116 6l-2 108q0 16 -29 103q-143 0 -210 -76.5t-73 -230.5v-240q0 -109 6 -152l9 -73l202 -17l-12 -108l-113 4q-131 4 -207.5 4t-142.5 -4l-53 -4 l-10 104l135 21q2 18 11 70.5t9 93.5v450q0 12 -10 69.5t-18 106.5zM340 1341.5q0 61.5 30.5 97.5t89 36t90.5 -35t32 -97.5t-31 -97.5t-90.5 -35t-90 35t-30.5 96.5z" />
<glyph unicode="&#x1e60;" horiz-adv-x="1124" d="M92 78l31 315l135 -12v-98q0 -31 23 -136q129 -55 260 -55t203.5 66.5t72.5 184.5t-102 196q-68 51 -154 94l-92 47l-12 4q-168 82 -260.5 173t-92.5 254t124 263.5t298 100.5t437 -66l-29 -301l-121 12v82q0 20 -29 115q-109 45 -225.5 45t-183 -59.5t-66.5 -167.5 q0 -106 103 -185q72 -51 152.5 -91t84.5 -42q96 -49 151.5 -84t114.5 -86q117 -104 117 -287.5t-137 -287t-328.5 -103.5t-351.5 54q-68 23 -123 55zM485 1720.5q0 61.5 31 97t89.5 35.5t90 -34.5t31.5 -97t-30.5 -97.5t-90 -35t-90.5 35t-31 96.5z" />
<glyph unicode="&#x1e61;" horiz-adv-x="854" d="M78 59l22 279l119 -6v-78q0 -25 29 -123q57 -47 174 -47q186 0 186 156q0 59 -54 103t-130 78t-152.5 71.5t-131 105.5t-54.5 160q0 127 93 199.5t243.5 72.5t302.5 -35l-25 -293l-118 7v73q0 23 -29 117q-57 25 -135 25t-123 -36t-45 -95.5t54 -103.5t131 -77.5 t155 -71.5t132 -104.5t54 -156.5q0 -299 -360 -299q-190 0 -338 79zM328 1341.5q0 61.5 30.5 97.5t89 36t90 -35t31.5 -97.5t-30.5 -97.5t-90 -35t-90 35t-30.5 96.5z" />
<glyph unicode="&#x1e6a;" horiz-adv-x="1241" d="M31 1149l14 293l21 22q199 -20 251 -20h607q53 0 252 20l20 -22l14 -293l-118 -10q-16 88 -24.5 114.5t-39.5 65.5q-39 6 -135 10h-166l-12 -227v-760q0 -106 6 -149l8 -72l180 -17l-12 -112l-119 4q-135 4 -204.5 4t-147.5 -4l-66 -4l-10 106l158 19q2 18 11 70.5 t9 93.5v882q0 25 -8 89.5t-12 76.5h-160q-96 -4 -137 -10q-37 -53 -41 -72.5t-20 -107.5zM508 1720.5q0 61.5 30.5 97t89 35.5t90.5 -34.5t32 -97t-31 -97.5t-90.5 -35t-90 35t-30.5 96.5z" />
<glyph unicode="&#x1e80;" horiz-adv-x="2037" d="M10 1333l8 121l82 -6q94 -4 175 -4t157 6l80 8l4 -129l-154 -14q51 -213 62 -238l252 -735l309 1083h94l373 -1083l221 842q8 39 21 135l-150 20l10 117l72 -6q39 -6 140.5 -6t179.5 6l79 8l3 -125l-117 -14q-94 -150 -103 -203l-331 -1116h-105l-368 1038 q-43 -141 -141.5 -492t-164.5 -546h-104l-401 1145q-68 123 -101 180zM659 1749l62 149l469 -204l-41 -99l-180 76z" />
<glyph unicode="&#x1e81;" horiz-adv-x="1638" d="M0 920l10 110q129 -18 213 -18t123 6l72 8l10 -113l-117 -14l56 -184l174 -500l256 797h82l280 -797l160 504q10 55 45 180l-131 21l10 110q143 -18 219 -18t109 6l59 6l8 -111l-106 -14q-98 -213 -102 -246l-220 -653h-137l-256 664l-223 -664h-137l-131 336 q-133 340 -142.5 370.5t-87.5 194.5zM494 1440l100 127l393 -328l-67 -84l-152 125q-31 14 -150 88z" />
<glyph unicode="&#x1e82;" horiz-adv-x="2037" d="M10 1333l8 121l82 -6q94 -4 175 -4t157 6l80 8l4 -129l-154 -14q51 -213 62 -238l252 -735l309 1083h94l373 -1083l221 842q8 39 21 135l-150 20l10 117l72 -6q39 -6 140.5 -6t179.5 6l79 8l3 -125l-117 -14q-94 -150 -103 -203l-331 -1116h-105l-368 1038 q-43 -141 -141.5 -492t-164.5 -546h-104l-401 1145q-68 123 -101 180zM834 1694l469 204l61 -149l-139 -35q-29 -8 -70 -17t-66.5 -16.5t-33.5 -9.5l-181 -76z" />
<glyph unicode="&#x1e83;" horiz-adv-x="1638" d="M0 920l10 110q129 -18 213 -18t123 6l72 8l10 -113l-117 -14l56 -184l174 -500l256 797h82l280 -797l160 504q10 55 45 180l-131 21l10 110q143 -18 219 -18t109 6l59 6l8 -111l-106 -14q-98 -213 -102 -246l-220 -653h-137l-256 664l-223 -664h-137l-131 336 q-133 340 -142.5 370.5t-87.5 194.5zM659 1239l394 328l100 -127q-102 -57 -125 -72l-149 -88l-152 -125z" />
<glyph unicode="&#x1e84;" horiz-adv-x="2037" d="M10 1333l8 121l82 -6q94 -4 175 -4t157 6l80 8l4 -129l-154 -14q51 -213 62 -238l252 -735l309 1083h94l373 -1083l221 842q8 39 21 135l-150 20l10 117l72 -6q39 -6 140.5 -6t179.5 6l79 8l3 -125l-117 -14q-94 -150 -103 -203l-331 -1116h-105l-368 1038 q-43 -141 -141.5 -492t-164.5 -546h-104l-401 1145q-68 123 -101 180zM649 1745q0 57 29 90t82 33q111 0 110.5 -122t-111 -122t-110.5 121zM1153 1745q0 57 29 90t82 33q111 0 110.5 -122t-111 -122t-110.5 121z" />
<glyph unicode="&#x1e85;" horiz-adv-x="1638" d="M0 920l10 110q129 -18 213 -18t123 6l72 8l10 -113l-117 -14l56 -184l174 -500l256 797h82l280 -797l160 504q10 55 45 180l-131 21l10 110q143 -18 219 -18t109 6l59 6l8 -111l-106 -14q-98 -213 -102 -246l-220 -653h-137l-256 664l-223 -664h-137l-131 336 q-133 340 -142.5 370.5t-87.5 194.5zM471 1337q0 57 29 90t82 33q111 0 110.5 -121.5t-111 -121.5t-110.5 120zM954 1337q0 57 29 90t82 33q111 0 111 -121.5t-111 -121.5t-111 120z" />
<glyph unicode="&#x1e86;" horiz-adv-x="2037" d="M10 1333l8 121l82 -6q94 -4 175 -4t157 6l80 8l4 -129l-154 -14q51 -213 62 -238l252 -735l309 1083h94l373 -1083l221 842q8 39 21 135l-150 20l10 117l72 -6q39 -6 140.5 -6t179.5 6l79 8l3 -125l-117 -14q-94 -150 -103 -203l-331 -1116h-105l-368 1038 q-43 -141 -141.5 -492t-164.5 -546h-104l-401 1145q-68 123 -101 180zM891 1720.5q0 61.5 30.5 97t89 35.5t90.5 -34.5t32 -97t-31 -97.5t-90.5 -35t-90 35t-30.5 96.5z" />
<glyph unicode="&#x1e87;" horiz-adv-x="1638" d="M0 920l10 110q129 -18 213 -18t123 6l72 8l10 -113l-117 -14l56 -184l174 -500l256 797h82l280 -797l160 504q10 55 45 180l-131 21l10 110q143 -18 219 -18t109 6l59 6l8 -111l-106 -14q-98 -213 -102 -246l-220 -653h-137l-256 664l-223 -664h-137l-131 336 q-133 340 -142.5 370.5t-87.5 194.5zM702 1341.5q0 61.5 31 97.5t89.5 36t90 -35t31.5 -97.5t-30.5 -97.5t-90 -35t-90.5 35t-31 96.5z" />
<glyph unicode="&#x1e8e;" horiz-adv-x="1320" d="M10 1333l8 121l82 -6q94 -4 175 -4t157 6l80 8l4 -129l-129 -12q74 -205 92 -240l189 -368l241 475q10 20 49 139l-131 16l11 117l71 -6q39 -6 140.5 -6t179.5 6l80 8l2 -125l-140 -18l-155 -197l-271 -520v-256q0 -109 7 -152l8 -73l160 -13l-13 -112l-108 4 q-127 4 -198 4t-148 -4l-66 -4l-10 106l158 19q2 18 11 70.5t9 93.5v272l-311 592q-51 68 -152 180zM545 1720.5q0 61.5 30.5 97t89 35.5t90 -34.5t31.5 -97t-30.5 -97.5t-90 -35t-90 35t-30.5 96.5z" />
<glyph unicode="&#x1e8f;" horiz-adv-x="1103" d="M10 920l10 110q143 -18 222.5 -18t117.5 6l72 8l10 -113l-127 -16q33 -115 56 -182l209 -518l188 522q31 90 53 180l-133 21l10 110q143 -18 219 -18t109 6l59 6l9 -111l-78 -10q-119 -240 -123 -250l-258 -653l-172 -481l-334 22l16 119q10 -2 33 -2h49q33 0 135 25 q66 98 80 135l58 164l-303 723q-8 27 -105 198zM455 1341.5q0 61.5 30.5 97.5t89 36t90 -35t31.5 -97.5t-30.5 -97.5t-90 -35t-90 35t-30.5 96.5z" />
<glyph unicode="&#x1e90;" horiz-adv-x="1128" d="M41 117l106 135q113 145 146 197l387 616l137 258h-379q-29 0 -176 -16q-29 -43 -32 -59.5t-11 -69t-10 -60.5l-119 10l14 314l21 22q201 -20 252 -20h678l14 -115q-172 -244 -223 -317l-381 -621l-143 -270h401q59 0 186 24q25 37 35 66l31 158l112 -11l-30 -344 l-21 -22l-110 4q-115 4 -142 4h-729zM252 1669l356 219l357 -219l-47 -80l-181 84l-129 51l-129 -51l-180 -84z" />
<glyph unicode="&#x1e91;" horiz-adv-x="935" d="M72 119l86 96q86 94 108 129l256 377q82 143 103 184h-250q-14 0 -109 -12q-49 -98 -49 -127l-8 -72l-119 8l12 299l17 17l90 -4q47 -2 123 -2h495l15 -119l-37 -45q-100 -123 -139 -178l-252 -379q-25 -29 -103 -185h256q23 0 121 13q41 84 45 106q8 41 12 80l119 -12 l-18 -279l-21 -20l-241 6h-498zM131 1221l340 346l340 -346l-68 -66l-151 125q-57 37 -121 86q-23 -16 -50.5 -36.5t-45.5 -33.5l-25 -16l-151 -125z" />
<glyph unicode="&#x1e98;" horiz-adv-x="1638" d="M0 920l10 110q129 -18 213 -18t123 6l72 8l10 -113l-117 -14l56 -184l174 -500l256 797h82l280 -797l160 504q10 55 45 180l-131 21l10 110q143 -18 219 -18t109 6l59 6l8 -111l-106 -14q-98 -213 -102 -246l-220 -653h-137l-256 664l-223 -664h-137l-131 336 q-133 340 -142.5 370.5t-87.5 194.5zM639 1363q0 81 47 128t137 47t136.5 -47t46.5 -128t-46.5 -128t-136.5 -47t-137 47t-47 128zM739 1363q0 -97 85 -97t85 97t-85 97t-85 -97z" />
<glyph unicode="&#x1e99;" horiz-adv-x="1103" d="M10 920l10 110q143 -18 222.5 -18t117.5 6l72 8l10 -113l-127 -16q33 -115 56 -182l209 -518l188 522q31 90 53 180l-133 21l10 110q143 -18 219 -18t109 6l59 6l9 -111l-78 -10q-119 -240 -123 -250l-258 -653l-172 -481l-334 22l16 119q10 -2 33 -2h49q33 0 135 25 q66 98 80 135l58 164l-303 723q-8 27 -105 198zM391 1363q0 81 47 128t137.5 47t136.5 -47t46 -128t-46 -128t-136.5 -47t-137.5 47t-47 128zM492 1363q0 -97 85 -97t85 97t-85 97t-85 -97z" />
<glyph unicode="&#x1ebc;" horiz-adv-x="1150" d="M61 98l158 19q2 18 11.5 70.5t9.5 93.5v882q0 31 -9.5 83t-11.5 81l-158 25l11 102l57 -6q66 -4 117 -4h524q53 0 252 20l20 -22l15 -293l-119 -10q-16 88 -24.5 114.5t-39.5 65.5q-78 10 -165 10h-269q-12 -82 -12 -227v-295q70 -4 86 -4h150q49 0 122 18l19 135l94 -10 q-2 -25 -2 -67v-97q0 -106 2 -149l4 -74l-98 -12l-19 137l-67 6l-96 6h-109q-20 0 -86 -4v-350q0 -139 12 -225h295q84 0 178 16q29 39 43 78q2 16 15.5 70.5t15.5 66.5l113 -10l-31 -324l-20 -22l-111 4q-115 4 -141 4h-490q-70 0 -147 -10l-84 -8zM315 1659q18 45 54 102 q63 104 109 104.5t174 -41.5t165 -42t80 51q14 16 33 53l74 -43q-96 -201 -170 -201q-41 0 -168 42t-162 42t-82 -55q-14 -20 -33 -55z" />
<glyph unicode="&#x1ebd;" horiz-adv-x="972" d="M82 501.5q0 239.5 113.5 383t332.5 143.5q393 0 394 -475l-35 -68h-613q4 -152 77 -262t202 -110q166 0 305 84l57 -95q-147 -123 -368 -122.5t-343 141.5t-122 380.5zM207 1253q18 45 53 103q63 104 109.5 104t164 -42t154.5 -42t80 51q14 16 33 54l73 -43 q-96 -201 -169 -201q-41 0 -158 42t-152 42t-82 -55q-16 -20 -32 -56zM276 590q387 33 455 33v16l2 25q0 119 -52 188.5t-161 69.5q-211 0 -244 -332z" />
<glyph unicode="&#x1ef2;" horiz-adv-x="1320" d="M10 1333l8 121l82 -6q94 -4 175 -4t157 6l80 8l4 -129l-129 -12q74 -205 92 -240l189 -368l241 475q10 20 49 139l-131 16l11 117l71 -6q39 -6 140.5 -6t179.5 6l80 8l2 -125l-140 -18l-155 -197l-271 -520v-256q0 -109 7 -152l8 -73l160 -13l-13 -112l-108 4 q-127 4 -198 4t-148 -4l-66 -4l-10 106l158 19q2 18 11 70.5t9 93.5v272l-311 592q-51 68 -152 180zM313 1749l62 149l469 -204l-41 -99l-180 76z" />
<glyph unicode="&#x1ef3;" horiz-adv-x="1103" d="M10 920l10 110q143 -18 222.5 -18t117.5 6l72 8l10 -113l-127 -16q33 -115 56 -182l209 -518l188 522q31 90 53 180l-133 21l10 110q143 -18 219 -18t109 6l59 6l9 -111l-78 -10q-119 -240 -123 -250l-258 -653l-172 -481l-334 22l16 119q10 -2 33 -2h49q33 0 135 25 q66 98 80 135l58 164l-303 723q-8 27 -105 198zM246 1440l100 127l393 -328l-67 -84l-152 125q-31 14 -149 88z" />
<glyph unicode="&#x1ef8;" horiz-adv-x="1320" d="M10 1333l8 121l82 -6q94 -4 175 -4t157 6l80 8l4 -129l-129 -12q74 -205 92 -240l189 -368l241 475q10 20 49 139l-131 16l11 117l71 -6q39 -6 140.5 -6t179.5 6l80 8l2 -125l-140 -18l-155 -197l-271 -520v-256q0 -109 7 -152l8 -73l160 -13l-13 -112l-108 4 q-127 4 -198 4t-148 -4l-66 -4l-10 106l158 19q2 18 11 70.5t9 93.5v272l-311 592q-51 68 -152 180zM322 1659q18 45 53 102q63 104 109 104.5t174 -41.5t165 -42t80 51q14 16 33 53l74 -43q-96 -201 -170 -201q-41 0 -168 42t-162 42t-82 -55q-14 -20 -33 -55z" />
<glyph unicode="&#x1ef9;" horiz-adv-x="1103" d="M10 920l10 110q143 -18 222.5 -18t117.5 6l72 8l10 -113l-127 -16q33 -115 56 -182l209 -518l188 522q31 90 53 180l-133 21l10 110q143 -18 219 -18t109 6l59 6l9 -111l-78 -10q-119 -240 -123 -250l-258 -653l-172 -481l-334 22l16 119q10 -2 33 -2h49q33 0 135 25 q66 98 80 135l58 164l-303 723q-8 27 -105 198zM242 1253q18 45 53 103q63 104 109.5 104t164 -42t154.5 -42t80 51q14 16 33 54l73 -43q-96 -201 -170 -201q-43 0 -158.5 42t-150.5 42t-82 -55q-14 -20 -33 -56z" />
<glyph unicode="&#x2000;" horiz-adv-x="964" />
<glyph unicode="&#x2001;" horiz-adv-x="1929" />
<glyph unicode="&#x2002;" horiz-adv-x="964" />
<glyph unicode="&#x2003;" horiz-adv-x="1929" />
<glyph unicode="&#x2004;" horiz-adv-x="643" />
<glyph unicode="&#x2005;" horiz-adv-x="482" />
<glyph unicode="&#x2006;" horiz-adv-x="321" />
<glyph unicode="&#x2007;" horiz-adv-x="321" />
<glyph unicode="&#x2008;" horiz-adv-x="241" />
<glyph unicode="&#x2009;" horiz-adv-x="385" />
<glyph unicode="&#x200a;" horiz-adv-x="107" />
<glyph unicode="&#x2010;" horiz-adv-x="577" d="M61 596h455l-10 -154h-440z" />
<glyph unicode="&#x2011;" horiz-adv-x="577" d="M61 596h455l-10 -154h-440z" />
<glyph unicode="&#x2012;" horiz-adv-x="577" d="M61 596h455l-10 -154h-440z" />
<glyph unicode="&#x2013;" horiz-adv-x="1032" d="M0 596h1032l-10 -154h-1018z" />
<glyph unicode="&#x2014;" horiz-adv-x="2060" d="M0 596h2060l-10 -154h-2046z" />
<glyph unicode="&#x2018;" horiz-adv-x="393" d="M59 1235q0 115 72 215t195 127l14 -49q-141 -62 -141 -195q55 0 90 -36.5t35 -93t-38 -98.5t-97.5 -42t-94.5 50t-35 122z" />
<glyph unicode="&#x2019;" horiz-adv-x="393" d="M53 1112q142 62 142 195q-55 0 -90 36.5t-35 93t37.5 98.5t97 42t94.5 -50t35 -122q0 -115 -72 -214t-194 -128z" />
<glyph unicode="&#x201a;" horiz-adv-x="442" d="M70 -215q141 62 141 195q-55 0 -90 36.5t-35 93t38 98.5t97.5 42t94 -50t34.5 -122q0 -115 -71.5 -214.5t-194.5 -127.5z" />
<glyph unicode="&#x201c;" horiz-adv-x="737" d="M72 1235q0 115 71.5 215t194.5 127l14 -49q-141 -62 -141 -195q55 0 90 -36.5t35 -93t-38 -98.5t-97.5 -42t-94 50t-34.5 122zM399 1235q0 115 72 215t195 127l14 -49q-141 -62 -141 -195q55 0 90 -36.5t35 -93t-38 -98.5t-97.5 -42t-94.5 50t-35 122z" />
<glyph unicode="&#x201d;" horiz-adv-x="757" d="M74 1102q141 61 141 194q-55 0 -90 37t-35 93.5t38 98.5t97.5 42t94 -50.5t34.5 -121.5q0 -115 -71.5 -214.5t-194.5 -127.5zM403 1102q142 61 142 194q-55 0 -90 37t-35 93.5t38 98.5t97 42t94 -50.5t35 -121.5q0 -115 -71.5 -214.5t-194.5 -127.5z" />
<glyph unicode="&#x201e;" horiz-adv-x="772" d="M70 -215q141 62 141 195q-55 0 -90 36.5t-35 93t38 98.5t97.5 42t94 -50t34.5 -122q0 -115 -71.5 -214.5t-194.5 -127.5zM399 -215q142 62 142 195q-55 0 -90 36.5t-35 93t38 98.5t97 42t94 -50t35 -122q0 -115 -71.5 -214.5t-194.5 -127.5z" />
<glyph unicode="&#x2020;" horiz-adv-x="1032" d="M92 1012l12 12l129 -8q72 -6 207 -6h4v260q0 41 -10 147l-8 119l12 12h62q23 0 59 4l31 4l12 -12l-8 -129q-6 -72 -6 -207v-198h65q63 0 148 8l119 10l12 -12v-21q0 -27 4 -63l4 -33l-12 -12l-129 6q-96 8 -207 8h-4v-807q0 -66 8 -149l10 -117l-12 -12h-62q-29 0 -61 -4 l-29 -5l-12 13l6 129q8 96 8 207v745h-65q-43 0 -150 -10l-116 -8l-13 12v20q0 27 -4 64z" />
<glyph unicode="&#x2021;" horiz-adv-x="940" d="M51 487l12 13l130 -8q71 -7 206 -7h4v416h-65q-43 0 -150 -10l-116 -8l-13 12v20q0 27 -4 64l-4 33l12 12l130 -8q72 -6 206 -6h4v260q0 41 -10 147l-8 119l12 12h62q23 0 59 4l31 4l12 -12l-8 -129q-6 -72 -6 -207v-198h65q63 0 148 8l119 10l12 -12v-21q0 -27 4 -63 l4 -33l-12 -12l-129 6q-96 8 -207 8h-4v-416h65q63 0 148 9l119 10l12 -12v-21q0 -27 4 -63l4 -33l-12 -13l-129 7q-96 8 -207 8h-4v-283q0 -66 8 -149l10 -117l-12 -12h-61q-29 0 -62 -4l-29 -5l-12 13l6 129q8 96 8 207v221h-65q-43 0 -150 -10l-116 -9l-13 13v20 q0 27 -4 64z" />
<glyph unicode="&#x2022;" horiz-adv-x="468" d="M49 518q0 80 43 129t121 49t121 -46t43 -129t-43 -131t-121 -48t-121 48t-43 128z" />
<glyph unicode="&#x2026;" horiz-adv-x="1234" d="M82 120.5q0 61.5 33 99.5t92 38q125 0 125 -137q0 -61 -33 -98t-92.5 -37t-92 36.5t-32.5 98zM487 120.5q0 61.5 33 99.5t92 38q125 0 125 -137q0 -61 -32.5 -98t-92 -37t-92.5 36.5t-33 98zM893 120.5q0 61.5 33 99.5t92 38q125 0 125 -137q0 -61 -33 -98t-92.5 -37 t-92 36.5t-32.5 98z" />
<glyph unicode="&#x202f;" horiz-adv-x="385" />
<glyph unicode="&#x2030;" horiz-adv-x="2304" d="M84 1008.5q0 154.5 82 255t225.5 100.5t225 -100t81.5 -254v-2q0 -154 -81.5 -254.5t-225 -100.5t-225.5 100.5t-82 255zM238 1008.5q0 -103.5 35.5 -175t117.5 -71.5q154 0 154 248q0 102 -36 173.5t-118 71.5t-117.5 -71.5t-35.5 -175zM295 -35l889 1512l102 -66 l-887 -1511zM866 332.5q0 154.5 82 255t225.5 100.5t225.5 -100t82 -254v-2q0 -154 -82 -254.5t-225.5 -100.5t-225.5 100.5t-82 255zM1020 332.5q0 -103.5 36 -175t118 -71.5q154 0 153 248q0 102 -36 174t-117.5 72t-117.5 -72t-36 -175.5zM1563 332.5q0 154.5 81.5 255 t225 100.5t225.5 -100t82 -254v-2q0 -154 -82 -254.5t-225.5 -100.5t-225 100.5t-81.5 255zM1716 332.5q0 -103.5 36 -175t118 -71.5q154 0 153 248q0 102 -35.5 174t-117.5 72t-118 -72t-36 -175.5z" />
<glyph unicode="&#x2039;" horiz-adv-x="526" d="M51 496l314 454l75 -51l-219 -403l219 -404l-75 -51z" />
<glyph unicode="&#x203a;" horiz-adv-x="526" d="M86 90l217 404l-217 403l76 51l313 -454l-313 -455z" />
<glyph unicode="&#x2044;" horiz-adv-x="804" d="M-106 -35l888 1512l103 -66l-887 -1511z" />
<glyph unicode="&#x205f;" horiz-adv-x="482" />
<glyph unicode="&#x20ac;" horiz-adv-x="1411" d="M92 836l201 8q31 293 187.5 462t430.5 169q68 0 119 -7.5t69.5 -9.5t60.5 -12t51.5 -12t58.5 -15.5t51 -13.5l-23 -303l-124 8v96q0 20 -21 103q-133 47 -240 47q-170 0 -274 -138.5t-125 -363.5l418 18l4 -69l-428 -21v-59q0 -57 2 -88l432 20l4 -69l-430 -21 q27 -217 128 -347t271 -130q121 0 256 45q27 88 29 115.5t2 54.5v41l125 4l12 -309q-274 -70 -428 -70q-262 0 -417.5 157t-194.5 429l-193 -8l-4 71l189 9q-2 31 -2 94v51l-193 -8z" />
<glyph unicode="&#x2122;" horiz-adv-x="1935" d="M41 1268l10 176l12 12l66 -6q35 -6 84 -6h365q49 0 84 6l67 6l12 -12l9 -176l-80 -6q-8 72 -37 100q-20 0 -74 4h-90l-6 -135v-438q0 -39 4 -88l4 -43l109 -11l-9 -78q-49 0 -73 2l-150 3l-78 -3q-14 -2 -41 -2l-6 74l94 10l7 39l6 60v512l-11 98h-88q-53 -4 -71 -4 q-33 -45 -37 -100zM748 647l94 10q2 12 10 42t12 51l31 518l-6 57l-6 41l-92 8l6 80l57 -6q66 -4 101.5 -4t54.5 2l34 4l9 -8l30 -101q31 -104 39 -122l183 -443l186 461l41 113q6 16 29 92l8 8l24 -4q14 -2 48 -2t96 4l55 6l8 -82l-96 -8l-4 -39q-4 -45 -4 -57l43 -518 q0 -31 20 -93l96 -10l-6 -74q-27 0 -41 2l-77 3l-152 -3q-27 -2 -76 -2l-6 78l94 6l6 129l-22 443l-260 -651h-68l-100 249q-27 63 -160 402l-20 -443q0 -53 2 -79l4 -50l96 -6l-6 -78q-35 0 -55 2l-136 3l-77 -3q-14 -2 -41 -2z" />
<glyph unicode="&#x2202;" horiz-adv-x="1130" d="M102 405.5q0 188.5 119 304t309 115.5q96 0 203 -39l-12 -98q-115 16 -172 17q-113 0 -182.5 -89.5t-69.5 -215.5t62.5 -216t179.5 -90q88 0 149.5 58.5t91.5 156.5q55 176 56 412q0 231 -58 418q-31 98 -92 157.5t-149 59.5q-82 0 -125 -15l-76 -26q-35 -10 -39 -12 l-33 90q139 82 271.5 82t230.5 -61.5t153.5 -169t82 -239t26.5 -285t-25.5 -282.5t-81 -235.5t-153.5 -166t-229 -59.5q-190 0 -313.5 120t-123.5 308.5z" />
<glyph unicode="&#x2206;" horiz-adv-x="1392" d="M51 102q109 164 135 238l443 1100l110 26l248 -577q70 -160 164 -381t105.5 -248t46.5 -86l38 -65l-49 -140h-1183zM242 94q168 -4 273.5 -4t584.5 12q-35 139 -49 172l-394 924l-376 -956q-25 -98 -39 -148z" />
<glyph unicode="&#x220f;" d="M-20 1288v154h1185v-144l-164 -2v-1763h-143l-10 1761l-559 -4l10 -1757h-154v1755h-165z" />
<glyph unicode="&#x2211;" d="M59 -350l596 848l-575 831l20 115h897v-144l-706 11l549 -811l-570 -834l783 10v-143h-973z" />
<glyph unicode="&#x221a;" horiz-adv-x="1323" d="M0 913l524 138l250 -971l369 1397l149 -43l-456 -1618h-123l-299 1052l-375 -106z" />
<glyph unicode="&#x221e;" horiz-adv-x="1536" d="M82 687q0 167 90 287t244 120q197 0 350 -252q68 123 146.5 186.5t220 63.5t231.5 -119t90 -286t-90 -286.5t-244 -119.5q-199 0 -352 251q-70 -122 -147.5 -185.5t-218 -63.5t-230.5 118.5t-90 285.5zM178 692q0 -94 68.5 -162.5t168 -68.5t165 71.5t137.5 212.5v3 q-143 167 -301 167q-102 0 -170 -64.5t-68 -158.5zM817 625q49 -66 129 -116t178.5 -50t166 64.5t67.5 159.5t-68.5 162.5t-161.5 67.5q-125 0 -210 -122q-49 -68 -74 -116t-26 -48t-1 -2z" />
<glyph unicode="&#x222b;" d="M293 -463l22 109q39 -14 84 -15q176 0 176 238q0 135 -44 599t-44 635t83 266t239 95q57 0 106 -18l-22 -109q-39 14 -84 15q-176 0 -176 -238q0 -137 44 -600t44 -634t-83 -266t-239 -95q-57 0 -106 18z" />
<glyph unicode="&#x2248;" d="M96 270q43 68 74 107q82 106 152.5 106t259 -61.5t242 -61.5t145.5 113l82 -67q-43 -68 -74 -107q-82 -106 -147.5 -106t-258 61t-238.5 61t-104 -57l-51 -55zM96 618q43 68 74 107q82 106 152.5 106t259 -61t245 -61t142.5 112l82 -67q-43 -68 -74 -107 q-82 -106 -147.5 -106t-258 61.5t-238.5 61.5t-104 -58l-51 -55z" />
<glyph unicode="&#x2260;" d="M106 244v135l326 2l117 252l-443 -4v145h508l127 275l144 -25l-117 -250h270v-135l-333 -4l-117 -252l450 6v-145h-516l-129 -279l-143 25l117 254h-261z" />
<glyph unicode="&#x2264;" d="M106 0v135l932 10v-145h-932zM205 686l635 481l92 -125l-483 -356l485 -356l-94 -125z" />
<glyph unicode="&#x2265;" d="M106 0v135l932 10v-145h-932zM205 1042l94 125l635 -481l-635 -481l-92 125l483 356z" />
<glyph unicode="&#x25ca;" d="M37 582l536 585l537 -585l-537 -578zM240 584l333 -359l334 359l-334 362z" />
<glyph unicode="&#xe000;" horiz-adv-x="1034" d="M0 0v1034h1034v-1034h-1034z" />
</font>
</defs>
</svg>
