<?xml version="1.0" standalone="no"?>
<!DOCTYPE svg PUBLIC "-//W3C//DTD SVG 1.1//EN" "http://www.w3.org/Graphics/SVG/1.1/DTD/svg11.dtd" >
<svg xmlns="http://www.w3.org/2000/svg">
<metadata></metadata>
<defs>
<font id="varelaregular" horiz-adv-x="1306" >
<font-face units-per-em="2048" ascent="1638" descent="-410" />
<missing-glyph horiz-adv-x="532" />
<glyph unicode="&#xfb01;" horiz-adv-x="1312" d="M49 885v159h191v119q0 178 91 265.5t206.5 87.5t207.5 -52v-153h-14q-76 27 -148.5 26.5t-114.5 -39t-42 -141.5v-113h717v-1044h-187v885h-530v-885h-186v885h-191zM950 1266v200h201v-200h-201z" />
<glyph unicode="&#xfb02;" horiz-adv-x="1318" d="M49 885v159h191v119q0 178 91 265.5t206.5 87.5t207.5 -52v-153h-14q-76 27 -148.5 26.5t-114.5 -39t-42 -141.5v-113h319v-159h-319v-885h-186v885h-191zM954 0v1495h187v-1495h-187z" />
<glyph unicode="&#xfb03;" horiz-adv-x="2119" d="M49 885v159h191v119q0 178 91 265.5t206.5 87.5t207.5 -52v-153h-14q-76 27 -148.5 26.5t-114.5 -39t-42 -141.5v-113h621v119q0 178 91 265.5t206.5 87.5t207.5 -52v-153h-14q-76 27 -148.5 26.5t-114.5 -39t-42 -141.5v-113h717v-1044h-187v885h-530v-885h-186v885 h-621v-885h-186v885h-191zM1757 1266v200h201v-200h-201z" />
<glyph unicode="&#xfb04;" horiz-adv-x="2125" d="M49 885v159h191v119q0 178 91 265.5t206.5 87.5t207.5 -52v-153h-14q-76 27 -148.5 26.5t-114.5 -39t-42 -141.5v-113h621v119q0 178 91 265.5t206.5 87.5t207.5 -52v-153h-14q-76 27 -148.5 26.5t-114.5 -39t-42 -141.5v-113h319v-159h-319v-885h-186v885h-621v-885 h-186v885h-191zM1761 0v1516h187v-1516h-187z" />
<glyph horiz-adv-x="2048" />
<glyph horiz-adv-x="2048" />
<glyph unicode="&#xd;" horiz-adv-x="681" />
<glyph unicode=" "  horiz-adv-x="532" />
<glyph unicode="&#x09;" horiz-adv-x="532" />
<glyph unicode="&#xa0;" horiz-adv-x="532" />
<glyph unicode="!" horiz-adv-x="575" d="M172 0v229h229v-229h-229zM182 1130v300h211v-300l-41 -735h-131z" />
<glyph unicode="&#x22;" horiz-adv-x="841" d="M113 1516h231l-63 -500h-107zM498 1516h231l-61 -500h-107z" />
<glyph unicode="#" horiz-adv-x="1253" d="M94 373v143h232l49 311h-209v144h231l60 370h145l-59 -370h260l59 370h146l-60 -370h209v-144h-231l-49 -311h208v-143h-231l-59 -373h-146l60 373h-260l-60 -373h-145l59 373h-209zM471 516h260l49 311h-260z" />
<glyph unicode="$" horiz-adv-x="1253" d="M111 1030q0 170 127 288t354 130v197h92v-195q205 -8 377 -74v-174h-14q-178 72 -363 78v-487q111 -27 177.5 -49.5t146.5 -67.5q157 -92 157 -297q0 -166 -131 -276.5t-350 -122.5v-195h-92v195q-254 10 -465 110v182h10q199 -111 455 -118v469q-283 72 -381 165 q-41 39 -70.5 101.5t-29.5 140.5zM295 1046.5q0 -96.5 75.5 -145.5t221.5 -86v461q-133 -12 -215 -72.5t-82 -157zM684 156q297 20 297 235q0 82 -75 126t-222 83v-444z" />
<glyph unicode="%" horiz-adv-x="1667" d="M88 1097.5q0 159.5 86 263t243.5 103.5t244 -103.5t86.5 -263t-86.5 -263t-244 -103.5t-243.5 103.5t-86 263zM231 1097.5q0 -102.5 49.5 -168t137.5 -65.5t137 65.5t49 168t-49 168t-137 65.5t-137.5 -65.5t-49.5 -168zM303 -8l903 1444h160l-903 -1444h-160zM920 329.5 q0 159.5 86 263t243.5 103.5t243.5 -103.5t86 -263t-86 -263t-243.5 -103.5t-243.5 103.5t-86 263zM1063 329.5q0 -102.5 49 -168t137 -65.5t137.5 65.5t49.5 168t-49.5 168t-137.5 65.5t-137 -65.5t-49 -168z" />
<glyph unicode="&#x26;" horiz-adv-x="1499" d="M145 385q0 156 72 253t158 153v6q-61 74 -92 139t-31 156q0 150 104.5 254t264 104t303.5 -100v-176h-4q-125 117 -277 116q-102 0 -160.5 -56t-58.5 -137t40 -138.5t165 -174.5l424 -399h6q47 72 78 147h184q-57 -158 -135 -262v-10l268 -254v-6h-240l-143 135h-8 q-182 -156 -425 -155.5t-368 125t-125 280.5zM322 395q0 -113 89 -185.5t220 -72.5q176 0 311 111v8l-448 420h-11q-162 -109 -161 -281z" />
<glyph unicode="'" horiz-adv-x="487" d="M150 952v133q113 61 112 201h-112v230h229v-230q0 -238 -229 -334z" />
<glyph unicode="(" horiz-adv-x="638" d="M104 629.5q0 523.5 293 926.5h193v-6q-299 -397 -299 -920.5t299 -920.5v-6h-193q-293 403 -293 926.5z" />
<glyph unicode=")" horiz-adv-x="638" d="M51 -291q299 397 299 920.5t-299 920.5v6h193q293 -403 293 -926.5t-293 -926.5h-193v6z" />
<glyph unicode="*" horiz-adv-x="854" d="M117 1012l252 100l-252 98l69 121l211 -170l-39 269h138l-41 -269l213 170l69 -121l-252 -98l252 -100l-69 -119l-213 168l41 -268h-138l39 268l-211 -168z" />
<glyph unicode="+" horiz-adv-x="1150" d="M92 629v157h404v406h159v-406h404v-157h-404v-406h-159v406h-404z" />
<glyph unicode="," horiz-adv-x="532" d="M152 0v229h229v-229q0 -238 -229 -334v133q113 61 112 201h-112z" />
<glyph unicode="-" horiz-adv-x="835" d="M152 492v165h532v-165h-532z" />
<glyph unicode="." horiz-adv-x="532" d="M152 0v229h229v-229h-229z" />
<glyph unicode="/" horiz-adv-x="907" d="M74 -174l585 1712h177l-586 -1712h-176z" />
<glyph unicode="0" horiz-adv-x="1286" d="M88 715q0 338 142.5 536.5t411.5 198.5t412.5 -198.5t143.5 -536.5t-143.5 -536.5t-412.5 -198.5t-411.5 198.5t-142.5 536.5zM274 714q0 -263 95.5 -412.5t273.5 -149.5t273.5 149.5t95.5 412.5t-95.5 412.5t-273.5 149.5t-273.5 -149.5t-95.5 -412.5z" />
<glyph unicode="1" horiz-adv-x="1286" d="M287 0v174h319v1036h-8l-297 -147v199l320 168h172v-1256h280v-174h-786z" />
<glyph unicode="2" horiz-adv-x="1286" d="M133 0v106q0 100 60.5 193.5t151.5 161t197.5 139.5t197.5 131.5t151.5 135t60.5 153.5q0 254 -323 254q-248 0 -434 -123h-11v182q219 117 478 117q201 0 336 -116t135 -300q0 -100 -52.5 -193t-133.5 -162t-179 -139.5t-186 -123.5q-213 -129 -260 -234v-8h790v-174 h-979z" />
<glyph unicode="3" horiz-adv-x="1286" d="M150 72v182h10q180 -96 407 -96q264 0 346 116q33 47 33 111q0 258 -452 258h-107v172h82q205 0 315.5 62.5t110.5 185.5q0 98 -82 155.5t-242 57.5q-229 0 -399 -113h-8v172q205 115 432 115t356 -96.5t129 -272.5q0 -250 -243 -340v-2q295 -74 295 -364 q0 -188 -148.5 -291.5t-389.5 -103.5t-445 92z" />
<glyph unicode="4" horiz-adv-x="1286" d="M59 360v177l699 893h223v-904h229v-166h-229v-360h-186v360h-736zM262 526h533v688h-4l-529 -684v-4z" />
<glyph unicode="5" horiz-adv-x="1286" d="M139 680l117 750h827v-175h-671l-62 -430h6q150 80 356 80t331.5 -128t125.5 -334.5t-141 -334.5t-411.5 -128t-464.5 133v198h8q186 -147 424 -147q195 0 297 65.5t102 208t-85 216t-232 73.5q-223 0 -365 -119z" />
<glyph unicode="6" horiz-adv-x="1286" d="M121 713q0 268 127 487q66 113 186.5 181.5t304 68.5t361.5 -100v-189h-10q-168 109 -361 109q-125 0 -213 -53.5t-131 -141.5q-78 -160 -86 -327h4q140 178 416 178q211 0 340 -131t129 -340t-138.5 -342t-367.5 -133q-561 0 -561 733zM309 530q56 -376 375 -376 q141 0 229 86t88 217t-77.5 215t-227.5 84q-266 0 -387 -226z" />
<glyph unicode="7" horiz-adv-x="1286" d="M133 1251v179h1020v-166l-614 -1264h-213l620 1243v8h-813z" />
<glyph unicode="8" horiz-adv-x="1286" d="M96 379q0 283 305 385v2q-104 35 -170.5 113.5t-66.5 210t117.5 246t361.5 114.5t361.5 -114.5t117.5 -246t-66.5 -210t-170.5 -113.5v-2q305 -102 305 -385q0 -147 -121 -268q-59 -59 -170 -95t-256 -36t-256 35.5t-170 95.5q-121 121 -121 268zM283 399q0 -90 88 -173 t272 -83t272.5 83t88.5 173q0 131 -104.5 204t-256 73t-256 -73t-104.5 -204zM350 1070q0 -91 71 -158.5t222.5 -67.5t222 67.5t70.5 158.5t-75 153.5t-218 62.5t-218 -62.5t-75 -153.5z" />
<glyph unicode="9" horiz-adv-x="1286" d="M98 975q0 209 138.5 342t367.5 133q561 0 561 -733q0 -268 -127 -488q-66 -113 -186.5 -181t-303.5 -68t-362 100v188h11q168 -109 360 -108q125 0 213 53t131 141q78 160 86 328h-4q-140 -178 -416 -178q-211 0 -340 131t-129 340zM285 973q0 -131 77.5 -215t227.5 -84 q266 0 387 225q-56 377 -375 377q-141 0 -229 -86t-88 -217z" />
<glyph unicode=":" horiz-adv-x="532" d="M152 0v229h229v-229h-229zM152 815v229h229v-229h-229z" />
<glyph unicode=";" horiz-adv-x="532" d="M152 0v229h229v-229q0 -238 -229 -334v133q113 61 112 201h-112zM152 815v229h229v-229h-229z" />
<glyph unicode="&#x3c;" horiz-adv-x="1187" d="M84 524v164l965 438v-180l-752 -338v-4l752 -338v-180z" />
<glyph unicode="=" horiz-adv-x="1458" d="M160 369v159h1138v-159h-1138zM160 827v160h1138v-160h-1138z" />
<glyph unicode="&#x3e;" horiz-adv-x="1187" d="M139 86v180l752 338v4l-752 338v180l965 -438v-164z" />
<glyph unicode="?" horiz-adv-x="1017" d="M86 1155v186q195 109 391.5 109t322.5 -104.5t126 -282.5q0 -94 -40 -167t-96.5 -120t-113.5 -92q-135 -113 -135 -264v-25h-181v33q0 109 39 194t95.5 137t111.5 95q135 102 135 199q0 223 -292 223q-170 0 -355 -121h-8zM336 0v229h229v-229h-229z" />
<glyph unicode="@" horiz-adv-x="1839" d="M100 537q0 231 118 431.5t319 320.5t432 120q324 -2 552 -200.5t228 -508.5q0 -285 -160 -426q-90 -80 -206.5 -79.5t-174 45.5t-69.5 106q-127 -154 -338 -153q-164 0 -256 100t-92 260q0 227 145 362.5t340 135.5q154 0 262 -105l17 88h153l-84 -479 q-14 -115 -14 -151.5t25.5 -74.5t76.5 -38q127 0 195.5 110.5t68.5 299t-101 328.5t-250.5 205.5t-317.5 65.5q-309 0 -535.5 -226t-226.5 -537q0 -152 68.5 -286t211 -224t332.5 -90q252 0 496 126l-21 -122q-213 -111 -475 -111q-317 0 -518 209t-201 498zM610 573 q0 -119 65.5 -179t170.5 -60q250 0 299 287l33 190q-90 94 -229.5 94t-239 -88t-99.5 -244z" />
<glyph unicode="A" horiz-adv-x="1427" d="M10 0l606 1430h195l606 -1430h-203l-153 367h-694l-154 -367h-203zM440 537h547v10l-270 653h-4l-273 -653v-10z" />
<glyph unicode="B" horiz-adv-x="1419" d="M199 0v1430h575q219 0 339 -100.5t120 -270.5q0 -225 -197 -314v-6q277 -88 277 -338q0 -401 -527 -401h-587zM385 174h383q199 0 282 61.5t83 174.5q0 233 -363 233h-385v-469zM385 811h340q182 0 256 61.5t74 165t-79 160.5t-216 57h-375v-444z" />
<glyph unicode="C" horiz-adv-x="1429" d="M115 715q0 336 201.5 535.5t514.5 199.5q264 0 486 -133v-184h-10q-211 139 -465 139t-397.5 -155.5t-143.5 -401.5t143.5 -401.5t397.5 -155.5t465 139h10v-184q-221 -133 -486 -133q-313 0 -514.5 199.5t-201.5 535.5z" />
<glyph unicode="D" horiz-adv-x="1536" d="M199 0v1430h503q176 0 318.5 -62.5t228.5 -167.5q176 -211 176 -485q0 -219 -114 -400q-125 -199 -346 -274q-121 -41 -263 -41h-503zM385 174h295q254 0 407.5 149.5t153.5 391t-153.5 391t-407.5 149.5h-295v-1081z" />
<glyph unicode="E" d="M199 0v1430h991v-175h-805v-452h731v-174h-731v-455h805v-174h-991z" />
<glyph unicode="F" horiz-adv-x="1249" d="M199 0v1430h966v-175h-780v-452h709v-174h-709v-629h-186z" />
<glyph unicode="G" horiz-adv-x="1523" d="M113 714.5q0 325.5 204.5 530.5t492.5 205t546 -158v-192h-8q-252 170 -497 170t-398.5 -147.5t-153.5 -400.5t149.5 -409.5t407.5 -156.5q193 0 358 90v370h-374v168h538v-647q-262 -157 -543 -157h-4q-322 0 -520 204.5t-198 530z" />
<glyph unicode="H" horiz-adv-x="1546" d="M199 0v1430h186v-629h776v629h187v-1430h-187v627h-776v-627h-186z" />
<glyph unicode="I" horiz-adv-x="583" d="M199 0v1430h186v-1430h-186z" />
<glyph unicode="J" horiz-adv-x="954" d="M49 63v185h8q125 -92 254 -92t198 63.5t69 239.5v971h186v-959q0 -268 -120 -379.5t-289 -111.5t-306 83z" />
<glyph unicode="K" horiz-adv-x="1372" d="M199 0v1430h186v-732h6l690 732h244l-584 -603l637 -827h-227l-528 696h-11l-227 -235v-461h-186z" />
<glyph unicode="L" horiz-adv-x="1179" d="M199 0v1430h186v-1244h754v-186h-940z" />
<glyph unicode="M" horiz-adv-x="1978" d="M199 0v1430h290l498 -1223h4l498 1223h291v-1430h-187v1233h-4l-504 -1233h-192l-506 1233h-2v-1233h-186z" />
<glyph unicode="N" horiz-adv-x="1644" d="M199 0v1430h229l825 -1176h7v1176h186v-1430h-229l-828 1178h-4v-1178h-186z" />
<glyph unicode="O" horiz-adv-x="1660" d="M113 715q6 326 200.5 530.5t518 204.5t518 -205t200.5 -530q-6 -326 -200.5 -530.5t-518 -204.5t-518 204.5t-200.5 530.5zM299 714.5q0 -243.5 142.5 -402t389 -158.5t390 158.5t143.5 402t-143.5 402.5t-390 159t-389 -159t-142.5 -402.5z" />
<glyph unicode="P" horiz-adv-x="1370" d="M199 0v1430h559q147 0 257.5 -40t171 -108t89.5 -144.5t29 -162.5t-29 -163t-89.5 -144.5t-171 -107.5t-257.5 -40h-373v-520h-186zM385 696h354q209 0 294 80t85 199t-85 198.5t-294 79.5h-354v-557z" />
<glyph unicode="Q" horiz-adv-x="1662" d="M113 715q6 326 200.5 530.5t518 204.5t518 -205t200.5 -530q-4 -240 -115.5 -419t-304.5 -259v-6l279 -312v-6h-229l-226 275q-51 -8 -123 -8q-324 0 -518 204.5t-200 530.5zM299 714.5q0 -243.5 142.5 -402t389 -158.5t390 158.5t143.5 402t-143.5 402.5t-390 159 t-389 -159t-142.5 -402.5z" />
<glyph unicode="R" horiz-adv-x="1458" d="M199 0v1430h569q279 0 418 -115t139 -301q0 -125 -67.5 -224.5t-196.5 -144.5v-4q242 -64 242 -465v-49q0 -66 34 -119v-8h-192q-29 47 -29 111v32q0 188 -39 258q-18 37 -49 78q-63 78 -219 78h-424v-557h-186zM385 733h371q176 0 279.5 69.5t103.5 194.5t-89 190.5 t-305 65.5h-360v-520z" />
<glyph unicode="S" horiz-adv-x="1261" d="M119 1030q0 178 140 299t379 121t431 -74v-174h-14q-193 78 -370 78t-279.5 -62.5t-102.5 -173.5q0 -82 64.5 -135t161 -74.5t210 -53t209.5 -68.5t161 -122t65 -212q0 -176 -144.5 -287.5t-402.5 -111.5t-492 110v182h10q211 -118 481 -118h5q358 0 358 237 q0 117 -174 172q-76 25 -168 47.5t-185 53t-170 72.5t-125 117t-48 177z" />
<glyph unicode="T" horiz-adv-x="1251" d="M39 1255v175h1173v-175h-493v-1255h-187v1255h-493z" />
<glyph unicode="U" horiz-adv-x="1552" d="M188 537v893h187v-900q0 -180 118.5 -280t282.5 -100t283 100t119 280v900h186v-893q0 -139 -52 -249t-139.5 -175.5t-188.5 -99t-207.5 -33.5t-208 33.5t-188.5 99t-139.5 175t-52.5 249.5z" />
<glyph unicode="V" horiz-adv-x="1421" d="M10 1430h203l494 -1240h8l495 1240h201l-590 -1430h-221z" />
<glyph unicode="W" horiz-adv-x="2062" d="M25 1430h194l361 -1180h6l364 1180h162l365 -1180h6l360 1180h195l-467 -1430h-187l-348 1110h-10l-348 -1110h-186z" />
<glyph unicode="X" horiz-adv-x="1370" d="M31 0l549 715l-549 715h233l420 -570h10l418 570h225l-546 -713l552 -717h-231l-428 573h-10l-422 -573h-221z" />
<glyph unicode="Y" horiz-adv-x="1320" d="M-14 1430h227l442 -654h11l442 654h227l-581 -826v-604h-187v604z" />
<glyph unicode="Z" d="M96 0v164l873 1079v8h-856v179h1089v-168l-872 -1082v-6h872v-174h-1106z" />
<glyph unicode="[" horiz-adv-x="659" d="M178 -270v1769h412v-147h-250v-1477h250v-145h-412z" />
<glyph unicode="\" horiz-adv-x="907" d="M72 1538h176l586 -1712h-177z" />
<glyph unicode="]" horiz-adv-x="659" d="M70 -125h249v1477h-249v147h411v-1769h-411v145z" />
<glyph unicode="^" horiz-adv-x="1073" d="M133 872l301 558h205l301 -558h-166l-237 379h-5l-235 -379h-164z" />
<glyph unicode="_" horiz-adv-x="1357" d="M117 -166h1124v-135h-1124v135z" />
<glyph unicode="`" horiz-adv-x="503" d="M72 1456h202l156 -272h-127z" />
<glyph unicode="a" horiz-adv-x="1136" d="M78 292.5q0 145.5 119.5 235.5t351.5 90h248v17q0 135 -66.5 194.5t-230.5 59.5t-307 -70h-13v168q178 78 382 78t312.5 -119t108.5 -284v-662h-164l-22 131h-6q-146 -151 -376 -151h-3q-139 0 -236.5 83.5t-97.5 229zM264 306q0 -163 217 -163q90 0 174.5 44t141.5 110 v172h-224q-309 0 -309 -163z" />
<glyph unicode="b" horiz-adv-x="1292" d="M162 0v1495h186v-582h6q146 152 344.5 152t347 -147.5t148.5 -395.5t-148.5 -395t-347 -147t-344.5 151h-6l-22 -131h-164zM348 307q140 -153 324 -153q152 0 244 96t92 272t-92.5 272.5t-243.5 96.5q-184 0 -324 -154v-430z" />
<glyph unicode="c" horiz-adv-x="1097" d="M94 522q0 248 160 395.5t387 147.5q184 0 354 -100v-177h-8q-152 102 -329 102q-1 0 -2 1q-176 1 -275 -101q-100 -102 -100 -268t100 -267t277.5 -101t328.5 102h8v-176q-170 -100 -354 -100q-227 0 -387 147t-160 395z" />
<glyph unicode="d" horiz-adv-x="1292" d="M98 522q0 248 148.5 395.5t347.5 147.5t344 -152h6v582h186v-1495h-163l-23 131h-6q-145 -152 -343 -152l-1 1q-199 0 -347.5 147t-148.5 395zM285 522q0 -176 92 -272t244 -96q184 0 323 153v430q-139 154 -323 154q-152 0 -244 -96.5t-92 -272.5z" />
<glyph unicode="e" horiz-adv-x="1167" d="M100 507q0 243 125 400.5t364.5 157.5t364.5 -158t125 -385v-65h-790q16 -143 106 -223t273.5 -80t339.5 102h10v-180q-172 -96 -404.5 -96t-373 142t-140.5 385zM289 608h604q-8 147 -99.5 223t-204 76t-202.5 -76t-98 -223z" />
<glyph unicode="f" horiz-adv-x="778" d="M49 885v159h191v119q0 178 91 265.5t206.5 87.5t207.5 -52v-153h-14q-75 27 -146 27h-3q-72 -1 -114 -39.5t-42 -141.5v-113h319v-159h-319v-885h-186v885h-191z" />
<glyph unicode="g" horiz-adv-x="1292" d="M98 532.5q0 251.5 152.5 392t349.5 140.5t338 -152h6l23 131h163v-999q0 -258 -124.5 -397.5t-361 -139.5t-431.5 105v184h10q172 -112 404 -112h4q313 0 313 333v134h-6q-141 -152 -338 -152t-349.5 140.5t-152.5 392zM285 532.5q0 -176.5 97 -269.5t256 -93t306 152 v421q-147 152 -306 152t-256 -93t-97 -269.5z" />
<glyph unicode="h" horiz-adv-x="1247" d="M162 0v1495h186v-612h6q166 182 375 182q170 0 268.5 -114.5t98.5 -286.5v-664h-187v643q0 250 -225 250q-178 0 -336 -197v-696h-186z" />
<glyph unicode="i" horiz-adv-x="526" d="M164 1266v200h201v-200h-201zM170 0v1044h186v-1044h-186z" />
<glyph unicode="j" horiz-adv-x="526" d="M-66 -311h17q49 -16 103 -17h3q53 0 83 22q30 23 30 99v1251h186v-1255q0 -127 -64.5 -204t-203.5 -77q-88 0 -154 27v154zM164 1266v200h201v-200h-201z" />
<glyph unicode="k" horiz-adv-x="1118" d="M162 0v1495h186v-915h6l453 464h250l-424 -419l471 -625h-230l-368 494h-6l-152 -152v-342h-186z" />
<glyph unicode="l" horiz-adv-x="542" d="M178 0v1495h187v-1495h-187z" />
<glyph unicode="m" horiz-adv-x="1882" d="M162 0v1044h164l22 -131v-30h4q131 182 344 182q115 0 196 -59.5t116 -147.5h6q124 207 372 207q168 0 255.5 -119t87.5 -274v-672h-187v635q0 133 -48 195.5t-161 62.5q-176 0 -295 -197v-696h-186v635q0 133 -47 195.5t-162 62.5q-176 0 -295 -197v-696h-186z" />
<glyph unicode="n" horiz-adv-x="1247" d="M162 0v1044h164l22 -131v-30h4q166 182 377 182q170 0 268.5 -114.5t98.5 -286.5v-664h-187v643q0 250 -225 250q-178 0 -336 -197v-696h-186z" />
<glyph unicode="o" horiz-adv-x="1245" d="M98 522.5q0 243.5 143.5 393t380 149.5t381 -149.5t144.5 -393t-144.5 -393t-381 -149.5t-380 149.5t-143.5 393zM285 523.5q0 -187.5 101 -280.5t236.5 -93t237 93t101.5 280.5t-101.5 279.5t-237 92t-236.5 -92t-101 -279.5z" />
<glyph unicode="p" horiz-adv-x="1292" d="M162 -471v1515h164l22 -131h6q145 152 344 152t347.5 -147.5t148.5 -395.5t-148.5 -395t-347 -147t-344.5 151h-6v-602h-186zM348 307q138 -153 322 -153h2q152 0 244 96t92 272t-92 272.5t-244 96.5q-184 0 -324 -154v-430z" />
<glyph unicode="q" horiz-adv-x="1292" d="M98 522q0 248 148.5 395.5t347.5 147.5t344 -152h6l23 131h163v-1515h-186v602h-6q-145 -151 -344 -151t-347.5 147t-148.5 395zM285 522q0 -176 92 -272t244 -96q184 0 323 153v430q-139 154 -323 154q-152 0 -244 -96.5t-92 -272.5z" />
<glyph unicode="r" horiz-adv-x="792" d="M162 0v1044h164l22 -131v-30h4q147 182 385 182h17v-178h-17q-121 0 -225 -47t-164 -131v-709h-186z" />
<glyph unicode="s" horiz-adv-x="983" d="M106 741q0 143 103.5 233.5t282 90.5t331.5 -57v-170h-14q-137 57 -268 57t-193.5 -40t-62.5 -100.5t63.5 -93t154.5 -52t181 -48.5t153.5 -98.5t63.5 -190t-103.5 -206.5t-307 -86t-371.5 92v178h10q166 -98 365 -98q227 0 227 145q0 47 -63.5 76.5t-153.5 50 t-180.5 49.5t-154 96.5t-63.5 171.5z" />
<glyph unicode="t" horiz-adv-x="786" d="M35 885v12l381 373v-226h297v-159h-297v-619q0 -86 47 -106q39 -16 101 -16q1 0 1 -1q61 0 133 33h15v-151q-86 -45 -185 -45q-299 0 -299 270v635h-194z" />
<glyph unicode="u" horiz-adv-x="1249" d="M154 381v663h186v-643q0 -249 223 -249h2q178 0 336 196v696h186v-1044h-163l-23 131v31h-4q-166 -182 -377 -182q-170 0 -268 114.5t-98 286.5z" />
<glyph unicode="v" horiz-adv-x="1085" d="M12 1044h203l324 -823h8l323 823h203l-438 -1044h-184z" />
<glyph unicode="w" horiz-adv-x="1607" d="M23 1044h196l248 -819h6l254 819h154l254 -819h6l248 819h196l-358 -1044h-183l-237 748h-6l-238 -748h-182z" />
<glyph unicode="x" horiz-adv-x="1110" d="M43 0l401 516l-401 528h233l277 -372h10l271 372h233l-403 -516l403 -528h-233l-281 371h-10l-267 -371h-233z" />
<glyph unicode="y" horiz-adv-x="1091" d="M10 1044h201l328 -825h8l336 825h200l-628 -1515h-189l176 455z" />
<glyph unicode="z" horiz-adv-x="1021" d="M94 0v172l600 690v8h-581v174h805v-174l-592 -690v-6h592v-174h-824z" />
<glyph unicode="{" horiz-adv-x="704" d="M29 553v152q162 16 204 67q20 27 25.5 48.5t5.5 56.5v432q0 139 75 192t212 53h86v-143h-92q-53 0 -82 -15.5t-34 -30.5t-5 -40v-455q0 -174 -184 -241v-2q184 -68 184 -240v-455q0 -25 5 -40t34 -30.5t82 -15.5h92v-143h-86q-137 0 -212 53.5t-75 192.5v432 q0 35 -5 56.5t-26 47.5q-43 51 -204 68z" />
<glyph unicode="|" horiz-adv-x="518" d="M176 -391v1898h166v-1898h-166z" />
<glyph unicode="}" horiz-adv-x="704" d="M68 -154h92q53 0 81.5 15.5t34 31t5.5 39.5v455q0 172 184 240v2q-184 67 -184 241v455q0 25 -5.5 40t-34 30.5t-81.5 15.5h-92v143h86q137 0 211.5 -53t74.5 -192v-432q0 -35 5.5 -56.5t25.5 -48.5q43 -51 205 -67v-152q-162 -16 -205 -68q-20 -27 -25.5 -48t-5.5 -56 v-432q0 -139 -74.5 -192.5t-211.5 -53.5h-86v143z" />
<glyph unicode="~" d="M145 440q16 152 89 232t172.5 80t193.5 -39t176 -78t142 -39q120 0 149 139h102q-18 -154 -89.5 -233.5t-171 -79.5t-193.5 39t-175 78t-143 39q-121 0 -149 -138h-103z" />
<glyph unicode="&#xa1;" horiz-adv-x="530" d="M150 815v229h229v-229h-229zM160 -86l39 735h131l41 -735v-299h-211v299z" />
<glyph unicode="&#xa2;" horiz-adv-x="1128" d="M90 522q0 248 160 395.5t387 147.5q41 0 106 -8l70 203h121l-78 -232q61 -20 135 -63v-177h-8q-92 59 -182 82l-242 -708q39 -8 94 -8q178 0 330 102h8v-176q-170 -100 -354 -100q-76 0 -135 14l-82 -236h-121l94 273q-137 63 -220 190t-83 301zM276 522q0 -229 175 -323 l235 690l-33 2q-176 0 -276.5 -101.5t-100.5 -267.5z" />
<glyph unicode="&#xa3;" horiz-adv-x="1236" d="M90 629v92h232l-15 45l-16 49q-35 115 -35 213q0 197 136 309.5t339 112.5t359 -78v-184h-11q-145 82 -318 82t-246 -67.5t-73 -166.5q0 -86 33 -190.5t39 -124.5h399v-92h-378q8 -41 8 -94q0 -158 -86 -293l51 2q82 0 207 -42t216 -42t191 67h8v-182 q-123 -66 -223 -65.5t-217 46.5t-205 46q-141 0 -252 -92l-112 94q238 215 237 448q0 55 -12 107h-256z" />
<glyph unicode="&#xa4;" horiz-adv-x="1368" d="M143 281l148 149q-92 129 -92 284.5t92 286.5l-148 148l107 106l149 -147q129 92 285 92t285 -92l149 147l107 -106l-148 -148q92 -131 92 -286.5t-92 -284.5l148 -149l-107 -107l-149 150q-127 -94 -285 -94.5t-285 94.5l-149 -150zM365 716q0 -132 93 -225.5t226 -93.5 t226.5 93.5t93.5 225.5t-94.5 225t-225.5 93t-225 -93t-94 -225z" />
<glyph unicode="&#xa5;" horiz-adv-x="1347" d="M76 1430h227l371 -650l370 650h228l-418 -682h264v-154h-352v-186h352v-154h-352v-254h-184v254h-355v154h355v186h-355v154h267z" />
<glyph unicode="&#xa7;" horiz-adv-x="1083" d="M117 641q0 190 200 258q-131 96 -131 237.5t103.5 227.5t287 86t334.5 -66v-174h-14q-139 68 -303 68q-232 0 -232 -143q0 -88 162 -146q174 -63 295 -129q70 -39 116 -106.5t46 -155.5q0 -195 -203 -260q133 -90 133 -233.5t-103 -229.5t-307 -86t-372 92v178h10 q166 -98 365 -98q231 0 231 143q0 55 -63.5 96.5t-154.5 73t-182 72.5t-154.5 116t-63.5 179zM289 653q0 -80 82 -127q55 -33 152 -69.5t132 -50.5q154 37 154 180q0 80 -82 127q-70 39 -160 71.5t-127 49.5q-152 -37 -151 -181z" />
<glyph unicode="&#xa8;" horiz-adv-x="819" d="M135 1184v196h197v-196h-197zM479 1184v196h197v-196h-197z" />
<glyph unicode="&#xa9;" horiz-adv-x="1677" d="M104 715q0 305 216.5 520t519.5 215t519 -215t216 -520t-216 -520t-519 -215t-519.5 215t-216.5 520zM211 716q0 -259 184.5 -444.5t443.5 -185.5t444 184.5t185 444.5t-185 444t-444 184t-443.5 -184t-184.5 -443zM457 714.5q0 188.5 109.5 303.5t268 115t256 -75 t132.5 -208h-138q-63 158 -233 158q-123 0 -190.5 -84t-67.5 -209t67.5 -209t190.5 -84q170 0 233 158h138q-35 -131 -133.5 -207t-237.5 -76q-176 0 -285.5 114.5t-109.5 303z" />
<glyph unicode="&#xaa;" horiz-adv-x="993" d="M147 469v115h670v-115h-670zM166 915.5q0 102.5 83 160t247 57.5h155v4q0 92 -43 133t-142 41t-224 -54h-9v136q137 57 275.5 57t214.5 -84t76 -201v-456h-133l-15 82h-4q-84 -97 -244 -97q-98 0 -167.5 59.5t-69.5 162zM313 924.5q0 -97.5 138 -97.5q113 0 200 97v98 h-139q-199 0 -199 -97.5z" />
<glyph unicode="&#xab;" horiz-adv-x="1198" d="M76 522l381 459h213l-396 -459l396 -456h-213zM502 522l381 459h213l-396 -459l396 -456h-213z" />
<glyph unicode="&#xac;" horiz-adv-x="1185" d="M160 637v147h856v-430h-154v283h-702z" />
<glyph unicode="&#xad;" horiz-adv-x="835" d="M152 492v165h532v-165h-532z" />
<glyph unicode="&#xae;" horiz-adv-x="1677" d="M104 715q0 305 216.5 520t519.5 215t519 -215t216 -520t-216 -520t-519 -215t-519.5 215t-216.5 520zM211 716q0 -259 184.5 -444.5t443.5 -185.5t444 184.5t185 444.5t-185 444t-444 184t-443.5 -184t-184.5 -443zM535 307v815h327q162 0 242 -67.5t80 -177.5 q0 -139 -150 -197v-2q57 -20 98.5 -83t41.5 -173v-29q0 -35 24 -78v-8h-137q-27 39 -27 80v16q0 115 -30 158q-39 51 -119 51h-213v-305h-137zM672 733h184q88 0 140.5 36t52.5 103q0 131 -197 132h-180v-271z" />
<glyph unicode="&#xaf;" horiz-adv-x="638" d="M27 1204v123h581v-123h-581z" />
<glyph unicode="&#xb0;" horiz-adv-x="774" d="M106 1170.5q0 115.5 83 197.5t199 82t198 -82t82 -197.5t-82 -198.5t-198 -83t-199 83t-83 198.5zM213 1169.5q0 -71.5 51 -123t123 -51.5t123 51.5t51 123t-51 122.5t-123 51t-123 -51t-51 -122.5z" />
<glyph unicode="&#xb1;" horiz-adv-x="1241" d="M137 0v158h967v-158h-967zM137 700v158h404v393h159v-393h404v-158h-404v-393h-159v393h-404z" />
<glyph unicode="&#xb2;" horiz-adv-x="757" d="M88 924v80q0 80 69.5 152.5t153.5 117.5q221 125 221 219q0 123 -156.5 123t-250.5 -80h-8v133q123 72 257 72t211 -68.5t77 -159t-57.5 -164t-129.5 -118.5q-211 -135 -242 -180v-7h416v-120h-561z" />
<glyph unicode="&#xb3;" horiz-adv-x="757" d="M98 969v127h11q104 -57 233 -58q188 0 188 107q0 127 -229 127h-74v123h60q217 0 217 118q0 102 -160 103q-129 0 -227 -68h-11v123q121 70 254.5 70t202 -60.5t68.5 -156.5q0 -133 -123 -183v-4q152 -47 151 -196q0 -98 -72.5 -164t-223 -66t-265.5 58z" />
<glyph unicode="&#xb4;" horiz-adv-x="491" d="M72 1184l155 272h203l-231 -272h-127z" />
<glyph unicode="&#xb5;" horiz-adv-x="1236" d="M172 -436v1480h186v-643q0 -250 226 -249q178 0 336 196v696h186v-1044h-164l-22 131v31h-5q-80 -88 -159.5 -135t-193 -47t-197.5 53h-7v-469h-186z" />
<glyph unicode="&#xb6;" horiz-adv-x="1499" d="M80 903q0 219 154.5 373t371.5 154h793v-162h-166v-1717h-162v1717h-229v-1717h-162v826h-74q-217 0 -371.5 153.5t-154.5 372.5z" />
<glyph unicode="&#xb7;" horiz-adv-x="532" d="M152 469v229h229v-229h-229z" />
<glyph unicode="&#xb8;" horiz-adv-x="628" d="M98 -389l33 72q76 -47 141 -48q117 0 117 95q0 31 -20.5 47t-60.5 16t-87 -24l-59 32l145 234h86l-94 -164q33 8 86 8t97 -40t44 -103q0 -188 -227 -189q-106 0 -201 64z" />
<glyph unicode="&#xb9;" horiz-adv-x="757" d="M172 924v120h172v529h-8l-156 -76v135l185 97h110v-685h154v-120h-457z" />
<glyph unicode="&#xba;" horiz-adv-x="1052" d="M154 469v115h745v-115h-745zM162 1073q0 170 99 273.5t265 103.5t265.5 -103.5t99.5 -273.5t-99.5 -274.5t-265.5 -104.5t-265 104.5t-99 274.5zM309 1074q0 -124 65.5 -186.5t151.5 -62.5t151.5 62.5t65.5 186.5t-65.5 185.5t-151.5 61.5t-151.5 -61.5t-65.5 -185.5z " />
<glyph unicode="&#xbb;" horiz-adv-x="1198" d="M102 66l396 456l-396 459h213l381 -459l-381 -456h-213zM528 66l396 456l-396 459h213l381 -459l-381 -456h-213z" />
<glyph unicode="&#xbc;" horiz-adv-x="1925" d="M186 635v121h172v528h-8l-155 -76v135l184 97h110v-684h154v-121h-457zM426 -29l899 1483h164l-899 -1483h-164zM1112 197v114l385 494h143v-488h125v-120h-125v-197h-131v197h-397zM1262 317h247v322h-4l-243 -317v-5z" />
<glyph unicode="&#xbd;" horiz-adv-x="1925" d="M174 635v121h172v528h-8l-156 -76v135l185 97h110v-684h154v-121h-457zM414 -29l899 1483h164l-899 -1483h-164zM1190 0v80q0 80 69.5 152.5t153.5 119.5q221 123 221 217q0 123 -156.5 123t-250.5 -80h-8v133q123 72 257 72t210.5 -68.5t76.5 -158.5t-57 -164t-129 -119 q-211 -135 -242 -180v-6h416v-121h-561z" />
<glyph unicode="&#xbe;" horiz-adv-x="1925" d="M154 680v127h10q104 -57 233 -57q188 0 189 106q0 127 -230 127h-73v123h59q217 0 217 119q0 102 -160 102q-129 0 -227 -67h-10v122q121 70 254 70t201.5 -60.5t68.5 -156.5q0 -133 -123 -182v-4q152 -47 152 -197q0 -98 -73 -163.5t-223.5 -65.5t-264.5 57zM455 -29 l899 1483h164l-900 -1483h-163zM1141 197v114l385 494h143v-488h125v-120h-125v-197h-131v197h-397zM1290 317h248v322h-4l-244 -317v-5z" />
<glyph unicode="&#xbf;" horiz-adv-x="999" d="M82 -18q0 94 40 166.5t96 119.5t114 92q135 113 135 265v24h180v-33q0 -109 -39 -193.5t-95 -137t-112 -95.5q-135 -102 -135 -198q0 -223 293 -223q170 0 354 120h9v-186q-195 -109 -391.5 -109t-322.5 104.5t-126 283.5zM442 815v229h230v-229h-230z" />
<glyph unicode="&#xc0;" horiz-adv-x="1427" d="M10 0l606 1430h195l606 -1430h-203l-153 367h-694l-154 -367h-203zM440 537h547v10l-270 653h-4l-273 -653v-10zM457 1808h202l156 -272h-127z" />
<glyph unicode="&#xc1;" horiz-adv-x="1427" d="M10 0l606 1430h195l606 -1430h-203l-153 367h-694l-154 -367h-203zM440 537h547v10l-270 653h-4l-273 -653v-10zM612 1536l156 272h203l-232 -272h-127z" />
<glyph unicode="&#xc2;" horiz-adv-x="1427" d="M10 0l606 1430h195l606 -1430h-203l-153 367h-694l-154 -367h-203zM399 1536l232 252h168l231 -252h-162l-153 150l-154 -150h-162zM440 537h547v10l-270 653h-4l-273 -653v-10z" />
<glyph unicode="&#xc3;" horiz-adv-x="1427" d="M10 0l606 1430h195l606 -1430h-203l-153 367h-694l-154 -367h-203zM383 1536q8 111 56 169t113.5 58t166 -48t155.5 -48q71 0 87 84h92q-8 -111 -56.5 -168t-115 -57t-168 49t-152.5 49q-68 0 -88 -88h-90zM440 537h547v10l-270 653h-4l-273 -653v-10z" />
<glyph unicode="&#xc4;" horiz-adv-x="1427" d="M10 0l606 1430h195l606 -1430h-203l-153 367h-694l-154 -367h-203zM440 537h547v10l-270 653h-4l-273 -653v-10zM444 1536v197h197v-197h-197zM788 1536v197h197v-197h-197z" />
<glyph unicode="&#xc5;" horiz-adv-x="1427" d="M10 0l606 1430h195l606 -1430h-203l-153 367h-694l-154 -367h-203zM440 537h547v10l-270 653h-4l-273 -653v-10zM522 1687.5q0 79.5 56.5 136t136.5 56.5t136 -56.5t56 -136t-56 -136t-136 -56.5t-136.5 56.5t-56.5 136zM614 1688q0 -41 30 -71t71 -30t70.5 30t29.5 71 t-29.5 70.5t-70.5 29.5t-71 -29.5t-30 -70.5z" />
<glyph unicode="&#xc6;" horiz-adv-x="2129" d="M-68 0l942 1430h1139v-175h-805v-452h731v-174h-731v-455h805v-174h-991v367h-631l-237 -367h-222zM506 537h516v718h-51l-465 -712v-6z" />
<glyph unicode="&#xc7;" horiz-adv-x="1429" d="M115 726q0 325 201.5 524.5t514.5 199.5q264 0 486 -133v-184h-10q-211 139 -465 139t-397.5 -155.5t-143.5 -401.5t143.5 -401.5t397.5 -155.5t465 139h10v-184q-219 -131 -475 -133l-62 -109q33 8 86.5 8t97.5 -40t44 -103q0 -188 -228 -189q-106 0 -200 64l32 72 q76 -47 142 -48q117 0 116 95q0 31 -20.5 47t-60 16t-87.5 -24l-59 32l113 183q-283 25 -462 221t-179 521z" />
<glyph unicode="&#xc8;" d="M199 0v1430h991v-175h-805v-452h731v-174h-731v-455h805v-174h-991zM446 1808h203l156 -272h-127z" />
<glyph unicode="&#xc9;" d="M199 0v1430h991v-175h-805v-452h731v-174h-731v-455h805v-174h-991zM592 1536l156 272h202l-231 -272h-127z" />
<glyph unicode="&#xca;" d="M199 0v1430h991v-175h-805v-452h731v-174h-731v-455h805v-174h-991zM399 1536l232 252h168l231 -252h-162l-153 150l-154 -150h-162z" />
<glyph unicode="&#xcb;" d="M199 0v1430h991v-175h-805v-452h731v-174h-731v-455h805v-174h-991zM422 1536v197h196v-197h-196zM766 1536v197h197v-197h-197z" />
<glyph unicode="&#xcc;" horiz-adv-x="583" d="M45 1808h203l155 -272h-127zM199 0v1430h186v-1430h-186z" />
<glyph unicode="&#xcd;" horiz-adv-x="583" d="M180 1536l156 272h203l-232 -272h-127zM199 0v1430h186v-1430h-186z" />
<glyph unicode="&#xce;" horiz-adv-x="583" d="M-25 1536l232 252h168l231 -252h-162l-153 150l-154 -150h-162zM199 0v1430h186v-1430h-186z" />
<glyph unicode="&#xcf;" horiz-adv-x="583" d="M20 1536v197h197v-197h-197zM199 0v1430h186v-1430h-186zM365 1536v197h196v-197h-196z" />
<glyph unicode="&#xd0;" horiz-adv-x="1550" d="M45 645v137h168v648h504q176 0 318.5 -62.5t228.5 -167.5q176 -211 176 -485q0 -219 -113 -400q-127 -199 -348 -274q-121 -41 -262 -41h-504v645h-168zM399 174h295q254 0 407.5 149.5t153.5 391t-153.5 391t-407.5 149.5h-295v-473h299v-137h-299v-471z" />
<glyph unicode="&#xd1;" horiz-adv-x="1644" d="M199 0v1430h229l825 -1176h7v1176h186v-1430h-229l-828 1178h-4v-1178h-186zM498 1536q8 111 56 169t113.5 58t166 -48t155.5 -48q70 0 86 84h92q-8 -111 -56 -168t-114.5 -57t-168 49t-152.5 49q-68 0 -88 -88h-90z" />
<glyph unicode="&#xd2;" horiz-adv-x="1660" d="M113 715q6 326 200.5 530.5t518 204.5t518 -205t200.5 -530q-6 -326 -200.5 -530.5t-518 -204.5t-518 204.5t-200.5 530.5zM299 714.5q0 -243.5 142.5 -402t389 -158.5t390 158.5t143.5 402t-143.5 402.5t-390 159t-389 -159t-142.5 -402.5zM590 1808h203l155 -272h-127z " />
<glyph unicode="&#xd3;" horiz-adv-x="1660" d="M113 715q6 326 200.5 530.5t518 204.5t518 -205t200.5 -530q-6 -326 -200.5 -530.5t-518 -204.5t-518 204.5t-200.5 530.5zM299 714.5q0 -243.5 142.5 -402t389 -158.5t390 158.5t143.5 402t-143.5 402.5t-390 159t-389 -159t-142.5 -402.5zM715 1536l155 272h203 l-231 -272h-127z" />
<glyph unicode="&#xd4;" horiz-adv-x="1660" d="M113 715q6 326 200.5 530.5t518 204.5t518 -205t200.5 -530q-6 -326 -200.5 -530.5t-518 -204.5t-518 204.5t-200.5 530.5zM299 714.5q0 -243.5 142.5 -402t389 -158.5t390 158.5t143.5 402t-143.5 402.5t-390 159t-389 -159t-142.5 -402.5zM516 1536l232 252h167 l232 -252h-162l-154 150l-153 -150h-162z" />
<glyph unicode="&#xd5;" horiz-adv-x="1660" d="M113 715q6 326 200.5 530.5t518 204.5t518 -205t200.5 -530q-6 -326 -200.5 -530.5t-518 -204.5t-518 204.5t-200.5 530.5zM299 714.5q0 -243.5 142.5 -402t389 -158.5t390 158.5t143.5 402t-143.5 402.5t-390 159t-389 -159t-142.5 -402.5zM498 1536q8 111 56 169 t113.5 58t166 -48t155.5 -48q70 0 86 84h92q-8 -111 -56 -168t-114.5 -57t-168 49t-152.5 49q-68 0 -88 -88h-90z" />
<glyph unicode="&#xd6;" horiz-adv-x="1660" d="M113 715q6 326 200.5 530.5t518 204.5t518 -205t200.5 -530q-6 -326 -200.5 -530.5t-518 -204.5t-518 204.5t-200.5 530.5zM299 714.5q0 -243.5 142.5 -402t389 -158.5t390 158.5t143.5 402t-143.5 402.5t-390 159t-389 -159t-142.5 -402.5zM561 1536v197h197v-197h-197z M905 1536v197h197v-197h-197z" />
<glyph unicode="&#xd7;" horiz-adv-x="1153" d="M115 178l350 348v4l-348 351l108 108l348 -350h5l350 350l108 -108l-350 -351v-4l350 -350l-110 -108l-348 350h-5l-350 -348z" />
<glyph unicode="&#xd8;" horiz-adv-x="1660" d="M113 715q6 326 200.5 530.5t517.5 204.5q219 0 386 -98l98 141l84 -59l-99 -142q244 -205 250 -577q-6 -326 -200.5 -530.5t-518.5 -204.5q-213 0 -382 98l-99 -139l-84 59l99 139q-242 201 -252 578zM299 701q0 -257 170 -414l645 919q-121 70 -283 70 q-247 0 -389.5 -159t-142.5 -416zM551 225q122 -71 280 -71q246 0 389.5 158.5t143.5 416.5t-168 416z" />
<glyph unicode="&#xd9;" horiz-adv-x="1552" d="M188 537v893h187v-900q0 -180 118.5 -280t282.5 -100t283 100t119 280v900h186v-893q0 -139 -52 -249t-139.5 -175.5t-188.5 -99t-207.5 -33.5t-208 33.5t-188.5 99t-139.5 175t-52.5 249.5zM547 1808h203l155 -272h-127z" />
<glyph unicode="&#xda;" horiz-adv-x="1552" d="M188 537v893h187v-900q0 -180 118.5 -280t282.5 -100t283 100t119 280v900h186v-893q0 -139 -52 -249t-139.5 -175.5t-188.5 -99t-207.5 -33.5t-208 33.5t-188.5 99t-139.5 175t-52.5 249.5zM647 1536l156 272h203l-232 -272h-127z" />
<glyph unicode="&#xdb;" horiz-adv-x="1552" d="M188 537v893h187v-900q0 -180 118.5 -280t282.5 -100t283 100t119 280v900h186v-893q0 -139 -52 -249t-139.5 -175.5t-188.5 -99t-207.5 -33.5t-208 33.5t-188.5 99t-139.5 175t-52.5 249.5zM461 1536l231 252h168l232 -252h-162l-154 150l-153 -150h-162z" />
<glyph unicode="&#xdc;" horiz-adv-x="1552" d="M188 537v893h187v-900q0 -180 118.5 -280t282.5 -100t283 100t119 280v900h186v-893q0 -139 -52 -249t-139.5 -175.5t-188.5 -99t-207.5 -33.5t-208 33.5t-188.5 99t-139.5 175t-52.5 249.5zM506 1536v197h196v-197h-196zM850 1536v197h197v-197h-197z" />
<glyph unicode="&#xdd;" horiz-adv-x="1320" d="M-14 1430h227l442 -654h11l442 654h227l-581 -826v-604h-187v604zM551 1536l156 272h202l-231 -272h-127z" />
<glyph unicode="&#xde;" horiz-adv-x="1374" d="M199 0v1430h186v-230h373q147 0 257.5 -40t171 -107.5t89.5 -144.5t29 -163t-29 -162.5t-89.5 -144t-171 -107.5t-257.5 -40h-373v-291h-186zM385 467h354q209 0 294 80t85 198.5t-85 198.5t-294 80h-354v-557z" />
<glyph unicode="&#xdf;" horiz-adv-x="1249" d="M162 0v995q0 215 127 335t319.5 120t328.5 -103.5t136 -297.5q0 -256 -223 -328v-2q109 -25 199 -101q104 -90 104 -266t-114.5 -274t-267.5 -98t-271 47v168h8q98 -49 202.5 -49.5t180.5 53t76 176.5t-103.5 190.5t-267.5 67.5h-43v143h16q143 0 230.5 72t87.5 183.5 t-71 178t-191.5 66.5t-198.5 -68.5t-78 -234.5v-973h-186z" />
<glyph unicode="&#xe0;" horiz-adv-x="1136" d="M78 292.5q0 145.5 119.5 235.5t351.5 90h248v17q0 135 -66.5 194.5t-230.5 59.5t-307 -70h-13v168q178 78 382 78t312.5 -119t108.5 -284v-662h-164l-22 131h-6q-147 -152 -379 -151q-139 0 -236.5 83.5t-97.5 229zM264 306q0 -163 217 -163q90 0 174.5 44t141.5 110v172 h-224q-309 0 -309 -163zM317 1456h203l156 -272h-127z" />
<glyph unicode="&#xe1;" horiz-adv-x="1136" d="M78 292.5q0 145.5 119.5 235.5t351.5 90h248v17q0 135 -66.5 194.5t-230.5 59.5t-307 -70h-13v168q178 78 382 78t312.5 -119t108.5 -284v-662h-164l-22 131h-6q-147 -152 -379 -151q-139 0 -236.5 83.5t-97.5 229zM264 306q0 -163 217 -163q90 0 174.5 44t141.5 110v172 h-224q-309 0 -309 -163zM432 1184l156 272h203l-232 -272h-127z" />
<glyph unicode="&#xe2;" horiz-adv-x="1136" d="M78 292.5q0 145.5 119.5 235.5t351.5 90h248v17q0 135 -66.5 194.5t-230.5 59.5t-307 -70h-13v168q178 78 382 78t312.5 -119t108.5 -284v-662h-164l-22 131h-6q-147 -152 -379 -151q-139 0 -236.5 83.5t-97.5 229zM244 1184l231 252h168l231 -252h-161l-154 149 l-153 -149h-162zM264 306q0 -163 217 -163q90 0 174.5 44t141.5 110v172h-224q-309 0 -309 -163z" />
<glyph unicode="&#xe3;" horiz-adv-x="1136" d="M78 292.5q0 145.5 119.5 235.5t351.5 90h248v17q0 135 -66.5 194.5t-230.5 59.5t-307 -70h-13v168q178 78 382 78t312.5 -119t108.5 -284v-662h-164l-22 131h-6q-147 -152 -379 -151q-139 0 -236.5 83.5t-97.5 229zM219 1184q8 111 56.5 169t114 58t165.5 -48t156 -48 q70 0 86 84h92q-8 -111 -56.5 -168t-115 -57t-167.5 49t-153 49q-68 0 -88 -88h-90zM264 306q0 -163 217 -163q90 0 174.5 44t141.5 110v172h-224q-309 0 -309 -163z" />
<glyph unicode="&#xe4;" horiz-adv-x="1136" d="M78 292.5q0 145.5 119.5 235.5t351.5 90h248v17q0 135 -66.5 194.5t-230.5 59.5t-307 -70h-13v168q178 78 382 78t312.5 -119t108.5 -284v-662h-164l-22 131h-6q-147 -152 -379 -151q-139 0 -236.5 83.5t-97.5 229zM264 306q0 -163 217 -163q90 0 174.5 44t141.5 110v172 h-224q-309 0 -309 -163zM291 1184v196h196v-196h-196zM635 1184v196h196v-196h-196z" />
<glyph unicode="&#xe5;" horiz-adv-x="1136" d="M78 292.5q0 145.5 119.5 235.5t351.5 90h248v17q0 135 -66.5 194.5t-230.5 59.5t-307 -70h-13v168q178 78 382 78t312.5 -119t108.5 -284v-662h-164l-22 131h-6q-147 -152 -379 -151q-139 0 -236.5 83.5t-97.5 229zM264 306q0 -163 217 -163q90 0 174.5 44t141.5 110v172 h-224q-309 0 -309 -163zM358 1321q0 80 56.5 136t136.5 56t136 -56t56 -136t-56 -136.5t-136 -56.5t-136.5 56.5t-56.5 136.5zM451 1321q0 -41 29.5 -70.5t70.5 -29.5t70.5 29.5t29.5 70.5t-29.5 70.5t-70.5 29.5t-70.5 -29.5t-29.5 -70.5z" />
<glyph unicode="&#xe6;" horiz-adv-x="1851" d="M76 291.5q0 144.5 119.5 232.5t351.5 88h248v23q0 135 -66.5 194.5t-230.5 59.5t-312 -72h-8v170q178 78 375 78q246 0 350 -172q129 172 369.5 172t365.5 -158t125 -385v-59h-794q35 -309 362 -309q207 0 365 104h6v-182q-172 -96 -387 -96q-279 0 -416 178 q-117 -178 -422 -178q-170 0 -285.5 83.5t-115.5 228zM262 307q0 -70 66.5 -117t184.5 -47t200 45t82 158v117h-224q-309 0 -309 -156zM969 612h610q-8 147 -100.5 221t-205 74t-204.5 -74t-100 -221z" />
<glyph unicode="&#xe7;" horiz-adv-x="1099" d="M96 534.5q0 235.5 160 383t387 147.5q184 0 354 -100v-177h-8q-152 102 -329 102.5t-277 -101t-100 -267.5t100 -267t277.5 -101t328.5 102h8v-176q-166 -98 -352 -100l-61 -109q33 8 86 8t97 -40t44 -103q0 -188 -227 -189q-106 0 -201 64l33 72q76 -47 141 -48 q117 0 117 95q0 31 -20.5 47t-60.5 16t-87 -24l-60 32l115 185q-201 27 -333 170t-132 378.5z" />
<glyph unicode="&#xe8;" horiz-adv-x="1167" d="M100 507q0 243 125 400.5t364.5 157.5t364.5 -158t125 -385v-65h-790q16 -143 106 -223t273.5 -80t339.5 102h10v-180q-172 -96 -404.5 -96t-373 142t-140.5 385zM289 608h604q-8 147 -99.5 223t-204 76t-202.5 -76t-98 -223zM358 1456h203l156 -272h-127z" />
<glyph unicode="&#xe9;" horiz-adv-x="1167" d="M100 507q0 243 125 400.5t364.5 157.5t364.5 -158t125 -385v-65h-790q16 -143 106 -223t273.5 -80t339.5 102h10v-180q-172 -96 -404.5 -96t-373 142t-140.5 385zM289 608h604q-8 147 -99.5 223t-204 76t-202.5 -76t-98 -223zM461 1184l155 272h203l-231 -272h-127z" />
<glyph unicode="&#xea;" horiz-adv-x="1167" d="M100 507q0 243 125 400.5t364.5 157.5t364.5 -158t125 -385v-65h-790q16 -143 106 -223t273.5 -80t339.5 102h10v-180q-172 -96 -404.5 -96t-373 142t-140.5 385zM272 1184l232 252h168l231 -252h-162l-153 149l-154 -149h-162zM289 608h604q-8 147 -99.5 223t-204 76 t-202.5 -76t-98 -223z" />
<glyph unicode="&#xeb;" horiz-adv-x="1167" d="M100 507q0 243 125 400.5t364.5 157.5t364.5 -158t125 -385v-65h-790q16 -143 106 -223t273.5 -80t339.5 102h10v-180q-172 -96 -404.5 -96t-373 142t-140.5 385zM289 608h604q-8 147 -99.5 223t-204 76t-202.5 -76t-98 -223zM317 1184v196h197v-196h-197zM662 1184v196 h196v-196h-196z" />
<glyph unicode="&#xec;" horiz-adv-x="526" d="M16 1456h203l156 -272h-127zM170 0v1044h186v-1044h-186z" />
<glyph unicode="&#xed;" horiz-adv-x="526" d="M152 1184l155 272h203l-231 -272h-127zM170 0v1044h186v-1044h-186z" />
<glyph unicode="&#xee;" horiz-adv-x="526" d="M-53 1184l231 252h168l232 -252h-162l-154 149l-153 -149h-162zM170 0v1044h186v-1044h-186z" />
<glyph unicode="&#xef;" horiz-adv-x="526" d="M-8 1184v196h196v-196h-196zM170 0v1044h186v-1044h-186zM336 1184v196h196v-196h-196z" />
<glyph unicode="&#xf0;" horiz-adv-x="1226" d="M100 497.5q0 227.5 129 382t351 154.5q121 0 223 -53h6q-80 119 -217 236l-211 -123l-51 88l174 102q-106 74 -209 127q98 141 100 141q150 -86 264 -178l177 107l53 -88l-148 -88q377 -340 377 -744q0 -256 -125 -418.5t-369.5 -162.5t-384 145t-139.5 372.5zM281 515 q0 -185 98 -278.5t229 -93.5t230.5 93.5t99.5 278.5t-99.5 276.5t-230.5 91.5t-229 -91.5t-98 -276.5z" />
<glyph unicode="&#xf1;" horiz-adv-x="1247" d="M162 0v1044h164l22 -131v-30h4q166 182 377 182q170 0 268.5 -114.5t98.5 -286.5v-664h-187v643q0 250 -225 250q-178 0 -336 -197v-696h-186zM301 1184q8 111 56.5 169t114 58t165.5 -48t156 -48q70 0 86 84h92q-8 -111 -56.5 -168t-115 -57t-168 49t-152.5 49 q-68 0 -88 -88h-90z" />
<glyph unicode="&#xf2;" horiz-adv-x="1245" d="M98 522.5q0 243.5 143.5 393t380 149.5t381 -149.5t144.5 -393t-144.5 -393t-381 -149.5t-380 149.5t-143.5 393zM285 523.5q0 -187.5 101 -280.5t236.5 -93t237 93t101.5 280.5t-101.5 279.5t-237 92t-236.5 -92t-101 -279.5zM377 1456h203l155 -272h-127z" />
<glyph unicode="&#xf3;" horiz-adv-x="1245" d="M98 522.5q0 243.5 143.5 393t380 149.5t381 -149.5t144.5 -393t-144.5 -393t-381 -149.5t-380 149.5t-143.5 393zM285 523.5q0 -187.5 101 -280.5t236.5 -93t237 93t101.5 280.5t-101.5 279.5t-237 92t-236.5 -92t-101 -279.5zM510 1184l156 272h202l-231 -272h-127z" />
<glyph unicode="&#xf4;" horiz-adv-x="1245" d="M98 522.5q0 243.5 143.5 393t380 149.5t381 -149.5t144.5 -393t-144.5 -393t-381 -149.5t-380 149.5t-143.5 393zM285 523.5q0 -187.5 101 -280.5t236.5 -93t237 93t101.5 280.5t-101.5 279.5t-237 92t-236.5 -92t-101 -279.5zM307 1184l232 252h168l231 -252h-162 l-153 149l-154 -149h-162z" />
<glyph unicode="&#xf5;" horiz-adv-x="1245" d="M98 522.5q0 243.5 143.5 393t380 149.5t381 -149.5t144.5 -393t-144.5 -393t-381 -149.5t-380 149.5t-143.5 393zM285 523.5q0 -187.5 101 -280.5t236.5 -93t237 93t101.5 280.5t-101.5 279.5t-237 92t-236.5 -92t-101 -279.5zM291 1184q8 111 55 169t114.5 58t168 -48 t153.5 -48q70 0 86 84h93q-8 -111 -56.5 -168t-115 -57t-168 49t-152.5 49q-68 0 -88 -88h-90z" />
<glyph unicode="&#xf6;" horiz-adv-x="1245" d="M98 522.5q0 243.5 143.5 393t380 149.5t381 -149.5t144.5 -393t-144.5 -393t-381 -149.5t-380 149.5t-143.5 393zM285 523.5q0 -187.5 101 -280.5t236.5 -93t237 93t101.5 280.5t-101.5 279.5t-237 92t-236.5 -92t-101 -279.5zM352 1184v196h197v-196h-197zM696 1184v196 h197v-196h-197z" />
<glyph unicode="&#xf7;" horiz-adv-x="1458" d="M160 596v166h1138v-166h-1138zM635 205v188h188v-188h-188zM635 963v188h188v-188h-188z" />
<glyph unicode="&#xf8;" horiz-adv-x="1245" d="M98 511q0 255 143.5 404.5t381.5 149.5q156 0 270 -66l76 109l84 -59l-76 -109q170 -154 170 -407.5t-144.5 -403t-379.5 -149.5q-154 0 -273 67l-76 -108l-84 59l76 108q-168 150 -168 405zM285 533.5q0 -177.5 88 -275.5l418 596q-76 41 -168 41q-136 0 -237 -92 t-101 -269.5zM453 193q80 -43 170 -43q135 0 236.5 93t101.5 270t-91 278z" />
<glyph unicode="&#xf9;" horiz-adv-x="1249" d="M154 381v663h186v-643q0 -250 225 -249q178 0 336 196v696h186v-1044h-163l-23 131v31h-4q-166 -182 -377 -182q-170 0 -268 114.5t-98 286.5zM375 1456h203l155 -272h-127z" />
<glyph unicode="&#xfa;" horiz-adv-x="1249" d="M154 381v663h186v-643q0 -250 225 -249q178 0 336 196v696h186v-1044h-163l-23 131v31h-4q-166 -182 -377 -182q-170 0 -268 114.5t-98 286.5zM508 1184l156 272h202l-231 -272h-127z" />
<glyph unicode="&#xfb;" horiz-adv-x="1249" d="M154 381v663h186v-643q0 -250 225 -249q178 0 336 196v696h186v-1044h-163l-23 131v31h-4q-166 -182 -377 -182q-170 0 -268 114.5t-98 286.5zM305 1184l232 252h168l231 -252h-162l-153 149l-154 -149h-162z" />
<glyph unicode="&#xfc;" horiz-adv-x="1249" d="M154 381v663h186v-643q0 -250 225 -249q178 0 336 196v696h186v-1044h-163l-23 131v31h-4q-166 -182 -377 -182q-170 0 -268 114.5t-98 286.5zM350 1184v196h197v-196h-197zM694 1184v196h197v-196h-197z" />
<glyph unicode="&#xfd;" horiz-adv-x="1091" d="M10 1044h201l328 -825h8l336 825h200l-628 -1515h-189l176 455zM432 1184l156 272h203l-232 -272h-127z" />
<glyph unicode="&#xfe;" horiz-adv-x="1292" d="M162 -471v1966h186v-582h6q146 152 344.5 152t347 -147.5t148.5 -395.5t-148.5 -395t-347 -147t-344.5 151h-6v-602h-186zM348 307q140 -153 324 -153q152 0 244 96t92 272t-92.5 272.5t-243.5 96.5q-184 0 -324 -154v-430z" />
<glyph unicode="&#xff;" horiz-adv-x="1091" d="M10 1044h201l328 -825h8l336 825h200l-628 -1515h-189l176 455zM272 1184v196h197v-196h-197zM616 1184v196h197v-196h-197z" />
<glyph unicode="&#x100;" horiz-adv-x="1427" d="M10 0l606 1430h195l606 -1430h-203l-153 367h-694l-154 -367h-203zM424 1573v123h582v-123h-582zM440 537h547v10l-270 653h-4l-273 -653v-10z" />
<glyph unicode="&#x101;" horiz-adv-x="1136" d="M78 292.5q0 145.5 119.5 235.5t351.5 90h248v17q0 135 -66.5 194.5t-230.5 59.5t-307 -70h-13v168q178 78 382 78t312.5 -119t108.5 -284v-662h-164l-22 131h-6q-147 -152 -379 -151q-139 0 -236.5 83.5t-97.5 229zM256 1204v123h582v-123h-582zM264 306q0 -163 217 -163 q90 0 174.5 44t141.5 110v172h-224q-309 0 -309 -163z" />
<glyph unicode="&#x102;" horiz-adv-x="1427" d="M10 0l606 1430h195l606 -1430h-203l-153 367h-694l-154 -367h-203zM414 1769h131q41 -119 170 -119t170 119h131q-20 -109 -101 -173t-200 -64t-200 64.5t-101 172.5zM440 537h547v10l-270 653h-4l-273 -653v-10z" />
<glyph unicode="&#x103;" horiz-adv-x="1136" d="M78 292.5q0 145.5 119.5 235.5t351.5 90h248v17q0 135 -66.5 194.5t-230.5 59.5t-307 -70h-13v168q178 78 382 78t312.5 -119t108.5 -284v-662h-164l-22 131h-6q-147 -152 -379 -151q-139 0 -236.5 83.5t-97.5 229zM250 1417h131q41 -119 170 -119t170 119h131 q-20 -109 -101 -173t-200 -64t-200 64.5t-101 172.5zM264 306q0 -163 217 -163q90 0 174.5 44t141.5 110v172h-224q-309 0 -309 -163z" />
<glyph unicode="&#x104;" horiz-adv-x="1427" d="M10 0l606 1430h195l606 -1430q-233 -86 -229 -205q0 -96 104 -96q59 0 123 37v-96q-82 -55 -173 -55.5t-147.5 46.5t-56.5 125q0 154 219 244h-43l-153 367h-694l-154 -367h-203zM440 537h547v10l-270 653h-4l-273 -653v-10z" />
<glyph unicode="&#x105;" horiz-adv-x="1136" d="M78 292.5q0 145.5 119.5 235.5t351.5 90h248v17q0 135 -66.5 194.5t-234.5 59.5t-316 -76v174q178 78 382 78t312.5 -119t108.5 -284v-662q-233 -86 -229 -205q0 -96 104 -96q59 0 123 37v-96q-82 -55 -173 -55.5t-147.5 46.5t-56.5 125q0 154 219 244h-26v135 q-147 -156 -385 -155q-139 0 -236.5 83.5t-97.5 229zM264 306q0 -163 217 -163q90 0 174.5 44t141.5 110v172h-224q-309 0 -309 -163z" />
<glyph unicode="&#x106;" horiz-adv-x="1429" d="M115 715q0 336 201.5 535.5t514.5 199.5q264 0 486 -133v-184h-10q-211 139 -465 139t-397.5 -155.5t-143.5 -401.5t143.5 -401.5t397.5 -155.5t465 139h10v-184q-221 -133 -486 -133q-313 0 -514.5 199.5t-201.5 535.5zM696 1536l156 272h203l-232 -272h-127z" />
<glyph unicode="&#x107;" horiz-adv-x="1097" d="M94 522q0 248 160 395.5t387 147.5q184 0 354 -100v-177h-8q-152 102 -329 102.5t-277 -101t-100 -267.5t100 -267t277.5 -101t328.5 102h8v-176q-170 -100 -354 -100q-227 0 -387 147t-160 395zM498 1184l155 272h203l-231 -272h-127z" />
<glyph unicode="&#x108;" horiz-adv-x="1429" d="M115 715q0 336 201.5 535.5t514.5 199.5q264 0 486 -133v-184h-10q-211 139 -465 139t-397.5 -155.5t-143.5 -401.5t143.5 -401.5t397.5 -155.5t465 139h10v-184q-221 -133 -486 -133q-313 0 -514.5 199.5t-201.5 535.5zM498 1536l231 252h168l231 -252h-161l-154 150 l-154 -150h-161z" />
<glyph unicode="&#x109;" horiz-adv-x="1097" d="M94 522q0 248 160 395.5t387 147.5q184 0 354 -100v-177h-8q-152 102 -329 102.5t-277 -101t-100 -267.5t100 -267t277.5 -101t328.5 102h8v-176q-170 -100 -354 -100q-227 0 -387 147t-160 395zM293 1184l231 252h168l232 -252h-162l-154 149l-153 -149h-162z" />
<glyph unicode="&#x10a;" horiz-adv-x="1429" d="M115 715q0 336 201.5 535.5t514.5 199.5q264 0 486 -133v-184h-10q-211 139 -465 139t-397.5 -155.5t-143.5 -401.5t143.5 -401.5t397.5 -155.5t465 139h10v-184q-221 -133 -486 -133q-313 0 -514.5 199.5t-201.5 535.5zM711 1536v197h196v-197h-196z" />
<glyph unicode="&#x10b;" horiz-adv-x="1097" d="M94 522q0 248 160 395.5t387 147.5q184 0 354 -100v-177h-8q-152 102 -329 102.5t-277 -101t-100 -267.5t100 -267t277.5 -101t328.5 102h8v-176q-170 -100 -354 -100q-227 0 -387 147t-160 395zM518 1184v196h197v-196h-197z" />
<glyph unicode="&#x10c;" horiz-adv-x="1429" d="M115 715q0 336 201.5 535.5t514.5 199.5q264 0 486 -133v-184h-10q-211 139 -465 139t-397.5 -155.5t-143.5 -401.5t143.5 -401.5t397.5 -155.5t465 139h10v-184q-221 -133 -486 -133q-313 0 -514.5 199.5t-201.5 535.5zM500 1788h162l153 -150l154 150h161l-231 -252 h-168z" />
<glyph unicode="&#x10d;" horiz-adv-x="1097" d="M94 522q0 248 160 395.5t387 147.5q184 0 354 -100v-177h-8q-152 102 -329 102.5t-277 -101t-100 -267.5t100 -267t277.5 -101t328.5 102h8v-176q-170 -100 -354 -100q-227 0 -387 147t-160 395zM287 1436h162l153 -150l154 150h162l-232 -252h-168z" />
<glyph unicode="&#x10e;" horiz-adv-x="1536" d="M199 0v1430h503q176 0 318.5 -62.5t228.5 -167.5q176 -211 176 -485q0 -219 -114 -400q-125 -199 -346 -274q-121 -41 -263 -41h-503zM385 174h295q254 0 407.5 149.5t153.5 391t-153.5 391t-407.5 149.5h-295v-1081zM449 1788h161l154 -150l154 150h161l-231 -252h-168z " />
<glyph unicode="&#x10f;" horiz-adv-x="1329" d="M98 522q0 248 148.5 395.5t347.5 147.5t344 -152h6v582h186v-1495h-163l-23 131h-6q-145 -152 -344 -151.5t-347.5 147.5t-148.5 395zM285 522q0 -176 92 -272t244 -96q184 0 323 153v430q-139 154 -323 154q-152 0 -244 -96.5t-92 -272.5zM1251 1024v113q96 51 97 166 h-97v192h195v-192q0 -195 -195 -279z" />
<glyph unicode="&#x110;" horiz-adv-x="1550" d="M45 645v137h168v648h504q176 0 318.5 -62.5t228.5 -167.5q176 -211 176 -485q0 -219 -113 -400q-127 -199 -348 -274q-121 -41 -262 -41h-504v645h-168zM399 174h295q254 0 407.5 149.5t153.5 391t-153.5 391t-407.5 149.5h-295v-473h299v-137h-299v-471z" />
<glyph unicode="&#x111;" horiz-adv-x="1292" d="M98 522q0 248 148.5 395.5t347.5 147.5t344 -152h6v289h-280v137h280v156h186v-156h158v-137h-158v-1202h-163l-23 131h-6q-145 -152 -344 -151.5t-347.5 147.5t-148.5 395zM285 522q0 -176 92 -272t244 -96q184 0 323 153v430q-139 154 -323 154q-152 0 -244 -96.5 t-92 -272.5z" />
<glyph unicode="&#x112;" d="M199 0v1430h991v-175h-805v-452h731v-174h-731v-455h805v-174h-991zM420 1573v123h581v-123h-581z" />
<glyph unicode="&#x113;" horiz-adv-x="1167" d="M100 507q0 243 125 400.5t364.5 157.5t364.5 -158t125 -385v-65h-790q16 -143 106 -223t273.5 -80t339.5 102h10v-180q-172 -96 -404.5 -96t-373 142t-140.5 385zM289 608h604q-8 147 -99.5 223t-204 76t-202.5 -76t-98 -223zM299 1204v123h582v-123h-582z" />
<glyph unicode="&#x114;" d="M199 0v1430h991v-175h-805v-452h731v-174h-731v-455h805v-174h-991zM406 1769h131q41 -119 170 -119t170 119h131q-20 -109 -101.5 -173t-200 -64t-199.5 64.5t-101 172.5z" />
<glyph unicode="&#x115;" horiz-adv-x="1167" d="M100 507q0 243 125 400.5t364.5 157.5t364.5 -158t125 -385v-65h-790q16 -143 106 -223t273.5 -80t339.5 102h10v-180q-172 -96 -404.5 -96t-373 142t-140.5 385zM281 1417h131q41 -119 170 -119t170 119h131q-20 -109 -101.5 -173t-200 -64t-199.5 64.5t-101 172.5z M289 608h604q-8 147 -99.5 223t-204 76t-202.5 -76t-98 -223z" />
<glyph unicode="&#x116;" d="M199 0v1430h991v-175h-805v-452h731v-174h-731v-455h805v-174h-991zM612 1536v197h197v-197h-197z" />
<glyph unicode="&#x117;" horiz-adv-x="1167" d="M100 507q0 243 125 400.5t364.5 157.5t364.5 -158t125 -385v-65h-790q16 -143 106 -223t273.5 -80t339.5 102h10v-180q-172 -96 -404.5 -96t-373 142t-140.5 385zM289 608h604q-8 147 -99.5 223t-204 76t-202.5 -76t-98 -223zM487 1184v196h197v-196h-197z" />
<glyph unicode="&#x118;" d="M199 0v1430h991v-175h-805v-452h731v-174h-731v-455h805v-174q-233 -86 -229 -205q0 -96 104 -96q57 0 123 37v-96q-82 -55 -173 -55.5t-147.5 46.5t-56.5 125q0 154 219 244h-831z" />
<glyph unicode="&#x119;" horiz-adv-x="1169" d="M100 507q0 243 125 400.5t364.5 157.5t364.5 -158t125 -385v-65h-794q16 -141 108 -222t275.5 -81t339.5 102h10v-180q-102 -41 -199.5 -122t-97.5 -159q0 -96 104 -96q59 0 123 37v-96q-82 -55 -173 -55.5t-147.5 46.5t-56.5 125q0 133 162 230q-45 -6 -102 -6 q-250 0 -390.5 142t-140.5 385zM285 608h610q-8 147 -100.5 223t-205 76t-204.5 -76t-100 -223z" />
<glyph unicode="&#x11a;" d="M199 0v1430h991v-175h-805v-452h731v-174h-731v-455h805v-174h-991zM379 1788h162l153 -150l154 150h162l-232 -252h-168z" />
<glyph unicode="&#x11b;" horiz-adv-x="1167" d="M100 507q0 243 125 400.5t364.5 157.5t364.5 -158t125 -385v-65h-790q16 -143 106 -223t273.5 -80t339.5 102h10v-180q-172 -96 -404.5 -96t-373 142t-140.5 385zM270 1436h162l154 -150l153 150h162l-231 -252h-168zM289 608h604q-8 147 -99.5 223t-204 76t-202.5 -76 t-98 -223z" />
<glyph unicode="&#x11c;" horiz-adv-x="1523" d="M113 714.5q0 325.5 204.5 530.5t492.5 205t546 -158v-192h-8q-252 170 -497 170t-398.5 -147.5t-153.5 -400.5t149.5 -409.5t407.5 -156.5q193 0 358 90v370h-374v168h538v-647q-264 -158 -547 -157q-322 0 -520 204.5t-198 530zM502 1536l231 252h168l232 -252h-162 l-154 150l-153 -150h-162z" />
<glyph unicode="&#x11d;" horiz-adv-x="1292" d="M98 532.5q0 251.5 152.5 392t349.5 140.5t338 -152h6l23 131h163v-999q0 -258 -124.5 -397.5t-361 -139.5t-431.5 105v184h10q174 -113 408 -112q313 0 313 333v134h-6q-141 -152 -338 -152t-349.5 140.5t-152.5 392zM285 532.5q0 -176.5 97 -269.5t256 -93t306 152v421 q-147 152 -306 152t-256 -93t-97 -269.5zM334 1184l231 252h168l232 -252h-162l-154 149l-153 -149h-162z" />
<glyph unicode="&#x11e;" horiz-adv-x="1523" d="M113 714.5q0 325.5 204.5 530.5t492.5 205t546 -158v-192h-8q-252 170 -497 170t-398.5 -147.5t-153.5 -400.5t149.5 -409.5t407.5 -156.5q193 0 358 90v370h-374v168h538v-647q-264 -158 -547 -157q-322 0 -520 204.5t-198 530zM510 1769h131q41 -119 170 -119t170 119 h131q-20 -109 -101 -173t-200 -64t-200 64.5t-101 172.5z" />
<glyph unicode="&#x11f;" horiz-adv-x="1292" d="M98 532.5q0 251.5 152.5 392t349.5 140.5t338 -152h6l23 131h163v-999q0 -258 -124.5 -397.5t-361 -139.5t-431.5 105v184h10q174 -113 408 -112q313 0 313 333v134h-6q-141 -152 -338 -152t-349.5 140.5t-152.5 392zM285 532.5q0 -176.5 97 -269.5t256 -93t306 152v421 q-147 152 -306 152t-256 -93t-97 -269.5zM344 1417h131q41 -119 170 -119t170 119h131q-20 -109 -101 -173t-200 -64t-199.5 64.5t-101.5 172.5z" />
<glyph unicode="&#x120;" horiz-adv-x="1523" d="M113 714.5q0 325.5 204.5 530.5t492.5 205t546 -158v-192h-8q-252 170 -497 170t-398.5 -147.5t-153.5 -400.5t149.5 -409.5t407.5 -156.5q193 0 358 90v370h-374v168h538v-647q-264 -158 -547 -157q-322 0 -520 204.5t-198 530zM702 1536v197h197v-197h-197z" />
<glyph unicode="&#x121;" horiz-adv-x="1292" d="M98 532.5q0 251.5 152.5 392t349.5 140.5t338 -152h6l23 131h163v-999q0 -258 -124.5 -397.5t-361 -139.5t-431.5 105v184h10q174 -113 408 -112q313 0 313 333v134h-6q-141 -152 -338 -152t-349.5 140.5t-152.5 392zM285 532.5q0 -176.5 97 -269.5t256 -93t306 152v421 q-147 152 -306 152t-256 -93t-97 -269.5zM553 1184v196h197v-196h-197z" />
<glyph unicode="&#x122;" horiz-adv-x="1523" d="M113 714.5q0 325.5 204.5 530.5t492.5 205t546 -158v-192h-8q-252 170 -497 170t-398.5 -147.5t-153.5 -400.5t149.5 -409.5t407.5 -156.5q193 0 358 90v370h-374v168h538v-647q-264 -158 -547 -157q-322 0 -520 204.5t-198 530zM709 -109h194v-192q0 -195 -194 -279v113 q96 51 96 166h-96v192z" />
<glyph unicode="&#x123;" horiz-adv-x="1292" d="M98 532.5q0 251.5 152.5 392t349.5 140.5t338 -152h6l23 131h163v-999q0 -258 -124.5 -397.5t-361 -139.5t-431.5 105v184h10q174 -113 408 -112q313 0 313 333v134h-6q-141 -152 -338 -152t-349.5 140.5t-152.5 392zM285 532.5q0 -176.5 97 -269.5t256 -93t306 152v421 q-147 152 -306 152t-256 -93t-97 -269.5zM557 1184v192q0 195 193 279v-113q-94 -51 -95 -166h95v-192h-193z" />
<glyph unicode="&#x124;" horiz-adv-x="1546" d="M199 0v1430h186v-629h776v629h187v-1430h-187v627h-776v-627h-186zM446 1536l232 252h168l231 -252h-162l-153 150l-154 -150h-162z" />
<glyph unicode="&#x125;" horiz-adv-x="1247" d="M-61 1595l231 252h168l231 -252h-161l-154 150l-154 -150h-161zM162 0v1495h186v-612h6q166 182 375 182q170 0 268.5 -114.5t98.5 -286.5v-664h-187v643q0 250 -225 250q-178 0 -336 -197v-696h-186z" />
<glyph unicode="&#x126;" horiz-adv-x="1562" d="M55 1042v138h152v250h186v-250h776v250h187v-250h151v-138h-151v-1042h-187v627h-776v-627h-186v1042h-152zM393 801h776v241h-776v-241z" />
<glyph unicode="&#x127;" horiz-adv-x="1247" d="M2 1202v137h160v156h186v-156h281v-137h-281v-319h6q166 182 375 182q170 0 268.5 -114.5t98.5 -286.5v-664h-187v643q0 250 -225 250q-178 0 -336 -197v-696h-186v1202h-160z" />
<glyph unicode="&#x128;" horiz-adv-x="583" d="M-43 1536q8 111 55 169t114 58t167 -48t156 -48q70 0 86 84h92q-8 -111 -56.5 -168t-115 -57t-168 49t-152.5 49q-68 0 -88 -88h-90zM199 0v1430h186v-1430h-186z" />
<glyph unicode="&#x129;" horiz-adv-x="526" d="M-72 1184q8 111 56.5 169t114 58t167 -48t154.5 -48q70 0 86 84h92q-8 -111 -56 -168t-115 -57t-168 49t-153 49q-68 0 -88 -88h-90zM170 0v1044h186v-1044h-186z" />
<glyph unicode="&#x12a;" horiz-adv-x="583" d="M0 1573v123h582v-123h-582zM199 0v1430h186v-1430h-186z" />
<glyph unicode="&#x12b;" horiz-adv-x="526" d="M-29 1204v123h582v-123h-582zM170 0v1044h186v-1044h-186z" />
<glyph unicode="&#x12c;" horiz-adv-x="583" d="M-10 1769h131q41 -119 170 -119t170 119h131q-20 -109 -101 -173t-200 -64t-200 64.5t-101 172.5zM199 0v1430h186v-1430h-186z" />
<glyph unicode="&#x12d;" horiz-adv-x="526" d="M-39 1417h131q41 -119 170 -119t170 119h131q-20 -109 -101 -173t-200 -64t-199.5 64.5t-101.5 172.5zM170 0v1044h186v-1044h-186z" />
<glyph unicode="&#x12e;" horiz-adv-x="583" d="M6 -244q0 154 219 244h-26v1430h186v-1430q-233 -86 -229 -205q0 -96 104 -96q59 0 123 37v-96q-82 -55 -173 -55.5t-147.5 46.5t-56.5 125z" />
<glyph unicode="&#x12f;" horiz-adv-x="526" d="M-23 -244q0 154 220 244h-27v1044h186v-1044q-233 -86 -229 -205q0 -96 104 -96q59 0 123 37v-96q-82 -55 -173 -55.5t-147.5 46.5t-56.5 125zM164 1266v200h201v-200h-201z" />
<glyph unicode="&#x130;" horiz-adv-x="583" d="M193 1536v197h196v-197h-196zM199 0v1430h186v-1430h-186z" />
<glyph unicode="&#x131;" horiz-adv-x="526" d="M170 0v1044h186v-1044h-186z" />
<glyph unicode="&#x132;" horiz-adv-x="1515" d="M199 0v1430h186v-1430h-186zM610 63v185h8q125 -92 254 -92t198 63.5t69 239.5v971h186v-959q0 -268 -120 -379.5t-288.5 -111.5t-306.5 83z" />
<glyph unicode="&#x133;" horiz-adv-x="1034" d="M164 1266v200h201v-200h-201zM170 0v1044h186v-1044h-186zM442 -311h17q49 -16 103 -16.5t85 22t31 98.5v1251h186v-1255q0 -127 -64.5 -204t-203.5 -77q-88 0 -154 27v154zM672 1266v200h200v-200h-200z" />
<glyph unicode="&#x134;" horiz-adv-x="954" d="M49 63v185h8q125 -92 254 -92t198 63.5t69 239.5v971h186v-959q0 -268 -120 -379.5t-289 -111.5t-306 83zM354 1569l232 252h168l231 -252h-162l-153 149l-154 -149h-162z" />
<glyph unicode="&#x135;" horiz-adv-x="526" d="M-66 -311h17q49 -16 103.5 -16.5t85 22t30.5 98.5v1251h186v-1255q0 -127 -64.5 -204t-203.5 -77q-88 0 -154 27v154zM-53 1184l231 252h168l232 -252h-162l-154 149l-153 -149h-162z" />
<glyph unicode="&#x136;" horiz-adv-x="1368" d="M199 0v1430h186v-732h6l690 732h244l-584 -603l637 -827h-227l-528 696h-11l-227 -235v-461h-186zM639 -109h195v-192q0 -195 -195 -279v113q96 51 96 166h-96v192z" />
<glyph unicode="&#x137;" horiz-adv-x="1116" d="M162 0v1495h186v-915h6l453 464h250l-424 -419l471 -625h-230l-368 494h-6l-152 -152v-342h-186zM496 -109h194v-192q0 -195 -194 -279v113q96 51 96 166h-96v192z" />
<glyph unicode="&#x138;" horiz-adv-x="1118" d="M162 0v1044h186v-464h6l453 464h250l-424 -419l471 -625h-230l-368 494h-6l-152 -152v-342h-186z" />
<glyph unicode="&#x139;" horiz-adv-x="1179" d="M199 0v1430h186v-1244h754v-186h-940zM213 1536l156 272h202l-231 -272h-127z" />
<glyph unicode="&#x13a;" horiz-adv-x="542" d="M170 1602l156 272h202l-231 -272h-127zM178 0v1495h187v-1495h-187z" />
<glyph unicode="&#x13b;" horiz-adv-x="1177" d="M199 0v1430h186v-1244h754v-186h-940zM571 -109h195v-192q0 -195 -195 -279v113q96 51 97 166h-97v192z" />
<glyph unicode="&#x13c;" horiz-adv-x="542" d="M174 -109h195v-192q0 -195 -195 -279v113q96 51 96 166h-96v192zM178 0v1495h187v-1495h-187z" />
<glyph unicode="&#x13d;" horiz-adv-x="1179" d="M199 0v1430h186v-1244h754v-186h-940zM631 958v113q96 51 96 166h-96v193h194v-193q0 -195 -194 -279z" />
<glyph unicode="&#x13e;" horiz-adv-x="577" d="M178 0v1495h187v-1495h-187zM514 1024v113q96 51 96 166h-96v192h195v-192q0 -195 -195 -279z" />
<glyph unicode="&#x13f;" horiz-adv-x="1179" d="M199 0v1430h186v-1244h754v-186h-940zM631 647v197h196v-197h-196z" />
<glyph unicode="&#x140;" horiz-adv-x="774" d="M178 0v1495h187v-1495h-187zM532 647v197h197v-197h-197z" />
<glyph unicode="&#x141;" horiz-adv-x="1212" d="M33 414v157l198 113v746h187v-639l381 217v-158l-381 -217v-447h731v-186h-918v526z" />
<glyph unicode="&#x142;" horiz-adv-x="626" d="M12 467v158l197 112v758h186v-653l219 127v-160l-219 -125v-684h-186v578z" />
<glyph unicode="&#x143;" horiz-adv-x="1644" d="M199 0v1430h229l825 -1176h7v1176h186v-1430h-229l-828 1178h-4v-1178h-186zM760 1536l155 272h203l-231 -272h-127z" />
<glyph unicode="&#x144;" horiz-adv-x="1247" d="M162 0v1044h164l22 -131v-30h4q166 182 377 182q170 0 268.5 -114.5t98.5 -286.5v-664h-187v643q0 250 -225 250q-178 0 -336 -197v-696h-186zM522 1184l156 272h203l-232 -272h-127z" />
<glyph unicode="&#x145;" horiz-adv-x="1644" d="M199 0v1430h229l825 -1176h7v1176h186v-1430h-229l-828 1178h-4v-1178h-186zM696 -109h195v-192q0 -195 -195 -279v113q96 51 97 166h-97v192z" />
<glyph unicode="&#x146;" horiz-adv-x="1249" d="M162 0v1044h164l22 -131v-30h4q166 182 377 182q170 0 268.5 -114.5t98.5 -286.5v-664h-187v643q0 250 -225 250q-178 0 -336 -197v-696h-186zM532 -109h195v-192q0 -195 -195 -279v113q96 51 97 166h-97v192z" />
<glyph unicode="&#x147;" horiz-adv-x="1644" d="M199 0v1430h229l825 -1176h7v1176h186v-1430h-229l-828 1178h-4v-1178h-186zM516 1788h162l153 -150l154 150h162l-232 -252h-167z" />
<glyph unicode="&#x148;" horiz-adv-x="1247" d="M162 0v1044h164l22 -131v-30h4q166 182 377 182q170 0 268.5 -114.5t98.5 -286.5v-664h-187v643q0 250 -225 250q-178 0 -336 -197v-696h-186zM334 1436h162l153 -150l154 150h162l-232 -252h-168z" />
<glyph unicode="&#x149;" horiz-adv-x="1247" d="M133 1133v112q96 51 96 166h-96v193h195v-193q0 -195 -195 -278zM162 0v1044h164l22 -131v-30h4q166 182 377 182q170 0 268.5 -114.5t98.5 -286.5v-664h-187v643q0 250 -225 250q-178 0 -336 -197v-696h-186z" />
<glyph unicode="&#x14a;" horiz-adv-x="1644" d="M199 0v1430h229l825 -1119h7v1119h186v-1641q0 -127 -64.5 -204t-203.5 -77q-88 0 -154 27v154h16q49 -16 103.5 -16.5t85.5 22t31 98.5v207l-871 1178h-4v-1178h-186z" />
<glyph unicode="&#x14b;" horiz-adv-x="1247" d="M162 0v1044h164l22 -131v-30h4q166 182 377 182q170 0 268.5 -114.5t98.5 -286.5v-875q0 -127 -64.5 -204t-204.5 -77q-88 0 -153 27v154h16q49 -16 103.5 -16.5t85 22t30.5 98.5v850q0 250 -225 250q-178 0 -336 -197v-696h-186z" />
<glyph unicode="&#x14c;" horiz-adv-x="1660" d="M113 715q6 326 200.5 530.5t518 204.5t518 -205t200.5 -530q-6 -326 -200.5 -530.5t-518 -204.5t-518 204.5t-200.5 530.5zM299 714.5q0 -243.5 142.5 -402t389 -158.5t390 158.5t143.5 402t-143.5 402.5t-390 159t-389 -159t-142.5 -402.5zM541 1573v123h581v-123h-581z " />
<glyph unicode="&#x14d;" horiz-adv-x="1245" d="M98 522.5q0 243.5 143.5 393t380 149.5t381 -149.5t144.5 -393t-144.5 -393t-381 -149.5t-380 149.5t-143.5 393zM285 523.5q0 -187.5 101 -280.5t236.5 -93t237 93t101.5 280.5t-101.5 279.5t-237 92t-236.5 -92t-101 -279.5zM332 1204v123h581v-123h-581z" />
<glyph unicode="&#x14e;" horiz-adv-x="1660" d="M113 715q6 326 200.5 530.5t518 204.5t518 -205t200.5 -530q-6 -326 -200.5 -530.5t-518 -204.5t-518 204.5t-200.5 530.5zM299 714.5q0 -243.5 142.5 -402t389 -158.5t390 158.5t143.5 402t-143.5 402.5t-390 159t-389 -159t-142.5 -402.5zM530 1769h132 q41 -119 169.5 -119t169.5 119h132q-20 -109 -101.5 -173t-200 -64t-199.5 64.5t-102 172.5z" />
<glyph unicode="&#x14f;" horiz-adv-x="1245" d="M98 522.5q0 243.5 143.5 393t380 149.5t381 -149.5t144.5 -393t-144.5 -393t-381 -149.5t-380 149.5t-143.5 393zM285 523.5q0 -187.5 101 -280.5t236.5 -93t237 93t101.5 280.5t-101.5 279.5t-237 92t-236.5 -92t-101 -279.5zM322 1417h131q41 -119 170 -119t170 119 h131q-20 -109 -101.5 -173t-200 -64t-199.5 64.5t-101 172.5z" />
<glyph unicode="&#x150;" horiz-adv-x="1660" d="M113 715q6 326 200.5 530.5t518 204.5t518 -205t200.5 -530q-6 -326 -200.5 -530.5t-518 -204.5t-518 204.5t-200.5 530.5zM299 714.5q0 -243.5 142.5 -402t389 -158.5t390 158.5t143.5 402t-143.5 402.5t-390 159t-389 -159t-142.5 -402.5zM586 1536l155 272h203 l-231 -272h-127zM903 1536l156 272h203l-234 -272h-125z" />
<glyph unicode="&#x151;" horiz-adv-x="1245" d="M98 522.5q0 243.5 143.5 393t380 149.5t381 -149.5t144.5 -393t-144.5 -393t-381 -149.5t-380 149.5t-143.5 393zM285 523.5q0 -187.5 101 -280.5t236.5 -93t237 93t101.5 280.5t-101.5 279.5t-237 92t-236.5 -92t-101 -279.5zM358 1184l156 272h203l-232 -272h-127z M676 1184l155 272h203l-233 -272h-125z" />
<glyph unicode="&#x152;" horiz-adv-x="2273" d="M113 715q6 326 200.5 530.5t517.5 204.5q186 0 334 -92v72h992v-175h-805v-452h731v-176h-731v-453h805v-174h-992v72q-147 -92 -334 -92q-324 0 -518 204.5t-200 530.5zM299 714.5q0 -243.5 142.5 -402t389.5 -158.5q199 -1 334 120v881q-135 121 -334 121 q-248 0 -390 -159t-142 -402.5z" />
<glyph unicode="&#x153;" horiz-adv-x="2021" d="M98 522.5q0 243.5 143.5 393t381.5 149.5q289 0 421 -217h5q121 217 395 217q240 0 364.5 -158t124.5 -385v-65h-794q16 -141 108 -222t275.5 -81t339.5 102h10v-180q-172 -96 -387 -96q-309 0 -436 215h-5q-133 -215 -421 -215q-238 0 -381.5 149.5t-143.5 393z M285 523.5q0 -187.5 101 -280.5t236.5 -93t237 93t101.5 280.5t-101.5 279.5t-237 92t-236.5 -92t-101 -279.5zM1139 608h610q-8 147 -100.5 223t-205 76t-204.5 -76t-100 -223z" />
<glyph unicode="&#x154;" horiz-adv-x="1458" d="M199 0v1430h569q279 0 418 -115t139 -301q0 -125 -67.5 -224.5t-196.5 -144.5v-4q242 -64 242 -465v-49q0 -66 34 -119v-8h-192q-29 47 -29 111v32q0 188 -39 258q-18 37 -49 78q-63 78 -219 78h-424v-557h-186zM385 733h371q176 0 279.5 69.5t103.5 194.5t-89 190.5 t-305 65.5h-360v-520zM629 1536l155 272h203l-231 -272h-127z" />
<glyph unicode="&#x155;" horiz-adv-x="792" d="M162 0v1044h164l22 -131v-30h4q147 182 385 182h17v-178h-17q-121 0 -225 -47t-164 -131v-709h-186zM344 1184l156 272h202l-231 -272h-127z" />
<glyph unicode="&#x156;" horiz-adv-x="1458" d="M199 0v1430h569q279 0 418 -115t139 -301q0 -125 -67.5 -224.5t-196.5 -144.5v-4q242 -64 242 -465v-49q0 -66 34 -119v-8h-192q-29 47 -29 111v32q0 188 -39 258q-18 37 -49 78q-63 78 -219 78h-424v-557h-186zM385 733h371q176 0 279.5 69.5t103.5 194.5t-89 190.5 t-305 65.5h-360v-520zM643 -109h195v-192q0 -195 -195 -279v113q96 51 96 166h-96v192z" />
<glyph unicode="&#x157;" horiz-adv-x="794" d="M158 -109h194v-192q0 -195 -194 -279v113q96 51 96 166h-96v192zM162 0v1044h164l22 -131v-30h4q147 182 385 182h17v-178h-17q-121 0 -225 -47t-164 -131v-709h-186z" />
<glyph unicode="&#x158;" horiz-adv-x="1458" d="M199 0v1430h569q279 0 418 -115t139 -301q0 -125 -67.5 -224.5t-196.5 -144.5v-4q242 -64 242 -465v-49q0 -66 34 -119v-8h-192q-29 47 -29 111v32q0 188 -39 258q-18 37 -49 78q-63 78 -219 78h-424v-557h-186zM385 733h371q176 0 279.5 69.5t103.5 194.5t-89 190.5 t-305 65.5h-360v-520zM426 1788h162l153 -150l154 150h162l-232 -252h-168z" />
<glyph unicode="&#x159;" horiz-adv-x="792" d="M143 1436h162l154 -150l153 150h162l-231 -252h-168zM162 0v1044h164l22 -131v-30h4q147 182 385 182h17v-178h-17q-121 0 -225 -47t-164 -131v-709h-186z" />
<glyph unicode="&#x15a;" horiz-adv-x="1261" d="M119 1030q0 178 140 299t379 121t431 -74v-174h-14q-193 78 -370 78t-279.5 -62.5t-102.5 -173.5q0 -82 64.5 -135t161 -74.5t210 -53t209.5 -68.5t161 -122t65 -212q0 -176 -144.5 -287.5t-402.5 -111.5t-492 110v182h10q213 -119 486 -118q358 0 358 237 q0 117 -174 172q-76 25 -168 47.5t-185 53t-170 72.5t-125 117t-48 177zM528 1536l156 272h203l-232 -272h-127z" />
<glyph unicode="&#x15b;" horiz-adv-x="983" d="M106 741q0 143 103.5 233.5t282 90.5t331.5 -57v-170h-14q-137 57 -268 57t-193.5 -40t-62.5 -100.5t63.5 -93t154.5 -52t181 -48.5t153.5 -98.5t63.5 -190t-103.5 -206.5t-307 -86t-371.5 92v178h10q166 -98 365 -98q227 0 227 145q0 47 -63.5 76.5t-153.5 50 t-180.5 49.5t-154 96.5t-63.5 171.5zM373 1184l155 272h203l-231 -272h-127z" />
<glyph unicode="&#x15c;" horiz-adv-x="1261" d="M119 1030q0 178 140 299t379 121t431 -74v-174h-14q-193 78 -370 78t-279.5 -62.5t-102.5 -173.5q0 -82 64.5 -135t161 -74.5t210 -53t209.5 -68.5t161 -122t65 -212q0 -176 -144.5 -287.5t-402.5 -111.5t-492 110v182h10q213 -119 486 -118q358 0 358 237 q0 117 -174 172q-76 25 -168 47.5t-185 53t-170 72.5t-125 117t-48 177zM326 1536l231 252h168l231 -252h-161l-154 150l-154 -150h-161z" />
<glyph unicode="&#x15d;" horiz-adv-x="983" d="M106 741q0 143 103.5 233.5t282 90.5t331.5 -57v-170h-14q-137 57 -268 57t-193.5 -40t-62.5 -100.5t63.5 -93t154.5 -52t181 -48.5t153.5 -98.5t63.5 -190t-103.5 -206.5t-307 -86t-371.5 92v178h10q166 -98 365 -98q227 0 227 145q0 47 -63.5 76.5t-153.5 50 t-180.5 49.5t-154 96.5t-63.5 171.5zM180 1184l232 252h168l231 -252h-162l-153 149l-154 -149h-162z" />
<glyph unicode="&#x15e;" horiz-adv-x="1263" d="M119 1030q0 178 140 299t379 121t431 -74v-174h-14q-193 78 -370 78t-279.5 -62.5t-102.5 -173.5q0 -82 64.5 -135t161 -74.5t210 -53t209.5 -68.5t161 -122t65 -212q0 -168 -135.5 -279.5t-358.5 -119.5l-62 -109q33 8 86.5 8t97.5 -40t44 -103q0 -188 -228 -189 q-106 0 -200 64l33 72q76 -47 141 -48q117 0 117 95q0 31 -20.5 47t-60.5 16t-87 -24l-60 32l111 179q-258 10 -457 110v182h10q213 -119 486 -118q358 0 358 237q0 117 -174 172q-76 25 -168 47.5t-185 53t-170 72.5t-125 117t-48 177z" />
<glyph unicode="&#x15f;" horiz-adv-x="987" d="M109 741q0 143 103 233.5t281.5 90.5t331.5 -57v-170h-14q-137 57 -268 57t-193.5 -40t-62.5 -100.5t63.5 -93t153.5 -52t181 -48.5t154.5 -98.5t63.5 -188t-98 -204.5t-281 -90l-61 -109q33 8 86 8t97 -40t44 -103q0 -188 -227 -189q-106 0 -201 64l33 72 q76 -47 141 -48q117 0 117 95q0 31 -20.5 47t-60.5 16t-87 -24l-59 32l112 181q-184 14 -317 90v178h10q166 -98 365 -98q227 0 227 145q0 47 -63.5 76.5t-153.5 50t-180 49.5t-153.5 96.5t-63.5 171.5z" />
<glyph unicode="&#x160;" horiz-adv-x="1261" d="M119 1030q0 178 140 299t379 121t431 -74v-174h-14q-193 78 -370 78t-279.5 -62.5t-102.5 -173.5q0 -82 64.5 -135t161 -74.5t210 -53t209.5 -68.5t161 -122t65 -212q0 -176 -144.5 -287.5t-402.5 -111.5t-492 110v182h10q213 -119 486 -118q358 0 358 237 q0 117 -174 172q-76 25 -168 47.5t-185 53t-170 72.5t-125 117t-48 177zM330 1788h162l153 -150l154 150h162l-232 -252h-168z" />
<glyph unicode="&#x161;" horiz-adv-x="983" d="M106 741q0 143 103.5 233.5t282 90.5t331.5 -57v-170h-14q-137 57 -268 57t-193.5 -40t-62.5 -100.5t63.5 -93t154.5 -52t181 -48.5t153.5 -98.5t63.5 -190t-103.5 -206.5t-307 -86t-371.5 92v178h10q166 -98 365 -98q227 0 227 145q0 47 -63.5 76.5t-153.5 50 t-180.5 49.5t-154 96.5t-63.5 171.5zM188 1436h162l154 -150l153 150h162l-231 -252h-168z" />
<glyph unicode="&#x162;" horiz-adv-x="1247" d="M37 1255v175h1173v-175h-493v-1255h-187v1255h-493zM526 -109h195v-192q0 -195 -195 -279v113q96 51 97 166h-97v192z" />
<glyph unicode="&#x163;" horiz-adv-x="784" d="M33 885v12l381 373v-226h297v-159h-297v-619q0 -86 49 -106q37 -16 98.5 -16.5t134.5 32.5h15v-151q-86 -45 -185 -45q-299 0 -299 270v635h-194zM293 -109h194v-192q0 -195 -194 -279v113q96 51 96 166h-96v192z" />
<glyph unicode="&#x164;" horiz-adv-x="1251" d="M39 1255v175h1173v-175h-493v-1255h-187v1255h-493zM309 1788h162l154 -150l153 150h162l-231 -252h-168z" />
<glyph unicode="&#x165;" horiz-adv-x="786" d="M35 885v12l381 373v-226h297v-159h-297v-619q0 -86 47 -106q39 -16 100.5 -16.5t134.5 32.5h15v-151q-86 -45 -185 -45q-299 0 -299 270v635h-194zM563 1128v113q96 51 96 166h-96v192h195v-192q0 -195 -195 -279z" />
<glyph unicode="&#x166;" horiz-adv-x="1255" d="M41 1255v175h1173v-175h-493v-430h330v-137h-330v-688h-186v688h-328v137h328v430h-494z" />
<glyph unicode="&#x167;" horiz-adv-x="792" d="M39 885v12l381 373v-226h297v-159h-297v-223h266v-138h-266v-258q0 -86 47 -106q39 -16 100.5 -16.5t134.5 32.5h15v-151q-86 -45 -185 -45q-299 0 -299 270v274h-161v138h161v223h-194z" />
<glyph unicode="&#x168;" horiz-adv-x="1552" d="M188 537v893h187v-900q0 -180 118.5 -280t282.5 -100t283 100t119 280v900h186v-893q0 -139 -52 -249t-139.5 -175.5t-188.5 -99t-207.5 -33.5t-208 33.5t-188.5 99t-139.5 175t-52.5 249.5zM449 1536q8 111 56 169t113.5 58t166 -48t155.5 -48q70 0 86 84h92 q-8 -111 -56 -168t-114.5 -57t-168 49t-152.5 49q-68 0 -88 -88h-90z" />
<glyph unicode="&#x169;" horiz-adv-x="1249" d="M154 381v663h186v-643q0 -250 225 -249q178 0 336 196v696h186v-1044h-163l-23 131v31h-4q-166 -182 -377 -182q-170 0 -268 114.5t-98 286.5zM299 1184q8 111 55 169t115 58t168 -48t154 -48q70 0 86 84h92q-8 -111 -56.5 -168t-115 -57t-168 49t-152.5 49 q-68 0 -88 -88h-90z" />
<glyph unicode="&#x16a;" horiz-adv-x="1552" d="M188 537v893h187v-900q0 -180 118.5 -280t282.5 -100t283 100t119 280v900h186v-893q0 -139 -52 -249t-139.5 -175.5t-188.5 -99t-207.5 -33.5t-208 33.5t-188.5 99t-139.5 175t-52.5 249.5zM485 1573v123h582v-123h-582z" />
<glyph unicode="&#x16b;" horiz-adv-x="1249" d="M154 381v663h186v-643q0 -250 225 -249q178 0 336 196v696h186v-1044h-163l-23 131v31h-4q-166 -182 -377 -182q-170 0 -268 114.5t-98 286.5zM330 1204v123h581v-123h-581z" />
<glyph unicode="&#x16c;" horiz-adv-x="1552" d="M188 537v893h187v-900q0 -180 118.5 -280t282.5 -100t283 100t119 280v900h186v-893q0 -139 -52 -249t-139.5 -175.5t-188.5 -99t-207.5 -33.5t-208 33.5t-188.5 99t-139.5 175t-52.5 249.5zM475 1769h131q41 -119 170 -119t170 119h131q-20 -109 -101 -173t-200 -64 t-199.5 64.5t-101.5 172.5z" />
<glyph unicode="&#x16d;" horiz-adv-x="1249" d="M154 381v663h186v-643q0 -250 225 -249q178 0 336 196v696h186v-1044h-163l-23 131v31h-4q-166 -182 -377 -182q-170 0 -268 114.5t-98 286.5zM319 1417h132q41 -119 170 -119t170 119h131q-20 -109 -101.5 -173t-200 -64t-199.5 64.5t-102 172.5z" />
<glyph unicode="&#x16e;" horiz-adv-x="1552" d="M188 537v893h187v-900q0 -180 118.5 -280t282.5 -100t283 100t119 280v900h186v-893q0 -139 -52 -249t-139.5 -175.5t-188.5 -99t-207.5 -33.5t-208 33.5t-188.5 99t-139.5 175t-52.5 249.5zM584 1687.5q0 79.5 56 136t136 56.5t136.5 -56.5t56.5 -136t-56.5 -136 t-136.5 -56.5t-136 56.5t-56 136zM676 1688q0 -41 29.5 -71t70.5 -30t71 30t30 71t-30 70.5t-71 29.5t-70.5 -29.5t-29.5 -70.5z" />
<glyph unicode="&#x16f;" horiz-adv-x="1249" d="M154 381v663h186v-643q0 -250 225 -249q178 0 336 196v696h186v-1044h-163l-23 131v31h-4q-166 -182 -377 -182q-170 0 -268 114.5t-98 286.5zM428 1321q0 80 56.5 136t136 56t136 -56t56.5 -136t-56.5 -136.5t-136 -56.5t-136 56.5t-56.5 136.5zM520 1321 q0 -41 30 -70.5t71 -29.5t70.5 29.5t29.5 70.5t-29.5 70.5t-70.5 29.5t-71 -29.5t-30 -70.5z" />
<glyph unicode="&#x170;" horiz-adv-x="1552" d="M188 537v893h187v-900q0 -180 118.5 -280t282.5 -100t283 100t119 280v900h186v-893q0 -139 -52 -249t-139.5 -175.5t-188.5 -99t-207.5 -33.5t-208 33.5t-188.5 99t-139.5 175t-52.5 249.5zM518 1536l156 272h203l-232 -272h-127zM836 1536l155 272h203l-233 -272h-125z " />
<glyph unicode="&#x171;" horiz-adv-x="1249" d="M154 381v663h186v-643q0 -250 225 -249q178 0 336 196v696h186v-1044h-163l-23 131v31h-4q-166 -182 -377 -182q-170 0 -268 114.5t-98 286.5zM360 1184l156 272h203l-232 -272h-127zM678 1184l156 272h202l-233 -272h-125z" />
<glyph unicode="&#x172;" horiz-adv-x="1552" d="M188 537v893h187v-900q0 -180 118.5 -280t282.5 -100t283 100t119 280v900h186v-893q0 -170 -76 -292t-203 -190q-74 -35 -139 -110.5t-63 -147.5q0 -98 104 -98q59 0 123 37v-96q-82 -55 -173 -55.5t-147.5 46.5t-56.5 124t41 137.5t109 95.5q-47 -8 -130 -8 t-184.5 33.5t-188.5 99t-139.5 175t-52.5 249.5z" />
<glyph unicode="&#x173;" horiz-adv-x="1249" d="M154 381v663h186v-643q0 -250 225 -249q178 0 336 196v696h186v-1044q-233 -86 -229 -205q0 -96 105 -96q57 0 122 37v-96q-82 -55 -173 -55.5t-147 46.5t-56 125q0 154 219 244h-4l-23 131v31h-4q-164 -182 -377 -182q-170 0 -268 114.5t-98 286.5z" />
<glyph unicode="&#x174;" horiz-adv-x="2062" d="M25 1430h194l361 -1180h6l364 1180h162l365 -1180h6l360 1180h195l-467 -1430h-187l-348 1110h-10l-348 -1110h-186zM715 1536l231 252h168l232 -252h-162l-154 150l-153 -150h-162z" />
<glyph unicode="&#x175;" horiz-adv-x="1607" d="M23 1044h196l248 -819h6l254 819h154l254 -819h6l248 819h196l-358 -1044h-183l-237 748h-6l-238 -748h-182zM487 1184l232 252h168l231 -252h-162l-153 149l-154 -149h-162z" />
<glyph unicode="&#x176;" horiz-adv-x="1320" d="M-14 1430h227l442 -654h11l442 654h227l-581 -826v-604h-187v604zM344 1536l231 252h168l232 -252h-162l-154 150l-153 -150h-162z" />
<glyph unicode="&#x177;" horiz-adv-x="1091" d="M10 1044h201l328 -825h8l336 825h200l-628 -1515h-189l176 455zM238 1184l231 252h168l231 -252h-161l-154 149l-154 -149h-161z" />
<glyph unicode="&#x178;" horiz-adv-x="1320" d="M-14 1430h227l442 -654h11l442 654h227l-581 -826v-604h-187v604zM391 1536v197h197v-197h-197zM735 1536v197h197v-197h-197z" />
<glyph unicode="&#x179;" d="M96 0v164l873 1079v8h-856v179h1089v-168l-872 -1082v-6h872v-174h-1106zM528 1536l156 272h203l-232 -272h-127z" />
<glyph unicode="&#x17a;" horiz-adv-x="1021" d="M94 0v172l600 690v8h-581v174h805v-174l-592 -690v-6h592v-174h-824zM393 1184l156 272h203l-232 -272h-127z" />
<glyph unicode="&#x17b;" d="M96 0v164l873 1079v8h-856v179h1089v-168l-872 -1082v-6h872v-174h-1106zM571 1536v197h197v-197h-197z" />
<glyph unicode="&#x17c;" horiz-adv-x="1021" d="M94 0v172l600 690v8h-581v174h805v-174l-592 -690v-6h592v-174h-824zM416 1184v196h196v-196h-196z" />
<glyph unicode="&#x17d;" d="M96 0v164l873 1079v8h-856v179h1089v-168l-872 -1082v-6h872v-174h-1106zM340 1788h162l153 -150l154 150h162l-232 -252h-168z" />
<glyph unicode="&#x17e;" horiz-adv-x="1021" d="M94 0v172l600 690v8h-581v174h805v-174l-592 -690v-6h592v-174h-824zM197 1436h161l154 -150l154 150h161l-231 -252h-168z" />
<glyph unicode="&#x17f;" horiz-adv-x="587" d="M49 885v159h191v119q0 178 91 265.5t206.5 87.5t207.5 -52v-153h-14q-76 27 -148.5 26.5t-114.5 -39t-42 -141.5v-1157h-186v885h-191z" />
<glyph unicode="&#x192;" horiz-adv-x="825" d="M-90 -319l24 169h56q84 0 131 39t61 142l101 717h-222l17 126h223l43 310q16 121 76.5 201.5t131.5 111.5t171 31t170 -43l-23 -154h-14q-63 27 -140 27t-124 -39t-62 -141l-43 -304h304l-19 -126h-301l-102 -723q-16 -121 -78 -201q-104 -143 -279 -143h-102z" />
<glyph unicode="&#x1a0;" horiz-adv-x="1798" d="M113 715q6 326 200.5 530.5t517.5 204.5q268 0 450.5 -144.5t242.5 -387.5q82 25 113.5 92t31.5 204h-115v226h222v-217q0 -172 -57.5 -267.5t-178.5 -128.5q6 -37 10 -112q-6 -326 -200.5 -530.5t-518 -204.5t-518 204.5t-200.5 530.5zM299 714.5q0 -243.5 142.5 -402 t389 -158.5t390 158.5t143.5 402t-143.5 402.5t-390 159t-389 -159t-142.5 -402.5z" />
<glyph unicode="&#x1a1;" horiz-adv-x="1409" d="M98 522.5q0 243.5 143.5 393t374 149.5t372.5 -136t157 -362q80 12 109.5 68.5t29.5 189.5h-115v226h222v-217q0 -174 -59.5 -256t-186.5 -97q-12 -227 -154.5 -364t-374 -137t-375 149.5t-143.5 393zM285 523.5q0 -187.5 101 -280.5t236.5 -93t237 93t101.5 280.5 t-101.5 279.5t-237 92t-236.5 -92t-101 -279.5z" />
<glyph unicode="&#x1af;" horiz-adv-x="1726" d="M188 537v893h187v-900q0 -180 118.5 -280t282.5 -100t283 100t119 280v900h186v-525q150 4 203 66.5t53 232.5h-115v226h221v-218q0 -209 -86 -300t-276 -97v-278q0 -139 -52 -249t-139.5 -175.5t-188.5 -99t-207.5 -33.5t-208 33.5t-188.5 99t-139.5 175t-52.5 249.5z " />
<glyph unicode="&#x1b0;" horiz-adv-x="1439" d="M154 381v663h186v-643q0 -250 225 -249q178 0 336 196v696h186v-524q139 8 188.5 70.5t49.5 228.5h-115v225h222v-217q0 -205 -82 -295t-263 -100v-432h-163l-23 131v31h-4q-164 -182 -377 -182q-170 0 -268 114.5t-98 286.5z" />
<glyph unicode="&#x1fc;" horiz-adv-x="2129" d="M-68 0l942 1430h1139v-175h-805v-452h731v-174h-731v-455h805v-174h-991v367h-631l-237 -367h-222zM506 537h516v718h-51l-465 -712v-6zM969 1536l155 272h203l-231 -272h-127z" />
<glyph unicode="&#x1fd;" horiz-adv-x="1851" d="M76 291.5q0 144.5 119.5 232.5t351.5 88h248v23q0 135 -66.5 194.5t-230.5 59.5t-312 -72h-8v170q178 78 375 78q246 0 350 -172q129 172 369.5 172t365.5 -158t125 -385v-59h-794q35 -309 362 -309q207 0 365 104h6v-182q-172 -96 -387 -96q-279 0 -416 178 q-117 -178 -422 -178q-170 0 -285.5 83.5t-115.5 228zM262 307q0 -70 66.5 -117t184.5 -47t200 45t82 158v117h-224q-309 0 -309 -156zM797 1184l155 272h203l-231 -272h-127zM969 612h610q-8 147 -100.5 221t-205 74t-204.5 -74t-100 -221z" />
<glyph unicode="&#x1fe;" horiz-adv-x="1660" d="M113 715q6 326 200.5 530.5t517.5 204.5q219 0 386 -98l98 141l84 -59l-99 -142q244 -205 250 -577q-6 -326 -200.5 -530.5t-518.5 -204.5q-213 0 -382 98l-99 -139l-84 59l99 139q-242 201 -252 578zM299 701q0 -257 170 -414l645 919q-121 70 -283 70 q-247 0 -389.5 -159t-142.5 -416zM551 225q122 -71 280 -71q246 0 389.5 158.5t143.5 416.5t-168 416zM715 1536l155 272h203l-231 -272h-127z" />
<glyph unicode="&#x1ff;" horiz-adv-x="1245" d="M98 511q0 255 143.5 404.5t381.5 149.5q156 0 270 -66l76 109l84 -59l-76 -109q170 -154 170 -407.5t-144.5 -403t-379.5 -149.5q-154 0 -273 67l-76 -108l-84 59l76 108q-168 150 -168 405zM285 533.5q0 -177.5 88 -275.5l418 596q-76 41 -168 41q-136 0 -237 -92 t-101 -269.5zM453 193q80 -43 170 -43q135 0 236.5 93t101.5 270t-91 278zM510 1184l156 272h202l-231 -272h-127z" />
<glyph unicode="&#x218;" horiz-adv-x="1263" d="M119 1030q0 178 140 299t379 121t431 -74v-174h-14q-193 78 -370 78t-279.5 -62.5t-102.5 -173.5q0 -82 64.5 -135t161 -74.5t210 -53t209.5 -68.5t161 -122t65 -212q0 -176 -144.5 -287.5t-402.5 -111.5t-492 110v182h10q213 -119 486 -118q358 0 358 237 q0 117 -174 172q-76 25 -168 47.5t-185 53t-170 72.5t-125 117t-48 177zM547 -109h194v-192q0 -195 -194 -279v113q96 51 96 166h-96v192z" />
<glyph unicode="&#x219;" horiz-adv-x="983" d="M106 741q0 143 103.5 233.5t282 90.5t331.5 -57v-170h-14q-137 57 -268 57t-193.5 -40t-62.5 -100.5t63.5 -93t154.5 -52t181 -48.5t153.5 -98.5t63.5 -190t-103.5 -206.5t-307 -86t-371.5 92v178h10q166 -98 365 -98q227 0 227 145q0 47 -63.5 76.5t-153.5 50 t-180.5 49.5t-154 96.5t-63.5 171.5zM406 -109h194v-192q0 -195 -194 -279v113q96 51 96 166h-96v192z" />
<glyph unicode="&#x21a;" horiz-adv-x="1247" d="M37 1255v175h1173v-175h-493v-1255h-187v1255h-493zM526 -109h195v-192q0 -195 -195 -279v113q96 51 97 166h-97v192z" />
<glyph unicode="&#x21b;" horiz-adv-x="784" d="M33 885v12l381 373v-226h297v-159h-297v-619q0 -86 49 -106q37 -16 98.5 -16.5t134.5 32.5h15v-151q-86 -45 -185 -45q-299 0 -299 270v635h-194zM293 -109h194v-192q0 -195 -194 -279v113q96 51 96 166h-96v192z" />
<glyph unicode="&#x2c6;" horiz-adv-x="837" d="M100 1184l232 252h168l231 -252h-162l-153 149l-154 -149h-162z" />
<glyph unicode="&#x2c7;" horiz-adv-x="800" d="M100 1436h162l154 -150l153 150h162l-231 -252h-168z" />
<glyph unicode="&#x2d8;" horiz-adv-x="788" d="M92 1417h131q41 -119 170 -119t170 119h131q-20 -109 -101 -173t-200 -64t-199.5 64.5t-101.5 172.5z" />
<glyph unicode="&#x2d9;" horiz-adv-x="466" d="M135 1184v196h197v-196h-197z" />
<glyph unicode="&#x2da;" horiz-adv-x="552" d="M88 1321q0 80 56.5 136t136 56t136 -56t56.5 -136t-56.5 -136.5t-136 -56.5t-136 56.5t-56.5 136.5zM180 1321q0 -41 30 -70.5t71 -29.5t70.5 29.5t29.5 70.5t-29.5 70.5t-70.5 29.5t-71 -29.5t-30 -70.5z" />
<glyph unicode="&#x2db;" horiz-adv-x="718" d="M141 -244q0 154 219 244h160q-233 -86 -229 -205q0 -96 104 -96q57 0 123 37v-96q-82 -55 -173 -55.5t-147.5 46.5t-56.5 125z" />
<glyph unicode="&#x2dc;" horiz-adv-x="884" d="M109 1184q8 111 56 169t113.5 58t166 -48t155.5 -48q70 0 86 84h92q-8 -111 -56 -168t-114.5 -57t-168 49t-152.5 49q-68 0 -88 -88h-90z" />
<glyph unicode="&#x2dd;" horiz-adv-x="817" d="M72 1184l155 272h203l-231 -272h-127zM389 1184l156 272h203l-234 -272h-125z" />
<glyph unicode="&#x3a9;" horiz-adv-x="1617" d="M121 0v160h274v2q-254 209 -254 594q0 170 78 326.5t234.5 262t355.5 105.5t355.5 -105.5t234.5 -262t78 -326.5q0 -381 -254 -594v-2h274v-160h-539v154q111 47 218 161q59 66 96 174.5t37 243.5q0 219 -136.5 375t-363.5 156t-363.5 -156t-136.5 -375q0 -135 37 -243.5 t96 -174.5q106 -115 217 -161v-154h-538z" />
<glyph unicode="&#x3c0;" horiz-adv-x="1298" d="M57 831v156q95 57 242 57h952v-161h-194v-883h-176v883h-361q-14 -498 -141 -883h-191q137 354 156 883h-45q-135 0 -242 -52z" />
<glyph unicode="&#x1ea0;" horiz-adv-x="1423" d="M8 0l606 1430h195l606 -1430h-203l-153 367h-694l-154 -367h-203zM438 537h547v10l-270 653h-4l-273 -653v-10zM614 -123h197v-196h-197v196z" />
<glyph unicode="&#x1ea1;" horiz-adv-x="1136" d="M78 292.5q0 145.5 119.5 235.5t351.5 90h248v17q0 135 -66.5 194.5t-230.5 59.5t-307 -70h-13v168q178 78 382 78t312.5 -119t108.5 -284v-662h-164l-22 131h-6q-147 -152 -379 -151q-139 0 -236.5 83.5t-97.5 229zM264 306q0 -163 217 -163q90 0 174.5 44t141.5 110v172 h-224q-309 0 -309 -163zM453 -141h196v-197h-196v197z" />
<glyph unicode="&#x1ea2;" horiz-adv-x="1427" d="M10 0l606 1430h195l606 -1430h-203l-153 367h-694l-154 -367h-203zM440 537h547v10l-270 653h-4l-273 -653v-10zM598 1788v94q35 6 84 6q236 0 236 -162q0 -117 -154 -147v-37h-111v92q43 2 90.5 21.5t47.5 60.5q0 74 -140 74q-35 0 -53 -2z" />
<glyph unicode="&#x1ea3;" horiz-adv-x="1136" d="M78 292.5q0 145.5 119.5 235.5t351.5 90h248v17q0 135 -66.5 194.5t-230.5 59.5t-307 -70h-13v168q178 78 382 78t312.5 -119t108.5 -284v-662h-164l-22 131h-6q-147 -152 -379 -151q-139 0 -236.5 83.5t-97.5 229zM264 306q0 -163 217 -163q90 0 174.5 44t141.5 110v172 h-224q-309 0 -309 -163zM424 1430v94q35 6 84 6q236 0 235 -162q0 -117 -153 -147v-37h-111v92q43 2 90 21.5t47 60.5q0 74 -139 74q-35 0 -53 -2z" />
<glyph unicode="&#x1ea4;" horiz-adv-x="1427" d="M10 0l606 1430h195l606 -1430h-203l-153 367h-694l-154 -367h-203zM399 1503l232 252h168l231 -252h-162l-153 150l-154 -150h-162zM440 537h547v10l-270 653h-4l-273 -653v-10zM926 1686l155 272h203l-231 -272h-127z" />
<glyph unicode="&#x1ea5;" horiz-adv-x="1136" d="M78 292.5q0 145.5 119.5 235.5t351.5 90h248v17q0 135 -66.5 194.5t-230.5 59.5t-307 -70h-13v168q178 78 382 78t312.5 -119t108.5 -284v-662h-164l-22 131h-6q-147 -152 -379 -151q-139 0 -236.5 83.5t-97.5 229zM244 1184l231 252h168l231 -252h-161l-154 149 l-153 -149h-162zM264 306q0 -163 217 -163q90 0 174.5 44t141.5 110v172h-224q-309 0 -309 -163zM770 1366l156 272h202l-231 -272h-127z" />
<glyph unicode="&#x1ea6;" horiz-adv-x="1427" d="M10 0l606 1430h195l606 -1430h-203l-153 367h-694l-154 -367h-203zM145 1958h203l156 -272h-127zM399 1503l232 252h168l231 -252h-162l-153 150l-154 -150h-162zM440 537h547v10l-270 653h-4l-273 -653v-10z" />
<glyph unicode="&#x1ea7;" horiz-adv-x="1136" d="M-4 1638h203l155 -272h-127zM78 292.5q0 145.5 119.5 235.5t351.5 90h248v17q0 135 -66.5 194.5t-230.5 59.5t-307 -70h-13v168q178 78 382 78t312.5 -119t108.5 -284v-662h-164l-22 131h-6q-147 -152 -379 -151q-139 0 -236.5 83.5t-97.5 229zM250 1184l231 252h168 l232 -252h-162l-154 149l-153 -149h-162zM264 306q0 -163 217 -163q90 0 174.5 44t141.5 110v172h-224q-309 0 -309 -163z" />
<glyph unicode="&#x1ea8;" horiz-adv-x="1427" d="M10 0l606 1430h195l606 -1430h-203l-153 367h-694l-154 -367h-203zM399 1503l232 252h168l231 -252h-162l-153 150l-154 -150h-162zM440 537h547v10l-270 653h-4l-273 -653v-10zM948 1862v94q35 6 84 6q236 0 236 -162q0 -117 -154 -147v-37h-110v92q43 2 90 21.5 t47 60.5q0 74 -140 74q-35 0 -53 -2z" />
<glyph unicode="&#x1ea9;" horiz-adv-x="1136" d="M78 292.5q0 145.5 119.5 235.5t351.5 90h248v17q0 135 -66.5 194.5t-230.5 59.5t-307 -70h-13v168q178 78 382 78t312.5 -119t108.5 -284v-662h-164l-22 131h-6q-147 -152 -379 -151q-139 0 -236.5 83.5t-97.5 229zM244 1184l231 252h168l231 -252h-161l-154 149 l-153 -149h-162zM264 306q0 -163 217 -163q90 0 174.5 44t141.5 110v172h-224q-309 0 -309 -163zM793 1542v94q35 6 84 6q236 0 235 -161q0 -117 -154 -148v-37h-110v93q43 2 90 21.5t47 59.5q0 74 -139 74q-35 0 -53 -2z" />
<glyph unicode="&#x1eaa;" horiz-adv-x="1427" d="M10 0l606 1430h195l606 -1430h-203l-153 367h-694l-154 -367h-203zM383 1798q8 111 56 169t113.5 58t166 -48t155.5 -48q71 0 87 84h92q-8 -111 -56.5 -168t-115 -57t-168 49t-152.5 49q-68 0 -88 -88h-90zM399 1493l232 252h168l231 -252h-162l-153 149l-154 -149h-162z M440 537h547v10l-270 653h-4l-273 -653v-10z" />
<glyph unicode="&#x1eab;" horiz-adv-x="1136" d="M78 292.5q0 145.5 119.5 235.5t351.5 90h248v17q0 135 -66.5 194.5t-230.5 59.5t-307 -70h-13v168q178 78 382 78t312.5 -119t108.5 -284v-662h-164l-22 131h-6q-147 -152 -379 -151q-139 0 -236.5 83.5t-97.5 229zM229 1479q8 111 55.5 169t115 58t168 -48t153.5 -48 q70 0 86 84h92q-8 -111 -56 -168.5t-114.5 -57.5t-168 49.5t-152.5 49.5q-68 0 -89 -88h-90zM246 1174l231 251h168l232 -251h-162l-154 149l-153 -149h-162zM264 306q0 -163 217 -163q90 0 174.5 44t141.5 110v172h-224q-309 0 -309 -163z" />
<glyph unicode="&#x1eac;" horiz-adv-x="1423" d="M8 0l606 1430h195l606 -1430h-203l-153 367h-694l-154 -367h-203zM397 1532l232 252h168l231 -252h-162l-153 149l-154 -149h-162zM438 537h547v10l-270 653h-4l-273 -653v-10zM614 -123h197v-196h-197v196z" />
<glyph unicode="&#x1ead;" horiz-adv-x="1136" d="M78 292.5q0 145.5 119.5 235.5t351.5 90h248v17q0 135 -66.5 194.5t-230.5 59.5t-307 -70h-13v168q178 78 382 78t312.5 -119t108.5 -284v-662h-164l-22 131h-6q-147 -152 -379 -151q-139 0 -236.5 83.5t-97.5 229zM244 1184l231 252h168l231 -252h-161l-154 149 l-153 -149h-162zM264 306q0 -163 217 -163q90 0 174.5 44t141.5 110v172h-224q-309 0 -309 -163zM453 -141h196v-197h-196v197z" />
<glyph unicode="&#x1eae;" horiz-adv-x="1427" d="M10 0l606 1430h195l606 -1430h-203l-153 367h-694l-154 -367h-203zM414 1743h131q41 -119 170 -119t170 119h131q-20 -109 -101 -173.5t-200 -64.5t-200 64.5t-101 173.5zM440 537h547v10l-270 653h-4l-273 -653v-10zM625 1745l155 272h203l-231 -272h-127z" />
<glyph unicode="&#x1eaf;" horiz-adv-x="1136" d="M78 292.5q0 145.5 119.5 235.5t351.5 90h248v17q0 135 -66.5 194.5t-230.5 59.5t-307 -70h-13v168q178 78 382 78t312.5 -119t108.5 -284v-662h-164l-22 131h-6q-147 -152 -379 -151q-139 0 -236.5 83.5t-97.5 229zM250 1417h131q41 -119 170 -119t170 119h131 q-20 -109 -101 -173t-200 -64t-200 64.5t-101 172.5zM264 306q0 -163 217 -163q90 0 174.5 44t141.5 110v172h-224q-309 0 -309 -163zM461 1419l155 273h203l-231 -273h-127z" />
<glyph unicode="&#x1eb0;" horiz-adv-x="1427" d="M10 0l606 1430h195l606 -1430h-203l-153 367h-694l-154 -367h-203zM414 1743h131q41 -119 170 -119t170 119h131q-20 -109 -101 -173.5t-200 -64.5t-200 64.5t-101 173.5zM440 537h547v10l-270 653h-4l-273 -653v-10zM446 2017h203l156 -272h-127z" />
<glyph unicode="&#x1eb1;" horiz-adv-x="1136" d="M78 292.5q0 145.5 119.5 235.5t351.5 90h248v17q0 135 -66.5 194.5t-230.5 59.5t-307 -70h-13v168q178 78 382 78t312.5 -119t108.5 -284v-662h-164l-22 131h-6q-147 -152 -379 -151q-139 0 -236.5 83.5t-97.5 229zM250 1417h131q41 -119 170 -119t170 119h131 q-20 -109 -101 -173t-200 -64t-200 64.5t-101 172.5zM264 306q0 -163 217 -163q90 0 174.5 44t141.5 110v172h-224q-309 0 -309 -163zM283 1692h202l156 -273h-127z" />
<glyph unicode="&#x1eb2;" horiz-adv-x="1427" d="M10 0l606 1430h195l606 -1430h-203l-153 367h-694l-154 -367h-203zM414 1743h131q41 -119 170 -119t170 119h131q-20 -109 -101 -173.5t-200 -64.5t-200 64.5t-101 173.5zM440 537h547v10l-270 653h-4l-273 -653v-10zM592 1978v95q35 6 84 6q236 0 235 -162 q0 -117 -153 -148v-36h-111v92q43 2 90 21.5t47 60.5q0 74 -139 73q-35 0 -53 -2z" />
<glyph unicode="&#x1eb3;" horiz-adv-x="1136" d="M78 292.5q0 145.5 119.5 235.5t351.5 90h248v17q0 135 -66.5 194.5t-230.5 59.5t-307 -70h-13v168q178 78 382 78t312.5 -119t108.5 -284v-662h-164l-22 131h-6q-147 -152 -379 -151q-139 0 -236.5 83.5t-97.5 229zM250 1417h131q41 -119 170 -119t170 119h131 q-20 -109 -101 -173t-200 -64t-200 64.5t-101 172.5zM264 306q0 -163 217 -163q90 0 174.5 44t141.5 110v172h-224q-309 0 -309 -163zM428 1653v94q35 6 84 6q236 0 236 -162q0 -117 -154 -147v-37h-111v92q43 2 90.5 21.5t47.5 60.5q0 74 -140 74q-35 0 -53 -2z" />
<glyph unicode="&#x1eb4;" horiz-adv-x="1427" d="M10 0l606 1430h195l606 -1430h-203l-153 367h-694l-154 -367h-203zM383 1798q8 111 56 169t113.5 58t166 -48t155.5 -48q71 0 87 84h92q-8 -111 -56.5 -168t-115 -57t-168 49t-152.5 49q-68 0 -88 -88h-90zM414 1739h131q41 -119 170 -119t170 119h131 q-20 -109 -101 -173.5t-200 -64.5t-200 64.5t-101 173.5zM440 537h547v10l-270 653h-4l-273 -653v-10z" />
<glyph unicode="&#x1eb5;" horiz-adv-x="1136" d="M78 292.5q0 145.5 119.5 235.5t351.5 90h248v17q0 135 -66.5 194.5t-230.5 59.5t-307 -70h-13v168q178 78 382 78t312.5 -119t108.5 -284v-662h-164l-22 131h-6q-147 -152 -379 -151q-139 0 -236.5 83.5t-97.5 229zM219 1477q8 111 56.5 169t114 58t165.5 -48t156 -48 q70 0 86 84h92q-8 -111 -56.5 -168.5t-115 -57.5t-167.5 49.5t-153 49.5q-68 0 -88 -88h-90zM250 1417h131q41 -119 170 -119t170 119h131q-20 -109 -101 -173t-200 -64t-200 64.5t-101 172.5zM264 306q0 -163 217 -163q90 0 174.5 44t141.5 110v172h-224q-309 0 -309 -163z " />
<glyph unicode="&#x1eb6;" horiz-adv-x="1423" d="M8 0l606 1430h195l606 -1430h-203l-153 367h-694l-154 -367h-203zM412 1759h131q41 -119 170 -119t170 119h131q-20 -109 -101.5 -173t-200 -64t-199.5 64.5t-101 172.5zM438 537h547v10l-270 653h-4l-273 -653v-10zM614 -123h197v-196h-197v196z" />
<glyph unicode="&#x1eb7;" horiz-adv-x="1136" d="M78 292.5q0 145.5 119.5 235.5t351.5 90h248v17q0 135 -66.5 194.5t-230.5 59.5t-307 -70h-13v168q178 78 382 78t312.5 -119t108.5 -284v-662h-164l-22 131h-6q-147 -152 -379 -151q-139 0 -236.5 83.5t-97.5 229zM254 1407h131q41 -119 170 -119t170 119h131 q-20 -109 -101 -173.5t-200 -64.5t-200 64.5t-101 173.5zM264 306q0 -163 217 -163q90 0 174.5 44t141.5 110v172h-224q-309 0 -309 -163zM453 -141h196v-197h-196v197z" />
<glyph unicode="&#x1eb8;" d="M199 0v1430h991v-175h-805v-452h731v-174h-731v-455h805v-174h-991zM604 -123h197v-196h-197v196z" />
<glyph unicode="&#x1eb9;" horiz-adv-x="1167" d="M100 507q0 243 125 400.5t364.5 157.5t364.5 -158t125 -385v-65h-790q16 -143 106 -223t273.5 -80t339.5 102h10v-180q-172 -96 -404.5 -96t-373 142t-140.5 385zM289 608h604q-8 147 -99.5 223t-204 76t-202.5 -76t-98 -223zM506 -141h196v-197h-196v197z" />
<glyph unicode="&#x1eba;" d="M199 0v1430h991v-175h-805v-452h731v-174h-731v-455h805v-174h-991zM588 1788v94q35 6 84 6q236 0 235 -162q0 -117 -153 -147v-37h-111v92q43 2 90 21.5t47 60.5q0 74 -139 74q-35 0 -53 -2z" />
<glyph unicode="&#x1ebb;" horiz-adv-x="1167" d="M100 507q0 243 125 400.5t364.5 157.5t364.5 -158t125 -385v-65h-790q16 -143 106 -223t273.5 -80t339.5 102h10v-180q-172 -96 -404.5 -96t-373 142t-140.5 385zM289 608h604q-8 147 -99.5 223t-204 76t-202.5 -76t-98 -223zM469 1430v94q35 6 84 6q236 0 235 -162 q0 -117 -153 -147v-37h-111v92q43 2 90.5 21.5t47.5 60.5q0 74 -140 74q-35 0 -53 -2z" />
<glyph unicode="&#x1ebc;" d="M199 0v1430h991v-175h-805v-452h731v-174h-731v-455h805v-174h-991zM383 1536q8 111 56 169t113.5 58t166 -48t155.5 -48q71 0 87 84h92q-8 -111 -56.5 -168t-115 -57t-168 49t-152.5 49q-68 0 -88 -88h-90z" />
<glyph unicode="&#x1ebd;" horiz-adv-x="1167" d="M100 507q0 243 125 400.5t364.5 157.5t364.5 -158t125 -385v-65h-790q16 -143 106 -223t273.5 -80t339.5 102h10v-180q-172 -96 -404.5 -96t-373 142t-140.5 385zM258 1184q8 111 55 169t114 58t168 -48t155 -48q70 0 86 84h92q-8 -111 -56.5 -168t-115 -57t-168 49 t-152.5 49q-68 0 -88 -88h-90zM289 608h604q-8 147 -99.5 223t-204 76t-202.5 -76t-98 -223z" />
<glyph unicode="&#x1ebe;" d="M199 0v1430h991v-175h-805v-452h731v-174h-731v-455h805v-174h-991zM381 1503l231 252h168l232 -252h-162l-154 150l-153 -150h-162zM907 1686l156 272h203l-232 -272h-127z" />
<glyph unicode="&#x1ebf;" horiz-adv-x="1167" d="M100 507q0 243 125 400.5t364.5 157.5t364.5 -158t125 -385v-65h-790q16 -143 106 -223t273.5 -80t339.5 102h10v-180q-172 -96 -404.5 -96t-373 142t-140.5 385zM272 1184l232 252h168l231 -252h-162l-153 149l-154 -149h-162zM289 608h604q-8 147 -99.5 223t-204 76 t-202.5 -76t-98 -223zM799 1366l155 272h203l-231 -272h-127z" />
<glyph unicode="&#x1ec0;" d="M145 1958h203l156 -272h-127zM199 0v1430h991v-175h-805v-452h731v-174h-731v-455h805v-174h-991zM399 1503l232 252h168l231 -252h-162l-153 150l-154 -150h-162z" />
<glyph unicode="&#x1ec1;" horiz-adv-x="1167" d="M18 1638h203l156 -272h-127zM100 507q0 243 125 400.5t364.5 157.5t364.5 -158t125 -385v-65h-790q16 -143 106 -223t273.5 -80t339.5 102h10v-180q-172 -96 -404.5 -96t-373 142t-140.5 385zM272 1184l232 252h168l231 -252h-162l-153 149l-154 -149h-162zM289 608h604 q-8 147 -99.5 223t-204 76t-202.5 -76t-98 -223z" />
<glyph unicode="&#x1ec2;" d="M199 0v1430h991v-175h-805v-452h731v-174h-731v-455h805v-174h-991zM381 1503l231 252h168l232 -252h-162l-154 150l-153 -150h-162zM930 1862v94q35 6 84 6q236 0 235 -162q0 -117 -153 -147v-37h-111v92q43 2 90 21.5t47 60.5q0 74 -139 74q-35 0 -53 -2z" />
<glyph unicode="&#x1ec3;" horiz-adv-x="1167" d="M100 507q0 243 125 400.5t364.5 157.5t364.5 -158t125 -385v-65h-790q16 -143 106 -223t273.5 -80t339.5 102h10v-180q-172 -96 -404.5 -96t-373 142t-140.5 385zM272 1184l232 252h168l231 -252h-162l-153 149l-154 -149h-162zM289 608h604q-8 147 -99.5 223t-204 76 t-202.5 -76t-98 -223zM821 1542v94q35 6 84 6q236 0 236 -161q0 -117 -154 -148v-37h-110v93q43 2 90 21.5t47 59.5q0 74 -140 74q-35 0 -53 -2z" />
<glyph unicode="&#x1ec4;" d="M199 0v1430h991v-175h-805v-452h731v-174h-731v-455h805v-174h-991zM383 1798q8 111 56 169t113.5 58t166 -48t155.5 -48q71 0 87 84h92q-8 -111 -56.5 -168t-115 -57t-168 49t-152.5 49q-68 0 -88 -88h-90zM399 1493l232 252h168l231 -252h-162l-153 149l-154 -149h-162 z" />
<glyph unicode="&#x1ec5;" horiz-adv-x="1167" d="M100 507q0 243 125 400.5t364.5 157.5t364.5 -158t125 -385v-65h-790q16 -143 106 -223t273.5 -80t339.5 102h10v-180q-172 -96 -404.5 -96t-373 142t-140.5 385zM256 1479q8 111 56 169t115 58t167 -48t154 -48q70 0 86 84h92q-8 -111 -56.5 -168.5t-115 -57.5 t-168 49.5t-152.5 49.5q-68 0 -88 -88h-90zM272 1174l232 251h168l231 -251h-162l-153 149l-154 -149h-162zM289 608h604q-8 147 -99.5 223t-204 76t-202.5 -76t-98 -223z" />
<glyph unicode="&#x1ec6;" d="M199 0v1430h991v-175h-805v-452h731v-174h-731v-455h805v-174h-991zM406 1532l231 252h168l231 -252h-162l-153 149l-154 -149h-161zM623 -123h196v-196h-196v196z" />
<glyph unicode="&#x1ec7;" horiz-adv-x="1167" d="M100 507q0 243 125 400.5t364.5 157.5t364.5 -158t125 -385v-65h-790q16 -143 106 -223t273.5 -80t339.5 102h10v-180q-172 -96 -404.5 -96t-373 142t-140.5 385zM272 1184l232 252h168l231 -252h-162l-153 149l-154 -149h-162zM289 608h604q-8 147 -99.5 223t-204 76 t-202.5 -76t-98 -223zM506 -141h196v-197h-196v197z" />
<glyph unicode="&#x1ec8;" horiz-adv-x="583" d="M168 1788v94q35 6 84 6q236 0 235 -162q0 -117 -153 -147v-37h-111v92q43 2 90 21.5t47 60.5q0 74 -139 74q-35 0 -53 -2zM199 0v1430h186v-1430h-186z" />
<glyph unicode="&#x1ec9;" horiz-adv-x="526" d="M139 1430v94q35 6 84 6q236 0 236 -162q0 -117 -154 -147v-37h-110v92q43 2 90 21.5t47 60.5q0 74 -139 74q-35 0 -54 -2zM170 0v1044h186v-1044h-186z" />
<glyph unicode="&#x1eca;" horiz-adv-x="583" d="M193 -123h196v-196h-196v196zM199 0v1430h186v-1430h-186z" />
<glyph unicode="&#x1ecb;" horiz-adv-x="526" d="M164 1266v200h201v-200h-201zM166 -123h196v-196h-196v196zM170 0v1044h186v-1044h-186z" />
<glyph unicode="&#x1ecc;" horiz-adv-x="1660" d="M113 715q6 326 200.5 530.5t518 204.5t518 -205t200.5 -530q-6 -326 -200.5 -530.5t-518 -204.5t-518 204.5t-200.5 530.5zM299 714.5q0 -243.5 142.5 -402t389 -158.5t390 158.5t143.5 402t-143.5 402.5t-390 159t-389 -159t-142.5 -402.5zM733 -141h197v-197h-197v197z " />
<glyph unicode="&#x1ecd;" horiz-adv-x="1245" d="M98 522.5q0 243.5 143.5 393t380 149.5t381 -149.5t144.5 -393t-144.5 -393t-381 -149.5t-380 149.5t-143.5 393zM285 523.5q0 -187.5 101 -280.5t236.5 -93t237 93t101.5 280.5t-101.5 279.5t-237 92t-236.5 -92t-101 -279.5zM524 -141h197v-197h-197v197z" />
<glyph unicode="&#x1ece;" horiz-adv-x="1660" d="M113 715q6 326 200.5 530.5t518 204.5t518 -205t200.5 -530q-6 -326 -200.5 -530.5t-518 -204.5t-518 204.5t-200.5 530.5zM299 714.5q0 -243.5 142.5 -402t389 -158.5t390 158.5t143.5 402t-143.5 402.5t-390 159t-389 -159t-142.5 -402.5zM698 1788v94q35 6 84 6 q236 0 236 -162q0 -117 -154 -147v-37h-110v92q43 2 90 21.5t47 60.5q0 74 -139 74q-35 0 -54 -2z" />
<glyph unicode="&#x1ecf;" horiz-adv-x="1245" d="M98 522.5q0 243.5 143.5 393t380 149.5t381 -149.5t144.5 -393t-144.5 -393t-381 -149.5t-380 149.5t-143.5 393zM285 523.5q0 -187.5 101 -280.5t236.5 -93t237 93t101.5 280.5t-101.5 279.5t-237 92t-236.5 -92t-101 -279.5zM506 1430v94q35 6 84 6q236 0 235 -162 q0 -117 -153 -147v-37h-111v92q43 2 90 21.5t47 60.5q0 74 -139 74q-35 0 -53 -2z" />
<glyph unicode="&#x1ed0;" horiz-adv-x="1660" d="M113 715q6 326 200.5 530.5t518 204.5t518 -205t200.5 -530q-6 -326 -200.5 -530.5t-518 -204.5t-518 204.5t-200.5 530.5zM299 714.5q0 -243.5 142.5 -402t389 -158.5t390 158.5t143.5 402t-143.5 402.5t-390 159t-389 -159t-142.5 -402.5zM516 1503l232 252h167 l232 -252h-162l-154 150l-153 -150h-162zM1042 1686l156 272h203l-232 -272h-127z" />
<glyph unicode="&#x1ed1;" horiz-adv-x="1245" d="M98 522.5q0 243.5 143.5 393t380 149.5t381 -149.5t144.5 -393t-144.5 -393t-381 -149.5t-380 149.5t-143.5 393zM285 523.5q0 -187.5 101 -280.5t236.5 -93t237 93t101.5 280.5t-101.5 279.5t-237 92t-236.5 -92t-101 -279.5zM307 1184l232 252h168l231 -252h-162 l-153 149l-154 -149h-162zM834 1366l155 272h203l-231 -272h-127z" />
<glyph unicode="&#x1ed2;" horiz-adv-x="1660" d="M113 715q6 326 200.5 530.5t518 204.5t518 -205t200.5 -530q-6 -326 -200.5 -530.5t-518 -204.5t-518 204.5t-200.5 530.5zM262 1958h203l156 -272h-127zM299 714.5q0 -243.5 142.5 -402t389 -158.5t390 158.5t143.5 402t-143.5 402.5t-390 159t-389 -159t-142.5 -402.5z M516 1503l232 252h167l232 -252h-162l-154 150l-153 -150h-162z" />
<glyph unicode="&#x1ed3;" horiz-adv-x="1245" d="M53 1638h203l156 -272h-127zM98 522.5q0 243.5 143.5 393t380 149.5t381 -149.5t144.5 -393t-144.5 -393t-381 -149.5t-380 149.5t-143.5 393zM285 523.5q0 -187.5 101 -280.5t236.5 -93t237 93t101.5 280.5t-101.5 279.5t-237 92t-236.5 -92t-101 -279.5zM307 1184 l232 252h168l231 -252h-162l-153 149l-154 -149h-162z" />
<glyph unicode="&#x1ed4;" horiz-adv-x="1660" d="M113 715q6 326 200.5 530.5t518 204.5t518 -205t200.5 -530q-6 -326 -200.5 -530.5t-518 -204.5t-518 204.5t-200.5 530.5zM299 714.5q0 -243.5 142.5 -402t389 -158.5t390 158.5t143.5 402t-143.5 402.5t-390 159t-389 -159t-142.5 -402.5zM516 1503l232 252h167 l232 -252h-162l-154 150l-153 -150h-162zM1065 1862v94q35 6 84 6q236 0 235 -162q0 -117 -153 -147v-37h-111v92q43 2 90 21.5t47 60.5q0 74 -139 74q-35 0 -53 -2z" />
<glyph unicode="&#x1ed5;" horiz-adv-x="1245" d="M98 522.5q0 243.5 143.5 393t380 149.5t381 -149.5t144.5 -393t-144.5 -393t-381 -149.5t-380 149.5t-143.5 393zM285 523.5q0 -187.5 101 -280.5t236.5 -93t237 93t101.5 280.5t-101.5 279.5t-237 92t-236.5 -92t-101 -279.5zM307 1184l232 252h168l231 -252h-162 l-153 149l-154 -149h-162zM856 1542v94q35 6 84 6q236 0 236 -161q0 -117 -154 -148v-37h-111v93q43 2 90.5 21.5t47.5 59.5q0 74 -140 74q-35 0 -53 -2z" />
<glyph unicode="&#x1ed6;" horiz-adv-x="1660" d="M113 715q6 326 200.5 530.5t518 204.5t518 -205t200.5 -530q-6 -326 -200.5 -530.5t-518 -204.5t-518 204.5t-200.5 530.5zM299 714.5q0 -243.5 142.5 -402t389 -158.5t390 158.5t143.5 402t-143.5 402.5t-390 159t-389 -159t-142.5 -402.5zM500 1798q8 111 55 169 t114.5 58t168 -48t153.5 -48q70 0 86 84h92q-8 -111 -56 -168t-114.5 -57t-168 49t-152.5 49q-68 0 -88 -88h-90zM516 1493l232 252h167l232 -252h-162l-154 149l-153 -149h-162z" />
<glyph unicode="&#x1ed7;" horiz-adv-x="1245" d="M98 522.5q0 243.5 143.5 393t380 149.5t381 -149.5t144.5 -393t-144.5 -393t-381 -149.5t-380 149.5t-143.5 393zM285 523.5q0 -187.5 101 -280.5t236.5 -93t237 93t101.5 280.5t-101.5 279.5t-237 92t-236.5 -92t-101 -279.5zM291 1479q8 111 55 169t114.5 58t168 -48 t153.5 -48q70 0 86 84h93q-8 -111 -56.5 -168.5t-115 -57.5t-168 49.5t-152.5 49.5q-68 0 -88 -88h-90zM307 1174l232 251h168l231 -251h-162l-153 149l-154 -149h-162z" />
<glyph unicode="&#x1ed8;" horiz-adv-x="1660" d="M113 715q6 326 200.5 530.5t518 204.5t518 -205t200.5 -530q-6 -326 -200.5 -530.5t-518 -204.5t-518 204.5t-200.5 530.5zM299 714.5q0 -243.5 142.5 -402t389 -158.5t390 158.5t143.5 402t-143.5 402.5t-390 159t-389 -159t-142.5 -402.5zM516 1532l232 252h167 l232 -252h-162l-154 149l-153 -149h-162zM733 -123h197v-196h-197v196z" />
<glyph unicode="&#x1ed9;" horiz-adv-x="1245" d="M98 522.5q0 243.5 143.5 393t380 149.5t381 -149.5t144.5 -393t-144.5 -393t-381 -149.5t-380 149.5t-143.5 393zM285 523.5q0 -187.5 101 -280.5t236.5 -93t237 93t101.5 280.5t-101.5 279.5t-237 92t-236.5 -92t-101 -279.5zM307 1184l232 252h168l231 -252h-162 l-153 149l-154 -149h-162zM524 -141h197v-197h-197v197z" />
<glyph unicode="&#x1eda;" horiz-adv-x="1798" d="M113 715q6 326 200.5 530.5t517.5 204.5q268 0 450.5 -144.5t242.5 -387.5q82 25 113.5 92t31.5 204h-115v226h222v-217q0 -172 -57.5 -267.5t-178.5 -128.5q6 -37 10 -112q-6 -326 -200.5 -530.5t-518 -204.5t-518 204.5t-200.5 530.5zM299 714.5q0 -243.5 142.5 -402 t389 -158.5t390 158.5t143.5 402t-143.5 402.5t-390 159t-389 -159t-142.5 -402.5zM715 1536l155 272h203l-231 -272h-127z" />
<glyph unicode="&#x1edb;" horiz-adv-x="1409" d="M98 522.5q0 243.5 143.5 393t374 149.5t372.5 -136t157 -362q80 12 109.5 68.5t29.5 189.5h-115v226h222v-217q0 -174 -59.5 -256t-186.5 -97q-12 -227 -154.5 -364t-374 -137t-375 149.5t-143.5 393zM285 523.5q0 -187.5 101 -280.5t236.5 -93t237 93t101.5 280.5 t-101.5 279.5t-237 92t-236.5 -92t-101 -279.5zM510 1184l156 272h202l-231 -272h-127z" />
<glyph unicode="&#x1edc;" horiz-adv-x="1798" d="M113 715q6 326 200.5 530.5t517.5 204.5q268 0 450.5 -144.5t242.5 -387.5q82 25 113.5 92t31.5 204h-115v226h222v-217q0 -172 -57.5 -267.5t-178.5 -128.5q6 -37 10 -112q-6 -326 -200.5 -530.5t-518 -204.5t-518 204.5t-200.5 530.5zM299 714.5q0 -243.5 142.5 -402 t389 -158.5t390 158.5t143.5 402t-143.5 402.5t-390 159t-389 -159t-142.5 -402.5zM590 1808h203l155 -272h-127z" />
<glyph unicode="&#x1edd;" horiz-adv-x="1409" d="M98 522.5q0 243.5 143.5 393t374 149.5t372.5 -136t157 -362q80 12 109.5 68.5t29.5 189.5h-115v226h222v-217q0 -174 -59.5 -256t-186.5 -97q-12 -227 -154.5 -364t-374 -137t-375 149.5t-143.5 393zM285 523.5q0 -187.5 101 -280.5t236.5 -93t237 93t101.5 280.5 t-101.5 279.5t-237 92t-236.5 -92t-101 -279.5zM377 1456h203l155 -272h-127z" />
<glyph unicode="&#x1ede;" horiz-adv-x="1798" d="M113 715q6 326 200.5 530.5t517.5 204.5q268 0 450.5 -144.5t242.5 -387.5q82 25 113.5 92t31.5 204h-115v226h222v-217q0 -172 -57.5 -267.5t-178.5 -128.5q6 -37 10 -112q-6 -326 -200.5 -530.5t-518 -204.5t-518 204.5t-200.5 530.5zM299 714.5q0 -243.5 142.5 -402 t389 -158.5t390 158.5t143.5 402t-143.5 402.5t-390 159t-389 -159t-142.5 -402.5zM698 1788v94q35 6 84 6q236 0 236 -162q0 -117 -154 -147v-37h-110v92q43 2 90 21.5t47 60.5q0 74 -139 74q-35 0 -54 -2z" />
<glyph unicode="&#x1edf;" horiz-adv-x="1409" d="M98 522.5q0 243.5 143.5 393t374 149.5t372.5 -136t157 -362q80 12 109.5 68.5t29.5 189.5h-115v226h222v-217q0 -174 -59.5 -256t-186.5 -97q-12 -227 -154.5 -364t-374 -137t-375 149.5t-143.5 393zM285 523.5q0 -187.5 101 -280.5t236.5 -93t237 93t101.5 280.5 t-101.5 279.5t-237 92t-236.5 -92t-101 -279.5zM506 1430v94q35 6 84 6q236 0 235 -162q0 -117 -153 -147v-37h-111v92q43 2 90 21.5t47 60.5q0 74 -139 74q-35 0 -53 -2z" />
<glyph unicode="&#x1ee0;" horiz-adv-x="1798" d="M113 715q6 326 200.5 530.5t517.5 204.5q268 0 450.5 -144.5t242.5 -387.5q82 25 113.5 92t31.5 204h-115v226h222v-217q0 -172 -57.5 -267.5t-178.5 -128.5q6 -37 10 -112q-6 -326 -200.5 -530.5t-518 -204.5t-518 204.5t-200.5 530.5zM299 714.5q0 -243.5 142.5 -402 t389 -158.5t390 158.5t143.5 402t-143.5 402.5t-390 159t-389 -159t-142.5 -402.5zM496 1536q8 111 55 169t114.5 58t168 -48t153.5 -48q70 0 86 84h92q-8 -111 -56 -168t-114.5 -57t-168 49t-152.5 49q-68 0 -88 -88h-90z" />
<glyph unicode="&#x1ee1;" horiz-adv-x="1409" d="M98 522.5q0 243.5 143.5 393t374 149.5t372.5 -136t157 -362q80 12 109.5 68.5t29.5 189.5h-115v226h222v-217q0 -174 -59.5 -256t-186.5 -97q-12 -227 -154.5 -364t-374 -137t-375 149.5t-143.5 393zM285 523.5q0 -187.5 101 -280.5t236.5 -93t237 93t101.5 280.5 t-101.5 279.5t-237 92t-236.5 -92t-101 -279.5zM291 1184q8 111 55 169t114.5 58t168 -48t153.5 -48q70 0 86 84h93q-8 -111 -56.5 -168t-115 -57t-168 49t-152.5 49q-68 0 -88 -88h-90z" />
<glyph unicode="&#x1ee2;" horiz-adv-x="1798" d="M113 715q6 326 200.5 530.5t517.5 204.5q268 0 450.5 -144.5t242.5 -387.5q82 25 113.5 92t31.5 204h-115v226h222v-217q0 -172 -57.5 -267.5t-178.5 -128.5q6 -37 10 -112q-6 -326 -200.5 -530.5t-518 -204.5t-518 204.5t-200.5 530.5zM299 714.5q0 -243.5 142.5 -402 t389 -158.5t390 158.5t143.5 402t-143.5 402.5t-390 159t-389 -159t-142.5 -402.5zM733 -141h197v-197h-197v197z" />
<glyph unicode="&#x1ee3;" horiz-adv-x="1409" d="M98 522.5q0 243.5 143.5 393t374 149.5t372.5 -136t157 -362q80 12 109.5 68.5t29.5 189.5h-115v226h222v-217q0 -174 -59.5 -256t-186.5 -97q-12 -227 -154.5 -364t-374 -137t-375 149.5t-143.5 393zM285 523.5q0 -187.5 101 -280.5t236.5 -93t237 93t101.5 280.5 t-101.5 279.5t-237 92t-236.5 -92t-101 -279.5zM524 -141h197v-197h-197v197z" />
<glyph unicode="&#x1ee4;" horiz-adv-x="1552" d="M188 537v893h187v-900q0 -180 118.5 -280t282.5 -100t283 100t119 280v900h186v-893q0 -139 -52 -249t-139.5 -175.5t-188.5 -99t-207.5 -33.5t-208 33.5t-188.5 99t-139.5 175t-52.5 249.5zM678 -141h196v-197h-196v197z" />
<glyph unicode="&#x1ee5;" horiz-adv-x="1249" d="M154 381v663h186v-643q0 -250 225 -249q178 0 336 196v696h186v-1044h-163l-23 131v31h-4q-166 -182 -377 -182q-170 0 -268 114.5t-98 286.5zM541 -141h196v-197h-196v197z" />
<glyph unicode="&#x1ee6;" horiz-adv-x="1552" d="M188 537v893h187v-900q0 -180 118.5 -280t282.5 -100t283 100t119 280v900h186v-893q0 -139 -52 -249t-139.5 -175.5t-188.5 -99t-207.5 -33.5t-208 33.5t-188.5 99t-139.5 175t-52.5 249.5zM637 1788v94q35 6 84 6q236 0 235 -162q0 -117 -153 -147v-37h-111v92 q43 2 90 21.5t47 60.5q0 74 -139 74q-35 0 -53 -2z" />
<glyph unicode="&#x1ee7;" horiz-adv-x="1249" d="M154 381v663h186v-643q0 -250 225 -249q178 0 336 196v696h186v-1044h-163l-23 131v31h-4q-166 -182 -377 -182q-170 0 -268 114.5t-98 286.5zM461 1430v94q35 6 84 6q236 0 235 -162q0 -117 -153 -147v-37h-111v92q43 2 90 21.5t47 60.5q0 74 -139 74q-35 0 -53 -2z" />
<glyph unicode="&#x1ee8;" horiz-adv-x="1726" d="M188 537v893h187v-900q0 -180 118.5 -280t282.5 -100t283 100t119 280v900h186v-525q150 4 203 66.5t53 232.5h-115v226h221v-218q0 -209 -86 -300t-276 -97v-278q0 -139 -52 -249t-139.5 -175.5t-188.5 -99t-207.5 -33.5t-208 33.5t-188.5 99t-139.5 175t-52.5 249.5z M647 1536l156 272h203l-232 -272h-127z" />
<glyph unicode="&#x1ee9;" horiz-adv-x="1439" d="M154 381v663h186v-643q0 -250 225 -249q178 0 336 196v696h186v-524q139 8 188.5 70.5t49.5 228.5h-115v225h222v-217q0 -205 -82 -295t-263 -100v-432h-163l-23 131v31h-4q-164 -182 -377 -182q-170 0 -268 114.5t-98 286.5zM508 1184l156 272h202l-231 -272h-127z" />
<glyph unicode="&#x1eea;" horiz-adv-x="1726" d="M188 537v893h187v-900q0 -180 118.5 -280t282.5 -100t283 100t119 280v900h186v-525q150 4 203 66.5t53 232.5h-115v226h221v-218q0 -209 -86 -300t-276 -97v-278q0 -139 -52 -249t-139.5 -175.5t-188.5 -99t-207.5 -33.5t-208 33.5t-188.5 99t-139.5 175t-52.5 249.5z M547 1808h203l155 -272h-127z" />
<glyph unicode="&#x1eeb;" horiz-adv-x="1439" d="M154 381v663h186v-643q0 -250 225 -249q178 0 336 196v696h186v-524q139 8 188.5 70.5t49.5 228.5h-115v225h222v-217q0 -205 -82 -295t-263 -100v-432h-163l-23 131v31h-4q-164 -182 -377 -182q-170 0 -268 114.5t-98 286.5zM375 1456h203l155 -272h-127z" />
<glyph unicode="&#x1eec;" horiz-adv-x="1726" d="M188 537v893h187v-900q0 -180 118.5 -280t282.5 -100t283 100t119 280v900h186v-525q150 4 203 66.5t53 232.5h-115v226h221v-218q0 -209 -86 -300t-276 -97v-278q0 -139 -52 -249t-139.5 -175.5t-188.5 -99t-207.5 -33.5t-208 33.5t-188.5 99t-139.5 175t-52.5 249.5z M637 1788v94q35 6 84 6q236 0 235 -162q0 -117 -153 -147v-37h-111v92q43 2 90 21.5t47 60.5q0 74 -139 74q-35 0 -53 -2z" />
<glyph unicode="&#x1eed;" horiz-adv-x="1439" d="M154 381v663h186v-643q0 -250 225 -249q178 0 336 196v696h186v-524q139 8 188.5 70.5t49.5 228.5h-115v225h222v-217q0 -205 -82 -295t-263 -100v-432h-163l-23 131v31h-4q-164 -182 -377 -182q-170 0 -268 114.5t-98 286.5zM461 1430v94q35 6 84 6q236 0 235 -162 q0 -117 -153 -147v-37h-111v92q43 2 90 21.5t47 60.5q0 74 -139 74q-35 0 -53 -2z" />
<glyph unicode="&#x1eee;" horiz-adv-x="1726" d="M188 537v893h187v-900q0 -180 118.5 -280t282.5 -100t283 100t119 280v900h186v-525q150 4 203 66.5t53 232.5h-115v226h221v-218q0 -209 -86 -300t-276 -97v-278q0 -139 -52 -249t-139.5 -175.5t-188.5 -99t-207.5 -33.5t-208 33.5t-188.5 99t-139.5 175t-52.5 249.5z M449 1536q8 111 56 169t113.5 58t166 -48t155.5 -48q70 0 86 84h92q-8 -111 -56 -168t-114.5 -57t-168 49t-152.5 49q-68 0 -88 -88h-90z" />
<glyph unicode="&#x1eef;" horiz-adv-x="1439" d="M154 381v663h186v-643q0 -250 225 -249q178 0 336 196v696h186v-524q139 8 188.5 70.5t49.5 228.5h-115v225h222v-217q0 -205 -82 -295t-263 -100v-432h-163l-23 131v31h-4q-164 -182 -377 -182q-170 0 -268 114.5t-98 286.5zM281 1184q8 111 56 169t114.5 58t167 -48 t153.5 -48q70 0 86 84h92q-8 -111 -56 -168t-114.5 -57t-168 49t-152.5 49q-68 0 -88 -88h-90z" />
<glyph unicode="&#x1ef0;" horiz-adv-x="1726" d="M188 537v893h187v-900q0 -180 118.5 -280t282.5 -100t283 100t119 280v900h186v-525q150 4 203 66.5t53 232.5h-115v226h221v-218q0 -209 -86 -300t-276 -97v-278q0 -139 -52 -249t-139.5 -175.5t-188.5 -99t-207.5 -33.5t-208 33.5t-188.5 99t-139.5 175t-52.5 249.5z M678 -141h196v-197h-196v197z" />
<glyph unicode="&#x1ef1;" horiz-adv-x="1439" d="M154 381v663h186v-643q0 -250 225 -249q178 0 336 196v696h186v-524q139 8 188.5 70.5t49.5 228.5h-115v225h222v-217q0 -205 -82 -295t-263 -100v-432h-163l-23 131v31h-4q-164 -182 -377 -182q-170 0 -268 114.5t-98 286.5zM541 -141h196v-197h-196v197z" />
<glyph unicode="&#x1ef2;" horiz-adv-x="1320" d="M-14 1430h227l442 -654h11l442 654h227l-581 -826v-604h-187v604zM412 1808h202l156 -272h-127z" />
<glyph unicode="&#x1ef3;" horiz-adv-x="1091" d="M10 1044h201l328 -825h8l336 825h200l-628 -1515h-189l176 455zM303 1456h203l156 -272h-127z" />
<glyph unicode="&#x1ef4;" horiz-adv-x="1316" d="M-16 1430h227l442 -654h11l442 654h227l-581 -826v-604h-187v604zM561 -123h197v-196h-197v196z" />
<glyph unicode="&#x1ef5;" horiz-adv-x="1091" d="M10 1044h201l328 -825h8l336 825h200l-628 -1515h-189l176 455zM772 -123h197v-196h-197v196z" />
<glyph unicode="&#x1ef6;" horiz-adv-x="1320" d="M-14 1430h227l442 -654h11l442 654h227l-581 -826v-604h-187v604zM537 1788v94q35 6 84 6q236 0 235 -162q0 -117 -154 -147v-37h-110v92q43 2 90 21.5t47 60.5q0 74 -139 74q-35 0 -53 -2z" />
<glyph unicode="&#x1ef7;" horiz-adv-x="1091" d="M10 1044h201l328 -825h8l336 825h200l-628 -1515h-189l176 455zM391 1430v94q35 6 84 6q236 0 236 -162q0 -117 -154 -147v-37h-111v92q43 2 90.5 21.5t47.5 60.5q0 74 -140 74q-35 0 -53 -2z" />
<glyph unicode="&#x1ef8;" horiz-adv-x="1320" d="M-14 1430h227l442 -654h11l442 654h227l-581 -826v-604h-187v604zM332 1536q8 111 56 169t114.5 58t167 -48t153.5 -48q70 0 86 84h92q-8 -111 -56 -168t-114.5 -57t-168 49t-152.5 49q-68 0 -88 -88h-90z" />
<glyph unicode="&#x1ef9;" horiz-adv-x="1091" d="M10 1044h201l328 -825h8l336 825h200l-628 -1515h-189l176 455zM213 1184q8 111 55 169t115 58t168 -48t154 -48q70 0 86 84h92q-8 -111 -56.5 -168t-115 -57t-168 49t-152.5 49q-68 0 -88 -88h-90z" />
<glyph unicode="&#x2000;" horiz-adv-x="1039" />
<glyph unicode="&#x2001;" horiz-adv-x="2079" />
<glyph unicode="&#x2002;" horiz-adv-x="1039" />
<glyph unicode="&#x2003;" horiz-adv-x="2079" />
<glyph unicode="&#x2004;" horiz-adv-x="693" />
<glyph unicode="&#x2005;" horiz-adv-x="519" />
<glyph unicode="&#x2006;" horiz-adv-x="346" />
<glyph unicode="&#x2007;" horiz-adv-x="346" />
<glyph unicode="&#x2008;" horiz-adv-x="259" />
<glyph unicode="&#x2009;" horiz-adv-x="415" />
<glyph unicode="&#x200a;" horiz-adv-x="115" />
<glyph unicode="&#x2010;" horiz-adv-x="835" d="M152 492v165h532v-165h-532z" />
<glyph unicode="&#x2011;" horiz-adv-x="835" d="M152 492v165h532v-165h-532z" />
<glyph unicode="&#x2012;" horiz-adv-x="835" d="M152 492v165h532v-165h-532z" />
<glyph unicode="&#x2013;" horiz-adv-x="1400" d="M152 492v165h1097v-165h-1097z" />
<glyph unicode="&#x2014;" horiz-adv-x="1824" d="M152 492v165h1521v-165h-1521z" />
<glyph unicode="&#x2018;" horiz-adv-x="522" d="M145 952v230q0 238 230 334v-134q-113 -61 -113 -200h113v-230h-230z" />
<glyph unicode="&#x2019;" horiz-adv-x="487" d="M150 952v133q113 61 112 201h-112v230h229v-230q0 -238 -229 -334z" />
<glyph unicode="&#x201a;" horiz-adv-x="532" d="M152 0v229h229v-229q0 -238 -229 -334v133q113 61 112 201h-112z" />
<glyph unicode="&#x201c;" horiz-adv-x="894" d="M145 952v230q0 238 230 334v-134q-113 -61 -113 -200h113v-230h-230zM518 952v230q0 238 230 334v-134q-113 -61 -113 -200h113v-230h-230z" />
<glyph unicode="&#x201d;" horiz-adv-x="860" d="M150 952v133q113 61 112 201h-112v230h229v-230q0 -238 -229 -334zM522 952v133q113 61 113 201h-113v230h230v-230q0 -238 -230 -334z" />
<glyph unicode="&#x201e;" horiz-adv-x="905" d="M152 0v229h229v-229q0 -238 -229 -334v133q113 61 112 201h-112zM524 0v229h230v-229q0 -238 -230 -334v133q113 61 113 201h-113z" />
<glyph unicode="&#x2020;" horiz-adv-x="1034" d="M72 903v55l67 39h164l174 -28l-26 174v166l41 69h51l41 -69v-166l-27 -174l174 28h164l68 -39v-55l-70 -37h-162l-174 27l27 -174l-27 -840l-14 -69h-51l-15 69l-26 840l26 174l-174 -27h-162z" />
<glyph unicode="&#x2021;" horiz-adv-x="1087" d="M98 229v56l70 37h162l174 -27l-33 299l33 299l-174 -27h-162l-70 37v55l68 39h164l174 -28l-27 174v166l41 69h51l41 -69v-166l-26 -174l174 28h164l67 -39v-55l-69 -37h-162l-174 27l30 -299l-30 -299l174 27h162l69 -37v-56l-67 -39h-164l-174 29l26 -174v-166l-41 -69 h-51l-41 69v166l27 174l-174 -29h-164z" />
<glyph unicode="&#x2022;" horiz-adv-x="772" d="M115 805q0 113 79.5 192.5t192.5 79.5t191.5 -79.5t78.5 -192.5t-78.5 -193t-191.5 -80t-192.5 80t-79.5 193z" />
<glyph unicode="&#x2026;" horiz-adv-x="1982" d="M152 0v229h229v-229h-229zM877 0v229h229v-229h-229zM1602 0v229h229v-229h-229z" />
<glyph unicode="&#x202f;" horiz-adv-x="415" />
<glyph unicode="&#x2030;" horiz-adv-x="2224" d="M98 1122.5q0 149.5 82 245.5t230.5 96t230.5 -96t82 -245.5t-82 -246t-230.5 -96.5t-230.5 96.5t-82 246zM227 -8l903 1444h160l-903 -1444h-160zM233 1123.5q0 -95.5 47.5 -157t131.5 -61.5t130 61.5t46 157t-46 155.5t-130 60t-131.5 -60t-47.5 -155.5zM793 305.5 q0 149.5 81.5 244.5t231 95t231.5 -95t82 -245.5t-82 -246t-231.5 -95.5t-231 96.5t-81.5 246zM930 304q0 -95 46 -156.5t130 -61.5t131 61.5t47 156.5t-47 156.5t-131 61.5t-130 -61.5t-46 -156.5zM1516 304.5q0 150.5 81.5 245.5t231 95t231.5 -95t82 -244.5t-82 -246 t-231.5 -96.5t-231 95.5t-81.5 246zM1651 304q0 -95 47 -156.5t131 -61.5t130 61.5t46 156.5t-46 156.5t-130 61.5t-131 -61.5t-47 -156.5z" />
<glyph unicode="&#x2039;" horiz-adv-x="772" d="M76 522l381 459h213l-396 -459l396 -456h-213z" />
<glyph unicode="&#x203a;" horiz-adv-x="772" d="M102 66l396 456l-396 459h213l381 -459l-381 -456h-213z" />
<glyph unicode="&#x2044;" horiz-adv-x="409" d="M-328 -29l899 1483h164l-899 -1483h-164z" />
<glyph unicode="&#x205f;" horiz-adv-x="519" />
<glyph unicode="&#x20a1;" horiz-adv-x="1417" d="M90 715q0 336 202 535.5t515 199.5q41 0 59 -2l68 197h96l-69 -207q82 -14 139 -33l82 240h96l-92 -273q55 -23 106 -55v-184h-8q-70 49 -151 79l-355 -1052q16 -2 47 -2q244 0 457 139h10v-184q-221 -133 -485 -133q-31 0 -88 4l-66 -199h-98l72 215q-70 16 -135 43 l-86 -258h-99l103 303q-150 92 -235 254t-85 373zM276 715q0 -295 193 -447l338 1004q-254 -6 -392.5 -161t-138.5 -396zM551 217q55 -29 135 -45l361 1071q-68 18 -144 25z" />
<glyph unicode="&#x20a3;" d="M94 309v92h176v1029h947v-175h-760v-452h688v-174h-688v-228h405v-92h-405v-309h-187v309h-176z" />
<glyph unicode="&#x20a4;" horiz-adv-x="1236" d="M98 494v92h264q-6 37 -26 116h-238v93h207q-41 139 -41 233q0 197 136.5 309.5t339 112.5t358.5 -78v-184h-11q-141 82 -316 82t-247.5 -67.5t-72.5 -158t49 -249.5h422v-93h-396q16 -61 23 -116h373v-92h-373q-10 -139 -84 -252l51 2q82 0 207 -42t197 -42q115 0 210 67 h9v-182q-123 -66 -223.5 -65.5t-217 46.5t-204.5 46q-141 0 -252 -92l-113 94q221 199 238 420h-269z" />
<glyph unicode="&#x20a6;" horiz-adv-x="1806" d="M102 524v92h177v197h-177v92h177v525h229l369 -525h462v525h187v-525h178v-92h-178v-197h178v-92h-178v-524h-230l-366 524h-465v-524h-186v524h-177zM465 616h399l-139 197h-260v-197zM465 905h197l-193 273h-4v-273zM942 813l139 -197h258v197h-397zM1145 524l190 -270 h4v270h-194z" />
<glyph unicode="&#x20a7;" horiz-adv-x="2222" d="M199 0v1430h559q147 0 257.5 -40t171 -108t89.5 -144.5t29 -162.5t-29 -163t-89.5 -144.5t-171 -107.5t-257.5 -40h-373v-520h-186zM385 696h354q209 0 294 80t85 199t-85 198.5t-294 79.5h-354v-557zM1417 885v12l381 373v-226h297v-159h-297v-619q0 -86 49 -106 q37 -16 98.5 -16.5t135.5 32.5h14v-151q-86 -45 -184 -45q-299 0 -299 270v635h-195z" />
<glyph unicode="&#x20a8;" horiz-adv-x="2408" d="M203 0v1430h569q279 0 418 -115t139 -301q0 -125 -67.5 -224.5t-196.5 -144.5v-4q242 -64 242 -465v-49q0 -66 34 -119v-8h-192q-29 47 -29 111v32q0 188 -39 258q-18 37 -49 78q-63 78 -219 78h-424v-557h-186zM389 733h371q176 0 279.5 69.5t103.5 194.5t-89 190.5 t-304 65.5h-361v-520zM1520 741q0 143 103 233.5t281.5 90.5t331.5 -57v-170h-14q-137 57 -268 57t-193.5 -40t-62.5 -100.5t63.5 -93t154.5 -52t181 -48.5t153.5 -98.5t63.5 -190t-103.5 -206.5t-307 -86t-371.5 92v178h10q166 -98 365 -98q227 0 227 145q0 47 -63.5 76.5 t-153.5 50t-180 49.5t-153.5 96.5t-63.5 171.5z" />
<glyph unicode="&#x20a9;" horiz-adv-x="2211" d="M100 1430h195l164 -525h399l168 525h162l164 -525h399l166 525h197l-172 -525h147v-92h-178l-64 -197h242v-92h-272l-170 -524h-187l-168 524h-374l-164 -524h-187l-172 524h-272v92h242l-64 197h-178v92h147zM487 813l64 -197h217l61 197h-342zM580 524l77 -245h5 l75 245h-157zM948 616h316l-64 197h-190zM1038 905h133l-63 203h-4zM1380 813l64 -197h215l63 197h-342zM1473 524l77 -245h4l76 245h-157z" />
<glyph unicode="&#x20ab;" horiz-adv-x="1093" d="M131 701q0 173 105.5 278.5t246 105.5t232.5 -106h4v192h-189v107h189v113h153v-113h105v-107h-105v-837h-135l-18 92h-4q-90 -106 -231.5 -106.5t-247 104t-105.5 277.5zM156 72v125h718v-125h-718zM287 701.5q0 -113.5 64.5 -179t183 -65.5t184.5 106v279 q-68 104 -185.5 104t-182 -65.5t-64.5 -179z" />
<glyph unicode="&#x20ac;" horiz-adv-x="1396" d="M96 469v149h176q-8 61 -8 94t8 99h-176v147h209q70 221 243 356.5t410 135.5q184 0 338 -86l-47 -156q-127 66 -284.5 66t-281.5 -85t-183 -231h676l-43 -147h-676q-6 -45 -6 -96t6 -97h618l-43 -149h-532q59 -143 183 -228t279.5 -85t286.5 63l47 -153 q-154 -86 -338 -86q-238 0 -410.5 135t-242.5 354h-209z" />
<glyph unicode="&#x2122;" horiz-adv-x="1951" d="M127 1311v119h639v-119h-256v-652h-129v652h-254zM889 659v771h178l258 -621h4l258 621h178v-771h-131v586h-2l-246 -586h-116l-248 586h-2v-586h-131z" />
<glyph unicode="&#x2202;" horiz-adv-x="1402" d="M86 426q0 217 157.5 360.5t411.5 143.5q125 0 237 -52.5t189 -129.5h4q8 63 8.5 142t-21 164t-66.5 157.5t-124 114.5t-206 42t-258 -47h-17v164q160 59 324 59q262 0 405.5 -192.5t143.5 -464.5q0 -412 -179.5 -659.5t-514.5 -247.5q-129 0 -228.5 40.5t-154.5 108.5 q-111 135 -111 297zM272 458.5q0 -139.5 84 -227.5t238 -88q109 0 194.5 41t139.5 111q92 117 131 283q-66 88 -168.5 143t-220.5 55q-176 0 -287 -89t-111 -228.5z" />
<glyph unicode="&#x2206;" horiz-adv-x="1476" d="M68 0l569 1430h203l569 -1430h-1341zM301 145h875v11l-435 1091h-4l-436 -1091v-11z" />
<glyph unicode="&#x220f;" horiz-adv-x="1517" d="M84 1253v177h1350v-177h-230v-1478h-176v1478h-539v-1478h-176v1478h-229z" />
<glyph unicode="&#x2211;" horiz-adv-x="1292" d="M94 -31l576 639l-576 641v181h1104v-179h-870v-4l575 -633v-12l-575 -631v-4h870v-178h-1104v180z" />
<glyph unicode="&#x221a;" horiz-adv-x="1269" d="M18 764l293 115l232 -662h2l403 1213h326v-109h-227l-422 -1321h-148l-262 713l-154 -60z" />
<glyph unicode="&#x221e;" horiz-adv-x="1972" d="M133 522.5q0 69.5 19.5 136t61.5 132t123 105.5t210 40t234.5 -79t201.5 -208h6q164 215 307 264q70 23 164 23t175 -40t123 -105.5t61.5 -132t19.5 -136t-19.5 -136.5t-61.5 -132.5t-123 -105t-210 -39.5t-233.5 76.5t-202.5 209.5h-6q-94 -129 -200.5 -207.5 t-235.5 -78.5t-210 39.5t-123 105t-61.5 132.5t-19.5 136.5zM297 522.5q0 -104.5 65.5 -180.5t193.5 -75.5t226 98.5q63 63 131 157q-133 186 -237 232q-59 25 -127 24q-121 0 -186.5 -75.5t-65.5 -180zM1059 522q43 -57 61.5 -80.5t69.5 -76.5q98 -98 226 -98.5t193.5 75.5 t65.5 180.5t-65.5 180t-186.5 75.5q-94 0 -190 -61q-74 -47 -174 -195z" />
<glyph unicode="&#x222b;" horiz-adv-x="759" d="M25 -283l8 148q49 -12 97 -12t79 21.5t35 92.5l98 1395q6 121 72.5 192.5t199.5 71.5q57 0 123 -16l-10 -150q-39 14 -91 14.5t-83 -22t-37 -94.5l-96 -1395q-8 -119 -74.5 -191.5t-198.5 -72.5q-59 0 -122 18z" />
<glyph unicode="&#x2248;" horiz-adv-x="1382" d="M160 301q29 121 99.5 183.5t174 62.5t279.5 -78t248 -78q126 0 155 139l113 -26q-29 -121 -99.5 -183.5t-174 -62.5t-279.5 78t-248 78q-127 0 -156 -140zM160 680q29 121 99.5 182.5t174 61.5t279.5 -77t248 -77q126 0 155 137l113 -26q-29 -121 -99.5 -182.5 t-174 -61.5t-279.5 77t-248 77q-127 0 -156 -138z" />
<glyph unicode="&#x2260;" horiz-adv-x="1409" d="M131 369v159h404l184 293v6h-588v160h692l197 311l104 -65l-151 -240v-6h297v-160h-402l-186 -292v-7h588v-159h-692l-199 -314l-103 66l154 241v7h-299z" />
<glyph unicode="&#x2264;" horiz-adv-x="1290" d="M129 0v150h995v-150h-995zM129 637v164l995 395v-180l-782 -295v-4l782 -295v-180z" />
<glyph unicode="&#x2265;" horiz-adv-x="1290" d="M166 0v150h995v-150h-995zM166 242v180l782 295v4l-782 295v180l995 -395v-164z" />
<glyph unicode="&#x25ca;" horiz-adv-x="1282" d="M72 612l491 818h156l491 -818l-491 -817h-156zM252 612l387 -657h4l387 657l-387 658h-4z" />
<glyph unicode="&#xe000;" horiz-adv-x="1044" d="M0 0v1044h1044v-1044h-1044z" />
</font>
</defs>
</svg>
