<?xml version="1.0" standalone="no"?>
<!DOCTYPE svg PUBLIC "-//W3C//DTD SVG 1.1//EN" "http://www.w3.org/Graphics/SVG/1.1/DTD/svg11.dtd" >
<svg xmlns="http://www.w3.org/2000/svg">
<metadata></metadata>
<defs>
<font id="source_code_probold" horiz-adv-x="1228" >
<font-face units-per-em="2048" ascent="1536" descent="-512" />
<missing-glyph horiz-adv-x="500" />
<glyph horiz-adv-x="0" />
<glyph horiz-adv-x="682" />
<glyph horiz-adv-x="0" />
<glyph horiz-adv-x="0" />
<glyph unicode="&#xd;" />
<glyph unicode=" " />
<glyph unicode="!" d="M410 184q0 92 58 148.5t146 56.5t146.5 -56.5t58.5 -148.5t-58.5 -150.5t-146.5 -58.5t-146 58.5t-58 150.5zM465 1372h299l-10 -272l-41 -578h-197l-41 578z" />
<glyph unicode="&#x22;" d="M170 1403h348l-10 -297l-71 -485h-185l-71 485zM712 1403h348l-10 -297l-71 -485h-185l-71 485z" />
<glyph unicode="#" d="M143 383v192h174l29 226h-162v192h187l43 338h172l-41 -338h213l43 338h172l-41 -338h162v-192h-187l-26 -226h172v-192h-195l-47 -383h-174l45 383h-211l-47 -383h-174l45 383h-152zM494 575h211l28 226h-213z" />
<glyph unicode="$" d="M131 236l131 204q98 -59 185.5 -93t185.5 -34q74 0 112.5 24.5t38.5 68.5q0 43 -44 71.5t-110.5 55t-144 55t-144.5 71.5t-111 106.5t-44 158.5q0 133 90.5 221t245.5 112v269h201v-266q106 -14 185 -58.5t143 -109.5l-150 -172q-72 51 -136.5 76.5t-148.5 25.5 q-141 0 -141 -94q0 -37 44 -61.5t110.5 -49t143.5 -53.5t143.5 -73t110.5 -107.5t44 -155.5q0 -129 -88 -224t-260 -124v-305h-201v299q-100 10 -206.5 52t-184.5 110z" />
<glyph unicode="%" d="M37 207l381 354l104 -96l-332 -408zM51 988q0 80 22.5 142t63.5 106t96.5 68t120.5 24q66 0 121.5 -24t96 -68t63.5 -106.5t23 -141.5q0 -80 -23 -144.5t-63.5 -109.5t-96 -70t-121.5 -25t-121 25t-96 70t-63.5 109.5t-22.5 144.5zM256 988q0 -104 29.5 -145.5 t68.5 -41.5t69 41t30 146q0 104 -30 141t-69 37t-68.5 -37t-29.5 -141zM573 324q0 80 22.5 142t63.5 106t96.5 68t120.5 24q66 0 121.5 -24t96 -68t63.5 -106.5t23 -141.5q0 -80 -23 -144.5t-63.5 -109.5t-96 -70t-121.5 -25t-121 25t-96 70t-63.5 109.5t-22.5 144.5z M711 870l331 408l154 -150l-381 -356zM778 324q0 -104 29.5 -145.5t68.5 -41.5t69 41t30 146q0 104 -30 141t-69 37t-68.5 -37t-29.5 -141z" />
<glyph unicode="&#x26;" d="M47 356q0 66 17.5 120t47 98t68.5 81t82 68q-41 78 -63.5 150.5t-22.5 136.5q0 72 22.5 135t65.5 111.5t104.5 76t137.5 27.5q152 0 236.5 -82t84.5 -221q0 -63 -22.5 -115.5t-58 -97.5t-80.5 -84t-93 -76q49 -63 112 -123.5t128 -114.5q37 66 65.5 142t47.5 166h274 q-31 -123 -76 -234.5t-110 -216.5q104 -66 186 -84l-72 -244q-139 33 -282 129q-76 -59 -167 -94t-204 -35q-104 0 -184 31t-134.5 83t-82 121t-27.5 146zM332 375q0 -76 50 -123t132 -47q66 0 131 47q-72 61 -136.5 130t-117.5 142q-29 -35 -44 -71.5t-15 -77.5zM424 1012 q0 -70 39 -154q57 41 95 88t38 111q0 47 -18.5 75.5t-65.5 28.5q-39 0 -63.5 -39.5t-24.5 -109.5z" />
<glyph unicode="'" d="M440 1403h348l-10 -297l-71 -485h-185l-71 485z" />
<glyph unicode="(" d="M371 569q0 291 115.5 524.5t316.5 411.5l168 -133q-182 -178 -265 -369.5t-83 -433.5q0 -121 20.5 -228.5t62.5 -205.5t107.5 -189t157.5 -179l-168 -134q-201 178 -316.5 412t-115.5 524z" />
<glyph unicode=")" d="M258 -233q92 88 157.5 179t107.5 189t62.5 206t20.5 228q0 242 -83 433.5t-265 369.5l168 133q201 -178 316.5 -411.5t115.5 -524.5t-115.5 -524t-316.5 -412z" />
<glyph unicode="*" d="M131 737l47 146l332 -88l25 364h159l25 -364l332 88l47 -146l-314 -139l199 -322l-131 -90l-238 291l-237 -291l-131 90l198 322z" />
<glyph unicode="+" d="M143 569v213h361v377h221v-377h360v-213h-360v-376h-221v376h-361z" />
<glyph unicode="," d="M373 -268q266 92 266 291q-8 -2 -23 -3q-43 0 -82.5 13.5t-70.5 40t-49.5 65.5t-18.5 90q0 96 66.5 153.5t163.5 57.5q127 0 190.5 -93t63.5 -259q0 -197 -108.5 -332t-321.5 -200z" />
<glyph unicode="-" d="M143 569v213h942v-213h-942z" />
<glyph unicode="." d="M377 215q0 51 17.5 95t48 77t74.5 51.5t97 18.5t97.5 -18.5t75 -51.5t48 -77t17.5 -95q0 -102 -65.5 -171t-172.5 -69q-106 0 -171.5 69t-65.5 171z" />
<glyph unicode="/" d="M152 -328l673 1782h252l-674 -1782h-251z" />
<glyph unicode="0" d="M115 655q0 166 35.5 291t101 210t158 127t204.5 42q113 0 205 -42t157.5 -127t101.5 -210t36 -291t-36 -292.5t-101.5 -213t-157.5 -130.5t-205 -44t-205 44t-157.5 130.5t-101 213t-35.5 292.5zM383 655q0 -127 18.5 -212t49 -137t72.5 -74.5t91 -22.5t91.5 22.5 t73 74.5t49 137t18.5 212t-18.5 211t-49 134.5t-73 71t-91.5 20.5t-91 -20.5t-72.5 -71t-49 -134.5t-18.5 -211zM461 659q0 72 44 114t109 42q66 0 110 -42t44 -114t-44 -113.5t-110 -41.5t-109.5 42t-43.5 113z" />
<glyph unicode="1" d="M168 0v244h336v751h-268v187q115 20 195.5 49t152.5 69h221v-1056h295v-244h-932z" />
<glyph unicode="2" d="M104 1118q51 51 101.5 90t107 64.5t119 39t137.5 13.5q102 0 186.5 -29.5t145 -84t94 -130t33.5 -170.5q0 -82 -39 -167t-105.5 -170t-152.5 -170t-180 -166q55 6 119.5 11t115.5 5h310v-254h-977v172q139 117 253.5 218.5t196.5 189.5t127 165.5t45 147.5 q0 96 -55 146.5t-158 50.5q-78 0 -142 -40t-120 -94z" />
<glyph unicode="3" d="M86 160l139 190q66 -57 147 -94t171 -37q106 0 174.5 40t68.5 114q0 43 -18 77.5t-63.5 58t-121 37t-190.5 13.5v213q193 0 271.5 48t78.5 126q0 68 -51 106t-141 38q-78 0 -143.5 -31t-133.5 -84l-151 184q96 78 205.5 122t236.5 44q106 0 194.5 -23.5t152 -69.5 t98 -111.5t34.5 -151.5q0 -102 -65.5 -173t-181.5 -116v-8q123 -33 206.5 -112t83.5 -206q0 -90 -41.5 -160.5t-112.5 -118.5t-165 -74t-197 -26q-168 0 -288.5 50.5t-196.5 134.5z" />
<glyph unicode="4" d="M72 311v207l542 782h365v-759h164v-230h-164v-311h-281v311h-626zM362 541h336v219q0 61 3.5 142t7.5 142h-9q-33 -55 -69.5 -110t-71.5 -111z" />
<glyph unicode="5" d="M94 158l135 190q66 -53 140.5 -91t167.5 -38q111 0 181 51.5t70 151.5q0 98 -66.5 149.5t-170.5 51.5q-33 0 -58.5 -3.5t-50 -11.5t-51 -20.5t-59.5 -30.5l-133 86l34 657h797v-253h-536l-23 -244q45 16 84 23.5t88 7.5q90 0 171 -25t142.5 -74t97.5 -124.5t36 -180.5 q0 -109 -42 -192.5t-113 -142t-163 -89.5t-192 -31q-170 0 -288 52.5t-198 130.5z" />
<glyph unicode="6" d="M123 621q0 182 47 315t126 219t179 128t209 42q139 0 243.5 -46t170.5 -110l-158 -180q-41 37 -102.5 64.5t-126.5 27.5q-59 0 -113.5 -21.5t-96.5 -69.5t-68.5 -126t-31.5 -192q70 68 155 104.5t159 36.5q86 0 158.5 -24.5t127 -73.5t85 -125t30.5 -178t-38 -182 t-102.5 -137.5t-148.5 -87.5t-178 -30q-100 0 -194.5 37t-168 115t-118.5 200t-45 294zM410 473q12 -78 35.5 -130t54 -84t67.5 -45t76 -13t75 12t63.5 37.5t44 65.5t16.5 96q0 100 -53.5 144t-139.5 44q-57 0 -118.5 -28.5t-120.5 -98.5z" />
<glyph unicode="7" d="M127 1047v253h977v-184q-123 -137 -199 -257t-119 -248t-61 -274.5t-27 -336.5h-303q8 162 32 298t68 260t113.5 242t171.5 247h-653z" />
<glyph unicode="8" d="M125 332q0 59 19.5 107t53 87t77.5 70t96 55v8q-82 57 -136.5 130t-54.5 178q0 82 33 148.5t91 113.5t140 71.5t179 24.5q98 0 177 -25.5t134 -71.5t85 -112.5t30 -146.5q0 -92 -54.5 -164t-132.5 -121v-8q51 -25 96.5 -56.5t78 -72.5t51 -93.5t18.5 -117.5 q0 -78 -33 -143.5t-95.5 -113.5t-154.5 -76t-211 -28q-113 0 -203 26t-153 73t-97 112.5t-34 145.5zM385 367q0 -86 67.5 -134.5t168.5 -48.5q92 0 148 40t56 122q0 45 -22.5 76t-64.5 56.5t-99 47t-127 47.5q-55 -41 -91 -92t-36 -114zM444 967q0 -80 71.5 -125t186.5 -84 q98 88 99 190q0 76 -47 122t-138 46q-72 0 -122 -37t-50 -112z" />
<glyph unicode="9" d="M109 889q0 100 37.5 181t102 138.5t148.5 87t178 29.5q100 0 195.5 -37t169.5 -114.5t118 -199.5t44 -294q0 -182 -47 -315.5t-125 -219.5t-179.5 -128t-207.5 -42q-139 0 -243.5 47.5t-172.5 108.5l160 180q41 -37 102.5 -64.5t126.5 -27.5q59 0 113.5 21.5t96.5 69.5 t68.5 127t30.5 194q-72 -68 -156.5 -106t-156.5 -38q-86 0 -159.5 25t-128 74t-85 124.5t-30.5 178.5zM383 889q0 -100 53.5 -144.5t141.5 -44.5q57 0 118.5 29t120.5 100q-12 76 -35.5 128.5t-55.5 84t-68.5 45t-75.5 13.5t-75 -12.5t-63.5 -38t-44 -65.5t-16.5 -95z" />
<glyph unicode=":" d="M377 215q0 51 17.5 95t48 77t74.5 51.5t97 18.5t97.5 -18.5t75 -51.5t48 -77t17.5 -95q0 -102 -65.5 -171t-172.5 -69q-106 0 -171.5 69t-65.5 171zM377 877q0 51 17.5 95t48 77t74.5 51.5t97 18.5t97.5 -18.5t75 -51.5t48 -77t17.5 -95q0 -102 -65.5 -171t-172.5 -69 q-106 0 -171.5 69t-65.5 171z" />
<glyph unicode=";" d="M373 -268q266 92 266 291q-8 -2 -23 -3q-43 0 -82.5 13.5t-70.5 40t-49.5 65.5t-18.5 90q0 96 66.5 153.5t163.5 57.5q127 0 190.5 -93t63.5 -259q0 -197 -108.5 -332t-321.5 -200zM377 877q0 51 17.5 95t48 77t74.5 51.5t97 18.5t97.5 -18.5t75 -51.5t48 -77t17.5 -95 q0 -102 -65.5 -171t-172.5 -69q-106 0 -171.5 69t-65.5 171z" />
<glyph unicode="&#x3c;" d="M238 575v209l790 512v-272l-543 -340v-8l543 -340v-273z" />
<glyph unicode="=" d="M143 333v213h942v-213h-942zM143 807v213h942v-213h-942z" />
<glyph unicode="&#x3e;" d="M201 63v273l542 340v8l-542 340v272l790 -512v-209z" />
<glyph unicode="?" d="M201 1212q74 82 174 133.5t223 51.5q88 0 165 -20.5t133 -62.5t89 -104.5t33 -146.5q0 -68 -24.5 -117t-61.5 -90t-78 -76t-76 -72.5t-55.5 -81.5t-13.5 -104h-263q-12 68 5.5 122t48 97t70.5 78t75 68t59.5 65.5t24.5 71.5q0 66 -43 97.5t-108 31.5q-63 0 -112.5 -26.5 t-96.5 -67.5zM381 184q0 92 58.5 148.5t146.5 56.5t146.5 -56.5t58.5 -148.5t-58.5 -150.5t-146.5 -58.5t-146.5 58.5t-58.5 150.5z" />
<glyph unicode="@" d="M63 518q0 209 49.5 359.5t133.5 249t195.5 145.5t236.5 47q117 0 202 -39t139 -106.5t80.5 -158.5t26.5 -198v-612h-159l-23 104h-8q-39 -57 -100.5 -93t-145.5 -36q-55 0 -103 22.5t-83 61.5t-54.5 91.5t-19.5 111.5q0 82 36 142.5t102.5 102.5t160.5 67.5t211 39.5v33 q0 57 -16.5 108.5t-49 91.5t-84 63.5t-118.5 23.5q-72 0 -143.5 -35t-129 -110.5t-93.5 -195.5t-36 -288q0 -160 37 -277.5t97.5 -196.5t138.5 -117t162 -38q92 0 152.5 21.5t119.5 56.5l86 -149q-86 -51 -172 -81t-197 -30q-123 0 -236.5 49t-201.5 150.5t-140.5 256 t-52.5 363.5zM649 475q0 -47 29 -72.5t80 -25.5q45 0 80.5 19.5t70.5 54.5v188q-143 -23 -201.5 -59.5t-58.5 -104.5z" />
<glyph unicode="A" d="M18 0l416 1335h361l415 -1335h-319l-80 317h-403l-82 -317h-308zM469 553h281l-31 123q-27 100 -53.5 212.5t-53.5 217.5h-8q-25 -106 -51.5 -218t-52.5 -212z" />
<glyph unicode="B" d="M172 0v1335h418q104 0 193 -15t155 -54t103.5 -102.5t37.5 -159.5q0 -45 -13 -90.5t-42 -84t-72 -69.5t-102 -45v-8q143 -27 217 -103t74 -211q0 -102 -39 -176t-108.5 -122t-163 -71.5t-201.5 -23.5h-457zM473 233h131q242 0 242 183q0 88 -58.5 128t-183.5 40h-131 v-351zM473 797h102q111 0 160 44t49 120t-50 108.5t-156 32.5h-105v-305z" />
<glyph unicode="C" d="M113 659q0 166 49 296t135 220.5t202.5 137.5t250.5 47q129 0 228 -52.5t167 -117.5l-166 -186q-47 43 -102.5 69.5t-126.5 26.5q-72 0 -131.5 -30t-103.5 -85t-68.5 -135t-24.5 -180q0 -207 94 -320.5t246 -113.5q72 0 130 32.5t107 85.5l166 -182q-168 -197 -422 -197 q-129 0 -243.5 44t-200.5 130.5t-136 214t-50 295.5z" />
<glyph unicode="D" d="M133 0v1335h363q145 0 264 -39t203 -119.5t130 -205.5t46 -297t-46 -299t-129 -210t-198 -124t-254 -41h-379zM436 244h43q78 0 142.5 22.5t110.5 72.5t71.5 132t25.5 203q0 119 -25.5 199.5t-71.5 129t-110.5 69t-142.5 20.5h-43v-848z" />
<glyph unicode="E" d="M193 0v1335h880v-254h-579v-268h491v-252h-491v-307h600v-254h-901z" />
<glyph unicode="F" d="M221 0v1335h881v-254h-580v-309h494v-254h-494v-518h-301z" />
<glyph unicode="G" d="M90 659q0 168 48 298t131 219.5t196 136.5t242 47q135 0 230 -52.5t161 -117.5l-166 -186q-43 43 -94.5 69.5t-130.5 26.5q-66 0 -121.5 -30t-96 -85t-64.5 -135t-24 -180q0 -207 79 -320.5t239 -113.5q39 0 73.5 10t57.5 30v230h-195v246h465v-615 q-68 -63 -178.5 -112.5t-239.5 -49.5t-240.5 44t-194.5 130.5t-130 214t-47 295.5z" />
<glyph unicode="H" d="M131 0v1335h301v-514h365v514h301v-1335h-301v557h-365v-557h-301z" />
<glyph unicode="I" d="M152 0v254h311v827h-311v254h925v-254h-311v-827h311v-254h-925z" />
<glyph unicode="J" d="M121 197l174 186q119 -147 254 -147q104 0 155.5 52t51.5 191v604h-523v252h824v-880q0 -98 -25.5 -185.5t-85 -153t-155 -103.5t-232.5 -38q-55 0 -114.5 11.5t-117 38t-110.5 68.5t-96 104z" />
<glyph unicode="K" d="M139 0v1335h305v-547h7l395 547h332l-400 -532l439 -803h-334l-283 563l-156 -205v-358h-305z" />
<glyph unicode="L" d="M219 0v1335h301v-1081h594v-254h-895z" />
<glyph unicode="M" d="M133 0v1335h301l135 -473l45 -184h7l45 184l129 473h301v-1335h-244v436q0 55 4 136t10 167t12.5 167t12.5 134h-6l-105 -366l-102 -318h-133l-103 318l-100 366h-8q6 -53 12 -134t12.5 -167t10.5 -166.5t4 -136.5v-436h-240z" />
<glyph unicode="N" d="M135 0v1335h307l283 -665l115 -293h8q-10 106 -26.5 237t-16.5 248v473h289v-1335h-308l-282 666l-115 290h-8q10 -111 26.5 -237.5t16.5 -245.5v-473h-289z" />
<glyph unicode="O" d="M78 674q0 164 39 292t109.5 215t170 133t217.5 46q119 0 218.5 -46t170 -134t109.5 -216t39 -290q0 -164 -39 -293t-109.5 -219t-170 -138.5t-218.5 -48.5t-218 48.5t-169.5 138.5t-109.5 219t-39 293zM387 674q0 -203 61.5 -320.5t165.5 -117.5t166 117.5t62 320.5 q0 201 -61.5 313.5t-166.5 112.5q-104 0 -165.5 -113t-61.5 -313z" />
<glyph unicode="P" d="M152 0v1335h487q109 0 204 -21.5t165.5 -71.5t111.5 -133t41 -204q0 -117 -42 -203t-113.5 -141t-166 -81.5t-200.5 -26.5h-186v-453h-301zM453 692h168q243 0 243 211q0 106 -61.5 149.5t-181.5 43.5h-168v-404z" />
<glyph unicode="Q" d="M74 674q0 164 39 292t108.5 215t167.5 133t219 46q119 0 217.5 -46t168 -134t108.5 -216t39 -290q0 -264 -96.5 -437.5t-262.5 -232.5q35 -72 103.5 -99.5t140.5 -27.5q31 0 58.5 8.5t50.5 18.5l53 -226q-35 -18 -84 -30.5t-113 -12.5q-98 0 -180 27t-148.5 74 t-115.5 113.5t-80 144.5q-180 51 -286.5 226t-106.5 454zM383 674q0 -203 59.5 -320.5t165.5 -117.5q104 0 165 117.5t61 320.5q0 201 -61 313.5t-165 112.5q-106 0 -165.5 -113t-59.5 -313z" />
<glyph unicode="R" d="M143 0v1335h473q106 0 199.5 -20.5t164.5 -68.5t112 -128t41 -198q0 -147 -66 -242.5t-172 -142.5l301 -535h-338l-256 481h-158v-481h-301zM444 721h148q244 0 244 199q0 98 -61.5 137t-182.5 39h-148v-375z" />
<glyph unicode="S" d="M102 168l174 207q76 -61 165 -100t177 -39q104 0 152.5 34.5t48.5 94.5q0 31 -14 53t-41 39.5t-64.5 33t-87.5 33.5l-172 74q-55 20 -107 53t-91 77t-62.5 102.5t-23.5 132.5q0 82 35.5 154.5t100 126.5t155 85t198.5 31q123 0 237.5 -45t207.5 -131l-154 -191 q-70 51 -137.5 79t-153.5 28q-88 0 -136 -32t-48 -89q0 -61 61.5 -92t157.5 -66l162 -69q133 -49 209.5 -135.5t76.5 -227.5q0 -84 -34.5 -158.5t-100 -131t-162 -90.5t-221.5 -34q-135 0 -267 48.5t-241 144.5z" />
<glyph unicode="T" d="M63 1081v254h1102v-254h-399v-1081h-303v1081h-400z" />
<glyph unicode="U" d="M131 514v821h301v-852q0 -121 45 -184t141 -63t142.5 63t46.5 184v852h291v-821q0 -262 -118 -400.5t-362 -138.5q-246 0 -366.5 138.5t-120.5 400.5z" />
<glyph unicode="V" d="M31 1335h319l160 -622q31 -111 54.5 -214.5t51.5 -213.5h9q31 111 55.5 214t52.5 214l158 622h307l-401 -1335h-363z" />
<glyph unicode="W" d="M8 1335h307l43 -710q2 -86 4.5 -170t4.5 -170h6q16 86 35.5 170t35.5 170l93 370h182l88 -370q16 -82 34.5 -168t35.5 -172h8q4 86 5 171t5 169l39 710h287l-166 -1335h-316l-84 420q-12 63 -22 129.5t-15 126.5h-6q-6 -59 -15 -126t-22 -130l-79 -420h-310z" />
<glyph unicode="X" d="M37 0l389 686l-367 649h338l129 -252q23 -47 47.5 -99t55.5 -116h8q25 63 46.5 115.5t43.5 99.5l119 252h323l-366 -663l389 -672h-336l-145 272q-29 53 -53.5 105.5t-53.5 114.5h-8q-25 -61 -49.5 -113.5t-48.5 -106.5l-140 -272h-321z" />
<glyph unicode="Y" d="M33 1335h323l136 -321q29 -78 59.5 -152t60.5 -153h9q33 80 63.5 153.5t60.5 151.5l136 321h315l-430 -884v-451h-303v451z" />
<glyph unicode="Z" d="M115 0v182l626 901h-567v252h938v-182l-625 -899h633v-254h-1005z" />
<glyph unicode="[" d="M412 -311v1761h604v-160h-375v-1442h375v-159h-604z" />
<glyph unicode="\" d="M152 1454h251l674 -1782h-252z" />
<glyph unicode="]" d="M215 -152h373v1442h-373v160h604v-1761h-604v159z" />
<glyph unicode="^" d="M176 561l318 811h241l318 -811h-248l-94 262l-93 277h-8l-92 -277l-94 -262h-248z" />
<glyph unicode="_" d="M123 -111h983v-225h-983v225z" />
<glyph unicode="`" d="M293 1518h307l182 -342h-219z" />
<glyph unicode="a" d="M125 283q0 86 37 150.5t117.5 109.5t207.5 72.5t308 37.5q-8 70 -60.5 109t-156.5 39q-74 0 -149 -25.5t-161 -68.5l-106 196q104 59 224 98t251 39q213 0 336 -112.5t123 -345.5v-582h-246l-23 115h-8q-78 -59 -170 -99.5t-190 -40.5q-78 0 -139.5 24t-104.5 65.5 t-66.5 97t-23.5 121.5zM414 305q0 -49 37.5 -72.5t103.5 -23.5q68 0 127 27.5t113 68.5v168q-113 -6 -186.5 -20.5t-116.5 -36t-60.5 -50t-17.5 -61.5z" />
<glyph unicode="b" d="M147 0v1436h302v-353l-9 -159q59 55 134 85.5t149 30.5q94 0 171 -36.5t129 -103t81 -162t29 -212.5q0 -131 -37 -233.5t-98.5 -173t-140.5 -107.5t-165 -37q-72 0 -142.5 35t-133.5 101h-8l-25 -111h-236zM449 289q43 -37 89 -52.5t87 -15.5q84 0 141 70.5t57 228.5 q0 274 -186 275q-96 0 -188 -95v-411z" />
<glyph unicode="c" d="M137 508q0 127 48 226.5t129 167t187.5 103t223.5 35.5q121 0 218 -38.5t163 -98.5l-139 -186q-113 80 -226 80q-131 0 -213 -78t-82 -211t79 -211t206 -78q80 0 147.5 28.5t120.5 67.5l123 -190q-92 -78 -203.5 -114t-216.5 -36q-121 0 -223 36t-179 103.5t-120 167 t-43 226.5z" />
<glyph unicode="d" d="M96 508q0 125 37 223t97.5 167t138 105.5t161.5 36.5q88 0 147.5 -29.5t113.5 -78.5l-11 158v346h301v-1436h-245l-23 104h-6q-57 -55 -131 -92t-152 -37q-96 0 -175 37t-135 105.5t-87 167t-31 223.5zM406 512q0 -152 51 -221.5t145 -69.5q51 0 94 21.5t84 72.5v412 q-41 37 -83 52.5t-87 15.5q-84 0 -144 -70t-60 -213z" />
<glyph unicode="e" d="M113 508q0 125 44 223t117.5 167t169 105.5t197.5 36.5q117 0 207 -36.5t149.5 -102t90 -155t30.5 -193.5q0 -41 -4 -78t-8 -55h-684q16 -115 99 -165t196 -50q70 0 132 17.5t130 51.5l98 -180q-86 -55 -192.5 -87t-208.5 -32q-119 0 -221.5 36t-178 104.5t-119.5 167 t-44 225.5zM418 618h428q0 86 -47 139.5t-152 53.5q-82 0 -145.5 -47t-83.5 -146z" />
<glyph unicode="f" d="M168 780v224l268 12v26q0 88 26.5 164t82 132.5t141.5 89t205 32.5q88 0 165 -16.5t142 -38.5l-57 -221q-100 39 -213 39q-98 0 -144.5 -43t-46.5 -136v-28h350v-236h-350v-780h-301v780h-268z" />
<glyph unicode="g" d="M106 -172q0 125 158 203v8q-41 27 -71.5 67.5t-30.5 106.5q0 51 33.5 102.5t87.5 87.5v9q-55 37 -94 103.5t-39 156.5q0 92 35.5 160.5t95 114.5t138.5 69.5t165 23.5q94 0 168 -24h411v-219h-207q18 -23 33 -59t15 -76q0 -88 -33 -152t-89.5 -106t-133 -62t-164.5 -20 q-66 0 -140 20q-23 -16 -34 -32.5t-11 -41.5q0 -41 41 -59.5t131 -18.5h189q201 0 306 -59t105 -197q0 -80 -43 -147.5t-120.5 -115.5t-190 -75.5t-250.5 -27.5q-98 0 -183 15.5t-146.5 47t-96.5 80.5t-35 117zM352 -127q0 -57 68.5 -87t189.5 -30q123 0 199 36t76 89 q0 49 -45 64.5t-133 15.5h-127q-55 0 -91 3t-65 9q-39 -25 -55.5 -48t-16.5 -52zM432 672q0 -84 44.5 -126t107.5 -42t109 42t46 126q0 82 -46 124t-109 42t-107.5 -42t-44.5 -124z" />
<glyph unicode="h" d="M147 0v1436h302v-353l-17 -194q31 29 67 56.5t77.5 49t92 33.5t107.5 12q172 0 251 -110.5t79 -302.5v-627h-301v588q0 102 -33 149t-117 47q-61 0 -107 -26.5t-99 -79.5v-678h-302z" />
<glyph unicode="i" d="M162 780v236h708v-1016h-301v780h-407zM506 1348q0 84 56 136t145 52q88 0 144 -52t56 -136t-56 -133.5t-144 -49.5t-144.5 49.5t-56.5 133.5z" />
<glyph unicode="j" d="M86 -332l88 215q61 -29 111.5 -39t95.5 -10q109 0 148.5 52.5t39.5 162.5v731h-407v236h708v-955q0 -92 -21.5 -176t-75.5 -147.5t-145 -101t-229 -37.5q-94 0 -170.5 19.5t-142.5 49.5zM506 1348q0 84 56 136t145 52q88 0 144 -52t56 -136t-56 -133.5t-144 -49.5 t-144.5 49.5t-56.5 133.5z" />
<glyph unicode="k" d="M156 0v1436h301v-830h8l373 410h329l-385 -418l416 -598h-326l-266 414l-149 -158v-256h-301z" />
<glyph unicode="l" d="M127 1198v238h596v-1051q0 -47 13.5 -79t37 -51t53 -27.5t60.5 -8.5q35 0 73.5 7t86.5 26l67 -221q-41 -12 -75.5 -22.5t-69.5 -17.5t-74 -11.5t-86 -4.5q-193 0 -290 114t-97 308v801h-295z" />
<glyph unicode="m" d="M74 0v1016h225l23 -127h8q29 63 79 107t138 44q68 0 114 -42t64 -124q29 70 83 118t140 48q106 0 166 -87t60 -240v-713h-283v690q0 94 -57 94q-55 0 -95 -98v-686h-231v690q0 94 -59 94q-29 0 -49.5 -24.5t-43.5 -73.5v-686h-282z" />
<glyph unicode="n" d="M147 0v1016h246l23 -135h8q66 66 150.5 112.5t199.5 46.5q172 0 252 -110.5t80 -302.5v-627h-301v588q0 102 -33 149t-117 47q-61 0 -107 -26.5t-99 -79.5v-678h-302z" />
<glyph unicode="o" d="M96 508q0 127 43 226.5t116 167t166 103t193 35.5t193.5 -35.5t166.5 -103t116 -167t43 -226.5t-43 -226.5t-116 -167t-166 -103.5t-194 -36q-100 0 -193 36t-166 103.5t-116 167t-43 226.5zM406 508q0 -133 52 -211t156 -78t156.5 78t52.5 211t-52 211t-157 78 q-104 0 -156 -78t-52 -211z" />
<glyph unicode="p" d="M147 -377v1393h246l23 -103h6q61 55 141 91t162 36q94 0 170 -36.5t129 -104.5t81 -163t28 -212q0 -131 -37 -232.5t-98.5 -172t-140.5 -107.5t-165 -37q-139 0 -254 111l11 -166v-297h-302zM449 289q43 -37 89 -52.5t85 -15.5q86 0 143 70.5t57 228.5q0 274 -186 275 q-96 0 -188 -95v-411z" />
<glyph unicode="q" d="M96 508q0 125 37 223t97.5 167t138 105.5t161.5 36.5q86 0 153 -30.5t130 -98.5h8l25 105h235v-1393h-301v314l13 155q-53 -51 -125 -84t-144 -33q-96 0 -175 37t-135 105.5t-87 167t-31 223.5zM406 512q0 -152 51 -221.5t145 -69.5q51 0 94 21.5t84 72.5v412 q-41 37 -83 52.5t-87 15.5q-84 0 -144 -70t-60 -213z" />
<glyph unicode="r" d="M238 0v1016h245l25 -221h6q76 125 182.5 185t229.5 60q68 0 109.5 -10t86.5 -31l-61 -251q-47 14 -85 21t-95 7q-94 0 -185.5 -55t-156.5 -193v-528h-301z" />
<glyph unicode="s" d="M109 131l135 188q88 -55 177 -87.5t191 -32.5q104 0 149.5 22.5t45.5 63.5q0 47 -75 76.5t-197 64.5q-68 18 -132.5 44t-115.5 61.5t-83 83t-32 108.5q0 70 33 129t93 100t147 64.5t196 23.5q135 0 246.5 -44t191.5 -95l-135 -180q-70 41 -143.5 68.5t-153.5 27.5 q-96 0 -136 -20.5t-40 -59.5q0 -23 20.5 -41t55.5 -32.5t83 -27.5t101 -28q76 -20 143.5 -45.5t118.5 -60.5t82 -84t31 -115q0 -70 -33 -129t-95.5 -103t-155.5 -70t-216 -26q-137 0 -268 45.5t-229 110.5z" />
<glyph unicode="t" d="M100 780v224l271 12l39 270h247v-270h430v-236h-430v-356q0 -117 51.5 -165t161.5 -48q59 0 108.5 10t94.5 27l53 -217q-68 -20 -150.5 -38t-180.5 -18q-121 0 -205 33t-136.5 91.5t-75 140.5t-22.5 182v358h-256z" />
<glyph unicode="u" d="M127 389v627h301v-588q0 -102 30.5 -149.5t116.5 -47.5q57 0 101.5 25t97.5 92v668h301v-1016h-246l-22 145h-8q-68 -78 -150 -124t-192 -46q-174 0 -252 111t-78 303z" />
<glyph unicode="v" d="M63 1016h304l159 -479q25 -78 47.5 -156t44.5 -158h9q23 80 44 158t46 156l160 479h288l-372 -1016h-347z" />
<glyph unicode="w" d="M8 1016h295l62 -471q10 -76 17 -149.5t17 -151.5h7q10 78 20 153.5t27 147.5l63 336h211l68 -336q14 -76 26.5 -149.5t22.5 -151.5h8q10 78 16 151.5t17 149.5l61 471h275l-158 -1016h-348l-58 338q-10 72 -19 144.5t-20 154.5h-8q-6 -55 -13 -125t-24 -174l-55 -338 h-342z" />
<glyph unicode="x" d="M76 0l352 528l-330 488h324l104 -164q23 -43 51.5 -87t55.5 -87h8q20 43 42 88t42 86l90 164h315l-331 -522l352 -494h-324l-116 168q-29 43 -58.5 88t-58.5 88h-8q-23 -43 -47.5 -87t-46.5 -89l-101 -168h-315z" />
<glyph unicode="y" d="M63 1016h299l170 -436q29 -72 53.5 -149t49.5 -157h8q20 76 45 153t47 153l150 436h284l-401 -1026q-37 -96 -80 -169t-98 -121t-128 -72.5t-169 -24.5q-45 0 -84 5t-72 15l53 230q39 -12 80 -13q88 0 138.5 37t74.5 96l21 54z" />
<glyph unicode="z" d="M143 0v162l533 618h-467v236h883v-160l-533 -620h549v-236h-965z" />
<glyph unicode="{" d="M217 481v176q82 2 136.5 15.5t87 35t45 48t12.5 53.5q0 47 -3 88t-7.5 81t-7.5 84t-3 97q0 166 92.5 228.5t288.5 62.5h158v-160h-84q-63 0 -104.5 -6t-64 -22.5t-31.5 -44t-9 -70.5q0 -82 5 -162t5 -172q0 -117 -47 -169t-158 -71v-8q111 -18 158 -70.5t47 -168.5 q0 -94 -5 -172t-5 -162q0 -43 9 -70.5t31.5 -44t63.5 -23t105 -6.5h84v-159h-158q-197 0 -289 62.5t-92 228.5q0 55 3 98t7.5 83t7.5 80t3 89q0 27 -12.5 53.5t-45 48t-87 34.5t-136.5 15z" />
<glyph unicode="|" d="M481 -512v2048h267v-2048h-267z" />
<glyph unicode="}" d="M215 -152h84q63 0 103 6.5t62.5 23t32 44t9.5 70.5q0 84 -4 161.5t-4 172.5q0 117 47 169t157 70v8q-111 18 -157.5 70.5t-46.5 169.5q0 92 4 172t4 162q0 43 -9.5 70.5t-32 44t-62.5 22.5t-103 6h-84v160h158q197 0 289 -62.5t92 -228.5q0 -53 -3 -97t-8.5 -84t-8.5 -81 t-3 -88q0 -27 12.5 -53.5t45 -48t87 -35t138.5 -15.5v-176q-84 -2 -138.5 -15t-87 -34.5t-45 -48.5t-12.5 -53q0 -49 3 -89t8.5 -80t8.5 -83t3 -98q0 -166 -92.5 -228.5t-288.5 -62.5h-158v159z" />
<glyph unicode="~" d="M106 563q66 160 152 228.5t182 68.5q63 0 110.5 -24.5t87.5 -53t76 -53t79 -24.5t81.5 40.5t67.5 126.5l180 -84q-66 -160 -151.5 -228t-182.5 -68q-63 0 -110 24.5t-87 53t-76 53t-79 24.5q-41 0 -81 -41t-68 -127z" />
<glyph unicode="&#xa0;" />
<glyph unicode="&#xa1;" d="M410 831q0 92 58 150.5t146 58.5t146.5 -58.5t58.5 -150.5t-58.5 -148t-146.5 -56t-146 56t-58 148zM465 -356l10 272l41 578h197l41 -578l10 -272h-299z" />
<glyph unicode="&#xa2;" d="M197 629q0 109 32.5 196.5t92 152t139.5 106.5t176 59v198h166v-190q80 -8 144.5 -38t109.5 -77l-137 -184q-61 49 -117 55v-557q43 8 80 27.5t67 44.5l121 -191q-59 -51 -129 -80.5t-139 -39.5v-195h-166v195q-100 12 -181 53t-138.5 107.5t-89 156.5t-31.5 201z M489 629q0 -92 38 -159t110 -97v512q-74 -33 -111 -98.5t-37 -157.5z" />
<glyph unicode="&#xa3;" d="M137 0v186q106 41 174 122t68 192q0 27 -6 55h-230v176l172 10q-16 41 -27.5 82t-11.5 82q0 96 35 174t96.5 132.5t147.5 84t188 29.5q127 0 218.5 -43t162.5 -123l-161 -164q-41 43 -86.5 64.5t-104.5 21.5q-98 0 -154.5 -47t-56.5 -145q0 -37 8.5 -74t18.5 -74h346 v-186h-299q2 -14 3 -28.5t1 -28.5q0 -74 -25.5 -127.5t-85.5 -108.5v-8h598v-254h-989z" />
<glyph unicode="&#xa4;" d="M74 281l166 168q-70 94 -70 227q0 66 17.5 122t50.5 101l-164 168l149 152l183 -185q98 51 208 51q106 0 209 -51l183 185l149 -152l-166 -168q70 -92 70 -223q0 -68 -18.5 -124t-53.5 -103l168 -168l-149 -152l-185 186q-47 -25 -100 -37t-107 -12q-113 0 -206 49 l-185 -186zM438 676q0 -92 51.5 -146.5t124.5 -54.5q74 0 125.5 54.5t51.5 146.5t-51.5 146.5t-125.5 54.5t-125 -54.5t-51 -146.5z" />
<glyph unicode="&#xa5;" d="M63 1300h310l125 -272q29 -68 57.5 -135.5t58.5 -132.5h9q29 68 58.5 135.5t57.5 132.5l125 272h301l-334 -600h281v-143h-348v-113h348v-143h-348v-301h-301v301h-346v143h346v113h-346v143h280z" />
<glyph unicode="&#xa6;" d="M481 418h267v-930h-267v930zM481 639v897h267v-897h-267z" />
<glyph unicode="&#xa7;" d="M145 668q0 78 45.5 146.5t122.5 115.5q-29 35 -44 76t-15 94q0 139 95 226t269 87q119 0 213.5 -42t159.5 -91l-139 -188q-47 41 -104.5 69.5t-112.5 28.5q-111 0 -111 -80q0 -37 41 -64.5t103.5 -55t135.5 -60.5t135 -79t103 -111.5t41 -157.5q0 -90 -44 -157t-128 -116 q23 -33 35 -71.5t12 -85.5q0 -70 -25.5 -129.5t-74.5 -102.5t-122.5 -67.5t-170.5 -24.5q-113 0 -221 42t-178 130l172 154q104 -104 227 -105q63 0 93 24.5t30 63.5t-40 67.5t-100.5 55.5t-131 57.5t-131 76.5t-100.5 111.5t-40 162.5zM399 690q0 -49 33 -83t85 -61.5 t115.5 -53t123.5 -58.5q74 45 73 123q0 49 -32.5 83t-83.5 61.5t-113.5 52t-124.5 55.5q-76 -45 -76 -119z" />
<glyph unicode="&#xa8;" d="M229 1331q0 68 45 114t117 46t116 -46t44 -114q0 -70 -44 -116t-116 -46t-117 46.5t-45 115.5zM678 1331q0 68 44 114t116 46t116.5 -46t44.5 -114q0 -70 -44.5 -116t-116.5 -46t-116 46.5t-44 115.5z" />
<glyph unicode="&#xa9;" d="M39 666q0 160 46 284.5t125 211.5t183.5 133t220.5 46q117 0 221.5 -46t183.5 -133t125 -212t46 -284q0 -160 -46 -286t-125 -215t-183.5 -136t-221.5 -47t-221 47t-183 136t-125 215t-46 286zM170 666q0 -127 31.5 -229.5t90 -176.5t140.5 -114t182 -40t182.5 40 t140.5 114t90 176.5t32 229.5q0 125 -32 227t-90 175t-140 112t-183 39q-100 0 -182 -39t-140.5 -112t-90 -175t-31.5 -227zM285 664q0 90 28.5 162.5t77.5 123.5t113.5 79t134.5 28q80 0 134 -30t95 -71l-112 -125q-23 23 -46.5 36.5t-52.5 13.5q-76 0 -115.5 -62.5 t-39.5 -154.5q0 -104 39 -166t106 -62q39 0 66.5 13.5t56.5 35.5l96 -139q-47 -39 -103 -62.5t-124 -23.5q-78 0 -142.5 28.5t-111.5 81t-73.5 127.5t-26.5 167z" />
<glyph unicode="&#xaa;" d="M315 719q0 109 94.5 168t305.5 80q-6 88 -115 88q-41 0 -88 -15.5t-98 -44.5l-76 138q68 41 145.5 65.5t159.5 24.5q133 0 209 -75t76 -235v-381h-174l-15 68h-4q-45 -37 -97 -60.5t-108 -23.5q-98 0 -156.5 59.5t-58.5 143.5zM520 737q0 -29 21.5 -44t56.5 -15 q33 0 62.5 14.5t54.5 38.5v109q-111 -14 -153 -41t-42 -62z" />
<glyph unicode="&#xab;" d="M88 367v299l351 315l127 -113l-261 -352l261 -352l-127 -113zM630 367v299l351 315l127 -113l-261 -352l261 -352l-127 -113z" />
<glyph unicode="&#xac;" d="M143 569v213h942v-589h-221v376h-721z" />
<glyph unicode="&#xad;" d="M143 569v213h942v-213h-942z" />
<glyph unicode="&#xae;" d="M207 1051q0 90 31.5 165.5t87 131t129 86t157.5 30.5t158 -30.5t129 -86t87 -131t32 -165.5t-32 -166t-87 -131.5t-129 -86t-158 -30.5t-157.5 30.5t-129 86t-87 131.5t-31.5 166zM317 1051q0 -72 21.5 -129.5t61.5 -98.5t93 -63.5t119 -22.5q63 0 117.5 22.5t94.5 63.5 t61.5 98.5t21.5 129.5t-21.5 129t-61.5 98t-94 63.5t-118 22.5q-66 0 -119 -22.5t-93 -63.5t-61.5 -98.5t-21.5 -128.5zM446 852v403h183q72 0 119 -32.5t47 -102.5q0 -35 -17.5 -64.5t-54.5 -45.5l86 -158h-123l-61 123h-60v-123h-119zM565 1057h41q33 0 48.5 17.5 t15.5 39.5q0 23 -15.5 38t-46.5 15h-43v-110z" />
<glyph unicode="&#xaf;" d="M332 1212v191h565v-191h-565z" />
<glyph unicode="&#xb0;" d="M319 1110q0 63 24 117.5t63.5 94.5t94 61.5t115.5 21.5t115.5 -21.5t94.5 -61.5t62.5 -94t22.5 -118q0 -66 -22.5 -119t-62.5 -93t-94.5 -61.5t-115.5 -21.5t-115.5 21.5t-94 61.5t-63.5 93t-24 119zM479 1110q0 -68 38 -110t99 -42t99.5 42t38.5 110q0 66 -38 108 t-100 42q-61 0 -99 -42t-38 -108z" />
<glyph unicode="&#xb1;" d="M143 0v213h942v-213h-942zM143 602v213h361v344h221v-344h360v-213h-360v-278h-221v278h-361z" />
<glyph unicode="&#xb2;" d="M323 1431q59 59 125 96.5t150 37.5q123 0 194.5 -59.5t71.5 -164.5q0 -72 -51 -137t-115 -125h189v-178h-533v113q63 41 117.5 82t94.5 78.5t63.5 70.5t23.5 59q0 39 -22.5 61.5t-67.5 22.5q-59 0 -113 -71z" />
<glyph unicode="&#xb3;" d="M338 962l84 136q33 -23 79 -41.5t89 -18.5q35 0 60.5 14.5t25.5 45.5q0 35 -36 53t-114 18v113q59 0 92 14.5t33 50.5q0 25 -20.5 40.5t-59.5 15.5q-35 0 -69.5 -16.5t-65.5 -34.5l-86 127q47 37 117 61.5t154 24.5q51 0 95 -13.5t76.5 -37t52 -57.5t19.5 -75 q0 -55 -24.5 -89t-85.5 -56q72 -20 103.5 -59t31.5 -97q0 -45 -21.5 -83t-58.5 -64.5t-87 -42t-106 -15.5q-63 0 -134.5 16.5t-143.5 69.5z" />
<glyph unicode="&#xb4;" d="M446 1176l183 342h307l-270 -342h-220z" />
<glyph unicode="&#xb5;" d="M127 -401v1417h301v-588q0 -111 36 -154t105 -43q59 0 108.5 35t96.5 123v627h303q-4 -90 -7 -188.5t-6 -193.5t-5 -181t-2 -150q0 -47 20.5 -65.5t50.5 -18.5h17.5t19.5 4l37 -223q-27 -10 -64.5 -17.5t-86.5 -7.5q-100 0 -158.5 49.5t-85.5 143.5h-8 q-41 -90 -104.5 -136t-139.5 -46q-41 0 -79 9t-66 42q2 -123 6 -224.5t16 -213.5h-305z" />
<glyph unicode="&#xb6;" d="M98 879q0 129 39 216t105.5 141t154.5 76.5t189 22.5h86v-932h-82q-100 0 -189.5 30t-157 90.5t-106.5 149.5t-39 206zM778 -164v1499h299v-1499h-299z" />
<glyph unicode="&#xb7;" d="M377 723q0 51 17.5 95t48 77t74.5 51.5t97 18.5t97.5 -18.5t75 -51.5t48 -77t17.5 -95q0 -102 -65.5 -171t-172.5 -69q-106 0 -171.5 69t-65.5 171z" />
<glyph unicode="&#xb8;" d="M407 -332q74 8 122 28.5t48 61.5q0 27 -25.5 48.5t-94.5 37.5l82 164h176l-41 -96q53 -16 85.5 -52t32.5 -100q0 -53 -29.5 -91t-78.5 -64.5t-114.5 -40t-139.5 -17.5z" />
<glyph unicode="&#xb9;" d="M401 1335v131q39 6 68 12.5t53.5 14.5t47 19.5t46.5 27.5h170v-639h-219v434h-166z" />
<glyph unicode="&#xba;" d="M272 868q0 84 28 149.5t76 112t109.5 70t128.5 23.5q68 0 129.5 -23.5t109.5 -70t75.5 -112t27.5 -149.5t-27.5 -149.5t-75.5 -110.5t-109.5 -68.5t-129.5 -23.5t-129 23.5t-109 68.5t-76 110.5t-28 149.5zM489 868q0 -84 30 -134t95 -50q66 0 95.5 50t29.5 134 q0 86 -29.5 135.5t-95.5 49.5t-95.5 -49.5t-29.5 -135.5z" />
<glyph unicode="&#xbb;" d="M123 164l260 352l-260 352l127 113l350 -315v-299l-350 -316zM665 164l260 352l-260 352l127 113l350 -315v-299l-350 -316z" />
<glyph unicode="&#xbc;" d="M35 207l381 354l104 -96l-332 -408zM143 1098v131q39 6 68 12.5t53.5 14.5t47 19.5t46.5 27.5h170v-639h-219v434h-166zM590 125v104l245 410h275v-379h104v-135h-104v-125h-193v125h-327zM709 870l331 408l154 -150l-381 -356zM784 260h133v45l13 203h-8l-70 -127z" />
<glyph unicode="&#xbd;" d="M35 207l381 354l104 -96l-332 -408zM143 1098v131q39 6 68 12.5t53.5 14.5t47 19.5t46.5 27.5h170v-639h-219v434h-166zM581 530q59 59 125 96.5t150 37.5q123 0 194.5 -59.5t71.5 -164.5q0 -72 -51 -137t-115 -125h189v-178h-533v113q63 41 117.5 82t94.5 78.5 t63.5 70.5t23.5 59q0 39 -22.5 61.5t-67.5 22.5q-59 0 -113 -71zM709 870l331 408l154 -150l-381 -356z" />
<glyph unicode="&#xbe;" d="M49 207l381 354l104 -96l-332 -408zM78 725l84 136q33 -23 79 -41.5t89 -18.5q35 0 60.5 14.5t25.5 45.5q0 35 -36 53t-114 18v113q59 0 92 14.5t33 50.5q0 25 -20.5 40.5t-59.5 15.5q-35 0 -69.5 -16.5t-65.5 -34.5l-86 127q47 37 117 61.5t154 24.5q51 0 95 -13.5 t76.5 -37t52 -57.5t19.5 -75q0 -55 -24.5 -89t-85.5 -56q72 -20 103.5 -59t31.5 -97q0 -45 -21.5 -83t-58.5 -64.5t-87 -42t-106 -15.5q-63 0 -134.5 16.5t-143.5 69.5zM592 125v104l245 410h275v-379h104v-135h-104v-125h-193v125h-327zM723 870l331 408l154 -150 l-381 -356zM786 260h133v45l13 203h-8l-70 -127z" />
<glyph unicode="&#xbf;" d="M211 -47q0 68 24.5 117t61.5 90t78 75.5t75.5 72.5t55 82t14.5 104h264q10 -70 -6 -123.5t-48 -96.5t-72 -77.5t-74.5 -67.5t-59 -66.5t-24.5 -70.5q0 -63 43 -96t108 -33q66 0 115 26.5t96 67.5l166 -152q-74 -84 -174 -135t-223 -51q-88 0 -165 20.5t-133.5 61.5 t-89 104.5t-32.5 147.5zM440 831q0 92 57.5 150.5t145.5 58.5q90 0 147.5 -58.5t57.5 -150.5t-57.5 -148t-147.5 -56q-88 0 -145.5 56t-57.5 148z" />
<glyph unicode="&#xc0;" d="M18 0l416 1335h361l415 -1335h-319l-80 317h-403l-82 -317h-308zM283 1683h319l166 -245h-240zM469 553h281l-31 123q-27 100 -53.5 212.5t-53.5 217.5h-8q-25 -106 -51.5 -218t-52.5 -212z" />
<glyph unicode="&#xc1;" d="M18 0l416 1335h361l415 -1335h-319l-80 317h-403l-82 -317h-308zM461 1438l166 245h319l-246 -245h-239zM469 553h281l-31 123q-27 100 -53.5 212.5t-53.5 217.5h-8q-25 -106 -51.5 -218t-52.5 -212z" />
<glyph unicode="&#xc2;" d="M18 0l416 1335h361l415 -1335h-319l-80 317h-403l-82 -317h-308zM270 1438l197 245h295l196 -245h-231l-109 125h-8l-108 -125h-232zM469 553h281l-31 123q-27 100 -53.5 212.5t-53.5 217.5h-8q-25 -106 -51.5 -218t-52.5 -212z" />
<glyph unicode="&#xc3;" d="M18 0l416 1335h361l415 -1335h-319l-80 317h-403l-82 -317h-308zM266 1440q16 141 78 209.5t141 68.5q41 0 76 -14t64.5 -31.5t55.5 -32t50 -14.5q27 0 47.5 20.5t30.5 71.5h154q-16 -141 -78 -209.5t-142 -68.5q-41 0 -75.5 14t-64.5 31.5t-55.5 32t-49.5 14.5 q-27 0 -47.5 -20.5t-30.5 -71.5h-154zM469 553h281l-31 123q-27 100 -53.5 212.5t-53.5 217.5h-8q-25 -106 -51.5 -218t-52.5 -212z" />
<glyph unicode="&#xc4;" d="M18 0l416 1335h361l415 -1335h-319l-80 317h-403l-82 -317h-308zM268 1577q0 61 40 102t104 41q63 0 103 -41t40 -102t-40 -102t-103 -41t-103.5 41t-40.5 102zM469 553h281l-31 123q-27 100 -53.5 212.5t-53.5 217.5h-8q-25 -106 -51.5 -218t-52.5 -212zM674 1577 q0 61 40 102t103 41t103.5 -41t40.5 -102t-40.5 -102t-103.5 -41t-103 41t-40 102z" />
<glyph unicode="&#xc5;" d="M18 0l416 1335h361l415 -1335h-319l-80 317h-403l-82 -317h-308zM383 1628q0 92 63.5 146.5t167.5 54.5t168 -54.5t64 -146.5t-64 -146.5t-168 -54.5t-167.5 54.5t-63.5 146.5zM469 553h281l-31 123q-27 100 -53.5 212.5t-53.5 217.5h-8q-25 -106 -51.5 -218t-52.5 -212z M530 1628q0 -41 24.5 -64.5t59.5 -23.5t58.5 23.5t23.5 64.5t-23.5 64.5t-58.5 23.5t-59.5 -23.5t-24.5 -64.5z" />
<glyph unicode="&#xc6;" d="M-6 0l428 1335h778v-254h-297v-264h242v-254h-242v-309h316v-254h-582v305h-242l-92 -305h-309zM465 539h172v569h-6q-27 -100 -55.5 -195.5t-53.5 -183.5z" />
<glyph unicode="&#xc7;" d="M113 659q0 166 49 296t135 220.5t202.5 137.5t250.5 47q129 0 228 -52.5t167 -117.5l-166 -186q-47 43 -102.5 69.5t-126.5 26.5q-72 0 -131.5 -30t-103.5 -85t-68.5 -135t-24.5 -180q0 -207 94 -320.5t246 -113.5q72 0 130 32.5t107 85.5l166 -182q-168 -197 -422 -197 q-129 0 -243.5 44t-200.5 130.5t-136 214t-50 295.5zM499 -332q72 8 120 28.5t48 61.5q0 27 -24.5 48.5t-93.5 37.5l81 164h177l-41 -96q51 -16 84.5 -52t33.5 -100q0 -53 -29.5 -91t-79.5 -64.5t-115.5 -40t-137.5 -17.5z" />
<glyph unicode="&#xc8;" d="M193 0v1335h880v-254h-579v-268h491v-252h-491v-307h600v-254h-901zM328 1683h319l166 -245h-240z" />
<glyph unicode="&#xc9;" d="M193 0v1335h880v-254h-579v-268h491v-252h-491v-307h600v-254h-901zM506 1438l166 245h319l-246 -245h-239z" />
<glyph unicode="&#xca;" d="M193 0v1335h880v-254h-579v-268h491v-252h-491v-307h600v-254h-901zM315 1438l197 245h295l196 -245h-231l-109 125h-8l-108 -125h-232z" />
<glyph unicode="&#xcb;" d="M193 0v1335h880v-254h-579v-268h491v-252h-491v-307h600v-254h-901zM313 1577q0 61 40 102t104 41q63 0 103 -41t40 -102t-40 -102t-103 -41t-103.5 41t-40.5 102zM719 1577q0 61 40 102t103 41t103.5 -41t40.5 -102t-40.5 -102t-103.5 -41t-103 41t-40 102z" />
<glyph unicode="&#xcc;" d="M152 0v254h311v827h-311v254h925v-254h-311v-827h311v-254h-925zM283 1683h319l166 -245h-240z" />
<glyph unicode="&#xcd;" d="M152 0v254h311v827h-311v254h925v-254h-311v-827h311v-254h-925zM461 1438l166 245h319l-246 -245h-239z" />
<glyph unicode="&#xce;" d="M152 0v254h311v827h-311v254h925v-254h-311v-827h311v-254h-925zM270 1438l197 245h295l196 -245h-231l-109 125h-8l-108 -125h-232z" />
<glyph unicode="&#xcf;" d="M152 0v254h311v827h-311v254h925v-254h-311v-827h311v-254h-925zM268 1577q0 61 40 102t104 41q63 0 103 -41t40 -102t-40 -102t-103 -41t-103.5 41t-40.5 102zM674 1577q0 61 40 102t103 41t103.5 -41t40.5 -102t-40.5 -102t-103.5 -41t-103 41t-40 102z" />
<glyph unicode="&#xd0;" d="M4 616v136l141 10v573h365q143 0 262 -39t203 -119.5t130 -205.5t46 -297t-46 -299t-128 -210t-197.5 -124t-253.5 -41h-381v616h-141zM449 244h43q78 0 142 22.5t110.5 72.5t72 132t25.5 203q0 119 -25.5 199.5t-72 129t-111 69t-141.5 20.5h-43v-330h219v-146h-219 v-372z" />
<glyph unicode="&#xd1;" d="M135 0v1335h307l283 -665l115 -293h8q-10 106 -26.5 237t-16.5 248v473h289v-1335h-308l-282 666l-115 290h-8q10 -111 26.5 -237.5t16.5 -245.5v-473h-289zM278 1440q16 141 78 209.5t141 68.5q41 0 76 -14t64.5 -31.5t55.5 -32t50 -14.5q27 0 47.5 20.5t30.5 71.5h154 q-16 -141 -78 -209.5t-142 -68.5q-41 0 -75.5 14t-64.5 31.5t-55.5 32t-49.5 14.5q-27 0 -47.5 -20.5t-30.5 -71.5h-154z" />
<glyph unicode="&#xd2;" d="M78 674q0 164 39 292t109.5 215t170 133t217.5 46q119 0 218.5 -46t170 -134t109.5 -216t39 -290q0 -164 -39 -293t-109.5 -219t-170 -138.5t-218.5 -48.5t-218 48.5t-169.5 138.5t-109.5 219t-39 293zM283 1683h319l166 -245h-240zM387 674q0 -203 61.5 -320.5 t165.5 -117.5t166 117.5t62 320.5q0 201 -61.5 313.5t-166.5 112.5q-104 0 -165.5 -113t-61.5 -313z" />
<glyph unicode="&#xd3;" d="M78 674q0 164 39 292t109.5 215t170 133t217.5 46q119 0 218.5 -46t170 -134t109.5 -216t39 -290q0 -164 -39 -293t-109.5 -219t-170 -138.5t-218.5 -48.5t-218 48.5t-169.5 138.5t-109.5 219t-39 293zM387 674q0 -203 61.5 -320.5t165.5 -117.5t166 117.5t62 320.5 q0 201 -61.5 313.5t-166.5 112.5q-104 0 -165.5 -113t-61.5 -313zM461 1438l166 245h319l-246 -245h-239z" />
<glyph unicode="&#xd4;" d="M78 674q0 164 39 292t109.5 215t170 133t217.5 46q119 0 218.5 -46t170 -134t109.5 -216t39 -290q0 -164 -39 -293t-109.5 -219t-170 -138.5t-218.5 -48.5t-218 48.5t-169.5 138.5t-109.5 219t-39 293zM270 1438l197 245h295l196 -245h-231l-109 125h-8l-108 -125h-232z M387 674q0 -203 61.5 -320.5t165.5 -117.5t166 117.5t62 320.5q0 201 -61.5 313.5t-166.5 112.5q-104 0 -165.5 -113t-61.5 -313z" />
<glyph unicode="&#xd5;" d="M78 674q0 164 39 292t109.5 215t170 133t217.5 46q119 0 218.5 -46t170 -134t109.5 -216t39 -290q0 -164 -39 -293t-109.5 -219t-170 -138.5t-218.5 -48.5t-218 48.5t-169.5 138.5t-109.5 219t-39 293zM266 1440q16 141 78 209.5t141 68.5q41 0 76 -14t64.5 -31.5 t55.5 -32t50 -14.5q27 0 47.5 20.5t30.5 71.5h154q-16 -141 -78 -209.5t-142 -68.5q-41 0 -75.5 14t-64.5 31.5t-55.5 32t-49.5 14.5q-27 0 -47.5 -20.5t-30.5 -71.5h-154zM387 674q0 -203 61.5 -320.5t165.5 -117.5t166 117.5t62 320.5q0 201 -61.5 313.5t-166.5 112.5 q-104 0 -165.5 -113t-61.5 -313z" />
<glyph unicode="&#xd6;" d="M78 674q0 164 39 292t109.5 215t170 133t217.5 46q119 0 218.5 -46t170 -134t109.5 -216t39 -290q0 -164 -39 -293t-109.5 -219t-170 -138.5t-218.5 -48.5t-218 48.5t-169.5 138.5t-109.5 219t-39 293zM268 1577q0 61 40 102t104 41q63 0 103 -41t40 -102t-40 -102 t-103 -41t-103.5 41t-40.5 102zM387 674q0 -203 61.5 -320.5t165.5 -117.5t166 117.5t62 320.5q0 201 -61.5 313.5t-166.5 112.5q-104 0 -165.5 -113t-61.5 -313zM674 1577q0 61 40 102t103 41t103.5 -41t40.5 -102t-40.5 -102t-103.5 -41t-103 41t-40 102z" />
<glyph unicode="&#xd7;" d="M172 381l291 293l-291 295l150 151l292 -295l293 295l150 -151l-291 -295l291 -293l-150 -152l-293 295l-292 -295z" />
<glyph unicode="&#xd8;" d="M61 18l132 191q-55 88 -85 204.5t-30 260.5q0 164 39 292t109.5 215t170 133t217.5 46q174 0 304 -98l108 157l160 -102l-139 -203q51 -86 77.5 -195.5t26.5 -244.5q0 -164 -39 -293t-109.5 -219t-170 -138.5t-218.5 -48.5q-168 0 -288 91l-105 -150zM387 674 q0 -90 12 -164l357 516q-57 74 -142 74q-104 0 -165.5 -113t-61.5 -313zM485 299q53 -63 129 -63q104 0 166 117.5t62 320.5q0 35 -2 68.5t-6 62.5z" />
<glyph unicode="&#xd9;" d="M131 514v821h301v-852q0 -121 45 -184t141 -63t142.5 63t46.5 184v852h291v-821q0 -262 -118 -400.5t-362 -138.5q-246 0 -366.5 138.5t-120.5 400.5zM283 1683h319l166 -245h-240z" />
<glyph unicode="&#xda;" d="M131 514v821h301v-852q0 -121 45 -184t141 -63t142.5 63t46.5 184v852h291v-821q0 -262 -118 -400.5t-362 -138.5q-246 0 -366.5 138.5t-120.5 400.5zM461 1438l166 245h319l-246 -245h-239z" />
<glyph unicode="&#xdb;" d="M131 514v821h301v-852q0 -121 45 -184t141 -63t142.5 63t46.5 184v852h291v-821q0 -262 -118 -400.5t-362 -138.5q-246 0 -366.5 138.5t-120.5 400.5zM270 1438l197 245h295l196 -245h-231l-109 125h-8l-108 -125h-232z" />
<glyph unicode="&#xdc;" d="M131 514v821h301v-852q0 -121 45 -184t141 -63t142.5 63t46.5 184v852h291v-821q0 -262 -118 -400.5t-362 -138.5q-246 0 -366.5 138.5t-120.5 400.5zM268 1577q0 61 40 102t104 41q63 0 103 -41t40 -102t-40 -102t-103 -41t-103.5 41t-40.5 102zM674 1577q0 61 40 102 t103 41t103.5 -41t40.5 -102t-40.5 -102t-103.5 -41t-103 41t-40 102z" />
<glyph unicode="&#xdd;" d="M33 1335h323l136 -321q29 -78 59.5 -152t60.5 -153h9q33 80 63.5 153.5t60.5 151.5l136 321h315l-430 -884v-451h-303v451zM461 1438l166 245h319l-246 -245h-239z" />
<glyph unicode="&#xde;" d="M150 0v1335h301v-202h186q109 0 204 -21.5t165.5 -72t111.5 -132.5t41 -202q0 -119 -42 -204t-113.5 -140.5t-166 -82t-200.5 -26.5h-186v-252h-301zM451 492h167q244 0 244 213q0 104 -61.5 146t-182.5 42h-167v-401z" />
<glyph unicode="&#xdf;" d="M125 0v1014q0 94 28.5 176t86 142.5t145.5 94t205 33.5q98 0 172 -29.5t121 -77.5t70.5 -110.5t23.5 -128.5q0 -74 -19.5 -124t-43 -90t-43 -73.5t-19.5 -72.5q0 -35 23.5 -59.5t58.5 -49t77 -52.5t76.5 -66t58 -90t23.5 -126q0 -70 -22.5 -131t-67.5 -106t-111.5 -72 t-154.5 -27q-86 0 -150.5 19.5t-134.5 56.5l101 205q47 -31 90 -44t84 -13t64.5 23.5t23.5 64.5q0 39 -23.5 67.5t-58.5 53t-77 51t-76.5 61.5t-58.5 82t-24 115q0 61 19.5 106t42 86t42 85t19.5 104q0 53 -28.5 89t-79.5 36q-84 0 -123 -61.5t-39 -166.5v-995h-301z" />
<glyph unicode="&#xe0;" d="M125 283q0 86 37 150.5t117.5 109.5t207.5 72.5t308 37.5q-8 70 -60.5 109t-156.5 39q-74 0 -149 -25.5t-161 -68.5l-106 196q104 59 224 98t251 39q213 0 336 -112.5t123 -345.5v-582h-246l-23 115h-8q-78 -59 -170 -99.5t-190 -40.5q-78 0 -139.5 24t-104.5 65.5 t-66.5 97t-23.5 121.5zM309 1518h307l182 -342h-219zM414 305q0 -49 37.5 -72.5t103.5 -23.5q68 0 127 27.5t113 68.5v168q-113 -6 -186.5 -20.5t-116.5 -36t-60.5 -50t-17.5 -61.5z" />
<glyph unicode="&#xe1;" d="M125 283q0 86 37 150.5t117.5 109.5t207.5 72.5t308 37.5q-8 70 -60.5 109t-156.5 39q-74 0 -149 -25.5t-161 -68.5l-106 196q104 59 224 98t251 39q213 0 336 -112.5t123 -345.5v-582h-246l-23 115h-8q-78 -59 -170 -99.5t-190 -40.5q-78 0 -139.5 24t-104.5 65.5 t-66.5 97t-23.5 121.5zM414 305q0 -49 37.5 -72.5t103.5 -23.5q68 0 127 27.5t113 68.5v168q-113 -6 -186.5 -20.5t-116.5 -36t-60.5 -50t-17.5 -61.5zM462 1176l183 342h307l-270 -342h-220z" />
<glyph unicode="&#xe2;" d="M125 283q0 86 37 150.5t117.5 109.5t207.5 72.5t308 37.5q-8 70 -60.5 109t-156.5 39q-74 0 -149 -25.5t-161 -68.5l-106 196q104 59 224 98t251 39q213 0 336 -112.5t123 -345.5v-582h-246l-23 115h-8q-78 -59 -170 -99.5t-190 -40.5q-78 0 -139.5 24t-104.5 65.5 t-66.5 97t-23.5 121.5zM299 1176l204 342h254l205 -342h-219l-109 194h-8l-108 -194h-219zM414 305q0 -49 37.5 -72.5t103.5 -23.5q68 0 127 27.5t113 68.5v168q-113 -6 -186.5 -20.5t-116.5 -36t-60.5 -50t-17.5 -61.5z" />
<glyph unicode="&#xe3;" d="M125 283q0 86 37 150.5t117.5 109.5t207.5 72.5t308 37.5q-8 70 -60.5 109t-156.5 39q-74 0 -149 -25.5t-161 -68.5l-106 196q104 59 224 98t251 39q213 0 336 -112.5t123 -345.5v-582h-246l-23 115h-8q-78 -59 -170 -99.5t-190 -40.5q-78 0 -139.5 24t-104.5 65.5 t-66.5 97t-23.5 121.5zM280 1178q18 150 82 221t158 71q37 0 68.5 -16t57 -36.5t48 -37t45.5 -16.5q33 0 53.5 23.5t34.5 82.5h154q-18 -147 -82 -219.5t-158 -72.5q-39 0 -69.5 17t-57.5 36.5t-49.5 37t-42.5 17.5q-33 0 -53.5 -23.5t-34.5 -84.5h-154zM414 305 q0 -49 37.5 -72.5t103.5 -23.5q68 0 127 27.5t113 68.5v168q-113 -6 -186.5 -20.5t-116.5 -36t-60.5 -50t-17.5 -61.5z" />
<glyph unicode="&#xe4;" d="M125 283q0 86 37 150.5t117.5 109.5t207.5 72.5t308 37.5q-8 70 -60.5 109t-156.5 39q-74 0 -149 -25.5t-161 -68.5l-106 196q104 59 224 98t251 39q213 0 336 -112.5t123 -345.5v-582h-246l-23 115h-8q-78 -59 -170 -99.5t-190 -40.5q-78 0 -139.5 24t-104.5 65.5 t-66.5 97t-23.5 121.5zM245 1331q0 68 45 114t117 46t116 -46t44 -114q0 -70 -44 -116t-116 -46t-117 46.5t-45 115.5zM414 305q0 -49 37.5 -72.5t103.5 -23.5q68 0 127 27.5t113 68.5v168q-113 -6 -186.5 -20.5t-116.5 -36t-60.5 -50t-17.5 -61.5zM694 1331q0 68 44 114 t116 46t116.5 -46t44.5 -114q0 -70 -44.5 -116t-116.5 -46t-116 46.5t-44 115.5z" />
<glyph unicode="&#xe5;" d="M125 283q0 86 37 150.5t117.5 109.5t207.5 72.5t308 37.5q-8 70 -60.5 109t-156.5 39q-74 0 -149 -25.5t-161 -68.5l-106 196q104 59 224 98t251 39q213 0 336 -112.5t123 -345.5v-582h-246l-23 115h-8q-78 -59 -170 -99.5t-190 -40.5q-78 0 -139.5 24t-104.5 65.5 t-66.5 97t-23.5 121.5zM399 1331q0 96 63.5 152.5t167.5 56.5t168 -56.5t64 -152.5t-64 -152.5t-168 -56.5t-167.5 56.5t-63.5 152.5zM414 305q0 -49 37.5 -72.5t103.5 -23.5q68 0 127 27.5t113 68.5v168q-113 -6 -186.5 -20.5t-116.5 -36t-60.5 -50t-17.5 -61.5zM546 1331 q0 -43 24.5 -69.5t59.5 -26.5t59.5 26.5t24.5 69.5t-24.5 69.5t-59.5 26.5t-59.5 -26.5t-24.5 -69.5z" />
<glyph unicode="&#xe6;" d="M33 283q0 158 113.5 242.5t347.5 129.5q-6 72 -32 109t-85 37q-41 0 -99.5 -18.5t-111.5 -51.5l-107 197q86 51 168 81.5t170 30.5q90 0 146.5 -41t91.5 -108q53 76 112.5 112.5t149.5 36.5q78 0 137.5 -38.5t99.5 -105.5t60 -156t20 -189q0 -41 -5 -76t-9 -55h-465 q16 -104 65.5 -156.5t121.5 -52.5q43 0 80.5 12.5t78.5 40.5l103 -192q-59 -47 -133 -72t-140 -25q-111 0 -183.5 43t-125.5 115q-80 -84 -148.5 -121t-138.5 -37t-122 25t-87.5 65.5t-54 97.5t-18.5 120zM303 307q0 -98 94 -98q29 0 63 17.5t62 52.5q-12 33 -18 72.5 t-10 78.5l-2 43q-100 -23 -144.5 -65t-44.5 -101zM731 604h244q0 43 -5 80t-17.5 65.5t-33 45t-51.5 16.5q-51 0 -89 -50t-48 -157z" />
<glyph unicode="&#xe7;" d="M137 508q0 127 48 226.5t129 167t187.5 103t223.5 35.5q121 0 218 -38.5t163 -98.5l-139 -186q-113 80 -226 80q-131 0 -213 -78t-82 -211t79 -211t206 -78q80 0 147.5 28.5t120.5 67.5l123 -190q-92 -78 -203.5 -114t-216.5 -36q-121 0 -223 36t-179 103.5t-120 167 t-43 226.5zM487 -332q74 8 122 28.5t48 61.5q0 27 -25.5 48.5t-94.5 37.5l82 164h176l-41 -96q53 -16 85.5 -52t32.5 -100q0 -53 -29.5 -91t-78.5 -64.5t-114.5 -40t-139.5 -17.5z" />
<glyph unicode="&#xe8;" d="M113 508q0 125 44 223t117.5 167t169 105.5t197.5 36.5q117 0 207 -36.5t149.5 -102t90 -155t30.5 -193.5q0 -41 -4 -78t-8 -55h-684q16 -115 99 -165t196 -50q70 0 132 17.5t130 51.5l98 -180q-86 -55 -192.5 -87t-208.5 -32q-119 0 -221.5 36t-178 104.5t-119.5 167 t-44 225.5zM320 1518h307l182 -342h-219zM418 618h428q0 86 -47 139.5t-152 53.5q-82 0 -145.5 -47t-83.5 -146z" />
<glyph unicode="&#xe9;" d="M113 508q0 125 44 223t117.5 167t169 105.5t197.5 36.5q117 0 207 -36.5t149.5 -102t90 -155t30.5 -193.5q0 -41 -4 -78t-8 -55h-684q16 -115 99 -165t196 -50q70 0 132 17.5t130 51.5l98 -180q-86 -55 -192.5 -87t-208.5 -32q-119 0 -221.5 36t-178 104.5t-119.5 167 t-44 225.5zM418 618h428q0 86 -47 139.5t-152 53.5q-82 0 -145.5 -47t-83.5 -146zM473 1176l183 342h307l-270 -342h-220z" />
<glyph unicode="&#xea;" d="M113 508q0 125 44 223t117.5 167t169 105.5t197.5 36.5q117 0 207 -36.5t149.5 -102t90 -155t30.5 -193.5q0 -41 -4 -78t-8 -55h-684q16 -115 99 -165t196 -50q70 0 132 17.5t130 51.5l98 -180q-86 -55 -192.5 -87t-208.5 -32q-119 0 -221.5 36t-178 104.5t-119.5 167 t-44 225.5zM310 1176l204 342h254l205 -342h-219l-109 194h-8l-108 -194h-219zM418 618h428q0 86 -47 139.5t-152 53.5q-82 0 -145.5 -47t-83.5 -146z" />
<glyph unicode="&#xeb;" d="M113 508q0 125 44 223t117.5 167t169 105.5t197.5 36.5q117 0 207 -36.5t149.5 -102t90 -155t30.5 -193.5q0 -41 -4 -78t-8 -55h-684q16 -115 99 -165t196 -50q70 0 132 17.5t130 51.5l98 -180q-86 -55 -192.5 -87t-208.5 -32q-119 0 -221.5 36t-178 104.5t-119.5 167 t-44 225.5zM254 1331q0 68 45 114t117 46t116 -46t44 -114q0 -70 -44 -116t-116 -46t-117 46.5t-45 115.5zM418 618h428q0 86 -47 139.5t-152 53.5q-82 0 -145.5 -47t-83.5 -146zM703 1331q0 68 44 114t116 46t116.5 -46t44.5 -114q0 -70 -44.5 -116t-116.5 -46t-116 46.5 t-44 115.5z" />
<glyph unicode="&#xec;" d="M162 780v236h708v-1016h-301v780h-407zM385 1518h307l182 -342h-219z" />
<glyph unicode="&#xed;" d="M162 780v236h708v-1016h-301v780h-407zM538 1176l183 342h307l-270 -342h-220z" />
<glyph unicode="&#xee;" d="M162 780v236h708v-1016h-301v780h-407zM375 1176l204 342h254l205 -342h-219l-109 194h-8l-108 -194h-219z" />
<glyph unicode="&#xef;" d="M162 780v236h708v-1016h-301v780h-407zM321 1331q0 68 45 114t117 46t116 -46t44 -114q0 -70 -44 -116t-116 -46t-117 46.5t-45 115.5zM770 1331q0 68 44 114t116 46t116.5 -46t44.5 -114q0 -70 -44.5 -116t-116.5 -46t-116 46.5t-44 115.5z" />
<glyph unicode="&#xf0;" d="M96 467q0 111 37 197t100.5 145t144.5 91t171 32q74 0 141.5 -26.5t116.5 -86.5q-29 92 -79 167t-122 140l-305 -153l-78 133l246 123q-88 57 -193 104l132 183q78 -35 152.5 -77t144.5 -91l278 141l78 -133l-227 -115q131 -123 211.5 -293t80.5 -403 q0 -123 -35.5 -227.5t-102 -180.5t-164 -119t-220.5 -43q-104 0 -196.5 35t-161 98.5t-109.5 154.5t-41 204zM371 467q0 -61 19.5 -107.5t52 -77t77.5 -47t94 -16.5q106 0 169 78t63 231v36t-2 34q-53 59 -110.5 85t-123.5 26q-111 0 -175 -59.5t-64 -182.5z" />
<glyph unicode="&#xf1;" d="M147 0v1016h246l23 -135h8q66 66 150.5 112.5t199.5 46.5q172 0 252 -110.5t80 -302.5v-627h-301v588q0 102 -33 149t-117 47q-61 0 -107 -26.5t-99 -79.5v-678h-302zM295 1178q18 150 82 221t158 71q37 0 68.5 -16t57 -36.5t48 -37t45.5 -16.5q33 0 53.5 23.5t34.5 82.5 h154q-18 -147 -82 -219.5t-158 -72.5q-39 0 -69.5 17t-57.5 36.5t-49.5 37t-42.5 17.5q-33 0 -53.5 -23.5t-34.5 -84.5h-154z" />
<glyph unicode="&#xf2;" d="M96 508q0 127 43 226.5t116 167t166 103t193 35.5t193.5 -35.5t166.5 -103t116 -167t43 -226.5t-43 -226.5t-116 -167t-166 -103.5t-194 -36q-100 0 -193 36t-166 103.5t-116 167t-43 226.5zM293 1518h307l182 -342h-219zM406 508q0 -133 52 -211t156 -78t156.5 78 t52.5 211t-52 211t-157 78q-104 0 -156 -78t-52 -211z" />
<glyph unicode="&#xf3;" d="M96 508q0 127 43 226.5t116 167t166 103t193 35.5t193.5 -35.5t166.5 -103t116 -167t43 -226.5t-43 -226.5t-116 -167t-166 -103.5t-194 -36q-100 0 -193 36t-166 103.5t-116 167t-43 226.5zM406 508q0 -133 52 -211t156 -78t156.5 78t52.5 211t-52 211t-157 78 q-104 0 -156 -78t-52 -211zM446 1176l183 342h307l-270 -342h-220z" />
<glyph unicode="&#xf4;" d="M96 508q0 127 43 226.5t116 167t166 103t193 35.5t193.5 -35.5t166.5 -103t116 -167t43 -226.5t-43 -226.5t-116 -167t-166 -103.5t-194 -36q-100 0 -193 36t-166 103.5t-116 167t-43 226.5zM283 1176l204 342h254l205 -342h-219l-109 194h-8l-108 -194h-219zM406 508 q0 -133 52 -211t156 -78t156.5 78t52.5 211t-52 211t-157 78q-104 0 -156 -78t-52 -211z" />
<glyph unicode="&#xf5;" d="M96 508q0 127 43 226.5t116 167t166 103t193 35.5t193.5 -35.5t166.5 -103t116 -167t43 -226.5t-43 -226.5t-116 -167t-166 -103.5t-194 -36q-100 0 -193 36t-166 103.5t-116 167t-43 226.5zM264 1178q18 150 82 221t158 71q37 0 68.5 -16t57 -36.5t48 -37t45.5 -16.5 q33 0 53.5 23.5t34.5 82.5h154q-18 -147 -82 -219.5t-158 -72.5q-39 0 -69.5 17t-57.5 36.5t-49.5 37t-42.5 17.5q-33 0 -53.5 -23.5t-34.5 -84.5h-154zM406 508q0 -133 52 -211t156 -78t156.5 78t52.5 211t-52 211t-157 78q-104 0 -156 -78t-52 -211z" />
<glyph unicode="&#xf6;" d="M96 508q0 127 43 226.5t116 167t166 103t193 35.5t193.5 -35.5t166.5 -103t116 -167t43 -226.5t-43 -226.5t-116 -167t-166 -103.5t-194 -36q-100 0 -193 36t-166 103.5t-116 167t-43 226.5zM229 1331q0 68 45 114t117 46t116 -46t44 -114q0 -70 -44 -116t-116 -46 t-117 46.5t-45 115.5zM406 508q0 -133 52 -211t156 -78t156.5 78t52.5 211t-52 211t-157 78q-104 0 -156 -78t-52 -211zM678 1331q0 68 44 114t116 46t116.5 -46t44.5 -114q0 -70 -44.5 -116t-116.5 -46t-116 46.5t-44 115.5z" />
<glyph unicode="&#xf7;" d="M143 569v213h942v-213h-942zM449 307q0 70 47 114t118 44q72 0 119 -44t47 -114t-47 -113.5t-119 -43.5t-118.5 43.5t-46.5 113.5zM449 1044q0 70 47 114t118 44q72 0 119 -44t47 -114t-47 -113.5t-119 -43.5t-118.5 44t-46.5 113z" />
<glyph unicode="&#xf8;" d="M96 508q0 127 43 226.5t116 167t166 103t193 35.5q156 0 283 -79l92 110l113 -88l-96 -115q59 -68 93 -157.5t34 -202.5q0 -127 -43 -226.5t-116 -167t-166 -103.5t-194 -36q-156 0 -284 82l-90 -108l-113 86l94 115q-57 66 -91 155.5t-34 202.5zM406 508q0 -72 14 -123 l315 381q-51 41 -121 41q-104 0 -156 -83t-52 -216zM492 252q53 -43 122 -43q104 0 156.5 83t52.5 216q0 35 -3 65.5t-11 59.5z" />
<glyph unicode="&#xf9;" d="M127 389v627h301v-588q0 -102 30.5 -149.5t116.5 -47.5q57 0 101.5 25t97.5 92v668h301v-1016h-246l-22 145h-8q-68 -78 -150 -124t-192 -46q-174 0 -252 111t-78 303zM287 1518h307l182 -342h-219z" />
<glyph unicode="&#xfa;" d="M127 389v627h301v-588q0 -102 30.5 -149.5t116.5 -47.5q57 0 101.5 25t97.5 92v668h301v-1016h-246l-22 145h-8q-68 -78 -150 -124t-192 -46q-174 0 -252 111t-78 303zM440 1176l183 342h307l-270 -342h-220z" />
<glyph unicode="&#xfb;" d="M127 389v627h301v-588q0 -102 30.5 -149.5t116.5 -47.5q57 0 101.5 25t97.5 92v668h301v-1016h-246l-22 145h-8q-68 -78 -150 -124t-192 -46q-174 0 -252 111t-78 303zM277 1176l204 342h254l205 -342h-219l-109 194h-8l-108 -194h-219z" />
<glyph unicode="&#xfc;" d="M127 389v627h301v-588q0 -102 30.5 -149.5t116.5 -47.5q57 0 101.5 25t97.5 92v668h301v-1016h-246l-22 145h-8q-68 -78 -150 -124t-192 -46q-174 0 -252 111t-78 303zM223 1331q0 68 45 114t117 46t116 -46t44 -114q0 -70 -44 -116t-116 -46t-117 46.5t-45 115.5z M672 1331q0 68 44 114t116 46t116.5 -46t44.5 -114q0 -70 -44.5 -116t-116.5 -46t-116 46.5t-44 115.5z" />
<glyph unicode="&#xfd;" d="M63 1016h299l170 -436q29 -72 53.5 -149t49.5 -157h8q20 76 45 153t47 153l150 436h284l-401 -1026q-37 -96 -80 -169t-98 -121t-128 -72.5t-169 -24.5q-45 0 -84 5t-72 15l53 230q39 -12 80 -13q88 0 138.5 37t74.5 96l21 54zM460 1176l183 342h307l-270 -342h-220z" />
<glyph unicode="&#xfe;" d="M147 -377v1813h302v-357l-9 -155q61 55 134 85.5t151 30.5q94 0 170 -36.5t128 -104.5t81 -163t29 -212q0 -131 -38 -232.5t-99.5 -172t-140.5 -107.5t-161 -37q-76 0 -137 32t-115 79l7 -166v-297h-302zM449 289q41 -37 88 -52.5t86 -15.5q41 0 76.5 17.5t63.5 54.5 t44 93t16 134q0 137 -45 206t-143 69q-94 0 -186 -95v-411z" />
<glyph unicode="&#xff;" d="M63 1016h299l170 -436q29 -72 53.5 -149t49.5 -157h8q20 76 45 153t47 153l150 436h284l-401 -1026q-37 -96 -80 -169t-98 -121t-128 -72.5t-169 -24.5q-45 0 -84 5t-72 15l53 230q39 -12 80 -13q88 0 138.5 37t74.5 96l21 54zM243 1331q0 68 45 114t117 46t116 -46 t44 -114q0 -70 -44 -116t-116 -46t-117 46.5t-45 115.5zM692 1331q0 68 44 114t116 46t116.5 -46t44.5 -114q0 -70 -44.5 -116t-116.5 -46t-116 46.5t-44 115.5z" />
<glyph unicode="&#x100;" d="M18 0l416 1335h361l415 -1335h-319l-80 317h-403l-82 -317h-308zM326 1475v190h577v-190h-577zM469 553h281l-31 123q-27 100 -53.5 212.5t-53.5 217.5h-8q-25 -106 -51.5 -218t-52.5 -212z" />
<glyph unicode="&#x101;" d="M125 283q0 86 37 150.5t117.5 109.5t207.5 72.5t308 37.5q-8 70 -60.5 109t-156.5 39q-74 0 -149 -25.5t-161 -68.5l-106 196q104 59 224 98t251 39q213 0 336 -112.5t123 -345.5v-582h-246l-23 115h-8q-78 -59 -170 -99.5t-190 -40.5q-78 0 -139.5 24t-104.5 65.5 t-66.5 97t-23.5 121.5zM348 1212v191h565v-191h-565zM414 305q0 -49 37.5 -72.5t103.5 -23.5q68 0 127 27.5t113 68.5v168q-113 -6 -186.5 -20.5t-116.5 -36t-60.5 -50t-17.5 -61.5z" />
<glyph unicode="&#x102;" d="M18 0l416 1335h361l415 -1335h-319l-80 317h-403l-82 -317h-308zM334 1683h166q10 -41 35.5 -67.5t78.5 -26.5t79 26.5t36 67.5h166q-12 -111 -79 -178t-202 -67t-201.5 67.5t-78.5 177.5zM469 553h281l-31 123q-27 100 -53.5 212.5t-53.5 217.5h-8q-25 -106 -51.5 -218 t-52.5 -212z" />
<glyph unicode="&#x103;" d="M125 283q0 86 37 150.5t117.5 109.5t207.5 72.5t308 37.5q-8 70 -60.5 109t-156.5 39q-74 0 -149 -25.5t-161 -68.5l-106 196q104 59 224 98t251 39q213 0 336 -112.5t123 -345.5v-582h-246l-23 115h-8q-78 -59 -170 -99.5t-190 -40.5q-78 0 -139.5 24t-104.5 65.5 t-66.5 97t-23.5 121.5zM329 1495h168q8 -66 40 -110t93 -44t93 44.5t41 109.5h167q-2 -61 -20 -119.5t-55 -102.5t-93.5 -70.5t-132.5 -26.5t-132 26.5t-93 70.5t-55.5 102.5t-20.5 119.5zM414 305q0 -49 37.5 -72.5t103.5 -23.5q68 0 127 27.5t113 68.5v168 q-113 -6 -186.5 -20.5t-116.5 -36t-60.5 -50t-17.5 -61.5z" />
<glyph unicode="&#x104;" d="M18 0l416 1335h361l415 -1335q-43 -4 -76.5 -21.5t-57 -44t-37 -57.5t-13.5 -61q0 -39 23.5 -58.5t56.5 -19.5q23 0 43 9t37 20l69 -152q-41 -31 -101 -51.5t-114 -20.5q-98 0 -165.5 50.5t-67.5 142.5q0 47 16.5 89t41 75.5t54 59.5t54.5 40h-82l-80 317h-403l-82 -317 h-308zM469 553h281l-31 123q-27 100 -53.5 212.5t-53.5 217.5h-8q-25 -106 -50.5 -218t-53.5 -212z" />
<glyph unicode="&#x105;" d="M125 283q0 86 37 150.5t117.5 109.5t207.5 72.5t308 37.5q-8 70 -60.5 109t-156.5 39q-74 0 -149 -25.5t-161 -68.5l-106 196q104 59 224 98t251 39q213 0 336 -112.5t123 -345.5v-582q-100 -29 -140.5 -78t-40.5 -96q0 -41 27 -59.5t59 -18.5q20 0 39 7t33 18l64 -135 q-41 -31 -100.5 -49.5t-106.5 -18.5q-92 0 -154.5 47t-62.5 139q0 45 14 83t35.5 69t46.5 53.5t43 34.5l-25 119h-8q-78 -59 -170 -99.5t-190 -40.5q-78 0 -139.5 24t-104.5 65.5t-66.5 97t-23.5 121.5zM414 305q0 -49 37.5 -72.5t103.5 -23.5q68 0 127 27.5t113 68.5v168 q-113 -6 -186.5 -20.5t-116.5 -36t-60.5 -50t-17.5 -61.5z" />
<glyph unicode="&#x106;" d="M113 659q0 166 49 296t135 220.5t202.5 137.5t250.5 47q129 0 228 -52.5t167 -117.5l-166 -186q-47 43 -102.5 69.5t-126.5 26.5q-72 0 -131.5 -30t-103.5 -85t-68.5 -135t-24.5 -180q0 -207 94 -320.5t246 -113.5q72 0 130 32.5t107 85.5l166 -182q-168 -197 -422 -197 q-129 0 -243.5 44t-200.5 130.5t-136 214t-50 295.5zM572 1438l166 245h319l-246 -245h-239z" />
<glyph unicode="&#x107;" d="M137 508q0 127 48 226.5t129 167t187.5 103t223.5 35.5q121 0 218 -38.5t163 -98.5l-139 -186q-113 80 -226 80q-131 0 -213 -78t-82 -211t79 -211t206 -78q80 0 147.5 28.5t120.5 67.5l123 -190q-92 -78 -203.5 -114t-216.5 -36q-121 0 -223 36t-179 103.5t-120 167 t-43 226.5zM530 1176l183 342h307l-270 -342h-220z" />
<glyph unicode="&#x108;" d="M113 659q0 166 49 296t135 220.5t202.5 137.5t250.5 47q129 0 228 -52.5t167 -117.5l-166 -186q-47 43 -102.5 69.5t-126.5 26.5q-72 0 -131.5 -30t-103.5 -85t-68.5 -135t-24.5 -180q0 -207 94 -320.5t246 -113.5q72 0 130 32.5t107 85.5l166 -182q-168 -197 -422 -197 q-129 0 -243.5 44t-200.5 130.5t-136 214t-50 295.5zM381 1438l197 245h295l196 -245h-231l-109 125h-8l-108 -125h-232z" />
<glyph unicode="&#x109;" d="M137 508q0 127 48 226.5t129 167t187.5 103t223.5 35.5q121 0 218 -38.5t163 -98.5l-139 -186q-113 80 -226 80q-131 0 -213 -78t-82 -211t79 -211t206 -78q80 0 147.5 28.5t120.5 67.5l123 -190q-92 -78 -203.5 -114t-216.5 -36q-121 0 -223 36t-179 103.5t-120 167 t-43 226.5zM367 1176l204 342h254l205 -342h-219l-109 194h-8l-108 -194h-219z" />
<glyph unicode="&#x10a;" d="M113 659q0 166 49 296t135 220.5t202.5 137.5t250.5 47q129 0 228 -52.5t167 -117.5l-166 -186q-47 43 -102.5 69.5t-126.5 26.5q-72 0 -131.5 -30t-103.5 -85t-68.5 -135t-24.5 -180q0 -207 94 -320.5t246 -113.5q72 0 130 32.5t107 85.5l166 -182q-168 -197 -422 -197 q-129 0 -243.5 44t-200.5 130.5t-136 214t-50 295.5zM551 1593q0 70 49.5 114t124.5 44q76 0 125 -44t49 -114t-49 -113.5t-125 -43.5t-125 44t-49 113z" />
<glyph unicode="&#x10b;" d="M137 508q0 127 48 226.5t129 167t187.5 103t223.5 35.5q121 0 218 -38.5t163 -98.5l-139 -186q-113 80 -226 80q-131 0 -213 -78t-82 -211t79 -211t206 -78q80 0 147.5 28.5t120.5 67.5l123 -190q-92 -78 -203.5 -114t-216.5 -36q-121 0 -223 36t-179 103.5t-120 167 t-43 226.5zM498 1348q0 84 56 136t144 52t144.5 -52t56.5 -136t-56.5 -133.5t-144.5 -49.5t-144 49.5t-56 133.5z" />
<glyph unicode="&#x10c;" d="M113 659q0 166 49 296t135 220.5t202.5 137.5t250.5 47q129 0 228 -52.5t167 -117.5l-166 -186q-47 43 -102.5 69.5t-126.5 26.5q-72 0 -131.5 -30t-103.5 -85t-68.5 -135t-24.5 -180q0 -207 94 -320.5t246 -113.5q72 0 130 32.5t107 85.5l166 -182q-168 -197 -422 -197 q-129 0 -243.5 44t-200.5 130.5t-136 214t-50 295.5zM381 1683h232l108 -124h8l109 124h231l-196 -245h-295z" />
<glyph unicode="&#x10d;" d="M137 508q0 127 48 226.5t129 167t187.5 103t223.5 35.5q121 0 218 -38.5t163 -98.5l-139 -186q-113 80 -226 80q-131 0 -213 -78t-82 -211t79 -211t206 -78q80 0 147.5 28.5t120.5 67.5l123 -190q-92 -78 -203.5 -114t-216.5 -36q-121 0 -223 36t-179 103.5t-120 167 t-43 226.5zM367 1518h219l108 -197h8l109 197h219l-205 -342h-254z" />
<glyph unicode="&#x10e;" d="M133 0v1335h363q145 0 264 -39t203 -119.5t130 -205.5t46 -297t-46 -299t-129 -210t-198 -124t-254 -41h-379zM266 1683h232l108 -124h8l109 124h231l-196 -245h-295zM436 244h43q78 0 142.5 22.5t110.5 72.5t71.5 132t25.5 203q0 119 -25.5 199.5t-71.5 129t-110.5 69 t-142.5 20.5h-43v-848z" />
<glyph unicode="&#x10f;" d="M53 508q0 125 37 223t97.5 167t138 105.5t161.5 36.5q88 0 147.5 -29.5t113.5 -78.5l-11 158v346h301v-1436h-245l-23 104h-6q-57 -55 -131 -92t-152 -37q-96 0 -175 37t-135 105.5t-87 167t-31 223.5zM363 512q0 -152 51 -221.5t145 -69.5q51 0 94 21.5t84 72.5v412 q-41 37 -83 52.5t-87 15.5q-84 0 -144 -70t-60 -213zM1102 1577h193l-4 -141l-50 -314h-129z" />
<glyph unicode="&#x110;" d="M4 616v136l141 10v573h365q143 0 262 -39t203 -119.5t130 -205.5t46 -297t-46 -299t-128 -210t-197.5 -124t-253.5 -41h-381v616h-141zM449 244h43q78 0 142 22.5t110.5 72.5t72 132t25.5 203q0 119 -25.5 199.5t-72 129t-111 69t-141.5 20.5h-43v-330h219v-146h-219 v-372z" />
<glyph unicode="&#x111;" d="M96 487q0 119 37 214.5t97.5 162t138 101t161.5 34.5q88 0 147.5 -29.5t113.5 -78.5l-11 158v90h-317v145h317v152h301v-152h136v-133l-136 -10v-1141h-245l-23 104h-6q-57 -55 -131 -92t-152 -37q-96 0 -175 35t-135 101.5t-87 161t-31 214.5zM406 492q0 -141 51 -206 t145 -65q51 0 94 21.5t84 72.5v371q-80 68 -166 68t-147 -63.5t-61 -198.5z" />
<glyph unicode="&#x112;" d="M193 0v1335h880v-254h-579v-268h491v-252h-491v-307h600v-254h-901zM371 1475v190h577v-190h-577z" />
<glyph unicode="&#x113;" d="M113 508q0 125 44 223t117.5 167t169 105.5t197.5 36.5q117 0 207 -36.5t149.5 -102t90 -155t30.5 -193.5q0 -41 -4 -78t-8 -55h-684q16 -115 99 -165t196 -50q70 0 132 17.5t130 51.5l98 -180q-86 -55 -192.5 -87t-208.5 -32q-119 0 -221.5 36t-178 104.5t-119.5 167 t-44 225.5zM359 1212v191h565v-191h-565zM418 618h428q0 86 -47 139.5t-152 53.5q-82 0 -145.5 -47t-83.5 -146z" />
<glyph unicode="&#x114;" d="M193 0v1335h880v-254h-579v-268h491v-252h-491v-307h600v-254h-901zM379 1683h166q10 -41 35.5 -67.5t78.5 -26.5t79 26.5t36 67.5h166q-12 -111 -79 -178t-202 -67t-201.5 67.5t-78.5 177.5z" />
<glyph unicode="&#x115;" d="M113 508q0 125 44 223t117.5 167t169 105.5t197.5 36.5q117 0 207 -36.5t149.5 -102t90 -155t30.5 -193.5q0 -41 -4 -78t-8 -55h-684q16 -115 99 -165t196 -50q70 0 132 17.5t130 51.5l98 -180q-86 -55 -192.5 -87t-208.5 -32q-119 0 -221.5 36t-178 104.5t-119.5 167 t-44 225.5zM340 1495h168q8 -66 40 -110t93 -44t93 44.5t41 109.5h167q-2 -61 -20 -119.5t-55 -102.5t-93.5 -70.5t-132.5 -26.5t-132 26.5t-93 70.5t-55.5 102.5t-20.5 119.5zM418 618h428q0 86 -47 139.5t-152 53.5q-82 0 -145.5 -47t-83.5 -146z" />
<glyph unicode="&#x116;" d="M193 0v1335h880v-254h-579v-268h491v-252h-491v-307h600v-254h-901zM485 1593q0 70 49.5 114t124.5 44q76 0 125 -44t49 -114t-49 -113.5t-125 -43.5t-125 44t-49 113z" />
<glyph unicode="&#x117;" d="M113 508q0 125 44 223t117.5 167t169 105.5t197.5 36.5q117 0 207 -36.5t149.5 -102t90 -155t30.5 -193.5q0 -41 -4 -78t-8 -55h-684q16 -115 99 -165t196 -50q70 0 132 17.5t130 51.5l98 -180q-86 -55 -192.5 -87t-208.5 -32q-119 0 -221.5 36t-178 104.5t-119.5 167 t-44 225.5zM418 618h428q0 86 -47 139.5t-152 53.5q-82 0 -145.5 -47t-83.5 -146zM441 1348q0 84 56 136t144 52t144.5 -52t56.5 -136t-56.5 -133.5t-144.5 -49.5t-144 49.5t-56 133.5z" />
<glyph unicode="&#x118;" d="M193 0v1335h880v-254h-579v-268h491v-252h-491v-307h600v-254h-11q-35 -2 -66.5 -18.5t-56 -42t-39 -58.5t-14.5 -65q0 -41 27 -59.5t59 -18.5q20 0 39 9t35 20l68 -152q-39 -31 -99.5 -51.5t-113.5 -20.5q-98 0 -167 50.5t-69 142.5q0 47 15.5 88t39 74.5t52 59.5 t55.5 42h-655z" />
<glyph unicode="&#x119;" d="M113 508q0 125 44 223t117.5 167t169 105.5t197.5 36.5q117 0 207 -36.5t149.5 -102t90 -155t30.5 -193.5q0 -41 -4 -78t-8 -55h-684q16 -115 99 -165t196 -50q70 0 132 17.5t130 51.5l98 -180q-68 -47 -111.5 -84t-68.5 -67.5t-34 -58t-9 -58.5q0 -41 25.5 -59.5 t62.5 -18.5q20 0 37.5 7t34.5 18l61 -135q-39 -31 -98 -49.5t-109 -18.5q-92 0 -152.5 47t-60.5 139q0 76 38 135.5t79 94.5q-35 -8 -54.5 -9.5t-41.5 -1.5q-119 0 -221.5 36t-178 104.5t-119.5 167t-44 225.5zM418 618h428q0 86 -47 139.5t-152 53.5q-82 0 -145.5 -47 t-83.5 -146z" />
<glyph unicode="&#x11a;" d="M193 0v1335h880v-254h-579v-268h491v-252h-491v-307h600v-254h-901zM315 1683h232l108 -124h8l109 124h231l-196 -245h-295z" />
<glyph unicode="&#x11b;" d="M113 508q0 125 44 223t117.5 167t169 105.5t197.5 36.5q117 0 207 -36.5t149.5 -102t90 -155t30.5 -193.5q0 -41 -4 -78t-8 -55h-684q16 -115 99 -165t196 -50q70 0 132 17.5t130 51.5l98 -180q-86 -55 -192.5 -87t-208.5 -32q-119 0 -221.5 36t-178 104.5t-119.5 167 t-44 225.5zM310 1518h219l108 -197h8l109 197h219l-205 -342h-254zM418 618h428q0 86 -47 139.5t-152 53.5q-82 0 -145.5 -47t-83.5 -146z" />
<glyph unicode="&#x11c;" d="M90 659q0 168 48 298t131 219.5t196 136.5t242 47q135 0 230 -52.5t161 -117.5l-166 -186q-43 43 -94.5 69.5t-130.5 26.5q-66 0 -121.5 -30t-96 -85t-64.5 -135t-24 -180q0 -207 79 -320.5t239 -113.5q39 0 73.5 10t57.5 30v230h-195v246h465v-615 q-68 -63 -178.5 -112.5t-239.5 -49.5t-240.5 44t-194.5 130.5t-130 214t-47 295.5zM331 1438l197 245h295l196 -245h-231l-109 125h-8l-108 -125h-232z" />
<glyph unicode="&#x11d;" d="M106 -172q0 125 158 203v8q-41 27 -71.5 67.5t-30.5 106.5q0 51 33.5 102.5t87.5 87.5v9q-55 37 -94 103.5t-39 156.5q0 92 35.5 160.5t95 114.5t138.5 69.5t165 23.5q94 0 168 -24h411v-219h-207q18 -23 33 -59t15 -76q0 -88 -33 -152t-89.5 -106t-133 -62t-164.5 -20 q-66 0 -140 20q-23 -16 -34 -32.5t-11 -41.5q0 -41 41 -59.5t131 -18.5h189q201 0 306 -59t105 -197q0 -80 -43 -147.5t-120.5 -115.5t-190 -75.5t-250.5 -27.5q-98 0 -183 15.5t-146.5 47t-96.5 80.5t-35 117zM291 1176l204 342h254l205 -342h-219l-109 194h-8l-108 -194 h-219zM352 -127q0 -57 68.5 -87t189.5 -30q123 0 199 36t76 89q0 49 -45 64.5t-133 15.5h-127q-55 0 -91 3t-65 9q-39 -25 -55.5 -48t-16.5 -52zM432 672q0 -84 44.5 -126t107.5 -42t109 42t46 126q0 82 -46 124t-109 42t-107.5 -42t-44.5 -124z" />
<glyph unicode="&#x11e;" d="M90 659q0 168 48 298t131 219.5t196 136.5t242 47q135 0 230 -52.5t161 -117.5l-166 -186q-43 43 -94.5 69.5t-130.5 26.5q-66 0 -121.5 -30t-96 -85t-64.5 -135t-24 -180q0 -207 79 -320.5t239 -113.5q39 0 73.5 10t57.5 30v230h-195v246h465v-615 q-68 -63 -178.5 -112.5t-239.5 -49.5t-240.5 44t-194.5 130.5t-130 214t-47 295.5zM395 1683h166q10 -41 35.5 -67.5t78.5 -26.5t79 26.5t36 67.5h166q-12 -111 -79 -178t-202 -67t-201.5 67.5t-78.5 177.5z" />
<glyph unicode="&#x11f;" d="M106 -172q0 125 158 203v8q-41 27 -71.5 67.5t-30.5 106.5q0 51 33.5 102.5t87.5 87.5v9q-55 37 -94 103.5t-39 156.5q0 92 35.5 160.5t95 114.5t138.5 69.5t165 23.5q94 0 168 -24h411v-219h-207q18 -23 33 -59t15 -76q0 -88 -33 -152t-89.5 -106t-133 -62t-164.5 -20 q-66 0 -140 20q-23 -16 -34 -32.5t-11 -41.5q0 -41 41 -59.5t131 -18.5h189q201 0 306 -59t105 -197q0 -80 -43 -147.5t-120.5 -115.5t-190 -75.5t-250.5 -27.5q-98 0 -183 15.5t-146.5 47t-96.5 80.5t-35 117zM321 1495h168q8 -66 40 -110t93 -44t93 44.5t41 109.5h167 q-2 -61 -20 -119.5t-55 -102.5t-93.5 -70.5t-132.5 -26.5t-132 26.5t-93 70.5t-55.5 102.5t-20.5 119.5zM352 -127q0 -57 68.5 -87t189.5 -30q123 0 199 36t76 89q0 49 -45 64.5t-133 15.5h-127q-55 0 -91 3t-65 9q-39 -25 -55.5 -48t-16.5 -52zM432 672q0 -84 44.5 -126 t107.5 -42t109 42t46 126q0 82 -46 124t-109 42t-107.5 -42t-44.5 -124z" />
<glyph unicode="&#x120;" d="M90 659q0 168 48 298t131 219.5t196 136.5t242 47q135 0 230 -52.5t161 -117.5l-166 -186q-43 43 -94.5 69.5t-130.5 26.5q-66 0 -121.5 -30t-96 -85t-64.5 -135t-24 -180q0 -207 79 -320.5t239 -113.5q39 0 73.5 10t57.5 30v230h-195v246h465v-615 q-68 -63 -178.5 -112.5t-239.5 -49.5t-240.5 44t-194.5 130.5t-130 214t-47 295.5zM501 1593q0 70 49.5 114t124.5 44q76 0 125 -44t49 -114t-49 -113.5t-125 -43.5t-125 44t-49 113z" />
<glyph unicode="&#x121;" d="M106 -172q0 125 158 203v8q-41 27 -71.5 67.5t-30.5 106.5q0 51 33.5 102.5t87.5 87.5v9q-55 37 -94 103.5t-39 156.5q0 92 35.5 160.5t95 114.5t138.5 69.5t165 23.5q94 0 168 -24h411v-219h-207q18 -23 33 -59t15 -76q0 -88 -33 -152t-89.5 -106t-133 -62t-164.5 -20 q-66 0 -140 20q-23 -16 -34 -32.5t-11 -41.5q0 -41 41 -59.5t131 -18.5h189q201 0 306 -59t105 -197q0 -80 -43 -147.5t-120.5 -115.5t-190 -75.5t-250.5 -27.5q-98 0 -183 15.5t-146.5 47t-96.5 80.5t-35 117zM352 -127q0 -57 68.5 -87t189.5 -30q123 0 199 36t76 89 q0 49 -45 64.5t-133 15.5h-127q-55 0 -91 3t-65 9q-39 -25 -55.5 -48t-16.5 -52zM422 1348q0 84 56 136t144 52t144.5 -52t56.5 -136t-56.5 -133.5t-144.5 -49.5t-144 49.5t-56 133.5zM432 672q0 -84 44.5 -126t107.5 -42t109 42t46 126q0 82 -46 124t-109 42t-107.5 -42 t-44.5 -124z" />
<glyph unicode="&#x122;" d="M90 659q0 168 48 298t131 219.5t196 136.5t242 47q135 0 230 -52.5t161 -117.5l-166 -186q-43 43 -94.5 69.5t-130.5 26.5q-66 0 -121.5 -30t-96 -85t-64.5 -135t-24 -180q0 -207 79 -320.5t239 -113.5q39 0 73.5 10t57.5 30v230h-195v246h465v-615 q-68 -63 -178.5 -112.5t-239.5 -49.5t-240.5 44t-194.5 130.5t-130 214t-47 295.5zM473 -348q74 8 122 24.5t48 51.5q0 29 -21.5 46t-68.5 29l58 111q139 -14 193 -54t54 -118q0 -53 -29.5 -91t-78.5 -63.5t-114.5 -39t-139.5 -17.5z" />
<glyph unicode="&#x123;" d="M106 -172q0 125 158 203v8q-41 27 -71.5 67.5t-30.5 106.5q0 51 33.5 102.5t87.5 87.5v9q-55 37 -94 103.5t-39 156.5q0 92 35.5 160.5t95 114.5t138.5 69.5t165 23.5q94 0 168 -24h411v-219h-207q18 -23 33 -59t15 -76q0 -88 -33 -152t-89.5 -106t-133 -62t-164.5 -20 q-66 0 -140 20q-23 -16 -34 -32.5t-11 -41.5q0 -41 41 -59.5t131 -18.5h189q201 0 306 -59t105 -197q0 -80 -43 -147.5t-120.5 -115.5t-190 -75.5t-250.5 -27.5q-98 0 -183 15.5t-146.5 47t-96.5 80.5t-35 117zM352 -127q0 -57 68.5 -87t189.5 -30q123 0 199 36t76 89 q0 49 -45 64.5t-133 15.5h-127q-55 0 -91 3t-65 9q-39 -25 -55.5 -48t-16.5 -52zM432 672q0 -84 44.5 -126t107.5 -42t109 42t46 126q0 82 -46 124t-109 42t-107.5 -42t-44.5 -124zM446 1286q0 51 30 90t80 64.5t115.5 40t139.5 18.5l22 -121q-74 -8 -122 -25.5t-48 -52.5 q0 -53 88 -73l-57 -111q-137 12 -192.5 52t-55.5 118z" />
<glyph unicode="&#x124;" d="M131 0v1335h301v-514h365v514h301v-1335h-301v557h-365v-557h-301zM270 1438l197 245h295l196 -245h-231l-109 125h-8l-108 -125h-232z" />
<glyph unicode="&#x125;" d="M-37 1536l197 245h295l196 -245h-231l-109 125h-8l-108 -125h-232zM147 0v1436h302v-353l-17 -194q31 29 67 56.5t77.5 49t92 33.5t107.5 12q172 0 251 -110.5t79 -302.5v-627h-301v588q0 102 -33 149t-117 47q-61 0 -107 -26.5t-99 -79.5v-678h-302z" />
<glyph unicode="&#x126;" d="M6 995v133l125 11v196h301v-194h365v194h301v-194h125v-146h-125v-995h-301v557h-365v-557h-301v995h-125zM432 821h365v174h-365v-174z" />
<glyph unicode="&#x127;" d="M12 1139v133l135 10v154h302v-152h372v-145h-372v-97l-17 -194q31 29 67 56.5t77.5 49t92 33.5t107.5 12q172 0 251 -110.5t79 -302.5v-586h-301v547q0 102 -33 149t-117 47q-61 0 -107 -26.5t-99 -79.5v-637h-302v1139h-135z" />
<glyph unicode="&#x128;" d="M152 0v254h311v827h-311v254h925v-254h-311v-827h311v-254h-925zM266 1440q16 141 78 209.5t141 68.5q41 0 76 -14t64.5 -31.5t55.5 -32t50 -14.5q27 0 47.5 20.5t30.5 71.5h154q-16 -141 -78 -209.5t-142 -68.5q-41 0 -75.5 14t-64.5 31.5t-55.5 32t-49.5 14.5 q-27 0 -47.5 -20.5t-30.5 -71.5h-154z" />
<glyph unicode="&#x129;" d="M162 780v236h708v-1016h-301v780h-407zM356 1178q18 150 82 221t158 71q37 0 68.5 -16t57 -36.5t48 -37t45.5 -16.5q33 0 53.5 23.5t34.5 82.5h154q-18 -147 -82 -219.5t-158 -72.5q-39 0 -69.5 17t-57.5 36.5t-49.5 37t-42.5 17.5q-33 0 -53.5 -23.5t-34.5 -84.5h-154z " />
<glyph unicode="&#x12a;" d="M152 0v254h311v827h-311v254h925v-254h-311v-827h311v-254h-925zM326 1475v190h577v-190h-577z" />
<glyph unicode="&#x12b;" d="M162 780v236h708v-1016h-301v780h-407zM424 1212v191h565v-191h-565z" />
<glyph unicode="&#x12c;" d="M152 0v254h311v827h-311v254h925v-254h-311v-827h311v-254h-925zM334 1683h166q10 -41 35.5 -67.5t78.5 -26.5t79 26.5t36 67.5h166q-12 -111 -79 -178t-202 -67t-201.5 67.5t-78.5 177.5z" />
<glyph unicode="&#x12d;" d="M162 780v236h708v-1016h-301v780h-407zM405 1495h168q8 -66 40 -110t93 -44t93 44.5t41 109.5h167q-2 -61 -20 -119.5t-55 -102.5t-93.5 -70.5t-132.5 -26.5t-132 26.5t-93 70.5t-55.5 102.5t-20.5 119.5z" />
<glyph unicode="&#x12e;" d="M152 0v254h311v827h-311v254h925v-254h-311v-827h311v-254h-311q-84 -35 -119 -83t-35 -101q0 -41 27 -59.5t57 -18.5q23 0 42.5 9t33.5 20l70 -152q-41 -31 -101.5 -51.5t-113.5 -20.5q-49 0 -91 12.5t-74 37t-50.5 60.5t-18.5 83q0 49 15.5 90t38 74.5t49 58.5t49.5 41 h-393z" />
<glyph unicode="&#x12f;" d="M162 780v236h708v-1016q-82 -31 -113.5 -79t-31.5 -95q0 -41 25.5 -59.5t60.5 -18.5q20 0 37.5 7t34.5 18l63 -135q-41 -31 -100.5 -49.5t-106.5 -18.5q-92 0 -154.5 47t-62.5 139q0 45 13.5 83t34 69t44 53.5t41.5 38.5h-86v780h-407zM506 1348q0 84 56 136t145 52 q88 0 144 -52t56 -136t-56 -133.5t-144 -49.5t-144.5 49.5t-56.5 133.5z" />
<glyph unicode="&#x130;" d="M152 0v254h311v827h-311v254h925v-254h-311v-827h311v-254h-925zM440 1593q0 70 49.5 114t124.5 44q76 0 125 -44t49 -114t-49 -113.5t-125 -43.5t-125 44t-49 113z" />
<glyph unicode="&#x131;" d="M162 780v236h708v-1016h-301v780h-407z" />
<glyph unicode="&#x134;" d="M121 197l174 186q119 -147 254 -147q104 0 155.5 52t51.5 191v604h-523v252h824v-880q0 -98 -25.5 -185.5t-85 -153t-155 -103.5t-232.5 -38q-55 0 -114.5 11.5t-117 38t-110.5 68.5t-96 104zM315 1438l197 245h295l196 -245h-231l-109 125h-8l-108 -125h-232z" />
<glyph unicode="&#x135;" d="M86 -332l88 215q61 -29 111.5 -39t95.5 -10q109 0 148.5 52.5t39.5 162.5v731h-407v236h708v-955q0 -92 -21.5 -176t-75.5 -147.5t-145 -101t-229 -37.5q-94 0 -170.5 19.5t-142.5 49.5zM375 1176l204 342h254l205 -342h-219l-109 194h-8l-108 -194h-219z" />
<glyph unicode="&#x136;" d="M139 0v1335h305v-547h7l395 547h332l-400 -532l439 -803h-334l-283 563l-156 -205v-358h-305zM450 -348q74 8 122 24.5t48 51.5q0 29 -21.5 46t-68.5 29l58 111q139 -14 193 -54t54 -118q0 -53 -29.5 -91t-78.5 -63.5t-114.5 -39t-139.5 -17.5z" />
<glyph unicode="&#x137;" d="M156 0v1436h301v-830h8l373 410h329l-385 -418l416 -598h-326l-266 414l-149 -158v-256h-301zM452 -348q74 8 122 24.5t48 51.5q0 29 -21.5 46t-68.5 29l58 111q139 -14 193 -54t54 -118q0 -53 -29.5 -91t-78.5 -63.5t-114.5 -39t-139.5 -17.5z" />
<glyph unicode="&#x138;" d="M156 0v1016h301v-404l6 2l375 402h329l-385 -418l416 -598h-326l-264 399l-151 -147v-252h-301z" />
<glyph unicode="&#x139;" d="M219 0v1335h301v-1081h594v-254h-895zM248 1438l166 245h319l-246 -245h-239z" />
<glyph unicode="&#x13a;" d="M127 1198v238h596v-1051q0 -47 13.5 -79t37 -51t53 -27.5t60.5 -8.5q35 0 73.5 7t86.5 26l67 -221q-41 -12 -75.5 -22.5t-69.5 -17.5t-74 -11.5t-86 -4.5q-193 0 -290 114t-97 308v801h-295zM391 1551l166 245h319l-246 -245h-239z" />
<glyph unicode="&#x13b;" d="M219 0v1335h301v-1081h594v-254h-895zM469 -348q74 8 122 24.5t48 51.5q0 29 -21.5 46t-68.5 29l58 111q139 -14 193 -54t54 -118q0 -53 -29.5 -91t-78.5 -63.5t-114.5 -39t-139.5 -17.5z" />
<glyph unicode="&#x13c;" d="M127 1198v238h596v-1051q0 -47 13.5 -79t37 -51t53 -27.5t60.5 -8.5q35 0 73.5 7t86.5 26l67 -221q-41 -12 -75.5 -22.5t-69.5 -17.5t-74 -11.5t-86 -4.5q-193 0 -290 114t-97 308v801h-295zM530 -348q74 8 122 24.5t48 51.5q0 29 -21.5 46t-68.5 29l58 111 q139 -14 193 -54t54 -118q0 -53 -29.5 -91t-78.5 -63.5t-114.5 -39t-139.5 -17.5z" />
<glyph unicode="&#x13d;" d="M219 0v1335h301v-1081h594v-254h-895zM780 1501h193l-4 -141l-50 -314h-129z" />
<glyph unicode="&#x13e;" d="M127 1198v238h596v-1051q0 -47 13.5 -79t37 -51t53 -27.5t60.5 -8.5q35 0 73.5 7t86.5 26l67 -221q-41 -12 -75.5 -22.5t-69.5 -17.5t-74 -11.5t-86 -4.5q-193 0 -290 114t-97 308v801h-295zM837 1577h193l-4 -141l-50 -314h-129z" />
<glyph unicode="&#x13f;" d="M219 0v1335h301v-1081h594v-254h-895zM727 725q0 84 56 136t144 52t144.5 -52t56.5 -136t-56.5 -133.5t-144.5 -49.5t-144 49.5t-56 133.5z" />
<glyph unicode="&#x140;" d="M27 1198v238h596v-1051q0 -47 13.5 -79t37 -51t53 -27.5t60.5 -8.5q35 0 73.5 7t86.5 26l67 -221q-41 -12 -75.5 -22.5t-69.5 -17.5t-74 -11.5t-86 -4.5q-193 0 -290 114t-97 308v801h-295zM764 721q0 84 56 136t144 52t144.5 -52t56.5 -136t-56.5 -133.5t-144.5 -49.5 t-144 49.5t-56 133.5z" />
<glyph unicode="&#x141;" d="M68 322v233l151 84v696h301v-549l422 232v-234l-422 -231v-299h594v-254h-895v406z" />
<glyph unicode="&#x142;" d="M127 1198v238h596v-480l303 164v-239l-303 -166v-330q0 -47 13.5 -79t37 -51t53 -27.5t60.5 -8.5q35 0 73.5 7t86.5 26l67 -221q-41 -12 -75.5 -22.5t-69.5 -17.5t-74 -11.5t-86 -4.5q-193 0 -290 114t-97 308v168l-232 -129v240l232 131v391h-295z" />
<glyph unicode="&#x143;" d="M135 0v1335h307l283 -665l115 -293h8q-10 106 -26.5 237t-16.5 248v473h289v-1335h-308l-282 666l-115 290h-8q10 -111 26.5 -237.5t16.5 -245.5v-473h-289zM473 1438l166 245h319l-246 -245h-239z" />
<glyph unicode="&#x144;" d="M147 0v1016h246l23 -135h8q66 66 150.5 112.5t199.5 46.5q172 0 252 -110.5t80 -302.5v-627h-301v588q0 102 -33 149t-117 47q-61 0 -107 -26.5t-99 -79.5v-678h-302zM477 1176l183 342h307l-270 -342h-220z" />
<glyph unicode="&#x145;" d="M135 0v1335h307l283 -665l115 -293h8q-10 106 -26.5 237t-16.5 248v473h289v-1335h-308l-282 666l-115 290h-8q10 -111 26.5 -237.5t16.5 -245.5v-473h-289zM403 -348q74 8 122 24.5t48 51.5q0 29 -21.5 46t-68.5 29l58 111q139 -14 193 -54t54 -118q0 -53 -29.5 -91 t-78.5 -63.5t-114.5 -39t-139.5 -17.5z" />
<glyph unicode="&#x146;" d="M147 0v1016h246l23 -135h8q66 66 150.5 112.5t199.5 46.5q172 0 252 -110.5t80 -302.5v-627h-301v588q0 102 -33 149t-117 47q-61 0 -107 -26.5t-99 -79.5v-678h-302zM415 -348q74 8 122 24.5t48 51.5q0 29 -21.5 46t-68.5 29l58 111q139 -14 193 -54t54 -118 q0 -53 -29.5 -91t-78.5 -63.5t-114.5 -39t-139.5 -17.5z" />
<glyph unicode="&#x147;" d="M135 0v1335h307l283 -665l115 -293h8q-10 106 -26.5 237t-16.5 248v473h289v-1335h-308l-282 666l-115 290h-8q10 -111 26.5 -237.5t16.5 -245.5v-473h-289zM282 1683h232l108 -124h8l109 124h231l-196 -245h-295z" />
<glyph unicode="&#x148;" d="M147 0v1016h246l23 -135h8q66 66 150.5 112.5t199.5 46.5q172 0 252 -110.5t80 -302.5v-627h-301v588q0 102 -33 149t-117 47q-61 0 -107 -26.5t-99 -79.5v-678h-302zM314 1518h219l108 -197h8l109 197h219l-205 -342h-254z" />
<glyph unicode="&#x149;" d="M-94 754q215 96 229 282q-10 -2 -20.5 -3t-20.5 -1q-84 0 -135 51.5t-51 137.5q0 94 54 150t140 56q117 0 179.5 -87t62.5 -240q0 -168 -89 -296t-269 -210zM442 0v1016h246l23 -131h8q59 63 132 109t175 46q152 0 222.5 -109.5t70.5 -299.5v-631h-301v592 q0 100 -25.5 146t-87.5 46q-49 0 -83 -26.5t-79 -75.5v-682h-301z" />
<glyph unicode="&#x14c;" d="M78 674q0 164 39 292t109.5 215t170 133t217.5 46q119 0 218.5 -46t170 -134t109.5 -216t39 -290q0 -164 -39 -293t-109.5 -219t-170 -138.5t-218.5 -48.5t-218 48.5t-169.5 138.5t-109.5 219t-39 293zM326 1475v190h577v-190h-577zM387 674q0 -203 61.5 -320.5 t165.5 -117.5t166 117.5t62 320.5q0 201 -61.5 313.5t-166.5 112.5q-104 0 -165.5 -113t-61.5 -313z" />
<glyph unicode="&#x14d;" d="M96 508q0 127 43 226.5t116 167t166 103t193 35.5t193.5 -35.5t166.5 -103t116 -167t43 -226.5t-43 -226.5t-116 -167t-166 -103.5t-194 -36q-100 0 -193 36t-166 103.5t-116 167t-43 226.5zM332 1212v191h565v-191h-565zM406 508q0 -133 52 -211t156 -78t156.5 78 t52.5 211t-52 211t-157 78q-104 0 -156 -78t-52 -211z" />
<glyph unicode="&#x14e;" d="M78 674q0 164 39 292t109.5 215t170 133t217.5 46q119 0 218.5 -46t170 -134t109.5 -216t39 -290q0 -164 -39 -293t-109.5 -219t-170 -138.5t-218.5 -48.5t-218 48.5t-169.5 138.5t-109.5 219t-39 293zM334 1683h166q10 -41 35.5 -67.5t78.5 -26.5t79 26.5t36 67.5h166 q-12 -111 -79 -178t-202 -67t-201.5 67.5t-78.5 177.5zM387 674q0 -203 61.5 -320.5t165.5 -117.5t166 117.5t62 320.5q0 201 -61.5 313.5t-166.5 112.5q-104 0 -165.5 -113t-61.5 -313z" />
<glyph unicode="&#x14f;" d="M96 508q0 127 43 226.5t116 167t166 103t193 35.5t193.5 -35.5t166.5 -103t116 -167t43 -226.5t-43 -226.5t-116 -167t-166 -103.5t-194 -36q-100 0 -193 36t-166 103.5t-116 167t-43 226.5zM313 1495h168q8 -66 40 -110t93 -44t93 44.5t41 109.5h167q-2 -61 -20 -119.5 t-55 -102.5t-93.5 -70.5t-132.5 -26.5t-132 26.5t-93 70.5t-55.5 102.5t-20.5 119.5zM406 508q0 -133 52 -211t156 -78t156.5 78t52.5 211t-52 211t-157 78q-104 0 -156 -78t-52 -211z" />
<glyph unicode="&#x150;" d="M78 674q0 164 39 292t109.5 215t170 133t217.5 46q119 0 218.5 -46t170 -134t109.5 -216t39 -290q0 -164 -39 -293t-109.5 -219t-170 -138.5t-218.5 -48.5t-218 48.5t-169.5 138.5t-109.5 219t-39 293zM334 1438l129 245h256l-182 -245h-203zM387 674q0 -203 61.5 -320.5 t165.5 -117.5t166 117.5t62 320.5q0 201 -61.5 313.5t-166.5 112.5q-104 0 -165.5 -113t-61.5 -313zM700 1438l131 245h256l-184 -245h-203z" />
<glyph unicode="&#x151;" d="M96 508q0 127 43 226.5t116 167t166 103t193 35.5t193.5 -35.5t166.5 -103t116 -167t43 -226.5t-43 -226.5t-116 -167t-166 -103.5t-194 -36q-100 0 -193 36t-166 103.5t-116 167t-43 226.5zM358 1174l140 309h239l-194 -309h-185zM406 508q0 -133 52 -211t156 -78 t156.5 78t52.5 211t-52 211t-157 78q-104 0 -156 -78t-52 -211zM707 1174l141 309h239l-194 -309h-186z" />
<glyph unicode="&#x152;" d="M39 674q0 172 43 297t118.5 205.5t179 119.5t224.5 39h594v-252h-328v-270h248v-252h-248v-307h349v-254h-631q-119 0 -219.5 41t-174 124t-114.5 210t-41 299zM348 674q0 -121 15.5 -204t44 -133t69.5 -71.5t92 -21.5h33v848h-33q-51 0 -92 -20.5t-69.5 -69t-44 -128 t-15.5 -200.5z" />
<glyph unicode="&#x153;" d="M25 508q0 127 29.5 226.5t81.5 167t122 103t148 35.5q88 0 149 -48t98 -128q41 86 104.5 131t139.5 45t135.5 -38.5t99 -105.5t60 -156t20.5 -189q0 -41 -3 -68.5t-9 -62.5h-455q16 -104 64.5 -156.5t120.5 -52.5q41 0 75.5 12.5t75.5 40.5l103 -192q-59 -47 -131 -72 t-135 -25q-80 0 -149 41t-114 117q-45 -78 -104 -118t-152 -40q-78 0 -146.5 36t-119.5 103.5t-79.5 167t-28.5 226.5zM295 508q0 -133 30.5 -212t96.5 -79q55 0 85 79t30 212t-30 212t-85 79q-66 0 -96.5 -79t-30.5 -212zM741 604h234q0 43 -5 80t-16.5 65.5t-31 45 t-48.5 16.5q-53 0 -87.5 -50t-45.5 -157z" />
<glyph unicode="&#x154;" d="M143 0v1335h473q106 0 199.5 -20.5t164.5 -68.5t112 -128t41 -198q0 -147 -66 -242.5t-172 -142.5l301 -535h-338l-256 481h-158v-481h-301zM444 721h148q244 0 244 199q0 98 -61.5 137t-182.5 39h-148v-375zM467 1438l166 245h319l-246 -245h-239z" />
<glyph unicode="&#x155;" d="M238 0v1016h245l25 -221h6q76 125 182.5 185t229.5 60q68 0 109.5 -10t86.5 -31l-61 -251q-47 14 -85 21t-95 7q-94 0 -185.5 -55t-156.5 -193v-528h-301zM526 1176l183 342h307l-270 -342h-220z" />
<glyph unicode="&#x156;" d="M143 0v1335h473q106 0 199.5 -20.5t164.5 -68.5t112 -128t41 -198q0 -147 -66 -242.5t-172 -142.5l301 -535h-338l-256 481h-158v-481h-301zM444 -348q74 8 122 24.5t48 51.5q0 29 -21.5 46t-68.5 29l58 111q139 -14 193 -54t54 -118q0 -53 -29.5 -91t-78.5 -63.5 t-114.5 -39t-139.5 -17.5zM444 721h148q244 0 244 199q0 98 -61.5 137t-182.5 39h-148v-375z" />
<glyph unicode="&#x157;" d="M206 -348q74 8 122 24.5t48 51.5q0 29 -21.5 46t-68.5 29l58 111q139 -14 193 -54t54 -118q0 -53 -29.5 -91t-78.5 -63.5t-114.5 -39t-139.5 -17.5zM238 0v1016h245l25 -221h6q76 125 182.5 185t229.5 60q68 0 109.5 -10t86.5 -31l-61 -251q-47 14 -85 21t-95 7 q-94 0 -185.5 -55t-156.5 -193v-528h-301z" />
<glyph unicode="&#x158;" d="M143 0v1335h473q106 0 199.5 -20.5t164.5 -68.5t112 -128t41 -198q0 -147 -66 -242.5t-172 -142.5l301 -535h-338l-256 481h-158v-481h-301zM276 1683h232l108 -124h8l109 124h231l-196 -245h-295zM444 721h148q244 0 244 199q0 98 -61.5 137t-182.5 39h-148v-375z" />
<glyph unicode="&#x159;" d="M238 0v1016h245l25 -221h6q76 125 182.5 185t229.5 60q68 0 109.5 -10t86.5 -31l-61 -251q-47 14 -85 21t-95 7q-94 0 -185.5 -55t-156.5 -193v-528h-301zM363 1518h219l108 -197h8l109 197h219l-205 -342h-254z" />
<glyph unicode="&#x15a;" d="M102 168l174 207q76 -61 165 -100t177 -39q104 0 152.5 34.5t48.5 94.5q0 31 -14 53t-41 39.5t-64.5 33t-87.5 33.5l-172 74q-55 20 -107 53t-91 77t-62.5 102.5t-23.5 132.5q0 82 35.5 154.5t100 126.5t155 85t198.5 31q123 0 237.5 -45t207.5 -131l-154 -191 q-70 51 -137.5 79t-153.5 28q-88 0 -136 -32t-48 -89q0 -61 61.5 -92t157.5 -66l162 -69q133 -49 209.5 -135.5t76.5 -227.5q0 -84 -34.5 -158.5t-100 -131t-162 -90.5t-221.5 -34q-135 0 -267 48.5t-241 144.5zM475 1438l166 245h319l-246 -245h-239z" />
<glyph unicode="&#x15b;" d="M109 131l135 188q88 -55 177 -87.5t191 -32.5q104 0 149.5 22.5t45.5 63.5q0 47 -75 76.5t-197 64.5q-68 18 -132.5 44t-115.5 61.5t-83 83t-32 108.5q0 70 33 129t93 100t147 64.5t196 23.5q135 0 246.5 -44t191.5 -95l-135 -180q-70 41 -143.5 68.5t-153.5 27.5 q-96 0 -136 -20.5t-40 -59.5q0 -23 20.5 -41t55.5 -32.5t83 -27.5t101 -28q76 -20 143.5 -45.5t118.5 -60.5t82 -84t31 -115q0 -70 -33 -129t-95.5 -103t-155.5 -70t-216 -26q-137 0 -268 45.5t-229 110.5zM471 1176l183 342h307l-270 -342h-220z" />
<glyph unicode="&#x15c;" d="M102 168l174 207q76 -61 165 -100t177 -39q104 0 152.5 34.5t48.5 94.5q0 31 -14 53t-41 39.5t-64.5 33t-87.5 33.5l-172 74q-55 20 -107 53t-91 77t-62.5 102.5t-23.5 132.5q0 82 35.5 154.5t100 126.5t155 85t198.5 31q123 0 237.5 -45t207.5 -131l-154 -191 q-70 51 -137.5 79t-153.5 28q-88 0 -136 -32t-48 -89q0 -61 61.5 -92t157.5 -66l162 -69q133 -49 209.5 -135.5t76.5 -227.5q0 -84 -34.5 -158.5t-100 -131t-162 -90.5t-221.5 -34q-135 0 -267 48.5t-241 144.5zM284 1438l197 245h295l196 -245h-231l-109 125h-8l-108 -125 h-232z" />
<glyph unicode="&#x15d;" d="M109 131l135 188q88 -55 177 -87.5t191 -32.5q104 0 149.5 22.5t45.5 63.5q0 47 -75 76.5t-197 64.5q-68 18 -132.5 44t-115.5 61.5t-83 83t-32 108.5q0 70 33 129t93 100t147 64.5t196 23.5q135 0 246.5 -44t191.5 -95l-135 -180q-70 41 -143.5 68.5t-153.5 27.5 q-96 0 -136 -20.5t-40 -59.5q0 -23 20.5 -41t55.5 -32.5t83 -27.5t101 -28q76 -20 143.5 -45.5t118.5 -60.5t82 -84t31 -115q0 -70 -33 -129t-95.5 -103t-155.5 -70t-216 -26q-137 0 -268 45.5t-229 110.5zM308 1176l204 342h254l205 -342h-219l-109 194h-8l-108 -194h-219z " />
<glyph unicode="&#x15e;" d="M102 168l174 207q76 -61 165 -100t177 -39q104 0 152.5 34.5t48.5 94.5q0 31 -14 53t-41 39.5t-64.5 33t-87.5 33.5l-172 74q-55 20 -107 53t-91 77t-62.5 102.5t-23.5 132.5q0 82 35.5 154.5t100 126.5t155 85t198.5 31q123 0 237.5 -45t207.5 -131l-154 -191 q-70 51 -137.5 79t-153.5 28q-88 0 -136 -32t-48 -89q0 -61 61.5 -92t157.5 -66l162 -69q133 -49 209.5 -135.5t76.5 -227.5q0 -84 -34.5 -158.5t-100 -131t-162 -90.5t-221.5 -34q-135 0 -267 48.5t-241 144.5zM409 -332q72 8 120 28.5t48 61.5q0 27 -24.5 48.5t-93.5 37.5 l81 164h177l-41 -96q51 -16 84.5 -52t33.5 -100q0 -53 -29.5 -91t-79.5 -64.5t-115.5 -40t-137.5 -17.5z" />
<glyph unicode="&#x15f;" d="M109 131l135 188q88 -55 177 -87.5t191 -32.5q104 0 149.5 22.5t45.5 63.5q0 47 -75 76.5t-197 64.5q-68 18 -132.5 44t-115.5 61.5t-83 83t-32 108.5q0 70 33 129t93 100t147 64.5t196 23.5q135 0 246.5 -44t191.5 -95l-135 -180q-70 41 -143.5 68.5t-153.5 27.5 q-96 0 -136 -20.5t-40 -59.5q0 -23 20.5 -41t55.5 -32.5t83 -27.5t101 -28q76 -20 143.5 -45.5t118.5 -60.5t82 -84t31 -115q0 -70 -33 -129t-95.5 -103t-155.5 -70t-216 -26q-137 0 -268 45.5t-229 110.5zM426 -332q74 8 122 28.5t48 61.5q0 27 -25.5 48.5t-94.5 37.5 l82 164h176l-41 -96q53 -16 85.5 -52t32.5 -100q0 -53 -29.5 -91t-78.5 -64.5t-114.5 -40t-139.5 -17.5z" />
<glyph unicode="&#x160;" d="M102 168l174 207q76 -61 165 -100t177 -39q104 0 152.5 34.5t48.5 94.5q0 31 -14 53t-41 39.5t-64.5 33t-87.5 33.5l-172 74q-55 20 -107 53t-91 77t-62.5 102.5t-23.5 132.5q0 82 35.5 154.5t100 126.5t155 85t198.5 31q123 0 237.5 -45t207.5 -131l-154 -191 q-70 51 -137.5 79t-153.5 28q-88 0 -136 -32t-48 -89q0 -61 61.5 -92t157.5 -66l162 -69q133 -49 209.5 -135.5t76.5 -227.5q0 -84 -34.5 -158.5t-100 -131t-162 -90.5t-221.5 -34q-135 0 -267 48.5t-241 144.5zM284 1683h232l108 -124h8l109 124h231l-196 -245h-295z" />
<glyph unicode="&#x161;" d="M109 131l135 188q88 -55 177 -87.5t191 -32.5q104 0 149.5 22.5t45.5 63.5q0 47 -75 76.5t-197 64.5q-68 18 -132.5 44t-115.5 61.5t-83 83t-32 108.5q0 70 33 129t93 100t147 64.5t196 23.5q135 0 246.5 -44t191.5 -95l-135 -180q-70 41 -143.5 68.5t-153.5 27.5 q-96 0 -136 -20.5t-40 -59.5q0 -23 20.5 -41t55.5 -32.5t83 -27.5t101 -28q76 -20 143.5 -45.5t118.5 -60.5t82 -84t31 -115q0 -70 -33 -129t-95.5 -103t-155.5 -70t-216 -26q-137 0 -268 45.5t-229 110.5zM308 1518h219l108 -197h8l109 197h219l-205 -342h-254z" />
<glyph unicode="&#x162;" d="M63 1081v254h1102v-254h-399v-1081h-303v1081h-400zM401 -332q72 8 120 28.5t48 61.5q0 27 -24.5 48.5t-93.5 37.5l81 164h177l-41 -96q51 -16 84.5 -52t33.5 -100q0 -53 -29.5 -91t-79.5 -64.5t-115.5 -40t-137.5 -17.5z" />
<glyph unicode="&#x163;" d="M100 780v224l271 12l39 270h247v-270h430v-236h-430v-356q0 -117 51.5 -165t161.5 -48q59 0 108.5 10t94.5 27l53 -217q-68 -20 -150.5 -38t-180.5 -18q-121 0 -205 33t-136.5 91.5t-75 140.5t-22.5 182v358h-256zM553 -332q74 8 122 28.5t48 61.5q0 27 -25.5 48.5 t-94.5 37.5l82 164h176l-41 -96q53 -16 85.5 -52t32.5 -100q0 -53 -29.5 -91t-78.5 -64.5t-114.5 -40t-139.5 -17.5z" />
<glyph unicode="&#x164;" d="M63 1081v254h1102v-254h-399v-1081h-303v1081h-400zM270 1683h232l108 -124h8l109 124h231l-196 -245h-295z" />
<glyph unicode="&#x165;" d="M100 780v224l271 12l39 270h247v-270h430v-236h-430v-356q0 -117 51.5 -165t161.5 -48q59 0 108.5 10t94.5 27l53 -217q-68 -20 -150.5 -38t-180.5 -18q-121 0 -205 33t-136.5 91.5t-75 140.5t-22.5 182v358h-256zM788 1577h193l-4 -141l-50 -314h-129z" />
<glyph unicode="&#x168;" d="M131 514v821h301v-852q0 -121 45 -184t141 -63t142.5 63t46.5 184v852h291v-821q0 -262 -118 -400.5t-362 -138.5q-246 0 -366.5 138.5t-120.5 400.5zM266 1440q16 141 78 209.5t141 68.5q41 0 76 -14t64.5 -31.5t55.5 -32t50 -14.5q27 0 47.5 20.5t30.5 71.5h154 q-16 -141 -78 -209.5t-142 -68.5q-41 0 -75.5 14t-64.5 31.5t-55.5 32t-49.5 14.5q-27 0 -47.5 -20.5t-30.5 -71.5h-154z" />
<glyph unicode="&#x169;" d="M127 389v627h301v-588q0 -102 30.5 -149.5t116.5 -47.5q57 0 101.5 25t97.5 92v668h301v-1016h-246l-22 145h-8q-68 -78 -150 -124t-192 -46q-174 0 -252 111t-78 303zM258 1178q18 150 82 221t158 71q37 0 68.5 -16t57 -36.5t48 -37t45.5 -16.5q33 0 53.5 23.5 t34.5 82.5h154q-18 -147 -82 -219.5t-158 -72.5q-39 0 -69.5 17t-57.5 36.5t-49.5 37t-42.5 17.5q-33 0 -53.5 -23.5t-34.5 -84.5h-154z" />
<glyph unicode="&#x16a;" d="M131 514v821h301v-852q0 -121 45 -184t141 -63t142.5 63t46.5 184v852h291v-821q0 -262 -118 -400.5t-362 -138.5q-246 0 -366.5 138.5t-120.5 400.5zM326 1475v190h577v-190h-577z" />
<glyph unicode="&#x16b;" d="M127 389v627h301v-588q0 -102 30.5 -149.5t116.5 -47.5q57 0 101.5 25t97.5 92v668h301v-1016h-246l-22 145h-8q-68 -78 -150 -124t-192 -46q-174 0 -252 111t-78 303zM326 1212v191h565v-191h-565z" />
<glyph unicode="&#x16c;" d="M131 514v821h301v-852q0 -121 45 -184t141 -63t142.5 63t46.5 184v852h291v-821q0 -262 -118 -400.5t-362 -138.5q-246 0 -366.5 138.5t-120.5 400.5zM334 1683h166q10 -41 35.5 -67.5t78.5 -26.5t79 26.5t36 67.5h166q-12 -111 -79 -178t-202 -67t-201.5 67.5 t-78.5 177.5z" />
<glyph unicode="&#x16d;" d="M127 389v627h301v-588q0 -102 30.5 -149.5t116.5 -47.5q57 0 101.5 25t97.5 92v668h301v-1016h-246l-22 145h-8q-68 -78 -150 -124t-192 -46q-174 0 -252 111t-78 303zM307 1495h168q8 -66 40 -110t93 -44t93 44.5t41 109.5h167q-2 -61 -20 -119.5t-55 -102.5 t-93.5 -70.5t-132.5 -26.5t-132 26.5t-93 70.5t-55.5 102.5t-20.5 119.5z" />
<glyph unicode="&#x16e;" d="M131 514v821h301v-852q0 -121 45 -184t141 -63t142.5 63t46.5 184v852h291v-821q0 -262 -118 -400.5t-362 -138.5q-246 0 -366.5 138.5t-120.5 400.5zM383 1628q0 92 63.5 146.5t167.5 54.5t168 -54.5t64 -146.5t-64 -146.5t-168 -54.5t-167.5 54.5t-63.5 146.5z M530 1628q0 -41 24.5 -64.5t59.5 -23.5t58.5 23.5t23.5 64.5t-23.5 64.5t-58.5 23.5t-59.5 -23.5t-24.5 -64.5z" />
<glyph unicode="&#x16f;" d="M127 389v627h301v-588q0 -102 30.5 -149.5t116.5 -47.5q57 0 101.5 25t97.5 92v668h301v-1016h-246l-22 145h-8q-68 -78 -150 -124t-192 -46q-174 0 -252 111t-78 303zM377 1331q0 96 63.5 152.5t167.5 56.5t168 -56.5t64 -152.5t-64 -152.5t-168 -56.5t-167.5 56.5 t-63.5 152.5zM524 1331q0 -43 24.5 -69.5t59.5 -26.5t59.5 26.5t24.5 69.5t-24.5 69.5t-59.5 26.5t-59.5 -26.5t-24.5 -69.5z" />
<glyph unicode="&#x170;" d="M131 514v821h301v-852q0 -121 45 -184t141 -63t142.5 63t46.5 184v852h291v-821q0 -262 -118 -400.5t-362 -138.5q-246 0 -366.5 138.5t-120.5 400.5zM334 1438l129 245h256l-182 -245h-203zM700 1438l131 245h256l-184 -245h-203z" />
<glyph unicode="&#x171;" d="M127 389v627h301v-588q0 -102 30.5 -149.5t116.5 -47.5q57 0 101.5 25t97.5 92v668h301v-1016h-246l-22 145h-8q-68 -78 -150 -124t-192 -46q-174 0 -252 111t-78 303zM352 1174l140 309h239l-194 -309h-185zM701 1174l141 309h239l-194 -309h-186z" />
<glyph unicode="&#x172;" d="M131 514v821h301v-852q0 -121 45 -184t139 -63q96 0 143.5 63t47.5 184v852h291v-821q0 -193 -63.5 -314.5t-190.5 -181.5q-59 -29 -96 -55t-58.5 -52t-30 -50.5t-8.5 -44.5q0 -41 27 -59.5t59 -18.5q20 0 39 9t33 20l70 -152q-39 -31 -99.5 -51.5t-113.5 -20.5 q-98 0 -167 50.5t-69 142.5q0 47 15.5 86t37 69.5t44 53t34.5 35.5q-217 14 -323.5 153t-106.5 381z" />
<glyph unicode="&#x173;" d="M127 389v627h301v-588q0 -102 30.5 -149.5t116.5 -47.5q57 0 101.5 25t97.5 92v668h301v-1016q-102 -31 -141 -79t-39 -95q0 -41 26.5 -59.5t59.5 -18.5q20 0 38.5 7t33.5 18l63 -135q-41 -31 -100.5 -49.5t-106.5 -18.5q-92 0 -154.5 47t-62.5 139q0 45 14.5 83t36 69 t45 52.5t43.5 35.5l-24 149h-8q-68 -78 -150 -124t-192 -46q-174 0 -252 111t-78 303z" />
<glyph unicode="&#x174;" d="M8 1335h307l43 -710q2 -86 4.5 -170t4.5 -170h6q16 86 35.5 170t35.5 170l93 370h182l88 -370q16 -82 34.5 -168t35.5 -172h8q4 86 5 171t5 169l39 710h287l-166 -1335h-316l-84 420q-12 63 -22 129.5t-15 126.5h-6q-6 -59 -15 -126t-22 -130l-79 -420h-310zM270 1438 l197 245h295l196 -245h-231l-109 125h-8l-108 -125h-232z" />
<glyph unicode="&#x175;" d="M8 1016h295l62 -471q10 -76 17 -149.5t17 -151.5h7q10 78 20 153.5t27 147.5l63 336h211l68 -336q14 -76 26.5 -149.5t22.5 -151.5h8q10 78 16 151.5t17 149.5l61 471h275l-158 -1016h-348l-58 338q-10 72 -19 144.5t-20 154.5h-8q-6 -55 -13 -125t-24 -174l-55 -338 h-342zM285 1176l204 342h254l205 -342h-219l-109 194h-8l-108 -194h-219z" />
<glyph unicode="&#x176;" d="M33 1335h323l136 -321q29 -78 59.5 -152t60.5 -153h9q33 80 63.5 153.5t60.5 151.5l136 321h315l-430 -884v-451h-303v451zM270 1438l197 245h295l196 -245h-231l-109 125h-8l-108 -125h-232z" />
<glyph unicode="&#x177;" d="M63 1016h299l170 -436q29 -72 53.5 -149t49.5 -157h8q20 76 45 153t47 153l150 436h284l-401 -1026q-37 -96 -80 -169t-98 -121t-128 -72.5t-169 -24.5q-45 0 -84 5t-72 15l53 230q39 -12 80 -13q88 0 138.5 37t74.5 96l21 54zM297 1176l204 342h254l205 -342h-219 l-109 194h-8l-108 -194h-219z" />
<glyph unicode="&#x178;" d="M33 1335h323l136 -321q29 -78 59.5 -152t60.5 -153h9q33 80 63.5 153.5t60.5 151.5l136 321h315l-430 -884v-451h-303v451zM268 1577q0 61 40 102t104 41q63 0 103 -41t40 -102t-40 -102t-103 -41t-103.5 41t-40.5 102zM674 1577q0 61 40 102t103 41t103.5 -41t40.5 -102 t-40.5 -102t-103.5 -41t-103 41t-40 102z" />
<glyph unicode="&#x179;" d="M115 0v182l626 901h-567v252h938v-182l-625 -899h633v-254h-1005zM490 1438l166 245h319l-246 -245h-239z" />
<glyph unicode="&#x17a;" d="M143 0v162l533 618h-467v236h883v-160l-533 -620h549v-236h-965zM493 1176l183 342h307l-270 -342h-220z" />
<glyph unicode="&#x17b;" d="M115 0v182l626 901h-567v252h938v-182l-625 -899h633v-254h-1005zM469 1593q0 70 49.5 114t124.5 44q76 0 125 -44t49 -114t-49 -113.5t-125 -43.5t-125 44t-49 113z" />
<glyph unicode="&#x17c;" d="M143 0v162l533 618h-467v236h883v-160l-533 -620h549v-236h-965zM461 1348q0 84 56 136t144 52t144.5 -52t56.5 -136t-56.5 -133.5t-144.5 -49.5t-144 49.5t-56 133.5z" />
<glyph unicode="&#x17d;" d="M115 0v182l626 901h-567v252h938v-182l-625 -899h633v-254h-1005zM299 1683h232l108 -124h8l109 124h231l-196 -245h-295z" />
<glyph unicode="&#x17e;" d="M143 0v162l533 618h-467v236h883v-160l-533 -620h549v-236h-965zM330 1518h219l108 -197h8l109 197h219l-205 -342h-254z" />
<glyph unicode="&#x180;" d="M12 1139v133l135 10v154h302v-152h372v-145h-372v-97l-9 -159q59 55 134 85.5t149 30.5q94 0 171 -34.5t129 -99t81 -156t29 -203.5q0 -127 -37 -225.5t-98.5 -166t-140.5 -103.5t-165 -36q-72 0 -142.5 35t-133.5 101h-8l-25 -111h-236v1139h-135zM449 289 q43 -37 89 -52.5t87 -15.5q84 0 141 65.5t57 213.5q0 254 -186 254q-96 0 -188 -95v-370z" />
<glyph unicode="&#x18f;" d="M119 662q0 45 6 98h721q-12 170 -72.5 257t-171.5 87q-72 0 -123 -30t-92 -70l-133 206q70 66 163 108t222 42q113 0 206 -46t160.5 -135t104.5 -217t37 -292t-38 -293t-105.5 -218t-163 -136.5t-209.5 -47.5q-115 0 -209 46.5t-161.5 134.5t-104.5 216t-37 290zM426 539 q10 -154 64.5 -231t140.5 -77q80 0 136 78t75 232z" />
<glyph unicode="&#x192;" d="M94 -164l41 221q51 -14 111 -18q41 2 69.5 14.5t48 45t34 88t26.5 143.5l35 299h-178v207l153 12h49l11 88q16 113 46.5 192.5t82 131t126 76t181.5 24.5q20 0 48 -3t55.5 -8.5t52 -12.5t40.5 -15l-57 -225q-23 10 -51.5 17t-63.5 7q-78 0 -117.5 -44t-52.5 -115 l-14 -113h236v-219h-261l-47 -387q-12 -92 -35.5 -172t-69.5 -139.5t-119 -93.5t-183 -34q-68 0 -119 9.5t-78 23.5z" />
<glyph unicode="&#x1a0;" d="M78 674q0 164 39 292t109.5 215t170 133t217.5 46q135 0 250 -64q55 12 88 39t33 86q0 29 -10 52.5t-21 42.5l205 90q23 -29 41.5 -71t18.5 -93q0 -104 -63.5 -166t-162.5 -86q74 -88 116 -218t42 -298q0 -164 -39 -293t-109.5 -219t-170 -138.5t-218.5 -48.5t-218 48.5 t-169.5 138.5t-109.5 219t-39 293zM387 674q0 -203 61.5 -320.5t165.5 -117.5t166 117.5t62 320.5q0 201 -61.5 313.5t-166.5 112.5q-104 0 -165.5 -113t-61.5 -313z" />
<glyph unicode="&#x1a1;" d="M96 508q0 127 43 226.5t116 167t166 103t193 35.5q55 0 109.5 -11t105.5 -34q61 12 98.5 38t37.5 89q0 29 -10.5 53.5t-22.5 41.5l205 90q23 -29 42 -71t19 -93q0 -104 -61.5 -163.5t-155.5 -84.5q70 -68 111 -165t41 -222q0 -127 -43 -226.5t-116 -167t-166 -103.5 t-194 -36q-100 0 -193 36t-166 103.5t-116 167t-43 226.5zM406 508q0 -133 52 -211t156 -78t156.5 78t52.5 211t-52 211t-157 78q-104 0 -156 -78t-52 -211z" />
<glyph unicode="&#x1af;" d="M131 514v821h301v-852q0 -121 45 -184t141 -63t142.5 63t46.5 184v852h143q31 2 60.5 7.5t54.5 18.5t39 36.5t14 64.5q0 29 -10 52.5t-21 41.5l205 91q23 -29 41.5 -71t18.5 -93q0 -57 -19.5 -101.5t-53.5 -76t-81 -51t-100 -29.5v-711q0 -262 -118 -400.5t-362 -138.5 q-246 0 -366.5 138.5t-120.5 400.5z" />
<glyph unicode="&#x1b0;" d="M127 389v627h301v-588q0 -102 30.5 -149.5t116.5 -47.5q57 0 101.5 25t97.5 92v668h100q29 2 59 7t53.5 18.5t38.5 37t15 64.5q0 29 -10 53.5t-20 40.5l204 90q23 -29 41.5 -71t18.5 -93q0 -100 -57.5 -158.5t-141.5 -82.5v-922h-246l-22 145h-8q-68 -78 -150 -124 t-192 -46q-174 0 -252 111t-78 303z" />
<glyph unicode="&#x1cd;" d="M18 0l416 1335h361l415 -1335h-319l-80 317h-403l-82 -317h-308zM270 1683h232l108 -124h8l109 124h231l-196 -245h-295zM469 553h281l-31 123q-27 100 -53.5 212.5t-53.5 217.5h-8q-25 -106 -51.5 -218t-52.5 -212z" />
<glyph unicode="&#x1ce;" d="M125 283q0 86 37 150.5t117.5 109.5t207.5 72.5t308 37.5q-8 70 -60.5 109t-156.5 39q-74 0 -149 -25.5t-161 -68.5l-106 196q104 59 224 98t251 39q213 0 336 -112.5t123 -345.5v-582h-246l-23 115h-8q-78 -59 -170 -99.5t-190 -40.5q-78 0 -139.5 24t-104.5 65.5 t-66.5 97t-23.5 121.5zM299 1518h219l108 -197h8l109 197h219l-205 -342h-254zM414 305q0 -49 37.5 -72.5t103.5 -23.5q68 0 127 27.5t113 68.5v168q-113 -6 -186.5 -20.5t-116.5 -36t-60.5 -50t-17.5 -61.5z" />
<glyph unicode="&#x1cf;" d="M152 0v254h311v827h-311v254h925v-254h-311v-827h311v-254h-925zM270 1683h232l108 -124h8l109 124h231l-196 -245h-295z" />
<glyph unicode="&#x1d0;" d="M162 780v236h708v-1016h-301v780h-407zM375 1518h219l108 -197h8l109 197h219l-205 -342h-254z" />
<glyph unicode="&#x1d1;" d="M78 674q0 164 39 292t109.5 215t170 133t217.5 46q119 0 218.5 -46t170 -134t109.5 -216t39 -290q0 -164 -39 -293t-109.5 -219t-170 -138.5t-218.5 -48.5t-218 48.5t-169.5 138.5t-109.5 219t-39 293zM270 1683h232l108 -124h8l109 124h231l-196 -245h-295zM387 674 q0 -203 61.5 -320.5t165.5 -117.5t166 117.5t62 320.5q0 201 -61.5 313.5t-166.5 112.5q-104 0 -165.5 -113t-61.5 -313z" />
<glyph unicode="&#x1d2;" d="M96 508q0 127 43 226.5t116 167t166 103t193 35.5t193.5 -35.5t166.5 -103t116 -167t43 -226.5t-43 -226.5t-116 -167t-166 -103.5t-194 -36q-100 0 -193 36t-166 103.5t-116 167t-43 226.5zM283 1518h219l108 -197h8l109 197h219l-205 -342h-254zM406 508 q0 -133 52 -211t156 -78t156.5 78t52.5 211t-52 211t-157 78q-104 0 -156 -78t-52 -211z" />
<glyph unicode="&#x1d3;" d="M131 514v821h301v-852q0 -121 45 -184t141 -63t142.5 63t46.5 184v852h291v-821q0 -262 -118 -400.5t-362 -138.5q-246 0 -366.5 138.5t-120.5 400.5zM270 1683h232l108 -124h8l109 124h231l-196 -245h-295z" />
<glyph unicode="&#x1d4;" d="M127 389v627h301v-588q0 -102 30.5 -149.5t116.5 -47.5q57 0 101.5 25t97.5 92v668h301v-1016h-246l-22 145h-8q-68 -78 -150 -124t-192 -46q-174 0 -252 111t-78 303zM277 1518h219l108 -197h8l109 197h219l-205 -342h-254z" />
<glyph unicode="&#x1d5;" d="M131 514v821h301v-852q0 -121 45 -184t141 -63t142.5 63t46.5 184v852h291v-821q0 -262 -118 -400.5t-362 -138.5q-246 0 -366.5 138.5t-120.5 400.5zM285 1561q0 53 35.5 89t91.5 36q55 0 91 -36t36 -89t-36 -90t-91 -37t-91 36.5t-36 90.5zM326 1786v141h577v-141h-577 zM690 1561q0 53 36 89t91 36t91 -36t36 -89t-36 -90t-91 -37t-91 36.5t-36 90.5z" />
<glyph unicode="&#x1d6;" d="M127 389v627h301v-588q0 -102 30.5 -149.5t116.5 -47.5q57 0 101.5 25t97.5 92v668h301v-1016h-246l-22 145h-8q-68 -78 -150 -124t-192 -46q-174 0 -252 111t-78 303zM279 1294q0 53 35.5 90t91.5 37q55 0 91 -36.5t36 -90.5q0 -53 -36 -89t-91 -36t-91 36t-36 89z M326 1548v142h565v-142h-565zM684 1294q0 53 36 90t91 37t91 -36.5t36 -90.5q0 -53 -36 -89t-91 -36t-91 36t-36 89z" />
<glyph unicode="&#x1d7;" d="M131 514v821h301v-852q0 -121 45 -184t141 -63t142.5 63t46.5 184v852h291v-821q0 -262 -118 -400.5t-362 -138.5q-246 0 -366.5 138.5t-120.5 400.5zM285 1561q0 53 35.5 89t91.5 36q55 0 91 -36t36 -89t-36 -90t-91 -37t-91 36.5t-36 90.5zM461 1749l166 246h315 l-242 -246h-239zM690 1561q0 53 36 89t91 36t91 -36t36 -89t-36 -90t-91 -37t-91 36.5t-36 90.5z" />
<glyph unicode="&#x1d8;" d="M127 389v627h301v-588q0 -102 30.5 -149.5t116.5 -47.5q57 0 101.5 25t97.5 92v668h301v-1016h-246l-22 145h-8q-68 -78 -150 -124t-192 -46q-174 0 -252 111t-78 303zM279 1294q0 53 35.5 90t91.5 37q55 0 91 -36.5t36 -90.5q0 -53 -36 -89t-91 -36t-91 36t-36 89z M469 1509l170 228h258l-235 -228h-193zM684 1294q0 53 36 90t91 37t91 -36.5t36 -90.5q0 -53 -36 -89t-91 -36t-91 36t-36 89z" />
<glyph unicode="&#x1d9;" d="M131 514v821h301v-852q0 -121 45 -184t141 -63t142.5 63t46.5 184v852h291v-821q0 -262 -118 -400.5t-362 -138.5q-246 0 -366.5 138.5t-120.5 400.5zM270 1995h232l108 -123h8l109 123h231l-196 -246h-295zM285 1561q0 53 35.5 89t91.5 36q55 0 91 -36t36 -89t-36 -90 t-91 -37t-91 36.5t-36 90.5zM690 1561q0 53 36 89t91 36t91 -36t36 -89t-36 -90t-91 -37t-91 36.5t-36 90.5z" />
<glyph unicode="&#x1da;" d="M127 389v627h301v-588q0 -102 30.5 -149.5t116.5 -47.5q57 0 101.5 25t97.5 92v668h301v-1016h-246l-22 145h-8q-68 -78 -150 -124t-192 -46q-174 0 -252 111t-78 303zM279 1294q0 53 35.5 90t91.5 37q55 0 91 -36.5t36 -90.5q0 -53 -36 -89t-91 -36t-91 36t-36 89z M305 1737h205l94 -119h8l95 119h205l-177 -228h-254zM684 1294q0 53 36 90t91 37t91 -36.5t36 -90.5q0 -53 -36 -89t-91 -36t-91 36t-36 89z" />
<glyph unicode="&#x1db;" d="M131 514v821h301v-852q0 -121 45 -184t141 -63t142.5 63t46.5 184v852h291v-821q0 -262 -118 -400.5t-362 -138.5q-246 0 -366.5 138.5t-120.5 400.5zM285 1561q0 53 35.5 89t91.5 36q55 0 91 -36t36 -89t-36 -90t-91 -37t-91 36.5t-36 90.5zM287 1995h315l166 -246h-240 zM690 1561q0 53 36 89t91 36t91 -36t36 -89t-36 -90t-91 -37t-91 36.5t-36 90.5z" />
<glyph unicode="&#x1dc;" d="M127 389v627h301v-588q0 -102 30.5 -149.5t116.5 -47.5q57 0 101.5 25t97.5 92v668h301v-1016h-246l-22 145h-8q-68 -78 -150 -124t-192 -46q-174 0 -252 111t-78 303zM279 1294q0 53 35.5 90t91.5 37q55 0 91 -36.5t36 -90.5q0 -53 -36 -89t-91 -36t-91 36t-36 89z M320 1737h258l170 -228h-193zM684 1294q0 53 36 90t91 37t91 -36.5t36 -90.5q0 -53 -36 -89t-91 -36t-91 36t-36 89z" />
<glyph unicode="&#x1e6;" d="M90 659q0 168 48 298t131 219.5t196 136.5t242 47q135 0 230 -52.5t161 -117.5l-166 -186q-43 43 -94.5 69.5t-130.5 26.5q-66 0 -121.5 -30t-96 -85t-64.5 -135t-24 -180q0 -207 79 -320.5t239 -113.5q39 0 73.5 10t57.5 30v230h-195v246h465v-615 q-68 -63 -178.5 -112.5t-239.5 -49.5t-240.5 44t-194.5 130.5t-130 214t-47 295.5zM331 1683h232l108 -124h8l109 124h231l-196 -245h-295z" />
<glyph unicode="&#x1e7;" d="M106 -172q0 125 158 203v8q-41 27 -71.5 67.5t-30.5 106.5q0 51 33.5 102.5t87.5 87.5v9q-55 37 -94 103.5t-39 156.5q0 92 35.5 160.5t95 114.5t138.5 69.5t165 23.5q94 0 168 -24h411v-219h-207q18 -23 33 -59t15 -76q0 -88 -33 -152t-89.5 -106t-133 -62t-164.5 -20 q-66 0 -140 20q-23 -16 -34 -32.5t-11 -41.5q0 -41 41 -59.5t131 -18.5h189q201 0 306 -59t105 -197q0 -80 -43 -147.5t-120.5 -115.5t-190 -75.5t-250.5 -27.5q-98 0 -183 15.5t-146.5 47t-96.5 80.5t-35 117zM291 1518h219l108 -197h8l109 197h219l-205 -342h-254z M352 -127q0 -57 68.5 -87t189.5 -30q123 0 199 36t76 89q0 49 -45 64.5t-133 15.5h-127q-55 0 -91 3t-65 9q-39 -25 -55.5 -48t-16.5 -52zM432 672q0 -84 44.5 -126t107.5 -42t109 42t46 126q0 82 -46 124t-109 42t-107.5 -42t-44.5 -124z" />
<glyph unicode="&#x1ea;" d="M78 674q0 164 39 292t109.5 215t170 133t217.5 46q119 0 218.5 -46t170 -134t109.5 -216t39 -290q0 -137 -25.5 -244.5t-72.5 -190.5t-113 -140.5t-145 -92.5q-78 -35 -111 -89t-33 -101q0 -41 27 -59.5t61 -18.5q20 0 38 9t34 20l70 -152q-39 -31 -99.5 -51.5 t-113.5 -20.5q-98 0 -167 50.5t-69 142.5q0 80 41 141.5t88 102.5q-123 12 -214 72.5t-151.5 154.5t-89 214t-28.5 253zM387 674q0 -203 61.5 -320.5t165.5 -117.5t166 117.5t62 320.5q0 201 -61.5 313.5t-166.5 112.5q-104 0 -165.5 -113t-61.5 -313z" />
<glyph unicode="&#x1eb;" d="M96 508q0 127 43 226.5t115 167t165 103t195 35.5q100 0 194.5 -35.5t166.5 -103t115 -167t43 -226.5q0 -102 -26 -180t-73 -139.5t-112.5 -107.5t-145.5 -81q-74 -35 -104.5 -82t-30.5 -92q0 -41 26.5 -59.5t59.5 -18.5q20 0 38.5 7t33.5 18l63 -135 q-41 -31 -100.5 -49.5t-106.5 -18.5q-92 0 -154.5 47t-62.5 139q0 78 38 135.5t75 88.5q-92 10 -175 51t-144.5 108.5t-98.5 159.5t-37 209zM406 508q0 -133 52 -211t156 -78t156.5 78t52.5 211t-52 211t-157 78q-104 0 -156 -78t-52 -211z" />
<glyph unicode="&#x218;" d="M102 168l174 207q76 -61 165 -100t177 -39q104 0 152.5 34.5t48.5 94.5q0 31 -14 53t-41 39.5t-64.5 33t-87.5 33.5l-172 74q-55 20 -107 53t-91 77t-62.5 102.5t-23.5 132.5q0 82 35.5 154.5t100 126.5t155 85t198.5 31q123 0 237.5 -45t207.5 -131l-154 -191 q-70 51 -137.5 79t-153.5 28q-88 0 -136 -32t-48 -89q0 -61 61.5 -92t157.5 -66l162 -69q133 -49 209.5 -135.5t76.5 -227.5q0 -84 -34.5 -158.5t-100 -131t-162 -90.5t-221.5 -34q-135 0 -267 48.5t-241 144.5zM423 -348q74 8 122 24.5t48 51.5q0 29 -21.5 46t-68.5 29 l58 111q139 -14 193 -54t54 -118q0 -53 -29.5 -91t-78.5 -63.5t-114.5 -39t-139.5 -17.5z" />
<glyph unicode="&#x219;" d="M109 131l135 188q88 -55 177 -87.5t191 -32.5q104 0 149.5 22.5t45.5 63.5q0 47 -75 76.5t-197 64.5q-68 18 -132.5 44t-115.5 61.5t-83 83t-32 108.5q0 70 33 129t93 100t147 64.5t196 23.5q135 0 246.5 -44t191.5 -95l-135 -180q-70 41 -143.5 68.5t-153.5 27.5 q-96 0 -136 -20.5t-40 -59.5q0 -23 20.5 -41t55.5 -32.5t83 -27.5t101 -28q76 -20 143.5 -45.5t118.5 -60.5t82 -84t31 -115q0 -70 -33 -129t-95.5 -103t-155.5 -70t-216 -26q-137 0 -268 45.5t-229 110.5zM417 -348q74 8 122 24.5t48 51.5q0 29 -21.5 46t-68.5 29l58 111 q139 -14 193 -54t54 -118q0 -53 -29.5 -91t-78.5 -63.5t-114.5 -39t-139.5 -17.5z" />
<glyph unicode="&#x21a;" d="M63 1081v254h1102v-254h-399v-1081h-303v1081h-400zM403 -348q74 8 122 24.5t48 51.5q0 29 -21.5 46t-68.5 29l58 111q139 -14 193 -54t54 -118q0 -53 -29.5 -91t-78.5 -63.5t-114.5 -39t-139.5 -17.5z" />
<glyph unicode="&#x21b;" d="M100 780v224l271 12l39 270h247v-270h430v-236h-430v-356q0 -117 51.5 -165t161.5 -48q59 0 108.5 10t94.5 27l53 -217q-68 -20 -150.5 -38t-180.5 -18q-121 0 -205 33t-136.5 91.5t-75 140.5t-22.5 182v358h-256zM542 -348q74 8 122 24.5t48 51.5q0 29 -21.5 46 t-68.5 29l58 111q139 -14 193 -54t54 -118q0 -53 -29.5 -91t-78.5 -63.5t-114.5 -39t-139.5 -17.5z" />
<glyph unicode="&#x2c6;" d="M283 1176l204 342h254l205 -342h-219l-109 194h-8l-108 -194h-219z" />
<glyph unicode="&#x2c7;" d="M283 1518h219l108 -197h8l109 197h219l-205 -342h-254z" />
<glyph unicode="&#x2d8;" d="M313 1495h168q8 -66 40 -110t93 -44t93 44.5t41 109.5h167q-2 -61 -20 -119.5t-55 -102.5t-93.5 -70.5t-132.5 -26.5t-132 26.5t-93 70.5t-55.5 102.5t-20.5 119.5z" />
<glyph unicode="&#x2d9;" d="M414 1348q0 84 56 136t144 52t144.5 -52t56.5 -136t-56.5 -133.5t-144.5 -49.5t-144 49.5t-56 133.5z" />
<glyph unicode="&#x2da;" d="M383 1331q0 96 63.5 152.5t167.5 56.5t168 -56.5t64 -152.5t-64 -152.5t-168 -56.5t-167.5 56.5t-63.5 152.5zM530 1331q0 -43 24.5 -69.5t59.5 -26.5t59.5 26.5t24.5 69.5t-24.5 69.5t-59.5 26.5t-59.5 -26.5t-24.5 -69.5z" />
<glyph unicode="&#x2db;" d="M438 -244q0 45 15.5 84t37 71t46 55.5t45.5 37.5h170q-111 -86 -111 -178q0 -41 26.5 -59.5t59.5 -18.5q20 0 38.5 7t33.5 18l63 -135q-41 -31 -100.5 -49.5t-106.5 -18.5q-92 0 -154.5 47t-62.5 139z" />
<glyph unicode="&#x2dc;" d="M264 1178q18 150 82 221t158 71q37 0 68.5 -16t57 -36.5t48 -37t45.5 -16.5q33 0 53.5 23.5t34.5 82.5h154q-18 -147 -82 -219.5t-158 -72.5q-39 0 -69.5 17t-57.5 36.5t-49.5 37t-42.5 17.5q-33 0 -53.5 -23.5t-34.5 -84.5h-154z" />
<glyph unicode="&#x2dd;" d="M358 1174l140 309h239l-194 -309h-185zM707 1174l141 309h239l-194 -309h-186z" />
<glyph unicode="&#x3c0;" d="M29 778v226l151 12h1020v-238h-164q-4 -68 -7 -142.5t-4 -140t-1 -115.5v-69q0 -53 22.5 -72.5t67.5 -19.5q10 0 20.5 2t26.5 6l37 -221q-27 -12 -64.5 -21.5t-91.5 -9.5q-86 0 -143 25t-93 71t-51.5 109.5t-15.5 143.5q0 23 1 72.5t3 113t4.5 134.5t2.5 134h-244 q0 -182 -8.5 -387t-22.5 -409l-301 18q29 209 40 408.5t11 369.5h-196z" />
<glyph unicode="&#x1e0c;" d="M133 0v1335h363q145 0 264 -39t203 -119.5t130 -205.5t46 -297t-46 -299t-129 -210t-198 -124t-254 -41h-379zM396 -336q0 84 56 136.5t144 52.5t144.5 -52.5t56.5 -136.5t-56.5 -133t-144.5 -49t-144 49t-56 133zM436 244h43q78 0 142.5 22.5t110.5 72.5t71.5 132 t25.5 203q0 119 -25.5 199.5t-71.5 129t-110.5 69t-142.5 20.5h-43v-848z" />
<glyph unicode="&#x1e0d;" d="M96 508q0 125 37 223t97.5 167t138 105.5t161.5 36.5q88 0 147.5 -29.5t113.5 -78.5l-11 158v346h301v-1436h-245l-23 104h-6q-57 -55 -131 -92t-152 -37q-96 0 -175 37t-135 105.5t-87 167t-31 223.5zM406 512q0 -152 51 -221.5t145 -69.5q51 0 94 21.5t84 72.5v412 q-41 37 -83 52.5t-87 15.5q-84 0 -144 -70t-60 -213zM432 -336q0 84 56 136.5t144 52.5t144.5 -52.5t56.5 -136.5t-56.5 -133t-144.5 -49t-144 49t-56 133z" />
<glyph unicode="&#x1e0e;" d="M133 0v1335h363q145 0 264 -39t203 -119.5t130 -205.5t46 -297t-46 -299t-129 -210t-198 -124t-254 -41h-379zM314 -195h565v-192h-565v192zM436 244h43q78 0 142.5 22.5t110.5 72.5t71.5 132t25.5 203q0 119 -25.5 199.5t-71.5 129t-110.5 69t-142.5 20.5h-43v-848z" />
<glyph unicode="&#x1e0f;" d="M96 508q0 125 37 223t97.5 167t138 105.5t161.5 36.5q88 0 147.5 -29.5t113.5 -78.5l-11 158v346h301v-1436h-245l-23 104h-6q-57 -55 -131 -92t-152 -37q-96 0 -175 37t-135 105.5t-87 167t-31 223.5zM350 -195h565v-192h-565v192zM406 512q0 -152 51 -221.5t145 -69.5 q51 0 94 21.5t84 72.5v412q-41 37 -83 52.5t-87 15.5q-84 0 -144 -70t-60 -213z" />
<glyph unicode="&#x1e20;" d="M90 659q0 168 48 298t131 219.5t196 136.5t242 47q135 0 230 -52.5t161 -117.5l-166 -186q-43 43 -94.5 69.5t-130.5 26.5q-66 0 -121.5 -30t-96 -85t-64.5 -135t-24 -180q0 -207 79 -320.5t239 -113.5q39 0 73.5 10t57.5 30v230h-195v246h465v-615 q-68 -63 -178.5 -112.5t-239.5 -49.5t-240.5 44t-194.5 130.5t-130 214t-47 295.5zM387 1475v190h577v-190h-577z" />
<glyph unicode="&#x1e21;" d="M106 -172q0 125 158 203v8q-41 27 -71.5 67.5t-30.5 106.5q0 51 33.5 102.5t87.5 87.5v9q-55 37 -94 103.5t-39 156.5q0 92 35.5 160.5t95 114.5t138.5 69.5t165 23.5q94 0 168 -24h411v-219h-207q18 -23 33 -59t15 -76q0 -88 -33 -152t-89.5 -106t-133 -62t-164.5 -20 q-66 0 -140 20q-23 -16 -34 -32.5t-11 -41.5q0 -41 41 -59.5t131 -18.5h189q201 0 306 -59t105 -197q0 -80 -43 -147.5t-120.5 -115.5t-190 -75.5t-250.5 -27.5q-98 0 -183 15.5t-146.5 47t-96.5 80.5t-35 117zM340 1212v191h565v-191h-565zM352 -127q0 -57 68.5 -87 t189.5 -30q123 0 199 36t76 89q0 49 -45 64.5t-133 15.5h-127q-55 0 -91 3t-65 9q-39 -25 -55.5 -48t-16.5 -52zM432 672q0 -84 44.5 -126t107.5 -42t109 42t46 126q0 82 -46 124t-109 42t-107.5 -42t-44.5 -124z" />
<glyph unicode="&#x1e24;" d="M131 0v1335h301v-514h365v514h301v-1335h-301v557h-365v-557h-301zM414 -336q0 84 56 136.5t144 52.5t144.5 -52.5t56.5 -136.5t-56.5 -133t-144.5 -49t-144 49t-56 133z" />
<glyph unicode="&#x1e25;" d="M147 0v1436h302v-353l-17 -194q31 29 67 56.5t77.5 49t92 33.5t107.5 12q172 0 251 -110.5t79 -302.5v-627h-301v588q0 102 -33 149t-117 47q-61 0 -107 -26.5t-99 -79.5v-678h-302zM428 -336q0 84 56 136.5t144 52.5t144.5 -52.5t56.5 -136.5t-56.5 -133t-144.5 -49 t-144 49t-56 133z" />
<glyph unicode="&#x1e2a;" d="M131 0v1335h301v-514h365v514h301v-1335h-301v557h-365v-557h-301zM330 -145h168q6 -51 34.5 -86t81.5 -35t82 34.5t35 86.5h168q-2 -55 -20.5 -107.5t-53 -91.5t-87 -62.5t-124.5 -23.5t-124 23.5t-86.5 62.5t-53 91t-20.5 108z" />
<glyph unicode="&#x1e2b;" d="M147 0v1436h302v-353l-17 -194q31 29 67 56.5t77.5 49t92 33.5t107.5 12q172 0 251 -110.5t79 -302.5v-627h-301v588q0 102 -33 149t-117 47q-61 0 -107 -26.5t-99 -79.5v-678h-302zM344 -145h168q6 -51 34.5 -86t81.5 -35t82 34.5t35 86.5h168q-2 -55 -20.5 -107.5 t-53 -91.5t-87 -62.5t-124.5 -23.5t-124 23.5t-86.5 62.5t-53 91t-20.5 108z" />
<glyph unicode="&#x1e36;" d="M219 0v1335h301v-1081h594v-254h-895zM480 -336q0 84 56 136.5t144 52.5t144.5 -52.5t56.5 -136.5t-56.5 -133t-144.5 -49t-144 49t-56 133z" />
<glyph unicode="&#x1e37;" d="M127 1198v238h596v-1051q0 -47 13.5 -79t37 -51t53 -27.5t60.5 -8.5q35 0 73.5 7t86.5 26l67 -221q-41 -12 -75.5 -22.5t-69.5 -17.5t-74 -11.5t-86 -4.5q-193 0 -290 114t-97 308v801h-295zM541 -336q0 84 56 136.5t144 52.5t144.5 -52.5t56.5 -136.5t-56.5 -133 t-144.5 -49t-144 49t-56 133z" />
<glyph unicode="&#x1e38;" d="M113 1475v190h577v-190h-577zM219 0v1335h301v-1081h594v-254h-895zM480 -336q0 84 56 136.5t144 52.5t144.5 -52.5t56.5 -136.5t-56.5 -133t-144.5 -49t-144 49t-56 133z" />
<glyph unicode="&#x1e39;" d="M127 1198v238h596v-1051q0 -47 13.5 -79t37 -51t53 -27.5t60.5 -8.5q35 0 73.5 7t86.5 26l67 -221q-41 -12 -75.5 -22.5t-69.5 -17.5t-74 -11.5t-86 -4.5q-193 0 -290 114t-97 308v801h-295zM275 1646v191h565v-191h-565zM541 -336q0 84 56 136.5t144 52.5t144.5 -52.5 t56.5 -136.5t-56.5 -133t-144.5 -49t-144 49t-56 133z" />
<glyph unicode="&#x1e3a;" d="M219 0v1335h301v-1081h594v-254h-895zM398 -195h565v-192h-565v192z" />
<glyph unicode="&#x1e3b;" d="M127 1198v238h596v-1051q0 -47 13.5 -79t37 -51t53 -27.5t60.5 -8.5q35 0 73.5 7t86.5 26l67 -221q-41 -12 -75.5 -22.5t-69.5 -17.5t-74 -11.5t-86 -4.5q-193 0 -290 114t-97 308v801h-295zM459 -195h565v-192h-565v192z" />
<glyph unicode="&#x1e42;" d="M133 0v1335h301l135 -473l45 -184h7l45 184l129 473h301v-1335h-244v436q0 55 4 136t10 167t12.5 167t12.5 134h-6l-105 -366l-102 -318h-133l-103 318l-100 366h-8q6 -53 12 -134t12.5 -167t10.5 -166.5t4 -136.5v-436h-240zM414 -336q0 84 56 136.5t144 52.5 t144.5 -52.5t56.5 -136.5t-56.5 -133t-144.5 -49t-144 49t-56 133z" />
<glyph unicode="&#x1e43;" d="M74 0v1016h225l23 -127h8q29 63 79 107t138 44q68 0 114 -42t64 -124q29 70 83 118t140 48q106 0 166 -87t60 -240v-713h-283v690q0 94 -57 94q-55 0 -95 -98v-686h-231v690q0 94 -59 94q-29 0 -49.5 -24.5t-43.5 -73.5v-686h-282zM420 -336q0 84 56 136.5t144 52.5 t144.5 -52.5t56.5 -136.5t-56.5 -133t-144.5 -49t-144 49t-56 133z" />
<glyph unicode="&#x1e44;" d="M135 0v1335h307l283 -665l115 -293h8q-10 106 -26.5 237t-16.5 248v473h289v-1335h-308l-282 666l-115 290h-8q10 -111 26.5 -237.5t16.5 -245.5v-473h-289zM452 1593q0 70 49.5 114t124.5 44q76 0 125 -44t49 -114t-49 -113.5t-125 -43.5t-125 44t-49 113z" />
<glyph unicode="&#x1e45;" d="M147 0v1016h246l23 -135h8q66 66 150.5 112.5t199.5 46.5q172 0 252 -110.5t80 -302.5v-627h-301v588q0 102 -33 149t-117 47q-61 0 -107 -26.5t-99 -79.5v-678h-302zM445 1348q0 84 56 136t144 52t144.5 -52t56.5 -136t-56.5 -133.5t-144.5 -49.5t-144 49.5t-56 133.5z " />
<glyph unicode="&#x1e46;" d="M135 0v1335h307l283 -665l115 -293h8q-10 106 -26.5 237t-16.5 248v473h289v-1335h-308l-282 666l-115 290h-8q10 -111 26.5 -237.5t16.5 -245.5v-473h-289zM414 -336q0 84 56 136.5t144 52.5t144.5 -52.5t56.5 -136.5t-56.5 -133t-144.5 -49t-144 49t-56 133z" />
<glyph unicode="&#x1e47;" d="M147 0v1016h246l23 -135h8q66 66 150.5 112.5t199.5 46.5q172 0 252 -110.5t80 -302.5v-627h-301v588q0 102 -33 149t-117 47q-61 0 -107 -26.5t-99 -79.5v-678h-302zM426 -336q0 84 56 136.5t144 52.5t144.5 -52.5t56.5 -136.5t-56.5 -133t-144.5 -49t-144 49t-56 133z " />
<glyph unicode="&#x1e48;" d="M135 0v1335h307l283 -665l115 -293h8q-10 106 -26.5 237t-16.5 248v473h289v-1335h-308l-282 666l-115 290h-8q10 -111 26.5 -237.5t16.5 -245.5v-473h-289zM332 -195h565v-192h-565v192z" />
<glyph unicode="&#x1e49;" d="M147 0v1016h246l23 -135h8q66 66 150.5 112.5t199.5 46.5q172 0 252 -110.5t80 -302.5v-627h-301v588q0 102 -33 149t-117 47q-61 0 -107 -26.5t-99 -79.5v-678h-302zM344 -195h565v-192h-565v192z" />
<glyph unicode="&#x1e5a;" d="M143 0v1335h473q106 0 199.5 -20.5t164.5 -68.5t112 -128t41 -198q0 -147 -66 -242.5t-172 -142.5l301 -535h-338l-256 481h-158v-481h-301zM444 721h148q244 0 244 199q0 98 -61.5 137t-182.5 39h-148v-375zM455 -336q0 84 56 136.5t144 52.5t144.5 -52.5t56.5 -136.5 t-56.5 -133t-144.5 -49t-144 49t-56 133z" />
<glyph unicode="&#x1e5b;" d="M217 -336q0 84 56 136.5t144 52.5t144.5 -52.5t56.5 -136.5t-56.5 -133t-144.5 -49t-144 49t-56 133zM238 0v1016h245l25 -221h6q76 125 182.5 185t229.5 60q68 0 109.5 -10t86.5 -31l-61 -251q-47 14 -85 21t-95 7q-94 0 -185.5 -55t-156.5 -193v-528h-301z" />
<glyph unicode="&#x1e5c;" d="M143 0v1335h473q106 0 199.5 -20.5t164.5 -68.5t112 -128t41 -198q0 -147 -66 -242.5t-172 -142.5l301 -535h-338l-256 481h-158v-481h-301zM332 1475v190h577v-190h-577zM444 721h148q244 0 244 199q0 98 -61.5 137t-182.5 39h-148v-375zM455 -336q0 84 56 136.5 t144 52.5t144.5 -52.5t56.5 -136.5t-56.5 -133t-144.5 -49t-144 49t-56 133z" />
<glyph unicode="&#x1e5d;" d="M217 -336q0 84 56 136.5t144 52.5t144.5 -52.5t56.5 -136.5t-56.5 -133t-144.5 -49t-144 49t-56 133zM238 0v1016h245l25 -221h6q76 125 182.5 185t229.5 60q68 0 109.5 -10t86.5 -31l-61 -251q-47 14 -85 21t-95 7q-94 0 -185.5 -55t-156.5 -193v-528h-301zM412 1212 v191h565v-191h-565z" />
<glyph unicode="&#x1e5e;" d="M143 0v1335h473q106 0 199.5 -20.5t164.5 -68.5t112 -128t41 -198q0 -147 -66 -242.5t-172 -142.5l301 -535h-338l-256 481h-158v-481h-301zM373 -195h565v-192h-565v192zM444 721h148q244 0 244 199q0 98 -61.5 137t-182.5 39h-148v-375z" />
<glyph unicode="&#x1e5f;" d="M135 -195h565v-192h-565v192zM238 0v1016h245l25 -221h6q76 125 182.5 185t229.5 60q68 0 109.5 -10t86.5 -31l-61 -251q-47 14 -85 21t-95 7q-94 0 -185.5 -55t-156.5 -193v-528h-301z" />
<glyph unicode="&#x1e60;" d="M102 168l174 207q76 -61 165 -100t177 -39q104 0 152.5 34.5t48.5 94.5q0 31 -14 53t-41 39.5t-64.5 33t-87.5 33.5l-172 74q-55 20 -107 53t-91 77t-62.5 102.5t-23.5 132.5q0 82 35.5 154.5t100 126.5t155 85t198.5 31q123 0 237.5 -45t207.5 -131l-154 -191 q-70 51 -137.5 79t-153.5 28q-88 0 -136 -32t-48 -89q0 -61 61.5 -92t157.5 -66l162 -69q133 -49 209.5 -135.5t76.5 -227.5q0 -84 -34.5 -158.5t-100 -131t-162 -90.5t-221.5 -34q-135 0 -267 48.5t-241 144.5zM454 1593q0 70 49.5 114t124.5 44q76 0 125 -44t49 -114 t-49 -113.5t-125 -43.5t-125 44t-49 113z" />
<glyph unicode="&#x1e61;" d="M109 131l135 188q88 -55 177 -87.5t191 -32.5q104 0 149.5 22.5t45.5 63.5q0 47 -75 76.5t-197 64.5q-68 18 -132.5 44t-115.5 61.5t-83 83t-32 108.5q0 70 33 129t93 100t147 64.5t196 23.5q135 0 246.5 -44t191.5 -95l-135 -180q-70 41 -143.5 68.5t-153.5 27.5 q-96 0 -136 -20.5t-40 -59.5q0 -23 20.5 -41t55.5 -32.5t83 -27.5t101 -28q76 -20 143.5 -45.5t118.5 -60.5t82 -84t31 -115q0 -70 -33 -129t-95.5 -103t-155.5 -70t-216 -26q-137 0 -268 45.5t-229 110.5zM439 1348q0 84 56 136t144 52t144.5 -52t56.5 -136t-56.5 -133.5 t-144.5 -49.5t-144 49.5t-56 133.5z" />
<glyph unicode="&#x1e62;" d="M102 168l174 207q76 -61 165 -100t177 -39q104 0 152.5 34.5t48.5 94.5q0 31 -14 53t-41 39.5t-64.5 33t-87.5 33.5l-172 74q-55 20 -107 53t-91 77t-62.5 102.5t-23.5 132.5q0 82 35.5 154.5t100 126.5t155 85t198.5 31q123 0 237.5 -45t207.5 -131l-154 -191 q-70 51 -137.5 79t-153.5 28q-88 0 -136 -32t-48 -89q0 -61 61.5 -92t157.5 -66l162 -69q133 -49 209.5 -135.5t76.5 -227.5q0 -84 -34.5 -158.5t-100 -131t-162 -90.5t-221.5 -34q-135 0 -267 48.5t-241 144.5zM434 -336q0 84 56 136.5t144 52.5t144.5 -52.5t56.5 -136.5 t-56.5 -133t-144.5 -49t-144 49t-56 133z" />
<glyph unicode="&#x1e63;" d="M109 131l135 188q88 -55 177 -87.5t191 -32.5q104 0 149.5 22.5t45.5 63.5q0 47 -75 76.5t-197 64.5q-68 18 -132.5 44t-115.5 61.5t-83 83t-32 108.5q0 70 33 129t93 100t147 64.5t196 23.5q135 0 246.5 -44t191.5 -95l-135 -180q-70 41 -143.5 68.5t-153.5 27.5 q-96 0 -136 -20.5t-40 -59.5q0 -23 20.5 -41t55.5 -32.5t83 -27.5t101 -28q76 -20 143.5 -45.5t118.5 -60.5t82 -84t31 -115q0 -70 -33 -129t-95.5 -103t-155.5 -70t-216 -26q-137 0 -268 45.5t-229 110.5zM428 -336q0 84 56 136.5t144 52.5t144.5 -52.5t56.5 -136.5 t-56.5 -133t-144.5 -49t-144 49t-56 133z" />
<glyph unicode="&#x1e6c;" d="M63 1081v254h1102v-254h-399v-1081h-303v1081h-400zM414 -336q0 84 56 136.5t144 52.5t144.5 -52.5t56.5 -136.5t-56.5 -133t-144.5 -49t-144 49t-56 133z" />
<glyph unicode="&#x1e6d;" d="M100 780v224l271 12l39 270h247v-270h430v-236h-430v-356q0 -117 51.5 -165t161.5 -48q59 0 108.5 10t94.5 27l53 -217q-68 -20 -150.5 -38t-180.5 -18q-121 0 -205 33t-136.5 91.5t-75 140.5t-22.5 182v358h-256zM553 -336q0 84 56 136.5t144 52.5t144.5 -52.5 t56.5 -136.5t-56.5 -133t-144.5 -49t-144 49t-56 133z" />
<glyph unicode="&#x1e6e;" d="M63 1081v254h1102v-254h-399v-1081h-303v1081h-400zM332 -195h565v-192h-565v192z" />
<glyph unicode="&#x1e6f;" d="M100 780v224l271 12l39 270h247v-270h430v-236h-430v-356q0 -117 51.5 -165t161.5 -48q59 0 108.5 10t94.5 27l53 -217q-68 -20 -150.5 -38t-180.5 -18q-121 0 -205 33t-136.5 91.5t-75 140.5t-22.5 182v358h-256zM471 -195h565v-192h-565v192z" />
<glyph unicode="&#x1e80;" d="M8 1335h307l43 -710q2 -86 4.5 -170t4.5 -170h6q16 86 35.5 170t35.5 170l93 370h182l88 -370q16 -82 34.5 -168t35.5 -172h8q4 86 5 171t5 169l39 710h287l-166 -1335h-316l-84 420q-12 63 -22 129.5t-15 126.5h-6q-6 -59 -15 -126t-22 -130l-79 -420h-310zM283 1683 h319l166 -245h-240z" />
<glyph unicode="&#x1e81;" d="M8 1016h295l62 -471q10 -76 17 -149.5t17 -151.5h7q10 78 20 153.5t27 147.5l63 336h211l68 -336q14 -76 26.5 -149.5t22.5 -151.5h8q10 78 16 151.5t17 149.5l61 471h275l-158 -1016h-348l-58 338q-10 72 -19 144.5t-20 154.5h-8q-6 -55 -13 -125t-24 -174l-55 -338 h-342zM295 1518h307l182 -342h-219z" />
<glyph unicode="&#x1e82;" d="M8 1335h307l43 -710q2 -86 4.5 -170t4.5 -170h6q16 86 35.5 170t35.5 170l93 370h182l88 -370q16 -82 34.5 -168t35.5 -172h8q4 86 5 171t5 169l39 710h287l-166 -1335h-316l-84 420q-12 63 -22 129.5t-15 126.5h-6q-6 -59 -15 -126t-22 -130l-79 -420h-310zM461 1438 l166 245h319l-246 -245h-239z" />
<glyph unicode="&#x1e83;" d="M8 1016h295l62 -471q10 -76 17 -149.5t17 -151.5h7q10 78 20 153.5t27 147.5l63 336h211l68 -336q14 -76 26.5 -149.5t22.5 -151.5h8q10 78 16 151.5t17 149.5l61 471h275l-158 -1016h-348l-58 338q-10 72 -19 144.5t-20 154.5h-8q-6 -55 -13 -125t-24 -174l-55 -338 h-342zM448 1176l183 342h307l-270 -342h-220z" />
<glyph unicode="&#x1e84;" d="M8 1335h307l43 -710q2 -86 4.5 -170t4.5 -170h6q16 86 35.5 170t35.5 170l93 370h182l88 -370q16 -82 34.5 -168t35.5 -172h8q4 86 5 171t5 169l39 710h287l-166 -1335h-316l-84 420q-12 63 -22 129.5t-15 126.5h-6q-6 -59 -15 -126t-22 -130l-79 -420h-310zM268 1577 q0 61 40 102t104 41q63 0 103 -41t40 -102t-40 -102t-103 -41t-103.5 41t-40.5 102zM674 1577q0 61 40 102t103 41t103.5 -41t40.5 -102t-40.5 -102t-103.5 -41t-103 41t-40 102z" />
<glyph unicode="&#x1e85;" d="M8 1016h295l62 -471q10 -76 17 -149.5t17 -151.5h7q10 78 20 153.5t27 147.5l63 336h211l68 -336q14 -76 26.5 -149.5t22.5 -151.5h8q10 78 16 151.5t17 149.5l61 471h275l-158 -1016h-348l-58 338q-10 72 -19 144.5t-20 154.5h-8q-6 -55 -13 -125t-24 -174l-55 -338 h-342zM231 1331q0 68 45 114t117 46t116 -46t44 -114q0 -70 -44 -116t-116 -46t-117 46.5t-45 115.5zM680 1331q0 68 44 114t116 46t116.5 -46t44.5 -114q0 -70 -44.5 -116t-116.5 -46t-116 46.5t-44 115.5z" />
<glyph unicode="&#x1e8e;" d="M33 1335h323l136 -321q29 -78 59.5 -152t60.5 -153h9q33 80 63.5 153.5t60.5 151.5l136 321h315l-430 -884v-451h-303v451zM440 1593q0 70 49.5 114t124.5 44q76 0 125 -44t49 -114t-49 -113.5t-125 -43.5t-125 44t-49 113z" />
<glyph unicode="&#x1e8f;" d="M63 1016h299l170 -436q29 -72 53.5 -149t49.5 -157h8q20 76 45 153t47 153l150 436h284l-401 -1026q-37 -96 -80 -169t-98 -121t-128 -72.5t-169 -24.5q-45 0 -84 5t-72 15l53 230q39 -12 80 -13q88 0 138.5 37t74.5 96l21 54zM428 1348q0 84 56 136t144 52t144.5 -52 t56.5 -136t-56.5 -133.5t-144.5 -49.5t-144 49.5t-56 133.5z" />
<glyph unicode="&#x1e92;" d="M115 0v182l626 901h-567v252h938v-182l-625 -899h633v-254h-1005zM434 -336q0 84 56 136.5t144 52.5t144.5 -52.5t56.5 -136.5t-56.5 -133t-144.5 -49t-144 49t-56 133z" />
<glyph unicode="&#x1e93;" d="M143 0v162l533 618h-467v236h883v-160l-533 -620h549v-236h-965zM451 -336q0 84 56 136.5t144 52.5t144.5 -52.5t56.5 -136.5t-56.5 -133t-144.5 -49t-144 49t-56 133z" />
<glyph unicode="&#x1e97;" d="M100 780v224l271 12l39 270h247v-270h430v-236h-430v-356q0 -117 51.5 -165t161.5 -48q59 0 108.5 10t94.5 27l53 -217q-68 -20 -150.5 -38t-180.5 -18q-121 0 -205 33t-136.5 91.5t-75 140.5t-22.5 182v358h-256zM159 1618q0 68 45 114t117 46t116 -46t44 -114 q0 -70 -44 -116t-116 -46t-117 46.5t-45 115.5zM608 1618q0 68 44 114t116 46t116.5 -46t44.5 -114q0 -70 -44.5 -116t-116.5 -46t-116 46.5t-44 115.5z" />
<glyph unicode="&#x1e9e;" d="M131 0v905q0 94 27.5 177t87 144.5t153 97.5t224.5 36q178 0 293.5 -103.5t148.5 -271.5l-147 -250q45 -25 88 -57.5t76.5 -76.5t54 -102.5t20.5 -133.5q0 -82 -21.5 -154t-65.5 -124t-109.5 -82t-153.5 -30q-115 0 -192.5 39t-120.5 92l155 183q35 -39 64.5 -54.5 t52.5 -15.5q33 0 54.5 41t21.5 107q0 61 -52.5 113t-156.5 83l-21 176l154 256q-16 47 -54 84t-98 37q-92 0 -133 -62.5t-41 -189.5v-864h-309z" />
<glyph unicode="&#x1ea0;" d="M18 0l416 1335h361l415 -1335h-319l-80 317h-403l-82 -317h-308zM414 -336q0 84 56 136.5t144 52.5t144.5 -52.5t56.5 -136.5t-56.5 -133t-144.5 -49t-144 49t-56 133zM469 553h281l-31 123q-27 100 -53.5 212.5t-53.5 217.5h-8q-25 -106 -51.5 -218t-52.5 -212z" />
<glyph unicode="&#x1ea1;" d="M125 283q0 86 37 150.5t117.5 109.5t207.5 72.5t308 37.5q-8 70 -60.5 109t-156.5 39q-74 0 -149 -25.5t-161 -68.5l-106 196q104 59 224 98t251 39q213 0 336 -112.5t123 -345.5v-582h-246l-23 115h-8q-78 -59 -170 -99.5t-190 -40.5q-78 0 -139.5 24t-104.5 65.5 t-66.5 97t-23.5 121.5zM414 305q0 -49 37.5 -72.5t103.5 -23.5q68 0 127 27.5t113 68.5v168q-113 -6 -186.5 -20.5t-116.5 -36t-60.5 -50t-17.5 -61.5zM434 -336q0 84 56 136.5t144 52.5t144.5 -52.5t56.5 -136.5t-56.5 -133t-144.5 -49t-144 49t-56 133z" />
<glyph unicode="&#x1ea2;" d="M18 0l416 1335h361l415 -1335h-319l-80 317h-403l-82 -317h-308zM449 1665l34 150q188 -4 266 -54.5t78 -132.5q0 -53 -22.5 -91t-61 -63.5t-91 -40t-109.5 -18.5l-23 119q37 8 63.5 20.5t26.5 40.5q0 29 -36.5 46.5t-124.5 23.5zM469 553h281l-31 123 q-27 100 -53.5 212.5t-53.5 217.5h-8q-25 -106 -51.5 -218t-52.5 -212z" />
<glyph unicode="&#x1ea3;" d="M125 283q0 86 37 150.5t117.5 109.5t207.5 72.5t308 37.5q-8 70 -60.5 109t-156.5 39q-74 0 -149 -25.5t-161 -68.5l-106 196q104 59 224 98t251 39q213 0 336 -112.5t123 -345.5v-582h-246l-23 115h-8q-78 -59 -170 -99.5t-190 -40.5q-78 0 -139.5 24t-104.5 65.5 t-66.5 97t-23.5 121.5zM414 305q0 -49 37.5 -72.5t103.5 -23.5q68 0 127 27.5t113 68.5v168q-113 -6 -186.5 -20.5t-116.5 -36t-60.5 -50t-17.5 -61.5zM465 1389l34 151q188 -6 266 -56t78 -132q0 -53 -22.5 -91t-61 -64t-91 -39t-109.5 -17l-23 119q37 6 63.5 19t26.5 42 t-36.5 46t-124.5 22z" />
<glyph unicode="&#x1ea4;" d="M18 0l416 1335h361l415 -1335h-319l-80 317h-403l-82 -317h-308zM291 1438l194 233h258l195 -233h-213l-107 112h-8l-106 -112h-213zM469 553h281l-31 123q-27 100 -53.5 212.5t-53.5 217.5h-8q-25 -106 -51.5 -218t-52.5 -212zM846 1577l139 246h234l-203 -246h-170z " />
<glyph unicode="&#x1ea5;" d="M125 283q0 86 37 150.5t117.5 109.5t207.5 72.5t308 37.5q-8 70 -60.5 109t-156.5 39q-74 0 -149 -25.5t-161 -68.5l-106 196q104 59 224 98t251 39q213 0 336 -112.5t123 -345.5v-582h-246l-23 115h-8q-78 -59 -170 -99.5t-190 -40.5q-78 0 -139.5 24t-104.5 65.5 t-66.5 97t-23.5 121.5zM346 1176l166 262h237l166 -262h-184l-97 133h-8l-96 -133h-184zM414 305q0 -49 37.5 -72.5t103.5 -23.5q68 0 127 27.5t113 68.5v168q-113 -6 -186.5 -20.5t-116.5 -36t-60.5 -50t-17.5 -61.5zM850 1323l139 242h223l-195 -242h-167z" />
<glyph unicode="&#x1ea6;" d="M18 0l416 1335h361l415 -1335h-319l-80 317h-403l-82 -317h-308zM291 1438l194 233h258l195 -233h-213l-107 112h-8l-106 -112h-213zM469 553h281l-31 123q-27 100 -53.5 212.5t-53.5 217.5h-8q-25 -106 -51.5 -218t-52.5 -212zM729 1823h232l141 -246h-172z" />
<glyph unicode="&#x1ea7;" d="M125 283q0 86 37 150.5t117.5 109.5t207.5 72.5t308 37.5q-8 70 -60.5 109t-156.5 39q-74 0 -149 -25.5t-161 -68.5l-106 196q104 59 224 98t251 39q213 0 336 -112.5t123 -345.5v-582h-246l-23 115h-8q-78 -59 -170 -99.5t-190 -40.5q-78 0 -139.5 24t-104.5 65.5 t-66.5 97t-23.5 121.5zM346 1176l166 262h237l166 -262h-184l-97 133h-8l-96 -133h-184zM414 305q0 -49 37.5 -72.5t103.5 -23.5q68 0 127 27.5t113 68.5v168q-113 -6 -186.5 -20.5t-116.5 -36t-60.5 -50t-17.5 -61.5zM778 1565h223l139 -242h-168z" />
<glyph unicode="&#x1ea8;" d="M18 0l416 1335h361l415 -1335h-319l-80 317h-403l-82 -317h-308zM291 1438l194 233h258l195 -233h-213l-107 112h-8l-106 -112h-213zM469 553h281l-31 123q-27 100 -53.5 212.5t-53.5 217.5h-8q-25 -106 -51.5 -218t-52.5 -212zM805 1755l26 123q168 -4 235 -50t67 -114 q0 -90 -69 -130t-169 -48l-23 96q29 6 47.5 17.5t18.5 38.5q0 29 -27.5 45t-105.5 22z" />
<glyph unicode="&#x1ea9;" d="M125 283q0 86 37 150.5t117.5 109.5t207.5 72.5t308 37.5q-8 70 -60.5 109t-156.5 39q-74 0 -149 -25.5t-161 -68.5l-106 196q104 59 224 98t251 39q213 0 336 -112.5t123 -345.5v-582h-246l-23 115h-8q-78 -59 -170 -99.5t-190 -40.5q-78 0 -139.5 24t-104.5 65.5 t-66.5 97t-23.5 121.5zM346 1176l166 262h237l166 -262h-184l-97 133h-8l-96 -133h-184zM414 305q0 -49 37.5 -72.5t103.5 -23.5q68 0 127 27.5t113 68.5v168q-113 -6 -186.5 -20.5t-116.5 -36t-60.5 -50t-17.5 -61.5zM821 1513l29 127q168 -4 234.5 -47t66.5 -114 q0 -51 -19.5 -85t-51.5 -55.5t-75 -34t-92 -18.5l-20 103q29 6 45 18t16 39q0 29 -27.5 46t-105.5 21z" />
<glyph unicode="&#x1eaa;" d="M18 0l416 1335h361l415 -1335h-319l-80 317h-403l-82 -317h-308zM291 1438l194 233h258l195 -233h-213l-107 112h-8l-106 -112h-213zM309 1745q12 121 64.5 176t122.5 55q41 0 72.5 -12t57 -25.5t48 -25.5t43.5 -12q55 0 74 75h129q-12 -121 -64.5 -176t-122.5 -55 q-41 0 -72.5 12t-58.5 26.5t-48.5 27t-41.5 12.5q-57 0 -74 -78h-129zM469 553h281l-31 123q-27 100 -53.5 212.5t-53.5 217.5h-8q-25 -106 -51.5 -218t-52.5 -212z" />
<glyph unicode="&#x1eab;" d="M125 283q0 86 37 150.5t117.5 109.5t207.5 72.5t308 37.5q-8 70 -60.5 109t-156.5 39q-74 0 -149 -25.5t-161 -68.5l-106 196q104 59 224 98t251 39q213 0 336 -112.5t123 -345.5v-582h-246l-23 115h-8q-78 -59 -170 -99.5t-190 -40.5q-78 0 -139.5 24t-104.5 65.5 t-66.5 97t-23.5 121.5zM329 1174l164 227h275l163 -227h-194l-103 120h-8l-102 -120h-195zM331 1475q14 123 66.5 178t120.5 55q41 0 70.5 -12.5t53 -26.5t43 -26.5t42.5 -12.5q57 0 71 78h131q-14 -121 -66 -177t-120 -56q-41 0 -70.5 12t-53 26.5t-44 26.5t-41.5 12 q-57 0 -72 -77h-131zM414 305q0 -49 37.5 -72.5t103.5 -23.5q68 0 127 27.5t113 68.5v168q-113 -6 -186.5 -20.5t-116.5 -36t-60.5 -50t-17.5 -61.5z" />
<glyph unicode="&#x1eac;" d="M18 0l416 1335h361l415 -1335h-319l-80 317h-403l-82 -317h-308zM270 1438l197 245h295l196 -245h-231l-109 125h-8l-108 -125h-232zM414 -336q0 84 56 136.5t144 52.5t144.5 -52.5t56.5 -136.5t-56.5 -133t-144.5 -49t-144 49t-56 133zM469 553h281l-31 123 q-27 100 -53.5 212.5t-53.5 217.5h-8q-25 -106 -51.5 -218t-52.5 -212z" />
<glyph unicode="&#x1ead;" d="M125 283q0 86 37 150.5t117.5 109.5t207.5 72.5t308 37.5q-8 70 -60.5 109t-156.5 39q-74 0 -149 -25.5t-161 -68.5l-106 196q104 59 224 98t251 39q213 0 336 -112.5t123 -345.5v-582h-246l-23 115h-8q-78 -59 -170 -99.5t-190 -40.5q-78 0 -139.5 24t-104.5 65.5 t-66.5 97t-23.5 121.5zM299 1176l204 342h254l205 -342h-219l-109 194h-8l-108 -194h-219zM414 305q0 -49 37.5 -72.5t103.5 -23.5q68 0 127 27.5t113 68.5v168q-113 -6 -186.5 -20.5t-116.5 -36t-60.5 -50t-17.5 -61.5zM434 -336q0 84 56 136.5t144 52.5t144.5 -52.5 t56.5 -136.5t-56.5 -133t-144.5 -49t-144 49t-56 133z" />
<glyph unicode="&#x1eae;" d="M18 0l416 1335h361l415 -1335h-319l-80 317h-403l-82 -317h-308zM336 1683h137q12 -49 43 -79.5t98 -30.5q68 0 98.5 30.5t43.5 79.5h137q-10 -111 -78 -178t-201 -67t-200.5 67.5t-77.5 177.5zM469 553h281l-31 123q-27 100 -53.5 212.5t-53.5 217.5h-8 q-25 -106 -51.5 -218t-52.5 -212zM522 1655l131 243h228l-207 -243h-152z" />
<glyph unicode="&#x1eaf;" d="M125 283q0 86 37 150.5t117.5 109.5t207.5 72.5t308 37.5q-8 70 -60.5 109t-156.5 39q-74 0 -149 -25.5t-161 -68.5l-106 196q104 59 224 98t251 39q213 0 336 -112.5t123 -345.5v-582h-246l-23 115h-8q-78 -59 -170 -99.5t-190 -40.5q-78 0 -139.5 24t-104.5 65.5 t-66.5 97t-23.5 121.5zM346 1460h133q10 -57 46 -97t105 -40q70 0 106 40t46 97h133q-2 -55 -20.5 -106t-53 -91t-87 -63.5t-124.5 -23.5t-124 23.5t-86.5 63.5t-53 91t-20.5 106zM414 305q0 -49 37.5 -72.5t103.5 -23.5q68 0 127 27.5t113 68.5v168q-113 -6 -186.5 -20.5 t-116.5 -36t-60.5 -50t-17.5 -61.5zM536 1417l117 242h217l-182 -242h-152z" />
<glyph unicode="&#x1eb0;" d="M18 0l416 1335h361l415 -1335h-319l-80 317h-403l-82 -317h-308zM336 1683h137q12 -49 43 -79.5t98 -30.5q68 0 98.5 30.5t43.5 79.5h137q-10 -111 -78 -178t-201 -67t-200.5 67.5t-77.5 177.5zM348 1898h227l132 -243h-152zM469 553h281l-31 123q-27 100 -53.5 212.5 t-53.5 217.5h-8q-25 -106 -51.5 -218t-52.5 -212z" />
<glyph unicode="&#x1eb1;" d="M125 283q0 86 37 150.5t117.5 109.5t207.5 72.5t308 37.5q-8 70 -60.5 109t-156.5 39q-74 0 -149 -25.5t-161 -68.5l-106 196q104 59 224 98t251 39q213 0 336 -112.5t123 -345.5v-582h-246l-23 115h-8q-78 -59 -170 -99.5t-190 -40.5q-78 0 -139.5 24t-104.5 65.5 t-66.5 97t-23.5 121.5zM346 1460h133q10 -57 46 -97t105 -40q70 0 106 40t46 97h133q-2 -55 -20.5 -106t-53 -91t-87 -63.5t-124.5 -23.5t-124 23.5t-86.5 63.5t-53 91t-20.5 106zM391 1659h217l117 -242h-152zM414 305q0 -49 37.5 -72.5t103.5 -23.5q68 0 127 27.5 t113 68.5v168q-113 -6 -186.5 -20.5t-116.5 -36t-60.5 -50t-17.5 -61.5z" />
<glyph unicode="&#x1eb2;" d="M18 0l416 1335h361l415 -1335h-319l-80 317h-403l-82 -317h-308zM336 1683h137q12 -49 43 -79.5t98 -30.5q68 0 98.5 30.5t43.5 79.5h137q-10 -111 -78 -178t-201 -67t-200.5 67.5t-77.5 177.5zM457 1870l28 125q168 -6 233.5 -52.5t65.5 -113.5q0 -45 -18 -77t-50 -53.5 t-75 -32.5t-92 -15l-25 96q29 6 48.5 17.5t19.5 37.5q0 29 -28.5 45.5t-106.5 22.5zM469 553h281l-31 123q-27 100 -53.5 212.5t-53.5 217.5h-8q-25 -106 -51.5 -218t-52.5 -212z" />
<glyph unicode="&#x1eb3;" d="M125 283q0 86 37 150.5t117.5 109.5t207.5 72.5t308 37.5q-8 70 -60.5 109t-156.5 39q-74 0 -149 -25.5t-161 -68.5l-106 196q104 59 224 98t251 39q213 0 336 -112.5t123 -345.5v-582h-246l-23 115h-8q-78 -59 -170 -99.5t-190 -40.5q-78 0 -139.5 24t-104.5 65.5 t-66.5 97t-23.5 121.5zM346 1460h133q10 -57 46 -97t105 -40q70 0 106 40t46 97h133q-2 -55 -20.5 -106t-53 -91t-87 -63.5t-124.5 -23.5t-124 23.5t-86.5 63.5t-53 91t-20.5 106zM414 305q0 -49 37.5 -72.5t103.5 -23.5q68 0 127 27.5t113 68.5v168q-113 -6 -186.5 -20.5 t-116.5 -36t-60.5 -50t-17.5 -61.5zM469 1657l26 127q168 -6 235.5 -49t67.5 -115q0 -49 -19.5 -83t-51 -55.5t-75.5 -33.5t-93 -18l-19 102q29 6 45.5 17.5t16.5 39.5q0 29 -28 45.5t-105 22.5z" />
<glyph unicode="&#x1eb4;" d="M18 0l416 1335h361l415 -1335h-319l-80 317h-403l-82 -317h-308zM301 1745q14 121 68.5 177t122.5 56q35 0 64.5 -12t56 -27.5t50 -28t44.5 -12.5q27 0 47 19.5t28 60.5h136q-14 -121 -68.5 -177t-122.5 -56q-35 0 -65.5 12t-56 26.5t-49.5 27t-44 12.5 q-27 0 -48.5 -19.5t-27.5 -58.5h-135zM336 1683h137q12 -49 43 -79.5t98 -30.5q68 0 98.5 30.5t43.5 79.5h137q-10 -111 -78 -178t-201 -67t-200.5 67.5t-77.5 177.5zM469 553h281l-31 123q-27 100 -53.5 212.5t-53.5 217.5h-8q-25 -106 -51.5 -218t-52.5 -212z" />
<glyph unicode="&#x1eb5;" d="M125 283q0 86 37 150.5t117.5 109.5t207.5 72.5t308 37.5q-8 70 -60.5 109t-156.5 39q-74 0 -149 -25.5t-161 -68.5l-106 196q104 59 224 98t251 39q213 0 336 -112.5t123 -345.5v-582h-246l-23 115h-8q-78 -59 -170 -99.5t-190 -40.5q-78 0 -139.5 24t-104.5 65.5 t-66.5 97t-23.5 121.5zM331 1475q14 123 66.5 178t120.5 55q41 0 70.5 -12.5t53 -26.5t43 -26.5t42.5 -12.5q57 0 71 78h131q-14 -121 -66 -177t-120 -56q-41 0 -70.5 12t-53 26.5t-44 26.5t-41.5 12q-57 0 -72 -77h-131zM346 1419h141q10 -41 42 -71.5t101 -30.5 q70 0 102 30.5t42 71.5h141q-2 -49 -20.5 -93t-53 -78t-87 -53t-124.5 -19t-124 19t-86.5 53t-53 78t-20.5 93zM414 305q0 -49 37.5 -72.5t103.5 -23.5q68 0 127 27.5t113 68.5v168q-113 -6 -186.5 -20.5t-116.5 -36t-60.5 -50t-17.5 -61.5z" />
<glyph unicode="&#x1eb6;" d="M18 0l416 1335h361l415 -1335h-319l-80 317h-403l-82 -317h-308zM334 1683h166q10 -41 35.5 -67.5t78.5 -26.5t79 26.5t36 67.5h166q-12 -111 -79 -178t-202 -67t-201.5 67.5t-78.5 177.5zM414 -336q0 84 56 136.5t144 52.5t144.5 -52.5t56.5 -136.5t-56.5 -133 t-144.5 -49t-144 49t-56 133zM469 553h281l-31 123q-27 100 -53.5 212.5t-53.5 217.5h-8q-25 -106 -51.5 -218t-52.5 -212z" />
<glyph unicode="&#x1eb7;" d="M125 283q0 86 37 150.5t117.5 109.5t207.5 72.5t308 37.5q-8 70 -60.5 109t-156.5 39q-74 0 -149 -25.5t-161 -68.5l-106 196q104 59 224 98t251 39q213 0 336 -112.5t123 -345.5v-582h-246l-23 115h-8q-78 -59 -170 -99.5t-190 -40.5q-78 0 -139.5 24t-104.5 65.5 t-66.5 97t-23.5 121.5zM329 1495h168q8 -66 40 -110t93 -44t93 44.5t41 109.5h167q-2 -61 -20 -119.5t-55 -102.5t-93.5 -70.5t-132.5 -26.5t-132 26.5t-93 70.5t-55.5 102.5t-20.5 119.5zM414 305q0 -49 37.5 -72.5t103.5 -23.5q68 0 127 27.5t113 68.5v168 q-113 -6 -186.5 -20.5t-116.5 -36t-60.5 -50t-17.5 -61.5zM434 -336q0 84 56 136.5t144 52.5t144.5 -52.5t56.5 -136.5t-56.5 -133t-144.5 -49t-144 49t-56 133z" />
<glyph unicode="&#x1eb8;" d="M193 0v1335h880v-254h-579v-268h491v-252h-491v-307h600v-254h-901zM457 -336q0 84 56 136.5t144 52.5t144.5 -52.5t56.5 -136.5t-56.5 -133t-144.5 -49t-144 49t-56 133z" />
<glyph unicode="&#x1eb9;" d="M113 508q0 125 44 223t117.5 167t169 105.5t197.5 36.5q117 0 207 -36.5t149.5 -102t90 -155t30.5 -193.5q0 -41 -4 -78t-8 -55h-684q16 -115 99 -165t196 -50q70 0 132 17.5t130 51.5l98 -180q-86 -55 -192.5 -87t-208.5 -32q-119 0 -221.5 36t-178 104.5t-119.5 167 t-44 225.5zM418 618h428q0 86 -47 139.5t-152 53.5q-82 0 -145.5 -47t-83.5 -146zM441 -336q0 84 56 136.5t144 52.5t144.5 -52.5t56.5 -136.5t-56.5 -133t-144.5 -49t-144 49t-56 133z" />
<glyph unicode="&#x1eba;" d="M193 0v1335h880v-254h-579v-268h491v-252h-491v-307h600v-254h-901zM494 1665l34 150q188 -4 266 -54.5t78 -132.5q0 -53 -22.5 -91t-61 -63.5t-91 -40t-109.5 -18.5l-23 119q37 8 63.5 20.5t26.5 40.5q0 29 -36.5 46.5t-124.5 23.5z" />
<glyph unicode="&#x1ebb;" d="M113 508q0 125 44 223t117.5 167t169 105.5t197.5 36.5q117 0 207 -36.5t149.5 -102t90 -155t30.5 -193.5q0 -41 -4 -78t-8 -55h-684q16 -115 99 -165t196 -50q70 0 132 17.5t130 51.5l98 -180q-86 -55 -192.5 -87t-208.5 -32q-119 0 -221.5 36t-178 104.5t-119.5 167 t-44 225.5zM418 618h428q0 86 -47 139.5t-152 53.5q-82 0 -145.5 -47t-83.5 -146zM476 1389l34 151q188 -6 266 -56t78 -132q0 -53 -22.5 -91t-61 -64t-91 -39t-109.5 -17l-23 119q37 6 63.5 19t26.5 42t-36.5 46t-124.5 22z" />
<glyph unicode="&#x1ebc;" d="M193 0v1335h880v-254h-579v-268h491v-252h-491v-307h600v-254h-901zM311 1440q16 141 78 209.5t141 68.5q41 0 76 -14t64.5 -31.5t55.5 -32t50 -14.5q27 0 47.5 20.5t30.5 71.5h154q-16 -141 -78 -209.5t-142 -68.5q-41 0 -75.5 14t-64.5 31.5t-55.5 32t-49.5 14.5 q-27 0 -47.5 -20.5t-30.5 -71.5h-154z" />
<glyph unicode="&#x1ebd;" d="M113 508q0 125 44 223t117.5 167t169 105.5t197.5 36.5q117 0 207 -36.5t149.5 -102t90 -155t30.5 -193.5q0 -41 -4 -78t-8 -55h-684q16 -115 99 -165t196 -50q70 0 132 17.5t130 51.5l98 -180q-86 -55 -192.5 -87t-208.5 -32q-119 0 -221.5 36t-178 104.5t-119.5 167 t-44 225.5zM291 1178q18 150 82 221t158 71q37 0 68.5 -16t57 -36.5t48 -37t45.5 -16.5q33 0 53.5 23.5t34.5 82.5h154q-18 -147 -82 -219.5t-158 -72.5q-39 0 -69.5 17t-57.5 36.5t-49.5 37t-42.5 17.5q-33 0 -53.5 -23.5t-34.5 -84.5h-154zM418 618h428q0 86 -47 139.5 t-152 53.5q-82 0 -145.5 -47t-83.5 -146z" />
<glyph unicode="&#x1ebe;" d="M193 0v1335h880v-254h-579v-268h491v-252h-491v-307h600v-254h-901zM336 1438l194 233h258l195 -233h-213l-107 112h-8l-106 -112h-213zM891 1577l139 246h234l-203 -246h-170z" />
<glyph unicode="&#x1ebf;" d="M113 508q0 125 44 223t117.5 167t169 105.5t197.5 36.5q117 0 207 -36.5t149.5 -102t90 -155t30.5 -193.5q0 -41 -4 -78t-8 -55h-684q16 -115 99 -165t196 -50q70 0 132 17.5t130 51.5l98 -180q-86 -55 -192.5 -87t-208.5 -32q-119 0 -221.5 36t-178 104.5t-119.5 167 t-44 225.5zM357 1176l166 262h237l166 -262h-184l-97 133h-8l-96 -133h-184zM418 618h428q0 86 -47 139.5t-152 53.5q-82 0 -145.5 -47t-83.5 -146zM861 1323l139 242h223l-195 -242h-167z" />
<glyph unicode="&#x1ec0;" d="M193 0v1335h880v-254h-579v-268h491v-252h-491v-307h600v-254h-901zM336 1438l194 233h258l195 -233h-213l-107 112h-8l-106 -112h-213zM774 1823h232l141 -246h-172z" />
<glyph unicode="&#x1ec1;" d="M113 508q0 125 44 223t117.5 167t169 105.5t197.5 36.5q117 0 207 -36.5t149.5 -102t90 -155t30.5 -193.5q0 -41 -4 -78t-8 -55h-684q16 -115 99 -165t196 -50q70 0 132 17.5t130 51.5l98 -180q-86 -55 -192.5 -87t-208.5 -32q-119 0 -221.5 36t-178 104.5t-119.5 167 t-44 225.5zM357 1176l166 262h237l166 -262h-184l-97 133h-8l-96 -133h-184zM418 618h428q0 86 -47 139.5t-152 53.5q-82 0 -145.5 -47t-83.5 -146zM789 1565h223l139 -242h-168z" />
<glyph unicode="&#x1ec2;" d="M193 0v1335h880v-254h-579v-268h491v-252h-491v-307h600v-254h-901zM336 1438l194 233h258l195 -233h-213l-107 112h-8l-106 -112h-213zM850 1755l26 123q168 -4 235 -50t67 -114q0 -90 -69 -130t-169 -48l-23 96q29 6 47.5 17.5t18.5 38.5q0 29 -27.5 45t-105.5 22z" />
<glyph unicode="&#x1ec3;" d="M113 508q0 125 44 223t117.5 167t169 105.5t197.5 36.5q117 0 207 -36.5t149.5 -102t90 -155t30.5 -193.5q0 -41 -4 -78t-8 -55h-684q16 -115 99 -165t196 -50q70 0 132 17.5t130 51.5l98 -180q-86 -55 -192.5 -87t-208.5 -32q-119 0 -221.5 36t-178 104.5t-119.5 167 t-44 225.5zM357 1176l166 262h237l166 -262h-184l-97 133h-8l-96 -133h-184zM418 618h428q0 86 -47 139.5t-152 53.5q-82 0 -145.5 -47t-83.5 -146zM832 1513l29 127q168 -4 234.5 -47t66.5 -114q0 -51 -19.5 -85t-51.5 -55.5t-75 -34t-92 -18.5l-20 103q29 6 45 18t16 39 q0 29 -27.5 46t-105.5 21z" />
<glyph unicode="&#x1ec4;" d="M193 0v1335h880v-254h-579v-268h491v-252h-491v-307h600v-254h-901zM336 1438l194 233h258l195 -233h-213l-107 112h-8l-106 -112h-213zM354 1745q12 121 64.5 176t122.5 55q41 0 72.5 -12t57 -25.5t48 -25.5t43.5 -12q55 0 74 75h129q-12 -121 -64.5 -176t-122.5 -55 q-41 0 -72.5 12t-58.5 26.5t-48.5 27t-41.5 12.5q-57 0 -74 -78h-129z" />
<glyph unicode="&#x1ec5;" d="M113 508q0 125 44 223t117.5 167t169 105.5t197.5 36.5q117 0 207 -36.5t149.5 -102t90 -155t30.5 -193.5q0 -41 -4 -78t-8 -55h-684q16 -115 99 -165t196 -50q70 0 132 17.5t130 51.5l98 -180q-86 -55 -192.5 -87t-208.5 -32q-119 0 -221.5 36t-178 104.5t-119.5 167 t-44 225.5zM340 1174l164 227h275l163 -227h-194l-103 120h-8l-102 -120h-195zM342 1475q14 123 66.5 178t120.5 55q41 0 70.5 -12.5t53 -26.5t43 -26.5t42.5 -12.5q57 0 71 78h131q-14 -121 -66 -177t-120 -56q-41 0 -70.5 12t-53 26.5t-44 26.5t-41.5 12q-57 0 -72 -77 h-131zM418 618h428q0 86 -47 139.5t-152 53.5q-82 0 -145.5 -47t-83.5 -146z" />
<glyph unicode="&#x1ec6;" d="M193 0v1335h880v-254h-579v-268h491v-252h-491v-307h600v-254h-901zM315 1438l197 245h295l196 -245h-231l-109 125h-8l-108 -125h-232zM457 -336q0 84 56 136.5t144 52.5t144.5 -52.5t56.5 -136.5t-56.5 -133t-144.5 -49t-144 49t-56 133z" />
<glyph unicode="&#x1ec7;" d="M113 508q0 125 44 223t117.5 167t169 105.5t197.5 36.5q117 0 207 -36.5t149.5 -102t90 -155t30.5 -193.5q0 -41 -4 -78t-8 -55h-684q16 -115 99 -165t196 -50q70 0 132 17.5t130 51.5l98 -180q-86 -55 -192.5 -87t-208.5 -32q-119 0 -221.5 36t-178 104.5t-119.5 167 t-44 225.5zM310 1176l204 342h254l205 -342h-219l-109 194h-8l-108 -194h-219zM418 618h428q0 86 -47 139.5t-152 53.5q-82 0 -145.5 -47t-83.5 -146zM441 -336q0 84 56 136.5t144 52.5t144.5 -52.5t56.5 -136.5t-56.5 -133t-144.5 -49t-144 49t-56 133z" />
<glyph unicode="&#x1ec8;" d="M152 0v254h311v827h-311v254h925v-254h-311v-827h311v-254h-925zM449 1665l34 150q188 -4 266 -54.5t78 -132.5q0 -53 -22.5 -91t-61 -63.5t-91 -40t-109.5 -18.5l-23 119q37 8 63.5 20.5t26.5 40.5q0 29 -36.5 46.5t-124.5 23.5z" />
<glyph unicode="&#x1ec9;" d="M162 780v236h708v-1016h-301v780h-407zM541 1389l34 151q188 -6 266 -56t78 -132q0 -53 -22.5 -91t-61 -64t-91 -39t-109.5 -17l-23 119q37 6 63.5 19t26.5 42t-36.5 46t-124.5 22z" />
<glyph unicode="&#x1eca;" d="M152 0v254h311v827h-311v254h925v-254h-311v-827h311v-254h-925zM414 -336q0 84 56 136.5t144 52.5t144.5 -52.5t56.5 -136.5t-56.5 -133t-144.5 -49t-144 49t-56 133z" />
<glyph unicode="&#x1ecb;" d="M162 780v236h708v-1016h-301v780h-407zM506 -336q0 84 56 136.5t144 52.5t144.5 -52.5t56.5 -136.5t-56.5 -133t-144.5 -49t-144 49t-56 133zM506 1348q0 84 56 136t145 52q88 0 144 -52t56 -136t-56 -133.5t-144 -49.5t-144.5 49.5t-56.5 133.5z" />
<glyph unicode="&#x1ecc;" d="M78 674q0 164 39 292t109.5 215t170 133t217.5 46q119 0 218.5 -46t170 -134t109.5 -216t39 -290q0 -164 -39 -293t-109.5 -219t-170 -138.5t-218.5 -48.5t-218 48.5t-169.5 138.5t-109.5 219t-39 293zM387 674q0 -203 61.5 -320.5t165.5 -117.5t166 117.5t62 320.5 q0 201 -61.5 313.5t-166.5 112.5q-104 0 -165.5 -113t-61.5 -313zM414 -336q0 84 56 136.5t144 52.5t144.5 -52.5t56.5 -136.5t-56.5 -133t-144.5 -49t-144 49t-56 133z" />
<glyph unicode="&#x1ecd;" d="M96 508q0 127 43 226.5t116 167t166 103t193 35.5t193.5 -35.5t166.5 -103t116 -167t43 -226.5t-43 -226.5t-116 -167t-166 -103.5t-194 -36q-100 0 -193 36t-166 103.5t-116 167t-43 226.5zM406 508q0 -133 52 -211t156 -78t156.5 78t52.5 211t-52 211t-157 78 q-104 0 -156 -78t-52 -211zM414 -336q0 84 56 136.5t144 52.5t144.5 -52.5t56.5 -136.5t-56.5 -133t-144.5 -49t-144 49t-56 133z" />
<glyph unicode="&#x1ece;" d="M78 674q0 164 39 292t109.5 215t170 133t217.5 46q119 0 218.5 -46t170 -134t109.5 -216t39 -290q0 -164 -39 -293t-109.5 -219t-170 -138.5t-218.5 -48.5t-218 48.5t-169.5 138.5t-109.5 219t-39 293zM387 674q0 -203 61.5 -320.5t165.5 -117.5t166 117.5t62 320.5 q0 201 -61.5 313.5t-166.5 112.5q-104 0 -165.5 -113t-61.5 -313zM449 1665l34 150q188 -4 266 -54.5t78 -132.5q0 -53 -22.5 -91t-61 -63.5t-91 -40t-109.5 -18.5l-23 119q37 8 63.5 20.5t26.5 40.5q0 29 -36.5 46.5t-124.5 23.5z" />
<glyph unicode="&#x1ecf;" d="M96 508q0 127 43 226.5t116 167t166 103t193 35.5t193.5 -35.5t166.5 -103t116 -167t43 -226.5t-43 -226.5t-116 -167t-166 -103.5t-194 -36q-100 0 -193 36t-166 103.5t-116 167t-43 226.5zM406 508q0 -133 52 -211t156 -78t156.5 78t52.5 211t-52 211t-157 78 q-104 0 -156 -78t-52 -211zM449 1389l34 151q188 -6 266 -56t78 -132q0 -53 -22.5 -91t-61 -64t-91 -39t-109.5 -17l-23 119q37 6 63.5 19t26.5 42t-36.5 46t-124.5 22z" />
<glyph unicode="&#x1ed0;" d="M78 674q0 164 39 292t109.5 215t170 133t217.5 46q119 0 218.5 -46t170 -134t109.5 -216t39 -290q0 -164 -39 -293t-109.5 -219t-170 -138.5t-218.5 -48.5t-218 48.5t-169.5 138.5t-109.5 219t-39 293zM291 1438l194 233h258l195 -233h-213l-107 112h-8l-106 -112h-213z M387 674q0 -203 61.5 -320.5t165.5 -117.5t166 117.5t62 320.5q0 201 -61.5 313.5t-166.5 112.5q-104 0 -165.5 -113t-61.5 -313zM846 1577l139 246h234l-203 -246h-170z" />
<glyph unicode="&#x1ed1;" d="M96 508q0 127 43 226.5t116 167t166 103t193 35.5t193.5 -35.5t166.5 -103t116 -167t43 -226.5t-43 -226.5t-116 -167t-166 -103.5t-194 -36q-100 0 -193 36t-166 103.5t-116 167t-43 226.5zM330 1176l166 262h237l166 -262h-184l-97 133h-8l-96 -133h-184zM406 508 q0 -133 52 -211t156 -78t156.5 78t52.5 211t-52 211t-157 78q-104 0 -156 -78t-52 -211zM834 1323l139 242h223l-195 -242h-167z" />
<glyph unicode="&#x1ed2;" d="M78 674q0 164 39 292t109.5 215t170 133t217.5 46q119 0 218.5 -46t170 -134t109.5 -216t39 -290q0 -164 -39 -293t-109.5 -219t-170 -138.5t-218.5 -48.5t-218 48.5t-169.5 138.5t-109.5 219t-39 293zM291 1438l194 233h258l195 -233h-213l-107 112h-8l-106 -112h-213z M387 674q0 -203 61.5 -320.5t165.5 -117.5t166 117.5t62 320.5q0 201 -61.5 313.5t-166.5 112.5q-104 0 -165.5 -113t-61.5 -313zM729 1823h232l141 -246h-172z" />
<glyph unicode="&#x1ed3;" d="M96 508q0 127 43 226.5t116 167t166 103t193 35.5t193.5 -35.5t166.5 -103t116 -167t43 -226.5t-43 -226.5t-116 -167t-166 -103.5t-194 -36q-100 0 -193 36t-166 103.5t-116 167t-43 226.5zM330 1176l166 262h237l166 -262h-184l-97 133h-8l-96 -133h-184zM406 508 q0 -133 52 -211t156 -78t156.5 78t52.5 211t-52 211t-157 78q-104 0 -156 -78t-52 -211zM762 1565h223l139 -242h-168z" />
<glyph unicode="&#x1ed4;" d="M78 674q0 164 39 292t109.5 215t170 133t217.5 46q119 0 218.5 -46t170 -134t109.5 -216t39 -290q0 -164 -39 -293t-109.5 -219t-170 -138.5t-218.5 -48.5t-218 48.5t-169.5 138.5t-109.5 219t-39 293zM291 1438l194 233h258l195 -233h-213l-107 112h-8l-106 -112h-213z M387 674q0 -203 61.5 -320.5t165.5 -117.5t166 117.5t62 320.5q0 201 -61.5 313.5t-166.5 112.5q-104 0 -165.5 -113t-61.5 -313zM805 1755l26 123q168 -4 235 -50t67 -114q0 -90 -69 -130t-169 -48l-23 96q29 6 47.5 17.5t18.5 38.5q0 29 -27.5 45t-105.5 22z" />
<glyph unicode="&#x1ed5;" d="M96 508q0 127 43 226.5t116 167t166 103t193 35.5t193.5 -35.5t166.5 -103t116 -167t43 -226.5t-43 -226.5t-116 -167t-166 -103.5t-194 -36q-100 0 -193 36t-166 103.5t-116 167t-43 226.5zM330 1176l166 262h237l166 -262h-184l-97 133h-8l-96 -133h-184zM406 508 q0 -133 52 -211t156 -78t156.5 78t52.5 211t-52 211t-157 78q-104 0 -156 -78t-52 -211zM805 1513l29 127q168 -4 234.5 -47t66.5 -114q0 -51 -19.5 -85t-51.5 -55.5t-75 -34t-92 -18.5l-20 103q29 6 45 18t16 39q0 29 -27.5 46t-105.5 21z" />
<glyph unicode="&#x1ed6;" d="M78 674q0 164 39 292t109.5 215t170 133t217.5 46q119 0 218.5 -46t170 -134t109.5 -216t39 -290q0 -164 -39 -293t-109.5 -219t-170 -138.5t-218.5 -48.5t-218 48.5t-169.5 138.5t-109.5 219t-39 293zM291 1438l194 233h258l195 -233h-213l-107 112h-8l-106 -112h-213z M309 1745q12 121 64.5 176t122.5 55q41 0 72.5 -12t57 -25.5t48 -25.5t43.5 -12q55 0 74 75h129q-12 -121 -64.5 -176t-122.5 -55q-41 0 -72.5 12t-58.5 26.5t-48.5 27t-41.5 12.5q-57 0 -74 -78h-129zM387 674q0 -203 61.5 -320.5t165.5 -117.5t166 117.5t62 320.5 q0 201 -61.5 313.5t-166.5 112.5q-104 0 -165.5 -113t-61.5 -313z" />
<glyph unicode="&#x1ed7;" d="M96 508q0 127 43 226.5t116 167t166 103t193 35.5t193.5 -35.5t166.5 -103t116 -167t43 -226.5t-43 -226.5t-116 -167t-166 -103.5t-194 -36q-100 0 -193 36t-166 103.5t-116 167t-43 226.5zM313 1174l164 227h275l163 -227h-194l-103 120h-8l-102 -120h-195zM315 1475 q14 123 66.5 178t120.5 55q41 0 70.5 -12.5t53 -26.5t43 -26.5t42.5 -12.5q57 0 71 78h131q-14 -121 -66 -177t-120 -56q-41 0 -70.5 12t-53 26.5t-44 26.5t-41.5 12q-57 0 -72 -77h-131zM406 508q0 -133 52 -211t156 -78t156.5 78t52.5 211t-52 211t-157 78 q-104 0 -156 -78t-52 -211z" />
<glyph unicode="&#x1ed8;" d="M78 674q0 164 39 292t109.5 215t170 133t217.5 46q119 0 218.5 -46t170 -134t109.5 -216t39 -290q0 -164 -39 -293t-109.5 -219t-170 -138.5t-218.5 -48.5t-218 48.5t-169.5 138.5t-109.5 219t-39 293zM270 1438l197 245h295l196 -245h-231l-109 125h-8l-108 -125h-232z M387 674q0 -203 61.5 -320.5t165.5 -117.5t166 117.5t62 320.5q0 201 -61.5 313.5t-166.5 112.5q-104 0 -165.5 -113t-61.5 -313zM414 -336q0 84 56 136.5t144 52.5t144.5 -52.5t56.5 -136.5t-56.5 -133t-144.5 -49t-144 49t-56 133z" />
<glyph unicode="&#x1ed9;" d="M96 508q0 127 43 226.5t116 167t166 103t193 35.5t193.5 -35.5t166.5 -103t116 -167t43 -226.5t-43 -226.5t-116 -167t-166 -103.5t-194 -36q-100 0 -193 36t-166 103.5t-116 167t-43 226.5zM283 1176l204 342h254l205 -342h-219l-109 194h-8l-108 -194h-219zM406 508 q0 -133 52 -211t156 -78t156.5 78t52.5 211t-52 211t-157 78q-104 0 -156 -78t-52 -211zM414 -336q0 84 56 136.5t144 52.5t144.5 -52.5t56.5 -136.5t-56.5 -133t-144.5 -49t-144 49t-56 133z" />
<glyph unicode="&#x1eda;" d="M78 674q0 164 39 292t109.5 215t170 133t217.5 46q135 0 250 -64q55 12 88 39t33 86q0 29 -10 52.5t-21 42.5l205 90q23 -29 41.5 -71t18.5 -93q0 -104 -63.5 -166t-162.5 -86q74 -88 116 -218t42 -298q0 -164 -39 -293t-109.5 -219t-170 -138.5t-218.5 -48.5t-218 48.5 t-169.5 138.5t-109.5 219t-39 293zM387 674q0 -203 61.5 -320.5t165.5 -117.5t166 117.5t62 320.5q0 201 -61.5 313.5t-166.5 112.5q-104 0 -165.5 -113t-61.5 -313zM461 1438l166 245h319l-246 -245h-239z" />
<glyph unicode="&#x1edb;" d="M96 508q0 127 43 226.5t116 167t166 103t193 35.5q55 0 109.5 -11t105.5 -34q61 12 98.5 38t37.5 89q0 29 -10.5 53.5t-22.5 41.5l205 90q23 -29 42 -71t19 -93q0 -104 -61.5 -163.5t-155.5 -84.5q70 -68 111 -165t41 -222q0 -127 -43 -226.5t-116 -167t-166 -103.5 t-194 -36q-100 0 -193 36t-166 103.5t-116 167t-43 226.5zM406 508q0 -133 52 -211t156 -78t156.5 78t52.5 211t-52 211t-157 78q-104 0 -156 -78t-52 -211zM446 1176l183 342h307l-270 -342h-220z" />
<glyph unicode="&#x1edc;" d="M78 674q0 164 39 292t109.5 215t170 133t217.5 46q135 0 250 -64q55 12 88 39t33 86q0 29 -10 52.5t-21 42.5l205 90q23 -29 41.5 -71t18.5 -93q0 -104 -63.5 -166t-162.5 -86q74 -88 116 -218t42 -298q0 -164 -39 -293t-109.5 -219t-170 -138.5t-218.5 -48.5t-218 48.5 t-169.5 138.5t-109.5 219t-39 293zM283 1683h319l166 -245h-240zM387 674q0 -203 61.5 -320.5t165.5 -117.5t166 117.5t62 320.5q0 201 -61.5 313.5t-166.5 112.5q-104 0 -165.5 -113t-61.5 -313z" />
<glyph unicode="&#x1edd;" d="M96 508q0 127 43 226.5t116 167t166 103t193 35.5q55 0 109.5 -11t105.5 -34q61 12 98.5 38t37.5 89q0 29 -10.5 53.5t-22.5 41.5l205 90q23 -29 42 -71t19 -93q0 -104 -61.5 -163.5t-155.5 -84.5q70 -68 111 -165t41 -222q0 -127 -43 -226.5t-116 -167t-166 -103.5 t-194 -36q-100 0 -193 36t-166 103.5t-116 167t-43 226.5zM293 1518h307l182 -342h-219zM406 508q0 -133 52 -211t156 -78t156.5 78t52.5 211t-52 211t-157 78q-104 0 -156 -78t-52 -211z" />
<glyph unicode="&#x1ede;" d="M78 674q0 164 39 292t109.5 215t170 133t217.5 46q135 0 250 -64q55 12 88 39t33 86q0 29 -10 52.5t-21 42.5l205 90q23 -29 41.5 -71t18.5 -93q0 -104 -63.5 -166t-162.5 -86q74 -88 116 -218t42 -298q0 -164 -39 -293t-109.5 -219t-170 -138.5t-218.5 -48.5t-218 48.5 t-169.5 138.5t-109.5 219t-39 293zM387 674q0 -203 61.5 -320.5t165.5 -117.5t166 117.5t62 320.5q0 201 -61.5 313.5t-166.5 112.5q-104 0 -165.5 -113t-61.5 -313zM449 1665l34 150q188 -4 266 -54.5t78 -132.5q0 -53 -22.5 -91t-61 -63.5t-91 -40t-109.5 -18.5l-23 119 q37 8 63.5 20.5t26.5 40.5q0 29 -36.5 46.5t-124.5 23.5z" />
<glyph unicode="&#x1edf;" d="M96 508q0 127 43 226.5t116 167t166 103t193 35.5q55 0 109.5 -11t105.5 -34q61 12 98.5 38t37.5 89q0 29 -10.5 53.5t-22.5 41.5l205 90q23 -29 42 -71t19 -93q0 -104 -61.5 -163.5t-155.5 -84.5q70 -68 111 -165t41 -222q0 -127 -43 -226.5t-116 -167t-166 -103.5 t-194 -36q-100 0 -193 36t-166 103.5t-116 167t-43 226.5zM406 508q0 -133 52 -211t156 -78t156.5 78t52.5 211t-52 211t-157 78q-104 0 -156 -78t-52 -211zM449 1389l34 151q188 -6 266 -56t78 -132q0 -53 -22.5 -91t-61 -64t-91 -39t-109.5 -17l-23 119q37 6 63.5 19 t26.5 42t-36.5 46t-124.5 22z" />
<glyph unicode="&#x1ee0;" d="M78 674q0 164 39 292t109.5 215t170 133t217.5 46q135 0 250 -64q55 12 88 39t33 86q0 29 -10 52.5t-21 42.5l205 90q23 -29 41.5 -71t18.5 -93q0 -104 -63.5 -166t-162.5 -86q74 -88 116 -218t42 -298q0 -164 -39 -293t-109.5 -219t-170 -138.5t-218.5 -48.5t-218 48.5 t-169.5 138.5t-109.5 219t-39 293zM266 1440q16 141 78 209.5t141 68.5q41 0 76 -14t64.5 -31.5t55.5 -32t50 -14.5q27 0 47.5 20.5t30.5 71.5h154q-16 -141 -78 -209.5t-142 -68.5q-41 0 -75.5 14t-64.5 31.5t-55.5 32t-49.5 14.5q-27 0 -47.5 -20.5t-30.5 -71.5h-154z M387 674q0 -203 61.5 -320.5t165.5 -117.5t166 117.5t62 320.5q0 201 -61.5 313.5t-166.5 112.5q-104 0 -165.5 -113t-61.5 -313z" />
<glyph unicode="&#x1ee1;" d="M96 508q0 127 43 226.5t116 167t166 103t193 35.5q55 0 109.5 -11t105.5 -34q61 12 98.5 38t37.5 89q0 29 -10.5 53.5t-22.5 41.5l205 90q23 -29 42 -71t19 -93q0 -104 -61.5 -163.5t-155.5 -84.5q70 -68 111 -165t41 -222q0 -127 -43 -226.5t-116 -167t-166 -103.5 t-194 -36q-100 0 -193 36t-166 103.5t-116 167t-43 226.5zM264 1178q18 150 82 221t158 71q37 0 68.5 -16t57 -36.5t48 -37t45.5 -16.5q33 0 53.5 23.5t34.5 82.5h154q-18 -147 -82 -219.5t-158 -72.5q-39 0 -69.5 17t-57.5 36.5t-49.5 37t-42.5 17.5q-33 0 -53.5 -23.5 t-34.5 -84.5h-154zM406 508q0 -133 52 -211t156 -78t156.5 78t52.5 211t-52 211t-157 78q-104 0 -156 -78t-52 -211z" />
<glyph unicode="&#x1ee2;" d="M78 674q0 164 39 292t109.5 215t170 133t217.5 46q135 0 250 -64q55 12 88 39t33 86q0 29 -10 52.5t-21 42.5l205 90q23 -29 41.5 -71t18.5 -93q0 -104 -63.5 -166t-162.5 -86q74 -88 116 -218t42 -298q0 -164 -39 -293t-109.5 -219t-170 -138.5t-218.5 -48.5t-218 48.5 t-169.5 138.5t-109.5 219t-39 293zM387 674q0 -203 61.5 -320.5t165.5 -117.5t166 117.5t62 320.5q0 201 -61.5 313.5t-166.5 112.5q-104 0 -165.5 -113t-61.5 -313zM414 -336q0 84 56 136.5t144 52.5t144.5 -52.5t56.5 -136.5t-56.5 -133t-144.5 -49t-144 49t-56 133z" />
<glyph unicode="&#x1ee3;" d="M96 508q0 127 43 226.5t116 167t166 103t193 35.5q55 0 109.5 -11t105.5 -34q61 12 98.5 38t37.5 89q0 29 -10.5 53.5t-22.5 41.5l205 90q23 -29 42 -71t19 -93q0 -104 -61.5 -163.5t-155.5 -84.5q70 -68 111 -165t41 -222q0 -127 -43 -226.5t-116 -167t-166 -103.5 t-194 -36q-100 0 -193 36t-166 103.5t-116 167t-43 226.5zM406 508q0 -133 52 -211t156 -78t156.5 78t52.5 211t-52 211t-157 78q-104 0 -156 -78t-52 -211zM416 -336q0 84 56 136.5t144 52.5t144.5 -52.5t56.5 -136.5t-56.5 -133t-144.5 -49t-144 49t-56 133z" />
<glyph unicode="&#x1ee4;" d="M131 514v821h301v-852q0 -121 45 -184t141 -63t142.5 63t46.5 184v852h291v-821q0 -262 -118 -400.5t-362 -138.5q-246 0 -366.5 138.5t-120.5 400.5zM414 -336q0 84 56 136.5t144 52.5t144.5 -52.5t56.5 -136.5t-56.5 -133t-144.5 -49t-144 49t-56 133z" />
<glyph unicode="&#x1ee5;" d="M127 389v627h301v-588q0 -102 30.5 -149.5t116.5 -47.5q57 0 101.5 25t97.5 92v668h301v-1016h-246l-22 145h-8q-68 -78 -150 -124t-192 -46q-174 0 -252 111t-78 303zM453 -336q0 84 56 136.5t144 52.5t144.5 -52.5t56.5 -136.5t-56.5 -133t-144.5 -49t-144 49t-56 133z " />
<glyph unicode="&#x1ee6;" d="M131 514v821h301v-852q0 -121 45 -184t141 -63t142.5 63t46.5 184v852h291v-821q0 -262 -118 -400.5t-362 -138.5q-246 0 -366.5 138.5t-120.5 400.5zM449 1665l34 150q188 -4 266 -54.5t78 -132.5q0 -53 -22.5 -91t-61 -63.5t-91 -40t-109.5 -18.5l-23 119 q37 8 63.5 20.5t26.5 40.5q0 29 -36.5 46.5t-124.5 23.5z" />
<glyph unicode="&#x1ee7;" d="M127 389v627h301v-588q0 -102 30.5 -149.5t116.5 -47.5q57 0 101.5 25t97.5 92v668h301v-1016h-246l-22 145h-8q-68 -78 -150 -124t-192 -46q-174 0 -252 111t-78 303zM443 1389l34 151q188 -6 266 -56t78 -132q0 -53 -22.5 -91t-61 -64t-91 -39t-109.5 -17l-23 119 q37 6 63.5 19t26.5 42t-36.5 46t-124.5 22z" />
<glyph unicode="&#x1ee8;" d="M131 514v821h301v-852q0 -121 45 -184t141 -63t142.5 63t46.5 184v852h143q31 2 60.5 7.5t54.5 18.5t39 36.5t14 64.5q0 29 -10 52.5t-21 41.5l205 91q23 -29 41.5 -71t18.5 -93q0 -57 -19.5 -101.5t-53.5 -76t-81 -51t-100 -29.5v-711q0 -262 -118 -400.5t-362 -138.5 q-246 0 -366.5 138.5t-120.5 400.5zM461 1438l166 245h319l-246 -245h-239z" />
<glyph unicode="&#x1ee9;" d="M127 389v627h301v-588q0 -102 30.5 -149.5t116.5 -47.5q57 0 101.5 25t97.5 92v668h100q29 2 59 7t53.5 18.5t38.5 37t15 64.5q0 29 -10 53.5t-20 40.5l204 90q23 -29 41.5 -71t18.5 -93q0 -100 -57.5 -158.5t-141.5 -82.5v-922h-246l-22 145h-8q-68 -78 -150 -124 t-192 -46q-174 0 -252 111t-78 303zM436 1176l183 342h307l-270 -342h-220z" />
<glyph unicode="&#x1eea;" d="M131 514v821h301v-852q0 -121 45 -184t141 -63t142.5 63t46.5 184v852h143q31 2 60.5 7.5t54.5 18.5t39 36.5t14 64.5q0 29 -10 52.5t-21 41.5l205 91q23 -29 41.5 -71t18.5 -93q0 -57 -19.5 -101.5t-53.5 -76t-81 -51t-100 -29.5v-711q0 -262 -118 -400.5t-362 -138.5 q-246 0 -366.5 138.5t-120.5 400.5zM283 1683h319l166 -245h-240z" />
<glyph unicode="&#x1eeb;" d="M127 389v627h301v-588q0 -102 30.5 -149.5t116.5 -47.5q57 0 101.5 25t97.5 92v668h100q29 2 59 7t53.5 18.5t38.5 37t15 64.5q0 29 -10 53.5t-20 40.5l204 90q23 -29 41.5 -71t18.5 -93q0 -100 -57.5 -158.5t-141.5 -82.5v-922h-246l-22 145h-8q-68 -78 -150 -124 t-192 -46q-174 0 -252 111t-78 303zM283 1518h307l182 -342h-219z" />
<glyph unicode="&#x1eec;" d="M131 514v821h301v-852q0 -121 45 -184t141 -63t142.5 63t46.5 184v852h143q31 2 60.5 7.5t54.5 18.5t39 36.5t14 64.5q0 29 -10 52.5t-21 41.5l205 91q23 -29 41.5 -71t18.5 -93q0 -57 -19.5 -101.5t-53.5 -76t-81 -51t-100 -29.5v-711q0 -262 -118 -400.5t-362 -138.5 q-246 0 -366.5 138.5t-120.5 400.5zM449 1665l34 150q188 -4 266 -54.5t78 -132.5q0 -53 -22.5 -91t-61 -63.5t-91 -40t-109.5 -18.5l-23 119q37 8 63.5 20.5t26.5 40.5q0 29 -36.5 46.5t-124.5 23.5z" />
<glyph unicode="&#x1eed;" d="M127 389v627h301v-588q0 -102 30.5 -149.5t116.5 -47.5q57 0 101.5 25t97.5 92v668h100q29 2 59 7t53.5 18.5t38.5 37t15 64.5q0 29 -10 53.5t-20 40.5l204 90q23 -29 41.5 -71t18.5 -93q0 -100 -57.5 -158.5t-141.5 -82.5v-922h-246l-22 145h-8q-68 -78 -150 -124 t-192 -46q-174 0 -252 111t-78 303zM439 1389l34 151q188 -6 266 -56t78 -132q0 -53 -22.5 -91t-61 -64t-91 -39t-109.5 -17l-23 119q37 6 63.5 19t26.5 42t-36.5 46t-124.5 22z" />
<glyph unicode="&#x1eee;" d="M131 514v821h301v-852q0 -121 45 -184t141 -63t142.5 63t46.5 184v852h143q31 2 60.5 7.5t54.5 18.5t39 36.5t14 64.5q0 29 -10 52.5t-21 41.5l205 91q23 -29 41.5 -71t18.5 -93q0 -57 -19.5 -101.5t-53.5 -76t-81 -51t-100 -29.5v-711q0 -262 -118 -400.5t-362 -138.5 q-246 0 -366.5 138.5t-120.5 400.5zM266 1440q16 141 78 209.5t141 68.5q41 0 76 -14t64.5 -31.5t55.5 -32t50 -14.5q27 0 47.5 20.5t30.5 71.5h154q-16 -141 -78 -209.5t-142 -68.5q-41 0 -75.5 14t-64.5 31.5t-55.5 32t-49.5 14.5q-27 0 -47.5 -20.5t-30.5 -71.5h-154z " />
<glyph unicode="&#x1eef;" d="M127 389v627h301v-588q0 -102 30.5 -149.5t116.5 -47.5q57 0 101.5 25t97.5 92v668h100q29 2 59 7t53.5 18.5t38.5 37t15 64.5q0 29 -10 53.5t-20 40.5l204 90q23 -29 41.5 -71t18.5 -93q0 -100 -57.5 -158.5t-141.5 -82.5v-922h-246l-22 145h-8q-68 -78 -150 -124 t-192 -46q-174 0 -252 111t-78 303zM254 1178q18 150 82 221t158 71q37 0 68.5 -16t57 -36.5t48 -37t45.5 -16.5q33 0 53.5 23.5t34.5 82.5h154q-18 -147 -82 -219.5t-158 -72.5q-39 0 -69.5 17t-57.5 36.5t-49.5 37t-42.5 17.5q-33 0 -53.5 -23.5t-34.5 -84.5h-154z" />
<glyph unicode="&#x1ef0;" d="M131 514v821h301v-852q0 -121 45 -184t141 -63t142.5 63t46.5 184v852h143q31 2 60.5 7.5t54.5 18.5t39 36.5t14 64.5q0 29 -10 52.5t-21 41.5l205 91q23 -29 41.5 -71t18.5 -93q0 -57 -19.5 -101.5t-53.5 -76t-81 -51t-100 -29.5v-711q0 -262 -118 -400.5t-362 -138.5 q-246 0 -366.5 138.5t-120.5 400.5zM414 -336q0 84 56 136.5t144 52.5t144.5 -52.5t56.5 -136.5t-56.5 -133t-144.5 -49t-144 49t-56 133z" />
<glyph unicode="&#x1ef1;" d="M127 389v627h301v-588q0 -102 30.5 -149.5t116.5 -47.5q57 0 101.5 25t97.5 92v668h100q29 2 59 7t53.5 18.5t38.5 37t15 64.5q0 29 -10 53.5t-20 40.5l204 90q23 -29 41.5 -71t18.5 -93q0 -100 -57.5 -158.5t-141.5 -82.5v-922h-246l-22 145h-8q-68 -78 -150 -124 t-192 -46q-174 0 -252 111t-78 303zM430 -336q0 84 56 136.5t144 52.5t144.5 -52.5t56.5 -136.5t-56.5 -133t-144.5 -49t-144 49t-56 133z" />
<glyph unicode="&#x1ef2;" d="M33 1335h323l136 -321q29 -78 59.5 -152t60.5 -153h9q33 80 63.5 153.5t60.5 151.5l136 321h315l-430 -884v-451h-303v451zM283 1683h319l166 -245h-240z" />
<glyph unicode="&#x1ef3;" d="M63 1016h299l170 -436q29 -72 53.5 -149t49.5 -157h8q20 76 45 153t47 153l150 436h284l-401 -1026q-37 -96 -80 -169t-98 -121t-128 -72.5t-169 -24.5q-45 0 -84 5t-72 15l53 230q39 -12 80 -13q88 0 138.5 37t74.5 96l21 54zM307 1518h307l182 -342h-219z" />
<glyph unicode="&#x1ef4;" d="M33 1335h323l136 -321q29 -78 59.5 -152t60.5 -153h9q33 80 63.5 153.5t60.5 151.5l136 321h315l-430 -884v-451h-303v451zM414 -336q0 84 56 136.5t144 52.5t144.5 -52.5t56.5 -136.5t-56.5 -133t-144.5 -49t-144 49t-56 133z" />
<glyph unicode="&#x1ef5;" d="M63 1016h299l170 -436q29 -72 53.5 -149t49.5 -157h8q20 76 45 153t47 153l150 436h284l-401 -1026q-37 -96 -80 -169t-98 -121t-128 -72.5t-169 -24.5q-45 0 -84 5t-72 15l53 230q39 -12 80 -13q88 0 138.5 37t74.5 96l21 54zM795 -320q0 84 56 136.5t144 52.5 t144.5 -52.5t56.5 -136.5t-56.5 -133t-144.5 -49t-144 49t-56 133z" />
<glyph unicode="&#x1ef6;" d="M33 1335h323l136 -321q29 -78 59.5 -152t60.5 -153h9q33 80 63.5 153.5t60.5 151.5l136 321h315l-430 -884v-451h-303v451zM449 1665l34 150q188 -4 266 -54.5t78 -132.5q0 -53 -22.5 -91t-61 -63.5t-91 -40t-109.5 -18.5l-23 119q37 8 63.5 20.5t26.5 40.5 q0 29 -36.5 46.5t-124.5 23.5z" />
<glyph unicode="&#x1ef7;" d="M63 1016h299l170 -436q29 -72 53.5 -149t49.5 -157h8q20 76 45 153t47 153l150 436h284l-401 -1026q-37 -96 -80 -169t-98 -121t-128 -72.5t-169 -24.5q-45 0 -84 5t-72 15l53 230q39 -12 80 -13q88 0 138.5 37t74.5 96l21 54zM461 1389l34 151q188 -6 266 -56t78 -132 q0 -53 -22.5 -91t-61 -64t-91 -39t-109.5 -17l-23 119q37 6 63.5 19t26.5 42t-36.5 46t-124.5 22z" />
<glyph unicode="&#x1ef8;" d="M33 1335h323l136 -321q29 -78 59.5 -152t60.5 -153h9q33 80 63.5 153.5t60.5 151.5l136 321h315l-430 -884v-451h-303v451zM266 1440q16 141 78 209.5t141 68.5q41 0 76 -14t64.5 -31.5t55.5 -32t50 -14.5q27 0 47.5 20.5t30.5 71.5h154q-16 -141 -78 -209.5t-142 -68.5 q-41 0 -75.5 14t-64.5 31.5t-55.5 32t-49.5 14.5q-27 0 -47.5 -20.5t-30.5 -71.5h-154z" />
<glyph unicode="&#x1ef9;" d="M63 1016h299l170 -436q29 -72 53.5 -149t49.5 -157h8q20 76 45 153t47 153l150 436h284l-401 -1026q-37 -96 -80 -169t-98 -121t-128 -72.5t-169 -24.5q-45 0 -84 5t-72 15l53 230q39 -12 80 -13q88 0 138.5 37t74.5 96l21 54zM278 1178q18 150 82 221t158 71 q37 0 68.5 -16t57 -36.5t48 -37t45.5 -16.5q33 0 53.5 23.5t34.5 82.5h154q-18 -147 -82 -219.5t-158 -72.5q-39 0 -69.5 17t-57.5 36.5t-49.5 37t-42.5 17.5q-33 0 -53.5 -23.5t-34.5 -84.5h-154z" />
<glyph unicode="&#x2000;" horiz-adv-x="997" />
<glyph unicode="&#x2001;" horiz-adv-x="1995" />
<glyph unicode="&#x2002;" horiz-adv-x="997" />
<glyph unicode="&#x2003;" horiz-adv-x="1995" />
<glyph unicode="&#x2004;" horiz-adv-x="665" />
<glyph unicode="&#x2005;" horiz-adv-x="498" />
<glyph unicode="&#x2006;" horiz-adv-x="332" />
<glyph unicode="&#x2007;" />
<glyph unicode="&#x2008;" horiz-adv-x="249" />
<glyph unicode="&#x2009;" horiz-adv-x="399" />
<glyph unicode="&#x200a;" horiz-adv-x="110" />
<glyph unicode="&#x2010;" d="M143 569v213h942v-213h-942z" />
<glyph unicode="&#x2011;" d="M143 569v213h942v-213h-942z" />
<glyph unicode="&#x2012;" d="M164 408v227h901v-227h-901z" />
<glyph unicode="&#x2013;" d="M164 408v227h901v-227h-901z" />
<glyph unicode="&#x2014;" d="M41 408v227h1147v-227h-1147z" />
<glyph unicode="&#x2015;" d="M41 408v227h1147v-227h-1147z" />
<glyph unicode="&#x2018;" d="M377 922q0 168 89 296t269 209l78 -159q-109 -49 -165 -119t-64 -168q20 6 43 6q82 0 134 -50t52 -136q0 -94 -55.5 -150.5t-141.5 -56.5q-115 0 -177 86t-62 242z" />
<glyph unicode="&#x2019;" d="M414 754q215 96 229 284q-23 -6 -41 -6q-84 0 -136 51.5t-52 137.5q0 94 55 150t141 56q117 0 178.5 -87t61.5 -240q0 -168 -88 -296t-268 -210z" />
<glyph unicode="&#x201a;" d="M414 156q0 94 55 150t141 56q117 0 178.5 -87t61.5 -240q0 -168 -88 -296t-268 -210l-80 160q215 96 229 284q-23 -6 -41 -6q-84 0 -136 51.5t-52 137.5z" />
<glyph unicode="&#x201c;" d="M107 922q0 168 89 296t269 209l78 -159q-109 -49 -165 -119t-64 -168q20 6 43 6q82 0 134 -50t52 -136q0 -94 -55.5 -150.5t-141.5 -56.5q-115 0 -177 86t-62 242zM649 922q0 168 89 296t269 209l78 -159q-109 -49 -165 -119t-64 -168q20 6 43 6q82 0 134 -50t52 -136 q0 -94 -55.5 -150.5t-141.5 -56.5q-115 0 -177 86t-62 242z" />
<glyph unicode="&#x201d;" d="M144 754q215 96 229 284q-23 -6 -41 -6q-84 0 -136 51.5t-52 137.5q0 94 55 150t141 56q117 0 178.5 -87t61.5 -240q0 -168 -88 -296t-268 -210zM686 754q215 96 229 284q-23 -6 -41 -6q-84 0 -136 51.5t-52 137.5q0 94 55 150t141 56q117 0 178.5 -87t61.5 -240 q0 -168 -88 -296t-268 -210z" />
<glyph unicode="&#x201e;" d="M144 156q0 94 55 150t141 56q117 0 178.5 -87t61.5 -240q0 -168 -88 -296t-268 -210l-80 160q215 96 229 284q-23 -6 -41 -6q-84 0 -136 51.5t-52 137.5zM686 156q0 94 55 150t141 56q117 0 178.5 -87t61.5 -240q0 -168 -88 -296t-268 -210l-80 160q215 96 229 284 q-23 -6 -41 -6q-84 0 -136 51.5t-52 137.5z" />
<glyph unicode="&#x2020;" d="M182 881v241l330 -18l-18 354h241l-18 -354l330 18v-241l-330 16l18 -1061h-241l18 1061z" />
<glyph unicode="&#x2021;" d="M182 172v242l330 -25l-18 258l18 258l-330 -24v241l330 -18l-18 354h241l-18 -354l330 18v-241l-330 24l18 -258l-18 -258l330 25v-242l-330 18l18 -354h-241l18 354z" />
<glyph unicode="&#x2022;" d="M279 537q0 70 25.5 130t70.5 105t106.5 69.5t132.5 24.5q72 0 133.5 -24.5t106.5 -69.5t70.5 -105.5t25.5 -129.5q0 -72 -25.5 -131.5t-70.5 -104.5t-106.5 -69.5t-133.5 -24.5t-133 24.5t-106 69.5t-70.5 104.5t-25.5 131.5z" />
<glyph unicode="&#x2026;" d="M-2 172q0 84 51 140.5t137 56.5t137.5 -56.5t51.5 -140.5t-51.5 -140.5t-137.5 -56.5t-137 56.5t-51 140.5zM426 172q0 84 51 140.5t137 56.5t137.5 -56.5t51.5 -140.5t-51.5 -140.5t-137.5 -56.5t-137 56.5t-51 140.5zM854 172q0 84 51 140.5t137 56.5t137.5 -56.5 t51.5 -140.5t-51.5 -140.5t-137.5 -56.5t-137 56.5t-51 140.5z" />
<glyph unicode="&#x202f;" horiz-adv-x="399" />
<glyph unicode="&#x2030;" d="M63 246q0 123 75 191.5t186 68.5q113 0 187.5 -68.5t74.5 -191.5q0 -61 -19.5 -111.5t-55.5 -85.5t-84 -54.5t-103 -19.5q-111 0 -186 74t-75 197zM63 1065q0 123 75 191.5t186 68.5q113 0 187.5 -68.5t74.5 -191.5q0 -61 -19.5 -111.5t-55.5 -85t-84 -54t-103 -19.5 q-111 0 -186 73.5t-75 196.5zM190 645l924 406l78 -193l-963 -303zM236 246q0 -80 26.5 -112t61.5 -32t62.5 32t27.5 112t-28 105.5t-62 25.5q-35 0 -61.5 -26.5t-26.5 -104.5zM236 1065q0 -80 26.5 -110.5t61.5 -30.5t62.5 30.5t27.5 110.5t-28 106.5t-62 26.5 q-35 0 -61.5 -26.5t-26.5 -106.5zM645 246q0 123 76 191.5t186 68.5q113 0 187.5 -68.5t74.5 -191.5q0 -61 -19.5 -111.5t-55 -85.5t-84 -54.5t-103.5 -19.5t-103 19.5t-83 54.5t-55.5 85t-20.5 112zM819 246q0 -80 26.5 -112t61.5 -32t62.5 32t27.5 112t-27.5 105.5 t-62.5 25.5t-61.5 -26.5t-26.5 -104.5z" />
<glyph unicode="&#x2032;" d="M469 727l45 678h301l-53 -297l-96 -381h-197z" />
<glyph unicode="&#x2033;" d="M229 727l45 678h301l-53 -297l-96 -381h-197zM711 727l45 678h301l-53 -297l-96 -381h-197z" />
<glyph unicode="&#x2039;" d="M358 367v299l351 315l127 -113l-261 -352l261 -352l-127 -113z" />
<glyph unicode="&#x203a;" d="M393 164l260 352l-260 352l127 113l350 -315v-299l-350 -316z" />
<glyph unicode="&#x2044;" d="M35 207l381 354l104 -96l-332 -408zM709 870l331 408l154 -150l-381 -356z" />
<glyph unicode="&#x205f;" horiz-adv-x="498" />
<glyph unicode="&#x20a1;" d="M162 643q0 143 34.5 259t99 202t155 139t202.5 72l25 211h102l-24 -201h16q16 0 32.5 -1t33.5 -3l24 205h103l-27 -232q53 -20 104.5 -52t94.5 -77l-166 -161q-29 23 -64 45l-98 -836q102 18 178 106l166 -155q-78 -84 -170 -131t-203 -56l-24 -202h-103l25 202 q-43 6 -80 13l-27 -215h-102l29 248q-154 66 -245 222t-91 398zM463 653q0 -209 74 -321l86 727q-78 -45 -119 -148.5t-41 -257.5zM627 242q18 -10 37.5 -17.5t42.5 -11.5l102 872q-29 6 -57 7h-23z" />
<glyph unicode="&#x20a4;" d="M137 0v186q92 35 156.5 101.5t81.5 156.5h-230v142l162 10h58q-6 25 -14.5 49.5t-18.5 48.5h-187v142l138 10q-6 31 -7 59q0 96 35 174t96.5 132.5t147.5 84t188 29.5q127 0 218.5 -43t162.5 -123l-161 -164q-41 43 -86.5 64.5t-104.5 21.5q-98 0 -154.5 -47t-56.5 -145 v-20.5t2 -20.5h371v-154h-332q6 -25 13.5 -49t13.5 -49h305v-152h-299q-8 -53 -34 -95t-73 -87v-8h598v-254h-989z" />
<glyph unicode="&#x20a6;" d="M55 483v107l144 12v98h-144v107l144 12v481h278l182 -481h154v481h217v-481h141v-119h-141v-98h141v-119h-141v-483h-278l-183 483h-153v-483h-217v483h-144zM360 1077l27 -258h68l-86 258h-9zM399 700l9 -98h120l-32 98h-97zM700 700l33 -98h96l-8 98h-121zM774 483 l86 -260h8l-26 260h-68z" />
<glyph unicode="&#x20a7;" d="M43 778v174l139 11v337h375q90 0 172 -17t146.5 -57t107.5 -104.5t59 -156.5h127v-187h-125q-16 -88 -60 -151.5t-108.5 -105.5t-146.5 -61.5t-172 -19.5h-90v-440h-285v778h-139zM467 629h70q90 0 145 39t78 110h-293v-149zM467 965h291q-20 78 -75.5 112.5t-145.5 34.5 h-70v-147z" />
<glyph unicode="&#x20ab;" d="M186 627q0 86 31 153.5t82 115.5t115.5 72.5t130.5 24.5q76 0 124 -19.5t95 -60.5l-8 138v30h-316v152h316v100h248v-100h147v-139l-147 -13v-823h-205l-19 74h-6q-45 -43 -105.5 -68.5t-131.5 -25.5q-160 0 -255.5 100t-95.5 289zM213 0v152h858v-152h-858zM440 625 q0 -98 43 -143.5t115 -45.5q47 0 83 16.5t75 57.5v227q-37 29 -72 41.5t-78 12.5q-63 0 -114.5 -44.5t-51.5 -121.5z" />
<glyph unicode="&#x20ac;" d="M92 440v142l113 8q-2 14 -2 26.5v26.5v26.5t2 26.5h-113v140l131 10q51 229 205 354t375 125q104 0 201.5 -41t173.5 -119l-166 -161q-47 39 -100.5 63.5t-118.5 24.5q-104 0 -172 -63.5t-97 -180.5h518v-152h-538v-43v-30.5t2 -28.5h455v-154h-431q33 -113 100.5 -172 t168.5 -59q72 0 127 28.5t102 81.5l166 -155q-84 -92 -186.5 -140.5t-227.5 -48.5q-104 0 -194 30t-163 88.5t-124 145.5t-76 201h-131z" />
<glyph unicode="&#x20b1;" d="M45 709v106l137 10v95h-137v106l137 10v264h375q82 0 155.5 -14t134 -45t106.5 -81t71 -122h145v-118h-120q2 -14 2 -27.5v-28.5v-18t-2 -19h120v-118h-143q-25 -70 -72 -120t-108.5 -83t-135 -49.5t-153.5 -16.5h-90v-440h-285v709h-137zM467 629h70q127 0 188 80h-258 v-80zM467 827h301q2 10 2 18.5v18.5q0 16 -1 29.5t-3 26.5h-299v-93zM467 1038h256q-55 74 -186 74h-70v-74z" />
<glyph unicode="&#x20b2;" d="M137 643q0 141 34 255t95.5 200t146.5 140t189 75v213h201v-207q86 -14 162.5 -55t136.5 -105l-166 -164q-47 45 -100.5 71t-118.5 26q-135 0 -207 -116t-72 -323q0 -213 76 -323.5t209 -110.5q70 0 111 27v250h-156v245h422v-614q-63 -55 -138 -92t-159 -51v-209h-201 v209q-102 16 -187 66t-146.5 133t-96.5 199t-35 261z" />
<glyph unicode="&#x20b5;" d="M162 643q0 145 35.5 262t101.5 203t158 139t205 70v190h165v-186q86 -10 166 -50t144 -106l-166 -161q-33 27 -68 47t-76 30v-864q88 20 160 102l166 -155q-68 -74 -148.5 -120t-177.5 -62v-207h-165v205q-109 12 -201 61t-158.5 133t-103.5 201t-37 268zM463 653 q0 -174 51 -282.5t148 -145.5v852q-98 -35 -148.5 -143.5t-50.5 -280.5z" />
<glyph unicode="&#x20b9;" d="M180 412v239h152q238 0 286 146h-438v139l166 12h268q-27 63 -97.5 88t-184.5 25h-152v239h891v-151h-305q57 -35 95 -86t54 -115h156v-151h-151q-16 -131 -91 -214t-186 -124l383 -459h-334l-336 412h-176z" />
<glyph unicode="&#x20ba;" d="M74 367v165l174 84v113l-174 -84v166l174 84v405h301v-258l328 158v-166l-328 -157v-113l328 158v-166l-328 -158v-342q63 6 121.5 27.5t103.5 56.5t71.5 80t26.5 100q0 10 -1 24.5t-7 37.5l248 57q16 -66 16 -104q0 -139 -60 -247t-174 -178.5t-277.5 -105.5t-368.5 -29 v476z" />
<glyph unicode="&#x2122;" d="M-27 1206v178h519v-178h-160v-465h-197v465h-162zM563 741v643h211l70 -192l43 -145h8l41 145l70 192h211v-643h-173v197l23 236h-8l-109 -304h-119l-110 304h-8l22 -236v-197h-172z" />
<glyph unicode="&#x2202;" d="M123 379q0 104 32.5 192t91 150.5t138.5 97.5t176 35q72 0 141.5 -33t120.5 -92v35q0 172 -52 270.5t-173 98.5q-59 0 -110.5 -24t-98.5 -69l-131 185q84 72 174 111.5t199 39.5q119 0 208 -45t149.5 -126t90 -195.5t29.5 -253.5q0 -176 -43 -319.5t-121 -246 t-184.5 -159t-235.5 -56.5q-82 0 -154.5 29t-128 81t-87 127t-31.5 167zM399 397q0 -90 47.5 -134t110.5 -44q39 0 76 14.5t68.5 48t57 88t42.5 132.5q-43 68 -95.5 95.5t-107.5 27.5q-86 0 -142.5 -55.5t-56.5 -172.5z" />
<glyph unicode="&#x2206;" d="M29 0v182l405 1153h363l403 -1153v-182h-1171zM352 254h518l-141 451l-117 399h-8l-112 -399z" />
<glyph unicode="&#x220f;" d="M51 -246v1546h1127v-1546h-301v1284h-525v-1284h-301z" />
<glyph unicode="&#x2211;" d="M121 -68l422 594l-402 596v178h953v-253h-586v-9l342 -512l-356 -510v-8h649v-254h-1022v178z" />
<glyph unicode="&#x221a;" d="M68 756l356 145l203 -602q12 -41 22 -84t21 -84h8q12 88 31 168l321 1380h201l-443 -1843h-208l-308 842l-151 -64z" />
<glyph unicode="&#x221e;" d="M-27 649q0 193 92.5 299.5t241.5 106.5q96 0 162 -45t113 -127h8q72 109 149.5 156.5t182.5 47.5q70 0 130 -29.5t105 -81.5t71.5 -124t26.5 -156q0 -109 -26.5 -191.5t-74.5 -140t-111.5 -87t-137.5 -29.5q-109 0 -191.5 47t-164.5 178h-8q-47 -78 -114 -125t-161 -47 q-61 0 -114.5 28.5t-93.5 77t-62.5 111t-22.5 131.5zM193 655q0 -53 31.5 -94t84.5 -41q47 0 84 27.5t66 91.5q-35 76 -75 106.5t-85 30.5q-53 0 -79.5 -33.5t-26.5 -87.5zM674 717q47 -96 96 -143.5t119 -47.5t108.5 49.5t38.5 114.5q0 84 -44 131t-118 47 q-110 1 -200 -151z" />
<glyph unicode="&#x222b;" d="M301 -307l29 217q16 -4 33.5 -6t39.5 -2q80 0 104.5 63.5t24.5 208.5q0 117 -12 231.5t-26.5 229.5t-26.5 233.5t-12 245.5q0 109 15 201t57 159.5t118 106.5t197 39q35 0 67.5 -5t48.5 -9l-30 -220q-25 8 -72 9q-80 0 -104.5 -63.5t-24.5 -209.5q0 -117 12.5 -231.5 t25.5 -229t25.5 -233.5t12.5 -246q0 -109 -15.5 -201t-57.5 -159.5t-116.5 -106.5t-195.5 -39q-37 0 -69 5.5t-48 11.5z" />
<glyph unicode="&#x2248;" d="M106 327q66 160 152 228.5t182 68.5q63 0 110.5 -24.5t87.5 -53t76 -53t79 -24.5t81.5 40.5t67.5 126.5l180 -84q-66 -160 -151.5 -228t-182.5 -68q-63 0 -110 24.5t-87 53t-76 53t-79 24.5q-41 0 -81 -41t-68 -127zM106 801q66 160 152 228.5t182 68.5q63 0 110.5 -24.5 t87.5 -53t76 -53t79 -24.5t81.5 40.5t67.5 126.5l180 -84q-66 -160 -151.5 -228t-182.5 -68q-63 0 -110 24.5t-87 53t-76 53t-79 24.5q-41 0 -81 -41t-68 -127z" />
<glyph unicode="&#x2260;" d="M143 332v211h301l150 266h-451v211h568l147 250h191l-146 -250h182v-211h-301l-149 -266h450v-211h-567l-147 -250h-191l146 250h-183z" />
<glyph unicode="&#x2264;" d="M143 0v213h942v-213h-942zM143 606v250l942 291v-248l-352 -94l-284 -70v-8l284 -70l352 -94v-248z" />
<glyph unicode="&#x2265;" d="M143 0v213h942v-213h-942zM143 315v248l353 94l284 70v8l-284 70l-353 94v248l942 -291v-250z" />
<glyph unicode="&#x25ca;" d="M160 676l332 696h245l332 -696l-332 -696h-245zM408 676l92 -197l110 -248h8l111 248l92 197l-92 196l-111 248h-8l-110 -248z" />
<glyph unicode="&#xe000;" horiz-adv-x="1013" d="M0 0v1014h1014v-1014h-1014z" />
<glyph unicode="&#xfb01;" d="M14 780v224l136 10v55q0 80 19 151.5t64.5 125t117 84t173.5 30.5q63 0 115.5 -12t87.5 -25l-55 -221q-25 10 -52.5 15.5t-52.5 5.5q-55 0 -85.5 -34t-30.5 -112v-61h184v-236h-184v-780h-301v780h-136zM774 1354q0 84 58.5 136t148.5 52q92 0 150.5 -52t58.5 -136 t-58.5 -136.5t-150.5 -52.5q-90 0 -148.5 52.5t-58.5 136.5zM834 0v1016h301v-1016h-301z" />
<glyph unicode="&#xfb02;" d="M23 780v224l135 10v55q0 80 19.5 151.5t64.5 125t116.5 84t173.5 30.5q63 0 115.5 -12t87.5 -25l-55 -221q-25 10 -52.5 15.5t-52.5 5.5q-55 0 -85.5 -34t-30.5 -112v-61h184v-236h-184v-780h-301v780h-135zM805 315v1121h301v-1133q0 -47 18.5 -65.5t36.5 -18.5h15.5 t21.5 4l35 -223q-25 -10 -61.5 -17.5t-90.5 -7.5q-78 0 -131 25t-84.5 69t-46 106.5t-14.5 139.5z" />
</font>
</defs>
</svg>
